<?xml version="1.0" encoding="utf-8"?>
<!-- Generator: Adobe Illustrator 24.0.1, SVG Export Plug-In . SVG Version: 6.00 Build 0)  -->
<svg version="1.1" id="Layer_1" xmlns="http://www.w3.org/2000/svg" xmlns:xlink="http://www.w3.org/1999/xlink" x="0px" y="0px"
	 viewBox="0 0 1920 1080" style="enable-background:new 0 0 1920 1080;" xml:space="preserve">
<style type="text/css">
	.st0{fill-rule:evenodd;clip-rule:evenodd;fill:#E30613;}
	.st1{fill-rule:evenodd;clip-rule:evenodd;fill:#EF7D00;}
	.st2{fill-rule:evenodd;clip-rule:evenodd;fill:#FFEC1B;}
	.st3{fill-rule:evenodd;clip-rule:evenodd;fill:#52B156;}
	.st4{fill-rule:evenodd;clip-rule:evenodd;fill:#ABA2D0;}
	.st5{fill-rule:evenodd;clip-rule:evenodd;fill:#7C6EB0;}
	.st6{fill-rule:evenodd;clip-rule:evenodd;fill:#CA5098;}
	.st7{fill:#291C19;}
	.st8{fill:#FFFFFF;}
	.st9{fill-rule:evenodd;clip-rule:evenodd;}
</style>
<g>
	<path class="st0" d="M811.1,497.6l-5.5-41c0,0,42.6-7.1,70.6,20.9l-26.6,32.6C849.6,510.1,836,496.5,811.1,497.6L811.1,497.6z"/>
	<path class="st1" d="M842.5,522.7l28.5-30.1c0,0,32.3,28.7,28.1,68.1l-42.1-0.2C857,560.5,859.1,541.4,842.5,522.7L842.5,522.7z"/>
	<path class="st2" d="M842.6,563.2l41.3,3.5c0,0-2.3,43.1-35.7,64.4l-26-33.1C822.1,598.1,838.3,587.8,842.6,563.2L842.6,563.2z"/>
	<path class="st3" d="M811,588.6l22.9,34.5c0,0-35.2,25.1-72.7,12.2l9.7-41C770.9,594.2,789.1,600.5,811,588.6L811,588.6z"/>
	<path class="st4" d="M771.5,579.6L758.8,619c0,0-41.5-11.9-54.8-49.2l38.1-18C742.1,551.8,748.5,569.9,771.5,579.6L771.5,579.6z"/>
	<path class="st5" d="M753.8,543.1l-38.7,14.7c0,0-16.6-39.9,4.4-73.6l37.8,18.6C757.3,502.8,747.1,519.1,753.8,543.1L753.8,543.1z"
		/>
	<path class="st6" d="M771.4,506.6l-35.6-21.2c0,0,20.9-37.8,60.3-42.4l9,41.1C805.1,484.1,786,486.3,771.4,506.6L771.4,506.6z"/>
	<path class="st7" d="M789.9,511.9c-3.9,1.6-7.4,3.9-10.4,6.9s-5.3,6.5-6.9,10.4c-1.5,3.8-2.3,7.7-2.3,11.8s0.8,8,2.3,11.8
		c1.6,3.9,3.9,7.4,6.9,10.4c3,3,6.5,5.3,10.4,6.9c3.8,1.5,7.7,2.3,11.8,2.3s8-0.8,11.8-2.3c3.9-1.6,7.4-3.9,10.4-6.9
		c3-3,5.3-6.5,6.9-10.4c1.5-3.8,2.3-7.7,2.3-11.8s-0.8-8-2.3-11.8c-1.6-3.9-3.9-7.4-6.9-10.4c-3-3-6.5-5.3-10.4-6.9
		c-3.8-1.5-7.7-2.3-11.8-2.3S793.7,510.4,789.9,511.9L789.9,511.9z"/>
	<path class="st8" d="M778.2,554.1c-1.5-0.9-2.9-2-4.1-3.3c-1.9-5.3-2.2-11-1-16.5c0.6-1.2,1.3-2.3,2-3.3c0.2-0.3,0.4-0.7,0.7-1
		l7.1,4.2c0,0.1,0,0.1,0,0.2c0,3.8,0.4,7.6,1.1,11.3c0,0,0,0,0,0l-5.5,8.6C778.5,554.3,778.3,554.2,778.2,554.1L778.2,554.1z"/>
	<path class="st8" d="M799.3,568.7c1.2,0.6,2.5,1.1,3.8,1.6c-5.5,0.2-11-1-15.9-3.9l11.9,2.1C799.1,568.6,799.2,568.6,799.3,568.7
		L799.3,568.7z"/>
	<path class="st8" d="M799.2,566.6l-14-2.5c-1.6-2-3.1-4.1-4.4-6.3c-0.3-0.6-0.7-1.1-1-1.7l5.5-8.6c0.1,0,0.3,0.1,0.4,0.1
		c3.4,0.9,6.9,1.6,10.4,2.1c0.2,0,0.4,0.1,0.5,0.1l6.6,11.4c-1.1,1.6-2.3,3.2-3.5,4.8C799.7,566.1,799.4,566.3,799.2,566.6
		L799.2,566.6z"/>
	<path class="st8" d="M822.5,561.7c-1.1,1.1-2.3,2.1-3.5,3c-0.2-1.6-0.6-3.3-1.1-4.8l7-13.1c1.9-0.9,3.8-1.9,5.5-3.1
		c0.2-0.2,0.4-0.3,0.6-0.5C830.5,549.9,827.7,556.6,822.5,561.7L822.5,561.7z"/>
	<path class="st8" d="M822.2,544.7c0.3,0.5,0.5,1,0.8,1.5l-6.8,12.6c0,0-0.1,0-0.1,0c-3.7,0.7-7.4,1-11.1,1.1l-6.8-11.7
		c1.1-2,2.1-3.9,3.1-5.9c0.7-1.3,1.4-2.7,2.1-4l14-1.4C819.2,539.5,820.8,542,822.2,544.7L822.2,544.7z"/>
	<path class="st8" d="M819.4,529.8c-0.7,1.8-1.4,3.5-2.1,5.2l-13.6,1.4c-0.2-0.2-0.3-0.4-0.5-0.6c-1.6-1.8-3.2-3.6-4.8-5.5
		c0,0,0,0,0,0c-0.7-0.7-1.3-1.3-2-2l3.8-11.4c0.3-0.1,0.5-0.1,0.8-0.2c2.1-0.2,4.1-0.4,6.2-0.6c1.3-0.1,2.5-0.1,3.8,0l9.4,10.6
		C820.1,527.7,819.7,528.8,819.4,529.8L819.4,529.8z"/>
	<path class="st8" d="M822.5,520.2c2.6,2.6,4.6,5.5,6,8.7c-1.8-1.2-3.6-2.2-5.6-3c-0.3-0.1-0.6-0.2-0.9-0.3l-9.2-10.4
		c0.1-0.4,0.1-0.9,0.1-1.4C816.4,515.2,819.7,517.3,822.5,520.2L822.5,520.2z"/>
	<path class="st8" d="M792.3,513.2C792.4,513.2,792.4,513.3,792.3,513.2c2.2,0.8,4.1,1.9,5.9,3.1l-3.5,10.7c0,0,0,0-0.1,0
		c-0.7,0.3-1.5,0.6-2.2,0.9c-2.9,1.3-5.8,2.8-8.5,4.6l-7-4.1c0-0.2,0-0.4,0.1-0.6c0.5-1.3,0.9-2.5,1.5-3.7c0.4-0.9,0.9-1.9,1.4-2.7
		c0.3-0.4,0.7-0.7,1-1.1c3.3-3.3,7.2-5.7,11.4-7.1C792.4,513.1,792.4,513.2,792.3,513.2L792.3,513.2z"/>
	<polygon class="st9" points="932.4,503.6 947.6,503.6 947.6,553.7 966.4,553.7 966.4,568.1 947.6,568.1 932.4,568.1 932.4,553.7 
		932.4,503.6 	"/>
	<path class="st9" d="M1024.7,519.8h-11.6v5.1c-4.4-3.9-10.2-6.3-16.5-6.3c-13.8,0-25,11.2-25,25.1c0,13.8,11.2,25.1,25,25.1
		c6.4,0,12.1-2.4,16.5-6.3v6.3h11.6V519.8L1024.7,519.8z M998.7,530.4c7,0,12.6,5.7,12.6,12.6s-5.6,12.6-12.6,12.6
		s-12.6-5.7-12.6-12.6S991.8,530.4,998.7,530.4L998.7,530.4z"/>
	<path class="st9" d="M1154.6,519.8H1143v5.1c-4.4-3.9-10.2-6.3-16.5-6.3c-13.8,0-25,11.2-25,25.1c0,13.8,11.2,25.1,25,25.1
		c6.4,0,12.1-2.4,16.5-6.3c0,0-0.3,0.7-1,1.8c-1.9,3-6.3,8.8-13.3,8.8c-9.4,0-10.9-3.9-10.9-3.9l-14.8,0.3c8.9,23.9,48,22,51.6-0.8
		v-5.8V519.8L1154.6,519.8z M1128.6,530.4c7,0,12.6,5.7,12.6,12.6s-5.6,12.6-12.6,12.6s-12.6-5.7-12.6-12.6
		S1121.6,530.4,1128.6,530.4L1128.6,530.4z"/>
	<path class="st9" d="M1215.1,519.8h-11.6v5.1c-4.4-3.9-10.2-6.3-16.5-6.3c-13.8,0-25,11.2-25,25.1c0,13.8,11.2,25.1,25,25.1
		c6.4,0,12.1-2.4,16.5-6.3v6.3h11.6V519.8L1215.1,519.8z M1189.1,530.4c7,0,12.6,5.7,12.6,12.6s-5.6,12.6-12.6,12.6
		s-12.6-5.7-12.6-12.6S1182.1,530.4,1189.1,530.4L1189.1,530.4z"/>
	<polygon class="st9" points="1079.9,519.2 1094.5,519.2 1094.5,567.9 1079.9,567.9 1079.9,519.2 	"/>
	<path class="st9" d="M1087.2,495.3c4.7,0,8.5,3.8,8.5,8.5s-3.8,8.5-8.5,8.5c-4.7,0-8.5-3.8-8.5-8.5S1082.5,495.3,1087.2,495.3
		L1087.2,495.3z"/>
	<polygon class="st9" points="1038.1,503.6 1053.3,503.6 1053.3,553.7 1072.2,553.7 1072.2,568.1 1053.3,568.1 1038.1,568.1 
		1038.1,553.7 1038.1,503.6 	"/>
</g>
</svg>
