<svg xmlns="http://www.w3.org/2000/svg" width="32" height="84" viewBox="0 0 32 84">
  <g id="Icon_map-male" data-name="Icon map-male" transform="translate(-9.08 0.64)" opacity="0.5">
    <path id="Caminho_46" data-name="Caminho 46" d="M16.747,69.754a3.117,3.117,0,0,0,3.333,3.381,3.115,3.115,0,0,0,3.333-3.381V37.632h3.333V69.754a3.118,3.118,0,0,0,3.333,3.381,3.116,3.116,0,0,0,3.333-3.381v-54.1H35.08V35.627c0,4.049,5.01,4.049,5,0V15.08c0-4.473-3.177-7.88-8.333-7.88H18.413c-4.7,0-8.333,2.906-8.333,7.755V35.941a2.5,2.5,0,1,0,5,0V15.653h1.667Z" transform="translate(0 9.225)" fill="none" stroke="#000" stroke-width="2"/>
    <path id="Caminho_47" data-name="Caminho 47" d="M27.451,7.335A6.975,6.975,0,1,1,20.475.36a6.975,6.975,0,0,1,6.975,6.975Z" transform="translate(4.399)" fill="none" stroke="#000" stroke-width="2"/>
  </g>
</svg>
