<?xml version="1.0" encoding="utf-8"?>
<!-- Generator: Adobe Illustrator 24.0.1, SVG Export Plug-In . SVG Version: 6.00 Build 0)  -->
<svg version="1.1" id="Layer_1" xmlns="http://www.w3.org/2000/svg" xmlns:xlink="http://www.w3.org/1999/xlink" x="0px" y="0px"
	 viewBox="0 0 1456.4 311" style="enable-background:new 0 0 1456.4 311;" xml:space="preserve">
<style type="text/css">
	.st0{fill:#FFFFFF;}
</style>
<path class="st0" d="M427.1,121.4c30.1,0,49.5,15.6,58.6,41.9h44.9c-11-49.9-50.6-81.1-103.5-81.1c-63.2,0-110.8,49.1-110.8,113.4
	s47.6,111.9,110.8,111.9c52.9,0,91.4-32.7,103.5-81.1h-44.9c-9.1,24.7-28.9,41.9-58.6,41.9c-41.5,0-67.4-29.7-67.4-72.3
	C360.1,153,385.6,121.4,427.1,121.4L427.1,121.4z M612.5,106.6h-1.9l-2.3-21.3h-37.7v223.1h41.9V167.1c0-29.7,22.8-46.1,52.9-46.1
	c6.5,0,8,0.4,8,0.4V80.7c0,0-2.7-0.8-8-0.8C652.5,79.9,628.9,85.3,612.5,106.6z M1062.1,79.9c-37.3,0-60.1,16-70,26.6h-1.9
	l-2.3-21.3h-37.7v223.1h41.9V167.9c0-31.2,28.2-47.6,62.8-47.6c29.7,0,51,14.8,51,45.7v142.4h41.9v-145
	C1147.3,101.6,1103.9,79.9,1062.1,79.9z M1201.4,85.3h41.9v223.1h-41.9V85.3z M796.7,82.2c-63.6,0-111.9,48.3-111.9,112.7
	s48,112.7,111.9,112.7c63.6,0,111.9-48.3,111.9-112.7S860.3,82.2,796.7,82.2L796.7,82.2z M796.7,267.2c-41.5,0-68.1-30.5-68.1-72.3
	s26.6-73.1,68.1-73.1s68.1,31.2,68.1,73.1S838.2,267.2,796.7,267.2z M1378.4,172.8c-41.5-9.1-39.6-19.4-39.6-28.5
	c0-11,12.2-24.7,32.4-24.7c16.7,0,34.6,8.4,34.6,36.5h40.4c1.5-45.7-28.5-73.5-75-73.5c-41.1,0-74.2,28.5-74.2,63.6
	c0,44.2,35,57.9,73.1,66.2c40.4,8.8,43.8,21.3,43.8,30.1c0,16.7-17.1,31.2-41.1,31.2c-17.1,0-43.4-10.7-43.4-43H1289
	c-2.7,51,34.3,80.3,83.7,80.3c46.8,0,83.7-30.1,83.7-70C1456.1,195.3,1416.1,180.8,1378.4,172.8L1378.4,172.8z M139,0L0,308.3h44.5
	l27-62h172.8l27,62h44.2L177.4,0H139z M157.2,52.5h1.9l2.3,5.7l39.2,89.8h-84.9l39.2-89.8L157.2,52.5z M87.2,211.3l12.9-28.9h115.7
	l12.9,28.9H87.2z"/>
</svg>
