<?xml version="1.0" encoding="utf-8"?>
<!-- Generator: Adobe Illustrator 24.0.1, SVG Export Plug-In . SVG Version: 6.00 Build 0)  -->
<svg version="1.1" id="layer" xmlns="http://www.w3.org/2000/svg" xmlns:xlink="http://www.w3.org/1999/xlink" x="0px" y="0px"
	 viewBox="0 0 599.7 133.2" style="enable-background:new 0 0 599.7 133.2;" xml:space="preserve">
<style type="text/css">
	.st0{fill:#FFFFFF;}
</style>
<g>
	<path class="st0" d="M44.4,72c1.4,1,1.3,3,2.6,3.9l0.6,4.3l-3.1,4.6c-4,2.1-10,3-13.7-0.4c-2.1-1.9-2.7-4.6-2.1-7.4l1.5-4
		c0.8-0.6,2-0.7,2.5-1.7c2-1.3,4.5-1,6.7-1.5C41.1,70.6,43.6,69.7,44.4,72"/>
	<path class="st0" d="M34,97.6c1.3,0,2.2,0.9,3.4,0.7c1.7,0.6,1.5,2.7,3.2,3.2c1.3,2.6,2.2,5.5,2.9,8.4c-0.5,1.7,0.9,2.7,0.4,4.2
		l0.5,0.3c0.1,1.6-0.1,3.4-0.8,5c0.3,2.9-1.2,5.4-2.5,7.9c-0.9,0.6-1.3,2.2-2.6,1.9c-2.2,0.7-2.5,4.1-5.2,3.6
		c-1.7,1.3-4.1,0.6-6.2,0.6c-1.2-0.6-2.9-0.5-3.7-1.5c-2.1-0.9-4-2.4-5.8-3.9c-0.7-1.6-2.3-2.3-2.5-4c0.6-2.1-0.7-4-0.1-6.1
		l-0.4-3.5l1.3-6c2.2-1.2,1.6-3.9,3.8-4.8c1.4-3.2,4.8-3.9,7.4-5.5c1-0.2,2.2,0.3,2.9-0.6C31.4,97.2,32.8,98.7,34,97.6"/>
	<path class="st0" d="M148.3,0.7c-0.6,9.9-8.7,16.5-13,24.9c-1.8,5-6.2,7.9-9.2,12.4c-2.8,2.9-5.5,6-7.8,9.3
		c0.4,2.3,2.9,2.9,4.3,4.6c3.1,1.9,3.5,5.5,6.2,7.6c1.6,0,1.6,2.4,3.4,2.1c3.7,4,6.7,8.1,9.8,12.5c0.5,1.5,1.3,3.1,2.6,4.2
		c2.5,3.6,4.5,7.4,7,11c0.3,4.1,3.8,6.8,4.8,10.6c1.5,2,2.2,4.4,3.6,6.4c2.2,4.8,3.6,9.7,6.2,14.3c0.5,1.1-0.1,2.1-0.7,2.9
		c-1,0.8-1.8-0.6-2.9-0.4c-5.7-2.1-11.2-5.1-16.5-8.3c-5.5-4.4-11.5-7.6-16.9-12.2c-2.1-0.6-2.9-3-4.9-4c-5.2-3.2-9.3-7.8-14.6-10.9
		c-2.4-1.8-4.7-3.6-7.1-5.5c-1.8-0.2-2.4-2.3-4.2-2.9c-3.9-2.4-7.5-5.7-11.5-7.9l-0.3,1.9c-2.7,2.6-2,6.6-3.9,9.5
		c-0.1,4.1-2.9,7.1-4.1,10.8c-3.3,5.9-6.2,11.9-9.6,17.7c-4.6,6-7,13.3-13.4,18.1c-1.4,1.8-3,2.7-4.8,3.8c-0.8-0.2-1.9-0.1-2.1-1
		c-0.8-1.5,0.2-3.7-0.8-5c0.9-2,0.3-4.3,0.8-6.6l-0.3-1c0.1-3.1,1.6-5.7,1-8.8c0.8-2,1.2-4.1,1.4-6.3c1-2.7,1.8-5.5,2.1-8.4
		c0.9-1.7,1.3-3.8,1.1-5.8c0.7-1.8,0.8-4,2.7-5.3c0.3-1.2,0-2.4,0.2-3.6c1.9-5.8,4.2-11.3,5.7-17.2l-0.7-0.6
		c-4.1-0.2-8,0.6-11.8-0.4c-6.3-0.1-12.7-0.9-18.7-2.2c-2.5-0.5-5.4-0.2-7.6-1.6c-1.5,0.1-3.1,0.3-4.6-0.4c-2.9-1.4-6.4-1.2-9.2-2.7
		c-2.2,0.3-3.7-1.1-5.7-1.3c-1.9,0.1-2.9-1.5-4.3-2.5v-0.6c3.5-4.8,9.1-6.1,14.1-7.9c5-1.5,10.5-1.7,15.7-2.7
		c3.3-0.5,6.9,0.4,10.1-0.2c5.9,0.1,11.7,1.1,17.6,1.3c2,0.3,3.8,1.2,5.7,1.1l-0.1-0.8l-5.5-7.6c-2.1-4.9-5.9-9-7.3-14.2
		c-1.3-1.5-0.1-3.9-1-5.5c-0.1-0.8,0.6-1.3,0.9-1.9c1.2-0.5,2.5,0.3,3.7-0.4c3.6,0.8,6.9,2.1,10.4,2.8c3.7,1.5,7.5,2.9,10.8,5.4
		c4.1,2.9,9.1,4.8,12.3,9.4c0.8,0.8,2.2,0.9,3.3,0.6c1-0.1,1.2-1.3,2.1-1.7c4.3-2.7,9.2-4.3,13.5-7.3c1.8-1.8,4.6-2,5.6-4.3
		c1.3-0.6,2.5-1.5,3.9-1.8c2.5-1.7,4.9-3.6,7.6-5c1.4-0.1,2.5-0.9,3.6-1.7c4.3-2.4,8.9-4.3,13-7.1c0.9-2.4,3.7-1.9,5.6-2.4
		C146.5-0.4,147.8-0.6,148.3,0.7"/>
	<path class="st0" d="M493.2,83.1c-1.5,1-3.5,1.6-6.5,1.6c-4.1,0-7.6-3.4-7.6-7.9c0-6.2,4.7-8.6,9.2-8.6c1.8,0,3.6,0.3,4.7,0.5
		L493.2,83.1z M476.2,59.3c2.4-3.6,4.9-5.2,9.6-5.2c6.6,0,7,5.9,7,11.1c-1.3,0-3-0.3-4.6-0.3c-8.9,0-18.7,4-18.7,14.3
		c0,7.2,6.5,11.3,13.1,11.3c4.3,0,7.4-2.3,10.7-4.8c1.2,2.4,4.1,4.3,7.8,4.8l7.3-5.9l-1.4-1.5c-0.7,0.2-1.6,0.4-2,0.4
		c-2.1,0-2.9-1.3-2.9-5.7v-3.3c0.1-5.5,0.4-10.6,0.4-14.1c0-9.7-7.4-12.1-16.1-12.1c-4.6,0-8.5,0.6-12.6,1.8v9.3L476.2,59.3
		L476.2,59.3z"/>
	<path class="st0" d="M259.5,34.7h-4.2c-3.1-9.4-12.9-13.1-21.5-13.1c-17.4,0-24.6,14-24.6,30.8c0,28.2,20.4,33,28.7,33
		c8.1,0,15.4-3.5,19.8-10.5l3.1,1.3l-3.1,11.1c-8,1.5-13,2.3-19.5,2.3c-29.8,0-42.9-18.4-42.9-36.4c0-20.6,15.9-35.8,38.3-35.8
		c13,0,18,2.2,25.1,4L259.5,34.7z"/>
	<path class="st0" d="M270.9,59.3V50c4.1-1.2,8-1.8,12.6-1.8c8.7,0,16.1,2.3,16.1,12.1c0,3.5-0.3,8.6-0.4,14.1v3.4
		c0,4.5,0.8,5.8,2.9,5.8c0.5,0,1.4-0.2,2.1-0.4l1.5,1.5l-7.3,5.9c-3.7-0.5-6.7-2.3-7.8-4.8c-3.3,2.5-6.4,4.8-10.7,4.8
		c-6.6,0-13.2-4.1-13.2-11.3c0-10.3,9.9-14.3,18.7-14.3c1.6,0,3.2,0.3,4.6,0.3c0-5.3-0.4-11.1-7-11.1c-4.8,0-7.2,1.6-9.7,5.2h-2.4
		V59.3z M289.9,68.7c-1.1-0.2-2.9-0.5-4.7-0.5c-4.5,0-9.2,2.3-9.2,8.6c0,4.5,3.5,7.9,7.6,7.9c3,0,5-0.7,6.6-1.7L289.9,68.7z"/>
	<path class="st0" d="M321.5,48.3c0,4.1,0.4,12.7,0.4,20.7v14.2c0,3.3,1.6,3.8,3.8,4.4v2c-2.9,0-5.9-0.3-8.8-0.3
		c-2.6,0-5.3,0.2-7.9,0.3v-2c2.3-0.6,3.4-1.1,3.4-4.4V71.1c0-7-0.6-11-1.4-13c-0.8-1.9-1.8-2.6-4.1-3v-1.9c4.5-1.1,9.7-2.9,12.6-4.9
		L321.5,48.3L321.5,48.3z M316.7,31.8c2.8,0,5.4,2.1,5.4,5s-2.5,5-5.4,5c-2.8,0-5.4-2-5.4-5C311.4,33.9,313.9,31.8,316.7,31.8"/>
	<path class="st0" d="M330.6,87.7c3.1-0.5,5.2-2.9,6.5-4.6l9.5-12.1l-11.2-15.2c-1.9-2.4-2.5-3.1-5.4-4.4v-2c2.9,0.1,6,0.3,8.9,0.3
		c2.9,0,5.9-0.2,8.8-0.3v2c-1.2,0.6-2.1,0.8-2.1,2.2c0,0.7,0.3,2,1.2,3.1l5.4,7.3l4.8-6.3c1-1.4,1.5-2.5,1.5-3.2
		c0-1.8-1.2-2.5-2.7-3.1v-2c2.6,0.1,5.2,0.3,7.8,0.3c2.5,0,5.2-0.2,7.7-0.3v2c-3.8,0.9-5.9,3.2-8,5.9L355,67.9l10.5,14.6
		c1.5,1.9,3.7,4.4,6.2,5.2v2c-3-0.1-5.8-0.3-8.7-0.3c-2.9,0-5.8,0.2-8.7,0.3v-2c1.1-0.1,2-1.2,2-2.1c0-0.6-0.8-2.1-1.6-3.3l-5.3-7.5
		l-5.3,7.1c-0.6,0.9-1.4,2.8-1.4,3.6c0,1.6,0.8,2,2.1,2.2v2c-2.5-0.1-5.2-0.3-7.7-0.3c-2.1,0-4.2,0.2-6.3,0.3v-2H330.6z"/>
	<path class="st0" d="M378.4,59.3V50c4.1-1.2,8-1.8,12.6-1.8c8.7,0,16.1,2.3,16.1,12.1c0,3.5-0.3,8.6-0.4,14.1v3.4
		c0,4.5,0.8,5.8,2.9,5.8c0.5,0,1.4-0.2,2-0.4l1.5,1.5l-7.3,5.9c-3.7-0.5-6.6-2.3-7.8-4.8c-3.3,2.5-6.4,4.8-10.7,4.8
		c-6.6,0-13.2-4.1-13.2-11.3C374.1,69,384,65,392.8,65c1.6,0,3.2,0.3,4.6,0.3c0-5.3-0.4-11.1-7-11.1c-4.8,0-7.2,1.6-9.7,5.2h-2.3
		V59.3z M397.5,68.7c-1.1-0.2-2.9-0.5-4.7-0.5c-4.5,0-9.2,2.3-9.2,8.6c0,4.5,3.5,7.9,7.6,7.9c3,0,5-0.7,6.6-1.7L397.5,68.7z"/>
	<path class="st0" d="M432.8,27.1c0-1.8,1.2-1.9,3.9-1.9c10.5,0,14.5,5.7,14.5,14.2s-5.8,13.8-14.5,13.8c-1.3,0-2.6-0.1-4.4-0.2
		L432.8,27.1z M421.8,81.4c0,4.2-1.3,5.6-5.5,6.1v1.8h16.8c1.4,0,2.7,0.1,4,0.2c1.4,0.1,2.7,0.2,4,0.2c10.6,0,23.2-4.1,23.2-16.7
		c0-10.1-6.1-15.3-15.3-17.8V55c7.3-2.3,14.1-7.7,14.1-16c0-12.7-13.1-17.4-24-17.4c-2.3,0-4.6,0.4-8.9,0.4c-3.9,0-7.9-0.4-12.8-0.4
		v2.1c2.6,0.4,4.2,1.3,4.2,5c0,8.8,0.3,21.2,0.3,32.9v19.8H421.8z M432.3,57.2c2,0,3.6-0.1,5.3-0.1c9.4,0,14.8,6.6,14.8,15.5
		c0,7.5-5,13.6-13.3,13.6c-6,0-6.7-1-6.7-6.2L432.3,57.2L432.3,57.2z"/>
	<path class="st0" d="M510.2,56.2c2.9,0,4.3,1.7,4.3,4.5c0,3.1,0.5,8.4,0.5,14v9.6c0,3.3-1.2,3.7-3.6,4.6v1.9c2.7,0,5.6-0.3,8.3-0.3
		c2.8,0,5.6,0.2,8.4,0.3v-1.9c-2.6-0.3-3.6-1.1-3.6-4.6v-8c0-7.6,0.2-13.1,0.2-16.8c0-3.6,6.2-4.6,8.2-4.6c6.9,0,8,7.2,8,12.5v16.9
		c0,3.3-0.8,4-3.5,4.6v1.9c3.1,0,6.1-0.3,9.2-0.3c2.4,0,4.8,0.2,7.2,0.3v-1.9c-2.7-0.8-3.5-1.5-3.5-4.6V63.6c0-8.3-3.8-14-13.4-14
		c-4.1,0-8.5,2.4-11.9,4.7c0.1-1.7,0.1-3.2,0.2-4.9h-2c-3.7,2.3-7.2,3.8-13,4.9L510.2,56.2L510.2,56.2z"/>
	<path class="st0" d="M599.6,88.7c-2.9-0.9-6.4-4-7.7-5.5l-14.7-17.3l7.5-7.9c2.4-2.4,5.6-4.7,9.1-5.7v-2c-2.4,0.2-4.8,0.3-7.3,0.3
		c-2.6,0-5.4-0.1-8-0.3v2c0.9,0.4,1.8,1.6,1.8,2.5c0,1.1-0.5,2.5-2.5,4.6l-8,7.9V21.5h-2.1c-3.5,2.6-8.1,4.7-13,5.9v2.2
		c2.4,0,4.7,2.3,4.9,6.3c0.3,3.7,0.8,11,0.8,16.7v31.6c0,2.1-0.8,3.9-3.7,4.4v2c2.6-0.2,5.2-0.3,7.8-0.3c2.9,0,5.8,0.3,8.7,0.3v-2
		c-2.4-0.5-3.3-1.7-3.3-4.6V70.7h0.2l10,11c1.7,1.8,2.8,4.1,2.8,5.2c0,1-0.7,1.8-1.6,1.8v2c3.3,0,6.6-0.3,9.9-0.3
		c2.8,0,5.7,0.2,8.5,0.3v-2H599.6z"/>
</g>
</svg>
