<?xml version="1.0" encoding="utf-8"?>
<!-- Generator: Adobe Illustrator 24.0.1, SVG Export Plug-In . SVG Version: 6.00 Build 0)  -->
<svg version="1.1" id="coca_x5F_cola" xmlns:svg="http://www.w3.org/2000/svg"
	 xmlns="http://www.w3.org/2000/svg" xmlns:xlink="http://www.w3.org/1999/xlink" x="0px" y="0px" viewBox="0 0 398 130.3"
	 style="enable-background:new 0 0 398 130.3;" xml:space="preserve">
<style type="text/css">
	.st0{fill:#FFFFFF;}
</style>
<path id="c_1_" class="st0" d="M152.8,113.6c-14.8-9.5-34.9-11.2-67.3-2.2c-34.6,8.1-46.1,13.3-61.2,2.9c-5.8-5.1-7.9-13.4-6.3-25.3
	c3.6-19.4,13.4-38.1,30.7-58.8c9.7-10.8,18.6-20,30.5-23.7c9.1-2.3,8.2,4.8,7.1,5.8c-1.2,0-3.1,0.2-4.6,1.2c-1.2,0.9-4.6,4-4.8,8.1
	c-0.3,6.3,6.3,5,9.1,1.5c3-3.9,7.5-11.4,4-18.3c-1.5-2.5-4-4.2-7.2-4.8C71.9-0.6,61.8,4.5,52.5,10.3C32.1,24.4,15.8,44.1,6.6,65.5
	c-5.3,13-10.1,31.5-2.9,46.6c5.6,10.5,17.2,16.1,31,14.9c9.7-1,21.4-4.2,29.3-6c7.9-1.9,48.2-15.8,61.5,8.4c0,0,4.4-8.6,15.4-8.7
	c9.1-0.8,22.1,2.6,31.6,9.6C169.3,125.5,160.3,118.5,152.8,113.6L152.8,113.6z"/>
<path id="oca" class="st0" d="M89.6,32.6c-7.5-5-22.7,4.5-34.9,20.8C43.7,67.9,38.9,84.9,44.1,92.7c7.8,9.2,22.2-4.2,28.3-11.4
	l0.8-0.8c4.2-4.5,7.4-9.9,10.5-15c0,0,2.9-4.7,3-5c1.8-0.3,3.9-0.8,6.3-1.5c0,0.1-9.2,15.5-8.3,23.2c0.3,2.3,0.1,10.9,8.4,13.4
	c11.1,1.9,19.9-6.7,27.7-14.4c0,0,1.3-1.3,2.1-2c-0.2,0.8-0.4,1.8-0.4,1.8c-3.2,11.3,1.1,13.7,3.9,14.5c8.3,2.4,18.2-9.6,18.2-9.6
	c-0.3,3.8-1,6.9,3,9.4c3.8,1.3,7.6-0.7,10.5-2.6c10.4-7.4,18.8-18.9,25.6-28.8h-4.3c-0.1,0-10.7,15.4-17.6,18.8c0,0-1.3,0.6-2,0.1
	c-0.9-0.8-0.5-2.4,0-3.5c0-0.1,26.7-46.3,26.7-46.3h-12.6c0,0-1.4,2.2-1.5,2.4c-0.1-0.1-0.3-0.5-0.4-0.6c-7.8-10.8-25.4,5.8-38.7,25
	c-5.1,7.4-11.6,15.7-18.4,21.7c0,0-10,9.2-14.3,2.6c-1.6-2.8-1.1-6.8-0.2-9.5c5-14.2,13.5-27,23.3-34.8c2.8-2.1,5.7-2.8,7.2-1.9
	c1.4,0.8,1.6,2.9,0.7,4.3c-2.3-0.1-4.1,0.6-5.6,2.1c-2.9,3.1-3.9,6-3,8.8c4.5,6.4,13.5-6.3,13-14c-0.2-2.8-1.6-5.4-3.8-6.7
	c-3.3-2-8.3-1.5-11.5,0.1c-4.3,1.6-11.2,7.4-15.2,11.8c-5,5.6-13.7,11.8-16.4,11.1C90,53.2,97.3,38.2,89.6,32.6L89.6,32.6z
	 M150.3,54.8c2.4-3.4,9.6-12.5,11.3-14c5.8-5.1,8.2-2.9,8.4-1.3c-5.4,9.8-11.9,20.9-17.9,31c0,0-1.9,2.9-1.9,2.9
	c-2.7,4.1-5.4,7.6-9.7,10c-0.6,0.2-1.7,0.3-2.3-0.3c-0.8-0.5-1.2-1.5-1.1-2.4C137.2,77.6,140.4,68,150.3,54.8L150.3,54.8z
	 M81.8,60.6c0,0-0.1,0.3-0.2,0.4c0,0-5.5,8.9-5.5,8.9c-3.3,4.4-7.4,9.9-12.6,12.6c-1.5,0.5-3.6,0.8-4.7-0.5
	c-2.3-2.7-1.1-6.5-0.1-9.6l0.3-1.1c2.7-7.4,7.1-14,11.3-20.1c0.1,0,0.2-0.1,0.2-0.1c0,0,0,0,0,0.1c2.7,5.1,7.6,7.5,11.3,8.6
	c0,0,0,0,0,0.1C82.1,60.1,82,60.3,81.8,60.6L81.8,60.6z M87,50.1c0,0.1-2.4,5.6-2.4,5.6c-0.3,0.3-0.9,0.1-1.5,0L82,55.5
	c-3.4-1.1-6-3.3-6.8-6c-1.1-5.2,3.4-9.4,5.4-10.8c1.9-1.3,4.8-2,6.5-0.7c1.1,1.2,1.5,2.8,1.5,4.6C88.6,45,87.9,47.6,87,50.1L87,50.1
	z"/>
<path id="c" class="st0" d="M246,67c-1.2-2.6-4.1-4.3-7.2-4.1c-10,0.9-19.7,9.1-24.8,20.9c-2.7,6-4.1,11-5.1,19
	c3.1-3.6,9.4-9.4,16.6-12.6c0,0,1-7.6,6-14.4c1.9-2.8,5.7-7.3,9.9-6.1c3.7,1.2,2.4,11.5-2.5,21.4c-3.6,7.3-9.2,14.6-14.8,19.6
	c-5,4.2-12.3,9.3-18.8,5.4c-4.1-2.4-6.1-7.4-5.7-13.9c1.9-18.4,10.3-34,22.3-51.9c12.4-16.6,26-33.6,44.3-42.6
	c3.7-1.9,7.2-2.3,10.2-1.2c0,0-17.2,9.5-25.4,27c-2.1,4.4-5,10.4-2.1,15.8c1.5,2.8,4.2,3,6.4,2.8c10.1-2.3,16.6-11.7,21.9-20.3
	c3.1-6.5,5.8-13,5.8-20.2c0-0.9,0-2-0.1-2.9c4.8-2.5,14.7,2,14.7,2c7.7,2.5,24.1,15.1,29.6,17.5c2.7-3.1,7.1-7.9,9.6-10.2l-3.6-2.2
	c-5.8-3.5-11.9-6.9-17.9-10.2c-13.7-7.5-24.8-4.8-30.5-2.8c-2.2,0.8-4.3,1.5-4.3,1.5c-4.2-4.6-11.1-4.2-16.2-2.9
	c-18.3,5.2-35.2,18-53.4,40.2c-13.4,17.4-21.7,32.4-26.1,47.2c-3.4,10-4.4,24.6,3.9,33.4c7.1,7.4,16.4,5.8,23.1,3.1
	c14.3-7.1,27.2-22.3,33.7-39.8C246.9,80,248.7,72.6,246,67L246,67z M279,12.1c-1.9,21.8-18.8,34.6-23,35.6c-2.5,0.5-6.9-0.6-3-9.8
	c5.7-12.3,15.4-22.8,25.8-28.1C279.1,10.7,279,11.3,279,12.1L279,12.1z"/>
<path id="v" class="st0" d="M379.4,14.9c-9.1,5.2-18.5,8.5-30,7.4c-3.2,3.6-6.2,7.2-9.1,11c16,4.1,33-5,42.5-13.6
	C392.9,11,398,0,398,0S390.5,8.6,379.4,14.9L379.4,14.9z"/>
<polygon id="square" class="st0" points="207.3,33 195.4,33 188.6,44 200.6,44 "/>
<path id="ola" class="st0" d="M349.4,114.6c-1.3,0.9-3.1,0.2-2.4-1.8c1.7-5.1,8.4-15.5,8.4-15.5l18.6-33h-12.7
	c-0.6,1-1.9,3.3-1.9,3.3c-0.6-1-2.4-3.2-3.1-3.6c-3.1-2-7.7-1-10.8,0.7c-13.7,8-23.7,23.8-31.6,36.2c0,0-8.3,13.7-12.9,14.7
	c-3.6,0.3-3.2-4.6-3.1-5.7c1.4-8.2,4.6-15.9,7.9-22.9c6.6-4.6,14.2-10.6,21-17.2c14.9-14.2,27.5-30.4,29.3-34c0,0-2,0.4-4.3,0.5
	c-11.5,16-34.9,39.2-42,42.7c3.1-7.6,23.5-43.7,40.8-61l2.7-2.6c4.2-4.1,8.6-8.3,12-9c0.4,0,0.8,0,1.2,0.8c0.2,3.2-1,5.6-2.4,8.3
	l-1.9,3.9c0,0,2.7-0.5,4.5-1.1c2.1-3.9,4.4-8.3,3.5-13.5c-0.3-1.7-1.5-2.9-3.1-3.2c-5.2-1-10.8,2.8-15.3,5.9l-0.2,0.1
	c-23.3,18.2-42.9,44.5-60.1,80.4c-1.2,0.9-6.1,2.1-6.9,1.5c1.7-3.5,3.8-8.2,4.9-13.3c0.2-1.5,0.4-2.9,0.4-4.4c0-3.1-0.8-6.1-3.6-8.1
	c-3.3-1.6-7.4-0.9-10.1,0.4c-12.3,5.1-21.5,17.7-28.1,28.1c-3.6,6.6-7.1,13.7-8.1,21.7c-0.7,6.3,0.7,10.4,4.3,12.5
	c3.7,1.9,8.4-0.1,10.2-1c12.4-6.6,21.1-19.7,28-31.7c0.3,0,4-0.1,6.8-0.9c0,0,0.1,0,0.1,0c-0.2,0.5-1.6,4.9-1.6,4.9
	c-4.3,12.7-6.4,21.4-2.3,26.5c5.9,7.2,15.6-0.3,23.5-10.2c-1.7,11.9,4.5,13.7,9.1,12.8c5.4-1.5,11.4-7.2,14.2-10.2
	c-0.9,3.5-0.7,9.6,4.2,10.3c3.4,0.6,5.9-1.2,8.8-2.8c10.4-5.7,22.9-24.6,26.2-30.1h-4.3C362.6,101.2,356.7,110.3,349.4,114.6
	L349.4,114.6z M255.7,113.4c-0.7-1-0.9-2.1-0.9-3.2c-0.1-7.1,7.6-19.9,13-26.9c0,0,0,0,0,0c2.3,5,7.4,8.2,10.5,9.5
	C274.5,101.4,261.2,119.8,255.7,113.4L255.7,113.4z M280.5,88.9c-0.4,0.3-6.9-1.9-8.1-7.9c-1.1-5.2,2.5-9.2,5.9-11.3
	c1.5-1.2,3.7-1.6,5.3-1c1.5,1,1.9,2.8,1.9,4.8c0,1.2-0.2,2.4-0.3,3.6c0,0,0,0.2,0,0.3C284.2,81.4,282.5,85.4,280.5,88.9L280.5,88.9z
	 M332.5,111.1c0,0-1.2,1.1-1.2,1.1c-1.8,1.6-3.6,3.2-5.7,2.4c-0.6-0.2-1-1-1.1-1.6c-0.1-4.5,1.9-8.6,3.9-12.7l0.5-1.1
	c5.6-9.4,12.2-20.5,21.8-28.1c1.6-1.2,3.4-2.1,5.2-1.4c0.4,0.4,0.9,1.1,0.9,1.8c0,0.2-0.2,0.8-0.3,1c-2.7,4.3-5.2,8.9-7.7,13.3
	C343.9,94.3,338.8,103.3,332.5,111.1L332.5,111.1z"/>
</svg>
