<?xml version="1.0" encoding="utf-8"?>
<!-- Generator: Adobe Illustrator 24.0.1, SVG Export Plug-In . SVG Version: 6.00 Build 0)  -->
<svg version="1.1" id="Layer_1" xmlns="http://www.w3.org/2000/svg" xmlns:xlink="http://www.w3.org/1999/xlink" x="0px" y="0px"
	 viewBox="0 0 533.3 533.3" style="enable-background:new 0 0 533.3 533.3;" xml:space="preserve">
<style type="text/css">
	.st0{fill:#FFFFFF;}
</style>
<path class="st0" d="M266.7,0C119.6,0,0,119.6,0,266.7c0,147,119.6,266.7,266.7,266.7c147,0,266.6-119.7,266.6-266.7
	C533.3,119.6,413.7,0,266.7,0z M266.7,502c-130,0-235.4-105.4-235.4-235.4c0-130,105.4-235.4,235.4-235.4
	c130,0,235.3,105.4,235.3,235.4C502,396.6,396.7,502,266.7,502z"/>
<path class="st0" d="M92.6,290.3v-0.5h0.2v-0.5h0.2V289h0.2v-0.5h0.2v-0.2h0.2v-0.5H94v-0.2h0.2v-0.5h0.2v-0.5h0.2v-0.2H95v-0.5h0.2
	v-0.2h0.2v-0.5h0.2v-0.5H96v-0.2h0.2v-0.5h0.2v-0.2h0.2v-0.5h0.2V283h0.2v-0.5h0.2V282h0.2v-0.2h0.2v-0.5h0.2V281h0.2v-0.5h0.2v-0.2
	h0.2v-0.5h0.2v-0.5h0.2v-0.2h0.2v-0.5h0.2v-0.2h0.2v-0.5h0.2v-0.5h0.2v-0.2h0.2v-0.5h0.2v-0.2h0.2v-0.5h0.2v-0.2h0.2v-0.5h0.2v-0.5
	h0.2v-0.2h0.2V274h0.2v-0.2h0.2v-0.5h0.2V273h0.2v-0.5h0.2V272h0.2v-0.2h0.2v-0.5h0.2V271h0.2v-0.5h0.2v-0.5h0.2v-0.2h0.2v-0.5h0.2
	v-0.2h0.2v-0.5h0.2v-0.2h0.2v-0.5h0.2v-0.5h0.2v-0.2h0.2v-0.5h0.2v-0.2h0.2v-0.5h0.2v-0.2h0.2v-0.5h0.2v-0.5h0.2v-0.2h0.2V264h0.2
	v-0.2h0.2v-0.5h0.2v-0.5h0.2v-0.2h0.2V262h0.2v-0.2h0.2v-0.5h0.2V261h0.2v-0.5h0.2v-0.5h0.2v-0.2h0.2v-0.5h0.2v-0.2h0.2v-0.5h0.2
	v-0.5h0.2v-0.2h0.2v-0.5h0.2v-0.2h0.2v-0.5h0.2v-0.2h0.2v-0.5h0.2v-0.5h0.2v-0.2h0.2v-0.5h0.2v-0.2h0.2V254h0.2v-0.2h0.2v-0.5h0.2
	v-0.5h0.2v-0.2h0.2V252h0.2v-0.2h0.2v-0.5h0.2v-0.5h0.2v-0.2h0.2v-0.5h0.2v-0.2h0.2v-0.5h0.2v-0.2h0.2v-0.5h0.2v-0.5h0.2v-0.2h0.2
	v-0.5h0.2v-0.2h0.2v-0.5h0.2v-0.2h0.2V246h0.2v-0.5h0.2v-0.2h0.2v-0.5h0.2v-0.2h0.2V244h0.2v-0.5h0.2v-0.2h0.2v-0.5h0.2v-0.2h0.2
	v-0.5h0.2v-0.2h0.2v-0.5h0.2v-0.5h0.2v-0.2h0.2v-0.5h0.2v-0.2h0.2v-0.5h0.2v-0.2h0.2v-0.5h0.2v-0.5h0.2v-0.2h0.2v-0.5h0.2v-0.2h0.2
	v-0.5h0.2v-0.5h0.2V236h0.2v-0.5h0.2v-0.2h0.2v-0.5h0.2v-0.2h0.2V234h0.2v-0.5h0.2v-0.2h0.2v-0.5h0.2v-0.2h0.2v-0.5h0.2v-0.2h0.2
	v-0.5h0.2v-0.5h0.2v-0.2h0.2v-0.5h0.2v-0.2h0.2v-0.5h0.2v-0.5h0.2v-0.2h0.2v-0.5h0.2v-0.2h0.2v-0.5h0.2v-0.2h0.2v-0.5h0.2v-0.5h0.2
	V226h0.2v-0.5h0.2v-0.2h0.2v-0.5h0.2v-0.2h0.2V224h0.2v-0.5h-30.7v-0.5h0.2v-0.2h0.2v-0.5h0.2v-0.5h0.2v-0.2h0.2v-0.5h0.2v-0.2h0.2
	v-0.5h0.2v-0.2h0.2v-0.5h0.2v-0.5h0.2v-0.2h0.2v-0.5h0.2v-0.2h0.2v-0.5h0.2v-0.5h0.2V217h0.2v-0.5h0.2v-0.2h0.2v-0.5h0.2v-0.2h0.2
	V215h0.2v-0.5h0.2v-0.2h0.2v-0.5h0.2v-0.2h0.2v-0.5h0.2v-0.5h0.2v-0.2h0.2v-0.5h0.2v-0.2h0.2v-0.5h0.2v-0.2h0.2v-0.5h0.2v-0.5h0.2
	v-0.2h0.2v-0.5h0.2v-0.2h0.2v-0.5h0.2V208h0.2v-0.2h0.2v-0.5h0.2V207h0.2v-0.5h0.2v-0.2h0.2v-0.5h0.2v-0.5h0.2v-0.2h0.2v-0.5h0.2
	v-0.2h0.2v-0.5h0.2v-0.5h0.2v-0.2h0.2v-0.5h0.2v-0.2h0.2v-0.5h0.2v-0.2h0.2v-0.5h0.2v-0.5h0.2v-0.2h0.2v-0.5h0.2v-0.2h0.2v-0.5h0.2
	v-0.5h0.2v-0.2h0.2V198h0.2v-0.2h0.2v-0.5h0.2V197h0.2v-0.5h0.2V196h0.2v-0.2h0.2v-0.5h0.2v-0.2h0.2v-0.5h0.2v-0.5h0.2v-0.2h0.2
	v-0.5h0.2v-0.2h0.2v-0.5h0.2v-0.2h0.2v-0.5h0.2v-0.5h0.2v-0.2h0.2v-0.5h0.2v-0.2h0.2V190h129.5v0.5H254v0.5h-0.2v0.2h-0.2v0.5h-0.2
	v0.2H253v0.5h-0.2v0.2h-0.2v0.5h-0.2v0.5H252v0.2h-0.2v0.5h-0.2v0.2h-0.2v0.5h-0.2v0.2h-0.2v0.5h-0.2v0.5h-0.2v0.2h-0.2v0.5h-0.2
	v0.2h-0.2v0.5h-0.2v0.2h-0.2v0.5h-0.2v0.5h-0.2v0.2h-0.2v0.5h-0.2v0.2h-0.2v0.5h-0.2v0.5h-0.2v0.2h-0.2v0.5h-0.2v0.2h-0.2v0.5h-0.2
	v0.2h-0.2v0.5H246v0.5h-0.2v0.2h-0.2v0.5h-0.2v0.2H245v0.5h-0.2v0.2h-0.2v0.5h-0.2v0.5H244v0.2h-0.2v0.5h-0.2v0.2h-0.2v0.5H243v0.2
	h-0.2v0.5h-0.2v0.5h-0.2v0.2h-0.2v0.5h-0.2v0.2h-0.2v0.5h-0.2v0.2h-0.2v0.5h-0.2v0.5h-0.2v0.2h-0.2v0.5h-0.2v0.2h-0.2v0.5h-0.2v0.5
	h-0.2v0.2h-0.2v0.5h-0.2v0.2h-0.2v0.5h-0.2v0.2h-0.2v0.5h-0.2v0.5h-0.2v0.2h-0.2v0.5h-0.2v0.2h-0.2v0.5h-0.2v0.2h-0.2v0.5h-0.2v0.5
	H236v0.2h-0.2v0.5h-0.2v0.2h-0.2v0.5H235v0.2h-0.2v0.5h-0.2v0.5h-0.2v0.2H234v0.5h-0.2v0.2h-0.2v0.5h-0.2v0.2H233v0.2h-57.9v0.2
	h-0.2v0.5h-0.2v0.2h-0.2v0.5h-0.2v0.5h-0.2v0.2h-0.2v0.5h-0.2v0.2h-0.2v0.5h-0.2v0.2h-0.2v0.5h-0.2v0.5h-0.2v0.2h-0.2v0.5h-0.2v0.2
	h-0.2v0.5h-0.2v0.2H171v0.5h-0.2v0.2h-0.2v0.5h-0.2v0.5H170v0.2h-0.2v0.5h-0.2v0.2h-0.2v0.5H169v0.2h-0.2v0.5h-0.2v0.5h-0.2v0.2H168
	v0.5h-0.2v0.2h-0.2v0.5h-0.2v0.2h-0.2v0.5h-0.2v0.2h-0.2v0.5h-0.2v0.5h-0.2v0.2h-0.2v0.5h-0.2v0.2h-0.2v0.5h-0.2v0.2h-0.2v0.5h-0.2
	v0.2h-0.2v0.5h-0.2v0.5h-0.2v0.2h-0.2v0.5h-0.2v0.2h-0.2v0.5h-0.2v0.2h-0.2v0.5h-0.2v0.5h-0.2v0.2H162v0.5h-0.2v0.2h-0.2v0.5h-0.2
	v0.2H161v0.5h-0.2v0.2h-0.2v0.5h-0.2v0.5H160v0.2h-0.2v0.5h-0.2v0.2h-0.2v0.5H159v0.2h-0.2v0.5h-0.2v0.5h-0.2v0.2h-0.2v0.5h-0.2v0.2
	h-0.2v0.5h-0.2v0.2h-0.2v0.5h-0.2v0.2h-0.2v0.5h-0.2v0.5h-0.2v0.2h-0.2v0.5h-0.2v0.2h-0.2v0.5h-0.2v0.2h-0.2v0.5h-0.2v0.5h-0.2v0.2
	h-0.2v0.5h92.8v-0.5h0.2v-0.2h0.2v-0.5h0.2v-0.2h0.2v-0.5h0.2v-0.2h0.2V254h0.2v-0.5h0.2v-0.2h0.2v-0.5h0.2v-0.2h0.2V252h0.2v-0.5
	h0.2v-0.2h0.2v-0.5h0.2v-0.2h0.2v-0.5h0.2v-0.2h0.2v-0.5h0.2v-0.5h0.2v-0.2h0.2v-0.5h0.2v-0.2h0.2v-0.5h0.2v-0.2h0.2v-0.5h0.2v-0.5
	h0.2V246h0.2v-0.5h0.2v-0.2h0.2v-0.5h0.2v-0.5h0.2V244h0.2v-0.5h0.2v-0.2h0.2v-0.5h0.2v-0.2h0.2v-0.5h0.2v-0.5h0.2v-0.2h0.2v-0.5
	h0.2v-0.2h0.2v-0.5h0.2v-0.2h0.2v-0.5h0.2v-0.5h0.2v-0.2h0.2v-0.5h0.2v-0.2h0.2v-0.5h0.2v-0.5h0.2v-0.2h0.2v-0.5h0.2V236h0.2v-0.5
	h0.2v-0.2h0.2v-0.5h0.2v-0.5h0.2V234h0.2v-0.5h0.2v-0.2h0.2v-0.5h0.2v-0.5h0.2v-0.2h0.2v-0.5h0.2v-0.2h0.2v-0.5h0.2v-0.2h0.2v-0.5
	h0.2v-0.5h0.2v-0.2h0.2v-0.5h0.2v-0.2h0.2v-0.5h0.2v-0.2h0.2v-0.5h0.2V227h0.2v-0.2h0.2v-0.5h0.2V226h0.2v-0.5h0.2V225h0.2v-0.2h0.2
	v-0.5h0.2V224h0.2v-0.5h0.2v-0.2h0.2v-0.5h0.2v-0.5h0.2v-0.2h0.2v-0.5h0.2v-0.2h0.2v-0.5h0.2v-0.2h0.2v-0.5h0.2v-0.5h0.2v-0.2h0.2
	v-0.5h0.2v-0.2h0.2v-0.5h0.2v-0.5h0.2v-0.2h0.2V217h0.2v-0.2h0.2v-0.5h0.2V216h0.2v-0.5h0.2V215h0.2v-0.2h0.2v-0.5h0.2v-0.2h0.2
	v-0.5h0.2v-0.2h0.2v-0.5h0.2v-0.5h0.2v-0.2h0.2v-0.5h0.2v-0.2h0.2v-0.5h0.2v-0.5h0.2v-0.2h0.2v-0.5h0.2v-0.2h0.2v-0.5h0.2v-0.2h0.2
	v-0.5h0.2v-0.5h0.2v-0.2h0.2V207h0.2v-0.2h0.2v-0.5h0.2V206h0.2v-0.5h0.2v-0.5h0.2v-0.2h0.2v-0.5h0.2v-0.2h0.2v-0.5h0.2v-0.5h0.2
	v-0.2h0.2v-0.5h0.2v-0.2h0.2v-0.5h0.2v-0.2h0.2v-0.5h0.2v-0.5h0.2v-0.2h0.2v-0.5h0.2v-0.2h0.2V199h0.2v-0.2h0.2v-0.5h0.2v-0.5h0.2
	v-0.2h0.2V197h0.2v-0.2h0.2v-0.5h0.2v-0.5h0.2v-0.2h0.2v-0.5h0.2v-0.2h0.2v-0.5h0.2v-0.2h0.2v-0.5h0.2v-0.5h0.2v-0.2h0.2v-0.5h0.2
	v-0.2h0.2v-0.5h0.2v-0.5h0.2v-0.2h0.2v-0.5h0.2v-0.2h0.2v-0.5h0.2v-0.2h0.2V189h0.2v-0.5h0.2v-0.2h0.2v-0.5h0.2v-0.2h0.2V187h0.2
	v-0.2h0.2v-0.5h0.2v-0.5h0.2v-0.2h0.2v-0.5h0.2v-0.2h0.2v-0.5h0.2v-0.5h0.2v-0.2h0.2v-0.5h0.2v-0.2h0.2v-0.5h0.2v-0.2h0.2v-0.5h0.2
	v-0.5h0.2v-0.2h0.2v-0.5h0.2v-0.2h0.2v-0.5h0.2v-0.2h0.2V179h0.2v-0.5h0.2v-0.2h0.2v-0.5h0.2v-0.2h0.2v-0.5h0.2v-0.5h0.2v-0.2h0.2
	v-0.5h0.2v-0.2h0.2v-0.5h0.2v-0.2h0.2v-0.5h0.2v-0.5h0.2v-0.2h0.2v-0.5h0.2v-0.2h0.2v-0.5h0.2v-0.2h0.2v-0.5h0.2v-0.5h0.2V171h0.2
	v-0.5h0.2v-0.2h0.2v-0.5h0.2v-0.5h0.2V169h0.2v-0.5h0.2v-0.2h0.2v-0.5h0.2v-0.2h0.2v-0.5h0.2v-0.5h0.2v-0.2h0.2v-0.5h0.2v-0.2h0.2
	v-0.5h0.2v-0.2h0.2v-0.5h0.2v-0.5h0.2v-0.2h0.2v-0.5h0.2v-0.2h0.2v-0.5h0.2V162h0.2v-0.2h0.2v-0.5h0.2V161h0.2v-0.5h0.2v-0.2h0.2
	v-0.5h0.2v-0.5h0.2V159h0.2v-0.5h0.2v-0.2h0.2v-0.5h0.2v-0.2h0.2v-0.5h0.2v-0.5h0.2v-0.2h0.2v-0.5h0.2v-0.2h0.2v-0.5h0.2v-0.5h0.2
	v-0.2h0.2v-0.5h0.2v-0.2h0.2v-0.5h0.2v-0.2h0.2v-0.5h0.2V152h0.2v-0.2h0.2v-0.5h0.2V151h0.2v-0.5h0.2v-0.2h0.2v-0.5h0.2v-0.5h0.2
	v-0.2h0.2v-0.5h0.2v-0.2h0.2v-0.5h0.2v-0.5h0.2v-0.2h0.2v-0.5h0.2v-0.2h0.2v-0.5h0.2v-0.2h0.2v-0.5h0.2v-0.5h0.2v-0.2h0.2v-0.5h0.2
	v-0.2h0.2v-0.5h0.2v-0.5h0.2v-0.2h0.2V142h0.2v-0.2h0.2v-0.5h0.2V141h0.2v-0.5h0.2V140h0.2v-0.2h0.2v-0.5h0.2v-0.2h0.2v-0.5h0.2
	v-0.2h0.2v-0.5h0.2v-0.5h0.2v-0.2h0.2v-0.5h0.2v-0.2h0.2v-0.5h0.2v-0.5h0.2v-0.2h0.2v-0.5h0.2v-0.2h0.2V134h0.2v-0.2h0.2v-0.5h0.2
	v-0.5h0.2v-0.2h0.2V132h0.2v-0.2h0.2v-0.5h0.2V131h0.2v-0.5h0.2v-0.5h0.2v-0.2h0.2v-0.5h0.2v-0.2h0.2v-0.5h0.2v-0.5h0.2v-0.2h0.2
	v-0.5h0.2v-0.2h0.2v-0.5h0.2v-0.2h0.2v-0.5h0.2v-0.5h0.2v-0.2h0.2v-0.5h0.2v-0.2h0.2V124h0.2v-0.2h0.2v-0.5h0.2v-0.5h0.2v-0.2h0.2
	V122h0.5v0.5h0.2v0.2h0.2v0.5h0.2v0.5h0.2v0.2h0.2v0.5h0.2v0.2h0.2v0.5h0.2v0.5h0.2v0.2h0.2v0.5h0.2v0.2h0.2v0.5h0.2v0.2h0.2v0.5
	h0.2v0.5h0.2v0.2h0.2v0.5h0.2v0.2h0.2v0.5h0.2v0.2h0.2v0.5h0.2v0.5h0.2v0.2h0.2v0.5h0.2v0.2h0.2v0.5h0.2v0.5h0.2v0.2h0.2v0.5h0.2
	v0.2h0.2v0.5h0.2v0.2h0.2v0.5h0.2v0.5h0.2v0.2h0.2v0.5h0.2v0.2h0.2v0.5h0.2v0.5h0.2v0.2h0.2v0.5h0.2v0.2h0.2v0.5h0.2v0.2h0.2v0.5
	h0.2v0.5h0.2v0.2h0.2v0.5h0.2v0.2h0.2v0.5h0.2v0.5h0.2v0.2h0.2v0.5h0.2v0.2h0.2v0.5h0.2v0.2h0.2v0.5h0.2v0.5h0.2v0.2h0.2v0.5h0.2
	v0.2h0.2v0.5h0.2v0.5h0.2v0.2h0.2v0.5h0.2v0.2h0.2v0.5h0.2v0.2h0.2v0.5h0.2v0.5h0.2v0.2h0.2v0.5h0.2v0.2h0.2v0.5h0.2v0.5h0.2v0.2
	h0.2v0.5h0.2v0.2h0.2v0.5h0.2v0.2h0.2v0.5h0.2v0.5h0.2v0.2h0.2v0.5h0.2v0.2h0.2v0.5h0.2v0.5h0.2v0.2h0.2v0.5h0.2v0.2h0.2v0.5h0.2
	v0.2h0.2v0.5h0.2v0.5h0.2v0.2h0.2v0.5h0.2v0.2h0.2v0.5h0.2v0.5h0.2v0.2h0.2v0.5h0.2v0.2h0.2v0.5h0.2v0.2h0.2v0.5h0.2v0.5h0.2v0.2
	h0.2v0.5h0.2v0.2h0.2v0.5h0.2v0.5h0.2v0.2h0.2v0.5h0.2v0.2h0.2v0.5h0.2v0.2h0.2v0.5h0.2v0.5h0.2v0.2h0.2v0.5h0.2v0.2h0.2v0.5h0.2
	v0.5h0.2v0.2h0.2v0.5h0.2v0.2h0.2v0.5h0.2v0.2h0.2v0.5h0.2v0.5h0.2v0.2h0.2v0.5h0.2v0.2h0.2v0.5h0.2v0.5h0.2v0.2h0.2v0.5h0.2v0.2
	h0.2v0.5h0.2v0.2h0.2v0.5h0.2v0.5h0.2v0.2h0.2v0.5h0.2v0.2h0.2v0.5h0.2v0.5h0.2v0.2h0.2v0.5h0.2v0.2h0.2v0.5h0.2v0.2h0.2v0.5h0.2
	v0.5h0.2v0.2h0.2v0.5h0.2v0.2h0.2v0.5h0.2v0.5h0.2v0.2h0.2v0.5h0.2v0.2h0.2v0.5h0.2v0.2h0.2v0.5h0.2v0.5h0.2v0.2h0.2v0.5h0.2v0.2
	h0.2v0.5h0.2v0.5h0.2v0.2h0.2v0.5h0.2v0.2h0.2v0.5h0.2v0.2h0.2v0.5h0.2v0.5h0.2v0.2h0.2v0.5h0.2v0.2h0.2v0.5h0.2v0.5h0.2v0.2h0.2
	v0.5h0.2v0.2h0.2v0.5h0.2v0.2h0.2v0.5h0.2v0.5h0.2v0.2h0.2v0.5h0.2v0.2h0.2v0.5h0.2v0.5h0.2v0.2h0.2v0.5h0.2v0.2h0.2v0.5h0.2v0.2
	h0.2v0.5h0.2v0.5h0.2v0.2h0.2v0.5h0.2v0.2h0.2v0.5h0.2v0.2h0.2v0.5h0.2v0.5h0.2v0.2h0.2v0.5h0.2v0.2h0.2v0.5h0.2v0.5h0.2v0.2h0.2
	v0.5h0.2v0.2h0.2v0.5h0.2v0.2h0.2v0.5h0.2v0.5h0.2v0.2h0.2v0.5h0.2v0.2h0.2v0.5h0.2v0.5h0.2v0.2h0.2v0.5h0.2v0.2h0.2v0.5h0.2v0.2
	h0.2v0.5h0.2v0.5h0.2v0.2h0.2v0.5h0.2v0.2h0.2v0.5h0.2v0.5h0.2v0.2h0.2v0.5h0.2v0.2h0.2v0.5h0.2v0.2h0.2v0.5h0.2v0.5h0.2v0.2h0.2
	v0.5h0.2v0.2h0.2v0.5h0.2v0.5h0.2v0.2h0.2v0.5h0.2v0.2h0.2v0.5h0.2v0.2h0.2v0.5h0.2v0.5h0.2v0.2h0.2v0.5h0.2v0.2h0.2v0.5h0.2v0.5
	h0.2v0.2h0.2v0.5h0.2v0.2h0.2v0.5h0.2v0.2h0.2v0.5h0.2v0.5h0.2v0.2h0.2v0.5h0.2v0.2h0.2v0.5h0.2v0.5h0.2v0.2h0.2v0.5h0.2v0.2h0.2
	v0.5h0.2v0.2h0.2v0.5h0.2v0.5h0.2v0.2h0.2v0.5h0.2v0.2h0.2v0.5h0.2v0.5h0.2v0.2h0.2v0.5h0.2v0.2h0.2v0.5h0.2v0.2h0.2v0.5h0.2v0.5
	h0.2v0.2h0.2v0.5h0.2v0.2h0.2v0.5h0.2v0.5h0.2v0.2h0.2v0.5h0.2v0.2h0.2v0.5h0.2v0.2h0.2v0.5h0.2v0.5h0.2v0.2h0.2v0.5h0.2v0.2h0.2
	v0.5h0.2v0.5h0.2v0.2h0.2v0.5h0.2v0.2h0.2v0.5h0.2v0.2h0.2v0.5h0.2v0.5h0.2v0.2h0.2v0.5h0.2v0.2h0.2v0.5h0.2v0.5h0.2v0.2h0.2v0.5
	h0.2v0.2h0.2v0.5h0.2v0.2h0.2v0.5h0.2v0.5h0.2v0.2h0.2v0.5h0.2v0.2h0.2v0.5h0.2v0.5h0.2v0.2h0.2v0.5h0.2v0.2h0.2v0.5h0.2v0.2h0.2
	v0.5h0.2v0.5h0.2v0.2h0.2v0.5h0.2v0.2h0.2v0.5h0.2v0.5h0.2v0.2h0.2v0.5h0.2v0.2h0.2v0.5h0.2v0.2h0.2v0.5h0.2v0.5h0.2v0.2h0.2v0.5
	h0.2v0.2h0.2v0.5h0.2v0.5h0.2v0.2h0.2v0.5h0.2v0.2h0.2v0.5h0.2v0.2h0.2v0.5h0.2v0.5h0.2v0.2h0.2v0.5h0.2v0.2h0.2v0.5h0.2v0.5h0.2
	v0.2h0.2v0.5h0.2v0.2h0.2v0.5h0.2v0.2h0.2v0.5h0.2v0.5h0.2v0.2h0.2v0.5h0.2v0.2h0.2v0.5h0.2v0.5h0.2v0.2h0.2v0.5h0.2v0.2h0.2v0.5
	h0.2v0.2h0.2v0.5h0.2v0.5h0.2v0.2h0.2v0.5h0.2v0.2h0.2v0.5h0.2v0.5h0.2v0.2h0.2v0.5h0.2v0.2h0.2v0.5h0.2v0.2h0.2v0.5h0.2v0.5h0.2
	v0.2h0.2v0.5h0.2v0.2h0.2v0.5h0.2v0.2h0.2v0.5h0.2v0.5h0.2v0.2h0.2v0.5h0.2v0.2h0.2v0.5h0.2v0.5h0.2v0.2h0.2v0.5h0.2v0.2h0.2v0.5
	h0.2v0.2h0.2v0.5h0.2v0.5h0.2v0.2h0.2v0.5h0.2v0.2h0.2v0.5h0.2v0.5h0.2v0.2h0.2v0.5h0.2v0.2h0.2v0.5h0.2v0.2h0.2v0.5h0.2v0.5h0.2
	v0.2h0.2v0.5h0.2v0.5h-40.2V290h-0.2v-0.2h-0.2v-0.5h-0.2V289h-0.2v-0.5h-0.2v-0.5h-0.2v-0.2h-0.2v-0.5h-0.2v-0.2h-0.2v-0.5h-0.2
	v-0.2h-0.2v-0.5h-0.2v-0.5H395v-0.2h-0.2v-0.5h-0.2v-0.2h-0.2v-0.5H394v-0.2h-0.2v-0.5h-0.2v-0.5h-0.2v-0.2H393V282h-0.2v-0.2h-0.2
	v-0.5h-0.2v-0.5H392v-0.2h-0.2V280h-0.2v-0.2h-0.2v-0.5h-0.2v-0.2h-0.2v-0.5h-0.2v-0.5h-0.2v-0.2h-0.2v-0.5h-0.2v-0.2h-0.2v-0.5
	h-0.2v-0.5h-0.2v-0.2h-0.2v-0.5h-0.2v-0.2h-0.2v-0.5h-0.2v-0.2h-0.2V274h-0.2v-0.5h-0.2v-0.2h-0.2v-0.5h-0.2v-0.2h-0.2V272h-0.2
	v-0.2h-0.2v-0.5h-0.2v-0.5h-0.2v-0.2h-0.2v-0.5h-0.2v-0.2H385v-0.5h-0.2v-0.5h-0.2v-0.2h-0.2v-0.5H384v-0.2h-0.2v-0.5h-0.2v-0.2
	h-0.2v-0.5H383v-0.5h-0.2v-0.2h-0.2v-0.5h-0.2v-0.2H382v-0.5h-0.2v-0.5h-0.2V264h-0.2v-0.5h-0.2v-0.2h-0.2v-0.5h-0.2v-0.2h-0.2V262
	h-0.2v-0.5h-0.2v-0.2h-0.2v-0.5h-0.2v-0.2h-0.2v-0.5h-0.2v-0.2h-0.2v-0.5h-0.2v-0.5h-0.2v-0.2h-0.2v-0.5h-0.2v-0.2h-0.2v-0.5h-0.2
	v-0.5h-62.8v-0.5h0.2v-0.5h0.2v-0.5h0.2v-0.2h0.2v-0.5h0.2v-0.2h0.2V254h0.2v-0.2h0.2v-0.5h0.2v-0.5h0.2v-0.2h0.2V252h0.2v-0.2h0.2
	v-0.5h0.2v-0.5h0.2v-0.2h0.2v-0.5h0.2v-0.2h0.2v-0.5h0.2v-0.5h0.2v-0.2h0.2v-0.5h0.2v-0.2h0.2v-0.5h0.2v-0.2h0.2v-0.5h0.2v-0.5h0.2
	V246h0.2v-0.5h0.2v-0.2h0.2v-0.5h0.2v-0.5h0.2V244h0.2v-0.5h0.2v-0.2h0.2v-0.5h0.2v-0.5h0.2v-0.2h0.2v-0.5h0.2v-0.2h0.2v-0.5h0.2
	v-0.5h0.2v-0.2h0.2v-0.5h0.2v-0.2h0.2v-0.5h0.2v-0.2h0.2v-0.5h0.2v-0.5h0.2v-0.2h0.2v-0.5h0.2v-0.2h0.2v-0.5h0.2v-0.5h0.2v-0.2h0.2
	V235h0.2v-0.2h0.2v-0.5h0.2v-0.5h0.2v-0.2h0.2V233h0.2v-0.2h0.2v-0.5h0.2v-0.5h0.2v-0.2h0.2v-0.5h0.2v-0.2h0.2v-0.5h0.2v-0.2h0.2
	v-0.5h0.2v-0.5h0.2v-0.2h0.2v-0.5h0.2v-0.2h0.2v-0.5h0.2v-0.5h0.2V227h0.2v-0.5h0.2v-0.2h0.2v-0.5h0.2v-0.5h0.2V225h0.2v-0.5h0.2
	v-0.2h0.2v-0.5h0.2v-0.2h0.2v-0.2h20.5v-0.2h-0.2v-0.2h-0.2v-0.5H355v-0.5h-0.2v-0.2h-0.2v-0.5h-0.2v-0.2H354v-0.5h-0.2v-0.5h-0.2
	v-0.2h-0.2v-0.5h-0.2v-0.2h-0.2v-0.5h-0.2V218h-0.2v-0.2h-0.2v-0.5h-0.2V217h-0.2v-0.5h-0.2v-0.2h-0.2v-0.5h-0.2v-0.5h-0.2V215h-0.2
	v-0.5h-0.2v-0.2h-0.2v-0.5h-0.2v-0.5h-0.2v-0.2h-0.2v-0.5h-0.2v-0.2h-0.2v-0.5h-0.2v-0.5h-0.2v-0.2H348v-0.5h-0.2v-0.2h-0.2v-0.5
	h-0.2v-0.5H347v-0.2h-0.2v-0.5h-0.2v-0.2h-0.2V208H346v-0.2h-0.2v-0.5h-0.2v-0.5h-0.2v-0.2H345V206h-0.2v-0.2h-0.2v-0.5h-0.2v-0.5
	h-0.2v-0.2h-0.2v-0.5h-0.2v-0.2h-0.2v-0.5h-0.2v-0.5h-0.2v-0.2h-0.2v-0.5h-0.2v-0.2h-0.2v-0.5h-0.2v-0.2h-0.2v-0.5h-0.2v-0.5h-0.2
	v-0.2h-0.2v-0.5h-0.2v-0.2h-0.2v-0.5h-0.2v-0.5h-0.2V198h-0.2v-0.5h-0.2v-0.2h-0.2v-0.5H339v-0.5h-0.2V196h-0.2v-0.5h-0.2v-0.2H338
	v-0.5h-0.2v-0.2h-0.2v-0.5h-0.2v-0.5H337v-0.2h-0.2v-0.5h-0.2v-0.2h-0.2v-0.5H336v-0.5h-0.2v-0.2h-0.2v-0.5h-0.2v-0.2h-0.2v-0.5
	h-0.2v-0.5h-0.2v-0.2h-0.2V189h-0.2v-0.2h-0.2v-0.5h-0.2v-0.5h-0.2v-0.2h-0.2V187h-0.2v-0.2h-0.2v-0.5h-0.2v-0.2h-0.2v-0.2h-0.2v0.5
	h-0.2v0.5h-0.2v0.2h-0.2v0.5h-0.2v0.2h-0.2v0.5h-0.2v0.5h-0.2v0.2h-0.2v0.5h-0.2v0.2h-0.2v0.5h-0.2v0.5H329v0.2h-0.2v0.5h-0.2v0.2
	h-0.2v0.5H328v0.2h-0.2v0.5h-0.2v0.5h-0.2v0.2H327v0.5h-0.2v0.2h-0.2v0.5h-0.2v0.5h-0.2v0.2h-0.2v0.5h-0.2v0.2h-0.2v0.5h-0.2v0.5
	h-0.2v0.2h-0.2v0.5h-0.2v0.2h-0.2v0.5h-0.2v0.2h-0.2v0.5h-0.2v0.5h-0.2v0.2h-0.2v0.5h-0.2v0.2h-0.2v0.5h-0.2v0.5h-0.2v0.2h-0.2v0.5
	h-0.2v0.2h-0.2v0.5h-0.2v0.5h-0.2v0.2h-0.2v0.5h-0.2v0.2H320v0.5h-0.2v0.5h-0.2v0.2h-0.2v0.5H319v0.2h-0.2v0.5h-0.2v0.2h-0.2v0.5
	H318v0.5h-0.2v0.2h-0.2v0.5h-0.2v0.2H317v0.5h-0.2v0.5h-0.2v0.2h-0.2v0.5h-0.2v0.2h-0.2v0.5h-0.2v0.5h-0.2v0.2h-0.2v0.5h-0.2v0.2
	h-0.2v0.5h-0.2v0.2h-0.2v0.5h-0.2v0.5h-0.2v0.2h-0.2v0.5h-0.2v0.2h-0.2v0.5h-0.2v0.5h-0.2v0.2h-0.2v0.5h-0.2v0.2h-0.2v0.5h-0.2v0.5
	h-0.2v0.2H311v0.5h-0.2v0.2h-0.2v0.5h-0.2v0.2H310v0.5h-0.2v0.5h-0.2v0.2h-0.2v0.5H309v0.2h-0.2v0.5h-0.2v0.5h-0.2v0.2H308v0.5h-0.2
	v0.2h-0.2v0.5h-0.2v0.5h-0.2v0.2h-0.2v0.5h-0.2v0.2h-0.2v0.5h-0.2v0.2h-0.2v0.5h-0.2v0.5h-0.2v0.2h-0.2v0.5h-0.2v0.2h-0.2v0.5h-0.2
	v0.5h-0.2v0.2h-0.2v0.5h-0.2v0.2h-0.2v0.5h-0.2v0.5h-0.2v0.2h-0.2v0.5h-0.2v0.2h-0.2v0.5h-0.2v0.2h-0.2v0.5h-0.2v0.5h-0.2v0.2H301
	v0.5h-0.2v0.2h-0.2v0.5h-0.2v0.5H300v0.2h-0.2v0.5h-0.2v0.2h-0.2v0.5H299v0.5h-0.2v0.2h-0.2v0.5h-0.2v0.2h-0.2v0.5h-0.2v0.2h-0.2
	v0.5h-0.2v0.5h-0.2v0.2h-0.2v0.5h-0.2v0.2h-0.2v0.5h-0.2v0.5h-0.2v0.2h-0.2v0.5h-0.2v0.2h-0.2v0.5h-0.2v0.5h-0.2v0.2h-0.2v0.5h-0.2
	v0.2h-0.2v0.5h-0.2v0.2h-0.2v0.5h-0.2v0.5h-0.2v0.2h-0.2v0.5h-0.2v0.2h-0.2v0.5H292v0.5h-0.2v0.2h-0.2v0.5h-0.2v0.2H291v0.5h-0.2
	v0.5h-0.2v0.2h-0.2v0.5H290v0.2h-0.2v0.5h-0.2v0.2h-0.2v0.5H289v0.5h-0.2v0.2h-0.2v0.5h-0.2v0.2h-0.2v0.5h-0.2v0.5h-0.2v0.2h-0.2
	v0.5h-0.2v0.2h-0.2v0.5h-0.2v0.5h-0.2v0.2h-0.2v0.5h-0.2v0.2h-0.2v0.5h-0.2v0.2h-0.2v0.5h-0.2v0.5h-0.2v0.2h-0.2v0.5h-0.2v0.2h-0.2
	v0.5h-0.2v0.5h-0.2v0.2h-0.2v0.5H283v0.2h-0.2v0.5h-0.2v0.5h-0.2v0.2H282v0.5h-0.2v0.2h-0.2v0.5h-0.2v0.2H281v0.5h-0.2v0.5h-0.2v0.2
	h-0.2v0.5H280v0.2h-0.2v0.5h-0.2v0.5h-0.2v0.2h-0.2v0.5h-0.2v0.2h-0.2v0.5h-0.2v0.5h-0.2v0.2h-0.2v0.5h-0.2v0.2h-0.2v0.5h-0.2v0.2
	h-0.2v0.5h-0.2v0.5h-0.2v0.2h-0.2v0.5h-0.2v0.2h-0.2v0.5h-0.2v0.5h-0.2v0.2h-0.2v0.5h-0.2v0.2h-0.2v0.5h-0.2v0.5h-0.2v0.2h-0.2v0.5
	h-0.2v0.2h-0.2v0.5H273v0.5h-0.2v0.2h-0.2v0.5h-0.2v0.2H272v0.5h-0.2v0.2h-0.2v0.5h-0.2v0.5H271v0.2h-0.2v0.5h-0.2v0.2h-0.2v0.5
	h-0.2v0.5h-0.2v0.2h-0.2v0.5h-0.2v0.2h-0.2v0.5h-0.2v0.5h-0.2v0.2h-0.2v0.5h-0.2v0.2h-0.2v0.5h-0.2v0.2h-0.2v0.5h-0.2v0.5h-0.2v0.2
	h-0.2v0.5h-0.2v0.2H92.6z M145.9,156.8v-0.5h0.2v-0.2h0.2v-0.5h0.2v-0.5h0.2v-0.2h0.2v-0.5h0.2v-0.2h0.2v-0.5h0.2v-0.2h0.2v-0.5h0.2
	v-0.5h0.2v-0.2h0.2v-0.5h0.2v-0.2h0.2V151h0.2v-0.5h0.2v-0.2h0.2v-0.5h0.2v-0.2h0.2v-0.5h0.2v-0.2h0.2v-0.5h0.2v-0.5h0.2v-0.2h0.2
	v-0.5h0.2v-0.2h0.2v-0.5h0.2v-0.5h0.2v-0.2h0.2v-0.5h0.2v-0.2h0.2v-0.5h0.2v-0.5h0.2v-0.2h0.2v-0.5h0.2V143h0.2v-0.5h0.2v-0.2h0.2
	v-0.5h0.2v-0.5h0.2V141h0.2v-0.5h0.2v-0.2h0.2v-0.5h0.2v-0.5h0.2v-0.2h0.2v-0.5h0.2v-0.2h0.2v-0.5h0.2v-0.2h0.2v-0.5h0.2v-0.5h0.2
	v-0.2h0.2v-0.5h0.2v-0.2h0.2v-0.5h0.2v-0.5h0.2v-0.2h0.2V134h0.2v-0.2h0.2v-0.5h0.2v-0.5h0.2v-0.2h0.2V132h0.2v-0.2h0.2v-0.5h0.2
	V131h0.2v-0.5h0.2v-0.5h0.2v-0.2h0.2v-0.5h0.2v-0.2h0.2v-0.5h0.2v-0.5h0.2v-0.2h0.2v-0.5h0.2v-0.2h0.2v-0.5h0.2v-0.2h0.2v-0.5h0.2
	v-0.5h0.2v-0.2h0.2v-0.5h0.2v-0.2h0.2V124h0.2v-0.5h0.2v-0.2h137.3v0.5h-0.2v0.5h-0.2v0.2h-0.2v0.5h-0.2v0.5h-0.2v0.2h-0.2v0.5h-0.2
	v0.2h-0.2v0.5h-0.2v0.2h-0.2v0.5h-0.2v0.5h-0.2v0.2H301v0.5h-0.2v0.2h-0.2v0.5h-0.2v0.5H300v0.2h-0.2v0.5h-0.2v0.2h-0.2v0.5H299v0.2
	h-0.2v0.5h-0.2v0.5h-0.2v0.2h-0.2v0.5h-0.2v0.2h-0.2v0.5h-0.2v0.5h-0.2v0.2h-0.2v0.5h-0.2v0.2h-0.2v0.5h-0.2v0.2h-0.2v0.5h-0.2v0.5
	h-0.2v0.2h-0.2v0.5h-0.2v0.2h-0.2v0.5h-0.2v0.5h-0.2v0.2h-0.2v0.5h-0.2v0.2h-0.2v0.5h-0.2v0.2h-0.2v0.5h-0.2v0.5h-0.2v0.2h-0.2v0.5
	H292v0.2h-0.2v0.5h-0.2v0.5h-0.2v0.2H291v0.5h-0.2v0.2h-0.2v0.5h-0.2v0.2H290v0.5h-0.2v0.5h-0.2v0.2h-0.2v0.5H289v0.2h-0.2v0.5h-0.2
	v0.5h-0.2v0.2h-0.2v0.5h-0.2v0.2h-0.2v0.5h-0.2v0.2h-0.2v0.5h-0.2v0.5h-0.2v0.2h-0.2v0.5h-0.2v0.2h-0.2v0.5h-0.2v0.5h-0.2v0.2h-0.2
	v0.5h-0.2v0.2h-0.2v0.5h-0.2v0.2h-0.2v0.5h-0.2v0.5h-0.2v0.2h-0.2v0.5h-0.2v0.2"/>
<path class="st0" d="M448.8,310.8h-2.7v5.8h-1.4v-5.8H442v-1.2h6.8L448.8,310.8 M458.2,316.6H457v-4.3l0-0.8l-0.3,0.8l-2.2,3.5h-0.2
	l-2.2-3.5l-0.4-0.7l0.1,0.8v4.3h-1.2v-7h1.2l2.8,4.2l2.7-4.2h1.1L458.2,316.6 M139.2,363.9c0,4.3-1.5,7.9-4.4,10.9
	c-3,2.9-6.6,4.5-10.9,4.5h-18c-4.3,0-7.9-1.5-10.8-4.3c-2.8-2.9-4.3-6.4-4.3-10.8V357h11.1l1.7,6.6c0.7,2.7,2.6,4.1,5.6,4.1h12.2
	c1.6,0,2.8-0.6,3.7-1.7c0.9-1.1,1.4-2.6,1.4-4.3V354c0-3.9-1.7-5.8-5.1-5.8h-15.4c-4.2,0-7.8-1.5-10.8-4.4c-2.9-3-4.5-6.7-4.5-10.9
	v-10.4c0-4.2,1.5-7.8,4.5-10.8c3-3,6.6-4.5,10.8-4.5h17.8c4.2,0,7.8,1.4,10.7,4.3c2.9,2.9,4.3,6.4,4.3,10.7v6.5h-11l-1.6-5.9
	c-0.9-2.8-2.8-4.2-5.6-4.2h-12c-1.6,0-2.8,0.6-3.8,1.7c-1,1.1-1.4,2.5-1.4,4.3v6.1c0,3.8,1.7,5.6,5.2,5.6h15.3
	c4.2,0,7.8,1.5,10.8,4.6c3,3,4.5,6.6,4.5,10.8L139.2,363.9 M202.1,337.5c0,4.2-1.6,7.8-4.6,10.8c-3,3-6.7,4.5-10.9,4.5h-19.8v26.4
	h-12.7v-72h32.5c4.2,0,7.9,1.5,10.9,4.5c3,3,4.6,6.6,4.6,10.7L202.1,337.5z M184.2,318.8h-17.3v22.3h17.3l3.7-1.7
	c1-1.1,1.4-2.5,1.4-4.3v-10.5c0-1.7-0.5-3.1-1.4-4.2L184.2,318.8 M315.1,379.3l-11.7-28.2h-12.1v28.2h-12.8v-72h31.9
	c4.3,0,7.9,1.5,10.8,4.5c3,3,4.5,6.6,4.5,10.7v12.6c0,3.3-0.9,6.2-2.7,8.8c-1.9,2.6-4.2,4.5-7.1,5.7l12.7,29.8L315.1,379.3z
	 M308,318.8h-16.7v20.6H308l3.6-1.6c0.9-1.1,1.4-2.5,1.4-4.2v-8.9c0-1.7-0.5-3.1-1.4-4.2L308,318.8 M383.3,318.8h-18.5v60.4h-12.7
	v-60.4h-18.4v-11.6h49.6V318.8 M441,363.9c0,4.3-1.5,7.9-4.4,10.9c-3,2.9-6.7,4.5-10.9,4.5h-18c-4.3,0-7.9-1.5-10.8-4.3
	c-2.9-2.9-4.3-6.4-4.3-10.8V357h11.1l1.7,6.6c0.8,2.7,2.7,4.1,5.7,4.1h12.2c1.6,0,2.8-0.6,3.8-1.7c0.9-1.1,1.3-2.6,1.3-4.3V354
	c0-3.9-1.7-5.8-5.1-5.8h-15.3c-4.2,0-7.9-1.5-10.8-4.4c-3-3-4.5-6.7-4.5-10.9v-10.4c0-4.2,1.5-7.8,4.5-10.8c2.9-3,6.6-4.5,10.8-4.5
	h17.8c4.3,0,7.8,1.4,10.8,4.3c2.9,2.9,4.4,6.4,4.4,10.7v6.5h-11l-1.7-5.9c-0.9-2.8-2.7-4.2-5.6-4.2h-12.1c-1.6,0-2.9,0.6-3.8,1.7
	c-0.9,1.1-1.4,2.5-1.4,4.3v6.1c0,3.8,1.7,5.6,5.1,5.6h15.3c4.2,0,7.8,1.5,10.8,4.6c3.1,3,4.6,6.6,4.6,10.8L441,363.9 M245.2,318.8
	H233l-3.7,1.7c-0.9,1.1-1.4,2.5-1.4,4.2v36.9c0,1.7,0.5,3.1,1.4,4.2l3.7,1.8h12.2l3.7-1.8c1-1.1,1.4-2.5,1.4-4.2v-36.9
	c0-1.7-0.5-3.1-1.4-4.2L245.2,318.8z M263.1,363.8c0,4.4-1.5,8-4.5,11c-3,2.9-6.6,4.5-10.9,4.5h-17.2c-4.3,0-8-1.5-10.9-4.5
	c-3-3-4.5-6.6-4.5-11v-41.4c0-4.1,1.6-7.7,4.5-10.7c2.9-3,6.6-4.5,10.9-4.5h17.2c4.3,0,7.9,1.5,10.9,4.4c3,2.9,4.5,6.6,4.5,10.7
	V363.8"/>
</svg>
