<?xml version="1.0" encoding="utf-8"?>
<!-- Generator: Adobe Illustrator 24.0.1, SVG Export Plug-In . SVG Version: 6.00 Build 0)  -->
<svg version="1.1" id="Layer_1" xmlns="http://www.w3.org/2000/svg" xmlns:xlink="http://www.w3.org/1999/xlink" x="0px" y="0px"
	 viewBox="0 0 371 73.4" style="enable-background:new 0 0 371 73.4;" xml:space="preserve">
<style type="text/css">
	.st0{fill:#FFFFFF;}
	.st1{fill-rule:evenodd;clip-rule:evenodd;fill:#FFFFFF;}
</style>
<g>
	<g>
		<polygon class="st0" points="282.6,53 297.9,53 296.8,59.6 292.8,59.4 290.7,73.1 283.4,73.1 285.6,59.4 281.5,59.6 		"/>
		<polygon class="st0" points="299.8,53 307.1,53 303.9,73.1 296.6,73.1 		"/>
		<path class="st0" d="M310.5,53h8.8c4.5,0,8,1.9,7.2,7c-0.5,3-1.9,4.3-4.7,5.2v0.2c0.3,0.3,0.7,0.6,1,1.2l3.3,6.5h-8.4l-2.2-6.4
			h-0.1l-1,6.4h-7.1L310.5,53z M316.2,61.9h0.5c1.2,0,2.4-0.2,2.7-1.7c0.2-1.5-0.8-1.7-2.1-1.7h-0.6L316.2,61.9z"/>
		<polygon class="st0" points="330.5,53 344,53 343.1,58.5 337,58.5 336.7,60.4 342.3,60.4 341.4,65.6 335.8,65.6 335.5,67.6 
			341.9,67.6 341,73.1 327.3,73.1 		"/>
		<path class="st0" d="M346.3,65.9l0.3,0.3c1.1,1,2.6,1.8,4.3,1.8c0.7,0,1.9-0.3,2.1-1.2c0.1-0.9-0.8-1-1.4-1.1l-1.4-0.3
			c-2.8-0.5-4.9-2.2-4.4-5.3c0.8-4.8,5.5-7.4,9.9-7.4c2.3,0,4.3,0.6,6.1,1.8l-2.8,5.1c-1.1-0.9-2.4-1.5-4-1.5
			c-0.6,0-1.6,0.2-1.7,1.1c-0.1,0.7,0.8,0.9,1.3,1l1.6,0.4c3,0.7,4.9,2.3,4.4,5.7c-0.8,4.8-5.5,7.2-9.8,7.2c-2.5,0-5.3-0.7-7.4-1.8
			L346.3,65.9z"/>
		<path class="st1" d="M33.8,15.8L28.5,41H10.7l6-29C19,2.1,29.7,0.4,33,0.3h51.7l-11.5,12H37.9C35.6,12.4,34.2,13.5,33.8,15.8"/>
		<path class="st1" d="M52,40.9L87.8,5.3c3.7-3.6,10.7-4.8,13.6-4.9H127L118.4,41h-17.3l7.2-35.3L83.9,30.4h18.3l-7.4,10.5H52z"/>
		<polygon class="st1" points="125.1,40.9 133.6,0.4 151.6,0.4 145.3,30.1 179.8,30.1 172.1,41 		"/>
		<polygon class="st1" points="187.7,0.4 179.1,41 197.1,41 201,21.3 220.2,40.9 241.2,40.9 221.3,21.6 251,0.4 225.6,0.4 
			201.3,19.6 205.6,0.5 		"/>
		<path class="st1" d="M241.9,41H295l8.6-11h-42.1l0.9-4.3h33.1l2-9.6h-32.9c0.8-2.6,1.4-4.2,3.6-4.3h35.5L306,0.6h-42.5
			c-7.2,0-13.7,2.6-15.8,11.8L241.9,41z"/>
		<path class="st1" d="M303.9,41l8.4-40.6h42.4c8.2,0,16.6,4.3,14.6,13.4L363.8,41h-18l5.4-24.9c0.5-1.5-0.5-4.1-2.9-4.2h-19.9
			l-6,29.1H303.9z"/>
		<path class="st1" d="M1,19.6h67L50.1,37.7C36.9,26.3,20.4,21.3,1.9,21L1,19.6z"/>
	</g>
</g>
</svg>
