<?xml version="1.0" encoding="utf-8"?>
<!-- Generator: Adobe Illustrator 24.0.1, SVG Export Plug-In . SVG Version: 6.00 Build 0)  -->
<svg version="1.1" id="layer" xmlns="http://www.w3.org/2000/svg" xmlns:xlink="http://www.w3.org/1999/xlink" x="0px" y="0px"
	 viewBox="0 0 1607.3 566.9" style="enable-background:new 0 0 1607.3 566.9;" xml:space="preserve">
<style type="text/css">
	.st0{fill:#FFFFFF;}
	.st1{clip-path:url(#SVGID_2_);fill:#FFFFFF;}
	.st2{clip-path:url(#SVGID_4_);fill:#FFFFFF;}
</style>
<g>
	<path class="st0" d="M1512.4,477.6c6.5,0.7,12.7,1.7,19,2.5c3.1,0.5,7,0.7,22.8,0.8c20.1-0.3,32.1-8,32.1-18.7
		c0-7.8-7.5-14.1-21.6-15.5l-20.9-1.9c-26.3-2.2-41-15.3-41.1-38.7c-0.2-24.3,17.7-38.6,50-40.6c15-1,30.3,2,45,4.4l-1.2,21.9
		c-14.6-2.5-71.7-12.7-71.7,14.1c0,7.8,6.6,15,21.6,16.1l17.8,1.9c22.4,2,44,9.7,44,37c0,27.5-23.1,42-54,42.5
		c-18.9-0.5-24.6-1.2-43.3-4.2L1512.4,477.6z"/>
	<path class="st0" d="M1330.9,566.9h-17.2l-2-24.3h15.8c10.2,0,13.1-3.7,13.1-14.6V367.2h26.7v161.4
		C1367.2,549.7,1355.9,566.9,1330.9,566.9"/>
</g>
<rect x="1171.1" y="367.5" class="st0" width="26.7" height="135.1"/>
<polygon class="st0" points="1111.8,502.4 1089.5,502.4 1040.1,367.3 1069,367.3 1100.8,460.8 1132.7,367.3 1161.6,367.3 "/>
<g>
	<path class="st0" d="M1491,412.5l0.2,31.6h-85.8c0.8,23.6,10.2,35.9,35.7,37.2c14.8,0.8,29.4-1.5,44-3.6l1.4,21.6
		c-51.3,9.7-103,9.3-105.5-62.7c-1.4-40.6,17.8-70.9,53.9-71.4C1477.5,364.8,1491,387.1,1491,412.5 M1405.3,422.2l63.2-0.2
		l-0.2-11.6c0-10.7-4.6-23.6-32.6-23.1C1415.7,387.7,1406.7,399.1,1405.3,422.2"/>
	<path class="st0" d="M1244.5,449.4c-4.1,3.2-7,7.5-7,13.4c0,14.4,12.7,19.9,26.9,19.9c9.9,0,22.4-2.5,31.6-6.8v-32.1h-23.6
		c-7.8,0-13.9,0.5-18.2,1.5C1250,446.2,1246.9,447.7,1244.5,449.4 M1229.4,391.1l-1.5,0.3l-0.2-22.9c19.4-2.7,47.6-7.6,66.4-2.5
		c17.7,4.8,28.4,18,28.4,46.2v90.2h-22.4l-1-5.4c-9.5,5.8-21.9,7-36,7c-18,0-29.7-3.4-38.7-12.7c-7.1-7.1-10.7-17.8-10.7-28.7
		c0-25,17.8-40.6,47.9-40.6h34.5v-8.2c0-7.5,0.5-16.8-6.6-21.8C1276.7,383,1244.2,388.6,1229.4,391.1"/>
</g>
<rect x="411.3" y="208.7" class="st0" width="37.4" height="283.8"/>
<g>
	<path class="st0" d="M1019.7,358.1v134.3h-37.4V378.6v-18.2c0-10.9,0.8-24.5-9.2-31.8c-9.5-6.8-30.3-10.4-75.3-3.6l-0.3,44.7v122.9
		h-37.4V288.1h37.4v6.1C1007.6,274.1,1019.7,314.7,1019.7,358.1"/>
	<path class="st0" d="M509.5,469.7c-17.5-17-25.8-43-25.8-77c0-34.5,8.2-61,25.3-78.9c17.5-18,42.3-26.7,73.9-26.7
		c8.2,0,16.3,0.5,24.5,1.5c10,1.2,18,3.2,27.5,6.3l-2.7,29.1c-8.8-2.2-17.7-4.1-26.7-5.4c-7-1-13.4-1.5-19.5-1.5
		c-26.9,0-42.1,5.3-51.5,16.8c-9.7,12.1-15.1,31.1-15.1,58c0,26.7,5.6,45.2,16.1,56.6c10.4,10.9,26.5,14.8,54.9,14.8
		c15,0,27.9-1.7,42.5-4.8l3.6,29.7c-8.8,1.9-17.3,3.2-26.2,4.1c-8.5,1-16.7,1.5-24.8,1.5C552.7,494.2,527.2,486.4,509.5,469.7"/>
</g>
<polygon class="st0" points="37.4,355.4 37.4,492.2 0,492.2 0,205.8 37.4,205.8 37.4,318.1 149.7,318.1 149.7,205.8 186.9,205.8 
	186.9,492.2 149.7,492.2 149.7,355.4 "/>
<g>
	<path class="st0" d="M251,413c-6.3,4.9-10.9,11.7-10.9,21.1c0,22.9,20.2,31.3,41.6,31.3c15.1,0,34.8-4.1,48.8-10.7v-50.3h-36.9
		c-11.7,0-20.9,0.8-27.5,2.4C259.5,408,254.7,410.2,251,413 M229.6,325.1l-1.5,0.3l-0.3-31.8c28.7-3.9,70.4-11.2,98.4-3.7
		c26,7,41.6,26.5,41.6,68.1v134.4l-31.3-0.2l-1.5-9c-14.1,9.5-33,11.4-55.1,11.4c-27,0-44-5.1-57.3-18.9
		c-10.4-10.4-15.8-26-15.8-42.1c0-36.7,26.2-59.8,70.7-59.8h52.7v-13.4c0-11.9,0.7-26-10.4-33.6C300.3,313,252,321.2,229.6,325.1"/>
	<path class="st0" d="M785.1,445.8c8.8-12.4,13.6-30.6,13.6-55.4s-4.8-43-13.6-55.4c-8.2-11.7-22.9-18.2-46.1-18.2
		c-23.1,0-38.1,6.5-46.4,18.2c-8.7,12.4-13.3,30.6-13.3,55.4s4.6,43,13.3,55.4c8.3,11.7,23.5,18.2,46.4,18.2
		C762.2,464.1,777,457.5,785.1,445.8 M811.7,314.6c15.6,18,23.1,43.5,23.1,75.8s-7.5,57.8-23.1,75.8c-15.6,18.4-40.1,27-72.6,27
		c-32.3,0-57.1-8.7-72.9-27c-15.3-18-22.8-43.5-22.8-75.8c0-32.1,7.3-57.8,22.8-75.8c15.8-18.4,40.6-27,72.9-27
		C771.6,287.5,796,296.2,811.7,314.6"/>
</g>
<g>
	<g>
		<defs>
			<path id="SVGID_1_" d="M578.5,112.5c-1.9,0-2,0.7-1,1.4c104.9,77.8,96.9,123.2,125.2,132.6c30.8,0,46.7-0.2,63.2-6.6
				C717,210.9,702,114.9,578.7,112.3C578.7,112.5,578.5,112.5,578.5,112.5"/>
		</defs>
		<use xlink:href="#SVGID_1_"  style="overflow:visible;fill:#FFFFFF;"/>
		<clipPath id="SVGID_2_">
			<use xlink:href="#SVGID_1_"  style="overflow:visible;"/>
		</clipPath>
		<polygon class="st1" points="651.9,339 510.9,165.7 690.5,19.7 831.4,193.1 		"/>
	</g>
</g>
<g>
	<g>
		<defs>
			<path id="SVGID_3_" d="M989.6,0C852.3,12.7,766.3,230.4,702.4,246.4c60.7,15.3,91.3-13.9,102.8-30.6
				C859.4,138,907.8,82.6,990.8,1.4c0.8-0.8,0.8-1.4-0.5-1.4C990.1,0,989.9,0,989.6,0"/>
		</defs>
		<use xlink:href="#SVGID_3_"  style="overflow:visible;fill:#FFFFFF;"/>
		<clipPath id="SVGID_4_">
			<use xlink:href="#SVGID_3_"  style="overflow:visible;"/>
		</clipPath>
		<rect x="702.6" class="st2" width="289.2" height="261.7"/>
	</g>
</g>
</svg>
