<?xml version="1.0" encoding="utf-8"?>
<!-- Generator: Adobe Illustrator 24.0.1, SVG Export Plug-In . SVG Version: 6.00 Build 0)  -->
<svg version="1.1" id="Layer_1" xmlns="http://www.w3.org/2000/svg" xmlns:xlink="http://www.w3.org/1999/xlink" x="0px" y="0px"
	 viewBox="0 0 480 66" style="enable-background:new 0 0 480 66;" xml:space="preserve">
<style type="text/css">
	.st0{fill-rule:evenodd;clip-rule:evenodd;fill:#FFFFFF;}
</style>
<g>
	<path class="st0" d="M184.4,9.3v18.1h-20.5V9.3h-11.3v47.4h11.3V37.7h20.5v19.1h11.3V9.3L184.4,9.3z"/>
	<path class="st0" d="M237,9.3l-11.8,18.8L213.4,9.3h-13.3l19.5,31v16.4h11.3V40.3l19.5-31H237L237,9.3z"/>
	<path class="st0" d="M286.6,9.3v34.7c0,1.3-1,2.4-2.4,2.4h-18.1V9.3h-11.3v47.4h33.3c3,0,5.3-0.9,7.1-2.6c1.7-1.7,2.6-4.1,2.6-7.1
		V9.3L286.6,9.3L286.6,9.3z"/>
	<path class="st0" d="M341.6,9.3h-33.3v47.4h11.3V19.6h18.1c1.5,0,2.4,1.1,2.4,2.4v34.8h11.3V19c0-3-0.9-5.4-2.6-7.1
		C347,10.2,344.6,9.3,341.6,9.3"/>
	<path class="st0" d="M395.1,9.3h-33.3v47.4h33.3c3,0,5.3-0.9,7.1-2.6c1.7-1.7,2.6-4.1,2.6-7.1V19c0-3-0.9-5.4-2.6-7.1
		C400.4,10.2,398.1,9.3,395.1,9.3 M393.5,22V44c0,1.3-0.9,2.5-2.4,2.5H373V19.6h18C392.5,19.6,393.5,20.6,393.5,22"/>
	<path class="st0" d="M424.4,9.3c-3,0-5.3,0.9-7.1,2.6c-1.7,1.7-2.6,4.1-2.6,7.1v37.7H426V42h20.5v14.7h11.3V9.3L424.4,9.3
		L424.4,9.3z M446.5,19.6v12.2H426V22c0-1.2,0.9-2.4,2.4-2.4H446.5z"/>
	<path class="st0" d="M468.7,9.3H480v47.4h-11.3V9.3z"/>
	<path class="st0" d="M64.5,66c35.6,0,64.5-14.8,64.5-33c0-18.2-28.9-33-64.5-33C28.9,0,0,14.8,0,33C0,51.2,28.9,66,64.5,66
		 M76.6,49.8c-1.1,2.5-2.9,7.8-7.2,9.9c-1.3,0.7-2.9,0.9-4.3,1h-0.7c-11.9,0-23-1.6-32.2-4.5c-0.1,0-0.3-0.1-0.4-0.2
		c-0.9-0.3-1.3-0.7-1.3-1.1c0-0.4,0.2-0.8,0.5-1l0.6-0.5c2.2-1.8,8.6-6.5,20.7-11.1c4.3-1.6,9.6-3.7,15.2-4.8
		C70.9,36.8,83,34.9,76.6,49.8 M109.2,16.5c0.2-0.4,0.5-0.7,1.1-0.8c0.3,0,0.7,0.1,1.3,0.4c7.6,4.7,12.1,10.5,12.1,16.8
		c0,11.4-14.6,21.2-35.6,25.5c-1.3,0.3-2.2,0.2-2.5-0.1c-0.2-0.2-0.3-0.6,0-1c0.1-0.2,0.3-0.4,0.6-0.8c11.4-13.4,20.1-33.3,22.5-39
		C108.8,17.2,109,16.8,109.2,16.5 M52.5,16.1c1.1-2.5,2.9-7.8,7.2-9.9c1.3-0.7,2.9-1,4.3-1c0.3,0,0.6,0,0.6,0
		c11.9,0,23,1.6,32.3,4.5l0.4,0.1c0.9,0.3,1.3,0.7,1.3,1.2c0,0.4-0.2,0.7-0.5,1c-0.1,0.1-0.3,0.3-0.6,0.5
		c-2.1,1.8-8.6,6.5-20.7,11.1c-4.3,1.6-9.6,3.7-15.2,4.8C58.3,29.2,46.1,31,52.5,16.1 M40.8,7.6c1.3-0.3,2.2-0.3,2.6,0.1
		c0.2,0.2,0.2,0.6,0,1c-0.1,0.2-0.3,0.4-0.6,0.8c-11.4,13.5-20.1,33.2-22.6,39c-0.2,0.4-0.4,0.8-0.5,1c-0.2,0.4-0.5,0.7-1.1,0.8
		c-0.3,0-0.7-0.1-1.3-0.4C9.8,45.1,5.3,39.3,5.3,33C5.3,21.6,19.9,11.8,40.8,7.6"/>
</g>
</svg>
