<?xml version="1.0" encoding="utf-8"?>
<!-- Generator: Adobe Illustrator 24.0.1, SVG Export Plug-In . SVG Version: 6.00 Build 0)  -->
<svg version="1.1" id="layer" xmlns="http://www.w3.org/2000/svg" xmlns:xlink="http://www.w3.org/1999/xlink" x="0px" y="0px"
	 viewBox="0 0 596 217.2" style="enable-background:new 0 0 596 217.2;" xml:space="preserve">
<style type="text/css">
	.st0{fill:#FFFFFF;}
</style>
<g>
	<path class="st0" d="M579.8,109.9V43.6h-36.6v74.8c0,0-5,3.9-8.7,4.4s-4.1-5-4.1-5v-61c0-11.9-19.9-17.6-19.9-17.6l-30,26.3
		c-1.1-6.9-3.9-10.1-3.9-10.1l-51.7-15.3c-17.4,8-27.2,21.3-32.2,36.6s0,40.2,0,40.2c-3,3.2-7.3,5.7-10.7,5.9c-3.4,0.2-4.3-5-4.3-5
		V59c0-12.8-19.9-18.3-19.9-18.3l-32,27.7v-43c0-21-20.1-25.4-20.1-25.4h-8.9l-27,23.8c18.3,0,19.9,18.8,19.9,18.8v72
		c0,0-6.9,4.3-11.7,5.9c-4.8,1.6-5.3-9.8-5.3-9.8V45.2c0,0-19.8-0.4-44.1,0C203.4,45.7,187,70.3,184,82c-3,11.7,0,33.1,0,33.1
		c-13.5,4.8-16-9.4-16-9.4V21.3C168,10.6,150.6,6,150.6,6h-15.1l-21,19.2C113.8,7.8,96.9,6,96.9,6H80.4L60,24.7
		C60,10.1,39.7,6,39.7,6H26.1L0,29.8c0,0,7.2-0.8,13.1,4.6c5.9,5.3,6.2,12.1,6.2,12.1v95.7h40.4v-108h5c7.3,0,9.6,9,9.6,9V142h39.8
		V35.1h5.5c7.2,0,9.5,8.2,9.5,8.2v76.2c0,0-1.1,13.6,9.9,20.4c11,6.9,22.6,3,22.6,3l25.6-22.9c13.6,23.9,35.1,22.4,35.1,22.4
		l15.1-14.2c0,0,7,11.7,13,13.6c14.5,4.5,19-1.1,19-1.1l20.6-19.4v20.6h36.1V76.8h6.2c6.2,0,9.3,8.1,9.3,8.1v39.5
		c0,0-0.6,6.2,8.4,13.9c9,7.6,24.1,5,24.1,5l22.3-20c7.3,10.4,31.7,24.4,47.6,20.2c52-13.8,38.7-72.6,38.7-72.6h8.1
		c3.5,0,3.4,5.7,3.4,5.7v44.8c0,0,1.8,8.2,8.2,16.2s23.8,5.5,23.8,5.5l19-18.1c6.2,17.4,30.9,18.1,30.9,18.1l19.9-19.4
		C579.4,125.3,579.8,109.9,579.8,109.9 M236.7,113.1c0,0-19.2-3.4-19.2-23.3s19.2-23.3,19.2-23.3V113.1z M447.3,96.1
		c-2.7,16-14,30.7-14,30.7s-8.2-13.3-5.7-35S442,62.3,442,62.3S450,80.1,447.3,96.1"/>
	<polygon class="st0" points="119.3,159.6 126.6,180.6 150.1,180.6 130.9,195 138.2,217.2 119.3,203.8 100.7,217.2 107.1,194.7 
		89.4,180.6 112.3,180.6 	"/>
	<polygon class="st0" points="206.9,159.6 214.2,180.6 237.7,180.6 218.5,195 225.8,217.2 206.9,203.8 188.3,217.2 194.7,194.7 
		177,180.6 199.9,180.6 	"/>
	<polygon class="st0" points="294.9,159.6 302.2,180.6 325.7,180.6 306.5,195 313.8,217.2 294.9,203.8 276.3,217.2 282.7,194.7 
		265,180.6 287.9,180.6 	"/>
	<polygon class="st0" points="382.7,159.6 390,180.6 413.4,180.6 394.2,195 401.6,217.2 382.7,203.8 364.1,217.2 370.5,194.7 
		352.8,180.6 375.6,180.6 	"/>
	<polygon class="st0" points="470,159.6 477.3,180.6 500.8,180.6 481.6,195 488.9,217.2 470,203.8 451.4,217.2 457.8,194.7 
		440.1,180.6 463,180.6 	"/>
</g>
</svg>
