<?xml version="1.0" encoding="utf-8"?>
<!-- Generator: Adobe Illustrator 24.0.1, SVG Export Plug-In . SVG Version: 6.00 Build 0)  -->
<svg version="1.1" id="Layer_1" xmlns="http://www.w3.org/2000/svg" xmlns:xlink="http://www.w3.org/1999/xlink" x="0px" y="0px"
	 viewBox="0 0 2279.4 631.7" style="enable-background:new 0 0 2279.4 631.7;" xml:space="preserve">
<style type="text/css">
	.st0{fill-rule:evenodd;clip-rule:evenodd;fill:#FFFFFF;}
</style>
<g>
	<path class="st0" d="M278.3,543.2l-96.4-272.2v222.3h34.5V632H0.6V493.4h34.7V138.1H0V0.2L205.9,0l75.7,214.2L358.2,0L560,0.2
		v137.8h-34.5v355.3H560V632H344.2V493.4h34.7V271.1L278.3,543.2z M911.3,0l80.1,493.4h25.3v138.3H817.9V493.4h25.5l-0.1-51.9h-92.2
		l-0.1,51.9h25.5v138.3H577.8V493.4h25.3L683.4,0H911.3z M828.7,357.9l-31.8-195.4l-31,195.4H828.7L828.7,357.9z M1678.7,138.5
		v123.2h143.7V67.2L1755.6,0h-210.2l-67,67.1v497.7l67,66.9h210.4l66.8-66.9l0.1-194.2h-144l-0.1,123.1h-47.3V138.5H1678.7z
		 M1271.2,631.7V380.9l-46.4-0.1l-0.1,112.6h25.2v138.3h-215.2V493.4h34.6V138.1h-34.7V0h325l66.6,66.6v199.4l-53.9,53.2l53.6,53.2
		v121.2h34.7v138.2L1271.2,631.7z M1224.2,138.1v145.3l47.1,0.1V138.2L1224.2,138.1L1224.2,138.1z M2174,0l80.1,493.4h25.3v138.3
		h-198.9V493.4h25.5v-51.9h-92.2l-0.1,51.9h25.5v138.3h-198.8V493.4h25.4L1946.1,0H2174z M2091.3,357.9l-31.8-195.4l-31,195.4
		H2091.3z"/>
</g>
</svg>
