<?xml version="1.0" encoding="utf-8"?>
<!-- Generator: Adobe Illustrator 24.0.1, SVG Export Plug-In . SVG Version: 6.00 Build 0)  -->
<svg version="1.1" id="Capa_1" xmlns="http://www.w3.org/2000/svg" xmlns:xlink="http://www.w3.org/1999/xlink" x="0px" y="0px"
	 viewBox="0 0 465.6 70.3" style="enable-background:new 0 0 465.6 70.3;" xml:space="preserve">
<style type="text/css">
	.st0{fill-rule:evenodd;clip-rule:evenodd;fill:#FFFFFF;}
	.st1{fill-rule:evenodd;clip-rule:evenodd;fill:none;}
</style>
<path class="st0" d="M36.5,3.3h-5v0H18v0h-4.8l-0.9,4.5L0,68.1h23.4L35.6,7.7h0L36.5,3.3z M19.3,63.6H5.8L17.5,7.7H31L19.3,63.6z"/>
<path class="st0" d="M60.8,3.3L60.8,3.3l-13.5,0v0h-4.9l-0.9,4.5L29.3,68.1h23.4L64.9,7.7l0.9-4.5H60.8z M48.5,63.6H35L46.8,7.7
	h13.5L48.5,63.6z"/>
<path class="st0" d="M90,3.3L90,3.3l-13.5,0v0h-4.9l-0.9,4.5L58.5,68.1h23.4L94.1,7.7L95,3.3H90z M77.8,63.6H64.2L76,7.7h13.5
	L77.8,63.6z"/>
<polygon class="st1" points="60.3,7.7 48.5,63.6 35,63.6 46.8,7.7 "/>
<polygon class="st0" points="155.5,69.1 173.7,69.1 188.1,2.3 159,2.3 138.6,46.3 137.7,2.2 109.2,2.2 94.1,69.1 112.5,69.1 
	123.1,14.6 124.7,69.1 142.4,69.1 168.3,15 "/>
<path class="st0" d="M188.6,46.5c-0.1-3.4,0.4-7,1.4-10.8c1.3-5.1,3.4-9.5,6.3-13.2c2.8-3.7,6.5-6.7,10.8-8.9
	c4.4-2.2,9.4-3.3,15-3.3c7.6,0,13.7,2.2,18.4,6.7c4.7,4.5,7.2,10.4,7.3,17.7c0.1,6.1-1.3,12-4.3,17.8c-2.9,5.7-7,10.1-12.1,13.2
	c-5.1,3.1-11,4.6-17.6,4.6c-5.7,0-10.5-1.2-14.4-3.7c-3.9-2.5-6.7-5.5-8.4-9.1C189.5,53.9,188.6,50.2,188.6,46.5L188.6,46.5z
	 M204.4,45.3c0.1,3.6,1.1,6.6,3.2,9c2.1,2.4,4.8,3.6,8.1,3.6c2.7,0,5.3-1,7.7-2.8c2.5-1.9,4.5-4.8,6-8.6c1.6-3.9,2.3-7.6,2.3-11.3
	c-0.1-4.1-1.1-7.3-3.2-9.6c-2.1-2.3-4.7-3.5-7.9-3.5c-4.9,0-8.8,2.4-11.8,7.3C205.8,34.1,204.3,39.5,204.4,45.3z"/>
<polygon class="st0" points="293.8,69.1 304.7,19.9 289.9,19.9 284,52.4 275.2,19.9 257.1,19.9 247.4,69.1 262.5,69.1 267,36.5 
	276.3,69.1 "/>
<path class="st0" d="M326.8,69.1h-26.3l9.9-49.2h23.3c16,0,18.9,19.3,2.6,24.6C349.8,46.5,345.2,69.1,326.8,69.1L326.8,69.1z
	 M323.6,49.2h-5l-1.7,9.2h5.2C330.7,58.3,332.1,48.9,323.6,49.2L323.6,49.2z M326.9,30.7h-4.7l-1.6,8.6h4.8
	C333.5,39.2,334.9,30.4,326.9,30.7z"/>
<path class="st0" d="M368.4,42.5c-3.8,16.5,7.4,18.1,13.4,11.2c1.2-2.2,2.5-5.8,3.6-11l7.1-32h17.4l-7.3,33.1
	c-1.5,6.5-3.3,11.4-5.3,14.8c-2,3.4-5.1,6.2-9.1,8.4c-4.1,2.2-9.2,3.2-15.4,3.2c-7.4,0-13.1-1.7-17.1-5c-5.2-4.4-6.6-10-5.5-16.4
	c0.1-0.8,0.6-3.3,1.5-7.3l7.2-30.8h15.5L368.4,42.5z"/>
<path class="st0" d="M455.3,35.3c5,5.7,5.8,20.1-3.6,28.5c-10.1,8.7-35.2,9-47.5,2.8l4.9-14.6c10.7,6.6,33.5,6.6,30.6-4.7
	c-1.7-5.6-15.1-8.4-21-12c-7.7-3.9-7.6-22.2,2-28.5c10.1-8.7,32.5-8.7,44.8-2.5l-4.9,14.6c-10.7-6.6-31.4-6.4-27,4.2
	C436.9,28.6,450.6,29.3,455.3,35.3z"/>
</svg>
