<?xml version="1.0" encoding="utf-8"?>
<!-- Generator: Adobe Illustrator 24.0.1, SVG Export Plug-In . SVG Version: 6.00 Build 0)  -->
<svg version="1.1" id="Layer_1" xmlns="http://www.w3.org/2000/svg" xmlns:xlink="http://www.w3.org/1999/xlink" x="0px" y="0px"
	 viewBox="0 0 393.2 291.3" style="enable-background:new 0 0 393.2 291.3;" xml:space="preserve">
<style type="text/css">
	.st0{fill-rule:evenodd;clip-rule:evenodd;fill:#FFFFFF;}
</style>
<path class="st0" d="M381.8,223.1c-6.6,10-21.6,17.2-33,6.8c-19.2-17.6,14.8-109.7-15.6-119c-35.5-10.8-51.7,47.8-62.3,80
	c-13.7,41.6-17.8,73.7-59,85.8C99.3,309.6,93.8,125.3,51.5,162.2C23.2,187,79.5,258,63.9,282.7c-6.8,10.7-21.6,11.8-32.1,1.3
	C8.3,260.5-4.9,167.2,1.7,125.8C9.2,79.7,40.4,9.9,98.1,40c38,19.9,54.9,90.7,90.4,100.2c31.3,8.4,42-22.4,50.5-43.5
	c13.1-32.6,36.6-111.2,97.2-94.4C399.4,19.8,402.5,191.9,381.8,223.1z"/>
</svg>
