<?xml version="1.0" encoding="utf-8"?>
<!-- Generator: Adobe Illustrator 24.0.1, SVG Export Plug-In . SVG Version: 6.00 Build 0)  -->
<svg version="1.1" id="Layer_1" xmlns="http://www.w3.org/2000/svg" xmlns:xlink="http://www.w3.org/1999/xlink" x="0px" y="0px"
	 viewBox="0 0 85 33.1" style="enable-background:new 0 0 85 33.1;" xml:space="preserve">
<style type="text/css">
	.st0{fill:#FFFFFF;}
	.st1{clip-path:url(#SVGID_2_);}
	.st2{clip-path:url(#SVGID_4_);}
</style>
<g id="surface1">
	<path class="st0" d="M2.7,21.2C3,21.1,3,21,3,20.9c0-0.1,0-0.1,0-0.2c0,0,0,0,0,0c0,0,0,0,0,0c0,0.2,0.1,0.3,0.1,0.3
		c0,0,0.1,0.1,0.1,0.3c0,0,0,0,0,0.1c0,0,0,0,0,0c0,0,0-0.1-0.1-0.1c0-0.1-0.1-0.1-0.4,0L1,21.8c-0.1,0-0.2,0-0.2,0
		c0,0,0-0.1,0.1-0.1c0-0.1,0.4-0.6,0.8-1.2c0.2-0.4,0.5-0.8,0.6-0.9L0.8,20c-0.2,0.1-0.3,0.1-0.3,0.2c0,0.1,0,0.1,0,0.1c0,0,0,0,0,0
		c0,0,0,0,0-0.1c0-0.1-0.1-0.3-0.1-0.3c0,0,0-0.1-0.1-0.3c0,0,0-0.1,0-0.1c0,0,0,0,0,0c0,0,0,0,0,0.1c0,0.1,0.1,0.1,0.3,0l1.8-0.5
		c0.2-0.1,0.2-0.1,0.2,0c0,0,0,0.1-0.1,0.3c0,0-0.3,0.6-0.6,1c-0.3,0.4-0.6,0.9-0.6,1L2.7,21.2"/>
	<path class="st0" d="M1.4,17.5C1.4,17.5,1.4,17.5,1.4,17.5l-0.8,0.4c0,0,0,0,0,0l0.9,0.2c0,0,0,0,0,0L1.4,17.5z M0.2,18
		c-0.1,0-0.1,0-0.1-0.1c0,0,0,0,0.1-0.1c0.1-0.1,1.3-0.7,1.8-0.9c0.3-0.1,0.3-0.2,0.3-0.3c0,0,0-0.1,0-0.1c0,0,0,0,0,0
		c0,0,0,0,0,0.1c0,0,0,0.3,0,0.5c0,0.1,0,0.1,0,0.1s0,0,0,0c0,0,0,0-0.1,0l-0.7,0.4c0,0,0,0,0,0l0.1,0.7c0,0,0,0,0,0l0.6,0.1
		c0.1,0,0.2,0,0.2,0c0.1,0,0.1-0.1,0.1-0.1l0,0c0,0,0,0,0,0c0,0,0,0,0,0c0,0.1,0,0.2,0,0.2c0,0,0,0.2,0,0.3c0,0,0,0.1,0,0.1
		c0,0,0,0,0,0c0,0,0-0.1,0-0.1c0-0.1-0.2-0.2-0.3-0.2L0.2,18"/>
	<path class="st0" d="M2,15.5c-0.4-0.2-1.5-0.7-1.7-0.8c0,0-0.1,0-0.1,0c0,0-0.1,0-0.1,0c0,0,0,0.1,0,0.1c0,0,0,0,0,0s0,0,0-0.1
		c0-0.1,0-0.3,0-0.3c0,0,0-0.2,0-0.2c0,0,0-0.1,0-0.1c0,0,0,0,0,0c0,0,0,0.1,0,0.1c0,0,0.1,0.1,0.3,0.2c0.1,0,0.4,0.2,0.8,0.4
		c0.4,0.2,0.8,0.4,0.9,0.4c0.2,0.1,0.2,0.1,0.2,0.1c0,0,0,0.1-0.2,0.1l-1.9,0.7c-0.2,0.1-0.2,0.1-0.3,0.2c0,0,0,0.1,0,0.1
		c0,0,0,0,0,0c0,0,0,0,0-0.1c0-0.1,0-0.3,0-0.4c0,0,0-0.2,0-0.3c0-0.1,0-0.1,0-0.1s0,0,0,0c0,0,0,0.1,0,0.1c0,0,0,0,0.1,0
		c0,0,0.1,0,0.3-0.1L2,15.5"/>
	<path class="st0" d="M1.7,13.3C1.7,13.3,1.7,13.3,1.7,13.3l-0.9,0.1c0,0-0.1,0,0,0l0.8,0.4c0,0,0,0,0,0L1.7,13.3z M0.4,13.4
		c-0.1-0.1-0.1-0.1-0.1-0.1c0,0,0,0,0.1,0c0.1,0,1.5-0.3,2-0.4c0.3-0.1,0.4-0.1,0.4-0.2c0,0,0-0.1,0-0.1c0,0,0,0,0,0c0,0,0,0,0,0.1
		c0,0-0.1,0.3-0.1,0.5c0,0.1,0,0.1,0,0.1c0,0,0,0,0,0c0,0,0,0-0.1,0l-0.8,0.1c0,0,0,0,0,0l-0.1,0.7c0,0,0,0,0,0l0.5,0.3
		c0.1,0,0.1,0.1,0.2,0.1c0.1,0,0.1,0,0.1-0.1l0,0c0,0,0,0,0,0c0,0,0,0,0,0c0,0.1,0,0.2-0.1,0.2c0,0,0,0.2-0.1,0.3c0,0,0,0.1,0,0.1
		c0,0,0,0,0,0c0,0,0-0.1,0-0.1c0-0.1-0.1-0.2-0.2-0.3L0.4,13.4"/>
	<path class="st0" d="M2,11.4C2,11.4,2,11.4,2,11.4c0.1,0,0.2-0.2,0.2-0.3c0-0.1,0-0.2,0-0.2c0-0.1-0.2-0.3-0.4-0.3
		c-0.4-0.1-0.7,0-0.8,0.3C1,10.9,1,11,1,11.1c0,0,0,0,0,0L2,11.4z M1.7,11.6c-0.5-0.2-0.5-0.2-0.6-0.2c-0.1,0-0.2,0-0.2,0.1
		c0,0,0,0.1,0,0.1c0,0,0,0,0,0c0,0,0,0,0-0.1c0-0.1,0.1-0.3,0.1-0.3c0,0,0.1-0.3,0.1-0.4c0.1-0.2,0.2-0.4,0.3-0.5
		c0.1-0.1,0.3-0.1,0.5-0.1c0.2,0.1,0.4,0.2,0.6,0.6c0.4-0.1,0.7-0.2,1-0.3c0.2-0.1,0.3-0.2,0.3-0.3c0-0.1,0-0.1,0.1-0.1c0,0,0,0,0,0
		c0,0,0,0,0,0.1l-0.1,0.2c-0.1,0.2-0.1,0.2-0.2,0.3c-0.1,0.1-0.3,0.2-0.6,0.2C2.7,11,2.4,11,2.3,11.1c0,0,0,0,0,0l-0.1,0.4
		c0,0,0,0,0,0l0.1,0c0.3,0.1,0.5,0.2,0.6,0.2c0.1,0,0.2,0,0.2-0.1c0,0,0-0.1,0.1-0.1c0,0,0,0,0,0c0,0,0,0,0,0.1
		c-0.1,0.2-0.1,0.3-0.1,0.4c0,0-0.1,0.2-0.1,0.3c0,0,0,0,0,0c0,0,0,0,0,0c0,0,0-0.1,0-0.1C3,12.1,2.9,12,2.8,12
		c-0.1-0.1-0.3-0.1-0.6-0.2L1.7,11.6"/>
	<path class="st0" d="M3,9C3,9.1,3,9.1,3,9c0.1,0,0.2-0.1,0.2-0.3c0-0.1,0.1-0.1,0.1-0.2c0-0.1-0.1-0.3-0.3-0.4C2.6,8,2.3,8,2.1,8.3
		c0,0.1-0.1,0.2-0.1,0.2c0,0,0,0,0,0L3,9z M2.6,9.1C2.2,8.9,2.1,8.9,2,8.8c-0.1,0-0.1,0-0.2,0c0,0,0,0.1-0.1,0.1c0,0,0,0,0,0
		c0,0,0,0,0-0.1c0.1-0.1,0.2-0.3,0.2-0.3c0,0,0.1-0.2,0.2-0.3c0.1-0.2,0.2-0.3,0.4-0.4c0.1,0,0.3-0.1,0.5,0C3.1,8,3.3,8.1,3.4,8.5
		c0.4-0.1,0.8-0.1,1-0.2c0.2-0.1,0.3-0.2,0.4-0.2C4.8,8,4.8,8,4.8,8c0,0,0,0,0,0c0,0,0,0,0,0.1L4.7,8.2C4.7,8.4,4.6,8.4,4.5,8.5
		C4.4,8.6,4.2,8.6,3.9,8.7c-0.2,0-0.5,0.1-0.6,0.1c0,0,0,0,0,0L3.2,9.1c0,0,0,0,0,0l0.1,0c0.3,0.1,0.5,0.3,0.6,0.3
		c0.1,0,0.2,0.1,0.2,0c0,0,0.1-0.1,0.1-0.1c0,0,0,0,0,0c0,0,0,0,0,0.1C4.1,9.5,4,9.7,4,9.7c0,0-0.1,0.2-0.1,0.3c0,0,0,0,0,0
		c0,0,0,0,0,0c0,0,0-0.1,0-0.1c0-0.1,0-0.1-0.1-0.2C3.6,9.6,3.4,9.5,3.1,9.4L2.6,9.1"/>
	<path class="st0" d="M3.9,6.9C3.5,6.6,3.4,6.6,3.4,6.5c-0.1-0.1-0.1-0.1-0.2,0c0,0-0.1,0.1-0.1,0.1c0,0,0,0,0,0c0,0,0,0,0-0.1
		c0-0.1,0.1-0.1,0.1-0.2l0.1-0.1c0,0,0.4-0.5,0.4-0.6c0-0.1,0.1-0.1,0.1-0.1c0,0,0,0,0,0c0,0,0,0,0,0c0,0,0,0,0.1,0.1
		c0,0,0.1,0.1,0.2,0.1c0,0,0,0,0,0c0,0,0,0,0,0c0,0-0.1,0-0.1-0.1c-0.1,0-0.1,0-0.2,0.1c0,0-0.2,0.3-0.3,0.3c0,0,0,0,0,0l0.7,0.5
		c0,0,0,0,0,0c0,0,0.2-0.3,0.3-0.4c0-0.1,0.1-0.1,0-0.1c0,0,0-0.1,0-0.1c0,0,0,0,0,0c0,0,0.1,0.1,0.1,0.1c0,0,0.1,0.1,0.2,0.1
		c0,0,0,0,0,0.1c0,0,0,0,0,0c0,0-0.1,0-0.1,0c0,0-0.1,0-0.2,0.1C4.5,6.5,4.3,6.8,4.3,6.8c0,0,0,0,0,0L4.5,7C4.6,7.1,4.9,7.3,5,7.3
		c0.2,0.1,0.2,0.1,0.4-0.1c0-0.1,0.1-0.2,0.1-0.3c0-0.1,0-0.2-0.1-0.2c0,0,0,0,0,0c0,0,0,0,0.1,0c0,0,0.2,0.2,0.2,0.2
		c0.1,0.1,0,0.1,0,0.2C5.5,7.2,5.4,7.3,5.3,7.4C5.2,7.5,5.2,7.6,5.2,7.6c0,0,0,0-0.1,0.1C5.1,7.8,5,7.8,5,7.9c0,0,0,0-0.1,0
		c0,0,0,0,0,0c0,0,0-0.1,0-0.1c0-0.1,0-0.1-0.1-0.2C4.8,7.5,4.6,7.4,4.4,7.2L3.9,6.9"/>
	<path class="st0" d="M5.9,5.9C6.1,6.1,6.2,6.1,6.3,6C6.3,6,6.4,6,6.4,5.9c0,0,0,0,0,0c0,0,0,0,0,0.1C6.3,6.1,6.2,6.2,6.2,6.2
		c0,0-0.1,0.1-0.2,0.2c0,0,0,0-0.1,0c0,0,0,0,0,0c0,0,0.1-0.1,0.1-0.1C6,6.3,6,6.2,5.8,6L4.5,4.8C4.4,4.7,4.4,4.7,4.4,4.7
		c0,0,0.1,0,0.1,0c0.1,0,0.8,0,1.5,0c0.5,0,1,0,1.1,0L5.9,3.6C5.8,3.5,5.7,3.4,5.6,3.5c0,0-0.1,0.1-0.1,0.1c0,0,0,0,0,0
		c0,0,0,0,0-0.1c0.1-0.1,0.2-0.2,0.2-0.2c0,0,0.1-0.1,0.2-0.2c0,0,0,0,0.1,0c0,0,0,0,0,0c0,0,0,0,0,0.1C5.8,3.3,5.9,3.3,6,3.5
		l1.3,1.2c0.2,0.1,0.2,0.2,0.1,0.2c0,0-0.1,0-0.3,0c0,0-0.7,0-1.2,0c-0.5,0-1.1,0-1.2,0L5.9,5.9"/>
	<path class="st0" d="M7.9,4.5c-0.1,0-0.1,0-0.1-0.1C7.6,4.3,7.6,4.2,7.6,4.1c0,0,0,0,0-0.1c0,0,0,0,0,0c0,0,0,0.1,0.1,0.1
		c0.2,0.1,0.4,0.1,0.6,0c0.2-0.2,0.2-0.4,0.1-0.6C8.2,3.4,8,3.3,7.7,3.3H7.5c-0.4,0-0.6-0.1-0.7-0.3C6.5,2.8,6.6,2.5,6.9,2.2
		C7,2.2,7.1,2.1,7.1,2.1C7.2,2,7.2,2,7.2,2c0,0,0,0,0,0c0,0,0.1,0.1,0.2,0.3c0,0,0,0.1,0,0.1c0,0,0,0,0,0c0,0-0.1-0.1-0.1-0.1
		S7.1,2.2,6.9,2.3C6.7,2.5,6.7,2.7,6.8,2.9C7,3,7.1,3,7.5,3l0.1,0C8,3,8.2,3.1,8.4,3.3c0.1,0.1,0.2,0.3,0.1,0.6
		c0,0.2-0.2,0.3-0.3,0.4C8.1,4.4,8,4.4,7.9,4.5"/>
	<path class="st0" d="M9,2.5C9.2,2.8,9.3,3,9.4,3.1c0.1,0.1,0.1,0.1,0.2,0.1c0,0,0.1-0.1,0.1-0.1c0,0,0,0,0,0c0,0,0,0,0,0
		C9.6,3.2,9.4,3.3,9.4,3.3c0,0-0.2,0.1-0.3,0.2c0,0,0,0-0.1,0c0,0,0,0,0,0c0,0,0.1,0,0.1-0.1c0,0,0-0.1,0-0.2C9.1,3.1,9,2.9,8.8,2.7
		L8.5,2.2C8.2,1.8,8.2,1.7,8.1,1.6C8.1,1.6,8,1.5,7.9,1.6c0,0-0.1,0-0.1,0c0,0,0,0,0,0c0,0,0,0,0,0c0.1-0.1,0.3-0.2,0.3-0.2
		c0,0,0.2-0.1,0.3-0.2c0,0,0,0,0.1,0c0,0,0,0,0,0c0,0,0,0-0.1,0.1c-0.1,0.1-0.1,0.1,0,0.2c0.1,0.1,0.1,0.2,0.4,0.6L9,2.5"/>
	<path class="st0" d="M10.2,2.8C10.1,2.8,10.1,2.8,10.2,2.8C10,2.6,10,2.5,9.9,2.4c0,0,0-0.1,0-0.1c0,0,0,0,0,0c0,0,0,0.1,0.1,0.1
		c0.1,0.2,0.4,0.2,0.6,0.1c0.3-0.1,0.3-0.4,0.2-0.6c-0.1-0.2-0.2-0.3-0.6-0.4l-0.2,0C9.7,1.5,9.5,1.4,9.4,1.2
		c-0.1-0.3,0-0.6,0.3-0.8C9.9,0.4,10,0.3,10,0.3c0.1,0,0.1,0,0.1,0c0,0,0,0,0,0c0,0,0,0.1,0.1,0.3c0,0,0,0.1,0,0.1c0,0,0,0,0,0
		c0,0-0.1-0.1-0.1-0.1c0,0-0.2-0.1-0.4,0C9.6,0.6,9.5,0.8,9.6,1c0.1,0.2,0.2,0.2,0.6,0.3l0.1,0c0.5,0.1,0.6,0.2,0.7,0.5
		c0.1,0.1,0.1,0.4,0,0.6c-0.1,0.1-0.2,0.3-0.4,0.3C10.4,2.8,10.3,2.8,10.2,2.8"/>
	<path class="st0" d="M12.8,0.6C12.8,0.5,12.8,0.5,12.8,0.6C12.8,0.5,12.8,0.5,12.8,0.6c0-0.1,0.3,0,0.4,0c0.1,0,0.1,0,0.1,0.1
		c0,0,0,0,0,0.1C13.2,0.8,13.1,0.9,13,1c0,0,0,0-0.1,0c0,0,0,0,0,0c0,0,0,0,0-0.1c0-0.1,0-0.2,0-0.3C12.9,0.6,12.9,0.6,12.8,0.6"/>
	<path class="st0" d="M15.9,2.3C16.2,2,17,1.2,17.2,1.1c0,0,0.1-0.1,0.1-0.1c0,0,0-0.1,0-0.1c0,0-0.1,0-0.1-0.1c0,0,0,0,0,0
		s0,0,0.1,0c0.1,0.1,0.2,0.1,0.3,0.1c0,0,0.1,0.1,0.2,0.1c0,0,0,0,0,0c0,0,0,0,0,0c0,0-0.1,0-0.2,0c0,0-0.1,0-0.3,0.2
		c-0.1,0.1-0.4,0.3-0.7,0.6c-0.4,0.3-0.6,0.6-0.8,0.7c-0.2,0.1-0.2,0.2-0.2,0.2s0-0.1,0-0.2l0.1-2.1c0-0.2,0-0.2-0.1-0.3
		c0,0-0.1-0.1-0.1-0.1c0,0,0,0,0,0c0,0,0,0,0.1,0c0.1,0.1,0.3,0.1,0.3,0.2c0,0,0.2,0.1,0.3,0.1c0.1,0,0.1,0,0.1,0.1s0,0,0,0
		c0,0-0.1,0-0.1,0c0,0-0.1,0-0.1,0c0,0,0,0.1,0,0.3L15.9,2.3"/>
	<path class="st0" d="M17.3,3.1c-0.2,0.2-0.2,0.3-0.1,0.4c0,0.1,0.1,0.1,0.1,0.1c0,0,0,0,0,0c0,0,0,0-0.1,0C17.1,3.5,17,3.4,17,3.4
		c0,0-0.1-0.1-0.2-0.2c0,0,0,0,0,0c0,0,0,0,0,0c0,0,0.1,0,0.1,0.1c0.1,0,0.1,0,0.3-0.3l1.1-1.4c0.1-0.1,0.1-0.1,0.1-0.1
		c0,0,0,0.1,0,0.1c0,0.1,0.1,0.8,0.1,1.4c0,0.4,0.1,1,0.1,1.1l0.9-1.3c0.1-0.2,0.1-0.2,0.1-0.3c0,0-0.1-0.1-0.1-0.1c0,0,0,0,0,0
		c0,0,0,0,0.1,0c0.1,0.1,0.2,0.2,0.3,0.2c0,0,0.1,0.1,0.2,0.2c0,0,0,0,0,0.1c0,0,0,0,0,0c0,0,0,0-0.1,0c-0.1,0-0.1,0-0.3,0.1
		l-1.1,1.4c-0.1,0.2-0.1,0.2-0.2,0.2c0,0,0-0.1-0.1-0.3c0,0-0.1-0.7-0.1-1.2c0-0.5-0.1-1.1-0.1-1.2L17.3,3.1"/>
	<path class="st0" d="M20.1,4.9c-0.2,0.2-0.4,0.4-0.5,0.5c-0.1,0.1-0.1,0.1,0,0.2c0,0,0.1,0.1,0.1,0.1c0,0,0,0,0,0c0,0,0,0-0.1,0
		c-0.1-0.1-0.2-0.3-0.3-0.3c0,0-0.2-0.1-0.2-0.2c0,0,0,0,0-0.1c0,0,0,0,0,0c0,0,0.1,0,0.1,0.1c0.1,0,0.1,0,0.2-0.1
		c0.1-0.1,0.3-0.2,0.5-0.5l0.4-0.4c0.4-0.3,0.4-0.4,0.5-0.5c0.1-0.1,0.1-0.1,0.1-0.2c0,0,0-0.1-0.1-0.1c0,0,0,0,0,0c0,0,0,0,0.1,0
		C20.9,3.6,21,3.8,21,3.8c0,0,0.2,0.1,0.2,0.2c0,0,0,0,0,0.1c0,0,0,0,0,0c0,0,0,0-0.1-0.1C21.1,4,21,4,21,4.1
		c-0.1,0.1-0.1,0.1-0.5,0.5L20.1,4.9"/>
	<path class="st0" d="M20.9,6.7c0.4-0.1,1.6-0.4,1.8-0.5c0,0,0.1,0,0.1-0.1c0,0,0,0,0-0.1c0,0,0-0.1-0.1-0.1c0,0,0,0,0,0
		c0,0,0,0,0.1,0C22.9,6.1,23,6.2,23,6.2c0,0,0.1,0.1,0.2,0.2c0,0,0,0,0,0.1c0,0,0,0,0,0c0,0-0.1-0.1-0.1-0.1c0,0-0.1,0-0.3,0
		c-0.1,0-0.5,0.1-0.9,0.2c-0.5,0.1-0.8,0.2-1,0.3c-0.2,0-0.2,0.1-0.3,0c0,0,0-0.1,0.1-0.2l1.1-1.8c0.1-0.2,0.1-0.2,0.1-0.3
		c0,0-0.1-0.1-0.1-0.1c0,0,0,0,0,0c0,0,0,0,0.1,0.1c0.1,0.1,0.2,0.3,0.2,0.3c0,0,0.1,0.1,0.2,0.2c0,0,0,0.1,0,0.1c0,0,0,0,0,0
		c0,0-0.1-0.1-0.1-0.1C22,5,22,5,22,5c0,0-0.1,0.1-0.2,0.2L20.9,6.7"/>
	<path class="st0" d="M22.8,7.6c0.4-0.2,0.5-0.3,0.6-0.3c0.1-0.1,0.1-0.1,0.1-0.2c0,0,0-0.1,0-0.1c0,0,0,0,0,0c0,0,0,0,0,0
		c0,0.1,0.1,0.1,0.1,0.2l0.1,0.1c0,0,0.3,0.6,0.4,0.6c0,0,0.1,0.1,0.1,0.1c0,0,0,0,0,0c0,0,0,0,0,0c0,0-0.1,0-0.1,0.1
		c0,0-0.2,0.1-0.2,0.1c0,0,0,0,0,0c0,0,0,0,0,0c0,0,0.1,0,0.1-0.1c0,0,0.1-0.1,0-0.2c0,0-0.2-0.3-0.2-0.4c0,0,0,0,0,0l-0.7,0.4
		c0,0,0,0,0,0c0,0,0.2,0.4,0.3,0.4c0,0.1,0.1,0.1,0.1,0.1c0,0,0.1,0,0.1,0c0,0,0,0,0,0c0,0-0.1,0-0.2,0.1c-0.1,0-0.2,0.1-0.2,0.1
		c0,0-0.1,0-0.1,0c0,0,0,0,0,0c0,0,0.1,0,0.1-0.1c0,0,0.1-0.1,0-0.2c0-0.1-0.2-0.4-0.2-0.4c0,0,0,0,0,0l-0.2,0.1
		c-0.1,0.1-0.4,0.2-0.5,0.3c-0.2,0.1-0.2,0.2,0,0.4c0,0.1,0.1,0.2,0.2,0.2c0.1,0.1,0.1,0.1,0.3,0c0,0,0,0,0.1,0s0,0,0,0
		c0,0-0.2,0.1-0.3,0.1c-0.1,0-0.1,0-0.2-0.1c-0.1-0.2-0.2-0.4-0.3-0.5c-0.1-0.1-0.1-0.2-0.1-0.2c0,0,0-0.1-0.1-0.1
		c0-0.1-0.1-0.1-0.1-0.2c0,0,0,0,0-0.1c0,0,0,0,0,0c0,0,0,0.1,0.1,0.1c0,0,0.1,0,0.2,0c0.1-0.1,0.3-0.2,0.6-0.3L22.8,7.6"/>
	<path class="st0" d="M23.7,9.8C23.7,9.8,23.6,9.9,23.7,9.8c0,0.1,0,0.2,0.1,0.4c0,0.1,0.1,0.1,0.1,0.2c0.1,0.1,0.3,0.1,0.5,0
		c0.4-0.1,0.5-0.4,0.4-0.7c0-0.1-0.1-0.2-0.1-0.2c0,0,0,0,0,0L23.7,9.8z M23.8,9.5c0.4-0.2,0.5-0.2,0.6-0.3c0.1,0,0.1-0.1,0.1-0.2
		c0,0,0-0.1,0-0.1c0,0,0,0,0,0c0,0,0,0,0,0c0.1,0.1,0.1,0.3,0.1,0.3c0,0,0.1,0.2,0.1,0.3c0.1,0.2,0.1,0.4,0.1,0.6
		c0,0.1-0.1,0.3-0.3,0.4c-0.2,0.1-0.5,0.1-0.8-0.1c-0.2,0.4-0.4,0.7-0.5,0.9c-0.1,0.2-0.1,0.4-0.1,0.4c0,0.1,0,0.1,0,0.1
		c0,0,0,0,0,0c0,0,0,0-0.1-0.1l-0.1-0.2c-0.1-0.2-0.1-0.2-0.1-0.3c0-0.2,0.1-0.3,0.3-0.6c0.1-0.2,0.2-0.4,0.3-0.5c0,0,0,0,0,0
		l-0.1-0.4c0,0,0,0,0,0l-0.1,0c-0.3,0.1-0.5,0.2-0.6,0.3c-0.1,0-0.1,0.1-0.1,0.2c0,0,0,0.1,0,0.1c0,0,0,0,0,0c0,0,0,0,0,0
		c-0.1-0.2-0.1-0.3-0.1-0.4c0,0-0.1-0.2-0.1-0.3c0,0,0-0.1,0-0.1c0,0,0,0,0,0c0,0,0,0.1,0,0.1c0,0.1,0.1,0,0.2,0
		c0.1,0,0.4-0.1,0.6-0.2L23.8,9.5"/>
	<path class="st0" d="M23.3,12.2c0,0,0-0.1,0.1-0.1c0.2,0,0.3-0.1,0.3-0.1c0,0,0.1,0,0.1,0c0,0,0,0,0,0c0,0-0.1,0-0.1,0
		c-0.2,0.1-0.2,0.3-0.2,0.5c0.1,0.3,0.3,0.4,0.5,0.3c0.2-0.1,0.3-0.2,0.5-0.5l0.1-0.2c0.2-0.4,0.3-0.5,0.6-0.6
		c0.3-0.1,0.6,0.1,0.7,0.5c0,0.1,0,0.2,0,0.3c0,0.1,0,0.1,0,0.1c0,0,0,0,0,0s-0.1,0-0.3,0.1c0,0-0.1,0-0.1,0c0,0,0,0,0,0
		c0,0,0.1-0.1,0.1-0.1c0,0,0.1-0.1,0.1-0.4c-0.1-0.2-0.2-0.3-0.4-0.3c-0.2,0-0.3,0.1-0.4,0.5l0,0.1c-0.2,0.4-0.4,0.6-0.6,0.6
		c-0.1,0-0.4,0-0.6-0.1c-0.1-0.1-0.2-0.3-0.2-0.4C23.3,12.5,23.3,12.4,23.3,12.2"/>
	<path class="st0" d="M24.7,14.4c-0.3,0-0.5,0.1-0.7,0.1c-0.1,0-0.2,0.1-0.2,0.1c0,0,0,0.1,0,0.1c0,0,0,0,0,0c0,0,0,0,0,0
		c0-0.2,0-0.4,0-0.4c0,0,0-0.2-0.1-0.3c0,0,0-0.1,0-0.1c0,0,0,0,0,0c0,0,0,0.1,0,0.1c0,0.1,0.1,0.1,0.2,0.1c0.1,0,0.4,0,0.7-0.1
		l0.5-0.1c0.5-0.1,0.6-0.1,0.7-0.1c0.1,0,0.2-0.1,0.2-0.1c0,0,0-0.1,0-0.1c0,0,0,0,0,0c0,0,0,0,0,0c0,0.1,0,0.3,0,0.3
		c0,0,0,0.2,0.1,0.3c0,0,0,0,0,0.1c0,0,0,0,0,0c0,0,0,0,0-0.1c0-0.1-0.1-0.1-0.2-0.1c-0.1,0-0.2,0-0.7,0.1L24.7,14.4"/>
	<path class="st0" d="M24.8,16.4c-0.3,0-0.5,0-0.7,0c-0.1,0-0.2,0-0.2,0.1c0,0,0,0.1,0,0.1c0,0,0,0,0,0c0,0,0,0,0-0.1
		c0-0.2,0-0.4,0-0.4s0-0.2,0-0.3c0,0,0,0,0,0c0,0,0,0,0,0c0,0,0,0.1,0,0.1c0,0.1,0.1,0.1,0.2,0.1c0.1,0,0.4,0,0.7,0l1.3,0l0-0.5
		c0-0.2,0-0.3-0.1-0.3c-0.1,0-0.1,0-0.1-0.1c0,0,0,0,0,0c0,0,0,0,0,0c0,0,0.3,0.1,0.3,0.1c0,0,0.1,0,0.1,0c0,0,0,0.1,0,0.1
		c0,0.1,0,0.2,0,0.2l0,1.2c0,0.1,0,0.2,0,0.2c0,0,0,0.1,0,0.1c0,0,0,0,0,0c-0.1,0-0.3,0-0.3,0s0,0,0,0c0,0,0,0,0.1,0l0,0
		c0.1,0,0.2-0.1,0.2-0.4v-0.4L24.8,16.4"/>
	<path class="st0" d="M24.7,19C24.7,19,24.7,19,24.7,19l0.9-0.1c0.1,0,0.1,0,0,0l-0.8-0.4c0,0,0,0,0,0L24.7,19z M26,18.8
		c0.1,0.1,0.1,0.1,0.1,0.1c0,0,0,0-0.1,0.1c-0.1,0-1.5,0.3-2,0.4c-0.3,0.1-0.4,0.1-0.4,0.2c0,0,0,0.1,0,0.1c0,0,0,0,0,0
		c0,0,0,0,0-0.1c0,0,0-0.3,0.1-0.5c0-0.1,0-0.1,0-0.1c0,0,0,0,0,0c0,0,0,0,0.1,0l0.8-0.2c0,0,0,0,0,0l0.1-0.7c0,0,0,0,0,0L24.2,18
		C24.1,18,24,18,24,18c-0.1,0-0.1,0.1-0.1,0.1l0,0c0,0,0,0,0,0c0,0,0,0,0-0.1c0-0.1,0-0.2,0-0.2c0,0,0-0.2,0-0.3c0,0,0-0.1,0-0.1
		c0,0,0,0,0,0c0,0,0,0.1,0,0.1c0,0.1,0.1,0.2,0.3,0.3L26,18.8"/>
	<path class="st0" d="M23.4,20.2c0,0,0,0,0.1,0c0.1,0,0.3,0.1,0.3,0.1c0,0,0,0,0,0s0,0,0,0c0,0-0.1,0-0.1,0c-0.2,0-0.4,0.1-0.4,0.3
		c-0.1,0.3,0.1,0.5,0.3,0.5c0.2,0.1,0.3,0,0.6-0.2l0.2-0.1c0.4-0.2,0.6-0.3,0.8-0.2c0.3,0.1,0.5,0.4,0.3,0.8c0,0.1-0.1,0.2-0.1,0.3
		c0,0.1,0,0.1,0,0.1c0,0,0,0,0,0c0,0-0.1,0-0.3-0.1c0,0-0.1,0-0.1,0c0,0,0,0,0,0c0,0,0.1,0,0.2,0c0,0,0.2-0.1,0.3-0.3
		c0.1-0.2,0-0.4-0.2-0.5c-0.2-0.1-0.3,0-0.6,0.2l-0.1,0.1c-0.4,0.3-0.6,0.3-0.8,0.2c-0.1,0-0.3-0.2-0.4-0.4c-0.1-0.2,0-0.3,0-0.5
		C23.3,20.4,23.3,20.3,23.4,20.2"/>
	<path class="st0" d="M23.6,23.6C23.7,23.6,23.7,23.6,23.6,23.6C23.7,23.6,23.7,23.6,23.6,23.6c0,0.1-0.1,0.2-0.2,0.4
		c0,0.1-0.1,0.1-0.1,0.1c0,0,0,0,0,0c-0.1-0.1-0.1-0.3-0.2-0.5c0,0,0-0.1,0-0.1c0,0,0,0,0,0c0,0,0,0,0,0c0.1,0.1,0.2,0.1,0.2,0.1
		C23.5,23.7,23.6,23.6,23.6,23.6"/>
	<path class="st0" d="M21.2,25.1c0,0,0.1,0,0.1,0c0.1,0.1,0.2,0.2,0.3,0.2c0,0,0,0,0,0c0,0,0,0,0,0c0,0-0.1,0-0.1-0.1
		c-0.2-0.1-0.4,0-0.5,0.2c-0.2,0.2-0.1,0.5,0.1,0.6c0.2,0.1,0.3,0.1,0.7,0l0.2,0c0.4-0.1,0.6-0.1,0.8,0.1c0.3,0.2,0.3,0.5,0.1,0.8
		c-0.1,0.1-0.1,0.2-0.2,0.2c0,0-0.1,0.1-0.1,0.1c0,0,0,0,0,0c0,0-0.1-0.1-0.3-0.2c0,0-0.1,0,0-0.1c0,0,0,0,0,0c0,0,0.1,0.1,0.2,0.1
		c0,0,0.2,0,0.4-0.2c0.1-0.2,0.1-0.4-0.1-0.5c-0.1-0.1-0.3-0.1-0.6,0l-0.1,0c-0.4,0.1-0.7,0.1-0.9-0.1c-0.1-0.1-0.3-0.3-0.3-0.5
		c0-0.2,0.1-0.3,0.2-0.5C21,25.2,21.1,25.1,21.2,25.1"/>
	<path class="st0" d="M20.1,27.8c-0.2-0.2-0.4-0.4-0.5-0.4c-0.1-0.1-0.1-0.1-0.2,0c0,0-0.1,0.1-0.1,0.1c0,0,0,0,0,0c0,0,0,0,0-0.1
		c0.1-0.1,0.3-0.3,0.3-0.3c0,0,0.1-0.2,0.2-0.2c0,0,0,0,0.1,0c0,0,0,0,0,0c0,0,0,0.1-0.1,0.1c0,0.1,0,0.1,0.1,0.2
		c0.1,0.1,0.3,0.3,0.5,0.5l1,0.9l0.3-0.3c0.1-0.1,0.2-0.2,0.1-0.3c0-0.1,0-0.1,0-0.1c0,0,0,0,0,0c0,0,0,0,0,0c0,0,0.2,0.2,0.2,0.3
		c0,0,0,0.1,0,0.1c0,0-0.1,0-0.1,0.1c-0.1,0.1-0.2,0.1-0.2,0.2l-0.8,0.9c-0.1,0.1-0.1,0.1-0.1,0.2c0,0,0,0.1,0,0.1c0,0,0,0,0,0
		c-0.1-0.1-0.2-0.2-0.2-0.2c0,0,0,0,0,0c0,0,0,0,0.1,0l0,0c0.1,0.1,0.2,0.1,0.4-0.2l0.3-0.3L20.1,27.8"/>
	<path class="st0" d="M17.9,29.1c0.1,0.4,0.5,1.5,0.5,1.8c0,0,0,0.1,0.1,0.1s0,0,0.1,0c0,0,0.1,0,0.1-0.1c0,0,0,0,0,0c0,0,0,0,0,0.1
		c-0.1,0.1-0.2,0.2-0.2,0.2c0,0-0.1,0.1-0.2,0.2c0,0,0,0-0.1,0c0,0,0,0,0,0c0,0,0.1-0.1,0.1-0.1c0,0,0-0.1,0-0.3
		c0-0.1-0.1-0.5-0.2-0.9c-0.1-0.5-0.2-0.8-0.3-1c0-0.2-0.1-0.2,0-0.3c0,0,0.1,0,0.2,0.1l1.8,1c0.2,0.1,0.2,0.1,0.3,0.1
		c0,0,0.1-0.1,0.1-0.1c0,0,0,0,0,0c0,0,0,0-0.1,0.1c-0.1,0.1-0.3,0.2-0.3,0.2c0,0-0.1,0.1-0.2,0.2c0,0-0.1,0-0.1,0c0,0,0,0,0,0
		c0,0,0.1-0.1,0.1-0.1c0,0,0-0.1,0-0.1c0,0-0.1-0.1-0.2-0.2L17.9,29.1"/>
	<path class="st0" d="M16.6,30.8c-0.1-0.3-0.3-0.6-0.3-0.6c0-0.1-0.1-0.2-0.1-0.2c-0.1,0-0.2,0-0.5,0.1c-0.3,0.1-0.5,0.3-0.5,0.6
		c-0.1,0.2,0,0.5,0.1,0.8c0.2,0.4,0.4,0.5,0.6,0.6c0.4,0.2,0.7,0,1.1-0.1c0.1,0,0.2-0.1,0.2-0.1c0,0,0,0,0-0.1
		c0-0.1-0.2-0.4-0.3-0.6L16.6,30.8z M17,31c0.2,0.4,0.2,0.5,0.3,0.6c0,0.1,0.1,0.1,0.2,0.1c0,0,0.1,0,0.1,0c0,0,0,0,0,0c0,0,0,0,0,0
		c-0.1,0.1-0.3,0.1-0.3,0.1c0,0-0.2,0.1-0.4,0.2c-0.3,0.1-0.8,0.4-1.3,0.2c-0.2-0.1-0.5-0.3-0.6-0.6c-0.2-0.4-0.2-0.7-0.1-0.9
		c0.1-0.2,0.2-0.5,0.7-0.7c0.1-0.1,0.3-0.1,0.4-0.2c0.1-0.1,0.2-0.1,0.2-0.1c0,0,0.1,0,0.1-0.1c0.1,0,0.1-0.1,0.2-0.1c0,0,0,0,0.1,0
		c0,0,0,0,0,0c0,0-0.1,0-0.1,0.1c-0.1,0,0,0.1,0,0.2c0,0.1,0.1,0.3,0.3,0.6L17,31"/>
	<g>
		<defs>
			<rect id="SVGID_1_" x="13" y="30" width="2" height="3.1"/>
		</defs>
		<use xlink:href="#SVGID_1_"  style="overflow:visible;fill:#FFFFFF;"/>
		<clipPath id="SVGID_2_">
			<use xlink:href="#SVGID_1_"  style="overflow:visible;"/>
		</clipPath>
		<g class="st1">
			<path class="st0" d="M13.6,31.6c0-0.3-0.1-0.5-0.1-0.7c0-0.1,0-0.2-0.1-0.2c0,0-0.1,0-0.1,0c0,0,0,0,0,0c0,0,0,0,0,0
				c0.2,0,0.4,0,0.4,0c0,0,0.2,0,0.3,0c0,0,0.1,0,0.1,0c0,0,0,0,0,0c0,0-0.1,0-0.1,0c-0.1,0-0.1,0.1-0.1,0.2c0,0.1,0,0.4,0.1,0.7
				l0.1,0.5c0.1,0.5,0.1,0.6,0.1,0.7c0,0.1,0.1,0.2,0.1,0.2c0,0,0.1,0,0.1,0c0,0,0,0,0,0c0,0,0,0,0,0c-0.1,0-0.3,0-0.3,0
				c0,0-0.2,0-0.3,0c0,0-0.1,0-0.1,0c0,0,0,0,0,0c0,0,0,0,0.1,0c0.1,0,0.1-0.1,0.1-0.2c0-0.1,0-0.2-0.1-0.7L13.6,31.6"/>
		</g>
	</g>
	<path class="st0" d="M11.6,30.6c-0.3-0.1-0.9-0.1-1.1,0.8c-0.2,0.7,0.1,1.2,0.6,1.4c0.5,0.1,1-0.1,1.2-0.7
		C12.4,31.3,12.2,30.7,11.6,30.6z M11,32.8c-0.7-0.2-1-0.8-0.8-1.5c0.2-0.7,0.8-1.1,1.6-0.9c0.8,0.2,1,1,0.8,1.5
		C12.4,32.5,11.9,33.1,11,32.8"/>
	<path class="st0" d="M9.2,30.7C9.2,30.7,9.2,30.7,9.2,30.7c0-0.1-0.1-0.2-0.2-0.3c-0.1,0-0.1-0.1-0.2-0.1c-0.1,0-0.3,0.1-0.4,0.3
		c-0.2,0.3-0.2,0.6,0.1,0.8c0.1,0.1,0.2,0.1,0.2,0.1c0,0,0,0,0,0L9.2,30.7z M9.3,31C9,31.5,9,31.5,8.9,31.6c-0.1,0.1-0.1,0.1,0,0.2
		c0,0,0.1,0.1,0.1,0.1c0,0,0,0,0,0c0,0,0,0-0.1,0c-0.1-0.1-0.3-0.2-0.3-0.2c0,0-0.2-0.1-0.3-0.2c-0.2-0.1-0.3-0.2-0.4-0.4
		c0-0.1-0.1-0.3,0-0.5c0.1-0.2,0.3-0.3,0.7-0.4c0-0.4-0.1-0.8-0.1-1c0-0.2-0.1-0.3-0.2-0.4c0,0-0.1-0.1-0.1-0.1c0,0,0,0,0,0
		c0,0,0,0,0.1,0l0.2,0.1C8.7,29,8.8,29,8.8,29.1c0.1,0.1,0.1,0.3,0.1,0.6c0,0.2,0,0.5,0,0.6c0,0,0,0,0,0l0.3,0.2c0,0,0,0,0,0l0-0.1
		c0.2-0.3,0.3-0.5,0.3-0.6c0-0.1,0.1-0.1,0-0.2c0,0-0.1-0.1-0.1-0.1c0,0,0,0,0,0c0,0,0,0,0.1,0c0.1,0.1,0.3,0.2,0.3,0.2
		c0,0,0.2,0.1,0.3,0.1c0,0,0,0,0,0c0,0,0,0,0,0c0,0-0.1,0-0.1,0c-0.1,0-0.1,0-0.2,0.1c-0.1,0.1-0.2,0.3-0.4,0.6L9.3,31"/>
	<path class="st0" d="M7.3,28.3c-0.4,0.2-1.5,0.7-1.7,0.8c0,0-0.1,0-0.1,0.1c0,0,0,0,0,0.1c0,0,0.1,0.1,0.1,0.1c0,0,0,0,0,0
		c0,0,0,0-0.1,0c-0.1-0.1-0.2-0.2-0.2-0.2c0,0-0.1-0.1-0.2-0.2c0,0,0,0,0-0.1c0,0,0,0,0,0c0,0,0.1,0.1,0.1,0.1c0,0,0.1,0,0.3-0.1
		c0.1,0,0.4-0.2,0.8-0.4c0.4-0.2,0.8-0.4,0.9-0.4C7.6,28,7.7,28,7.7,28c0,0,0,0.1,0,0.2l-0.7,1.9c-0.1,0.2-0.1,0.2,0,0.3
		c0,0,0.1,0.1,0.1,0.1c0,0,0,0,0,0c0,0,0,0-0.1,0c-0.1-0.1-0.2-0.2-0.3-0.3c0,0-0.1-0.1-0.2-0.2c0,0-0.1-0.1,0-0.1c0,0,0,0,0,0
		c0,0,0.1,0.1,0.1,0.1c0,0,0.1,0,0.1,0c0,0,0.1-0.1,0.1-0.2L7.3,28.3"/>
	<path class="st0" d="M4.7,25.2c0.1-0.1,0.2-0.2,0.2-0.3c0-0.1-0.1-0.2-0.1-0.2c0,0,0,0,0,0c0,0,0,0,0.1,0c0,0.1,0.2,0.3,0.3,0.4
		c0,0.1,0,0.1,0,0.1c0,0,0,0,0,0c0,0-0.1,0-0.1,0.1l-1.2,1.1l0,0L5.6,26c0.1,0,0.2,0,0.2,0c0,0,0,0-0.1,0.2
		c-0.1,0.2-0.3,0.7-0.3,0.7c0,0.1-0.4,0.8-0.5,0.9l0,0L6.2,27c0,0,0.1-0.1,0.1-0.1c0,0,0.1-0.1,0-0.1c0-0.1,0-0.1-0.1-0.1
		c0,0,0,0,0,0c0,0,0,0,0.1,0c0.1,0.1,0.2,0.2,0.2,0.2c0,0,0.1,0.1,0.2,0.2c0,0,0,0,0,0.1c0,0,0,0,0,0c0,0,0,0-0.1-0.1
		c-0.1-0.1-0.2,0-0.3,0.1l-1.7,1.1c0,0-0.1,0-0.1,0c0,0,0,0,0-0.1l1-1.9l-2.1,0.5c0,0-0.1,0-0.1,0c0,0,0,0,0-0.1L4.7,25.2"/>
	<path class="st0" d="M2.8,24C2.8,24.1,2.9,24.1,2.8,24C2.8,24.1,2.8,24.1,2.8,24c-0.1,0-0.1-0.2-0.2-0.4c0-0.1,0-0.1,0-0.1
		c0,0,0,0,0.1,0c0.2,0,0.3,0.1,0.5,0.1c0,0,0.1,0,0.1,0c0,0,0,0,0,0c0,0,0,0-0.1,0c-0.1,0-0.2,0.1-0.2,0.1C2.9,23.9,2.8,24,2.8,24"
		/>
	<path class="st0" d="M35.5,12.6c0,1.2-0.2,3.1-3,3.1c-2.5,0-2.8-1.9-2.8-3.1V6.4h1v6c0,1,0.1,2.4,1.8,2.4c1.9,0,1.9-1.4,1.9-2.4v-6
		h1V12.6"/>
	<path class="st0" d="M36.9,9.2h0.9v1.5h0c0.2-0.5,0.6-1.6,2-1.6c1.1,0,1.6,0.9,1.6,2v4.5h-0.9V12c0-1.1,0-2.1-0.9-2.1
		c-1.2,0-1.8,1.8-1.8,3v2.6h-0.9V9.2"/>
	<path class="st0" d="M43,9.2h0.9v6.3H43V9.2z M42.9,6.4h1.2v1.2h-1.2V6.4"/>
	<path class="st0" d="M45.1,9.2h1l1.9,5h0l1.6-5h1l-2.1,6.3h-0.9L45.1,9.2"/>
	<path class="st0" d="M54.8,11c0-0.4-0.3-1.2-1.2-1.2c-0.9,0-1.3,0.8-1.3,1.2H54.8z M55.7,15.5c-0.4,0.1-0.9,0.2-1.5,0.2
		c-2,0-3.1-1.2-3.1-3.5c0-1.9,0.8-3.1,2.5-3.1c1.5,0,2.2,1,2.2,2.4v0.3h-3.6v0.4c0,1,0.4,2.8,2.2,2.8c0.7,0,1-0.1,1.3-0.2V15.5"/>
	<path class="st0" d="M57.1,9.2H58v1.2h0c0.2-0.4,0.7-1.4,2.1-1.4v1c-1.4,0-2.1,1.2-2.1,2.9v2.6h-0.9V9.2"/>
	<path class="st0" d="M63.4,12c0.7,0.3,1.5,0.7,1.5,1.8c0,1.3-0.9,1.9-2.4,1.9c-0.8,0-1.5-0.2-1.7-0.3v-0.8c0.2,0.1,0.9,0.3,1.6,0.3
		c0.9,0,1.5-0.3,1.5-1c0-0.7-0.8-0.9-1.1-1.1l-0.6-0.3c-0.6-0.3-1.4-0.7-1.4-1.7c0-1,0.8-1.7,2.2-1.7c0.7,0,1.2,0.1,1.5,0.2v0.8
		C64.3,10,63.7,9.8,63,9.8c-0.8,0-1.3,0.4-1.3,0.8c0,0.5,0.6,0.7,1.1,1L63.4,12"/>
	<path class="st0" d="M66.3,9.2h0.9v6.3h-0.9V9.2z M66.1,6.4h1.2v1.2h-1.2V6.4"/>
	<path class="st0" d="M70.9,14.9c1,0,1.5-1.4,1.5-2.5c0-1.4-0.5-2.6-1.5-2.6c-1.1,0-1.3,1.4-1.3,2.8C69.6,13.4,69.7,14.9,70.9,14.9z
		 M72.4,14.5L72.4,14.5c-0.2,0.5-0.7,1.2-1.7,1.2c-1.5,0-2.2-1.3-2.2-3.3c0-1.7,0.6-3.4,2.2-3.4c1.1,0,1.5,0.7,1.7,1.2h0V6.4h0.9
		v9.2h-0.9V14.5"/>
	<path class="st0" d="M77.6,12.7c-0.7,0-2.1,0.3-2.1,1.3c0,0.6,0.4,0.9,0.9,0.9c0.6,0,1.2-0.4,1.5-1c0.2-0.4,0.2-0.5,0.2-1.3H77.6z
		 M78.2,14.7L78.2,14.7c-0.2,0.3-0.8,1-2,1c-1,0-1.7-0.6-1.7-1.8c0-1.5,1.9-2,3-2c0.2,0,0.4,0,0.6,0c0-0.3,0-1,0-1.2
		c-0.1-0.7-0.7-0.9-1.2-0.9c-1,0-1.2,0.5-1.3,1h-1c0-0.8,0.5-1.8,2.3-1.8c2,0,2.1,1.2,2.1,2v4.4h-0.9V14.7"/>
	<g>
		<defs>
			<rect id="SVGID_3_" x="80" y="6" width="5" height="10"/>
		</defs>
		<use xlink:href="#SVGID_3_"  style="overflow:visible;fill:#FFFFFF;"/>
		<clipPath id="SVGID_4_">
			<use xlink:href="#SVGID_3_"  style="overflow:visible;"/>
		</clipPath>
		<g class="st2">
			<path class="st0" d="M82.6,14.9c1,0,1.5-1.4,1.5-2.5c0-1.4-0.5-2.6-1.5-2.6c-1.1,0-1.3,1.4-1.3,2.8
				C81.3,13.4,81.4,14.9,82.6,14.9z M84.1,14.5L84.1,14.5c-0.2,0.5-0.7,1.2-1.7,1.2c-1.5,0-2.2-1.3-2.2-3.3c0-1.7,0.6-3.4,2.2-3.4
				c1.1,0,1.5,0.7,1.7,1.2h0V6.4H85v9.2h-0.9V14.5"/>
		</g>
	</g>
	<path class="st0" d="M31.9,25.7c1,0,1.5-1.4,1.5-2.5c0-1.4-0.5-2.6-1.5-2.6c-1.1,0-1.3,1.4-1.3,2.8C30.6,24.2,30.7,25.7,31.9,25.7z
		 M33.4,25.2L33.4,25.2c-0.2,0.5-0.7,1.2-1.7,1.2c-1.5,0-2.2-1.3-2.2-3.3c0-1.7,0.6-3.4,2.2-3.4c1.1,0,1.5,0.7,1.7,1.2h0v-3.9h0.9
		v9.2h-0.9V25.2"/>
	<path class="st0" d="M38.9,21.8c0-0.4-0.3-1.2-1.2-1.2c-0.9,0-1.3,0.8-1.3,1.2H38.9z M39.8,26.3c-0.4,0.1-0.9,0.2-1.4,0.2
		c-2,0-3.1-1.2-3.1-3.5c0-1.9,0.8-3.1,2.5-3.1c1.5,0,2.2,1,2.2,2.4v0.3h-3.6v0.4c0,1,0.4,2.8,2.3,2.8c0.7,0,1-0.1,1.3-0.2V26.3"/>
	<path class="st0" d="M44.3,17.1h1.3l3.8,7.8h0v-7.8h1v9.2h-1.3l-3.8-7.7h0v7.7h-1V17.1"/>
	<path class="st0" d="M54.9,23.4c-0.7,0-2.1,0.3-2.1,1.3c0,0.6,0.4,0.9,0.9,0.9c0.6,0,1.2-0.4,1.5-1c0.2-0.4,0.2-0.5,0.2-1.3H54.9z
		 M55.4,25.5L55.4,25.5c-0.2,0.3-0.8,1-2,1c-1,0-1.7-0.6-1.7-1.8c0-1.5,1.9-2,3-2c0.2,0,0.4,0,0.6,0c0-0.3,0-1,0-1.2
		c-0.1-0.7-0.7-0.9-1.2-0.9c-1,0-1.2,0.5-1.3,1h-1c0-0.8,0.5-1.8,2.3-1.8c2,0,2.1,1.2,2.1,2v4.4h-0.9V25.5"/>
	<path class="st0" d="M57.1,20h1l1.9,5h0l1.6-5h1l-2.1,6.3h-0.9L57.1,20"/>
	<path class="st0" d="M66.2,23.4c-0.7,0-2.1,0.3-2.1,1.3c0,0.6,0.4,0.9,0.9,0.9c0.6,0,1.2-0.4,1.5-1c0.2-0.4,0.2-0.5,0.2-1.3H66.2z
		 M66.7,25.5L66.7,25.5c-0.2,0.3-0.8,1-2,1c-1,0-1.7-0.6-1.7-1.8c0-1.5,1.9-2,3-2c0.2,0,0.4,0,0.6,0c0-0.3,0-1,0-1.2
		c-0.1-0.7-0.7-0.9-1.2-0.9c-1,0-1.2,0.5-1.3,1h-1c0-0.8,0.5-1.8,2.3-1.8c2,0,2.1,1.2,2.1,2v4.4h-0.9V25.5"/>
	<path class="st0" d="M69.1,20H70v1.2h0c0.2-0.4,0.7-1.4,2.1-1.4v1c-1.4,0-2.1,1.2-2.1,2.9v2.6h-0.9V20"/>
	<path class="st0" d="M73.1,20H74v1.2h0c0.2-0.4,0.7-1.4,2.1-1.4v1c-1.4,0-2.1,1.2-2.1,2.9v2.6h-0.9V20"/>
	<path class="st0" d="M79.8,23.4c-0.7,0-2.1,0.3-2.1,1.3c0,0.6,0.4,0.9,0.9,0.9c0.6,0,1.2-0.4,1.5-1c0.2-0.4,0.2-0.5,0.2-1.3H79.8z
		 M80.4,25.5L80.4,25.5c-0.2,0.3-0.8,1-2,1c-1,0-1.7-0.6-1.7-1.8c0-1.5,1.9-2,3-2c0.2,0,0.4,0,0.6,0c0-0.3,0-1,0-1.2
		c-0.1-0.7-0.7-0.9-1.2-0.9c-1,0-1.2,0.5-1.3,1h-1c0-0.8,0.5-1.8,2.3-1.8c2,0,2.1,1.2,2.1,2v4.4h-0.9V25.5"/>
	<path class="st0" d="M21.3,10.8c-0.4,0-0.8,0.4-0.8,0.8v0l-1.6,0.3c-0.1-0.3-0.4-0.5-0.8-0.5c-0.4,0-0.8,0.3-0.8,0.8
		s0.4,0.8,0.8,0.8h0.1l0.6,2.8c-0.3,0.1-0.5,0.4-0.5,0.8c0,0.4,0.3,0.8,0.8,0.8c0,0,0,0,0.1,0l0.6,2.9c-0.3,0.1-0.5,0.4-0.5,0.7
		c0,0.4,0.4,0.8,0.8,0.8h0.1c-0.1,0.2-0.5,1.4-0.6,1.7c0-0.2-2.7-12.3-2.7-12.5c0.3,0,1.2-0.2,2-0.3c0,0,1.8-0.4,2.3-0.6
		C21.2,10.2,21.2,10.5,21.3,10.8z"/>
	<path class="st0" d="M20.7,15.6c-0.1,0.1-0.2,0.3-0.2,0.5c0,0,0,0,0,0l-0.7,0.1c-0.1-0.3-0.4-0.6-0.8-0.6c0,0,0,0-0.1,0l-0.6-2.8
		c0,0,0.1,0,0.1-0.1L20.7,15.6z"/>
	<path class="st0" d="M18.7,12.1c0,0.3-0.3,0.6-0.6,0.6c-0.3,0-0.6-0.3-0.6-0.6s0.3-0.6,0.6-0.6C18.4,11.5,18.7,11.8,18.7,12.1z"/>
	<path class="st0" d="M21.6,13.8c0,0.5,0,1-0.1,1.6c-0.1,0-0.1,0-0.2,0c-0.1,0-0.3,0-0.4,0.1l-2.2-2.8c0.1-0.1,0.2-0.3,0.2-0.5v0
		l1.6-0.3c0.1,0.3,0.4,0.5,0.8,0.5c0.1,0,0.2,0,0.2,0C21.5,12.8,21.6,13.3,21.6,13.8z"/>
	<g>
		<path class="st0" d="M13.2,2.4c-3.9,0-10.3,6.3-10.3,14c0,7.7,6.4,14,10.3,14c3.9,0,10.3-6.3,10.3-14C23.5,8.7,17.1,2.4,13.2,2.4z
			 M21.5,12.1c-0.1,0-0.1,0-0.2,0c-0.3,0-0.6-0.3-0.6-0.6s0.3-0.6,0.6-0.6c0,0,0,0,0.1,0C21.4,11.4,21.4,11.7,21.5,12.1z M21.1,9.9
			c0.1,0.3,0.1,0.6,0.2,0.9c-0.4,0-0.8,0.4-0.8,0.8v0l-1.6,0.3c-0.1-0.3-0.4-0.5-0.8-0.5c-0.4,0-0.8,0.3-0.8,0.8s0.4,0.8,0.8,0.8
			h0.1l0.6,2.8c-0.3,0.1-0.5,0.4-0.5,0.8c0,0.4,0.3,0.8,0.8,0.8c0,0,0,0,0.1,0l0.6,2.9c-0.3,0.1-0.5,0.4-0.5,0.7
			c0,0.4,0.4,0.8,0.8,0.8h0.1c-0.1,0.2-0.5,1.4-0.6,1.7c0-0.2-2.7-12.3-2.7-12.5c0.3,0,1.2-0.2,2-0.3C18.8,10.5,20.6,10.1,21.1,9.9z
			 M19,15.6C19,15.6,19,15.6,19,15.6l-0.7-2.8c0,0,0.1,0,0.1-0.1l2.2,2.8c-0.1,0.1-0.2,0.3-0.2,0.5c0,0,0,0,0,0l-0.7,0.1
			C19.7,15.9,19.4,15.6,19,15.6z M19.6,16.4c0,0.3-0.3,0.6-0.6,0.6s-0.6-0.3-0.6-0.6s0.3-0.6,0.6-0.6S19.6,16.1,19.6,16.4z
			 M18.1,12.7c-0.3,0-0.6-0.3-0.6-0.6s0.3-0.6,0.6-0.6c0.3,0,0.6,0.3,0.6,0.6S18.4,12.7,18.1,12.7z M10.1,22.4
			c0.1,0,0.3-0.2,0.3-0.3l0.3,1.8l0.3-0.3l-0.2,1.6l-0.7-1.4l0.3,0.2C10.4,23.9,10.1,22.4,10.1,22.4z M8.2,10.7L8.2,10.7
			C8.2,10.8,8.3,10.8,8.2,10.7l0.2,0.2c0,0.1,0.1,0.4,0.1,0.8c0.2,1.3,0.4,2.4,0.5,2.8c0,0.1,0.1,0.2,0.2,0.3l0.6,3.9h0
			c0,0-0.2,0.3-0.3,0.4L8.2,10.7C8.2,10.7,8.2,10.7,8.2,10.7z M7.9,10.4c0,0-0.1-0.2-0.2-0.5c0-0.2,0-0.4,0-0.4c0-0.1,0-0.1,0-0.1
			c0,0,0.1,0,0.1,0c0,0,0,0,0,0c0.1,0,0.4,0.2,0.5,0.2c0.1,0.1,0.2,0.5,0.2,0.8c0,0.1,0,0.1,0,0.2C8.4,10.6,8,10.5,7.9,10.4z
			 M9.8,15.2c0.2,0,0.4-0.1,0.6-0.4c0.2-0.2,0.3-0.5,0.3-0.8c0-0.2,0-0.3-0.1-0.4c0-0.2,0.1-0.9,0.1-0.9c0.1-0.6,0.2-1.5,0.3-2.5
			c0.2-1.6,0.8-1.8,1.4-2c0,0,0.1,0,0.1-0.1c0,0.2,0.1,0.3,0.3,0.4c0.2,0.2,0.6,0.3,1,0.2c0.4,0,0.7-0.3,0.8-0.5
			c0,1-0.1,3.2-0.5,4.7c0,0.1,0,0.1-0.1,0.2c0,0,0,0-0.1,0c-0.1-0.1-0.3-0.1-0.6-0.2c-0.2,0-0.4,0-0.5,0.1c0-0.4-0.2-2.2-0.6-2.8
			c0-0.1-0.1-0.1-0.1,0c-0.1,0-0.1,0.1,0,0.1c0.3,0.7,0.6,2.9,0.6,2.9c-0.1,0.1-0.2,0.2-0.2,0.3c-0.1,0.1-0.2,0.2-0.2,0.3
			c0,0,0,0-0.1,0.1c-0.1,0.1-0.4,0.5-0.7,0.8c0,0,0,0,0,0c-0.3,0.3-0.6,0.6-1,0.7C10.2,15.5,9.9,15.4,9.8,15.2z M16.2,15.2
			c-0.3,0-0.6,0-0.8,0c-0.1-0.4-0.4-1.9-0.9-2.1c-0.1,0-0.1,0-0.2,0c0.1-0.2,0.2-0.4,0.4-0.4C15.1,12.7,16,13.8,16.2,15.2z M16,13.9
			c0.2-0.1,0.7-0.4,1-1l0.1,0.4c-0.1,0.5-0.7,0.9-0.9,1.1C16.2,14.2,16.1,14.1,16,13.9z M12.2,14.4C12.2,14.3,12.2,14.3,12.2,14.4
			c0-0.2,0.1-0.3,0.1-0.3c0,0,0,0,0,0c0.1,0,0.2,0,0.2,0c0,0.2-0.1,0.4-0.2,0.6C12.3,14.6,12.2,14.5,12.2,14.4z M12.3,14.9
			c0,0.3-0.2,0.8-0.5,1.3c-0.1-0.4-0.2-0.8-0.4-1.2c0.2-0.2,0.4-0.4,0.5-0.5C12,14.6,12.1,14.7,12.3,14.9z M12.5,13.8
			c0,0,0.1-0.1,0.1-0.1c0.3-0.3,0.4-0.5,0.8-0.5c0.2,0,0.4,0.1,0.5,0.1c0.2,0.1,0.4,0.1,0.6,0.1c0.2,0.1,0.3,0.4,0.4,0.8
			c-0.2,0.1-0.7,0.3-1,0.2c-0.2-0.1-0.3-0.1-0.5-0.2C13.1,14,12.9,13.8,12.5,13.8z M10.9,19.3c0-0.2,0-0.3,0-0.4c0,0,0,0,0,0
			c0.1-0.5,0.4-1.4,0.8-2.2c0.3-0.7,0.7-1.4,0.7-1.8c0.1-0.2,0.2-0.5,0.2-0.8c0.2,0.1,0.3,0.1,0.5,0.2c0.1,0.1,0.2,0.1,0.3,0.2
			c-0.4,1.3-0.5,2.7-0.7,3.8c-0.1,0.5-0.1,1-0.2,1.2c-0.1,0.6-0.4,1-0.7,1.1c-0.1,0-0.2,0-0.3,0c-0.2-0.1-0.4-0.2-0.5-0.3
			C11,20,10.9,19.6,10.9,19.3z M11.6,26.1c0,0,0.1-0.1,0.1-0.1c-0.1-0.5-0.2-2.3,0-3c0,0,0,0,0-0.1c-0.2-0.5-0.2-1.6-0.2-2.3
			c0.4,0.3,1,0.4,1.7,0.4c-0.1,0.7-0.3,1.3-0.4,1.5c0,0,0,0,0,0c-0.1,0.8-0.1,1.3-0.2,1.8c-0.1,0.5-0.2,1-0.2,1.6l0,0.1
			c0,0.3,0,0.3-0.1,0.5c-0.1,0.2-1.3,0.8-1.7,0.9c-0.1,0-0.1-0.1-0.2-0.2c-0.1-0.2,0-0.5,0.1-0.6c0.2-0.1,0.5-0.3,0.7-0.4
			C11.3,26.2,11.5,26.2,11.6,26.1z M12.5,26.2c0.3-0.3,0.7-0.4,1-0.4c0.1,0,0.3,0.1,0.3,0.1c-0.5,0-1,0.4-1.1,0.6
			c-0.1,0-0.2-0.1-0.2-0.1C12.5,26.3,12.5,26.3,12.5,26.2z M14.1,26.2c0,0,0.1,0.1,0.1,0.1c0,0.1,0,0.2,0,0.3c0,0.1,0,0.3,0.1,0.3
			c0,0.1,0.1,0.2,0.1,0.3c0,0.5-0.3,0.9-0.5,1.2c0-0.5,0-0.9-0.3-1.2c-0.2-0.3-0.4-0.5-0.6-0.6C13.1,26.4,13.6,26,14.1,26.2z
			 M14.1,20.8l-0.6,0.1c-0.5,0-0.9,0-1.2,0c0.3-0.2,0.6-0.6,0.7-1.2c0.1-0.3,0.1-0.7,0.2-1.2c0.1-1.1,0.3-2.5,0.7-3.8
			c0.4,0.1,0.9,0,1.2-0.2c0.1,0.3,0.2,0.7,0.2,1c0,0.1,0.1,0.1,0.1,0.1c0,0,0.3,0,0.7,0c0.1,0.4,0.3,1.9,0.6,2.8
			c0.1,0.6,0.2,1,0.2,1.3c0,0.3-0.1,0.5-0.2,0.6C16.3,20.6,15.5,20.6,14.1,20.8z M16.8,18c-0.2-0.8-0.4-2.2-0.5-2.6c0,0,0.1,0,0.1,0
			c0,0,0.1,0,0.1,0c0,0,0-0.1,0-0.1c0-0.2-0.1-0.4-0.1-0.6c0,0,0.1-0.1,0.3-0.2l0.8,3.4C17.2,17.9,16.9,17.9,16.8,18z M16.8,14.3
			c0.2-0.2,0.3-0.3,0.4-0.5l1.2,5.7c-0.2,0.3-0.3,0.4-0.4,0.6c-0.1-0.5-0.3-1.7-0.4-2.1L16.8,14.3z M15.8,5c0.2-0.3,0.4-0.5,0.6-0.5
			c0.2,0,0.4,0.1,0.5,0.3c0.5,0.6,1.5,3.8,1.9,5c-0.3,0.1-0.6,0.1-0.9,0.1c-0.3-0.3-0.6-0.7-0.8-1.1c-0.5-0.8-1-1.6-1.9-1.6
			C15.4,6.4,15.7,5.2,15.8,5z M16.8,9.3c0.3,0.4,0.5,0.8,0.8,1.2c-0.5,0.1-0.9,0.1-0.9,0.1l-0.1,0l0.4,1.9c-0.2,0.6-0.8,1-1,1.2
			c-0.4-0.7-0.9-1.2-1.3-1.2c-0.1,0-0.1,0-0.2,0.1c0.4-1.9,0.4-4.3,0.4-4.9C15.7,7.6,16.2,8.4,16.8,9.3z M13.8,8.5
			c-0.4,0-0.6,0-0.8-0.2c-0.1-0.1-0.2-0.2-0.2-0.4c0,0,0-0.6,0-0.6c0.2-0.2,0.3-0.5,0.3-1c0-0.1,0-0.1-0.1-0.1c-0.1,0-0.1,0-0.1,0.1
			c0,0.8-0.5,1-0.5,1c-0.1,0-0.2-0.1-0.3-0.2c0,0,0.1-0.1,0.1-0.1c0,0,0-0.1,0-0.2c0,0-0.1,0-0.2,0c0,0-0.1,0.1-0.1,0.1
			C11.8,7,11.8,7,11.7,6.9c0,0-0.1-0.1-0.1-0.1c0,0-0.1,0-0.1,0c0-0.1-0.2-0.7-0.2-0.7c0,0,0-0.1-0.1-0.1c0,0-0.1,0-0.1,0L11,6.2
			c-0.1-0.1-0.1-0.3-0.1-0.4c0.1,0,0.2,0,0.3,0c0.1,0,0.2-0.1,0.2-0.1c0.1-0.1,0.2-0.2,0.7,0c0.2,0.1,0.3,0.2,0.4,0.2
			c0,0,0,0.1,0,0.1c0,0.1,0.1,0.1,0.1,0.1S12.7,6,12.7,6c0-0.1,0-0.3,0.1-0.3c0.1,0,0.1,0,0.1,0c0,0,0.1,0.1,0.1,0.1
			C13,5.9,12.9,6,12.8,6c0,0-0.1,0.1,0,0.1c0,0.1,0.1,0.1,0.1,0c0,0,0.1,0,0.1-0.1c0.2,0.2,0.7,0.7,1,0.9c0.1,0.2,0.4,0.5,0.6,0.6
			C14.5,8.1,14.3,8.4,13.8,8.5z M12.3,4.9c0.3,0.1,0.7,0.4,1,0.6c0.2,0.2,0.4,0.3,0.5,0.3c0.1,0.2,0.2,0.8,0.2,0.8
			c-0.3-0.2-0.7-0.6-0.8-0.8c0-0.1,0-0.1,0-0.2c0-0.1-0.1-0.2-0.2-0.3s-0.2-0.1-0.4,0c-0.1,0-0.1,0.1-0.1,0.2
			c-0.1,0-0.2-0.1-0.3-0.2c0,0,0,0,0,0c-0.1,0-0.1,0-0.1,0c0,0,0,0,0,0c0,0-0.3-0.1-0.6-0.6c0.2-0.1,0.3-0.3,0.5-0.4
			C12,4.6,12.1,4.9,12.3,4.9z M12.1,4.4c0.3-0.1,0.7-0.2,1.1,0.1c0.2,0.2,0.4,0.6,0.5,1c-0.1,0-0.2-0.1-0.2-0.2
			c-0.2-0.2-0.8-0.6-1.1-0.7C12.3,4.7,12.2,4.5,12.1,4.4z M11.6,5.4c-0.1,0-0.2,0.1-0.3,0.1c-0.1,0-0.1,0.1-0.1,0.1
			c-0.1,0-0.2,0-0.3,0c0-0.1,0.1-0.3,0.2-0.4c0.1-0.1,0.1-0.2,0.2-0.2C11.4,5.2,11.5,5.3,11.6,5.4z M12.4,3.7c1.1,0,2,0.9,2,2
			c0,0.3-0.1,0.7-0.2,1c0-0.1,0-0.2-0.1-0.3c-0.1-0.7-0.4-1.7-0.8-2c-0.4-0.3-1-0.4-1.5-0.1c-0.3,0.2-0.7,0.5-0.9,0.8
			c-0.1,0.2-0.2,0.4-0.2,0.6c0,0.2,0.1,0.4,0.2,0.7c0,0,0,0,0,0c0.1,0.1,0.2,0.1,0.3,0.1c0,0.1,0.1,0.4,0.1,0.4
			c0,0.1,0.1,0.1,0.1,0.1c0,0,0.1,0,0.2,0c0.1,0.2,0.4,0.6,0.8,0.6c0,0,0.1,0,0.1-0.1c0,0.1,0,0.1,0,0.2c0,0-0.1,0-0.1,0
			c-1.1,0-2-0.9-2-2S11.3,3.7,12.4,3.7z M9.3,5.9c0-0.4,0.1-0.6,0.2-0.7c0.2-0.1,0.5,0.1,0.6,0.2c0,0.1,0,0.3,0,0.4
			c0,1.2,0.9,2.1,2.1,2.2c-0.6,0.2-1.2,0.6-1.4,2.2c-0.1,0.8-0.2,1.6-0.3,2.2c-0.6-1.8-1.2-4-1.2-6.3C9.3,5.9,9.3,5.9,9.3,5.9z
			 M10.4,13.5C10.4,13.5,10.4,13.5,10.4,13.5c0,0,0.1,0.2,0.1,0.5c0,0.2-0.1,0.4-0.2,0.6C10.1,14.9,9.9,15,9.7,15
			c-0.2,0-0.4-0.4-0.4-0.6c-0.2-0.3-0.4-1.8-0.5-2.7c-0.1-0.4-0.1-0.7-0.1-0.8c0.1-0.1,0.4-0.2,0.5-0.3
			C9.4,11.1,10.3,13.3,10.4,13.5z M8.8,9.6c0,0.4,0.2,0.7,0.3,0.9c-0.1,0.1-0.3,0.2-0.4,0.2c0,0,0-0.1,0-0.2c0-0.3-0.1-1-0.3-1.1
			C8.3,9.3,8.1,9.2,7.9,9.2c0,0,0,0,0-0.1c0,0,0,0,0,0c0,0,0,0,0-0.1C8.1,9.1,8.7,9.1,8.8,9.6z M7.9,6.4l0.4,2.5
			C8.1,8.9,8,8.8,7.9,8.8c0,0,0,0,0,0L7.5,6.4L7.9,6.4z M4.8,16.7C4.8,16.7,4.8,16.7,4.8,16.7c0-0.7,0.3-0.9,0.5-1c0,0,0,0,0,0
			c0.1-0.3,0.2-0.4,0.3-0.5C5.9,15,6.2,15,6.3,15l0.1-0.2l0.1-0.2L7,15.5l-0.9,0.1l0.1-0.3c-0.1,0-0.3,0-0.4,0.1
			c-0.1,0.1-0.2,0.2-0.2,0.3c0.3,0,0.5,0,0.7,0.2c0.1,0.1,0.2,0.3,0.1,0.4c-0.1,0.3-0.4,0.5-0.6,0.4c-0.2,0-0.5-0.2-0.5-0.6
			c0,0,0,0,0,0C5.2,16.1,5,16.3,5,16.7c0,0,0,0,0,0.1c0,0.3,0.1,0.6,0.3,0.8c0.3,0.3,0.7,0.4,1,0.4C6.4,18,6.4,18,6.5,18
			c-0.1,0-0.3,0-0.5,0c-0.3-0.1-0.5-0.2-0.8-0.4C5,17.4,4.8,17.1,4.8,16.7z M5.4,19.2c0.2,0,0.3,0,0.3,0c0.6,0.9,0.8,1.1,0.8,1.1
			c0,0.1,0.1,0.4,0.2,0.8c-0.1,0.3-0.1,0.7-0.1,0.9c-0.1-0.2-0.1-0.4-0.2-0.4c0,0,0-0.1,0-0.1c0-0.2,0-0.6-0.3-0.6l-0.2-0.6
			c0,0,0-0.1-0.1-0.1c0,0-0.1,0-0.3,0c-0.1,0-0.2,0-0.3-0.1c0.1,0,0.2-0.1,0.2-0.1c0,0,0.1-0.1,0.1-0.1c0,0,0,0,0,0c0,0,0-0.1,0-0.1
			c0,0-0.1-0.1-0.2-0.1c0.1,0,0.2-0.1,0.3-0.1c0,0,0-0.1,0-0.1c0,0,0,0,0,0C5.6,19.5,5.6,19.4,5.4,19.2z M7.1,24.8
			c0.3-0.1,0.6-0.4,0.7-0.5c0,0,0-0.1,0-0.2s-0.1,0-0.2,0c-0.3,0.3-0.7,0.6-0.8,0.6c-0.1,0-0.3-0.3-0.4-0.5
			c-0.1-0.2-0.2-0.3-0.4-0.5c0.1-0.2,0.1-0.4,0.1-0.7c0-0.5-0.1-1.1-0.1-1.1c0,0-0.1-0.1-0.1-0.1c0,0-0.2,0-0.4,0
			c0,0,0.1-0.1,0.1-0.1c0,0,0-0.1,0-0.1c0,0,0,0,0,0c0,0,0-0.1,0-0.1c0,0-0.1-0.1-0.3-0.2c0.1-0.1,0.2-0.1,0.2-0.1
			c0,0,0.1,0,0.1-0.1c0,0,0,0,0,0c0,0,0-0.1,0-0.1c0,0-0.1-0.1-0.2-0.1c0.1,0,0.2-0.1,0.3-0.1C5.8,21,6,21.1,6.2,21.1
			c0,0,0.1,0.2,0.1,0.4c0,0,0,0.1,0,0.1c0,0,0,0,0,0l0.6,1.5c0,0,0,0.1,0.1,0.1c0,0,0.1,0,0.1,0l0.4-0.4c0,0,0-0.1,0-0.2
			c0,0-0.1,0-0.2,0c0,0-0.2,0.2-0.3,0.3c0-0.1-0.1-0.3-0.2-0.5c0,0,0.1-1,0.2-1.6c0.2-0.5,0.5-1.7,0.5-1.8c0,0,0-0.1,0-0.1
			c0,0-0.1,0-0.1,0c0,0-0.5,0.2-0.8-0.1c-0.3-0.3-0.8-0.5-1-0.5c0-0.1,0-0.1,0-0.1c0.2,0,1.2-0.1,1.2-0.1c0,0,0.1,0,0.1-0.1
			c0,0,0,0,0,0c0,0,0-0.1,0-0.1c0,0-0.8-0.6-0.9-0.7c0-0.1,0.1-0.3,0.1-0.3c0,0,0.1,0,0.2,0.1c0.3,0.3,0.8,0.5,1.1,0.5l0.1,0
			c0.3,0,0.3,0,0.3,0.1c0.1,0.1,0.2,0.2,0.5,0.3c-0.1,0.1-0.2,0.2-0.2,0.2c0,0,0,0.1,0,0.1s0.1,0,0.2,0c0,0,0.3-0.4,0.7-0.3
			c0,0.2-0.1,0.6-0.5,0.6c-0.1,0-0.1,0-0.1,0.1c0,0.1,0,0.1,0.1,0.1c0.1,0,0.2,0,0.2,0c0,0.1,0,0.2,0,0.3c0,0.2,0,0.4,0.1,0.7
			c0,0,0,0,0,0c-0.9,0.7-1.2,1.7-1.2,1.8c0,0.1,0,0.1,0.1,0.1c0.1,0,0.1,0,0.1-0.1c0,0,0.2-1,1.1-1.6c0.5-0.4,0.9-0.8,1.1-1.1
			c0,0.2-0.1,0.5-0.2,0.7c0,0,0,0,0,0c0,0,0,0.1,0,0.1c0,0,0.1,0,0.1,0c0.1-0.1,0.2-0.2,0.3-0.3c-0.1,0.4-0.3,0.8-0.3,0.8
			c0,0,0,0,0,0.1c0,0,0,0.1,0,0.1c0,0,0.1,0,0.1,0c0,0,0.2-0.1,0.3-0.3c-0.1,0.6-0.3,1-0.4,1c0,0,0,0,0,0.1c0,0,0,0,0,0
			c0,0,0,0.1,0.1,0.1c0.2,0,0.3-0.1,0.4-0.2c0,0.3-0.1,0.8-0.5,1.2c-0.1,0.1-0.2,0.2-0.3,0.2C9.3,22.7,9,23,9,24.4
			c0,0-0.1,1.1-1.5,1.2C7.4,25.6,7.2,25.1,7.1,24.8z M7.5,25.8c1.6-0.2,1.6-1.4,1.6-1.4c0-0.6,0.1-0.9,0.2-1.2
			c0.1,0.6,0.3,1.1,0.5,1.4c0.1,0.6,0.1,1-0.2,1.4c-0.4,0.6-1.1,0.8-1.3,0.8C8,26.5,7.8,26.1,7.5,25.8z M9.6,28.2
			c-0.4-0.3-0.8-0.7-1.1-1.1c0.3-0.1,1-0.3,1.3-0.9c0.2-0.3,0.3-0.7,0.3-1.1c0.4,0.5,0.8,0.9,1,1c0,0-0.5,0.4-0.7,0.5
			c-0.2,0.1-0.3,0.3-0.3,0.6c0,0.1,0,0.2,0,0.3c0,0.1,0.1,0.2,0.2,0.2C9.9,28,9.6,28.2,9.6,28.2L9.6,28.2z M10.6,28.8
			c-0.3-0.1-0.6-0.3-0.9-0.5c0.2-0.1,0.5-0.3,0.8-0.6c0.2-0.1,1-0.4,1.4-0.7c0.1,0.3,0.1,0.6,0,0.8c-0.2,0.6-0.8,1-0.9,1.1
			C10.9,28.9,10.8,28.8,10.6,28.8z M13.2,28.9L13.2,28.9c-0.6,0.3-1.1,0.3-1.8,0.2c0.3-0.2,0.7-0.6,0.9-1.1c0.1-0.3,0.1-0.7,0-1
			c0.1-0.1,0.2-0.2,0.2-0.2c0,0,0-0.1,0-0.1c0.1,0,0.6,0.2,0.9,0.7c0.2,0.3,0.3,0.8,0.2,1.3C13.4,28.7,13.3,28.8,13.2,28.9
			C13.2,28.9,13.2,28.9,13.2,28.9z M14.7,29.1c-0.5,0.2-1,0-1.3-0.1c0.3-0.2,0.9-0.7,1.1-1.6c0.1,0.1,0.2,0.2,0.2,0.2c0,0,0,0,0,0
			c0,0,0.5,0.5,0.9,0.6c0.1,0,0.2,0,0.3,0.1C15.5,28.7,15.1,29,14.7,29.1z M16.2,28c-0.1,0.1-0.3,0.1-0.6,0
			c-0.3-0.1-0.8-0.5-0.8-0.6c0,0-0.3-0.4-0.5-0.7c0-0.1,0-0.2,0-0.3c0-0.3,0.1-0.7,0.1-0.9l0-0.2c0.1-0.5,0.1-0.8,0.1-1
			c0-0.1,0-0.6,0-0.7c0-0.3,0-0.7,0.1-1.3c0,0,0,0,0,0c-0.1-0.3-0.2-1-0.2-1.4c0.8-0.1,1.4-0.1,1.8-0.3C16.1,21.2,16,21.8,16,22
			c0,0,0,0,0,0.1c0,0.5-0.2,1.5-0.4,2.4c-0.2,0.8-0.4,1.6-0.4,1.9c0,0,0,0,0,0.1c0,0.3,0.3,0.6,0.6,0.9c0.1,0.1,0.2,0.2,0.3,0.3
			C16.2,27.7,16.2,27.8,16.2,28C16.2,28,16.2,28,16.2,28z M16.8,27c-0.1,0.3-0.3,0.5-0.4,0.7c0-0.1-0.1-0.1-0.1-0.2
			c-0.1-0.1-0.2-0.2-0.3-0.3c-0.1-0.1-0.1-0.2-0.2-0.2c0.7-0.3,1-1.4,1.3-2.3c0.1-0.4,0.2-0.7,0.3-1c0.3-0.6,1.1-1,1.7-1.1l0.1,0.4
			c-0.2,0-0.4,0.1-0.6,0.1c-0.8,0.3-1.1,1.7-1.1,1.8C17.4,24.7,17.2,26,16.8,27z M20.4,23.4c0,0.5-0.6,1-0.9,1.1l-0.1,0
			c-0.4,0.2-0.6,0.2-0.9,0.9c0,0,0,0,0,0c0,0,0,0,0,0.1c0,0,0.1,0.1,0.1,0.1c0.2,0,0.3,0,0.3,0.1c0,0,0,0,0,0.1
			c0,0.1-0.2,0.4-0.4,0.6c0,0,0-0.1,0-0.1c0,0-0.1-0.1-0.1-0.1c0,0-0.1,0-0.1,0.1c0,0.2-0.3,0.4-0.5,0.6c0.1-0.3,0.2-0.6,0.2-0.6
			c0,0,0,0,0,0c0,0,0-0.1,0-0.1c0,0-0.1,0-0.1,0c0,0-0.1,0-0.1,0.1c0-0.2,0.1-0.5,0.1-0.7c0,0,0-0.1,0.1-0.1c0.1,0,0.2,0,0.2,0.1
			c0,0,0.1,0,0.1,0c0,0,0.1,0,0.1-0.1c0,0,0.1-0.8,0.6-1c0.4-0.2,1-0.5,1.1-0.8c0.2-0.3,0.1-0.5,0-0.7c0,0-0.1-0.1-0.1-0.1
			c0-0.1,0.1-0.2,0.1-0.3C20.3,22.8,20.4,23,20.4,23.4C20.4,23.3,20.4,23.3,20.4,23.4z M20.2,21.4c0,0-0.1,0-0.1,0
			c-0.3,0-0.6-0.3-0.6-0.6s0.3-0.6,0.6-0.6c0.2,0,0.3,0.1,0.4,0.2C20.4,20.7,20.3,21.1,20.2,21.4z M20.5,20.2
			C20.4,20.1,20.2,20,20,20c0,0-0.1,0-0.1,0l-0.6-2.8c0.3-0.1,0.5-0.4,0.5-0.7l0.7-0.1c0.1,0.3,0.4,0.6,0.8,0.6
			C21.1,17.9,20.9,19,20.5,20.2z M21.3,16.7C21.3,16.7,21.3,16.7,21.3,16.7c-0.4,0-0.6-0.3-0.6-0.6s0.3-0.6,0.6-0.6
			c0.1,0,0.1,0,0.2,0C21.4,15.9,21.4,16.3,21.3,16.7z M21.3,15.3c-0.1,0-0.3,0-0.4,0.1l-2.2-2.8c0.1-0.1,0.2-0.3,0.2-0.5v0l1.6-0.3
			c0.1,0.3,0.4,0.5,0.8,0.5c0.1,0,0.2,0,0.2,0c0,0.4,0.1,0.9,0.1,1.4c0,0.5,0,1-0.1,1.6C21.4,15.3,21.4,15.3,21.3,15.3z"/>
		<path class="st0" d="M7.9,18.2c-0.1-0.2-0.2-0.3-0.3-0.4c-0.2-0.1-0.4,0-0.4,0l-0.1,0L7.9,18.2L7.9,18.2z"/>
		<path class="st0" d="M12,5.9c0,0-0.4,0.1-0.4,0.1c0,0-0.1,0-0.1,0.1c0,0,0,0.1,0,0.1c0,0,0,0.1,0,0.1c0,0.1,0.1,0.1,0.2,0.1
			c0.1,0,0.1,0,0.2-0.1c0,0,0,0,0-0.1c0,0,0,0,0,0c0,0,0.2-0.1,0.2-0.1c0.1,0,0.1-0.1,0.1-0.1c0,0,0,0,0,0C12.1,5.9,12,5.9,12,5.9z"
			/>
		<path class="st0" d="M5.9,16.4c0.2,0,0.3-0.1,0.4-0.3c0-0.1,0-0.1-0.1-0.2c-0.1-0.1-0.4-0.2-0.6-0.1c0,0,0,0,0,0.1c0,0,0,0,0,0.1
			C5.6,16.3,5.7,16.4,5.9,16.4z"/>
	</g>
</g>
</svg>
