<?xml version="1.0" encoding="utf-8"?>
<!-- Generator: Adobe Illustrator 24.0.1, SVG Export Plug-In . SVG Version: 6.00 Build 0)  -->
<svg version="1.1" id="Layer_1" xmlns="http://www.w3.org/2000/svg" xmlns:xlink="http://www.w3.org/1999/xlink" x="0px" y="0px"
	 viewBox="0 0 413.6 144.8" style="enable-background:new 0 0 413.6 144.8;" xml:space="preserve">
<style type="text/css">
	.st0{fill:#FFFFFF;}
</style>
<title>nike-swoosh-logo</title>
<path class="st0" d="M413.6,0L111,128.9c-25.1,10.6-46.2,15.9-63.2,15.9c-19.3,0-33.3-6.8-42-20.3c-5.5-8.7-7.1-19.7-4.8-33.1
	c2.2-13.4,8.2-27.6,17.8-42.7c8.1-12.2,21.3-28.3,39.6-48.3C52.2,10.3,47.6,21,44.9,32.3c-4.8,20.6-0.5,35.7,13,45.4
	c6.4,4.5,15.3,6.8,26.5,6.8c10.3-0.2,20.5-1.6,30.4-4.3L413.6,0z"/>
</svg>
