<?xml version="1.0" encoding="utf-8"?>
<!-- Generator: Adobe Illustrator 24.0.1, SVG Export Plug-In . SVG Version: 6.00 Build 0)  -->
<svg version="1.1" id="Layer_1" xmlns="http://www.w3.org/2000/svg" xmlns:xlink="http://www.w3.org/1999/xlink" x="0px" y="0px"
	 viewBox="0 0 428.6 210.4" style="enable-background:new 0 0 428.6 210.4;" xml:space="preserve">
<style type="text/css">
	.st0{fill:#FFFFFF;}
</style>
<g id="XMLID_33_">
	<g id="XMLID_59_">
		<path id="XMLID_66_" class="st0" d="M214,152.4c-13.1,0-26.3-0.1-39.4,0.1c-3.1,0-4.9-0.8-6.5-3.7c-10.6-18.5-21.5-36.9-32.3-55.4
			c-2.8-4.9-5.6-9.8-8.1-14.9c-0.6-1.1-0.5-3.1,0.1-4.2c9.7-17.2,19.5-34.4,29.3-51.5c3.9-6.7,7.7-13.5,11.9-20
			c0.9-1.4,3.1-2.8,4.7-2.8c27-0.2,54-0.2,81,0c1.6,0,4,1.3,4.8,2.7c13.7,23.6,27.3,47.3,41,71c1.2,2.1,1.2,3.3,0,5.3
			c-9.2,15.7-18.1,31.5-27.1,47.2c-4.4,7.7-9,15.4-13.4,23.2c-1.3,2.3-2.8,2.9-5.2,2.9C241.1,152.4,227.6,152.4,214,152.4z
			 M214.2,140.2C214.2,140.2,214.2,140.2,214.2,140.2c11.1,0,22.2,0.1,33.3-0.1c1.8,0,4.4-1.2,5.2-2.6c11.2-18.9,22.2-37.9,33.2-57
			c1.4-2.4,2.1-4.4,0.3-7.4c-11.4-19.3-22.5-38.7-33.6-58.2c-1.4-2.4-3.2-2.8-5.7-2.8c-20.3,0.1-40.6,0.4-60.9-0.1
			c-6.5-0.2-10.7,1.4-13.2,7.3c-0.5,1.2-1.1,2.3-1.7,3.4c-9.8,17.1-19.7,34.2-29.3,51.4c-0.7,1.3-0.7,3.7,0,5
			c10.8,19.1,21.7,38.2,32.6,57.2c1.6,2.8,3.7,4.2,7.3,4.1C192.6,140,203.4,140.2,214.2,140.2z"/>
		<path id="XMLID_63_" class="st0" d="M193.1,85.8c-5.2,0-10.2,0.1-15.1,0c-15.1-0.5-24.6-14.2-17.8-28.3c2.7-5.6,7.5-9.7,14.2-10.3
			c6.5-0.7,13-1.2,19.5-1.5c6.4-0.3,12.8-0.1,19.4,0.8c-2,0.8-4.2,1.2-5.8,2.4c-1.6,1.2-3.6,3.3-3.6,5c-0.3,18.7-0.2,37.3-0.2,56
			c0,3.7,1.7,5.8,5.7,6.1c1.1,0.1,2.1,0.9,2.9,1.9c-9.2,2.2-27.5,1.2-29.4-1.2c1.1-0.3,1.9-0.6,2.9-0.7c5-0.5,7.1-2.2,7.3-7.2
			C193.3,101.1,193.1,93.5,193.1,85.8z M193.1,65.7c0-3.8-0.1-7.6,0-11.3c0.1-2.6-1-3.5-3.5-3.8c-10.1-1-13.7,1-17.9,10.3
			c-2.6,5.8-1.4,11.3,2.2,16.1c3.9,5.1,11.4,7.1,16.7,4.9c1.2-0.5,2.3-2.5,2.5-3.9C193.3,73.8,193.1,69.8,193.1,65.7z"/>
		<path id="XMLID_60_" class="st0" d="M216.1,44.9c12.1,0.6,24.2,1.2,36.3,2c7.9,0.5,13.4,4.7,16.5,11.8c4.4,10.3,0,22.1-10.4,25.2
			c-5.8,1.7-12.2,1.8-18.3,1.5c-4-0.2-4.8,0.8-4.6,4.4c0.2,5.5,0.1,11.1,0.1,16.6c0,6.6,1.3,8.2,7.6,9.5c0.8,0.2,1.4,1,2.2,1.6
			c-0.8,0.5-1.5,1.3-2.3,1.3c-8.2,0.1-16.3,0.1-24.5,0c-0.8,0-1.5-0.9-2.3-1.3c0.8-0.5,1.6-1.4,2.5-1.5c5.4-0.8,6.3-1.6,6.3-7.3
			c0.1-17.5,0.1-35,0-52.5c0-6.5-1.1-7.5-7.6-8.8c-0.5-0.1-1-0.4-1.5-0.6C216,46.1,216.1,45.5,216.1,44.9z M235.5,65.9
			c0,3.9-0.2,7.9,0.1,11.8c0.1,1.5,1.4,4,2.3,4c3.8,0.2,7.9,0.5,11.4-0.7c7.4-2.5,11.4-11.9,7-22.3c-3.2-7.5-9-9.2-17.9-8
			c-1.1,0.2-2.7,2.1-2.8,3.3C235.3,58,235.5,62,235.5,65.9z"/>
	</g>
	<g id="XMLID_35_">
		<path id="XMLID_56_" class="st0" d="M6.6,200.2v6.7c0,1.4,0.2,2.3,0.5,2.7c0.4,0.5,1.1,0.7,2,0.7h0.9v0.6H0v-0.6h0.9
			c1,0,1.7-0.3,2.1-0.9c0.2-0.3,0.3-1.2,0.3-2.5V192c0-1.4-0.2-2.4-0.5-2.7c-0.4-0.5-1.1-0.7-2-0.7H0v-0.6h8.5
			c2.1,0,3.7,0.2,4.9,0.6c1.2,0.4,2.2,1.1,3,2.1c0.8,1,1.2,2.2,1.2,3.6c0,1.9-0.6,3.4-1.9,4.6c-1.2,1.2-3,1.8-5.3,1.8
			c-0.6,0-1.2,0-1.8-0.1C8,200.5,7.3,200.4,6.6,200.2 M6.6,199.2c0.6,0.1,1.1,0.2,1.6,0.3c0.5,0.1,0.9,0.1,1.2,0.1
			c1.2,0,2.2-0.5,3.1-1.4c0.9-0.9,1.3-2.1,1.3-3.6c0-1-0.2-1.9-0.6-2.8c-0.4-0.9-1-1.5-1.7-1.9c-0.8-0.4-1.6-0.6-2.6-0.6
			c-0.6,0-1.3,0.1-2.2,0.3V199.2z"/>
		<path id="XMLID_55_" class="st0" d="M41.5,198.6h10.7V192c0-1.2-0.1-2-0.2-2.3c-0.1-0.3-0.4-0.5-0.7-0.7c-0.5-0.3-1-0.4-1.5-0.4
			h-0.8v-0.6h9.9v0.6H58c-0.5,0-1.1,0.1-1.5,0.4c-0.4,0.2-0.6,0.5-0.7,0.8c-0.1,0.4-0.2,1.1-0.2,2.3v14.9c0,1.2,0.1,1.9,0.2,2.3
			c0.1,0.3,0.3,0.5,0.7,0.7c0.5,0.3,1,0.4,1.6,0.4h0.8v0.6h-9.9v-0.6h0.8c0.9,0,1.6-0.3,2.1-0.8c0.3-0.4,0.4-1.2,0.4-2.6v-7H41.5v7
			c0,1.2,0.1,1.9,0.2,2.3c0.1,0.3,0.3,0.5,0.7,0.7c0.5,0.3,1,0.4,1.5,0.4h0.8v0.6H35v-0.6h0.8c1,0,1.6-0.3,2.1-0.8
			c0.3-0.4,0.4-1.2,0.4-2.6V192c0-1.2-0.1-2-0.2-2.3c-0.1-0.3-0.3-0.5-0.7-0.7c-0.5-0.3-1-0.4-1.6-0.4H35v-0.6h9.9v0.6H44
			c-0.5,0-1.1,0.1-1.5,0.4c-0.4,0.2-0.6,0.5-0.7,0.8c-0.1,0.4-0.2,1.1-0.2,2.3V198.6z"/>
		<path id="XMLID_54_" class="st0" d="M87.1,210.4v0.6h-9.9v-0.6h0.8c0.9,0,1.6-0.3,2.1-0.8c0.3-0.4,0.4-1.2,0.4-2.6V192
			c0-1.2-0.1-1.9-0.2-2.3c-0.1-0.3-0.3-0.5-0.7-0.7c-0.5-0.3-1-0.4-1.6-0.4h-0.8v-0.6h9.9v0.6h-0.8c-0.9,0-1.6,0.3-2.1,0.8
			c-0.3,0.4-0.4,1.2-0.4,2.6v14.9c0,1.2,0.1,1.9,0.2,2.3c0.1,0.3,0.4,0.5,0.7,0.7c0.5,0.3,1,0.4,1.5,0.4H87.1z"/>
		<path id="XMLID_53_" class="st0" d="M124.8,204.6l0.6,0.1l-2,6.3h-17.9v-0.6h0.9c1,0,1.7-0.3,2.1-0.9c0.2-0.4,0.4-1.2,0.4-2.5V192
			c0-1.4-0.2-2.3-0.5-2.7c-0.4-0.5-1.1-0.7-2-0.7h-0.9v-0.6H116v0.6c-1.2,0-2.1,0.1-2.6,0.3c-0.5,0.2-0.8,0.5-1,0.9
			c-0.2,0.4-0.3,1.2-0.3,2.6v14.5c0,0.9,0.1,1.6,0.3,1.9c0.1,0.2,0.3,0.4,0.6,0.5c0.3,0.1,1.2,0.2,2.6,0.2h1.7c1.8,0,3-0.1,3.7-0.4
			c0.7-0.3,1.4-0.7,2-1.4C123.6,207.1,124.2,206.1,124.8,204.6"/>
		<path id="XMLID_52_" class="st0" d="M152.4,210.4v0.6h-9.9v-0.6h0.8c0.9,0,1.7-0.3,2.1-0.8c0.3-0.4,0.4-1.2,0.4-2.6V192
			c0-1.2-0.1-1.9-0.2-2.3c-0.1-0.3-0.3-0.5-0.7-0.7c-0.5-0.3-1-0.4-1.6-0.4h-0.8v-0.6h9.9v0.6h-0.8c-0.9,0-1.6,0.3-2.1,0.8
			c-0.3,0.4-0.4,1.2-0.4,2.6v14.9c0,1.2,0.1,1.9,0.2,2.3c0.1,0.3,0.4,0.5,0.7,0.7c0.5,0.3,1,0.4,1.5,0.4H152.4z"/>
		<path id="XMLID_49_" class="st0" d="M177.3,200.2v6.7c0,1.4,0.2,2.3,0.5,2.7c0.4,0.5,1.1,0.7,2,0.7h0.9v0.6h-9.9v-0.6h0.9
			c1,0,1.7-0.3,2.1-0.9c0.2-0.3,0.3-1.2,0.3-2.5V192c0-1.4-0.2-2.4-0.5-2.7c-0.4-0.5-1.1-0.7-2-0.7h-0.9v-0.6h8.5
			c2.1,0,3.7,0.2,4.9,0.6c1.2,0.4,2.2,1.1,3,2.1c0.8,1,1.2,2.2,1.2,3.6c0,1.9-0.6,3.4-1.9,4.6c-1.2,1.2-3,1.8-5.3,1.8
			c-0.6,0-1.2,0-1.8-0.1C178.7,200.5,178,200.4,177.3,200.2 M177.3,199.2c0.6,0.1,1.1,0.2,1.6,0.3c0.5,0.1,0.9,0.1,1.2,0.1
			c1.2,0,2.2-0.5,3.1-1.4c0.9-0.9,1.3-2.1,1.3-3.6c0-1-0.2-1.9-0.6-2.8c-0.4-0.9-1-1.5-1.7-1.9c-0.7-0.4-1.6-0.6-2.6-0.6
			c-0.6,0-1.3,0.1-2.2,0.3V199.2z"/>
		<path id="XMLID_46_" class="st0" d="M212.2,200.2v6.7c0,1.4,0.2,2.3,0.5,2.7c0.4,0.5,1.1,0.7,2,0.7h0.9v0.6h-9.9v-0.6h0.9
			c1,0,1.7-0.3,2.1-0.9c0.2-0.3,0.3-1.2,0.3-2.5V192c0-1.4-0.1-2.4-0.5-2.7c-0.4-0.5-1.1-0.7-2-0.7h-0.9v-0.6h8.5
			c2.1,0,3.7,0.2,4.9,0.6c1.2,0.4,2.2,1.1,3,2.1c0.8,1,1.2,2.2,1.2,3.6c0,1.9-0.6,3.4-1.9,4.6c-1.2,1.2-3,1.8-5.3,1.8
			c-0.6,0-1.2,0-1.8-0.1C213.6,200.5,213,200.4,212.2,200.2 M212.2,199.2c0.6,0.1,1.1,0.2,1.6,0.3c0.5,0.1,0.9,0.1,1.2,0.1
			c1.2,0,2.2-0.5,3-1.4c0.9-0.9,1.3-2.1,1.3-3.6c0-1-0.2-1.9-0.6-2.8c-0.4-0.9-1-1.5-1.7-1.9c-0.7-0.4-1.6-0.6-2.5-0.6
			c-0.6,0-1.3,0.1-2.2,0.3V199.2z"/>
		<path id="XMLID_43_" class="st0" d="M272.7,200.2v6.7c0,1.4,0.2,2.3,0.5,2.7c0.4,0.5,1.1,0.7,2,0.7h0.9v0.6h-9.9v-0.6h0.9
			c1,0,1.7-0.3,2.1-0.9c0.2-0.3,0.3-1.2,0.3-2.5V192c0-1.4-0.2-2.4-0.5-2.7c-0.4-0.5-1.1-0.7-2-0.7h-0.9v-0.6h8.5
			c2.1,0,3.7,0.2,4.9,0.6c1.2,0.4,2.2,1.1,3,2.1c0.8,1,1.2,2.2,1.2,3.6c0,1.9-0.6,3.4-1.9,4.6c-1.2,1.2-3,1.8-5.3,1.8
			c-0.6,0-1.2,0-1.8-0.1C274.1,200.5,273.5,200.4,272.7,200.2 M272.7,199.2c0.6,0.1,1.1,0.2,1.6,0.3c0.5,0.1,0.9,0.1,1.2,0.1
			c1.2,0,2.2-0.5,3-1.4c0.9-0.9,1.3-2.1,1.3-3.6c0-1-0.2-1.9-0.6-2.8c-0.4-0.9-1-1.5-1.7-1.9c-0.7-0.4-1.6-0.6-2.5-0.6
			c-0.6,0-1.3,0.1-2.2,0.3V199.2z"/>
		<path id="XMLID_42_" class="st0" d="M320.5,204.6l0.6,0.1l-2,6.3h-17.9v-0.6h0.9c1,0,1.7-0.3,2.1-0.9c0.2-0.4,0.4-1.2,0.4-2.5V192
			c0-1.4-0.2-2.3-0.5-2.7c-0.4-0.5-1.1-0.7-2-0.7h-0.9v-0.6h10.4v0.6c-1.2,0-2.1,0.1-2.6,0.3c-0.5,0.2-0.8,0.5-1,0.9
			c-0.2,0.4-0.3,1.2-0.3,2.6v14.5c0,0.9,0.1,1.6,0.3,1.9c0.1,0.2,0.3,0.4,0.6,0.5c0.3,0.1,1.2,0.2,2.6,0.2h1.7c1.8,0,3-0.1,3.7-0.4
			c0.7-0.3,1.4-0.7,2-1.4C319.3,207.1,319.9,206.1,320.5,204.6"/>
		<path id="XMLID_41_" class="st0" d="M344.6,189.2v9.1h5.1c1.3,0,2.2-0.2,2.6-0.6c0.6-0.5,0.9-1.4,1-2.8h0.6v8h-0.6
			c-0.2-1.1-0.3-1.8-0.5-2.1c-0.2-0.4-0.5-0.7-1-0.9c-0.5-0.2-1.2-0.3-2.1-0.3h-5.1v7.6c0,1,0,1.7,0.1,1.9c0.1,0.2,0.2,0.4,0.5,0.5
			c0.2,0.1,0.7,0.2,1.3,0.2h3.9c1.3,0,2.3-0.1,2.8-0.3c0.6-0.2,1.2-0.5,1.7-1.1c0.7-0.7,1.4-1.8,2.2-3.2h0.7l-2,5.8h-17.8v-0.6h0.8
			c0.6,0,1.1-0.1,1.6-0.4c0.4-0.2,0.6-0.5,0.7-0.8c0.1-0.4,0.2-1.1,0.2-2.2v-15c0-1.5-0.1-2.4-0.4-2.7c-0.4-0.5-1.1-0.7-2-0.7h-0.8
			v-0.6h17.8l0.3,5.1h-0.7c-0.2-1.2-0.5-2.1-0.8-2.5c-0.3-0.5-0.7-0.8-1.3-1c-0.5-0.2-1.3-0.3-2.4-0.3H344.6z"/>
		<path id="XMLID_38_" class="st0" d="M386.2,210.4v0.6h-9.9v-0.6h0.8c0.9,0,1.6-0.3,2.1-0.8c0.3-0.4,0.4-1.2,0.4-2.6V192
			c0-1.2-0.1-1.9-0.2-2.3c-0.1-0.3-0.3-0.5-0.7-0.7c-0.5-0.3-1-0.4-1.6-0.4h-0.8v-0.6h9.9v0.6h-0.8c-0.9,0-1.6,0.3-2.1,0.8
			c-0.3,0.4-0.4,1.2-0.4,2.6v14.9c0,1.2,0.1,1.9,0.2,2.3c0.1,0.3,0.4,0.5,0.7,0.7c0.5,0.3,1,0.4,1.6,0.4H386.2z"/>
		<path id="XMLID_36_" class="st0" d="M403.5,187.9h6.3l14.1,17.3v-13.3c0-1.4-0.2-2.3-0.5-2.7c-0.4-0.5-1.1-0.7-2-0.7h-0.8v-0.6h8
			v0.6h-0.8c-1,0-1.7,0.3-2.1,0.9c-0.3,0.4-0.4,1.2-0.4,2.5v19.4h-0.6l-15.2-18.6V207c0,1.4,0.2,2.3,0.5,2.7c0.4,0.5,1.1,0.7,2,0.7
			h0.8v0.6h-8v-0.6h0.8c1,0,1.7-0.3,2.1-0.9c0.2-0.4,0.4-1.2,0.4-2.5v-16c-0.7-0.8-1.2-1.3-1.5-1.5c-0.3-0.2-0.9-0.5-1.5-0.7
			c-0.3-0.1-0.8-0.2-1.5-0.2V187.9z"/>
	</g>
</g>
</svg>
