<?xml version="1.0" encoding="utf-8"?>
<!-- Generator: Adobe Illustrator 24.0.1, SVG Export Plug-In . SVG Version: 6.00 Build 0)  -->
<svg version="1.1" id="Layer_1" xmlns="http://www.w3.org/2000/svg" xmlns:xlink="http://www.w3.org/1999/xlink" x="0px" y="0px"
	 viewBox="0 0 655.4 124.9" style="enable-background:new 0 0 655.4 124.9;" xml:space="preserve">
<style type="text/css">
	.st0{fill-rule:evenodd;clip-rule:evenodd;fill:#FFFFFF;}
</style>
<g id="surface1">
	<path class="st0" d="M0,22.8h78.2c10.2,0,18.5,8.3,18.5,18.5v28.5c0,10.2-8.3,18.5-18.5,18.5H35.6v36.4H0C0,90.9,0,56.9,0,22.8z
		 M35.6,39.8h20.8c2.6,0,4.7,2.1,4.7,4.7V67c0,2.6-2.1,4.7-4.7,4.7H35.6V39.8z"/>
	<path class="st0" d="M108.8,25.7h34.4v99.2H126c-9.5,0-17.2-15.1-17.2-29.5V25.7z"/>
	<path class="st0" d="M154.6,49.6h34.3v56.2c0,2.6,2.1,4.7,4.7,4.7h14.9c2.6,0,4.7-2.1,4.7-4.7V49.6H248v75.3h-73.2
		c-12.8,0-20.2-11.6-20.2-22.7V49.6z"/>
	<path class="st0" d="M340.6,49.6h-60.7c-12.4,0.3-20.7,6.7-20.9,16.8v20.2c0.2,8.8,5.6,14.9,15.6,14.9h34.3c1.6,0,3.6,1.4,3.6,3.2
		v3.5c0,1.7-2,3.2-3.6,3.2H259v13.6h66.9c9.6,0,18.4-5.7,18.9-18.7V87.3c-0.3-7.5-5.3-15-15.1-15h-35c-1.6,0-3.6-1.3-3.6-2.9v-3.1
		c0-1.6,2-2.9,3.6-2.9h45.9c0,0,0,0,0.1,0V49.6z"/>
	<path class="st0" d="M444.8,31.1l-86.6,0l-0.1,49.6l51.2,0c3.1,0,4.1,2.1,4,5.4l-0.1,18.9c0,2.2-1.1,4.7-3.1,4.7l-50.5,0v15.2h67.3
		c12.3,0.2,19.2-6.5,18.9-18.9V82.4c0-8.7-6.1-16.6-16.9-17.2h-39.6V46.6h55.3V31.1z"/>
	<path class="st0" d="M531.9,31c11.7,0,18.8,11.2,18.8,21.8v49.4c0,9.9-6.4,22.7-18,22.7c-19.1,0-38.2,0-57.3,0
		c-11.5,0-17.8-12.8-17.8-22.7V52.8c0-10.7,7-21.8,18.5-21.8C494.7,31,513.3,31,531.9,31z M512.2,109.5c3,0,5.5-2.5,5.5-5.5V52
		c0-3-2.5-5.5-5.5-5.5c-5.6,0-11.1,0-16.7,0c-3,0-5.4,2.5-5.4,5.5v52c0,3,2.4,5.5,5.4,5.5C501.1,109.5,506.7,109.5,512.2,109.5z"/>
	<path class="st0" d="M636.6,31c11.7,0,18.8,11.2,18.8,21.8v49.4c0,9.9-6.4,22.7-18,22.7c-19.1,0-38.2,0-57.3,0
		c-11.5,0-17.8-12.8-17.8-22.7V52.8c0-10.7,7-21.8,18.5-21.8C599.4,31,618,31,636.6,31z M616.9,109.5c3,0,5.5-2.5,5.5-5.5V52
		c0-3-2.5-5.5-5.5-5.5c-5.6,0-11.1,0-16.7,0c-3,0-5.4,2.5-5.4,5.5v52c0,3,2.4,5.5,5.4,5.5C605.8,109.5,611.4,109.5,616.9,109.5z"/>
	<path class="st0" d="M322,0h18.6v10.6h12.1v17.4h-12.1v10.6H322V28.1h-12.1V10.6H322V0z"/>
</g>
</svg>
