<?xml version="1.0" encoding="utf-8"?>
<!-- Generator: Adobe Illustrator 24.0.1, SVG Export Plug-In . SVG Version: 6.00 Build 0)  -->
<svg version="1.1" id="Layer_1" xmlns="http://www.w3.org/2000/svg" xmlns:xlink="http://www.w3.org/1999/xlink" x="0px" y="0px"
	 viewBox="0 0 450.1 148.8" style="enable-background:new 0 0 450.1 148.8;" xml:space="preserve">
<style type="text/css">
	.st0{fill:#FFFFFF;}
</style>
<g>
	<g>
		<path class="st0" d="M226.8,148.8c-10.4,0-20.4,0-30.7,0c0-4.4,0-8.7,0-13.8c-4.3,3.2-8.1,5.9-11.8,8.6c-2.2,1.6-4.4,3.3-6.4,5.1
			c-3.4,2.8-7.2,1.5-10.7,0.8c-12.1-2.7-22.5-8.4-29.8-18.8c-4.2-6-6.5-12.7-7.5-20c-1.2-7.9-0.9-15.7,1.3-23.5
			c4.7-16.8,15.8-27.5,32.2-32.4c12.7-3.8,25.4-3,37.5,2.4c14.5,6.5,22.3,18.4,25.2,33.7c0.6,3,0.7,6.1,0.7,9.2
			C226.8,116.2,226.8,132.4,226.8,148.8z M177.8,120.2c10.8,0.7,18.1-8.1,18.3-17.8c0.2-12.6-8-19.6-17.8-19.5
			c-10.8,0.1-18,7.3-18.3,18.5C159.7,111.9,167.5,120.8,177.8,120.2z"/>
		<path class="st0" d="M0.1,148.9c0-14.2-0.3-28,0.1-41.8c0.3-9.2,1.9-18.2,6.6-26.5c4.1-7.1,9.6-12.8,16.7-16.9
			c9.7-5.7,20.2-8.6,31.5-9.1c2.3-0.1,4.7-0.5,7.2-0.8c0,10.4,0,20.4,0,30.7c-4,0.7-8.1,1.3-12,2.2c-10.9,2.5-18.1,10.7-18.5,21.7
			c-0.5,12.6-0.3,25.2-0.4,37.8c0,1.4,0.3,2.7-1.9,2.7C19.7,148.9,10.1,148.9,0.1,148.9z"/>
		<path class="st0" d="M113.4,148.8c-10.4,0-20.6,0-31.1,0c0-1.2,0-2.3,0-3.4c0-29.1,0.1-58.1-0.1-87.2c0-3.5,1.1-4.3,4.4-4.2
			c8,0.2,16,0.1,24.1,0c2,0,3.1,0.4,3.1,2.7c-0.1,30.4-0.1,60.8-0.1,91.2C113.7,148.1,113.6,148.3,113.4,148.8z"/>
		<path class="st0" d="M77.7,20.5C77.2,9,87.3,0.1,97.8,0c11.5-0.1,21.3,9.5,20.9,21.5c-0.3,10.1-9.7,20-20.6,19.8
			C87.2,41,77.3,32.9,77.7,20.5z"/>
	</g>
	<g>
		<path class="st0" d="M292,75.2c-0.3-5.6-0.7-12.3-0.6-17.3h-0.2c-1.4,4.7-3,9.7-5.1,15.2L279,92.6h-3.9l-6.5-19.1
			c-1.9-5.7-3.5-10.8-4.6-15.6h0c-0.1,5-0.4,11.7-0.8,17.7l-1.1,17.2h-4.9l2.8-40.1h6.6l6.8,19.4c1.7,4.9,3,9.3,4,13.5h0.2
			c1-4,2.4-8.4,4.2-13.5l7.1-19.4h6.6l2.5,40.1h-5.1L292,75.2z"/>
		<path class="st0" d="M332.3,78.2c0,10.7-7.4,15.3-14.3,15.3c-7.8,0-13.8-5.7-13.8-14.8c0-9.6,6.3-15.3,14.3-15.3
			C326.7,63.4,332.3,69.4,332.3,78.2z M309.5,78.5c0,6.3,3.6,11.1,8.7,11.1c5,0,8.7-4.7,8.7-11.2c0-4.9-2.4-11.1-8.6-11.1
			C312.1,67.3,309.5,73,309.5,78.5z"/>
		<path class="st0" d="M338.9,71.8c0-3-0.1-5.4-0.2-7.8h4.6l0.3,4.8h0.1c1.4-2.7,4.8-5.4,9.5-5.4c4,0,10.2,2.4,10.2,12.3v17.2h-5.2
			V76.3c0-4.6-1.7-8.5-6.7-8.5c-3.5,0-6.1,2.4-7,5.4c-0.2,0.7-0.4,1.5-0.4,2.4v17.3h-5.2L338.9,71.8L338.9,71.8z"/>
		<path class="st0" d="M374.9,79.4c0.1,7.1,4.6,10,9.9,10c3.7,0,6-0.7,8-1.5l0.9,3.7c-1.8,0.8-5,1.8-9.6,1.8
			c-8.9,0-14.2-5.8-14.2-14.5c0-8.7,5.1-15.5,13.5-15.5c9.4,0,11.9,8.3,11.9,13.6c0,1.1-0.1,1.9-0.2,2.4H374.9z M390.2,75.7
			c0.1-3.3-1.4-8.5-7.3-8.5c-5.3,0-7.6,4.9-8,8.5H390.2z"/>
		<path class="st0" d="M419.5,64.1L413.8,81c-0.7,2.1-1.3,4.3-1.8,6h-0.1c-0.5-1.7-1.2-4-1.8-5.9l-6.3-17h-5.7l10.7,26.5
			c0.2,0.7,0.4,1.1,0.4,1.4s-0.2,0.7-0.4,1.2l-5.9,11.3h6.3c0,0,4.5-10,8.2-19.9l7.9-20.5H419.5z"/>
		<path class="st0" d="M265.9,114h-12.2v-4.4h29.7v4.4h-12.3v35.7h-5.2V114z"/>
		<path class="st0" d="M285,129.9c0-3.4-0.1-6.3-0.2-9h4.6l0.2,5.7h0.2c1.3-3.9,4.5-6.3,8-6.3c0.6,0,1,0.1,1.5,0.2v4.9
			c-0.5-0.1-1.1-0.2-1.8-0.2c-3.7,0-6.3,2.8-7,6.7c-0.1,0.7-0.2,1.5-0.2,2.4v15.4H285V129.9z"/>
		<path class="st0" d="M320.1,149.7l-0.4-3.6h-0.2c-1.6,2.3-4.7,4.3-8.8,4.3c-5.8,0-8.8-4.1-8.8-8.3c0-7,6.2-10.8,17.3-10.7v-0.6
			c0-2.4-0.7-6.7-6.5-6.7c-2.7,0-5.5,0.8-7.5,2.1l-1.2-3.5c2.4-1.5,5.8-2.6,9.5-2.6c8.8,0,10.9,6,10.9,11.8v10.8
			c0,2.5,0.1,4.9,0.5,6.9h-4.8V149.7z M319.3,135c-5.7-0.1-12.2,0.9-12.2,6.5c0,3.4,2.3,5,4.9,5c3.7,0,6.1-2.4,7-4.8
			c0.2-0.5,0.3-1.1,0.3-1.7L319.3,135L319.3,135z"/>
		<path class="st0" d="M332.8,128.7c0-3-0.1-5.4-0.2-7.8h4.6l0.3,4.8h0.1c1.4-2.7,4.8-5.4,9.5-5.4c4,0,10.2,2.4,10.2,12.3v17.2h-5.2
			v-16.6c0-4.6-1.7-8.5-6.7-8.5c-3.5,0-6.1,2.4-7,5.4c-0.2,0.7-0.4,1.5-0.4,2.4v17.3h-5.2L332.8,128.7L332.8,128.7z"/>
		<path class="st0" d="M365.1,144.3c1.5,1,4.3,2.1,6.9,2.1c3.8,0,5.6-1.9,5.6-4.3c0-2.5-1.5-3.9-5.4-5.3c-5.2-1.8-7.6-4.7-7.6-8.2
			c0-4.6,3.7-8.4,9.9-8.4c2.9,0,5.5,0.8,7.1,1.8l-1.3,3.8c-1.1-0.7-3.2-1.7-5.9-1.7c-3.1,0-4.8,1.8-4.8,3.9c0,2.4,1.7,3.5,5.5,4.9
			c5,1.9,7.6,4.4,7.6,8.7c0,5.1-3.9,8.6-10.8,8.6c-3.2,0-6.1-0.8-8.1-2L365.1,144.3z"/>
		<path class="st0" d="M389.9,149.7v-24.8h-4v-4h4v-1.4c0-4,0.9-7.7,3.3-10.1c2-1.9,4.6-2.7,7-2.7c1.8,0,3.5,0.4,4.5,0.8l-0.7,4
			c-0.8-0.4-1.8-0.7-3.3-0.7c-4.5,0-5.6,3.9-5.6,8.3v1.5h7v4h-7v24.8h-5.2V149.7z"/>
		<path class="st0" d="M408.9,136.2c0.1,7.1,4.6,10,9.9,10c3.7,0,6-0.7,8-1.5l0.9,3.7c-1.8,0.8-5,1.8-9.6,1.8
			c-8.9,0-14.2-5.8-14.2-14.5s5.1-15.5,13.5-15.5c9.4,0,11.9,8.3,11.9,13.6c0,1.1-0.1,1.9-0.2,2.4H408.9z M424.2,132.5
			c0.1-3.3-1.4-8.5-7.3-8.5c-5.3,0-7.6,4.9-8,8.5H424.2z"/>
		<path class="st0" d="M435.8,129.9c0-3.4-0.1-6.3-0.2-9h4.6l0.2,5.7h0.2c1.3-3.9,4.5-6.3,8-6.3c0.6,0,1,0.1,1.5,0.2v4.9
			c-0.5-0.1-1.1-0.2-1.8-0.2c-3.7,0-6.3,2.8-7,6.7c-0.1,0.7-0.2,1.5-0.2,2.4v15.4h-5.2v-19.8H435.8z"/>
	</g>
</g>
</svg>
