<?xml version="1.0" encoding="utf-8"?>
<!-- Generator: Adobe Illustrator 24.0.1, SVG Export Plug-In . SVG Version: 6.00 Build 0)  -->
<svg version="1.1" id="Layer_1" xmlns="http://www.w3.org/2000/svg" xmlns:xlink="http://www.w3.org/1999/xlink" x="0px" y="0px"
	 viewBox="0 0 318.9 75.6" style="enable-background:new 0 0 318.9 75.6;" xml:space="preserve">
<style type="text/css">
	.st0{fill:#FFFFFF;}
</style>
<path class="st0" d="M105.9,75.4c-4.1-0.6-8.2-1.2-11.9-2.6c-14.4-5.4-22.2-18.2-21-34C74.2,23.4,81.2,11.3,95.4,4
	c16-8.2,37.2-4.3,47.5,9.3c8.8,11.7,8.6,24.8,3.2,37.9c-6,14.3-17.2,22.1-32.5,24.3l0,0C111.6,75.6,108.2,75.6,105.9,75.4z
	 M93.6,40.2c0,8.5,4.2,15,10.7,17.1c7.6,2.4,15.4-0.5,20.2-7.6c3.9-5.7,5.1-12,3.9-18.8c-1.7-9.6-10.5-15.4-20-12.9
	C99.4,20.4,93.6,29.1,93.6,40.2z"/>
<path class="st0" d="M144.3,1.4c11,0,22.1,0,33.3,0c1.3,14.9,2.6,29.7,3.9,44.4c0.3,0.1,0.5,0.2,0.8,0.3c1-2.1,2.1-4.2,3.1-6.4
	c5.5-11.9,11.1-23.9,16.6-35.9c0.9-1.9,2-2.9,4.3-2.7c3.8,0.2,7.7,0.1,12.1,0.1c1.6,14.9,3.1,29.7,4.7,45.2c1-1.3,1.6-1.9,1.9-2.6
	c6.2-13.3,12.3-26.6,18.4-40c0.9-2,2-2.7,4.2-2.7c5.7,0.1,11.5,0,17.8,0c-3.1,6.4-6,12.4-8.9,18.4c-8.5,17.6-17,35.2-25.6,52.7
	c-0.5,0.9-1.6,2.2-2.5,2.2c-6.7,0.2-13.4,0.1-20.4,0.1c-1.3-12.4-2.5-24.5-3.7-36.5c-0.3-0.1-0.5-0.1-0.8-0.2
	c-2.1,4.3-4.1,8.6-6.1,13c-3.3,7.1-6.7,14.2-10,21.3c-0.8,1.8-1.8,2.6-3.9,2.5c-6-0.2-12-0.1-18.3-0.1c-1-8.2-2-16.2-3-24.2
	c-1.4-11.5-3.8-23-4-34.5c-0.1-8.1-4.6-10.4-10.5-12.5c-1.2-0.4-2.3-0.9-3.4-1.4C144.3,1.8,144.3,1.6,144.3,1.4z"/>
<path class="st0" d="M64,74.6c-7.3,0-14.1,0.1-20.8-0.1c-0.9,0-2.2-1.4-2.6-2.4c-3.1-7.3-6-14.7-9-22.1c-0.4-0.9-0.5-2-1.1-2.7
	s-1.7-1.6-2.5-1.6c-0.7,0-1.7,1.3-1.9,2.1c-1.7,8.8-3.2,17.6-4.8,26.6c-6.5,0-13.1,0-20,0c1.4-8.5,2.9-17,4.3-25.5
	c2.2-12.9,4.6-25.7,6.6-38.6c0.2-1.2-1.1-3.2-2.3-3.8c-3.2-1.8-6.7-3-10-5.1c0.9-0.1,1.8-0.2,2.7-0.2c12.6,0,25.2-0.1,37.8,0
	c6.6,0.1,13.3,0.6,18.8,5c8.6,6.8,9.8,19.7,2.3,28.7c-3,3.6-7.2,6.3-11.4,9.9C54.5,53.9,59.1,63.9,64,74.6z M31.6,15.2
	c-1.1,6.1-2.1,11.8-3.3,18.5c4.8-0.7,9-0.9,13-1.9c3.4-0.9,6-5.4,5.8-8.8c-0.2-3.9-2.2-6.4-6.8-7.3C37.6,15.2,34.7,15.4,31.6,15.2z"
	/>
<path class="st0" d="M318.9,1.3c-0.9,5.8-1.8,11.2-2.8,17c-7.2,0-14.2,0.2-21.3-0.1c-3.6-0.1-5.7,0.5-5.8,4.6c0,2.1-0.6,4.1-1.1,6.7
	c7.2,0,14.2,0,22,0c-1,5.6-1.8,10.6-2.9,15.6c-0.1,0.5-1.9,0.8-2.9,0.9c-6.2,0.1-12.5,0-19.1,0c-0.7,3.8-1.3,7.4-2,11.3
	c9.3,0,18,0,27.1,0c-1.1,5.8-2,11.3-3.1,17c-15.7,0-31.4,0-47.8,0c4.3-24.3,8.6-48.6,12.9-73C287.8,1.3,303.1,1.3,318.9,1.3z"/>
</svg>
