<?xml version="1.0" encoding="utf-8"?>
<!-- Generator: Adobe Illustrator 24.0.1, SVG Export Plug-In . SVG Version: 6.00 Build 0)  -->
<svg version="1.1" id="layer" xmlns="http://www.w3.org/2000/svg" xmlns:xlink="http://www.w3.org/1999/xlink" x="0px" y="0px"
	 viewBox="0 0 590.6 500" style="enable-background:new 0 0 590.6 500;" xml:space="preserve">
<style type="text/css">
	.st0{fill:#FFFFFF;}
	.st1{fill-rule:evenodd;clip-rule:evenodd;fill:#FFFFFF;}
</style>
<path class="st0" d="M16.8,16.9v406.9h197.3v-0.1l0.1-0.3h-197V17.3h556.3v406.2H380.6v0.3v0.1h193.2v-407H16.8z"/>
<path class="st1" d="M405.3,85.4c6.9,0,12.9-5.5,12.9-13.1c0-7.4-6-12.9-12.9-12.9c-7.1,0-13.1,5.5-13.1,12.9
	C392.2,79.9,398.2,85.4,405.3,85.4 M394.8,72.4c0-6.1,4.5-10.8,10.5-10.8c5.8,0,10.3,4.7,10.3,10.8c0,6.3-4.5,10.9-10.3,10.9
	C399.4,83.3,394.8,78.6,394.8,72.4 M402.5,73.4h2.6l3.9,6.5h2.6l-4.2-6.6c2.2-0.3,3.7-1.5,3.7-4.1c0-2.9-1.7-4.3-5.2-4.3h-5.6v15
	h2.2V73.4z M402.5,71.5v-4.6h3.1c1.6,0,3.3,0.3,3.3,2.2c0,2.3-1.8,2.4-3.6,2.4L402.5,71.5L402.5,71.5z"/>
<path class="st0" d="M99.2,62.3c-6.2,2.5-13.4,8.2-13.4,17.5v24.5c0,4.4,1.3,8.1,5.3,12.6c4.4,4.9,29,27.6,29.7,28.1
	c3.1,2.6,4.6,6.8,4.6,10.8l0.1,39.8c0,2.6-1.5,4.3-3.9,5.3c-4.5,1.9-10.2,1.7-14.7,0.1c-2-0.6-3.9-2.6-3.9-5.4l0.1-30.8h-17
	L86,194.6c0.3,8.3,4.3,12.7,9.3,15.8c10.5,6.6,37.6,5.1,46.3,0.9c7.4-3.5,11.1-10.5,11.1-16.5l-0.1-47.8c0-4.9-2.5-10-5.4-12.7
	c-2.6-2.4-27.1-25.6-29.4-27.8c-2.5-2.3-4.7-5.7-4.7-10.6V76.8c0-1.7,1-4.1,3.9-5.5c3.9-1.8,11.2-1.5,14.8,0c2.6,1.1,4,3,4,5.6
	l-0.1,25.1h17.1V59.4h-17.1v3.4C123.1,57.9,108.2,58.7,99.2,62.3"/>
<path class="st1" d="M178.1,59.9c-6.9,1.6-13,6.9-13,15.2v122.6c0,6.5,5.2,13.4,13.1,15.1c16.3,3.6,34.6,4.4,50.9,0.1
	c7.8-2,12.9-7.4,12.9-15.2V75.2c0-7.1-5-13.4-13-15.3C216.5,56.9,195.3,55.8,178.1,59.9 M210,71.6c2.5,0.6,5,2.3,5,5.7v118.2
	c0,3.7-2.8,5.2-5,5.8c-3.4,0.9-9.2,0.9-12.7,0c-3.3-0.9-5-3-5-5.7V77.2c0-3.4,2.7-5.1,5.1-5.7C200.9,70.7,206.2,70.8,210,71.6"/>
<path class="st0" d="M250.6,59.4V71c2.2,0,4.3,1.4,4.3,3.9v123c0,2.3-2,3.9-4.2,3.9v11.7h66.1v-49.4h-11.5c-0.1,12-6.8,37.7-19,37.7
	h-4.4v-127c0-2.1,2-3.8,4.3-3.8V59.4L250.6,59.4L250.6,59.4z"/>
<path class="st0" d="M425.9,59.4V71c2.1,0,4.2,1.6,4.2,3.9v123c0,2.2-1.8,3.9-4.2,3.9v11.7h25.4v-11.7c-2.3,0-4.2-1.6-4.2-3.9v-79.8
	l30.9,95.4h22.6V74.9c0-2,1.7-3.9,4.2-3.9l0.1-11.6h-25.4V71c2.2,0,4.2,1.6,4.2,3.9v68.4l-27.1-83.9H425.9z"/>
<path class="st1" d="M352.9,71c2.8,0,4.4,2.6,4.2,3.9c-0.4,1.7-34.7,138.6-34.7,138.6h18c0,0,2.9-14.6,3.4-16.4
	c0.4-1.3,6.3-25.1,6.3-25.1h26.7c0,0,5.1,20.3,6.2,25.1c0.5,2.5,4,16.4,4,16.4h30.3v-11.7h-2.2c-2.4,0-4-1.8-4.1-2.9L376.8,59.4
	h-23.9V71z M363.7,118.5l10.6,42.6h-21.5L363.7,118.5z"/>
<path class="st1" d="M85.8,226.7v6.5c1.4,0,2.4,1.1,2.4,2.1v68.2c0,1.2-1.1,2.1-2.4,2.1v6.5h34.7c4.8,0,9.6-3.4,9.6-8.9v-68.1
	c0-4-3.3-8.6-9.5-8.6H85.8V226.7z M103.3,233.2h8.3c1.9,0,3.5,1.4,3.5,3.2v66.1c0,2-1.8,3.2-3.5,3.2h-8.3V233.2z"/>
<path class="st0" d="M136.5,233.2c1.3,0,2.4,0.9,2.4,2.1v68.3c0,1.3-1.3,2.2-2.4,2.2v6.5h38v-27.8h-5.9l-6.8,21.3h-7.9V271h4.1
	c3.7,0.1,6.1,2.6,6.1,5.6v3.1h6.3v-24.2h-6.3v3.2c0,3-2.7,5.5-6.1,5.5h-4.2v-30.9h7.8l6.5,16.4h6.2l-4.1-23h-33.9v6.5H136.5z"/>
<path class="st0" d="M475.1,228.3c-3.5,1.4-7.4,4.6-7.4,9.7v13.6c0,2.4,0.7,4.4,2.9,7c2.4,2.7,16.1,15.3,16.5,15.6
	c1.7,1.4,2.6,3.8,2.6,6l0.1,22.1c0,1.4-0.8,2.3-2.2,3c-2.5,1-5.7,0.9-8.1,0c-1.2-0.4-2.2-1.5-2.2-3v-17.2h-9.4l-0.1,16.6
	c0.1,4.6,2.4,7,5.2,8.8c5.8,3.7,20.9,2.8,25.7,0.5c4.1-2,6.1-5.8,6.1-9.2v-26.5c0-2.7-1.4-5.5-3.1-7c-1.4-1.3-15-14.3-16.3-15.4
	c-1.4-1.3-2.6-3.2-2.6-5.9v-10.6c0-1,0.6-2.3,2.2-3.1c2.1-1,6.1-0.8,8.2,0c1.4,0.6,2.2,1.7,2.2,3.1v14h9.4v-23.7h-9.4v1.9
	C488.3,225.9,480,226.3,475.1,228.3"/>
<path class="st1" d="M310,233.2c1,0,2.3,0.6,2.3,2.1v68.2c0,1.7-1.4,2.1-2.3,2.1v6.5h34.7c4.6,0,9.5-3.5,9.5-8.5v-27.1
	c0-3.1-1.2-5.5-5.2-7.8c3.7-1.6,5.2-5.4,5.2-7.8v-25.4c0-4.4-3.9-8.8-9.5-8.8H310V233.2z M335.6,233.2c2,0,3.5,1.4,3.5,3.2v24.5
	c0,1.8-1.5,3.2-3.4,3.2h-8.3v-30.9L335.6,233.2L335.6,233.2z M327.5,272.9h8.1c1.8,0,3.5,1.3,3.5,3.6v26c0,2-1.7,3.2-3.5,3.2h-8.2
	L327.5,272.9L327.5,272.9z"/>
<path class="st1" d="M404.9,303.6v-27.1c0-3.1-1.1-5.5-5.2-7.8c3.7-1.6,5.2-5.4,5.2-7.8v-25.4c0-4.4-3.8-8.8-9.5-8.8h-34.7v6.5
	c0.9,0,2.3,0.6,2.3,2.1v68.2c0,1.7-1.4,2.1-2.3,2.1v6.5h19.7v-6.5c-1.4,0-2.3-1-2.3-2.1v-30.7l0,0h8.2c1.8,0,3.6,1.3,3.6,3.6v27.1
	c0,5.5,4.7,8.7,9.6,8.7h7.8v-6.5C406.2,305.7,404.9,305,404.9,303.6 M386.3,233.2c2,0,3.6,1.4,3.6,3.2v24.5c0,1.8-1.5,3.2-3.5,3.2
	h-8.3v-30.9L386.3,233.2L386.3,233.2z"/>
<path class="st0" d="M234.3,227.1c-4.2-0.5-10.8-0.3-12.7,0c-3.5,0.4-8.2,3.2-8.2,8.6v67.6c0,3.4,2.1,7.1,7.6,8.6
	c4.3,1.2,15,1.4,20.4,0.1c5.3-1.3,7.5-4.5,7.5-9.6v-15.9h-9.4v16c0,1.8-1.4,2.6-2.6,3.1c-1.4,0.5-4.4,0.4-5.8-0.1
	c-1.7-0.6-2.5-1.7-2.6-3.1v-65.8c0-1.3,1-2.7,2.5-3.1c1.8-0.6,4.6-0.6,6.2,0.1c1.3,0.5,2.3,1.5,2.3,2.9v16h9.4v-25.9h-9.4v3.4
	C239.3,230.1,238,227.5,234.3,227.1"/>
<path class="st1" d="M270,233.2c1.6,0,2.4,1.5,2.3,2.1c-0.2,1-19.2,77-19.2,77h9.9c0,0,1.7-8.1,2-9.1c0.2-0.7,3.5-14,3.5-14h14.9
	c0,0,2.8,11.3,3.4,13.9c0.3,1.4,2.2,9.2,2.2,9.2h16.8v-6.5h-1.2c-1.4,0-2.2-1-2.3-1.6l-18.9-77.4h-13.3v6.4H270z M276,259.6
	l5.8,23.6h-11.9L276,259.6z"/>
<path class="st1" d="M428.1,233.2c1.8,0.1,2.4,1.6,2.2,2.6c-0.2,0.9-19.2,76.5-19.2,76.5h10c0,0,1.6-8.1,1.9-9.1
	c0.2-0.7,3.5-14,3.5-14h14.8c0,0,2.8,11.3,3.5,13.9c0.3,1.4,2.2,9.2,2.2,9.2h16.8v-6.5h-1.3c-1.3,0-2.2-1-2.2-1.6l-19-77.4H428
	L428.1,233.2L428.1,233.2z M434.1,259.6l5.9,23.6h-11.9L434.1,259.6z"/>
<path class="st0" d="M0,0v440.6h201.2c2,15.8,9.9,29.8,22.6,39.7c16.8,13.1,41.6,19.7,73.6,19.7s56.7-6.6,73.5-19.7
	c12.8-9.9,20.5-23.9,22.6-39.7h197.1V0H0z M297.4,485.1c-12.3,0-23.1-1.1-32.8-3.2c1.6-0.1,3.1-0.3,4.2-0.7l0,0
	c2.8-0.8,7.9-0.8,10.8,0c3.3,1,9.4,1,12.4,0c2.9-1,8.1-0.9,10.8,0c2.9,1,9.2,1,12.3,0c2.8-0.9,7.9-0.9,10.9,0
	c1.1,0.4,2.6,0.6,4.2,0.7C320.6,484,309.7,485.1,297.4,485.1 M347.5,476.5c-3.2-0.4-7.6-0.4-9.9,0.4c-2.5,0.8-7.5,1-10.8,0
	c-3.1-1.1-9.5-0.9-12.3,0c-2.4,0.7-7.4,1-10.8,0c-2.7-0.8-9.4-1-12.3,0c-2.6,0.8-7.6,1-10.9,0s-8.6-1.2-12.3,0l0,0
	c-2.4,0.7-7.4,1-10.8,0c-2.2-0.6-6.7-0.9-10-0.5c-2.3-1-4.6-2.1-6.8-3.4c2,0,4-0.3,5.3-0.7c3-0.9,8.1-0.9,10.8,0c2.9,1,9.2,1,12.3,0
	c2.8-0.8,7.9-0.9,10.8,0c3.3,1,9.4,1,12.4,0c2.9-0.9,8.1-0.9,10.8,0c2.9,1,9.2,1,12.3,0c2.8-0.9,7.9-0.9,10.9,0c3.3,1,9.3,1,12.3,0
	c2.9-0.9,8.1-0.9,10.8,0c1.3,0.5,3.2,0.7,5.2,0.7C352.2,474.3,349.9,475.5,347.5,476.5 M362,467.7c-0.5,0-0.9,0.2-1.3,0.3
	c-2.4,0.7-7.4,0.9-10.8,0c-2.8-0.8-9.4-1-12.4,0c-2.5,0.8-7.5,1-10.8,0c-3.1-1.1-9.5-0.8-12.3,0c-2.4,0.7-7.4,0.9-10.8,0
	c-2.7-0.8-9.4-1-12.3,0c-2.6,0.8-7.6,1-10.9,0c-3.3-0.9-8.6-1.2-12.3,0l0,0c-2.4,0.7-7.4,0.9-10.8,0c-2.7-0.8-9.3-1-12.3,0
	c-2.5,0.8-7.6,1-10.9,0c-0.4-0.1-0.9-0.1-1.3-0.3c-1.9-1.6-3.6-3.2-5.2-4.9c2.1-0.1,4.2,0.1,5.7,0.7c3.2,1,9.3,1,12.3,0
	s8.1-0.9,10.8,0c2.9,1,9.2,1,12.3,0c2.8-0.9,7.9-0.9,10.8,0c3.3,1,9.4,1,12.4,0c2.9-1,8.1-0.9,10.8,0c2.9,1,9.2,1,12.3,0
	c2.8-0.9,7.9-0.9,10.9-0.1c3.3,1,9.3,1,12.3,0.1c2.9-1,8.1-0.9,10.8,0c3,1,9.2,1,12.3,0c1.5-0.5,3.6-0.7,5.7-0.7
	C365.6,464.5,363.9,466.2,362,467.7 M287.5,439.5c0.3,0,1.8,0,3.3-0.1c-0.1,0.8-0.2,1.3-0.3,1.9c-0.8,4.6-4.4,14-7.1,17.7l-0.2-0.1
	c0,0-4.4-5.8-5.2-6.4c-0.8-0.7-0.1-2.6-0.7-5.3c2.8-2.2,5.4-5.2,6.8-9.2C285.6,438.7,287,439.4,287.5,439.5 M284.7,431.3
	c1.7,0,3.2-0.1,3.7-0.3c0.4-0.2,1.8-1.1,3.3-2.1c-0.1,3-0.3,5.9-0.6,8.1c-0.9,0-1.8,0-2.3-0.1c-1.3-0.3-2.5-1.6-3.9-3.4
	C284.9,432.8,284.8,432,284.7,431.3 M279.4,457.8l1.3,1.2v0.3l-0.4-0.1c-3.3-0.9-8.6-1.1-12.3,0l0,0c-1.1,0.4-2.7,0.5-4.5,0.6
	l-0.2-0.4l-0.8-0.6c0,0-2.4-4,0.2-5.5c1-0.6,4.6-0.8,8.6-2.9c0.7,2.1,1.7,3.6,2.2,3.9C274.4,454.7,278.4,457.1,279.4,457.8
	 M293.8,390.7c-1.1-0.5-2.4-0.2-3,0.7c-0.5,0.7-0.3,1.6,0.5,2.1c-0.4,0.4-0.8,0.9-1.1,1.3c-0.6-0.4-1.1-0.8-1.8-1.2
	c-0.5-1.1,0.5-2.4,1.5-2.7c1.2-0.4,3.2-2,4.1-3.2c0.6-0.8,2.8-4.3,2.3-6.8h2.1c-0.5,2.5,1.7,6,2.2,6.8c1,1.2,2.9,2.8,4.1,3.2
	c1.1,0.3,2,1.6,1.5,2.7c-0.6,0.4-1.2,0.8-1.8,1.2c-0.4-0.5-0.7-0.9-1.1-1.3c0.7-0.6,0.9-1.4,0.4-2.1c-0.6-0.9-1.9-1.1-3-0.7
	c-1,0.5-1.4,1.5-0.8,2.4c0.5,0.7,1.5,1,2.4,0.8c0.3,0.4,0.6,1.1,0.8,1.8c-2.4,1.7-4.8,3.6-5.8,5.5c-1.2-1.9-3.6-3.8-6-5.5
	c0.2-0.6,0.6-1.3,0.8-1.8c0.9,0.2,2-0.1,2.5-0.8C295.2,392.2,294.8,391.1,293.8,390.7 M294.9,379.9c-1.9-0.1-3.7-0.3-5.2-0.6
	c-2.7-0.5-3.2-1.1-3.3-1.2c0.1-0.2,0.5-0.7,3.2-1.3c2.1-0.4,5-0.7,8.1-0.7c3,0,5.9,0.3,8,0.7c2.7,0.5,3.1,1.1,3.2,1.3
	c-0.1,0-0.6,0.6-3.4,1.2c-1.7,0.3-3.7,0.5-5.8,0.6l-0.4-0.5l-0.5,0.6c-0.4,0-0.8,0-1.1,0c-0.6,0-1.2,0-1.8,0l-0.5-0.5L294.9,379.9z
	 M314.4,459.1c-0.2,0.1-0.4,0.1-0.7,0.2V459l1.3-1.2c1.1-0.6,5.2-3.1,6-3.5c0.5-0.2,1.5-1.8,2.2-3.9c4,2.1,7.6,2.3,8.6,2.9
	c2.5,1.5,0.1,5.5,0.1,5.5l-0.7,0.6l-0.2,0.4c-1.5-0.1-2.9-0.2-4.2-0.6C323.7,458.1,317.2,458.2,314.4,459.1 M316.4,452.4
	c-0.8,0.6-5.1,6.4-5.1,6.4l-0.2,0.1c-2.7-3.7-6.3-13.1-7.1-17.7c-0.1-0.5-0.2-1.1-0.3-1.9c1.6,0.1,3,0.1,3.3,0.1
	c0.5-0.1,1.9-0.8,3.4-1.6c1.4,4,3.9,7,6.7,9.2C316.5,449.8,317.2,451.7,316.4,452.4 M309.6,433.4c-1.4,1.9-2.6,3.2-3.9,3.4
	c-0.6,0.1-1.4,0.1-2.3,0.1c-0.3-2.3-0.5-5.1-0.6-8.1c1.5,1,3,1.9,3.3,2.1c0.5,0.2,2,0.3,3.7,0.3C309.7,432,309.6,432.8,309.6,433.4
	 M370.5,458.6c-3.3-0.4-7.5-0.1-9.8,0.5c-2.4,0.7-7.4,1-10.8,0c-2.8-0.7-9.4-0.9-12.4,0c-0.8,0.3-2,0.5-3.3,0.6v-0.8l1.4-1.2v-5.3
	c0-1.6-3.5-3.3-4.1-3.9c-0.2-0.3-0.6-0.8-1.1-1.4c0.5-1.9,0-4.2-1.4-6.1c-0.2-0.3,2.6-1.5,1.9-2s-3.4,0-4.2-0.3
	c-0.3-0.2-0.8-0.4-1-0.5c-4.3-1.6-5.6-6.2-5.7-8.2c-0.1-1.5,0.3-5,0.4-6.1c0.3,0.4,0.7,0.1,1.2,0.7c0.3-1.4-0.3-2.1-1.1-2.3
	c2.5,0,3.7,0.4,5.7,2.3c-0.9-2.4-2.4-3.5-5.1-4.3c1.8-0.6,4.1-1,7,0.3c-2.3-2.5-4.8-2.6-7.5-2.1c-1.4-1.3-1.8-1.3-2.4-1.6
	c-1.3-0.5-3.9-3.7-5.3-2.6c1.2,0.6,0.6,2.1-0.7,1.6c-0.1,0.4,0,0.9,0.1,1.2c0.1,1-0.7,1.7-1.6,2.2c1.3-0.1,2.3,0.2,2.6,1.4
	c0.4,1,0.2,2.3-0.9,3.5c-0.4,0.6-1,1.8-1.3,2.8c-2,0.8-3.6,1.2-4.8,0.8c-0.8-0.3-2.3-1.1-3.6-1.9c0-6.6,0.9-13.2,3.8-15.9
	c0.6-0.6,1.6-1.2,2.9-1.9c0.9,0.4,1.6,0.9,2.3,1.4c-0.5,0.7-0.4,1.5,0.3,2.1c0.9,0.7,2.2,0.7,3.1,0.1c0.9-0.7,0.9-1.8,0-2.5
	c-0.7-0.5-1.8-0.6-2.6-0.2c-0.5-0.6-1.2-1.1-1.6-1.5c1-0.5,2.1-1.1,3.3-1.6v0.1c-0.1,1.1,1.9,1.7,5,2.9c2.4,0.9,7.7,1.8,9.9-0.4
	c-3.3-1.4-5-2.8-7.4-3.3c-2.1-0.5-4-0.6-5.4-0.4c2.4-1.2,4.8-2.4,6.8-3.5c1.1,0.2,2.3,0.6,3.2,0.9c-0.3,0.8,0.1,1.6,1,2
	c1,0.5,2.3,0.1,2.9-0.6c0.6-0.8,0.3-1.8-0.8-2.4c-0.9-0.4-1.9-0.2-2.6,0.3c-0.7-0.4-1.5-0.8-2.1-1.1c0.3-0.2,0.7-0.5,1-0.7
	c1.7-0.2,4.4-1.2,6.9-2.9c2.5-1.6,3.7-3.6,6.6-6.4c-3.4-1.1-8.9,2-11,3.9c-2.9,2.6-4.8,4.1-4.2,5h0.1c-0.5,0.3-0.9,0.5-1.4,0.8
	c-0.1-0.7-0.1-1.6-0.2-2.3c1-0.2,1.6-0.8,1.6-1.7c0-1-1-1.8-2.1-1.8c-1.2,0-2.2,0.8-2.2,1.8c0,0.8,0.7,1.5,1.7,1.7
	c-0.2,1-0.4,2.3-1,3.4c-2,0.8-4.2,1.5-6.4,2.1c-0.1-0.2-0.1-0.5,0.3-0.7c0.9-0.3,2.9-1.1,4-2.8c1-1.6,0-5.4,2.5-6.3
	c-4.3-0.4-7.7,4.8-8.4,6.5c-0.5,1.1,0.5,2.2-0.1,2.8c-0.3,0.4-0.8,0.9-1.3,1.3c-3.1,0.8-6.4,1.6-8.8,2.4c-0.5-3.1,0.5-5.8,2.4-8.2
	c0.7,0.7,2.8,0.9,5.4,0.3c2-0.4,3.7-2.2,5.9-4.8c-2.7-0.6-5.6,0.2-7.3,1.3c-0.9,0.5-1.8,0.9-2.5,1.3c2.5-2.5,5.8-4.7,8.9-6.5
	c1.1-0.1,2.3,0,3.3,0.2c0,0.6,0.5,1.2,1.3,1.4c0.9,0.2,1.9-0.2,2.2-0.9c0.4-0.8-0.2-1.6-1.1-1.8c-0.8-0.2-1.6,0.1-2.1,0.7
	c-0.6-0.2-1.4-0.4-1.9-0.6c0.7-0.5,1.4-0.9,2-1.3c1.2,0.3,3.1-0.7,5.9-2.2c2.5-1.2,6.5-4.7,5.2-7.6c-3.5,1.6-6.1,2-8.1,3.5
	c-3,2-4.3,4.5-3.9,5.6c-1.6,0.9-3.6,1.9-5.8,3l-0.1-0.1c0-0.3,0.2-0.6,0.7-0.9c0.5-0.4,2.7-1.5,4-2.8c1.4-1.5,2.7-5.1,0.6-7
	c-0.1,1.5-3.6,2.3-4.9,4.5c-0.7,1.3-1.3,2.4-1.2,3.7c0,1,0.4,2-0.2,2.9l-0.2,0.4c-0.5,0.3-1,0.6-1.5,0.9c-0.1-0.7-0.1-1.5-0.2-2.3
	c0.9-0.2,1.6-0.8,1.6-1.7c0-1-1-1.7-2.1-1.7c-1.2,0-2.1,0.8-2.1,1.7c0,0.8,0.7,1.5,1.6,1.7c-0.1,1-0.3,2.2-0.9,3.2
	c-0.8-0.3-1.1-1.4-0.9-1.6c0.6-1.1-0.5-4-1.6-5.5c-1.6-2.2-3.1-3.3-4.3-4.6c6.3-0.3,11.1-1.5,11.2-2.8c0.2-1.6-6.1-2.9-14-2.9
	c-8,0-14.3,1.3-14.1,2.9c0.1,1.3,4.6,2.4,10.5,2.7c-1.2,1.3-2.7,2.4-4.3,4.6c-1,1.5-2.2,4.4-1.6,5.5c0.2,0.2-0.1,1.3-0.9,1.6
	c-0.5-1-0.7-2.2-0.9-3.2c0.9-0.2,1.6-0.8,1.6-1.7c0-1-0.9-1.7-2.1-1.7s-2.2,0.8-2.2,1.7c0,0.8,0.7,1.5,1.7,1.7
	c-0.1,0.8-0.1,1.6-0.2,2.3c-0.6-0.3-1-0.6-1.5-0.9l-0.2-0.4c-0.6-0.9-0.2-1.9-0.2-2.9c0.1-1.3-0.5-2.4-1.3-3.7
	c-1.3-2.2-4.8-2.9-4.9-4.5c-2.1,1.9-0.8,5.5,0.6,7c1.3,1.3,3.5,2.4,4,2.8c0.5,0.3,0.7,0.6,0.7,0.9l-0.1,0.1c-2.1-1.1-4.2-2.2-5.8-3
	c0.5-1.1-0.8-3.6-3.8-5.6c-2.2-1.5-4.7-1.9-8.2-3.5c-1.3,2.9,2.8,6.4,5.2,7.6c2.9,1.4,4.7,2.4,5.9,2.2c0.7,0.4,1.3,0.8,2,1.3
	c-0.6,0.2-1.3,0.4-1.9,0.6c-0.4-0.6-1.2-0.9-2.1-0.7c-0.9,0.3-1.5,1-1.2,1.8c0.3,0.7,1.4,1.2,2.3,0.9c0.8-0.2,1.3-0.8,1.3-1.4
	c1-0.2,2.2-0.3,3.3-0.2c3.1,1.9,6.4,4,8.9,6.5c-0.7-0.4-1.6-0.8-2.5-1.3c-1.7-1.1-4.6-1.9-7.3-1.3c2.1,2.5,3.8,4.4,5.9,4.8
	c2.7,0.6,4.8,0.4,5.5-0.3c1.8,2.4,2.8,5.1,2.4,8.2c-2.4-0.8-5.6-1.6-8.7-2.4c-0.6-0.4-1.1-0.9-1.4-1.3c-0.5-0.6,0.4-1.7,0-2.8
	c-0.7-1.7-4.1-6.9-8.4-6.5c2.5,0.9,1.5,4.8,2.5,6.3c1.1,1.6,3.1,2.5,4,2.8c0.4,0.2,0.4,0.5,0.3,0.7c-2.3-0.6-4.5-1.4-6.4-2.1
	c-0.6-1-0.8-2.4-1-3.4c0.9-0.2,1.6-0.9,1.6-1.7c0-1-1-1.8-2.2-1.8s-2.2,0.8-2.2,1.8c0,0.8,0.7,1.5,1.6,1.7c-0.1,0.8-0.1,1.7-0.2,2.3
	c-0.5-0.3-0.9-0.5-1.4-0.8h0.1c0.6-1-1.3-2.4-4.1-5c-2.2-1.9-7.7-5-11.1-3.9c2.9,2.8,4.1,4.8,6.6,6.4c2.6,1.7,5.2,2.7,7,2.9
	c0.3,0.2,0.6,0.5,0.9,0.7c-0.6,0.3-1.4,0.7-2.1,1.1c-0.7-0.5-1.8-0.7-2.6-0.3c-1.1,0.6-1.4,1.6-0.8,2.4s1.9,1.2,3,0.6
	c0.9-0.4,1.2-1.2,1-2c0.9-0.2,2-0.7,3.2-0.9c1.9,1.2,4.4,2.4,6.8,3.5c-1.4-0.2-3.3-0.1-5.4,0.4c-2.5,0.6-4.2,1.9-7.4,3.3
	c2.2,2.2,7.5,1.3,10,0.4c3.2-1.2,5.1-1.8,5-2.9l-0.1-0.1c1.2,0.5,2.4,1.1,3.4,1.6c-0.5,0.5-1.1,1-1.6,1.5c-0.9-0.5-1.9-0.3-2.7,0.2
	c-0.8,0.7-0.8,1.8,0.1,2.5s2.2,0.7,3.1-0.1c0.7-0.6,0.8-1.4,0.3-2.1c0.7-0.4,1.5-0.9,2.4-1.4c1.3,0.7,2.3,1.3,2.9,1.9
	c2.9,2.7,3.8,9.3,3.8,15.9c-1.3,0.8-2.7,1.6-3.6,1.9c-1.1,0.4-2.8,0-4.7-0.8c-0.4-1-1-2.2-1.5-2.8c-1.1-1.2-1.2-2.5-0.9-3.5
	c0.4-1.1,1.4-1.5,2.7-1.4c-0.9-0.4-1.7-1.1-1.6-2.2c0.1-0.4,0.2-0.8,0.1-1.2c-1.3,0.5-1.9-1-0.6-1.6c-1.5-1.1-4,2-5.2,2.6
	c-0.6,0.3-1.1,0.3-2.5,1.6c-2.7-0.5-5.2-0.4-7.5,2.1c2.9-1.2,5.2-0.8,7-0.3c-2.8,0.7-4.2,1.8-5.1,4.3c2.1-2,3.2-2.3,5.7-2.3
	c-0.9,0.3-1.5,0.9-1.2,2.3c0.5-0.6,0.9-0.3,1.3-0.7c0.1,1,0.5,4.6,0.4,6.1c-0.2,2-1.5,6.6-5.8,8.2c-0.2,0.1-0.7,0.3-1,0.5
	c-0.7,0.4-3.5-0.2-4.2,0.3s2.1,1.7,1.9,2c-1.3,1.9-1.8,4.2-1.3,6.1c-0.5,0.6-0.9,1.1-1.2,1.4c-0.6,0.6-4.1,2.3-4.1,3.9v5.3l1.4,1.2
	v0.7c-1-0.1-2-0.3-2.9-0.5c-2.7-0.7-9.3-0.9-12.3,0c-2.5,0.9-7.6,1-10.9,0c-2.6-0.7-6.4-1-9.7-0.5c-5.2-7.6-8-16.6-8-26.6
	c0-1,0-2,0.1-3s0.1-1.9,0.3-2.8c0.5-5.2,1.7-10.5,3.5-15.8l0.1-0.4c0.3-1,0.7-2,1.1-3c0.2-0.4,0.3-0.7,0.5-1.1
	c0.3-0.8,0.6-1.5,0.9-2.2c0.2-0.5,0.4-0.9,0.6-1.3c0.3-0.7,0.6-1.4,1-2.1c0.2-0.4,0.4-0.8,0.6-1.2c0.4-0.9,0.9-1.8,1.3-2.6
	c0.2-0.3,0.3-0.5,0.4-0.7c0.6-1.1,1.2-2.2,1.8-3.3c0.2-0.4,0.4-0.6,0.6-1c0.5-0.8,0.9-1.5,1.4-2.2c0.2-0.4,0.5-0.8,0.7-1.2
	c0.4-0.6,0.9-1.4,1.4-2c0.2-0.4,0.5-0.7,0.8-1.1c0.5-0.7,1.1-1.4,1.6-2.2c0.2-0.3,0.4-0.6,0.7-0.9c0.8-1,1.6-1.9,2.4-2.9l0.6-0.6
	c0.6-0.7,1.3-1.5,1.9-2.3c0.4-0.3,0.6-0.6,1-0.9c0.6-0.6,1.1-1.3,1.7-1.9c0.4-0.4,0.7-0.7,1-1c0.6-0.6,1.2-1.3,1.9-1.9
	c0.3-0.3,0.6-0.6,0.9-0.8c1-0.9,1.9-1.7,2.8-2.6h0.1c0.9-0.8,1.8-1.6,2.9-2.4c0.3-0.3,0.6-0.5,1-0.8c0.6-0.5,1.3-1,2-1.6
	c0.4-0.2,0.8-0.5,1.1-0.8c0.7-0.5,1.4-1,2.1-1.4c0.3-0.3,0.7-0.5,1-0.7c0.9-0.6,1.8-1.2,2.7-1.7l0.6-0.4c1-0.6,2.2-1.2,3.3-1.8
	c0.3-0.2,0.6-0.3,0.9-0.5c0.8-0.4,1.6-0.8,2.4-1.2c0.4-0.2,0.8-0.4,1.2-0.6c0.8-0.4,1.6-0.7,2.3-1c0.4-0.2,0.8-0.3,1.2-0.5
	c0.9-0.3,1.7-0.7,2.5-0.9c0.3-0.2,0.6-0.3,1-0.4c1.1-0.4,2.3-0.7,3.5-1l0.7-0.1c1-0.3,1.9-0.5,2.9-0.7c0.4,0,0.8-0.1,1.2-0.2
	c0.8-0.2,1.6-0.3,2.4-0.4c0.5,0,0.9-0.2,1.3-0.2c0.9-0.1,1.7-0.2,2.5-0.3c0.4,0,0.8-0.1,1.2-0.1c1.2-0.1,2.4-0.1,3.7-0.1
	c1.2,0,2.5,0,3.7,0.1c0.4,0,0.8,0,1.1,0.1c0.9,0.1,1.7,0.2,2.5,0.3c0.4,0,0.9,0.2,1.3,0.2c0.8,0.1,1.6,0.2,2.5,0.4
	c0.4,0.1,0.7,0.2,1.1,0.2c1,0.2,2,0.5,2.9,0.7c0.3,0.1,0.5,0.1,0.7,0.1c1.1,0.3,2.3,0.7,3.5,1c0.3,0.1,0.6,0.2,0.9,0.4
	c0.9,0.2,1.7,0.6,2.5,0.9c0.4,0.2,0.9,0.3,1.2,0.5c0.7,0.3,1.5,0.6,2.3,1c0.4,0.1,0.8,0.3,1.2,0.6c0.8,0.4,1.6,0.7,2.4,1.2
	c0.3,0.2,0.7,0.3,0.9,0.5c1.1,0.6,2.2,1.2,3.3,1.8c0.2,0.1,0.4,0.3,0.6,0.4c0.9,0.5,1.8,1.1,2.6,1.7c0.4,0.2,0.7,0.4,1.1,0.7
	c0.7,0.4,1.4,0.9,2.1,1.4c0.4,0.3,0.7,0.5,1.1,0.8c0.7,0.6,1.4,1.1,2.1,1.6c0.3,0.3,0.6,0.5,1,0.8c0.9,0.7,1.9,1.5,2.8,2.3l0.1,0.1
	c1,0.9,1.9,1.7,2.8,2.6c0.3,0.2,0.7,0.6,1,0.8c0.6,0.6,1.3,1.2,1.8,1.8c0.3,0.3,0.6,0.7,1,1c0.6,0.6,1.2,1.2,1.7,1.9
	c0.3,0.3,0.7,0.7,1,0.9c0.6,0.8,1.3,1.6,1.9,2.3l0.5,0.7c0.9,1,1.6,1.9,2.4,2.9c0.2,0.3,0.5,0.6,0.7,0.9c0.5,0.8,1.1,1.5,1.6,2.2
	c0.3,0.4,0.5,0.8,0.8,1.2c0.5,0.6,0.9,1.4,1.3,2c0.3,0.4,0.5,0.8,0.7,1.2c0.5,0.7,1,1.5,1.4,2.2c0.2,0.3,0.4,0.6,0.7,1
	c0.6,1.1,1.2,2.1,1.8,3.3c0.1,0.2,0.2,0.4,0.3,0.7c0.4,0.8,0.9,1.7,1.3,2.6c0.2,0.4,0.4,0.8,0.5,1.2c0.4,0.7,0.8,1.4,1,2.1
	c0.2,0.4,0.4,0.8,0.6,1.3c0.3,0.8,0.6,1.5,0.9,2.3c0.2,0.4,0.3,0.7,0.5,1.1c0.4,1.1,0.8,2.1,1.2,3.2l0.1,0.2
	c1.8,5.3,2.9,10.7,3.4,15.8c0.1,0.9,0.2,1.9,0.3,2.9c0.1,1,0.1,2,0.1,3C378.4,442,375.7,451,370.5,458.6 M573.5,423.4h-180
	c-0.7-5.8-2-11.6-3.9-17.5l-1.4-3.9l-0.6-1.5l-1-2.6l-0.8-1.4l-1.1-2.6l-0.8-1.5c0.2,0.4-1.3-2.5-1.3-2.5l-0.4-0.8l-2.1-3.7l-0.6-1
	l-1.7-2.9l-1-1.5l-1.3-2.1l-1-1.5l-1.8-2.4l-0.9-1.2l-2.7-3.3l-0.5-0.6l-2.4-2.7l-1-1.1l-2.4-2.5l-0.8-0.8l-2.1-2l-1.2-1.1l-3.2-2.9
	l-3.4-2.8l-0.7-0.6c-0.3-0.4-2.8-2.2-2.8-2.2l-1.3-0.9l-2.4-1.6c-0.3-0.2-1.3-0.9-1.3-0.9l-3.9-2.4l-3.8-2.1l-0.8-0.4
	c-0.4-0.2-3.3-1.6-3.3-1.6l-1.6-0.7l-2.7-1.1l-1.6-0.7l-3-1.1c-0.3-0.1-1.2-0.4-1.2-0.4l-4.8-1.4l-0.6-0.1l-3.5-0.8l-1.5-0.3
	l-3.1-0.5l-1.7-0.2l-3.2-0.3c-0.2,0-1.5-0.1-1.5-0.1l-4.7-0.2l-4.7,0.2l-1.2,0.1c-0.3,0-3.5,0.3-3.5,0.3l-1.7,0.2l-3,0.5
	c-0.4,0.1-1.6,0.3-1.6,0.3l-3.6,0.9L277,335l-4.4,1.4l-0.9,0.3l-3.4,1.2l-1.6,0.6l-2.7,1.2l-1.5,0.7l-2.9,1.4
	c-0.3,0.1-1.2,0.6-1.2,0.6l-3.9,2.1l-0.3,0.2l-0.5,0.3l-3,1.9l-0.9,0.6c-0.4,0.2-2.8,2-2.8,2l-1.3,0.9l-2.8,2.2l-0.8,0.6l-3.3,2.7
	l-3.4,3.1l-1,1l-2.2,2.1l-1,1l-2.1,2.2l-1.1,1.3l-2.2,2.5l-0.7,0.8l-2.7,3.4l-0.5,0.7c-0.3,0.3-2.1,2.8-2.1,2.8l-1,1.4l-1.5,2.3
	l-0.9,1.4l-1.6,2.6l-0.7,1.2l-2.1,3.7l-0.1,0.2l-1.9,3.5l-0.6,1.4l-1.2,2.5l-0.6,1.5l-1,2.6l-0.6,1.3l-1.3,3.6
	c-2.1,6.2-3.3,12.1-4.1,17.9h-184V17.3h556.3v406.1H573.5z M305.5,355.4c-1.6-0.7-4-1.1-6.1-1.3l0.1-1.1h1.5v-2.2h-1.5l0.1-1.8h-3.4
	v1.8h-1.6v2.2h1.6v1.1c-2,0.2-4.5,0.6-6.1,1.3c-4.7-0.9-9.2,0.8-11.4,2.9c-1.8,1.7-1.9,3.5-1.8,5c0.1,1.4,0.9,3.5,1.6,4.8l0.3,0.7
	c0.2-0.4,0.3-0.7,0.5-1c0.5-0.7,1-0.7,1.2,0.1c0.1,0.8-0.2,2-0.7,2.7l2.9,6.2c1.5-2.8,14.1-2.8,14.7-2.8s14,0,14.7,3.1l3.2-6.5
	c-0.4-0.7-0.7-1.9-0.6-2.7c0.1-0.8,0.6-0.8,1.2-0.1c0.2,0.3,0.3,0.6,0.4,1l0.3-0.7c0.7-1.3,1.6-3.4,1.7-4.8c0.1-1.5,0.1-3.3-1.6-5
	C314.7,356.2,310.2,354.5,305.5,355.4 M307.4,364.3c0.8,0.2,1.3,1.1,1.2,2c0,0.7-0.7,1.3-1.3,1c-0.8-0.3-1.3-1.1-1.2-2
	C306.1,364.5,306.8,364.1,307.4,364.3 M297.7,363.2c0.9,0,1.5,0.7,1.5,1.5c0,0.9-0.7,1.5-1.5,1.5c-0.9,0-1.5-0.6-1.5-1.5
	C296.2,363.9,296.8,363.2,297.7,363.2 M288,364.3c0.7-0.3,1.4,0.2,1.4,1c0.1,0.8-0.5,1.7-1.2,2c-0.7,0.2-1.3-0.3-1.4-1
	C286.7,365.4,287.2,364.6,288,364.3 M282.5,371.2c-0.3,0.3-1.2,0.8-1.3,0.3c0.2-0.3,0.4-0.4,0.6-0.8c0.2-0.5,0.5-1,0.6-1.6
	c0.1-0.7,0.2-1.6,0.1-2.2s-0.4-1-0.7-1.1c-0.3-0.1-0.5,0.1-0.8,0.5c-0.5-0.9-0.8-1.9-0.9-3v-0.1c-0.1-0.7,0-1.7,1.1-2.9
	c1.1-1.1,3.5-2.3,5.7-2.4c-0.5,0.9-0.9,2.1-0.9,3.2c0,0.7,0.1,1.6,0.3,2.4c-0.2,0.3-0.3,0.6-0.3,0.9h-0.3c-0.9,0.2-1.6,1.4-1.5,2.6
	c0.1,1.1,0.9,1.9,1.8,1.8c0.4-0.1,0.9-0.3,1.3-0.6c0,0.4-0.5,1.2-1.1,1.4c-1,0.4-1.9,0.5-2.5-0.1
	C283.7,370.2,283.3,370.5,282.5,371.2 M286.5,373.8c-1.7,0.4-3,0.1-3.1-0.7c-0.1-0.7,1.2-1.6,2.9-2c1.6-0.4,3-0.1,3,0.7
	C289.4,372.5,288.1,373.4,286.5,373.8 M292.5,367.6c-0.1,0.6-1.4,1.1-2.5,1c-0.4,0-0.8-0.4-0.9-0.8c0.4,0,0.8,0,1.3-0.2
	c0.4-0.1,0.8-0.3,1-0.8c0.4-0.5,0.6-1.1,0.6-1.8c0-0.6-0.3-1.1-0.6-1.4c-0.3-0.2-0.7-0.3-1.2-0.2l-0.3,0.2c-0.1-0.5-0.4-0.9-0.8-1
	c-0.1-0.5-0.1-0.9,0-1.3c0.1-1.2,1-2.8,3-3.3l0.2-0.2c1-0.3,2-0.6,3.8-0.7v5c-0.5,0.3-0.7,0.7-0.7,1.1l-0.4-0.1c-1.1,0-2,1-2,2.1
	c0,0.5,0.2,0.9,0.4,1.3l0.4,0.4c0.4,0.4,0.8,0.5,1.3,0.5h0.5l0.2-0.1c0.3-0.1,0.6-0.1,0.8-0.2c0,0.3-0.2,0.8-0.5,1l-0.1,0.1
	l-0.2,0.1h-0.1C295,368.4,293.1,368.2,292.5,367.6L292.5,367.6z M297.4,372.7l-4.4-1.6l4.4-1.6l4.3,1.6L297.4,372.7z M302.6,367.6
	L302.6,367.6c-0.6,0.6-2.4,0.8-3,0.7h-0.2l-0.2-0.1l-0.1-0.1c-0.3-0.2-0.5-0.7-0.5-1c0.2,0.1,0.5,0.1,0.8,0.2l0.2,0.1h0.5
	c0.5,0,0.9-0.1,1.3-0.5l0.4-0.4c0.2-0.3,0.4-0.8,0.5-1.3c0-1.2-0.9-2.1-2-2.1l-0.4,0.1c0-0.4-0.2-0.8-0.6-1.1c0-1.5,0.1-3.4,0.1-5.1
	l0,0c1.7,0.1,2.7,0.4,3.7,0.7l0.2,0.2c2,0.5,2.8,2.2,3,3.3c0.1,0.4,0.1,0.9,0,1.3c-0.6,0.1-1,0.5-1,1.1l-0.4-0.2
	c-0.4-0.1-0.8,0-1.1,0.2c-0.3,0.3-0.6,0.8-0.6,1.4c-0.1,0.7,0.2,1.3,0.5,1.8c0.3,0.4,0.7,0.7,1.1,0.8c0.4,0.2,0.9,0.2,1.3,0.2
	c0,0.4-0.4,0.8-0.9,0.8C304,368.7,302.7,368.2,302.6,367.6 M308.4,373.8c-1.7-0.4-2.9-1.3-2.9-2s1.4-1,3-0.7c1.7,0.3,3,1.3,2.9,2
	C311.4,373.9,310,374.1,308.4,373.8 M315.2,363.3c-0.2,1.2-0.5,2.1-1,3v-0.1c-0.3-0.4-0.6-0.6-0.8-0.5c-0.3,0.1-0.6,0.5-0.7,1.1
	c-0.1,0.7-0.1,1.5,0,2.2c0.2,0.6,0.4,1.1,0.6,1.6c0.1,0.4,0.3,0.6,0.6,0.8c-0.1,0.4-1-0.1-1.3-0.3c-0.7-0.7-1.1-1-1.3-1.6
	c-0.7,0.6-1.6,0.5-2.5,0.1c-0.7-0.2-1.2-1-1.1-1.4c0.4,0.3,0.9,0.5,1.3,0.6c0.9,0.1,1.6-0.6,1.8-1.8c0.1-1.2-0.6-2.4-1.5-2.6h-0.2
	l-0.2-0.7c0.2-0.9,0.4-1.8,0.4-2.6c0-1.1-0.2-2.3-0.8-3.2c2.2,0.1,4.6,1.3,5.7,2.4C315.2,361.5,315.3,362.6,315.2,363.3L315.2,363.3
	z"/>
</svg>
