<?xml version="1.0" encoding="utf-8"?>
<!-- Generator: Adobe Illustrator 24.0.1, SVG Export Plug-In . SVG Version: 6.00 Build 0)  -->
<svg version="1.1" id="Layer_1" xmlns="http://www.w3.org/2000/svg" xmlns:xlink="http://www.w3.org/1999/xlink" x="0px" y="0px"
	 viewBox="0 0 551.8 55.7" style="enable-background:new 0 0 551.8 55.7;" xml:space="preserve">
<style type="text/css">
	.st0{fill:#FFFFFF;}
</style>
<path class="st0" d="M389.5,55.7l0-43.3c17,0.1,54.6,0,54.6,0c10.1,0.1,17.5,10.4,18.3,19.1c1,10.9-4.5,18.2-13.2,23.8
	c-0.6,0.4-1.5,0.3-2.2,0.3c-18.7,0-37.4,0-56.1,0H389.5z M415.1,34c0,3.3,0.1,6.7,0,10c-0.1,2.4,0.8,3.4,3.2,3.4l8.2,0
	c4,0.2,6.4-1.8,6.7-5.4c0.4-5.4,0.4-10.8,0.2-16.2c-0.1-3.1-2.2-4.9-5.5-4.8c-3.1,0-6.3,0.1-9.4,0c-2.7-0.2-3.5,1.2-3.4,3.6
	C415.1,27.6,415.1,30.8,415.1,34z"/>
<path class="st0" d="M322.9,55.7c-4.3,0-8.5,0-12.4,0c0,0,0-27.1,0-38.2c0-2.2,0-5,0-5h12.4c0,0,8.8,2.8,16.5,5.7
	c8.5,3.2,16.9,6.5,25.4,9.8c0.3,0.1,7.8,2.9,7.8,2.9V12.4h12.7v43.3h-12.7c0,0-1.8-1.1-3-1.6c-9.8-4.5-20.1-7.7-30.2-11.5
	c-4.4-1.7-8.8-3.3-13-5.2c-2.9-1.3-3.5-0.3-3.5,2.4C323,44.8,322.9,50.1,322.9,55.7z"/>
<path class="st0" d="M548.8,55.7c-10.2,0-19.7,0-29.3,0c-0.6,0-1.3-0.6-1.7-1c-7.1-7.4-14.1-15-21.3-22.3c-2.1-2.3-3.1-1.4-3.6-0.9
	c-5.1,5-10.4,10.7-15.5,16h27.6v8.3c-14.5,0-30.3,0-45.8,0l3.4-4c11.9-12,23.8-24,35.7-35.9c4.6-4.6,9.6-4.6,14.3,0.1
	c11.7,11.8,27.6,27.9,39.2,39.8L548.8,55.7z"/>
<path class="st0" d="M306.2,55.7H255c-3.1-0.1-6.5-3.5-9-6c-10.8-11.2-7.6-29.9,7-36.1c2.4-1,5.4-1.1,8.1-1.1h45.1v8.4
	c0,0-21.6,0-29.9,0c-6.1,0-7.3,1.1-7.5,7c-0.2,4.7,0,9.4,0.3,14.1c0.2,3.5,2.2,5.3,5.9,5.3c8.4,0.1,23,0.1,31.4,0V55.7z"/>
<path class="st0" d="M187.1,55.7c-8.4,0-17,0-25.6,0c0-1.5,0-34.9,0-34.9s-2.3,0-3.7,0H142c0,0,0-2.9,0-4.4c0-1.4,0-3.5,0-4
	c0,0,2.6,0,4.1,0c18.7,0,37.4,0,56.2,0c1.5,0,4.1,0,4.1,0c0,0.7,0,8.4,0,8.4h-19.3V55.7z"/>
<path class="st0" d="M234.8,55.7h-25.6c0-1.6,0-3.2,0-4.6V12.4c7.2,0,25.6,0,25.6,0c0,0.4,0,2.2,0,3.3c0,12.6,0,25.2,0,37.8
	C234.8,54.2,234.8,54.9,234.8,55.7z"/>
<path class="st0" d="M288.5,36.3c-4.2,0-16.7,0-16.7,0V28l34.5,0v8.4C306.2,36.4,288.5,36.3,288.5,36.3z"/>
<path class="st0" d="M306.2,36.4"/>
<path class="st0" d="M137.1,14c-2-5.8-6.1-10.3-11.6-13c-2.3-1.2-5.4-0.9-8.2-1c0.1,0-50.6,0-51.1,0C66.1,13.8,66,36.1,66,49.9H44.4
	c0-10.3,0-39.6,0-39.6h19.1V0H0v10.4h18.6c0,0-0.1,43.8,0,45.3h2.7c33.6,0,67.3,0.1,100.8,0.1c2.2-0.1,10.5-6.9,13-11
	C140.9,35,140.8,24.4,137.1,14z M109.4,40.4c-0.1,2.8-2.5,4.7-5.8,4.7c-2.9,0-5.7-0.1-8.6,0c-2.4,0.1-3.3-1-3.2-3.4
	c0.1-4.7,0-9.4,0-14.1h0c0-4.5,0.2-8.9-0.1-13.3c-0.1-2.9,0.8-4.2,3.8-4c2.9,0.1,5.7,0,8.6,0.1c3.1,0,5.4,1.6,5.5,4.5
	C109.8,23.4,109.8,31.9,109.4,40.4z"/>
</svg>
