<?xml version="1.0" encoding="utf-8"?>
<!-- Generator: Adobe Illustrator 24.0.1, SVG Export Plug-In . SVG Version: 6.00 Build 0)  -->
<svg version="1.1"
	 id="Layer_1" xmlns:cc="http://creativecommons.org/ns#" xmlns:dc="http://purl.org/dc/elements/1.1/" xmlns:inkscape="http://www.inkscape.org/namespaces/inkscape" xmlns:rdf="http://www.w3.org/1999/02/22-rdf-syntax-ns#" xmlns:sodipodi="http://sodipodi.sourceforge.net/DTD/sodipodi-0.dtd" xmlns:svg="http://www.w3.org/2000/svg"
	 xmlns="http://www.w3.org/2000/svg" xmlns:xlink="http://www.w3.org/1999/xlink" x="0px" y="0px" viewBox="0 0 99.8 25.1"
	 style="enable-background:new 0 0 99.8 25.1;" xml:space="preserve">
<style type="text/css">
	.st0{fill:#FFFFFF;}
</style>
<title  id="title4186">Wanda Group logo</title>
<sodipodi:namedview  bordercolor="#666666" borderopacity="1" gridtolerance="10" guidetolerance="10" id="namedview35" inkscape:current-layer="Layer_1" inkscape:cx="99.332265" inkscape:cy="19.596334" inkscape:pageopacity="0" inkscape:pageshadow="2" inkscape:showpageshadow="false" inkscape:window-height="705" inkscape:window-maximized="1" inkscape:window-width="1366" inkscape:window-x="-8" inkscape:window-y="-8" inkscape:zoom="1" objecttolerance="10" pagecolor="#ffffff" showgrid="false">
	</sodipodi:namedview>
<g id="g3" transform="matrix(0.08328067,0,0,0.08315353,32.266371,-29.033444)">
	<path id="polyline7" inkscape:connector-curvature="0" class="st0" d="M626.3,565.2c-6.2,0-11.7,1-16.5,3c-3.6,1.5-6.9,3.8-9.9,6.9
		c-3,3.1-5.4,6.6-7.1,10.5c-2.3,5.3-3.5,11.9-3.5,19.7c0,12.2,3.4,21.8,10.1,28.7c6.7,7,15.8,10.4,27.2,10.4
		c11.3,0,20.3-3.5,27-10.5c6.7-7,10.1-16.7,10.1-29c0-12.5-3.4-22.2-10.1-29.2C646.7,568.7,637.6,565.2,626.3,565.2z M467.2,565.2
		c-7.3,0-13.5,1.3-18.3,3.8c-6.4,3.3-11.3,8.1-14.7,14.3c-3.3,6.2-5,13.3-5,21.3c0,7.4,1.5,14.2,4.5,20.4c3,6.2,7.5,11,13.4,14.4
		c6,3.4,12.9,5,21,5c6.3,0,12.5-1.2,18.7-3.6c6.2-2.4,10.9-5.1,14.1-8.3v-30.5h-33.4V615l17.7,0v9.7c-2.3,1.8-5.1,3.4-8.4,4.6
		c-3.3,1.3-6.5,1.9-9.8,1.9c-6.6,0-11.9-2.3-15.9-6.8c-4.1-4.6-6.1-11.4-6.1-20.5c0-8.5,2-14.8,6-19.1c4-4.3,9.4-6.4,16.1-6.4
		c4.5,0,8.2,1.1,11.2,3.3c3,2.2,5,5.2,6.1,8.9l15.4-2.9c-1.5-7-5-12.6-10.3-16.5C484.2,567.2,476.7,565.2,467.2,565.2z M118.9,566.5
		L89,643.1h16.4l6.3-17.4h30.6l6.7,17.4h16.8l-30.7-76.6H118.9z M350.8,566.5L321,643.1h16.4l6.3-17.4h30.6l6.7,17.4h16.8
		l-30.7-76.6H350.8z M515.2,566.5v76.6h15.5v-32h3.1c3.6,0,6.2,0.3,7.8,0.9c1.6,0.6,3.2,1.6,4.7,3.2c1.5,1.6,4.2,5.3,8.1,11.3
		l11.2,16.7H584l-9.3-14.9c-3.7-6-6.6-10.1-8.8-12.4c-2.2-2.4-4.9-4.5-8.3-6.4c6.7-1,11.8-3.3,15.2-7.1c3.4-3.7,5.1-8.5,5.1-14.2
		c0-4.5-1.1-8.6-3.3-12.1c-2.2-3.5-5.2-6-8.9-7.3c-3.7-1.4-9.7-2.1-17.8-2.1H515.2z M-5.7,566.5l18.3,76.6h16.8l15.2-57.3l15.3,57.3
		h16.4l18.6-76.6H79.3l-11.8,53.5l-13.4-53.5H35.7l-14,52.6l-11.6-52.6H-5.7z M174.3,566.5v76.6h14.4v-50l30.9,50h15.5v-76.6h-14.4
		v51.2l-31.4-51.2H174.3z M251.4,566.5v76.6h29.1c5.7,0,10.3-0.6,13.7-1.6c4.6-1.5,8.2-3.5,10.9-6.1c3.6-3.4,6.3-8,8.2-13.5
		c1.6-4.6,2.4-10,2.4-16.3c0-7.2-0.8-13.2-2.5-18.1c-1.7-4.9-4.1-9-7.3-12.4c-3.2-3.4-7-5.7-11.5-7c-3.3-1-8.2-1.5-14.6-1.5H251.4z
		 M675.6,566.5v40.9c0,8.6,0.5,15.1,1.5,19.4c0.7,3,2.2,5.8,4.3,8.5c2.2,2.7,5.2,4.9,9,6.6c3.8,1.7,9.3,2.5,16.6,2.5
		c6.1,0,11-0.8,14.7-2.3c3.8-1.5,6.8-3.6,9-6.2c2.2-2.6,3.8-5.8,4.6-9.6c0.8-3.8,1.2-10.3,1.2-19.5v-40.2h-15.4v42.4
		c0,6.1-0.2,10.4-0.7,13c-0.5,2.6-1.8,4.8-4,6.6c-2.2,1.8-5.5,2.7-9.9,2.7c-4.3,0-7.7-0.9-10.2-2.9c-2.5-1.9-4.1-4.4-4.7-7.6
		c-0.4-1.9-0.6-6.2-0.6-12.8v-41.5H675.6z M753,566.5v76.6h15.5v-28.9h10.1c7,0,12.4-0.4,16-1.1c2.7-0.6,5.4-1.8,8-3.6
		c2.6-1.8,4.8-4.4,6.5-7.6c1.7-3.2,2.6-7.1,2.6-11.9c0-6.1-1.5-11.1-4.4-14.9c-3-3.8-6.6-6.4-11-7.5c-2.9-0.8-9-1.1-18.4-1.1H753z
		 M626.5,578.4c6.4,0,11.5,2.2,15.3,6.5c3.8,4.3,5.8,10.9,5.8,19.7c0,8.9-2,15.6-5.9,20c-4,4.5-9,6.7-15.2,6.7
		c-6.2,0-11.2-2.2-15.3-6.7c-4-4.5-6-11.1-6-19.7c0-8.8,1.9-15.4,5.9-19.8C615,580.6,620.1,578.4,626.5,578.4z M266.9,579.5h6.9
		c6.3,0,10.5,0.2,12.7,0.7c2.9,0.6,5.3,1.8,7.2,3.6c1.9,1.8,3.4,4.3,4.4,7.4c1,3.2,1.6,7.7,1.6,13.7c0,5.9-0.5,10.6-1.6,14
		c-1,3.4-2.4,5.9-4.1,7.4c-1.7,1.5-3.7,2.6-6.2,3.2c-1.9,0.5-5,0.7-9.3,0.7h-11.6V579.5z M768.5,579.5h7.5c5.6,0,9.3,0.2,11.1,0.5
		c2.5,0.5,4.6,1.6,6.2,3.4c1.6,1.8,2.4,4.1,2.4,6.9c0,2.3-0.6,4.2-1.8,6c-1.2,1.7-2.8,3-4.8,3.8c-2,0.8-6.1,1.2-12.2,1.2h-8.5V579.5
		z M530.6,579.5h12.1c6.3,0,10,0.1,11.3,0.2c2.5,0.4,4.5,1.4,5.8,3c1.4,1.6,2.1,3.7,2.1,6.2c0,2.3-0.5,4.2-1.6,5.7
		c-1.1,1.5-2.5,2.6-4.4,3.2c-1.8,0.6-6.5,0.9-13.9,0.9h-11.4V579.5z M126.9,584.4l10.6,28.5h-20.9L126.9,584.4z M358.8,584.4
		l10.6,28.5h-20.9L358.8,584.4z"/>
	<path id="path27" inkscape:connector-curvature="0" class="st0" d="M646.9,362.6c-5.3,0-9.6,4.3-9.6,9.5v135.9c0,5,3.9,9,8.8,9.4
		h156.1c4.8-0.4,8.6-4.3,8.8-9.2l-0.2-137.2c-0.6-4.7-4.5-8.4-9.4-8.4H646.9z M313.7,362.7v31.2h-49.3v17.7h49.2
		c-2.6,38-43.3,49.3-49.2,49.3v20.9c5,0.6,44-2.7,63.6-34.8c19.7,32.2,58.8,35.4,63.8,34.8V461c-5.9,0-46.6-10.5-49.2-49.3h49.2
		v-17.7h-49.3v-31.2H313.7z M515.9,362.9c0,0-7.5,0.1-7.5,6.9v6.1h-47.3l0.1-8.4c0,0,0-5.5-8.5-2.4c-5.6,2.1-18.3,7.1-26.4,10.3
		c-7.5,3.2-7.2,10-7.2,10v15.7l12.6-4.6v50.9c0,0-0.7,11.1,9.6,11.1h56.8l0,7.8h-79v15.7h42.5c-11.8,10.9-33.3,15-42.5,15.7v19.9
		c5.5-0.1,49.1-0.4,78.5-35.7h0.6l0.1,35.7h11.3c17.9,0,17.6-12.5,17.6-12.5v-23.2h0.6c30.3,36.3,73,35.5,78.5,35.7v-20.4
		c-7.5-0.4-31.9-3.8-42.6-15.2h42.5v-15.7h-79v-7.8h79.1v-15.1h-68.9V436h68.9v-15.1h-68.9v-7.3h68.9v-15.1h-68.9v-7.4h68.9v-10
		c0,0,0.4-5.1-5.4-5.1h-63.5v-13C537.3,362.9,515.9,362.9,515.9,362.9z M218.5,367.2l-8.9,20.8l0.1,0l0.1-0.4c0,0,11,2.5,20.3,6.7
		c10.1,3.7,18.9,8.3,19.4,8.6l8.8-20.5c0,0-10.5-6.5-19.4-9.4C229.6,369.3,218.5,367.2,218.5,367.2z M-0.5,370.4
		c-6.1,0-5.8,5.6-5.8,5.6v12.2h51v35.3c0,62.4-47.2,68-47.2,68l0,24.6c0,0,67.5-3.7,75.3-79.1h63.3v57.3h-34.7v15.4
		c0,0-0.2,6.1,6.2,6.1h41.7c16.4,0,15.7-12.5,15.7-12.5v-78.6c0,0,0.2-9.1-11.1-9.1H73.5v-27.3h107.1v-12.2c0,0,0.7-5.5-5.3-5.5
		C175.3,370.4-0.5,370.4-0.5,370.4z M666.1,378.2h115.7v124.6H666.1V378.2z M729.3,389.4v15.1H677v15.6h52
		c-15.8,29.3-46.3,39.3-51.4,40.9v23.9c6.2-0.9,40.1-11,51.6-28.6v36.4h11.3c18.4,0,17.6-12.5,17.6-12.5v-60h15.6v-15.6h-15.6v-15.1
		H729.3z M460.6,391.1h47.8v7.4h-47.8V391.1z M205.1,409.5v17.7h21v29.7c0,28.6-21,33.5-21,33.5l0,24.7c0,0,20.5-0.2,34.8-20.2
		c5.7,12.2,17.3,22.2,36.4,22.6c7,0.1,84,0,108.3,0c7.8,0,7.3-6.3,7.3-6.3v-13.8c0,0-104.7,0.2-109.9,0c-21-0.7-29.3-14.9-28.5-46.7
		l-0.1,0.1c0.2-2.8,0.4-5.5,0.4-8.5v-23.2c0,0,0.9-9.6-8.3-9.6C245.4,409.5,205.1,409.5,205.1,409.5z M460.6,413.6h47.8v7.3h-47.8
		V413.6z M460.6,436h47.8v7.4h-47.8V436z"/>
</g>
<path id="path5" inkscape:connector-curvature="0" class="st0" d="M12.3,0C5.3,0.2-0.2,5.9,0,12.8c0.1,6.9,5.9,12.4,12.8,12.3
	c6.9-0.2,12.4-5.9,12.3-12.8C24.9,5.3,19.2-0.2,12.3,0 M12.8,22.8c-3.7,0.1-7-1.8-8.9-4.7c0.9,0.4,1.9,0.7,3,0.8
	c2.3,0.2,4.4-0.5,5.6-1.6c1.2,1.1,3.3,1.8,5.6,1.6c1.1-0.1,2.2-0.4,3.1-0.8C19.4,20.8,16.3,22.7,12.8,22.8 M11.8,6.4
	c0,0,2.5-0.6,2.4,2.9c0,1.7-0.3,3.3-0.7,4.2c-0.3,0.7-0.6,0.8-0.9,0.8C12.6,10.4,11.8,6.4,11.8,6.4 M19.1,15.4
	c-2,0.8-3.9,0.9-5.3,0.4c1.3-1.6,1.8-3.6,2-4.9C16,9.8,16.1,8.6,16,7.3c-0.2-2.9-2.6-3.1-3.5-3.2c-0.8-0.1-2.8-0.2-2.8-0.2
	s1.2,4.9,1.5,12c-1.4,0.4-3.3,0.3-5.2-0.5c-1.7-0.6-3-1.6-3.8-2.7l0-0.1C2,6.9,6.6,2.2,12.3,2C18,1.9,22.8,6.5,22.9,12.2
	c0,0.2,0,0.4,0,0.5C22.1,13.8,20.8,14.8,19.1,15.4"/>
</svg>
