<?xml version="1.0" encoding="utf-8"?>
<!-- Generator: Adobe Illustrator 24.0.1, SVG Export Plug-In . SVG Version: 6.00 Build 0)  -->
<svg version="1.1" id="Layer_1" xmlns="http://www.w3.org/2000/svg" xmlns:xlink="http://www.w3.org/1999/xlink" x="0px" y="0px"
	 viewBox="0 0 568.3 566.9" style="enable-background:new 0 0 568.3 566.9;" xml:space="preserve">
<style type="text/css">
	.st0{fill-rule:evenodd;clip-rule:evenodd;fill:#0232A0;}
	.st1{fill-rule:evenodd;clip-rule:evenodd;fill:#FFFFFF;}
	.st2{fill-rule:evenodd;clip-rule:evenodd;fill:#D9E0E7;}
	.st3{fill-rule:evenodd;clip-rule:evenodd;fill:#082E86;}
	.st4{fill:#FFFFFF;}
</style>
<path class="st0" d="M284.2,0c156.9,0,284.2,126.9,284.2,283.5S441.1,566.9,284.2,566.9C127.2,566.9,0,440,0,283.5S127.2,0,284.2,0"
	/>
<path class="st1" d="M284.2,7.5c152.8,0,276.6,123.5,276.6,275.9S437,559.4,284.2,559.4S7.5,435.9,7.5,283.5S131.4,7.5,284.2,7.5"/>
<path class="st0" d="M284.3,15.1C432.7,15.1,553,135.1,553,283.2c0,148.1-120.3,268.2-268.6,268.2S15.7,431.4,15.7,283.2
	C15.7,135.1,135.9,15.1,284.3,15.1"/>
<path class="st1" d="M284.4,96.3c103.5,0,187.4,83.7,187.4,187c0,103.3-83.9,187-187.4,187c-103.5,0-187.4-83.7-187.4-187
	C97,180,180.9,96.3,284.4,96.3"/>
<path class="st0" d="M284,104.1c99.1,0,179.5,80.2,179.5,179.1c0,98.9-80.4,179.1-179.5,179.1c-99.1,0-179.5-80.2-179.5-179.1
	C104.5,184.3,184.8,104.1,284,104.1"/>
<path class="st1" d="M284,111.1c95.2,0,172.4,77.1,172.4,172.1c0,95.1-77.2,172.1-172.4,172.1s-172.4-77.1-172.4-172.1
	C111.6,188.1,188.8,111.1,284,111.1"/>
<path class="st1" d="M324.1,360.3c-22.5,7.1-44.1,16.7-64.2,29.4c-25,15.8-44.4,32.3-61.1,57.1l-8.9,13.2L78.5,178.2l8.8-2.6
	c38.2-11.4,79-13.9,118.6-9.5c28.7,3.2,56.6,10.1,83.6,20.3l3.4,1.3l4.4,10.5c18.2,5.7,36.6,10.7,55.3,14.5
	c16.9,3.4,34.5,5.9,51.8,6.1c27.4,0.3,45.7-3.7,58.7-18.1c6.1-6.8,10.5-14.5,14.4-28.2c7.4,15.5,11.6,31.5,12,49.4
	c0.4,21.6-5.1,43.9-15.2,62c-11.3,20.2-27.1,36.4-45.9,49.7c-26.8,19-58.9,31.7-90.3,40.7l-7.3,2.1L324.1,360.3z"/>
<path class="st0" d="M89.7,183.6l102.3,258.6c17.8-26.5,38.1-43.5,63.6-59.5c21.5-13.5,45.9-24.5,73.6-32.5l6.4,16.1
	c35-10.1,64.5-23,87.8-39.5c18.6-13.2,33.2-28.5,43.5-47c13.2-23.7,18.8-57,9.9-84.9c-11.7,23.8-37.9,32.7-72.4,32.3
	c-32.5-0.4-72-8.9-113.2-22.1l-4.5-10.7c-27-10.3-54.2-16.8-81.5-19.8C167,170.2,127.2,172.4,89.7,183.6"/>
<path class="st1" d="M162.2,337.9l32.9,82.3c15.6-18.8,30.2-31.2,53.8-46.1c26.9-17,59.5-29.4,85.5-35.4l6,15
	c28-7.3,53.7-16.6,77.1-33.2c16.9-12,32.3-26.8,42.4-44.9c4.2-7.6,7.8-15.8,10.1-24.6c-16.2,17.7-36.5,30.5-57.4,40
	c-26.8,12.1-56.2,19.2-88,22.9l-4.7-11.8c-35.1-0.5-60.8,1.8-89.1,8.2C206.6,315.7,180,325.2,162.2,337.9 M460.6,221.1
	c-5.6,5-12.8,8-21.7,10.2c-10.5,2.5-22.8,3.5-34.8,3.4c-18.3-0.2-38.1-2.7-56-6.3c-21.7-4.4-40.1-8.5-63.5-15.7l-5.1-12.9
	c-24.8-9.2-49.1-13.6-75.4-16.5c-34.7-3.9-70.8-0.4-100.5,7.7l20.3,50.9c17.6-6.5,38.4-10.5,62.6-12.5c30.2-2.4,65.5-1.4,106.2,3.8
	l4.4,11.2c44.1,4.8,82.2,5.4,111.6-0.2C430.8,240,451,232.6,460.6,221.1z"/>
<path class="st2" d="M324.5,313.8l15.8,39.9c6.4-1.7,12.7-3.4,18.9-5.4l-15.7-37.2C337.3,312.2,330.9,313.1,324.5,313.8
	 M304.2,218.3c-6.3-1.7-12.8-3.5-19.7-5.7l12.6,31.8c6.4,0.7,12.8,1.3,18.9,1.8L304.2,218.3z"/>
<path class="st3" d="M297.1,244.4l27.5,69.4c6.4-0.7,12.7-1.6,18.9-2.7L316,246.3C309.8,245.8,303.5,245.1,297.1,244.4"/>
<polygon class="st4" points="529.8,270.1 525.5,270.1 518.9,272.3 519.9,276.5 524.5,275.2 524.5,297.2 529.8,297.2 "/>
<polygon class="st4" points="47.8,269.9 43.5,269.9 36.8,272.1 37.8,276.4 42.5,275.1 42.5,297 47.8,297 "/>
<path class="st4" d="M65.4,283.3c-2.5-0.1-5-1.5-5.2-4.4c-0.1-3.1,1.8-4.9,4.8-4.9c3.6,0,5.5,2.2,5.4,4.7
	C70.3,281.2,68.4,283.5,65.4,283.3 M76,282.9c0-3.9-0.6-7.1-2.5-9.6c-1.7-2.3-4.6-3.9-8.6-3.9c-5.4,0-10,4-10,9.7
	c0,5.4,4.6,8.5,9.7,8.5c2.6,0,4.7-1,5.9-2.3c-0.2,4.1-2.4,7.3-5.9,7.4c-2.4,0.1-4.3-0.9-6.2-2.7l-2.7,4c2.9,2.1,5.4,3.3,9,3.3
	c2.9,0,5.7-1.4,7.7-3.6C75,290.8,76,286.6,76,282.9z"/>
<path class="st4" d="M503.3,292.4c3.2-2.9,7.8-5.8,10.2-9.5c0.8-1.3,1.5-3,1.5-4.6c0-3.2-1.7-6-4.3-7.4c-1.5-0.8-3.5-1.2-5.3-1.2
	c-1.7,0-3.7,0.7-5.3,1.6c-1.7,1-2.9,2.5-4.2,4.4l3.7,2.8c1.5-2.2,3.2-4.2,5.9-4.1c2.3,0,4,1.7,4,4.1c0,2.1-1.4,3.9-2.9,5.2
	l-11.1,9.3v4h19.6v-4.7H503.3z"/>
<path class="st4" d="M295.5,43.3c4.1,0.1,7.7,1.3,7.6,5.7c-0.2,4.4-3.9,5.3-8,5.1l-6.9-0.2l0.4-10.8L295.5,43.3z M278.7,73.5
	l8.8,0.3l0.4-12.1l6.5,0.2l7.8,12.4l10.3,0.4l-9-14.1c4.9-1.3,8.4-5.8,8.6-11.6c0.2-4.5-1.4-7.7-3.7-9.8c-3.1-2.9-7.7-3.7-13.1-3.9
	l-15.3-0.5L278.7,73.5z"/>
<path class="st4" d="M193.4,61.8c3.8-1.6,6.8-1.2,8.3,2.4c1.5,3.7-0.2,6.2-4.2,7.9l-5.6,2.3l-4.3-10.2L193.4,61.8z M191.5,96
	l8.1-3.4l-4.5-10.7l4.3-1.9c6.9-3,9.7-5.9,10.9-9.2c1.3-3.2,1.1-6.6-0.4-10.2c-1.7-4.2-5-6.5-8-7.5c-4-1.3-8.2-0.3-13.1,1.8
	l-12.5,5.2L191.5,96z"/>
<path class="st4" d="M111.3,117.4c4.5-4.6,11.4-4.6,16.1,0c4.7,4.6,4.9,11.4,0.3,16l-4.6,4.7l-16.4-16L111.3,117.4z M122.6,149.9
	l9.6-9.8c3.1-3.2,5.8-6.6,6.8-11.1c1.4-6.3,0-13-5.2-18.1c-5.1-4.9-10.9-6.4-16.7-5.4c-5.1,0.9-8.8,3.6-12.3,7.2l-9.9,10.1
	L122.6,149.9z"/>
<path class="st1" d="M241.3,46.9c6.4-1.5,12.3,2.5,13.8,8.9c1.5,6.4-1.9,12.6-8.3,14.2c-6.4,1.6-12.3-2.5-13.8-8.9
	C231.5,54.7,234.8,48.5,241.3,46.9 M239.4,38.9c11.5-2.7,22.3,3.9,24.8,14.8c2.6,10.8-4.1,21.6-15.5,24.4
	c-11.4,2.8-22.3-3.9-24.8-14.8C221.3,52.5,227.9,41.7,239.4,38.9z"/>
<path class="st1" d="M457.6,112.8c4.3,5,3.3,12.1-1.7,16.3c-5,4.2-12.1,4-16.4-1c-4.3-5-3.3-12.1,1.7-16.3
	C446.2,107.5,453.3,107.7,457.6,112.8 M463.8,107.5c7.6,9,6.5,21.7-2,28.8c-8.5,7.2-21.1,6-28.8-2.9c-7.6-8.9-6.5-21.7,2-28.8
	C443.6,97.4,456.2,98.4,463.8,107.5z"/>
<polygon class="st4" points="360.1,45.7 328.8,38.2 326.9,46.1 338.2,48.8 331.1,78.6 339.8,80.6 346.9,50.8 358.2,53.5 "/>
<rect x="354.5" y="67.1" transform="matrix(0.378 -0.9258 0.9258 0.378 166.3255 390.5718)" class="st4" width="38.7" height="8.8"/>
<polygon class="st4" points="159.3,69.2 134.9,85.5 156.3,117.7 181.1,101.2 176.7,94.6 159.3,106.2 155.1,99.9 170.1,89.8 
	165.8,83.3 150.7,93.4 146.6,87.2 163.7,75.8 "/>
<polygon class="st4" points="434.5,82.4 426.3,77.3 404,94.9 409.5,67.1 401.1,61.9 394.1,103.2 400.8,107.3 "/>
<path class="st4" d="M389.6,464.1c-3.3,2.2-5.9,5.1-6.5,8.8c-0.4,2.5,0,5.5,1.9,8.5c1.7,2.6,4.2,4.1,6.9,4.6
	c2.3,0.4,4.6-0.1,7.1-0.6c3.2-0.7,9.9-3.8,11.8-0.5c1.2,2.1-0.7,4.3-2.3,5.4c-4,2.6-8.8,2.6-12.8,2.1l-1.4,7.9
	c7.7,1.6,14.7-0.7,18.6-3.4c3.1-2.2,5.6-4.8,6.5-8.3c0.7-2.7,0.5-6.1-1.7-9.4c-2.3-3.4-5.6-4.7-9-4.6c-3.1,0-6.5,1.1-9.4,1.9
	c-1.9,0.5-6.6,2.2-7.7-1.1c-0.7-2,0.8-3.7,2.3-4.6c3.3-2.2,6.8-2.2,11.1-1.9l0.5-7.9C399.6,459.9,393.7,461.4,389.6,464.1"/>
<polygon class="st4" points="369.1,475.6 341.3,485.2 354,521.8 382.1,512.1 379.5,504.6 359.7,511.5 357.2,504.3 374.4,498.3 
	371.8,490.9 354.7,496.9 352.2,489.8 371.6,483.1 "/>
<polygon class="st1" points="350.9,479.1 357.3,476.8 362.8,468.9 354.3,468.4 "/>
<polygon class="st4" points="331.7,488 322.1,489.2 315.7,516.8 302.6,491.6 292.9,492.8 313.1,529.5 320.9,528.5 "/>
<path class="st4" d="M268.3,513.7l-3.6-12.1l-5.9,11.1L268.3,513.7z M282.6,531.4l-9.3-0.9l-2.6-8.8l-15.9-1.5l-4.3,8.1l-9-0.9
	l20.3-37.1l7.8,0.8L282.6,531.4z"/>
<path class="st4" d="M177.3,487.2l1.6-12.5l-9.9,7.8L177.3,487.2z M183.2,509.2l-8.1-4.6l1.2-9.1l-13.9-7.8l-7.2,5.7l-7.9-4.4
	l33.6-25.7l6.9,3.9L183.2,509.2z"/>
<polygon class="st4" points="220.1,481.3 211.7,478.7 200.1,515.6 226.8,524 229.2,516.5 210.9,510.7 "/>
<path class="st1" d="M172.6,252.4l6.6,16.6l9.6-2.3l-3.7-9.3l5.8-1c2.8-0.5,6.2-0.9,9-0.5c3.1,0.5,5.8,1.6,8,3
	c5.7,3.8,10.2,12,8.1,18.9c-1,3.2-3.4,5.8-7.7,7.2l-11,3.5l-4.2-10.6l-9.4,2.7l7.3,18.4l21.1-6.4c6.9-2.1,12.9-7.9,13.1-15.5
	l0.4-21.1l13.1,14.7l-5.6,0.6v7.3l11-1.4l6.6,7.7l7.3-1l-32.7-36.6l-6.7,0.6l-0.3,10.6c-3.4-4.8-8.1-7.4-13.8-8.6
	C195.6,248.2,184.4,249.8,172.6,252.4"/>
</svg>
