<?xml version="1.0" encoding="utf-8"?>
<!-- Generator: Adobe Illustrator 24.0.1, SVG Export Plug-In . SVG Version: 6.00 Build 0)  -->
<svg version="1.1" id="Layer_1" xmlns="http://www.w3.org/2000/svg" xmlns:xlink="http://www.w3.org/1999/xlink" x="0px" y="0px"
	 viewBox="0 0 1967.3 2279.5" style="enable-background:new 0 0 1967.3 2279.5;" xml:space="preserve">
<style type="text/css">
	.st0{fill-rule:evenodd;clip-rule:evenodd;}
	.st1{fill-rule:evenodd;clip-rule:evenodd;fill:#FFFFFF;}
	.st2{fill-rule:evenodd;clip-rule:evenodd;fill:#CD3529;}
	.st3{clip-path:url(#SVGID_2_);}
	.st4{clip-path:url(#SVGID_4_);}
	.st5{clip-path:url(#SVGID_6_);}
	.st6{clip-path:url(#SVGID_8_);}
	.st7{fill-rule:evenodd;clip-rule:evenodd;fill:#B5B8B5;}
	.st8{clip-path:url(#SVGID_10_);}
	.st9{clip-path:url(#SVGID_12_);}
	.st10{clip-path:url(#SVGID_14_);}
	.st11{clip-path:url(#SVGID_16_);}
	.st12{clip-path:url(#SVGID_18_);}
	.st13{clip-path:url(#SVGID_20_);}
	.st14{clip-path:url(#SVGID_22_);}
	.st15{clip-path:url(#SVGID_24_);}
	.st16{clip-path:url(#SVGID_26_);}
	.st17{clip-path:url(#SVGID_28_);}
	.st18{clip-path:url(#SVGID_30_);}
	.st19{clip-path:url(#SVGID_32_);}
	.st20{clip-path:url(#SVGID_34_);}
	.st21{clip-path:url(#SVGID_36_);}
	.st22{clip-path:url(#SVGID_38_);}
	.st23{clip-path:url(#SVGID_40_);}
	.st24{clip-path:url(#SVGID_42_);}
	.st25{clip-path:url(#SVGID_44_);}
	.st26{clip-path:url(#SVGID_46_);}
	.st27{clip-path:url(#SVGID_48_);}
	.st28{clip-path:url(#SVGID_50_);}
	.st29{clip-path:url(#SVGID_52_);}
	.st30{clip-path:url(#SVGID_54_);}
	.st31{clip-path:url(#SVGID_56_);}
	.st32{clip-path:url(#SVGID_58_);}
	.st33{clip-path:url(#SVGID_60_);}
	.st34{clip-path:url(#SVGID_62_);}
	.st35{clip-path:url(#SVGID_64_);}
	.st36{clip-path:url(#SVGID_66_);}
	.st37{clip-path:url(#SVGID_68_);}
	.st38{clip-path:url(#SVGID_70_);}
	.st39{clip-path:url(#SVGID_72_);}
	.st40{clip-path:url(#SVGID_74_);}
	.st41{clip-path:url(#SVGID_76_);}
	.st42{clip-path:url(#SVGID_78_);}
	.st43{clip-path:url(#SVGID_80_);}
	.st44{clip-path:url(#SVGID_82_);}
	.st45{clip-path:url(#SVGID_84_);}
	.st46{clip-path:url(#SVGID_86_);}
	.st47{clip-path:url(#SVGID_88_);}
	.st48{clip-path:url(#SVGID_90_);}
	.st49{clip-path:url(#SVGID_92_);}
	.st50{clip-path:url(#SVGID_94_);}
	.st51{clip-path:url(#SVGID_96_);}
	.st52{clip-path:url(#SVGID_98_);}
	.st53{clip-path:url(#SVGID_100_);}
	.st54{clip-path:url(#SVGID_102_);}
	.st55{clip-path:url(#SVGID_104_);}
	.st56{clip-path:url(#SVGID_106_);}
	.st57{clip-path:url(#SVGID_108_);}
	.st58{clip-path:url(#SVGID_110_);}
	.st59{clip-path:url(#SVGID_112_);}
	.st60{fill-rule:evenodd;clip-rule:evenodd;fill:#C89278;}
	.st61{clip-path:url(#SVGID_114_);}
	.st62{clip-path:url(#SVGID_116_);}
	.st63{clip-path:url(#SVGID_118_);}
	.st64{clip-path:url(#SVGID_120_);}
	.st65{clip-path:url(#SVGID_122_);}
	.st66{clip-path:url(#SVGID_124_);}
	.st67{clip-path:url(#SVGID_126_);}
	.st68{clip-path:url(#SVGID_128_);}
	.st69{fill-rule:evenodd;clip-rule:evenodd;fill:#87675E;}
	.st70{clip-path:url(#SVGID_130_);}
	.st71{clip-path:url(#SVGID_132_);}
	.st72{clip-path:url(#SVGID_134_);}
	.st73{clip-path:url(#SVGID_136_);}
	.st74{clip-path:url(#SVGID_138_);}
	.st75{clip-path:url(#SVGID_140_);}
	.st76{clip-path:url(#SVGID_142_);}
	.st77{clip-path:url(#SVGID_144_);}
	.st78{fill-rule:evenodd;clip-rule:evenodd;fill:#3F645A;}
	.st79{fill-rule:evenodd;clip-rule:evenodd;fill:#577A61;}
	.st80{clip-path:url(#SVGID_146_);}
	.st81{clip-path:url(#SVGID_148_);}
	.st82{clip-path:url(#SVGID_150_);}
	.st83{clip-path:url(#SVGID_152_);}
	.st84{clip-path:url(#SVGID_154_);}
	.st85{clip-path:url(#SVGID_156_);}
	.st86{clip-path:url(#SVGID_158_);}
	.st87{clip-path:url(#SVGID_160_);}
	.st88{fill-rule:evenodd;clip-rule:evenodd;fill:#57696D;}
</style>
<path class="st0" d="M1964.4,140.9L1961.6,0L5.8,0.1L2.9,140.9C-8.4,545.1-34.8,1491.5,958.9,2260.2l24.9,19.2l24.9-19.2
	C2002.2,1491.5,1975.7,545.1,1964.4,140.9L1964.4,140.9z"/>
<path class="st1" d="M1921.8,39.8H45.6c0,342.3-130.7,1361.4,938.1,2188.2C2052.5,1401.2,1921.8,382.1,1921.8,39.8L1921.8,39.8z"/>
<path class="st0" d="M1643.4,309.7H324.1c0,0-103.2,909.1,659.7,1556.4C1746.6,1218.9,1643.4,309.7,1643.4,309.7z"/>
<path class="st1" d="M519.8,1188.9c27.1,59.3,57.3,117.1,90.5,173.3v-241.4L519.8,1188.9z M1065.2,778.2v961.4
	c49.3-50,95.9-102.6,139.7-157.5V673L1065.2,778.2z M1362.5,554.3v798c51.7-88.5,96.1-181.1,132.6-276.9V454.4L1362.5,554.3
	L1362.5,554.3z M767.8,1002.1v587.5c43.4,54,90.1,106,139.7,156.2V896.9L767.8,1002.1z"/>
<path class="st2" d="M610.2,1120.8v241.4c46.6,79,99.4,154.8,157.6,227.3v-587.5L610.2,1120.8z M907.5,896.9v848.8
	c24.5,24.8,49.5,49.3,75.5,73.1c28.1-25.7,55.4-52.1,82.1-79.2V778.2L907.5,896.9z M1204.9,673v909.1
	c58-72.7,110.7-149.5,157.6-229.8v-798L1204.9,673L1204.9,673z M1613.2,365.5l-118.1,89v620.9
	C1621.1,744.6,1619.4,465.9,1613.2,365.5z"/>
<path class="st0" d="M161.9,140.1h0.5l20.4,65.1h-41.9L161.9,140.1L161.9,140.1z M131.6,233.7h60.8l10.5,33.9h37.4l-58-164.6h-39.7
	L84,267.6h36.2L131.6,233.7L131.6,233.7z M311.6,267.6h-34.4V132.1h-49.8V103h133.9v29.1h-49.8L311.6,267.6L311.6,267.6z M415,193.8
	v73.8h-34.4V103H415v62.4h64.2V103h34.4v164.6h-34.4v-73.8L415,193.8L415,193.8z M581.7,237.8h81.8v29.8H547.3V103h34.4V237.8z
	 M808.5,132.1h-87.4v34.6h80.2v29.1h-80.2v42.6h91.2v29.1H687.4V103h121.1L808.5,132.1L808.5,132.1z M910.3,267.6h-34.4V132.1h-49.8
	V103H960v29.1h-49.7V267.6L910.3,267.6z"/>
<path d="M977.7,267.6h34.4V103h-34.4V267.6L977.7,267.6z"/>
<path class="st0" d="M1149.2,156.9c-2.8-9.9-8-28.4-36.5-28.4c-16.5,0-40.8,11-40.8,57.5c0,29.6,11.7,56.2,40.8,56.2
	c19.1,0,32.3-10.8,36.5-31h34.4c-6.9,35.8-30.3,60.8-71.5,60.8c-43.8,0-75.2-29.6-75.2-86.4c0-57.5,33.2-86.9,75.7-86.9
	c49.3,0,69.2,33.9,71.1,58.2H1149.2z M1378.4,156.9c-2.8-9.9-8-28.4-36.5-28.4c-16.5,0-40.8,11-40.8,57.5
	c0,29.6,11.7,56.2,40.8,56.2c19.1,0,32.3-10.8,36.5-31h34.4c-6.9,35.8-30.3,60.8-71.5,60.8c-43.8,0-75.2-29.6-75.2-86.4
	c0-57.5,33.3-86.9,75.7-86.9c49.3,0,69.2,33.9,71.1,58.2H1378.4L1378.4,156.9z M1473.3,237.8h81.8v29.8h-116.2V103h34.4
	L1473.3,237.8L1473.3,237.8z M1710.8,210.1c0,43.3-26.1,61.9-67.6,61.9c-15.1,0-37.6-3.7-52.3-19.9c-8.9-10.1-12.4-23.4-12.8-39.9
	V103h35.1v106.8c0,22.9,13.3,33,29.3,33c23.6,0,33.2-11.5,33.2-31.4V103h35.1L1710.8,210.1L1710.8,210.1z M1777.6,195.2h43.8
	c12.4,0,24.7,5.5,24.7,19.9c0,16.7-9.6,24.1-26.4,24.1h-42.2V195.2L1777.6,195.2z M1744.5,267.6h69.7c33.7,0,42.6-5.7,52-14.9
	c9.1-8.9,14.2-21.2,14.2-33.9c0-16.3-5.3-32.3-25.5-39.9c6.9-3.4,20.2-10.1,20.2-33.7c0-17-10.3-42.2-50.7-42.2h-80L1744.5,267.6
	L1744.5,267.6L1744.5,267.6z M1777.6,131.4h39.4c15.6,0,25.2,4.1,25.2,17.7c0,13.1-10.8,18.3-24.3,18.3h-40.3L1777.6,131.4
	L1777.6,131.4z M1662.9,794.7h49.8l51.2-66.7l53.7,66.7h47.7l-77.4-99.9l73.8-95.6H1813l-49.1,63.2l-49.9-63.2h-47.1l73.8,93.9
	L1662.9,794.7z M312.6,794.7h-49.8l-51.2-66.7l-53.7,66.7h-47.7l77.4-99.9l-73.8-95.6h48.7l49.1,63.2l49.9-63.2h47.1l-73.8,93.9
	L312.6,794.7L312.6,794.7z M1306.1,1691.2c-2.9-56.7,17.1-83.6,31.8-92.7c14.7-9.1,36.2-7.8,39.1,48.8c2.9,56.7-17.1,83.6-31.8,92.7
	C1330.5,1749.1,1309,1747.9,1306.1,1691.2z M1278.8,1708.1c4.9,95,50.9,78.4,68.2,67.8c17.3-10.7,62.2-50.3,57.3-145.4
	c-4.9-95-50.9-78.4-68.2-67.8C1318.8,1573.4,1274,1613.1,1278.8,1708.1L1278.8,1708.1z M632.4,1702.6l37.3,40.1
	c10.5,11.3,21.1,29.5,21.1,47.6c0,20.9-8.2,21.3-22.5,6l-35.9-38.6V1702.6L632.4,1702.6z M604.3,1763l59.4,63.8
	c28.7,30.8,36.3,31.9,44.3,29c7.4-2.6,12.1-13.1,12.1-29.4c0-20.3-4.5-45.3-21.7-73.2c5.8,2,17.2,5.8,17.2-23.6
	c0-21.2-8.8-62.2-43.2-99.1l-68.2-73.2V1763z M632.4,1622.9L666,1659c13.3,14.3,21.5,28.2,21.5,45.1c0,16.3-9.2,13.1-20.7,0.7
	l-34.4-36.9L632.4,1622.9L632.4,1622.9z M782.5,1964.3l-30.6-30.2v-205.8l30.6,30.2V1964.3z M881.8,2020.7l75.5,69.1v37.2
	l-107.2-98.1v-205.8l31.7,29V2020.7L881.8,2020.7z M1027.4,2020.8l37.7-32.8c10.6-9.3,21.3-11.8,21.3,5.8c0,20.4-8.3,36.5-22.7,49.1
	l-36.3,31.6V2020.8L1027.4,2020.8z M999,2133.7l60-52.2c29-25.2,36.7-38.9,44.8-57.1c7.5-16.9,12.2-36.1,12.2-52
	c0-19.8-4.5-35.4-21.9-29.6c5.9-9.3,17.4-27.4,17.4-56.2c0-20.7-8.9-43.7-43.6-13.5l-68.8,59.9L999,2133.7L999,2133.7z
	 M1027.4,1943.1l33.9-29.5c13.4-11.7,21.7-13.8,21.7,2.6c0,15.9-9.3,30.4-20.9,40.5l-34.7,30.2L1027.4,1943.1L1027.4,1943.1z
	 M1211.5,1777.6l0.4-0.4l19,64.4l-39.1,34.9L1211.5,1777.6L1211.5,1777.6z M1183.3,1919.7l56.6-50.6l9.8,33.6l34.8-31.1l-54.1-157.5
	l-37,33l-54.7,254.6l33.7-30.1L1183.3,1919.7L1183.3,1919.7z"/>
<g>
	<defs>
		<path id="SVGID_1_" d="M504.8,1155.3l141.8-106.8V897.8H415v0C438.6,985.7,468.6,1071.8,504.8,1155.3z"/>
	</defs>
	<clipPath id="SVGID_2_">
		<use xlink:href="#SVGID_1_"  style="overflow:visible;"/>
	</clipPath>
	<g class="st3">
		<g>
			<defs>
				<rect id="SVGID_3_" x="415" y="897.8" width="231.6" height="257.6"/>
			</defs>
			<clipPath id="SVGID_4_">
				<use xlink:href="#SVGID_3_"  style="overflow:visible;"/>
			</clipPath>
			<g class="st4">
				
					<image style="overflow:visible;enable-background:new    ;" width="46" height="48" xlink:href="A74C4D25.png"  transform="matrix(5.8364 0 0 -5.8364 399.9206 1170.3785)">
				</image>
			</g>
		</g>
	</g>
</g>
<g>
	<defs>
		<polygon id="SVGID_5_" points="646.6,1048.6 846.8,897.8 646.6,897.8 		"/>
	</defs>
	<clipPath id="SVGID_6_">
		<use xlink:href="#SVGID_5_"  style="overflow:visible;"/>
	</clipPath>
	<g class="st5">
		<g>
			<defs>
				<rect id="SVGID_7_" x="646.6" y="897.8" width="200.2" height="150.8"/>
			</defs>
			<clipPath id="SVGID_8_">
				<use xlink:href="#SVGID_7_"  style="overflow:visible;"/>
			</clipPath>
			<g class="st6">
				
					<image style="overflow:visible;enable-background:new    ;" width="42" height="29" xlink:href="A74C4D27.png"  transform="matrix(5.929 0 0 -5.929 633.973 1060.4932)">
				</image>
			</g>
		</g>
	</g>
</g>
<path class="st7" d="M983,345.6H354.3c-4.5,58.3-13.9,275.2,60.7,552.2h431.8l733.3-552.2H983z"/>
<g>
	<defs>
		<path id="SVGID_9_" d="M423.9,596.8v102.9l0.1-0.1c2.1-1.6,3.5-2.5,3.5-2.5h60.9v-82.4h71.5v-17.9H423.9z"/>
	</defs>
	<clipPath id="SVGID_10_">
		<use xlink:href="#SVGID_9_"  style="overflow:visible;"/>
	</clipPath>
	<g class="st8">
		<g>
			<defs>
				<rect id="SVGID_11_" x="423.9" y="596.8" width="136" height="102.9"/>
			</defs>
			<clipPath id="SVGID_12_">
				<use xlink:href="#SVGID_11_"  style="overflow:visible;"/>
			</clipPath>
			<g class="st9">
				
					<image style="overflow:visible;enable-background:new    ;" width="29" height="23" xlink:href="A74C4D22.png"  transform="matrix(5.6841 0 0 -5.6841 412.8672 718.4471)">
				</image>
			</g>
		</g>
	</g>
</g>
<g>
	<defs>
		<path id="SVGID_13_" d="M423.9,596.8v102.9l0.1-0.1c2.1-1.6,3.5-2.5,3.5-2.5h60.9v-82.4h71.5v-17.9H423.9z"/>
	</defs>
	<clipPath id="SVGID_14_">
		<use xlink:href="#SVGID_13_"  style="overflow:visible;"/>
	</clipPath>
	<g class="st10">
		<g>
			<defs>
				<rect id="SVGID_15_" x="423.9" y="596.8" width="136" height="102.9"/>
			</defs>
			<clipPath id="SVGID_16_">
				<use xlink:href="#SVGID_15_"  style="overflow:visible;"/>
			</clipPath>
			<g class="st11">
				
					<image style="overflow:visible;enable-background:new    ;" width="29" height="23" xlink:href="A74C4D23.jpeg"  transform="matrix(5.6841 0 0 -5.6841 412.8672 718.4471)">
				</image>
			</g>
		</g>
	</g>
</g>
<g>
	<defs>
		<path id="SVGID_17_" d="M423.9,596.8v102.9l0.1-0.1c2.1-1.6,3.5-2.5,3.5-2.5h60.9v-82.4h71.5v-17.9H423.9z"/>
	</defs>
	<clipPath id="SVGID_18_">
		<use xlink:href="#SVGID_17_"  style="overflow:visible;"/>
	</clipPath>
	<g class="st12">
		<g>
			<defs>
				<rect id="SVGID_19_" x="423.9" y="596.8" width="136" height="102.9"/>
			</defs>
			<clipPath id="SVGID_20_">
				<use xlink:href="#SVGID_19_"  style="overflow:visible;"/>
			</clipPath>
			<g class="st13">
				
					<image style="overflow:visible;enable-background:new    ;" width="29" height="23" xlink:href="A74C4D2D.jpeg"  transform="matrix(5.6841 0 0 -5.6841 412.8672 718.4471)">
				</image>
			</g>
		</g>
	</g>
</g>
<g>
	<defs>
		<path id="SVGID_21_" d="M423.9,596.8v102.9l0.1-0.1c2.1-1.6,3.5-2.5,3.5-2.5h60.9v-82.4h71.5v-17.9H423.9z"/>
	</defs>
	<clipPath id="SVGID_22_">
		<use xlink:href="#SVGID_21_"  style="overflow:visible;"/>
	</clipPath>
	<g class="st14">
		<g>
			<defs>
				<rect id="SVGID_23_" x="423.9" y="596.8" width="136" height="102.9"/>
			</defs>
			<clipPath id="SVGID_24_">
				<use xlink:href="#SVGID_23_"  style="overflow:visible;"/>
			</clipPath>
			<g class="st15">
				
					<image style="overflow:visible;enable-background:new    ;" width="29" height="23" xlink:href="A74C4D2F.png"  transform="matrix(5.6841 0 0 -5.6841 412.8672 718.4471)">
				</image>
			</g>
		</g>
	</g>
</g>
<g>
	<defs>
		<path id="SVGID_25_" d="M380.8,745.9c3.1-5.2,6.5-10.1,10.4-14.7c4.7-5.8,9.7-11.2,15.1-16.3c5.6-5.4,11.6-10.4,17.8-15.1l-0.1,0
			v-41l-59.8-22.2v0C368.3,671,373.8,707.5,380.8,745.9z"/>
	</defs>
	<clipPath id="SVGID_26_">
		<use xlink:href="#SVGID_25_"  style="overflow:visible;"/>
	</clipPath>
	<g class="st16">
		<g>
			<defs>
				<rect id="SVGID_27_" x="364.1" y="636.7" width="59.9" height="109.2"/>
			</defs>
			<clipPath id="SVGID_28_">
				<use xlink:href="#SVGID_27_"  style="overflow:visible;"/>
			</clipPath>
			<g class="st17">
				
					<image style="overflow:visible;enable-background:new    ;" width="19" height="23" xlink:href="A74C4D2D.png"  transform="matrix(5.2425 0 0 -5.2425 350.9986 754.3918)">
				</image>
			</g>
		</g>
	</g>
</g>
<g>
	<defs>
		<path id="SVGID_29_" d="M438.8,596.8h121.1v-27.6C527.4,574,459.1,591.5,438.8,596.8z"/>
	</defs>
	<clipPath id="SVGID_30_">
		<use xlink:href="#SVGID_29_"  style="overflow:visible;"/>
	</clipPath>
	<g class="st18">
		<g>
			<defs>
				<rect id="SVGID_31_" x="438.8" y="569.2" width="121.1" height="27.6"/>
			</defs>
			<clipPath id="SVGID_32_">
				<use xlink:href="#SVGID_31_"  style="overflow:visible;"/>
			</clipPath>
			<g class="st19">
				
					<image style="overflow:visible;enable-background:new    ;" width="25" height="10" xlink:href="A74C4D23.png"  transform="matrix(4.9804 0 0 -4.9804 436.8973 609.7864)">
				</image>
			</g>
		</g>
	</g>
</g>
<g>
	<defs>
		<path id="SVGID_33_" d="M416.3,902l63-38.7h-1.5v-141h7.2v137.5l75-46V704.4H427.5v-7.2h132.4v-82.5h-71.5v82.4h-60.9
			c0,0-1.3,0.9-3.5,2.5l-0.1,0.1c-6.3,4.7-12.2,9.8-17.9,15.3c-5.4,5.2-10.5,10.7-15.3,16.5c-3.7,4.5-7.1,9.3-10.1,14.4
			c9.3,51.1,20.7,101.7,34.2,151.9L416.3,902L416.3,902z M520.7,637.5h23.9v33.4h-23.9V637.5z"/>
	</defs>
	<clipPath id="SVGID_34_">
		<use xlink:href="#SVGID_33_"  style="overflow:visible;"/>
	</clipPath>
	<g class="st20">
		<g>
			<defs>
				<rect id="SVGID_35_" x="380.8" y="614.8" width="179.2" height="287.2"/>
			</defs>
			<clipPath id="SVGID_36_">
				<use xlink:href="#SVGID_35_"  style="overflow:visible;"/>
			</clipPath>
			<g class="st21">
				
					<image style="overflow:visible;enable-background:new    ;" width="40" height="52" xlink:href="A74C4D26.png"  transform="matrix(5.6029 0 0 -5.6029 365.7711 908.8951)">
				</image>
			</g>
		</g>
	</g>
</g>
<g>
	<defs>
		<path id="SVGID_37_" d="M567.1,809.4l-4.4,2.7L567.1,809.4z"/>
	</defs>
	<clipPath id="SVGID_38_">
		<use xlink:href="#SVGID_37_"  style="overflow:visible;"/>
	</clipPath>
	<g class="st22">
		<g>
			<defs>
				<rect id="SVGID_39_" x="562.7" y="809.4" width="4.4" height="2.7"/>
			</defs>
			<clipPath id="SVGID_40_">
				<use xlink:href="#SVGID_39_"  style="overflow:visible;"/>
			</clipPath>
			<g class="st23">
				
					<image style="overflow:visible;enable-background:new    ;" width="10" height="6" xlink:href="2E07266E.jpeg"  transform="matrix(4.1503 0 0 -4.1503 549.8121 827.8082)">
				</image>
			</g>
		</g>
	</g>
</g>
<g>
	<defs>
		<path id="SVGID_41_" d="M567.1,809.4l-4.4,2.7L567.1,809.4z"/>
	</defs>
	<clipPath id="SVGID_42_">
		<use xlink:href="#SVGID_41_"  style="overflow:visible;"/>
	</clipPath>
	<g class="st24">
		<g>
			<defs>
				<rect id="SVGID_43_" x="562.7" y="809.4" width="4.4" height="2.7"/>
			</defs>
			<clipPath id="SVGID_44_">
				<use xlink:href="#SVGID_43_"  style="overflow:visible;"/>
			</clipPath>
			<g class="st25">
				
					<image style="overflow:visible;enable-background:new    ;" width="10" height="6" xlink:href="2E07266E.jpeg"  transform="matrix(4.1503 0 0 -4.1503 549.8121 827.8082)">
				</image>
			</g>
		</g>
	</g>
</g>
<g>
	<defs>
		<path id="SVGID_45_" d="M567.1,809.4l-4.4,2.7L567.1,809.4z"/>
	</defs>
	<clipPath id="SVGID_46_">
		<use xlink:href="#SVGID_45_"  style="overflow:visible;"/>
	</clipPath>
	<g class="st26">
		<g>
			<defs>
				<rect id="SVGID_47_" x="562.7" y="809.4" width="4.4" height="2.7"/>
			</defs>
			<clipPath id="SVGID_48_">
				<use xlink:href="#SVGID_47_"  style="overflow:visible;"/>
			</clipPath>
			<g class="st27">
				
					<image style="overflow:visible;enable-background:new    ;" width="10" height="6" xlink:href="2E07266A.jpeg"  transform="matrix(4.1503 0 0 -4.1503 549.8121 827.8082)">
				</image>
			</g>
		</g>
	</g>
</g>
<g>
	<defs>
		<path id="SVGID_49_" d="M567.1,809.4l-4.4,2.7L567.1,809.4z"/>
	</defs>
	<clipPath id="SVGID_50_">
		<use xlink:href="#SVGID_49_"  style="overflow:visible;"/>
	</clipPath>
	<g class="st28">
		<g>
			<defs>
				<rect id="SVGID_51_" x="562.7" y="809.4" width="4.4" height="2.7"/>
			</defs>
			<clipPath id="SVGID_52_">
				<use xlink:href="#SVGID_51_"  style="overflow:visible;"/>
			</clipPath>
			<g class="st29">
				
					<image style="overflow:visible;enable-background:new    ;" width="10" height="6" xlink:href="2E07266A.jpeg"  transform="matrix(4.1503 0 0 -4.1503 549.8121 827.8082)">
				</image>
			</g>
		</g>
	</g>
</g>
<g>
	<defs>
		<path id="SVGID_53_" d="M567.1,809.4l-4.4,2.7L567.1,809.4z"/>
	</defs>
	<clipPath id="SVGID_54_">
		<use xlink:href="#SVGID_53_"  style="overflow:visible;"/>
	</clipPath>
	<g class="st30">
		<g>
			<defs>
				<rect id="SVGID_55_" x="562.7" y="809.4" width="4.4" height="2.7"/>
			</defs>
			<clipPath id="SVGID_56_">
				<use xlink:href="#SVGID_55_"  style="overflow:visible;"/>
			</clipPath>
			<g class="st31">
				
					<image style="overflow:visible;enable-background:new    ;" width="10" height="6" xlink:href="2E072666.jpeg"  transform="matrix(4.1503 0 0 -4.1503 549.8121 827.8082)">
				</image>
			</g>
		</g>
	</g>
</g>
<g>
	<defs>
		<path id="SVGID_57_" d="M567.1,809.4l-4.4,2.7L567.1,809.4z"/>
	</defs>
	<clipPath id="SVGID_58_">
		<use xlink:href="#SVGID_57_"  style="overflow:visible;"/>
	</clipPath>
	<g class="st32">
		<g>
			<defs>
				<rect id="SVGID_59_" x="562.7" y="809.4" width="4.4" height="2.7"/>
			</defs>
			<clipPath id="SVGID_60_">
				<use xlink:href="#SVGID_59_"  style="overflow:visible;"/>
			</clipPath>
			<g class="st33">
				
					<image style="overflow:visible;enable-background:new    ;" width="10" height="6" xlink:href="2E072666.jpeg"  transform="matrix(4.1503 0 0 -4.1503 549.8121 827.8082)">
				</image>
			</g>
		</g>
	</g>
</g>
<g>
	<defs>
		<path id="SVGID_61_" d="M567.1,809.4l-4.4,2.7L567.1,809.4z"/>
	</defs>
	<clipPath id="SVGID_62_">
		<use xlink:href="#SVGID_61_"  style="overflow:visible;"/>
	</clipPath>
	<g class="st34">
		<g>
			<defs>
				<rect id="SVGID_63_" x="562.7" y="809.4" width="4.4" height="2.7"/>
			</defs>
			<clipPath id="SVGID_64_">
				<use xlink:href="#SVGID_63_"  style="overflow:visible;"/>
			</clipPath>
			<g class="st35">
				
					<image style="overflow:visible;enable-background:new    ;" width="10" height="6" xlink:href="2E07267A.jpeg"  transform="matrix(4.1503 0 0 -4.1503 549.8121 827.8082)">
				</image>
			</g>
		</g>
	</g>
</g>
<g>
	<defs>
		<path id="SVGID_65_" d="M567.1,588.9v108.3h82.2v7.2h-82.2v105l82.5-50.6V482.2H649c-1.7-6.3-12.7-11.5-27.8-13.7L608,361
			l-15.2,107.1c-1.4,0.2-2.8,0.4-4.2,0.6v113.2h60.6v7.2L567.1,588.9L567.1,588.9L567.1,588.9z M632.9,553.9H609v-33.4h23.9V553.9z"
			/>
	</defs>
	<clipPath id="SVGID_66_">
		<use xlink:href="#SVGID_65_"  style="overflow:visible;"/>
	</clipPath>
	<g class="st36">
		<g>
			<defs>
				<rect id="SVGID_67_" x="567.1" y="361" width="82.5" height="448.4"/>
			</defs>
			<clipPath id="SVGID_68_">
				<use xlink:href="#SVGID_67_"  style="overflow:visible;"/>
			</clipPath>
			<g class="st37">
				
					<image style="overflow:visible;enable-background:new    ;" width="23" height="79" xlink:href="2E07267A.png"  transform="matrix(5.4135 0 0 -5.4135 549.6046 799.8318)">
				</image>
			</g>
		</g>
	</g>
</g>
<g>
	<defs>
		<path id="SVGID_69_" d="M567.1,588.9v108.3h82.2v7.2h-82.2v105l82.5-50.6V482.2H649c-1.7-6.3-12.7-11.5-27.8-13.7L608,361
			l-15.2,107.1c-1.4,0.2-2.8,0.4-4.2,0.6v113.2h60.6v7.2L567.1,588.9L567.1,588.9L567.1,588.9z M632.9,553.9H609v-33.4h23.9V553.9z"
			/>
	</defs>
	<clipPath id="SVGID_70_">
		<use xlink:href="#SVGID_69_"  style="overflow:visible;"/>
	</clipPath>
	<g class="st38">
		<g>
			<defs>
				<rect id="SVGID_71_" x="567.1" y="361" width="82.5" height="448.4"/>
			</defs>
			<clipPath id="SVGID_72_">
				<use xlink:href="#SVGID_71_"  style="overflow:visible;"/>
			</clipPath>
			<g class="st39">
				
					<image style="overflow:visible;enable-background:new    ;" width="23" height="79" xlink:href="2E07267E.jpeg"  transform="matrix(5.4135 0 0 -5.4135 549.6046 799.8318)">
				</image>
			</g>
		</g>
	</g>
</g>
<g>
	<defs>
		<path id="SVGID_73_" d="M567.1,588.9v108.3h82.2v7.2h-82.2v105l82.5-50.6V482.2H649c-1.7-6.3-12.7-11.5-27.8-13.7L608,361
			l-15.2,107.1c-1.4,0.2-2.8,0.4-4.2,0.6v113.2h60.6v7.2L567.1,588.9L567.1,588.9L567.1,588.9z M632.9,553.9H609v-33.4h23.9V553.9z"
			/>
	</defs>
	<clipPath id="SVGID_74_">
		<use xlink:href="#SVGID_73_"  style="overflow:visible;"/>
	</clipPath>
	<g class="st40">
		<g>
			<defs>
				<rect id="SVGID_75_" x="567.1" y="361" width="82.5" height="448.4"/>
			</defs>
			<clipPath id="SVGID_76_">
				<use xlink:href="#SVGID_75_"  style="overflow:visible;"/>
			</clipPath>
			<g class="st41">
				
					<image style="overflow:visible;enable-background:new    ;" width="23" height="79" xlink:href="2E07267E.png"  transform="matrix(5.4135 0 0 -5.4135 549.6046 799.8318)">
				</image>
			</g>
		</g>
	</g>
</g>
<g>
	<defs>
		<path id="SVGID_77_" d="M567.1,588.9v108.3h82.2v7.2h-82.2v105l82.5-50.6V482.2H649c-1.7-6.3-12.7-11.5-27.8-13.7L608,361
			l-15.2,107.1c-1.4,0.2-2.8,0.4-4.2,0.6v113.2h60.6v7.2L567.1,588.9L567.1,588.9L567.1,588.9z M632.9,553.9H609v-33.4h23.9V553.9z"
			/>
	</defs>
	<clipPath id="SVGID_78_">
		<use xlink:href="#SVGID_77_"  style="overflow:visible;"/>
	</clipPath>
	<g class="st42">
		<g>
			<defs>
				<rect id="SVGID_79_" x="567.1" y="361" width="82.5" height="448.4"/>
			</defs>
			<clipPath id="SVGID_80_">
				<use xlink:href="#SVGID_79_"  style="overflow:visible;"/>
			</clipPath>
			<g class="st43">
				
					<image style="overflow:visible;enable-background:new    ;" width="23" height="79" xlink:href="2E07269D.png"  transform="matrix(5.4135 0 0 -5.4135 549.6046 799.8318)">
				</image>
			</g>
		</g>
	</g>
</g>
<g>
	<defs>
		<path id="SVGID_81_" d="M567.1,588.9v108.3h82.2v7.2h-82.2v105l82.5-50.6V482.2H649c-1.7-6.3-12.7-11.5-27.8-13.7L608,361
			l-15.2,107.1c-1.4,0.2-2.8,0.4-4.2,0.6v113.2h60.6v7.2L567.1,588.9L567.1,588.9L567.1,588.9z M632.9,553.9H609v-33.4h23.9V553.9z"
			/>
	</defs>
	<clipPath id="SVGID_82_">
		<use xlink:href="#SVGID_81_"  style="overflow:visible;"/>
	</clipPath>
	<g class="st44">
		<g>
			<defs>
				<rect id="SVGID_83_" x="567.1" y="361" width="82.5" height="448.4"/>
			</defs>
			<clipPath id="SVGID_84_">
				<use xlink:href="#SVGID_83_"  style="overflow:visible;"/>
			</clipPath>
			<g class="st45">
				
					<image style="overflow:visible;enable-background:new    ;" width="23" height="79" xlink:href="2E07269F.jpeg"  transform="matrix(5.4135 0 0 -5.4135 549.6046 799.8318)">
				</image>
			</g>
		</g>
	</g>
</g>
<g>
	<defs>
		<path id="SVGID_85_" d="M567.1,588.9v108.3h82.2v7.2h-82.2v105l82.5-50.6V482.2H649c-1.7-6.3-12.7-11.5-27.8-13.7L608,361
			l-15.2,107.1c-1.4,0.2-2.8,0.4-4.2,0.6v113.2h60.6v7.2L567.1,588.9L567.1,588.9L567.1,588.9z M632.9,553.9H609v-33.4h23.9V553.9z"
			/>
	</defs>
	<clipPath id="SVGID_86_">
		<use xlink:href="#SVGID_85_"  style="overflow:visible;"/>
	</clipPath>
	<g class="st46">
		<g>
			<defs>
				<rect id="SVGID_87_" x="567.1" y="361" width="82.5" height="448.4"/>
			</defs>
			<clipPath id="SVGID_88_">
				<use xlink:href="#SVGID_87_"  style="overflow:visible;"/>
			</clipPath>
			<g class="st47">
				
					<image style="overflow:visible;enable-background:new    ;" width="23" height="79" xlink:href="2E07269C.png"  transform="matrix(5.4135 0 0 -5.4135 549.6046 799.8318)">
				</image>
			</g>
		</g>
	</g>
</g>
<g>
	<defs>
		<path id="SVGID_89_" d="M567.1,588.9v108.3h82.2v7.2h-82.2v105l82.5-50.6V482.2H649c-1.7-6.3-12.7-11.5-27.8-13.7L608,361
			l-15.2,107.1c-1.4,0.2-2.8,0.4-4.2,0.6v113.2h60.6v7.2L567.1,588.9L567.1,588.9L567.1,588.9z M632.9,553.9H609v-33.4h23.9V553.9z"
			/>
	</defs>
	<clipPath id="SVGID_90_">
		<use xlink:href="#SVGID_89_"  style="overflow:visible;"/>
	</clipPath>
	<g class="st48">
		<g>
			<defs>
				<rect id="SVGID_91_" x="567.1" y="361" width="82.5" height="448.4"/>
			</defs>
			<clipPath id="SVGID_92_">
				<use xlink:href="#SVGID_91_"  style="overflow:visible;"/>
			</clipPath>
			<g class="st49">
				
					<image style="overflow:visible;enable-background:new    ;" width="23" height="79" xlink:href="2E07269B.png"  transform="matrix(5.4135 0 0 -5.4135 549.6046 799.8318)">
				</image>
			</g>
		</g>
	</g>
</g>
<g>
	<g>
		<defs>
			<rect id="SVGID_93_" x="520.7" y="637.5" width="23.9" height="33.4"/>
		</defs>
		<clipPath id="SVGID_94_">
			<use xlink:href="#SVGID_93_"  style="overflow:visible;"/>
		</clipPath>
		<g class="st50">
			<g>
				<defs>
					<rect id="SVGID_95_" x="520.7" y="637.5" width="23.9" height="33.4"/>
				</defs>
				<clipPath id="SVGID_96_">
					<use xlink:href="#SVGID_95_"  style="overflow:visible;"/>
				</clipPath>
				<g class="st51">
					
						<image style="overflow:visible;enable-background:new    ;" width="15" height="10" xlink:href="2E072695.png"  transform="matrix(4.9804 0 0 -4.9804 503.977 681.0294)">
					</image>
				</g>
			</g>
		</g>
	</g>
</g>
<g>
	<g>
		<defs>
			<rect id="SVGID_97_" x="609" y="520.4" width="23.9" height="33.4"/>
		</defs>
		<clipPath id="SVGID_98_">
			<use xlink:href="#SVGID_97_"  style="overflow:visible;"/>
		</clipPath>
		<g class="st52">
			<g>
				<defs>
					<rect id="SVGID_99_" x="609" y="520.4" width="23.9" height="33.4"/>
				</defs>
				<clipPath id="SVGID_100_">
					<use xlink:href="#SVGID_99_"  style="overflow:visible;"/>
				</clipPath>
				<g class="st53">
					
						<image style="overflow:visible;enable-background:new    ;" width="15" height="10" xlink:href="2E072697.png"  transform="matrix(4.9804 0 0 -4.9804 593.4943 564.1329)">
					</image>
				</g>
			</g>
		</g>
	</g>
</g>
<g>
	<g>
		<defs>
			<rect id="SVGID_101_" x="567.1" y="581.8" width="82.2" height="7.2"/>
		</defs>
		<clipPath id="SVGID_102_">
			<use xlink:href="#SVGID_101_"  style="overflow:visible;"/>
		</clipPath>
		<g class="st54">
			<g>
				<defs>
					<rect id="SVGID_103_" x="567.1" y="581.8" width="82.2" height="7.2"/>
				</defs>
				<clipPath id="SVGID_104_">
					<use xlink:href="#SVGID_103_"  style="overflow:visible;"/>
				</clipPath>
				<g class="st55">
					
						<image style="overflow:visible;enable-background:new    ;" width="23" height="6" xlink:href="2E072694.png"  transform="matrix(5.1879 0 0 -5.1879 552.0948 604.7801)">
					</image>
				</g>
			</g>
		</g>
	</g>
</g>
<g>
	<g>
		<defs>
			<rect id="SVGID_105_" x="567.1" y="697.2" width="82.2" height="7.2"/>
		</defs>
		<clipPath id="SVGID_106_">
			<use xlink:href="#SVGID_105_"  style="overflow:visible;"/>
		</clipPath>
		<g class="st56">
			<g>
				<defs>
					<rect id="SVGID_107_" x="567.1" y="697.2" width="82.2" height="7.2"/>
				</defs>
				<clipPath id="SVGID_108_">
					<use xlink:href="#SVGID_107_"  style="overflow:visible;"/>
				</clipPath>
				<g class="st57">
					
						<image style="overflow:visible;enable-background:new    ;" width="23" height="6" xlink:href="2E07268B.png"  transform="matrix(5.1879 0 0 -5.1879 552.0948 720.8336)">
					</image>
				</g>
			</g>
		</g>
	</g>
</g>
<g>
	<g>
		<defs>
			<rect id="SVGID_109_" x="427.5" y="697.2" width="132.4" height="7.2"/>
		</defs>
		<clipPath id="SVGID_110_">
			<use xlink:href="#SVGID_109_"  style="overflow:visible;"/>
		</clipPath>
		<g class="st58">
			<g>
				<defs>
					<rect id="SVGID_111_" x="427.5" y="697.2" width="132.4" height="7.2"/>
				</defs>
				<clipPath id="SVGID_112_">
					<use xlink:href="#SVGID_111_"  style="overflow:visible;"/>
				</clipPath>
				<g class="st59">
					
						<image style="overflow:visible;enable-background:new    ;" width="29" height="6" xlink:href="2E07268D.png"  transform="matrix(5.1879 0 0 -5.1879 420.9835 720.8336)">
					</image>
				</g>
			</g>
		</g>
	</g>
</g>
<path class="st60" d="M423.9,645.8v-18.2l-60.6,2.3l0.8,6.7l59.8,22.2V645.8z"/>
<g>
	<g>
		<defs>
			<polygon id="SVGID_113_" points="477.8,863.3 479.3,863.3 484.9,859.8 484.9,722.3 477.8,722.3 477.8,863.3 			"/>
		</defs>
		<clipPath id="SVGID_114_">
			<use xlink:href="#SVGID_113_"  style="overflow:visible;"/>
		</clipPath>
		<g class="st61">
			<g>
				<defs>
					<rect id="SVGID_115_" x="477.8" y="722.3" width="7.2" height="141"/>
				</defs>
				<clipPath id="SVGID_116_">
					<use xlink:href="#SVGID_115_"  style="overflow:visible;"/>
				</clipPath>
				<g class="st62">
					
						<image style="overflow:visible;enable-background:new    ;" width="10" height="29" xlink:href="2E07268F.png"  transform="matrix(4.9804 0 0 -4.9804 464.8731 868.8965)">
					</image>
				</g>
			</g>
		</g>
	</g>
</g>
<g>
	<g>
		<defs>
			<path id="SVGID_117_" d="M440,982.5h206.6v-84.7c0-41.8,62.7-82.4,83-69.3c20.3,13.1,17.9,40.6,17.9,40.6v103.1l27.9-21v-82.1
				c0,0-2.4-27.5,17.9-40.6c17.1-11.1,64.3,16.2,78.6,50.1l38.5-28.9L804.9,747.3H696.2L420.8,918.7v0
				C426.8,940.1,433.2,961.4,440,982.5L440,982.5z"/>
		</defs>
		<clipPath id="SVGID_118_">
			<use xlink:href="#SVGID_117_"  style="overflow:visible;"/>
		</clipPath>
		<g class="st63">
			<g>
				<defs>
					<rect id="SVGID_119_" x="420.8" y="747.3" width="489.7" height="235.2"/>
				</defs>
				<clipPath id="SVGID_120_">
					<use xlink:href="#SVGID_119_"  style="overflow:visible;"/>
				</clipPath>
				<g class="st64">
					
						<image style="overflow:visible;enable-background:new    ;" width="88" height="44" xlink:href="2E0726B0.jpeg"  transform="matrix(5.9425 0 0 -5.9425 405.0825 999.1777)">
					</image>
				</g>
			</g>
		</g>
	</g>
	<g>
		<defs>
			<path id="SVGID_121_" d="M440,982.5h206.6v-84.7c0-41.8,62.7-82.4,83-69.3c20.3,13.1,17.9,40.6,17.9,40.6v103.1l27.9-21v-82.1
				c0,0-2.4-27.5,17.9-40.6c17.1-11.1,64.3,16.2,78.6,50.1l38.5-28.9L804.9,747.3H696.2L420.8,918.7v0
				C426.8,940.1,433.2,961.4,440,982.5L440,982.5z"/>
		</defs>
		<clipPath id="SVGID_122_">
			<use xlink:href="#SVGID_121_"  style="overflow:visible;"/>
		</clipPath>
		<g class="st65">
			<g>
				<defs>
					<rect id="SVGID_123_" x="420.8" y="747.3" width="489.7" height="235.2"/>
				</defs>
				<clipPath id="SVGID_124_">
					<use xlink:href="#SVGID_123_"  style="overflow:visible;"/>
				</clipPath>
				<g class="st66">
					
						<image style="overflow:visible;enable-background:new    ;" width="88" height="44" xlink:href="2E0726B0.jpeg"  transform="matrix(5.9425 0 0 -5.9425 405.0825 999.1777)">
					</image>
				</g>
			</g>
		</g>
	</g>
</g>
<g>
	<g>
		<defs>
			<path id="SVGID_125_" d="M628.8,968.3h7.2v-70.5c0-30.7,26.4-58.8,52.5-73c19.3-10.5,35.9-12.3,46.9-5.2
				c19.5,12.6,22.3,35,22.5,44.1h7.2c0.3-9.1,3-31.5,22.5-44.1c7.7-5,18.3-5.6,30.8-1.7c19.9,6.1,41.4,22.6,54.7,41.9l5.9-4
				c-14.2-20.6-37.1-38.2-58.5-44.7c-14.6-4.5-27.3-3.6-36.8,2.5c-12.5,8.1-18.9,19.5-22.2,29.8c-3.3-10.3-9.7-21.8-22.2-29.8
				c-13.3-8.6-32.6-6.9-54.3,4.9c-28,15.2-56.2,45.7-56.2,79.3L628.8,968.3L628.8,968.3z"/>
		</defs>
		<clipPath id="SVGID_126_">
			<use xlink:href="#SVGID_125_"  style="overflow:visible;"/>
		</clipPath>
		<g class="st67">
			<g>
				<defs>
					<rect id="SVGID_127_" x="628.8" y="804.9" width="250.2" height="163.4"/>
				</defs>
				<clipPath id="SVGID_128_">
					<use xlink:href="#SVGID_127_"  style="overflow:visible;"/>
				</clipPath>
				<g class="st68">
					
						<image style="overflow:visible;enable-background:new    ;" width="50" height="33" xlink:href="2E072690.png"  transform="matrix(5.8482 0 0 -5.8482 616.0262 985.5594)">
					</image>
				</g>
			</g>
		</g>
	</g>
</g>
<path class="st69" d="M814.4,737.8v-23.9h-26.3v20.3h-81.2v-20.3h-25.1V739L416.2,902c1.5,5.5,3.1,11.1,4.7,16.7l275.4-171.4h108.7
	l105.7,102.3L922,841L814.4,737.8L814.4,737.8z"/>
<g>
	<g>
		<defs>
			<path id="SVGID_129_" d="M1128.6,453.7c-2.2-8.5-11.6-17.2-16-25c-6.5-11.6-9.1-22.3-20.2-30.5c-12.2-9-25.3-10.2-37.9-17.5
				c-3.3-1.9-5.8-5-8.3-7.9c-1.9,2.8-4.3,5.2-7.1,7.2c-11.8,8.6-24.1,1.8-39.8,3.6c-20.2,2.3-16.9-4.6-4-15.4
				c6.2-5.2,8.6-8.2,9.6-11.8c-5.7-0.8-11.3-1.6-16.3-2.4c-28.2-4.5-57.6-1.3-84.6,8c2.2,1.2,4.7,1.9,8.8,1.8
				c5.6-0.1,12.9-0.5,17.8-0.9c0.1,8.4-0.3,16.9-1,25.3c-7.5,2.8-9.1,9.1-12.6,15c-2.3,4-3.9,3.4-5.2,8.1c-1,3.6,3.9,3.4,0.3,8.1
				c-4.7,6-14.4,0.7-19.9-0.1c-8.4-1.1-10.4,4.2-17.9,5.4c-2.5,0.4-3.3-3.8-7.4-2.1c-3.6,1.4-6.8,7.9-8.7,10.5
				c-4.7,6.2-11.5,16-16,4.2c-3.1-8.2,4.1-18.6,1.6-26.1c-1.1-3.4-4.1-4.1-5.3-8.2c-0.4-1.3-0.4-2.7-0.2-4.1
				c-7.7,7-14.5,14.8-19.7,23.7c-3.6,6.3-9.8,11.9-11.4,19c-3.8,17.5,1.7,30.9,9,45.9c7,14.4-2.9,29.6,3.2,43.9
				c3.7,8.5,10.5,15.1,19.1,18.5c10.6,4,14.1-1.8,20.3,9c3.1,5.4,3.2,6.7,9.8,7.2c3.9,0.3,13.1-4.9,16.3-3.7
				c6.5,2.4,6.8,12.3,14.3,16c8.9,4.4,19.3,0.1,26.3,7.2c6.1,6.2,4,15,13.3,18.8c9.5,3.9,30.6,3.7,40.2,0.3
				c9.9-3.5,13.2-15.3,23.2-18.1c11.6-3.2,26.3,4.4,38.4,3.7c14.6-0.9,26.6-2,33.3-15.3c5.2-10.4,4-17.9,14.1-24.8
				c19.5-13.4,31.2-26.6,36.9-50.4C1128.2,487.7,1131.8,466,1128.6,453.7L1128.6,453.7z"/>
		</defs>
		<clipPath id="SVGID_130_">
			<use xlink:href="#SVGID_129_"  style="overflow:visible;"/>
		</clipPath>
		<g class="st70">
			<g>
				<defs>
					<rect id="SVGID_131_" x="803.4" y="349.6" width="328.3" height="259"/>
				</defs>
				<clipPath id="SVGID_132_">
					<use xlink:href="#SVGID_131_"  style="overflow:visible;"/>
				</clipPath>
				<g class="st71">
					
						<image style="overflow:visible;enable-background:new    ;" width="60" height="48" xlink:href="2E072690.jpeg"  transform="matrix(5.9661 0 0 -5.9661 793.9809 624.2218)">
					</image>
				</g>
			</g>
		</g>
	</g>
</g>
<g>
	<g>
		<defs>
			<path id="SVGID_133_" d="M838.6,403.3c1.2,4.1,4.2,4.8,5.3,8.2c2.5,7.6-4.7,18-1.6,26.1c4.5,11.8,11.3,2,16-4.2
				c2-2.6,5.1-9.1,8.7-10.5c4-1.6,4.9,2.5,7.4,2.1c7.5-1.3,9.6-6.5,17.9-5.4c5.6,0.7,15.3,6.1,19.9,0.1c3.7-4.7-1.2-4.5-0.3-8.1
				c1.3-4.7,2.9-4.1,5.2-8.1c3.5-5.9,5-12.2,12.6-15c0.7-8.4,1.1-16.8,1-25.3c-4.9,0.4-12.2,0.8-17.8,0.9c-4.1,0-6.6-0.7-8.8-1.8
				c-4.7,1.6-9.3,3.3-13.8,5.3c-18.1,7.9-36.9,18.1-52,31.8C838.2,400.6,838.2,402,838.6,403.3z"/>
		</defs>
		<clipPath id="SVGID_134_">
			<use xlink:href="#SVGID_133_"  style="overflow:visible;"/>
		</clipPath>
		<g class="st72">
			<g>
				<defs>
					<rect id="SVGID_135_" x="838.2" y="362.1" width="92.7" height="87.2"/>
				</defs>
				<clipPath id="SVGID_136_">
					<use xlink:href="#SVGID_135_"  style="overflow:visible;"/>
				</clipPath>
				<g class="st73">
					
						<image style="overflow:visible;enable-background:new    ;" width="21" height="21" xlink:href="2E072690.jpeg"  transform="matrix(5.3361 0 0 -5.3361 830.1406 467.8065)">
					</image>
				</g>
			</g>
		</g>
	</g>
</g>
<g>
	<g>
		<defs>
			<path id="SVGID_137_" d="M995.3,368.3c-12.9,10.8-16.2,17.7,4,15.4c15.7-1.8,28,5.1,39.8-3.6c3.2-2.4,5.5-4.7,7.1-7.2
				c-1.6-2-3.4-3.8-5.5-5.3c-9.5-6.7-23.1-9.2-35.9-11.1C1003.9,360.1,1001.6,363.1,995.3,368.3z"/>
		</defs>
		<clipPath id="SVGID_138_">
			<use xlink:href="#SVGID_137_"  style="overflow:visible;"/>
		</clipPath>
		<g class="st74">
			<g>
				<defs>
					<rect id="SVGID_139_" x="979.2" y="356.5" width="67.1" height="32.2"/>
				</defs>
				<clipPath id="SVGID_140_">
					<use xlink:href="#SVGID_139_"  style="overflow:visible;"/>
				</clipPath>
				<g class="st75">
					
						<image style="overflow:visible;enable-background:new    ;" width="19" height="13" xlink:href="2E072690.jpeg"  transform="matrix(4.7888 0 0 -4.7888 969.6085 406.9912)">
					</image>
				</g>
			</g>
		</g>
	</g>
</g>
<g>
	<g>
		<defs>
			<path id="SVGID_141_" d="M796.5,487.6c10.6,13,17.4-0.5,26-5.1c17.7-9.6,13-28.2-6.3-32.6C795.1,445.1,783.6,471.8,796.5,487.6
				L796.5,487.6z"/>
		</defs>
		<clipPath id="SVGID_142_">
			<use xlink:href="#SVGID_141_"  style="overflow:visible;"/>
		</clipPath>
		<g class="st76">
			<g>
				<defs>
					<rect id="SVGID_143_" x="783.6" y="445.1" width="56.6" height="55.4"/>
				</defs>
				<clipPath id="SVGID_144_">
					<use xlink:href="#SVGID_143_"  style="overflow:visible;"/>
				</clipPath>
				<g class="st77">
					
						<image style="overflow:visible;enable-background:new    ;" width="19" height="15" xlink:href="2E072690.jpeg"  transform="matrix(5.2425 0 0 -5.2425 767.4837 513.9993)">
					</image>
				</g>
			</g>
		</g>
	</g>
</g>
<path class="st78" d="M1013.5,572.3c-0.2,0.4-0.5,0.7-0.8,1c-6.3,7.1-15,0-20.3,2c-7,2.6-7,11-14,15.8c-12.1,8.4-22.4,6.1-32.7-3
	c-8-7-10.7-21.1-20.2-26c-7.4-3.8-30.4,7.8-26.5-11.7c-16.9,1.2-2.7-23.5-16.5-27.7c-6.9-2.1-13.8,6.7-20.6,2.8
	c-21.1-12.3,18.4-43.6,20.6-55.2c1.4-7-2.4-13-2.4-19.1c-0.1-20.6,18.8-17.3,30.8-6.9c10.6,9.2,11.7,23,24.2,30.4
	c12.7,7.6,22.6,3.5,24.3-11.7c16.8,8.5,26.7-17.5,9.2-18c-1.3-5.8,6.5-15.4,12.9-14.2c8.8,1.6,6.4,15.6,14.5,1.2
	c0.6-1.1,0.3-7,1.4-9.5c1.4-3,4.3-6.4,6.9-8.4c4.6-3.5,23.3-9.5,26.4-1.2c2.9,7.8-8.1,8.9-11,12.8c-4.4,6-2.2,4-2.4,8.7
	c-0.1,2.2,4.4,1.6,1.5,8.4c-1.3,2.9-5.4,4.9-7.5,7.1c-6.8,7.1-16.6,11.3-11.6,21.3c4.3,8.7,13.1,7.3,21.1,6.3
	c-1.7,3.8-11.1,13-8,17.8c4.5,7,12.4-6.4,17.8-3.4c9.1,5.1-2.3,13.8-1.3,18.9c3.7,20,43.8-1.6,40.7,26.3c-1.2,11-5.9,21.4-11.2,30.6
	c-8.7-2.9-16.1-8.6-21.3-16.1c-4.6,3.9-13.6,16.3-16.6,2.4C1012,553.8,1016.9,566.2,1013.5,572.3L1013.5,572.3z"/>
<path class="st79" d="M1080.5,495.7c0.3-1,0.9-1.9,1.6-2.7c3.7-3.8,13.2,1.4,12-7.2c-0.5-3.6-4.4-2.7-5.8-5
	c-2.3-3.6-0.8-3.1-1.6-7.3c-1.5-7.8-0.2-16.1-11.5-9.5c6,3,5.6,6,4.8,12.5c-7.8,0.3-13.7,2.8-16.1,10.6c-0.8,2.6-1.6,11.5-0.1,13.7
	c1.2,1.8,9.3,4.8,11.4,4.5C1083.4,504,1079.2,500.1,1080.5,495.7L1080.5,495.7z M995.4,494.6c1.4-0.4,3-0.7,1.5-4.1
	c-0.3-0.5-0.7-1-1.2-1.4c-0.7-2-2.1-3.6-3.9-4.8c1.9-4.2-2.5-8.8-7.5-9.8c0-0.4-0.1-0.7-0.1-1.1c0,0.2-0.4,0.6-0.9,1.1
	c-1.5-0.2-3.1,0.1-4.4,0.7c-2.2,1.2-2.7,3-3.2,4.7c-2.2,1.5-4.4,3.1-6.4,4.8c-3.5-0.4-6.3-3.4-10.6-1.6c-0.5,3.7,0.3,13.2,2.7,16
	c1.6,1.8,3,2.2,4.3,2c0.5,2.2,1.6,4,3.6,4.6c2.3,0.6,4.4-1.5,6.5-3.4c1.5,2.2,1.8,5.2,3,9c0-0.1,3-1.9,6.5-4.7
	c0.5,2.5,1.5,4.7,5.6,4.2c8.9-1.1,4.2-9.1,3.1-13.2C994.6,496.7,995.1,495.7,995.4,494.6L995.4,494.6z M966.7,412.3
	c-9.8-0.8-5.8,10-8,15.1c-1.8,4.2-6,6.6-7.7,11c-3.9-3.4-9-6.3-14.7-2.8c-14.6,9.1,0.9,14.3,3.6,21c1.7,4.3-3.9,6.8-2.3,10.8
	c2.2,5.7,7.9,1.5,10.2-2c3.2-4.8-0.1-5.8,0.4-9.4c0.6-4.5,4.3-9.3-2.6-9.9c4.4-3.4,10.4-3.1,15.7-2.7c0.6-3.2-0.4-6.6-1.6-9.3
	c6.6-3.1,10.3-3.4,12.5-10C973.4,419.9,973,412.8,966.7,412.3L966.7,412.3z M915.8,511.6c0.4,4.9,14,36.2-6.4,29
	c-7.7-2.7-1.8-2.9-2.7-7.4c-1.3-6.4-0.9-10.5,1.3-17.8c-3.9-5.1-13.5-6.7-15.9-11.8c-2.8-5.9,3.3-12.1,9.2-12.5
	c1.4-0.1,13.2,4.1,14.3,5.3C920.8,501.9,915.3,505.4,915.8,511.6L915.8,511.6z"/>
<g>
	<g>
		<defs>
			<path id="SVGID_145_" d="M983.8,358.7c2.2,17.6-36.4,21-43.2,8.9c-4-7.3-0.3-4.8,4.9-9.9C953.2,350.1,981.6,341.1,983.8,358.7z"
				/>
		</defs>
		<clipPath id="SVGID_146_">
			<use xlink:href="#SVGID_145_"  style="overflow:visible;"/>
		</clipPath>
		<g class="st80">
			<g>
				<defs>
					<rect id="SVGID_147_" x="936.6" y="341.1" width="49.3" height="38.6"/>
				</defs>
				<clipPath id="SVGID_148_">
					<use xlink:href="#SVGID_147_"  style="overflow:visible;"/>
				</clipPath>
				<g class="st81">
					
						<image style="overflow:visible;enable-background:new    ;" width="19" height="13" xlink:href="2E072693.png"  transform="matrix(4.7888 0 0 -4.7888 924.1624 394.3976)">
					</image>
				</g>
			</g>
		</g>
	</g>
</g>
<g>
	<g>
		<defs>
			<path id="SVGID_149_" d="M1117.1,455.3c2.7-9.9,26.7-11.2,35.8-5.2c8.4,5.5,11.9,24.8,9,34.5c-7.8,25.6-45.7,23.2-44.8-6
				L1117.1,455.3L1117.1,455.3z"/>
		</defs>
		<clipPath id="SVGID_150_">
			<use xlink:href="#SVGID_149_"  style="overflow:visible;"/>
		</clipPath>
		<g class="st82">
			<g>
				<defs>
					<rect id="SVGID_151_" x="1116.1" y="444.2" width="48.7" height="66.1"/>
				</defs>
				<clipPath id="SVGID_152_">
					<use xlink:href="#SVGID_151_"  style="overflow:visible;"/>
				</clipPath>
				<g class="st83">
					
						<image style="overflow:visible;enable-background:new    ;" width="19" height="17" xlink:href="2E072690.jpeg"  transform="matrix(5.1269 0 0 -5.1269 1101.3086 523.6542)">
					</image>
				</g>
			</g>
		</g>
	</g>
</g>
<g>
	<g>
		<defs>
			<polygon id="SVGID_153_" points="560,581.8 560,813.8 562.7,812.1 567.1,809.4 567.1,581.8 560,581.8 			"/>
		</defs>
		<clipPath id="SVGID_154_">
			<use xlink:href="#SVGID_153_"  style="overflow:visible;"/>
		</clipPath>
		<g class="st84">
			<g>
				<defs>
					<rect id="SVGID_155_" x="560" y="581.8" width="7.1" height="232"/>
				</defs>
				<clipPath id="SVGID_156_">
					<use xlink:href="#SVGID_155_"  style="overflow:visible;"/>
				</clipPath>
				<g class="st85">
					
						<image style="overflow:visible;enable-background:new    ;" width="10" height="44" xlink:href="2E07269F.png"  transform="matrix(4.9804 0 0 -4.9804 544.9484 810.1563)">
					</image>
				</g>
			</g>
		</g>
	</g>
</g>
<g>
	<g>
		<defs>
			<path id="SVGID_157_" d="M559.8,581.8h28.8V468.6c-15.2,2.2-26.3,7.4-28.1,13.6h-0.5l-0.3,98.2V581.8L559.8,581.8z"/>
		</defs>
		<clipPath id="SVGID_158_">
			<use xlink:href="#SVGID_157_"  style="overflow:visible;"/>
		</clipPath>
		<g class="st86">
			<g>
				<defs>
					<rect id="SVGID_159_" x="559.8" y="468.6" width="28.8" height="113.2"/>
				</defs>
				<clipPath id="SVGID_160_">
					<use xlink:href="#SVGID_159_"  style="overflow:visible;"/>
				</clipPath>
				<g class="st87">
					
						<image style="overflow:visible;enable-background:new    ;" width="15" height="25" xlink:href="2E0726FB.png"  transform="matrix(4.9804 0 0 -4.9804 544.287 592.1735)">
					</image>
				</g>
			</g>
		</g>
	</g>
</g>
<path class="st88" d="M1047.2,723.8c-8,0-9.8-4.2-17-9.1c-14.3-9.6-26.2-6.9-42.4-6c-4,0.2-9,0.7-14.4,1.1v-54.1
	c9.7-1.8,21.5-2.7,16.4,8.8c-0.9,2.1-3.1,6.3-4.7,7.9c-2.4,2.5-5.3,1-8,2.6c-3.8,2.3-0.1,3.1,2.8,3.2c6.7,0.4,8.9-2.5,13.3-6.8
	c3.6-3.6,4.9-12.3,9.8-13.8c3.6-1.1,10.2,2.5,11.4,6.3c0.9,2.9,0.4,3.7-1.6,5.9c-1.6,1.6-3.7,3.9-5.5,5.1c-2.7,1.8-5.4,0.6-8.4,1.7
	c-0.6,6.3,14.6,0,17-1.7c5-3.7,6.9-10.3,11.1-14.8c2.3-2.5-26-16.1-7.1-23c11.3,10.8,41.9,17.5,44.2-6.2c-6.2,0.8-13.7,6.4-20.2,6.4
	c-7.6,0-9.3-4-16.2-8.7c-13.6-9.1-24.9-6.6-40.3-5.8c-3.8,0.2-8.7,0.7-13.8,1.1v-17.6c-7.6,1.2-15.2,1.5-22.9,0.8v17.2
	c-3-0.2-6-0.9-8.9-1.9c-6-2.3-12.1-10.5-15.1-16.3c-1.6-3-0.9-5.8-1.4-8.7c-1.2-7.4-5.6-4.4-9.6-1.4c-4.8,3.6-10,7.9-15.7,9.7
	c-4.7,1.5-12.3,2.3-10.8,9.6c1.9,8.7,14.5,5.3,19.6,9.1c4.1,2.9,6.4,8.5,9.1,12.7c1.9,3,3.2,3.6,1.6,6.5c-0.9,1.7-3.2,3.2-4.3,5
	c-4.7,7.5-5.7,18.6-14.2,22.9c1.1,2.8,6.6,1.6,8.5,0.3c2.9-1.9,2.9-6.5,5.2-9.2c3.3-4,8-6.4,11.1-10.6c2-2.7,3.1-6.1,5.3-8.6
	c-0.6,6.9,0.3,13.6-2.2,19.9c-0.7,1.7-1.3,5.3-2.6,6.6c-1.8,1.8-4.8,1.4-6.3,3.9c4.2,3.9,9.7-0.5,11.8-4.2
	c2.4-4.3,4.5-10.6,9.3-12.4c2.9-1,6.1-1,9.4-0.8v53.8c-3.6-0.2-7.2-0.9-10.6-2.1c-6.3-2.5-12.7-11.1-15.9-17.2
	c-1.6-3.1-0.9-6.1-1.4-9.2c-1.2-7.8-5.8-4.6-10.1-1.4c-5.1,3.8-10.5,8.3-16.5,10.2c-4.9,1.6-12.9,2.5-11.3,10.1
	c2,9.2,15.2,5.6,20.6,9.5c4.3,3.1,6.7,8.9,9.5,13.3c2,3.2,3.4,3.8,1.7,6.8c-1,1.8-3.4,3.4-4.5,5.3c-4.9,7.9-6,19.5-14.9,24.1
	c1.1,2.9,6.9,1.7,8.9,0.4c3-2,3.1-6.9,5.4-9.7c3.4-4.2,8.4-6.7,11.7-11.1c2.1-2.8,3.3-6.4,5.6-9c-0.6,7.3,0.3,14.3-2.3,20.9
	c-0.7,1.8-1.4,5.6-2.7,6.9c-1.8,1.9-5.1,1.5-6.6,4.1c4.4,4.1,10.2-0.6,12.4-4.4c2.5-4.5,4.7-11.1,9.8-13c3.4-1.2,7.3-1.1,11.2-0.8
	v75.7l22.9-17.2v-59.5c10.1-1.8,22.3-2.7,17.1,9.3c-0.9,2.2-3.2,6.6-4.9,8.3c-2.5,2.7-5.6,1.1-8.4,2.8c-4,2.4-0.2,3.2,2.9,3.4
	c7.1,0.5,9.3-2.6,14-7.1c3.8-3.7,5.1-12.9,10.3-14.4c3.8-1.2,10.8,2.6,12,6.6c0.9,3,0.5,3.9-1.7,6.2c-1.6,1.7-3.9,4.1-5.7,5.4
	c-2.9,1.9-5.7,0.7-8.9,1.8c-0.6,6.6,15.3,0,17.8-1.8c5.2-3.8,7.3-10.9,11.7-15.6c2.5-2.6-27.3-17-7.5-24.2
	c11.8,11.3,44,18.4,46.4-6.5C1061.9,717.9,1054.1,723.8,1047.2,723.8L1047.2,723.8z"/>
</svg>
