<?xml version="1.0" encoding="utf-8"?>
<!-- Generator: Adobe Illustrator 24.0.1, SVG Export Plug-In . SVG Version: 6.00 Build 0)  -->
<svg version="1.1" id="Layer_1" xmlns="http://www.w3.org/2000/svg" xmlns:xlink="http://www.w3.org/1999/xlink" x="0px" y="0px"
	 viewBox="0 0 373.3 500" style="enable-background:new 0 0 373.3 500;" xml:space="preserve">
<style type="text/css">
	.st0{fill:#FFFFFF;}
	.st1{fill:#262F61;}
	.st2{fill:#CE3524;}
</style>
<g id="layer1" transform="translate(267.66758,51.185776)">
	<path id="path260" class="st0" d="M102.1,0.7c0-18.8-12.8-24.7-31.5-29.4c-27-7.1-82.5-18.7-151.4-18.7s-124.5,11.7-151.4,18.7
		c-18.5,4.8-31.5,10.5-31.5,29.5v264.6v0.1v0.1c0.3,22,10.8,42.9,28.2,56l143.7,107.7l11,8.2l11-8.2L73.9,321.5
		c17.5-13.2,28.2-34.1,28.2-56.1C102.1,265.6,102.1,0.7,102.1,0.7z"/>
	<path id="path280" class="st1" d="M-81.1-51.2c-70.3,0-127,12.1-154.5,19.3c-18.9,4.9-32.1,10.8-32.1,30.3v272.8v0.1v0.1
		c0.3,22.7,11,44.2,28.8,57.7l146.6,111.1l11.2,8.5l11.2-8.5L76.7,329.1c17.9-13.6,28.8-35.2,28.8-57.8v-273
		c0-19.4-13.1-25.5-32.1-30.3C45.9-39.1-10.8-51.2-81.1-51.2z M-85.1-37.1l4.4,13.7h14.4l-11.6,8.5l4.4,13.7l-11.6-8.5l-11.6,8.5
		l4.4-13.7l-11.6-8.5h14.4L-85.1-37.1z M-240.5-17.1l4.4,13.7h14.4l-11.7,8.5l4.4,13.7l-11.6-8.5l-11.6,8.5l4.4-13.7l-11.6-8.5h14.4
		L-240.5-17.1z M67-17.1l4.4,13.7h14.4L74.2,5.1l4.4,13.7L67,10.3l-11.6,8.5l4.2-13.7L48-3.4h14.4L67-17.1z M-0.8,5.8
		c1.4,0.1,2.7,0.4,4,0.5c4,0.5,7.8,1.1,11.5,1.8c3.7,0.5,7.4,1.2,10.8,1.9l-98,74.4v-51c15.5,9.2,25.9,8.2,32.6,4
		c3.8-2.5,6.4-6,8.1-9.3C-14.9,33,3.5,22.6-0.8,5.8z M-180.4,8.7c0.1,1.4,0.4,2.7,0.8,4.1v0.1V13c4.2,13,21.6,19.7,37.8,15.1
		c3,6,10.1,11.4,20.1,12.7c6.7,1,14.8,0,23.7-3.6v66.4l-61.4,46.6c0.1-1.5,0.3-3,0.3-4.8V145v-1v-0.4c6.7-4.1,12.6-12.2,15.6-22.5
		c1.4-4.5,1.9-9,1.8-13.3c-1.2,0.5-2.6,1-3.8,1.1c-3.3,0.7-6,0.4-6,0.4c5.3-0.4,9.3-2.5,11.8-4.4c0.7-0.7,1.5-1.4,2.5-2.3
		c5.3-5.5,8.8-11.6,10.8-19l10.1-35.3c-5.2-0.5-10.4,2.1-13.1,6.4l-4.9,7.7l-4.8,7.5c-1.1,1.8-3,3.4-5.2,4.7c-3.3-2.6-6-4.7-8.1-6.3
		c-0.3-0.3-0.5-0.5-1-0.7l-3.2-13.3l4.7-8.2c1.4-2.3,1.8-5.1,1.4-7.8c-0.3-1.6-1-3.2-1.8-4.7c-0.8-1.1-2.3-1.4-3.4-0.7l-11.6,7.4
		c-0.3-0.3-0.7-0.5-1-0.8c-0.7-0.4-1.5-0.5-2.3-0.4c-1.2,0.1-2.5,1-4,2.1l-3,2.2l-4.4,3.3l-3.4-0.1l-2.3-0.1c-2.3,0-3.2,4.1-1.1,7.1
		c1.8,2.5,3.2,5.8,4.1,9.7v0.1c0,0.3,0.1,0.5,0.1,0.8c0,0.3,0.1,0.4,0.1,0.7c0.7,3.7,1.1,7.8,1.1,12.6c0,10.4-5.6,32.7-12.9,47.3
		c-0.4,0.7-0.7,1.2-1.1,1.9l-5.5,9c-0.8,1.4-0.7,3.3,0.4,4.8c0.7,1.1,1.9,1.8,3.4,1.8c0,0,4.4,5.5,5.8,16c0.7,4.8,0.7,10.7-0.7,17.5
		l-10.3,7.8l-11,8.4V15.1c5.2-1.2,11.2-2.6,17.8-3.8C-191.8,10.7-186.3,9.8-180.4,8.7z M82.7,37.7L78,41.3L68,49L82.7,37.7z
		 M46.7,65.2v267.1l-51.1,38.8V104.4l0,0L46.7,65.2L46.7,65.2z M-32.1,72.1l4.4,13.7h14.4l-11.6,8.5l4.4,13.7l-11.6-8.5l-11.7,8.5
		l4.4-13.7L-51,85.8h14.4L-32.1,72.1z M-240.5,99.3l4.4,13.7h14.4l-11.6,8.5l4.4,13.7l-11.6-8.5l-11.6,8.5l4.4-13.7l-11.6-8.5h14.4
		L-240.5,99.3z M-55.6,143.6v266.3l-25.5,19.3l-25.6-19.4V182.6l-51.1,39.2V371l33.3,25.2L-230.3,316l0,0l21.4,16.2v-71.4l51.1-39.2
		l51.1-39.2L-55.6,143.6z M-132.5,144.7l4.5,13.7h14.4l-11.6,8.5l4.4,13.7l-11.6-8.5l-11.6,8.5l4.5-13.7l-11.6-8.5h14.4
		L-132.5,144.7z M-240.5,222.3l4.4,13.7h14.4l-11.6,8.5l4.4,13.7l-11.6-8.5l-11.6,8.5l4.4-13.7l-11.6-8.5h14.4L-240.5,222.3z
		 M-212.6,263.7l-15.5,11.9l-17.8,13.6l17.8-13.6L-212.6,263.7z M-248.3,291.1c2.5,7,6.2,13.3,11.1,18.8
		C-242.2,304.4-245.9,297.9-248.3,291.1L-248.3,291.1z M78.6,305.6c-0.1,0.3-0.4,0.5-0.5,0.7c-0.1,0.3-0.4,0.5-0.5,0.7
		c0.1-0.3,0.4-0.5,0.5-0.8C78.3,306,78.5,305.9,78.6,305.6z M73.5,311.5c-1.6,1.6-3.4,3.2-5.2,4.5l0,0l-19.4,14.7l19.4-14.8
		C70.1,314.7,71.9,313,73.5,311.5z"/>
	<path id="path276" class="st2" d="M89.7,242.9V32.4l-11.6,8.9l-31.4,24v267.1l21.5-16.3l0,0c3.7-2.9,7-6,9.9-9.7
		c7.4-9.5,11.6-21.2,11.6-33.4C89.7,272.9,89.7,242.9,89.7,242.9z M-4.4,104.4L-4.4,104.4l-51.2,39.2v266.3l51.1-38.8V104.4H-4.4z
		 M-157.8,221.8L-157.8,221.8V371l51.1,38.8V182.6L-157.8,221.8z M-208.9,261l-19.2,14.7l-20.3,15.5c3.4,9.9,9.6,18.6,17.9,24.9l0,0
		l21.4,16.2V261H-208.9z"/>
</g>
</svg>
