<?xml version="1.0" encoding="utf-8"?>
<!-- Generator: Adobe Illustrator 24.0.1, SVG Export Plug-In . SVG Version: 6.00 Build 0)  -->
<svg version="1.1"
	 id="barcelona" inkscape:version="0.48.2 r9819" sodipodi:docname="FCB.svg" xmlns:cc="http://creativecommons.org/ns#" xmlns:dc="http://purl.org/dc/elements/1.1/" xmlns:inkscape="http://www.inkscape.org/namespaces/inkscape" xmlns:rdf="http://www.w3.org/1999/02/22-rdf-syntax-ns#" xmlns:sodipodi="http://sodipodi.sourceforge.net/DTD/sodipodi-0.dtd" xmlns:svg="http://www.w3.org/2000/svg"
	 xmlns="http://www.w3.org/2000/svg" xmlns:xlink="http://www.w3.org/1999/xlink" x="0px" y="0px" viewBox="0 0 259.7 261.9"
	 style="enable-background:new 0 0 259.7 261.9;" xml:space="preserve">
<style type="text/css">
	.st0{fill:#004D98;}
	.st1{fill:#A50044;}
	.st2{fill:#FFFFFF;}
	.st3{fill:#FFED02;}
	.st4{fill:#DB0030;}
	.st5{fill:#EDBB00;}
	.st6{fill:#DEB405;}
</style>
<g id="g2279">
	<g>
		<path id="path2239_1_" d="M24.1,9.1c17.8,7.8,47,6.9,66.5-7.9c27.4,20.1,53.7,18,78.8,0c16.7,12.1,42.5,17.3,66.7,8.1L247,24.4
			c-28.3,37.8-17.8,73.9,11.4,105.7l-12.2,12.4c2.8,81.5-60.4,101-96.6,103l-19.5,16l-19.3-15.7c-64.7-5.6-98.9-39.7-96.8-103
			L1.3,130c24.6-26.6,43.1-63,11.5-105.6L24.1,9.1z"/>
		<path d="M130,262.7l-19.7-16c-32.6-2.9-57.4-13-73.8-30.1c-16.6-17.4-24.6-42.1-23.6-73.4L0,130l0.6-0.7
			C33.8,93.5,37.5,59.3,12,24.9l-0.4-0.6L23.8,7.9l0.7,0.3c7,3.1,15.9,4.8,25.1,4.8c15.4,0,29.8-4.5,40.5-12.6L90.6,0l0.6,0.4
			c12.8,9.4,25.8,14.1,38.6,14.1c12.9,0,26-4.7,39.1-14.1l0.5-0.4l0.5,0.4c11.1,8,25.9,12.6,40.6,12.6c8.7,0,17.2-1.5,25.3-4.6
			l0.7-0.3l11.7,16.2l-0.4,0.5c-25.2,33.7-21.4,68.9,11.3,104.5l0.6,0.7l-12.6,12.8c1.1,36-10.3,63.5-34.1,81.7
			c-22.3,17.1-49,21-63.2,21.9L130,262.7L130,262.7z M2.6,130l12.3,12.4l0,0.4c-2.1,62.1,30.2,96.4,95.9,102.1l0.3,0l19,15.4
			l19.1-15.7l0.3,0c23.2-1.3,98.8-12.5,95.7-102l0-0.4l11.9-12.1c-32.7-36-36.5-71.6-11.2-105.7l-10-13.9c-8.1,3-16.6,4.5-25.3,4.5
			c-14.8,0-29.8-4.6-41.1-12.6c-13.2,9.3-26.5,14.1-39.6,14.1c-13.1,0-26.3-4.7-39.2-14.1c-11,8.1-25.5,12.5-41.1,12.5
			c-9.1,0-18-1.6-25.2-4.6L14,24.4C39.1,58.7,35.3,94.3,2.6,130L2.6,130z"/>
	</g>
	<path id="path5105" inkscape:connector-curvature="0" class="st0" d="M25.5,141.1h208.3c5.5,57.6-31.1,88.8-86.8,91.8l-35.4,0.1
		C58.3,229.2,18.7,201.1,25.5,141.1z"/>
	<rect id="rect6076" x="115.3" y="141.8" class="st1" width="29.5" height="92.1"/>
	<g id="g6100" transform="translate(-0.132,0)">
		<rect id="rect6088" x="56.7" y="141.8" class="st1" width="29.5" height="82.3"/>
		<rect id="rect6092" x="67" y="219.9" class="st1" width="19.2" height="8.5"/>
	</g>
	<g id="g6096" transform="translate(-0.132,0)">
		<rect id="rect6090" x="173.8" y="141.8" class="st1" width="29.5" height="82.3"/>
		<rect id="rect6094" x="173.8" y="219.9" class="st1" width="19.2" height="8.5"/>
	</g>
	<path id="path4130" class="st2" d="M129.1,28.1v81.8l-99.4,0.7L40,71.3L27.2,24.2l62.9-8.1L129.1,28.1z"/>
	<path id="path2187" inkscape:connector-curvature="0" class="st3" d="M130.6,28.1v81.8l99.4,0.7l-10.2-39.4l12.8-47.1l-62.9-8.1
		L130.6,28.1z"/>
	<rect id="rect2169" x="71.7" y="18.4" class="st4" width="28.5" height="91"/>
	<rect id="rect3143" x="40.4" y="52.3" class="st4" width="88.7" height="28.5"/>
	<g id="g2174" transform="translate(-0.132,0)">
		<rect id="rect4118" x="139.6" y="24.8" class="st4" width="10.5" height="84"/>
		<rect id="rect4120" x="159.6" y="18.8" class="st4" width="10.5" height="90.2"/>
		<rect id="rect4122" x="179.8" y="23.9" class="st4" width="10.5" height="85.3"/>
		<rect id="rect4124" x="199.7" y="27" class="st4" width="10.5" height="82.1"/>
	</g>
	<g>
		<path id="path4181_1_" inkscape:connector-curvature="0" class="st5" d="M90.5,7.7C72.1,21.1,43,22.5,26.4,15.8l-6.7,8.6
			c28.7,40.3,12.2,80.9-10.5,105.7l10.5,11.1c-4.2,60.8,31.2,95.9,93.6,99.5l16.9,14.1l16.9-14.3c36.3-0.6,100-21,93.1-99.4
			l10.5-10.9c-26.7-29.6-35.9-70.1-10.1-105.8l-6.3-8.5c-22.8,7.5-48.9,3.3-64.6-8C146,24.7,116.1,26.5,90.5,7.7z M169.8,19.2
			c14.2,8.8,29.8,11.3,56.8,8.9c-13.5,23.4-15,51.2-3,78.1l-187.3-0.1c10.1-24,12.4-51.7-3.4-78.5c19.5,2.8,38.5,2.1,57.4-8.2
			C116.1,34.5,142.6,34.8,169.8,19.2z M29.7,142h200.8c5.3,55.6-30,85.6-83.7,88.5l-34.1,0.1C61.3,226.9,23.1,199.8,29.7,142z"/>
		<path class="st6" d="M130.1,256.1l-17.3-14.4c-32.5-1.9-58.1-12.6-74.2-31c-15.2-17.2-21.9-40.5-19.9-69.2L7.9,130.1l0.6-0.6
			c11.2-12.2,45-55.9,10.5-104.6l-0.4-0.6l7.5-9.7l0.7,0.3c6.2,2.5,14.2,3.9,22.7,3.9c15.4,0,30.2-4.3,40.5-11.9l0.6-0.4L91,6.9
			c11.9,8.7,25.3,13.3,38.9,13.3c13.6,0,27.1-4.5,39.1-13.1l0.5-0.4l0.5,0.4c10.2,7.4,24.8,11.6,39.9,11.6c8.3,0,16.3-1.3,23.9-3.7
			l0.6-0.2l7.1,9.6l-0.4,0.6c-23.1,32-19.3,72.1,10,104.6l0.6,0.6l-10.8,11.2c2.4,28.6-4.3,51.9-19.9,69.3
			c-24.7,27.4-62.3,30.4-73.8,30.7L130.1,256.1L130.1,256.1z M10.4,130.1l10.2,10.7l0,0.4c-2,28.3,4.6,51.3,19.5,68.2
			c15.8,18,41.2,28.5,73.2,30.3l0.3,0l16.5,13.8l16.5-14l0.3,0c10.9-0.2,48.3-2.9,72.8-30.1c15.4-17.1,21.9-40,19.4-68.3l0-0.4
			l10.2-10.6c-29.3-32.9-33.1-73.3-10-105.8l-5.5-7.5c-7.5,2.4-15.6,3.6-23.8,3.6c-15.3,0-30-4.2-40.4-11.6
			c-12.2,8.6-25.9,13.1-39.7,13.1c-13.8,0-27.4-4.6-39.5-13.3c-10.6,7.5-25.5,11.9-41.1,11.9c-8.4,0-16.4-1.3-22.7-3.7l-5.8,7.5
			C55,73.1,22.4,116.8,10.4,130.1L10.4,130.1z M112.7,231.6c-30.9-2.2-54.7-12.5-69.1-29.9c-12.6-15.2-17.6-35.4-14.8-59.8l0.1-0.8
			h202.5l0.1,0.9c2.4,25-3.2,45.5-16.5,61c-14.7,17.1-38.2,26.9-68.1,28.6L112.7,231.6L112.7,231.6z M30.5,142.9
			c-2.5,23.5,2.3,42.9,14.5,57.6c14,16.9,37.4,27,67.7,29.2l34.1-0.1c29.3-1.6,52.4-11.3,66.7-27.9c12.8-14.9,18.3-34.7,16.1-58.7
			L30.5,142.9L30.5,142.9z M225.1,107.2l-190.1-0.1l0.5-1.3C47,78.3,45.9,51.4,32.1,28.1l-1-1.7l1.9,0.3c6.6,1,12.6,1.4,18.2,1.4
			c14.3,0,26.9-3.1,38.7-9.5l0.5-0.3l0.5,0.3c12.7,7.5,25.8,11.3,38.7,11.3c0,0,0,0,0,0c13.1,0,26.5-3.9,39.8-11.5l0.5-0.3l0.5,0.3
			c10.9,6.8,22.6,9.6,39,9.6c5.1,0,10.7-0.3,17.2-0.8l1.8-0.2l-0.9,1.6c-13.6,23.5-14.7,51-3,77.3L225.1,107.2L225.1,107.2z
			 M37.8,105.2l184.4,0.1c-11.1-25.9-10.1-52.8,2.8-76.1c-5.8,0.5-10.9,0.7-15.6,0.7c-16.6,0-28.5-2.9-39.6-9.6
			c-13.5,7.6-27,11.5-40.3,11.5c0,0,0,0,0,0c-13.1,0-26.3-3.8-39.2-11.3C78.5,26.9,65.7,30,51.3,30c-5.2,0-10.6-0.4-16.6-1.2
			C47.6,51.9,48.7,78.2,37.8,105.2L37.8,105.2z"/>
	</g>
	<path d="M224.8,107.5l-190.1-0.1l0.5-1.3c11.5-27.5,10.4-54.4-3.3-77.7l-1-1.7l1.9,0.3c6.6,1,12.6,1.4,18.2,1.4
		c14.3,0,26.9-3.1,38.7-9.5l0.5-0.3l0.5,0.3c12.7,7.5,25.8,11.3,38.7,11.3c13.1,0,26.5-3.9,39.8-11.5l0.5-0.3l0.5,0.3
		c10.9,6.8,22.5,9.6,39,9.6c5.1,0,10.7-0.3,17.2-0.8l1.8-0.2l-0.9,1.6c-13.6,23.5-14.7,51-3,77.3L224.8,107.5L224.8,107.5z
		 M37.5,105.5l184.4,0.1c-11.1-25.9-10.1-52.8,2.8-76.1c-5.8,0.5-10.9,0.7-15.6,0.7c-16.6,0-28.5-2.9-39.5-9.6
		c-13.5,7.6-27,11.5-40.3,11.5c-13.1,0-26.3-3.8-39.2-11.3c-11.9,6.4-24.7,9.5-39.1,9.5c-5.2,0-10.6-0.4-16.5-1.2
		C47.4,52.2,48.5,78.5,37.5,105.5L37.5,105.5z"/>
	<path d="M112.7,231.6L112.7,231.6c-30.8-2.2-54.7-12.5-69.1-29.9c-12.6-15.2-17.6-35.4-14.8-59.8l0.1-0.8h202.5l0.1,0.9
		c2.4,25-3.2,45.5-16.5,61c-14.7,17.1-38.2,26.9-68.1,28.6L112.7,231.6L112.7,231.6z M30.5,142.9c-2.5,23.5,2.3,42.9,14.5,57.6
		c14,16.9,37.4,27,67.7,29.2l34.1-0.1c29.3-1.6,52.4-11.3,66.7-27.9c12.8-14.9,18.3-34.7,16.1-58.7L30.5,142.9L30.5,142.9z"/>
	<polygon points="130.8,106.6 129,106.6 129,30.7 130.8,30.7 	"/>
	<g id="g6097">
		<g>
			<path id="path2185_1_" inkscape:connector-curvature="0" class="st5" d="M157.6,185.3c0,15.1-12.2,27.3-27.3,27.3
				c-15.1,0-27.3-12.2-27.3-27.3c0,0,0,0,0,0c0-15.1,12.2-27.3,27.3-27.3S157.6,170.2,157.6,185.3
				C157.6,185.3,157.6,185.3,157.6,185.3z"/>
			<path d="M130.3,213.6L130.3,213.6c-15.6,0-28.2-12.7-28.2-28.2c0-15.6,12.7-28.3,28.2-28.3c15.6,0,28.2,12.7,28.2,28.2
				c0,7.6-2.9,14.7-8.3,20C144.9,210.6,137.9,213.6,130.3,213.6L130.3,213.6z M130.3,158.9c-7.1,0-13.7,2.7-18.6,7.7
				c-5,5-7.7,11.6-7.7,18.6c0,14.5,11.8,26.4,26.4,26.4v0.9l0-0.9c7,0,13.7-2.7,18.6-7.7c5-5,7.7-11.6,7.7-18.6
				C156.7,170.8,144.8,158.9,130.3,158.9L130.3,158.9z"/>
		</g>
		<g id="g4131">
			<path d="M122,193.6c-1.3,0-2.6-0.4-3.9-1.2c-10-6-7.5-18.4-4.5-29.6l1.8,0.5c-3.7,13.4-4.4,22.7,3.6,27.5c1.6,0.9,3,1.1,4.5,0.6
				c3.7-1.3,5.9-6.6,6.2-7.2l1.7,0.7c-0.4,1.1-2.9,6.8-7.3,8.3C123.4,193.5,122.7,193.6,122,193.6L122,193.6z"/>
			<path d="M105.1,197.3l-0.1-1.9c5.1-0.2,7.6-0.6,10.9-5.5l1.6,1C113.7,196.6,110.5,197,105.1,197.3L105.1,197.3z"/>
		</g>
		<path d="M153.5,197.7c-0.7-2.2-2.6-4.2-4.7-5.3c-1.3-0.6-3.3-1.1-5.7-0.2l-1,0.4l-0.3-1c-1-3.9-2.7-6.3-4.8-7.2
			c-1.8-0.7-3.9-0.3-6.2,1.1l-1-1.6c2.9-1.8,5.6-2.2,7.9-1.3c2.5,1,4.4,3.5,5.7,7.5c2-0.6,4.2-0.4,6.2,0.6c2.7,1.2,4.8,3.7,5.7,6.4
			L153.5,197.7L153.5,197.7z"/>
		<path d="M113.7,207.9l-0.2-1.9c15.6-1.6,24.9-6.5,28.4-15l1.7,0.7C139.9,201,130.1,206.3,113.7,207.9L113.7,207.9z"/>
		<path d="M129.7,185.9l-0.7-0.6c-3.3-2.9-7.7-6.9-0.9-15.6c-3.5-4.7-3.2-8.8,0.7-12.3l1.3,1.4c-3.3,3-3.3,6.1,0,10.3l0.5,0.6
			l-0.5,0.6c-6.4,7.6-3,10.6,0.2,13.5l0.7,0.6L129.7,185.9L129.7,185.9z"/>
		<path d="M156.7,187.4c-4.1-7.2-15-20-27.1-16.8l-0.5-1.8c13.2-3.5,24.9,10.1,29.2,17.7L156.7,187.4L156.7,187.4z"/>
	</g>
</g>
<path id="rect2194" d="M92.1,111.1v0.1h-5v9.6v5.5V137h5.4v-10.7h7.6v-5.5h-7.6v-4.2h13.2v-5.5H92.1z"/>
<path id="path3176" d="M132.7,119.2l4.8-2.5c-3.1-6.8-15.5-8.7-19.6,0c-4.2,10.4,0.3,20.1,8.4,21c5.2,0.8,9.3-1.8,11.1-6.3l-4.8-2.7
	c-1.3,3.2-6.1,5.3-9.8,0.1c-1.1-2.4-1.4-6-0.2-9.5C125.7,115.1,130.1,115.5,132.7,119.2z"/>
<path id="path5116" d="M151.1,111.2l0.1,26l14.2-0.1c4.6-0.6,10.7-8.2,3.6-14.1c3.7-3.3,3.3-10.4-4.2-11.9L151.1,111.2z
	 M156.5,116.3h7.1c3.1,0.9,2.2,3.9,0.1,4.4h-7.2L156.5,116.3L156.5,116.3z M156.6,125.8l7.4,0.1c3.7,1.1,2.8,5.3,0.1,6l-7.5-0.1
	L156.6,125.8z"/>
</svg>
