<?xml version="1.0" encoding="utf-8"?>
<!-- Generator: Adobe Illustrator 24.0.1, SVG Export Plug-In . SVG Version: 6.00 Build 0)  -->
<svg version="1.1" id="Layer_1" xmlns="http://www.w3.org/2000/svg" xmlns:xlink="http://www.w3.org/1999/xlink" x="0px" y="0px"
	 viewBox="0 0 2500 2500" style="enable-background:new 0 0 2500 2500;" xml:space="preserve">
<style type="text/css">
	.st0{fill-rule:evenodd;clip-rule:evenodd;fill:#FFFFFF;}
	.st1{fill:#346BA5;}
	.st2{fill:#CC2229;}
	.st3{fill-rule:evenodd;clip-rule:evenodd;fill:#346BA5;}
	.st4{fill:#FFFFFF;}
</style>
<path class="st0" d="M1250,2443.5c659.1,0,1193.5-534.3,1193.5-1193.5c0-659.1-534.3-1193.5-1193.5-1193.5
	C590.9,56.5,56.5,590.9,56.5,1250S590.9,2443.5,1250,2443.5z"/>
<path class="st1" d="M1250,2423.7c324.1,0,617.5-131.4,829.9-343.8c212.4-212.4,343.8-505.8,343.8-829.9
	c0-324.1-131.4-617.5-343.8-829.9C1867.5,207.7,1574.1,76.3,1250,76.3S632.5,207.7,420.1,420.1C207.7,632.5,76.3,925.9,76.3,1250
	c0,324.1,131.4,617.5,343.8,829.9C632.5,2292.3,925.9,2423.7,1250,2423.7z M1250,2463.2c-335,0-638.3-135.8-857.9-355.3
	C172.6,1888.3,36.8,1585,36.8,1250c0-335,135.8-638.3,355.4-857.9C611.7,172.6,915,36.8,1250,36.8c335,0,638.3,135.8,857.9,355.4
	S2463.2,915,2463.2,1250c0,335-135.8,638.3-355.3,857.9C1888.3,2327.4,1585,2463.2,1250,2463.2z"/>
<path class="st2" d="M1250,1949.3c193.1,0,368-78.3,494.5-204.8c126.5-126.6,204.8-301.4,204.8-494.5c0-193.1-78.3-368-204.8-494.5
	C1618,628.9,1443.1,550.7,1250,550.7c-193.1,0-368,78.3-494.5,204.8C628.9,882,550.7,1056.9,550.7,1250
	c0,193.1,78.3,368,204.8,494.5C882,1871.1,1056.9,1949.3,1250,1949.3L1250,1949.3z M1250,2364.7c-307.8,0-586.5-124.8-788.2-326.5
	c-201.7-201.7-326.5-480.4-326.5-788.2c0-307.8,124.8-586.5,326.5-788.2S942.2,135.3,1250,135.3s586.5,124.8,788.2,326.5
	c201.7,201.7,326.5,480.4,326.5,788.2s-124.8,586.5-326.5,788.2C1836.5,2239.9,1557.8,2364.7,1250,2364.7L1250,2364.7z"/>
<path class="st0" d="M268,909.6l70.9-161.2l50.4,22.2l-42,95.7l40.9,18l35.9-81.7l47.4,20.8L435.5,905l95.8,42.1l-28.8,65.6
	L268,909.6L268,909.6z M606.5,641.2l56.2-34.2c12.2,15.7,20.4,31.2,24.6,46.5c4.2,15.3,4.5,30.2,1,44.7
	c-3.5,14.5-11.9,29.6-25.2,45.4c-16.2,19.3-32.5,32.3-48.9,39.3c-16.4,6.9-36.1,8.2-59.1,3.9c-23-4.3-46.7-16.7-71-37.1
	c-32.4-27.3-50.9-56-55.2-86.2c-4.4-30.2,5.4-59.5,29.3-87.9c18.7-22.2,38.3-35.4,59-39.8c20.7-4.3,44-0.9,69.9,10.3l-28.6,58.1
	c-7.4-3.3-13.3-5.2-17.6-5.7c-6.8-0.9-13.7-0.2-20.1,2.2c-6.3,2.4-11.9,6.4-16.2,11.6c-10.4,12.4-12.9,26.5-7.4,42.4
	c4,11.9,14.8,25.2,32.3,40c21.8,18.3,39.2,27.8,52.2,28.7c13.1,0.8,24.1-4.1,33.1-14.8c8.8-10.4,12.2-21,10.1-31.9
	C623.1,665.8,616.9,654,606.5,641.2L606.5,641.2z M815.4,366.4l28.6-13c9.8-4.4,17.5-5.7,23.2-3.7c5.7,2,10.1,6.4,13.2,13.2
	c3.3,7.3,3.9,13.8,1.7,19.5c-2.2,5.7-8.4,10.8-18.4,15.4l-28.2,12.8L815.4,366.4L815.4,366.4z M834.7,582.2l112-51.1
	c4.8-2.2,14-7.7,27.7-16.5c10.2-6.6,17.3-12.9,21.2-18.9c6.1-9.6,9.5-20.4,10.2-32.3c0.7-12-1.7-24-7.2-36.1
	c-6.8-14.9-16-25.6-27.5-32.1s-25.8-8.4-42.7-5.6c8.1-8.3,13.3-17,15.5-25.9c3.2-13.4,1.7-27-4.6-40.8
	c-7.5-16.4-19.2-27.7-35.2-33.9c-16-6.2-34-4.7-54.1,4.5L728.3,349L834.7,582.2L834.7,582.2z M855.8,455l32.9-15
	c11.3-5.2,20.2-6.7,26.7-4.6c6.4,2.1,11.2,6.6,14.3,13.5c3.4,7.4,3.8,14.4,1.3,20.9c-2.6,6.5-9.4,12.3-20.5,17.3l-33.1,15.1
	L855.8,455z M1111.9,382.7l13.4-94.5l37,88L1111.9,382.7z M1200.7,469.7l74-9.5l-118.5-242.9l-77.1,9.9l-53.3,265l72.2-9.3l5.7-43.3
	l80.4-10.3L1200.7,469.7z M1277.2,206.7l78.4,11.5l33.5,92.3l58.7-78.8l77.8,11.4l-110.3,134.4l-15.5,106.2l-70.7-10.4l15.5-106.2
	L1277.2,206.7L1277.2,206.7z M1608.7,273.5l172.4,81.6l-23.4,49.4l-108-51.1l-17.4,36.8l100.2,47.4l-22.3,47.2L1610,437.4
	l-21.6,45.6l111.1,52.6l-24.8,52.4l-175.5-83.1L1608.7,273.5z M1889.7,501.2l23.2,21c9.6,8.8,14.7,16.4,15.3,22.8
	c0.5,6.4-2,12.7-7.5,18.8c-3.5,4-8.1,6.8-13.3,8c-4.7,1.2-9.7,0.6-14-1.9c-8.5-4.5-13.9-7.9-16.3-10.1l-22.2-20.2L1889.7,501.2
	L1889.7,501.2z M1752.4,652.5l69.8-76.9l4.7,4.2c4.8,4.4,7.8,9.7,8.9,16.1c0.8,4.8-0.4,12.6-3.7,23.3l-24.4,83.5l59.6,54.1
	l24.4-78.1c1.2-3.9,2.3-10.1,3.2-18.5c1-8.4,1.1-14.3,0.6-17.6c-0.7-4.9-3.2-11.4-7.4-19.4c9.6,5.1,18.1,8.2,25.3,9.3
	c11.3,1.7,22.8,0.5,33.5-3.4c11-4,21.3-11.2,30.8-21.7c10.9-12.1,17.6-24.7,19.9-37.9c2.3-13.2,0.6-25.3-5.2-36.2
	s-16.8-23.8-33.1-38.6l-87.8-79.7l-172,189.6L1752.4,652.5L1752.4,652.5z M2095.4,640.6l33,57.8l-80,145.8l123.1-70.3l33.3,58.3
	l-222.5,127.2L1949,901l79.3-144.8L1906.1,826l-33.3-58.3L2095.4,640.6L2095.4,640.6z M461,1311.2l22,90.1l-141.4,71.4l158.4-2
	l22,89.9l-246.4,60.2l-13.7-56l187.9-45.9l-198.5,2.5l-12.4-50.8l177.4-89.1l-187.9,45.9l-13.7-56.2L461,1311.2L461,1311.2z
	 M623,1717.1l39.3,58.3l-125.3,84.5c-11.9,8.1-24.9,14.3-38.7,18.5c-13,3.9-26.6,5-40,3.1c-13.3-1.9-24.3-5.8-33.2-11.6
	c-12.3-8.2-23.9-20.3-34.7-36.3c-6.7-10.1-12.8-20.6-18.1-31.5c-5.9-11.9-9.2-22.9-9.9-33.1c-0.7-10.2,0.9-20.9,4.7-32.2
	c3.8-11.3,9.1-20.9,15.8-28.8c10.9-12.6,21.6-22.4,31.9-29.4l125.3-84.4l39.3,58.3L451.2,1739c-11.5,7.7-18.5,16.6-21.1,26.7
	c-2.6,10.1-0.5,20.2,6.4,30.3c6.8,10,15.3,15.8,25.5,17.2c10.2,1.4,21.2-1.8,32.8-9.6L623,1717.1L623,1717.1z M692.1,1806.8
	l52.6,39.7l-16,163.7l84.6-111.8l53,40l-152.9,202.2l-53-40l15.8-162.6l-83.9,111l-53-40L692.1,1806.8L692.1,1806.8z M1001,2147.8
	l51.9,39.3c-10.1,16.9-21.4,30.1-34,39.5c-12.6,9.4-26.2,15.1-40.8,17.1c-14.6,2-31.6-0.2-50.9-6.7c-23.6-8-41.6-18.2-53.9-30.8
	c-12.3-12.6-20.6-30.3-25-53c-4.4-22.7-1.6-49,8.5-78.9c13.4-39.8,33.2-67.1,59.3-82.1c26.2-15,56.7-16.6,91.6-4.9
	c27.2,9.1,46.5,22.4,58,39.9c11.5,17.5,16.7,40.2,15.9,68.1l-63.9-5.3c0.4-8,0-14.1-1.2-18.3c-1.6-6.6-4.8-12.6-9.3-17.7
	c-4.5-4.9-10.2-8.6-16.6-10.7c-15.2-5.1-29.1-2.2-41.7,8.6c-9.5,8-17.9,22.7-25.1,44.3c-9,26.7-11.5,46.2-7.5,58.5
	c4,12.3,12.6,20.7,25.7,25.1c12.8,4.3,23.8,3.6,33-2.2S993,2161.9,1001,2147.8L1001,2147.8z M1138.9,2030l70.6,0.1l-0.1,88.7
	l76.9,0.1l0.1-88.7l70.9,0.1l-0.3,253.5l-70.9-0.1l0.1-102.5l-76.9-0.1l-0.1,102.5l-70.6-0.1L1138.9,2030z M1402,2021.1l179.6-57.9
	l16.6,51.5l-112.5,36.3l12.4,38.3l104.4-33.7l15.8,49.2l-104.5,33.7l15.3,47.5l115.8-37.3l17.6,54.6l-182.9,58.9L1402,2021.1z
	 M1617.6,1946.4l53.4-38.6l151.9,63.3l-82.2-113.7l53.8-38.9l148.6,205.5l-53.8,38.9l-150.8-62.8L1820,2113l-53.8,38.9
	L1617.6,1946.4L1617.6,1946.4z M1898.5,1693l87.7-167.1l47.9,25.2l-55,104.6l35.6,18.7l51-97.2l45.8,24l-51,97.2l44.2,23.2
	l56.6-107.7l50.8,26.7l-89.3,170.1L1898.5,1693L1898.5,1693z M1995.6,1510.2l13.1-72.7l188.7-18.2l-170.6-82.1l12.7-70.5
	l234.5,128.4l-13.5,75.1L1995.6,1510.2z"/>
<path class="st0" d="M584.9,1662l30.9,45.8l-72.9,14.8L584.9,1662z"/>
<path class="st3" d="M1250,1920.7c370.4,0,670.7-300.3,670.7-670.7S1620.4,579.3,1250,579.3c-370.4,0-670.7,300.3-670.7,670.7
	S879.6,1920.7,1250,1920.7L1250,1920.7z"/>
<path class="st0" d="M1279.7,657.3v275.3l136.8,229.4V892.7L1279.7,657.3z M1111.6,716.6v275.3l136.8,229.4V952L1111.6,716.6z
	 M943.4,776v275.3l136.8,229.4v-269.3L943.4,776z M775.3,835.3v275.3L912.1,1340v-269.3L775.3,835.3z M607.2,1073.6v96.3L744,1399.3
	V1130l-89.7-167.3L607.2,1073.6z M1447.8,598v275.3l136.8,229.4V833.3L1447.8,598z M1615.9,698.5L1752.7,829v220.2l-136.8-235.4
	V698.5z M1226.6,1826.6v-269.3l-136.8-235.3v275.3L1226.6,1826.6L1226.6,1826.6z M1394.7,1767.2v-269.3l-136.8-235.4v275.2
	L1394.7,1767.2L1394.7,1767.2z M1562.8,1707.9v-269.3L1426,1203.2v275.2L1562.8,1707.9L1562.8,1707.9z M1731,1648.5v-269.3
	l-136.8-235.4v275.3L1731,1648.5L1731,1648.5z M1899.1,1410.2v-116l-136.8-209.6v275.2l89.7,141.6L1899.1,1410.2z M1058.5,1880
	v-263.4l-136.8-235.4v281.2L1058.5,1880L1058.5,1880z M890.4,1799.2l-136.8-118.7v-240l136.8,241.3V1799.2z"/>
<path class="st4" d="M1250,1891.1c177,0,337.3-71.8,453.3-187.8s187.8-276.3,187.8-453.3s-71.8-337.3-187.8-453.3S1427,609,1250,609
	s-337.3,71.7-453.3,187.8S609,1073,609,1250s71.7,337.3,187.8,453.3S1073,1891.1,1250,1891.1L1250,1891.1z M1250,1950.4
	c-193.4,0-368.5-78.4-495.3-205.1C628,1618.5,549.6,1443.4,549.6,1250c0-193.4,78.4-368.5,205.1-495.2s301.9-205.1,495.3-205.1
	s368.5,78.4,495.2,205.1s205.1,301.8,205.1,495.2s-78.4,368.5-205.1,495.3S1443.4,1950.4,1250,1950.4z"/>
</svg>
