<?xml version="1.0" encoding="utf-8"?>
<!-- Generator: Adobe Illustrator 24.0.1, SVG Export Plug-In . SVG Version: 6.00 Build 0)  -->
<svg version="1.1" id="Layer_1" xmlns="http://www.w3.org/2000/svg" xmlns:xlink="http://www.w3.org/1999/xlink" x="0px" y="0px"
	 viewBox="0 0 730.9 600" style="enable-background:new 0 0 730.9 600;" xml:space="preserve">
<style type="text/css">
	.st0{fill:#DE9500;}
	.st1{fill:#FFFFFF;}
	.st2{fill:#00954C;}
	.st3{fill:#D7013E;}
</style>
<g>
	<path id="path3" class="st0" d="M460.2,237.2c-24.5-23.8-58-38.5-94.8-38.5c-36.8,0-70.2,14.7-94.7,38.5H0L365.4,600l365.4-362.8
		H460.2z"/>
	<path id="path5" class="st1" d="M365.4,211.4c68.1,0,123.5,55.4,123.5,123.5c0,68.1-55.4,123.5-123.5,123.5
		C297.3,458.4,242,403,242,334.9C242,266.8,297.3,211.4,365.4,211.4"/>
	<path id="path7" class="st2" d="M308.4,311h10.2v-15.5h-10.2v-18.6h29.9v51h-29.9V311 M308.4,378.2h10.2v-15.5h-10.2v-16.5h29.9
		v49.6h-29.9V378.2z M392.1,395.8h-36.2v-49.6h7.1v5.3h10.2v-5.3h14.4c4,0,4.6,7.1,4.6,7.1V395.8L392.1,395.8z M392.1,317.4
		l-0.1,2.3c0,0-0.9,8-6.1,8.1h-12.8v-6.7H363v6.7h-7v-51h36.2V317.4L392.1,317.4z M436.7,379.6c-0.9,2.7-5.7,16.1-10.8,16.1
		c-0.3,0-0.4,0.1-0.6,0.1H408v-43.3h-0.1c-0.2-2.9-1.5-6-1.6-6.4h18c1.4,0.1,13.2,4.8,13.3,19.4h-11.6v14.1H436.7z M437.5,310.6
		L437.5,310.6c0,0-6.3,17.2-11.9,17.2l-0.4,0h-19.7c0.3-0.6,2.4-4.5,2.4-8.1v-42.9h16.8c0.3,0.1,12.8,4.5,12.8,19.7h-11.6v14.1
		H437.5L437.5,310.6z M464.7,296.5h-10.5c0-0.1-2.2-27.8-23-36.9h-22.4v-0.6c0-22.4-16.4-27-28.4-27c-12,0-17.5,5-17.5,5v16.2
		c0,0,0.3-5.7,15.8-5.7c17.3,0,13.9,12.1,13.9,12.1v0h-36.6v-9.9c0-16.7-8.5-21.1-18.4-21.1l-7,0v17.9h4.2c2.8,0,3.4,2.1,3.5,3.5
		v9.5H282v17.2h12.3v18.6H282V311h12.3v16.9H282v18.3h12.3v16.5H282v15.5h12.3v17.6H282v15.5h55.4v4.4c0,3-2.6,2.6-2.6,2.6h-5.6v18
		h11.2c4.6,0,15.1-4.8,15.1-16.6v-6.3l0-2.1h36.7c0,8.2-4.3,12.1-15.5,12.1c-11.2,0-14.4-5.4-14.4-5.4v16.3
		c3.3,3.7,17.1,4.8,17.1,4.8c27.9,0,28.8-23.4,28.7-27.7h24.9c0,0,17.7-7.5,20-31.7h11.7v-14.1h-10.9c0-1-0.6-23.6-12.5-30
		c0,0,11.4-6.5,11.5-24.8l-0.1,0h11.9V296.5z"/>
	<polygon id="polygon9" class="st2" points="82.3,249.9 82.3,301 133.8,352.1 133.8,249.9 	"/>
	<polygon id="polygon11" class="st1" points="82.3,301 82.3,249.9 30.8,249.9 30.8,249.9 	"/>
	<path id="path13" class="st2" d="M229.3,334.9c0-15.6,2.6-30.5,7.5-44.5v-40.5h-51.5v153.3l51.5,51.1v-74.9
		C231.9,365.5,229.3,350.5,229.3,334.9z"/>
	<polygon id="polygon15" class="st1" points="185.3,249.9 133.8,249.9 133.8,352.1 185.3,403.2 	"/>
	<path id="path17" class="st2" d="M288.2,447v58.4l51.5,51.1v-87.9C320.9,465,303.4,457.5,288.2,447z"/>
	<path id="path19" class="st1" d="M236.7,379.4v74.9l51.5,51.1V447C264.6,430.7,246.3,407.1,236.7,379.4L236.7,379.4z"/>
	<path id="path21" class="st1" d="M259.1,249.9h-22.4v40.5C241.9,275.6,249.5,261.9,259.1,249.9z"/>
	<path id="path23" class="st2" d="M391.2,468.6v87.9l51.5-51.1V447C427.4,457.5,410,465,391.2,468.6z"/>
	<path id="path25" class="st1" d="M365.4,471.1c-8.8,0-17.4-0.8-25.7-2.5v87.9l25.7,25.6l25.7-25.6v-87.9
		C382.8,470.2,374.2,471.1,365.4,471.1z"/>
	<path id="path27" class="st2" d="M494.1,249.9v40.5c4.8,13.9,7.5,28.9,7.5,44.5c0,15.6-2.6,30.6-7.5,44.5v74.9l51.5-51.1V249.9
		H494.1z"/>
	<path id="path29" class="st1" d="M442.7,447v58.4l51.5-51.1v-74.9C484.5,407.1,466.3,430.7,442.7,447z"/>
	<path id="path31" class="st1" d="M471.7,249.9c9.6,12,17.3,25.7,22.4,40.5v-40.5H471.7z"/>
	<polygon id="polygon33" class="st2" points="597.1,352.1 648.6,301 648.6,249.9 597.1,249.9 	"/>
	<polygon id="polygon35" class="st1" points="597.1,249.9 545.6,249.9 545.6,403.2 597.1,352.1 	"/>
	<polygon id="polygon37" class="st1" points="700,249.9 648.6,249.9 648.6,301 	"/>
	<path id="path39" class="st3" d="M349.2,132.8c0-5.9,3.2-11,7.9-13.8V82.9c-29.1,1.3-55.5,9.2-75.8,21.6c2,8.2,7.2,16.1,15.1,23
		c2-0.9,4.2-1.4,6.5-1.4c8.9,0,16.1,7.2,16.1,16.1c0,6.4-3.7,11.8-9.1,14.4l0.1,0.2c1.5,3,4.1,5.3,7.3,6.4c3.2,1.1,6.7,0.8,9.7-0.7
		c3-1.5,5.3-4.1,6.4-7.3c0.2-0.5,0.3-0.9,0.4-1.4c-2.5-1.1-3.8-3.9-2.9-6.6c0.9-2.8,4-4.3,6.8-3.4c2.8,0.9,4.3,4,3.4,6.8
		c-0.3,1-1,1.9-1.8,2.5c1.5,2.8,4,5.1,7.1,6.1c3.2,1.1,6.7,0.9,9.7-0.7c3-1.5,5.3-4.1,6.4-7.3c0.3-0.8,0.4-1.7,0.5-2.5
		C355.2,147.6,349.2,140.9,349.2,132.8"/>
	<path id="path41" class="st3" d="M302.9,158.2c-8.9,0-16.1-7.2-16.1-16.1c0-0.3,0-0.5,0.1-0.8c-9.3-7.7-16.1-16.8-19.8-26.5
		c-13.7,11.8-22.8,26.1-25.4,41.7c1.4-0.4,2.9-0.7,4.5-0.7c8.9,0,16.1,7.2,16.1,16.1c0,4.2-1.6,7.9-4.2,10.8
		c2.3,2.2,5.4,3.5,8.8,3.5c7,0,12.7-5.7,12.7-12.7c0-0.5,0-1-0.1-1.5c-2.7-0.3-4.9-2.5-4.9-5.3c0-3,2.4-5.4,5.4-5.4
		c3,0,5.4,2.4,5.4,5.4c0,1.1-0.3,2.1-0.9,2.9c2.3,2.2,5.4,3.5,8.7,3.5c7,0,12.7-5.7,12.7-12.7c0-0.9-0.1-1.7-0.3-2.6
		C304.6,158.1,303.8,158.2,302.9,158.2"/>
	<path id="path43" class="st3" d="M381.7,132.8c0-5.9-3.2-11-7.9-13.8V82.9c29.1,1.3,55.5,9.2,75.8,21.6c-2,8.2-7.2,16.1-15.1,23
		c-2-0.9-4.2-1.4-6.5-1.4c-8.9,0-16.1,7.2-16.1,16.1c0,6.4,3.7,11.8,9.1,14.4l-0.1,0.2c-1.5,3-4.1,5.3-7.3,6.4
		c-3.2,1.1-6.7,0.8-9.7-0.7c-3-1.5-5.3-4.1-6.4-7.3c-0.2-0.5-0.3-0.9-0.4-1.4c2.5-1.1,3.8-3.9,2.9-6.6c-0.9-2.8-4-4.3-6.8-3.4
		c-2.8,0.9-4.3,4-3.4,6.8c0.3,1,1,1.9,1.8,2.5c-1.5,2.8-4,5.1-7.1,6.1c-3.2,1.1-6.7,0.9-9.7-0.7c-3-1.5-5.3-4.1-6.4-7.3
		c-0.3-0.8-0.4-1.7-0.5-2.5C375.7,147.6,381.7,140.9,381.7,132.8"/>
	<path id="path45" class="st3" d="M428,158.2c8.9,0,16.1-7.2,16.1-16.1c0-0.3,0-0.5,0-0.8c9.3-7.7,16.1-16.8,19.8-26.5
		c13.7,11.8,22.8,26.1,25.4,41.7c-1.4-0.4-2.9-0.7-4.5-0.7c-8.9,0-16.1,7.2-16.1,16.1c0,4.2,1.6,7.9,4.2,10.8
		c-2.3,2.2-5.4,3.5-8.8,3.5c-7,0-12.7-5.7-12.7-12.7c0-0.5,0-1,0.1-1.5c2.7-0.3,4.9-2.5,4.9-5.3c0-3-2.4-5.4-5.4-5.4
		c-3,0-5.4,2.4-5.4,5.4c0,1.1,0.3,2.1,0.9,2.9c-2.3,2.2-5.4,3.5-8.7,3.5c-7,0-12.7-5.7-12.7-12.7c0-0.9,0.1-1.7,0.3-2.6
		C426.3,158.1,427.1,158.2,428,158.2"/>
	<path id="path47" class="st0" d="M524.7,126.3c0-15.2-6.6-29.8-18.6-41.2c-12.9-12.1-30.2-18.9-49.4-19.4
		c-14.8-20.6-43.9-35.5-78.3-38.5c0-5.9-3.9-10.8-9.3-12.5v-2.5l6.4,0l0-7.3L369,5V0l-3.6,0l-3.6,0v5l-6.4,0l0,7.3l6.4,0v2.5
		c-5.4,1.6-9.2,6.6-9.3,12.5c-34.4,3.1-63.5,17.9-78.3,38.5c-19.2,0.5-36.5,7.3-49.4,19.4c-12,11.3-18.6,25.9-18.6,41.2
		c0,16.6,8.7,32.3,24.1,44.6c0,0.4-0.1,0.7-0.1,1.1c0,8.9,7.2,16.1,16.1,16.1c1.8,0,3.5-0.3,5.1-0.8c1.3,2.6,5.6,9.2,15.8,9.4
		c-0.6,0.5-1.3,0.9-1.9,1.3c-1.7,1.3-4.1,4.8-1.4,9.1c1.3,2,3.1,3,5.4,3c0.8,0,1.5-0.1,2.1-0.3l8.2,11.3l1.6-1.2
		c24.6-18,53.7-27.6,84.2-27.6c30.5,0,59.6,9.5,84.2,27.6l1.6,1.2l8.2-11.3c0.6,0.2,1.4,0.3,2.1,0.3c2.2,0,4.1-1,5.4-3
		c2.7-4.3,0.3-7.8-1.4-9.1c-0.6-0.5-1.3-0.9-1.9-1.3c10.2-0.2,14.5-6.8,15.8-9.4c1.6,0.5,3.3,0.8,5.1,0.8c8.9,0,16.1-7.2,16.1-16.1
		c0-0.4,0-0.7-0.1-1.1C516.1,158.6,524.7,142.9,524.7,126.3z M293.3,173.2c-3.3,0-6.4-1.3-8.7-3.5c0.6-0.8,0.9-1.8,0.9-2.9
		c0-3-2.4-5.4-5.4-5.4c-3,0-5.4,2.4-5.4,5.4c0,2.8,2.1,5.1,4.9,5.3c0.1,0.5,0.1,1,0.1,1.5c0,7-5.7,12.7-12.7,12.7
		c-3.4,0-6.5-1.4-8.8-3.5c2.6-2.9,4.2-6.6,4.2-10.8c0-8.9-7.2-16.1-16.1-16.1c-1.6,0-3.1,0.2-4.5,0.7c-0.7,0.2-1.3,0.4-2,0.7
		c-11-9-17.1-19.8-17.1-30.9c0-10.6,4.8-20.9,13.4-29.1c7.9-7.4,18.1-12.2,29.5-14.1c-1.2,4.3-1.9,8.8-1.9,13.4
		c0,6.2,1.2,12.4,3.5,18.2c3.8,9.7,10.5,18.7,19.8,26.5c0,0.3,0,0.5,0,0.8c0,8.9,7.2,16.1,16.1,16.1c0.9,0,1.8-0.1,2.6-0.2
		c0.2,0.8,0.3,1.7,0.3,2.6C306,167.5,300.3,173.2,293.3,173.2z M362.7,151.2c-1.1,3.2-3.3,5.8-6.4,7.3c-3,1.5-6.5,1.7-9.7,0.7
		c-3.1-1-5.6-3.3-7.1-6.1c0.8-0.6,1.4-1.5,1.8-2.5c0.9-2.8-0.6-5.9-3.4-6.8c-2.8-0.9-5.9,0.6-6.8,3.4c-0.9,2.7,0.4,5.5,2.9,6.6
		c-0.1,0.5-0.2,1-0.4,1.4c-1.1,3.2-3.3,5.8-6.4,7.3c-3,1.5-6.5,1.7-9.7,0.7c-3.2-1.1-5.8-3.4-7.3-6.4l-0.1-0.2
		c5.4-2.6,9.1-8.1,9.1-14.4c0-8.9-7.2-16.1-16.1-16.1c-2.3,0-4.5,0.5-6.5,1.4c-7.9-6.8-13.1-14.7-15.1-23c-0.6-2.6-1-5.2-1-7.9
		c0-27.1,34.4-50.2,76.7-53V119c-4.7,2.8-7.9,7.9-7.9,13.8c0,8.1,6,14.8,13.8,15.9C363.1,149.5,362.9,150.4,362.7,151.2z
		 M420.7,156.8c-1.5,3-4.1,5.3-7.3,6.4c-3.2,1.1-6.7,0.8-9.7-0.7c-3-1.5-5.3-4.1-6.4-7.3c-0.2-0.5-0.3-0.9-0.4-1.4
		c2.5-1.1,3.8-3.9,2.9-6.6c-1-2.8-4-4.3-6.8-3.4c-2.8,0.9-4.3,4-3.4,6.8c0.4,1,1,1.9,1.8,2.5c-1.5,2.8-4,5.1-7.1,6.1
		c-3.2,1.1-6.7,0.8-9.7-0.7c-3-1.5-5.3-4.1-6.4-7.3c-0.3-0.8-0.4-1.7-0.5-2.5c7.8-1.1,13.8-7.8,13.8-15.9c0-5.9-3.2-11-7.9-13.8
		V43.7c42.4,2.7,76.7,25.9,76.7,53c0,2.6-0.3,5.3-1,7.9c-2,8.2-7.2,16.1-15.1,23c-2-0.9-4.2-1.4-6.5-1.4c-8.9,0-16.1,7.2-16.1,16.1
		c0,6.4,3.7,11.8,9.1,14.4L420.7,156.8z M491,157.3c-0.6-0.3-1.3-0.5-2-0.7c-1.4-0.4-2.9-0.7-4.5-0.7c-8.9,0-16.1,7.2-16.1,16.1
		c0,4.1,1.6,7.9,4.2,10.8c-2.3,2.2-5.4,3.5-8.8,3.5c-7,0-12.7-5.7-12.7-12.7c0-0.5,0-1,0.1-1.5c2.7-0.3,4.9-2.5,4.9-5.3
		c0-3-2.4-5.4-5.4-5.4c-3,0-5.4,2.4-5.4,5.4c0,1.1,0.3,2.1,0.9,2.9c-2.3,2.2-5.4,3.5-8.7,3.5c-7,0-12.7-5.7-12.7-12.7
		c0-0.9,0.1-1.7,0.3-2.6c0.9,0.1,1.7,0.2,2.6,0.2c8.9,0,16.1-7.2,16.1-16.1c0-0.3,0-0.5,0-0.8c9.3-7.7,16.1-16.8,19.8-26.5
		c2.3-5.9,3.5-12,3.5-18.2c0-4.6-0.7-9.1-1.9-13.4c11.4,1.9,21.6,6.6,29.5,14.1c8.7,8.1,13.4,18.5,13.4,29.1
		C508.1,137.4,502,148.3,491,157.3z"/>
</g>
</svg>
