<?xml version="1.0" encoding="utf-8"?>
<!-- Generator: Adobe Illustrator 24.0.1, SVG Export Plug-In . SVG Version: 6.00 Build 0)  -->
<svg version="1.1" id="Logo" xmlns="http://www.w3.org/2000/svg" xmlns:xlink="http://www.w3.org/1999/xlink" x="0px" y="0px"
	 viewBox="0 0 86.9 155.2" style="enable-background:new 0 0 86.9 155.2;" xml:space="preserve">
<style type="text/css">
	.st0{fill:#E01C43;}
	.st1{fill:#A3C8EA;}
	.st2{fill:#FFFFFF;}
	.st3{fill-rule:evenodd;clip-rule:evenodd;fill:#BC9449;}
</style>
<g>
	<g>
		<path class="st0" d="M15.6,57.5c-0.8-1.7-0.2-5.5,5.7-5.5c0.4,0,0.7,0,1.1,0c-0.3-2.1-0.6-4.3-0.7-6.6c-0.1,0-0.3,0-0.4,0
			c-5.9,0-6.5-3.8-5.7-5.5c0.8-1.7,5-1.6,6.7-0.3c-0.6-4.2-4.5-6.2-7.5-6.2c-3.1,0-5.4,2.6-5.4,5.7c0,3.2,4.9,7.2,4.9,7.2
			s-3.8-0.1-5.5-0.1c-1.2-2.5-4.2-2.1-5.3-0.5c-1.1,1.6-3.4,3-3.4,3s2.3,1.4,3.4,3c1.1,1.6,4.1,2,5.3-0.5c1.7,0,5.5-0.1,5.5-0.1
			s-4.9,4.1-4.9,7.2c0,3.1,2.3,5.7,5.4,5.7c3.1,0,6.9-2,7.5-6.2C20.6,59.1,16.3,59.2,15.6,57.5z"/>
		<path class="st0" d="M83.5,45.7c-1.1-1.6-4.1-2-5.3,0.5c-1.7,0-5.5,0.1-5.5,0.1s4.9-4.1,4.9-7.2c0-3.2-2.3-5.7-5.4-5.7
			c-3.1,0-6.9,2-7.5,6.2c1.6-1.3,5.9-1.4,6.7,0.3c0.8,1.7,0.2,5.5-5.7,5.5c-0.3,0-0.6,0-1,0c-0.2,1.8-0.4,4.1-0.9,6.6
			c0.7,0,1.3,0,1.9,0c5.9,0,6.5,3.8,5.7,5.5c-0.8,1.7-5,1.6-6.7,0.3c0.6,4.2,4.5,6.2,7.5,6.2c3.1,0,5.4-2.6,5.4-5.7
			c0-3.2-4.9-7.2-4.9-7.2s3.8,0.1,5.5,0.1c1.2,2.5,4.2,2.1,5.3,0.5c1.1-1.6,3.4-3,3.4-3S84.7,47.3,83.5,45.7z"/>
	</g>
	<path class="st0" d="M48.3,81.1c-1.5,1.2-3.2,2.3-5,3.2c0,0-2.1-0.9-5-3.1C38.3,88,31.6,90,31.6,90l11.8,65.3l0,0L55.2,90
		C55.2,90,48.3,88,48.3,81.1z"/>
	<path class="st0" d="M54.9,11.7C49.3,7.6,43.4,0,43.4,0h0c0,0-5.9,7.6-11.5,11.7c-5.6,4.1-3.8,13.8,1.5,13.6
		c4.5-0.2,2.9-3.9,2.5-4.9c-0.4-0.9,0.8-2.1,1.8-2.1c0.9-0.1,1.6,0.9,1.6,3.4c0,0.9,0,4.3,0,8.3c1.8-0.4,4.8-0.8,8.2,0
		c0-4,0-7.4,0-8.3c0-2.5,0.7-3.5,1.6-3.4c0.9,0.1,2.1,1.2,1.8,2.1c-0.4,0.9-1.9,4.7,2.5,4.9C58.7,25.5,60.5,15.8,54.9,11.7z"/>
	<path class="st1" d="M43.4,83.1c0,0-21.1-8.8-21.1-41.7c15.7,0,42,0,42,0S64.7,71.8,43.4,83.1z"/>
	<g>
		<path class="st2" d="M54.5,51.1c-6.3,0-14.3,0-20.6,0c0,10.5,5.3,17.6,11.8,22.3c0.5-0.7,1-1.4,1.4-2.1V71
			c-5.1-3.5-9.7-8.8-9.7-16.8c4.7,0,11.1,0,16.5,0C54.1,53.2,54.3,52.1,54.5,51.1z"/>
		<path class="st2" d="M27.2,45.4c0,20.2,9.9,29.2,14.6,32.3c0.7-0.6,1.3-1.3,1.9-2c-2.6-1.3-13.4-8.1-13.4-27.2
			c7.5,0,18.7,0,24.5,0c0.2-1.2,0.3-2.2,0.3-3.1C49.3,45.4,36.7,45.4,27.2,45.4z"/>
	</g>
	<g>
		<path class="st3" d="M47.1,35.2c1.4,1.7,2.1,1.8,3.9,0.7c0.2,0.7,0.3,1.5,1.1,1.8c0.7,0.2,1.4,0.2,2.1-0.1
			c0.1,0.4,0.1,0.9,0.4,1.2c0.2,0.3,0.3,0.6,0.5,0.8c-0.1,0.1-0.2,0.3-0.3,0.3c-0.5,0.1-1,0.1-1.4,0.1c-0.2,0-0.4,0-0.6,0.1
			c0.3,0.6,0.6,1.1,0.8,1.6c0.1,0.3,0.1,0.7,0.1,1c-0.1,0.3-0.3,0.2-0.5,0.1c-1.6-0.8-3.3-1.4-5.1-1.8c-4.8-0.9-9.4-0.5-13.8,1.7
			c-0.2,0.1-0.4,0.1-0.7,0.1c0-0.3-0.2-0.7-0.1-0.9c0.2-0.6,0.5-1.1,0.8-1.6c0,0,0,0,0-0.1C33.6,40,33,40,32.4,39.9
			c-0.3,0-0.7,0-0.4-0.5c0-0.1,0-0.2-0.1-0.3c0.7-0.3,0.7-0.9,0.7-1.5c2,0.6,3.1,0,3.3-1.7c0.6,0.5,1.3,0.8,2.1,0.7
			c0.8-0.1,1.3-0.7,1.7-1.4c0.6,0.5,1.2,0.9,1.9,0.9c0.8-0.1,1.3-0.6,1.7-1.2c0.5,0.6,0.9,1.1,1.7,1.2
			C45.9,36.1,46.5,35.7,47.1,35.2z M36,40.9c1.3-0.4,2.5-0.9,3.7-1.3c-0.2-0.7-0.4-1.3-0.6-1.9c-1.3,0.4-2.5,0.9-3.7,1.3
			C35.7,39.6,35.8,40.2,36,40.9z M51.4,39c-1.3-0.4-2.5-0.9-3.7-1.3c-0.2,0.7-0.4,1.3-0.6,1.9c1.2,0.4,2.5,0.9,3.7,1.3
			C51,40.2,51.2,39.6,51.4,39z M41.1,38.2c0.8,0.5,1.5,0.9,2.2,1.4c0.1,0,0.2,0.1,0.3,0c0.7-0.5,1.5-0.9,2.2-1.4
			c-0.8-0.5-1.4-0.9-2.1-1.3c-0.1-0.1-0.3-0.1-0.4,0C42.5,37.3,41.8,37.7,41.1,38.2z"/>
		<path class="st3" d="M36.2,34.2c-0.3-0.2-0.4-0.2-0.5-0.3c0.2-0.4,0.4-0.8,0.5-1.1c0.1-0.2,0.1-0.3,0.1-0.5c-0.2,0-0.3,0-0.5,0
			c0.1-0.9-0.1-1.2-0.9-1.6c0.5-0.9,0.4-1.3-0.3-1.9c0.2-0.2,0.5-0.5,0.6-0.7c0.1-0.3,0-0.6,0-0.9c0.9-0.3,1-0.5,1-1.4
			c0.3,0,0.5,0,0.7-0.1c0.2-0.1,0.3-0.4,0.5-0.6c0.2,0,0.5,0.2,0.8,0.1c0.2-0.1,0.4-0.3,0.6-0.5c0.4,0.5,0.6,0.5,1.2,0.1
			c0.4,0.5,0.6,0.6,1.2,0.2c0.2,0.3,0.4,0.6,0.8,0.3c0.3,0.4,0.3,0.4,0.7,0.4c0.2,0.2,0.3,0.5,0.5,0.7c-0.6,0.4-0.6,0.9,0,1.4
			c-0.8,0.7-0.8,1.1-0.2,1.7c-0.2,0.4-0.4,0.7-0.7,1.1c-0.1,0.1-0.2,0.2-0.4,0.2c-0.2,0.1-0.4,0.3-0.1,0.5c0.4,0.3,0.8,0.6,1.2,0.9
			c-0.1,0.2-0.3,0.3-0.5,0.5c-0.3-0.3-0.6-0.6-0.9-0.9c-0.1-0.1-0.3-0.1-0.4-0.2c0,0.1-0.1,0.3-0.1,0.4c-0.1,0.3-0.2,0.6-0.2,0.9
			c0,0.3,0,0.6,0.1,0.9c0.1,0.3,0.2,0.5,0.3,0.8c0.1,0.1,0.1,0.2,0.2,0.4c0.1-0.1,0.3-0.1,0.3-0.2c0.2-0.4,0.4-0.7,0.7-1.1
			c0.2,0.2,0.4,0.3,0.6,0.4c-0.2,0.8-0.7,1.2-1.4,1.3c-0.8,0.1-1.5-0.2-1.9-0.9c0.5-0.6,0.6-1.2,0.1-1.5c-0.4-0.3-0.9-0.2-1.2,0.2
			c-0.3,0.5-0.1,1,0.5,1.3c-0.1,0.7-0.6,1.3-1.3,1.5c-0.7,0.2-1.4,0.1-1.9-0.5c-0.1-0.1-0.1-0.2-0.1-0.3c0.1,0,0.3-0.1,0.4-0.1
			c0.3,0.2,0.6,0.4,0.9,0.6c0.1,0.1,0.3,0.1,0.4,0c0.1-0.1,0.1-0.3,0.1-0.4c0-0.3,0-0.6-0.1-0.8c0-0.2-0.1-0.4-0.2-0.6
			c-0.2-0.3-0.5-0.4-0.5-0.8c0-0.1-0.2-0.2-0.2-0.2c-0.1,0.1-0.2,0.2-0.3,0.3C36.4,33.3,36.3,33.7,36.2,34.2z M36.3,31
			c0.9-0.3,1.8-0.8,2.7-1c0.9-0.2,1.8-0.3,2.7-0.4c0.1,0,0.3-0.2,0.3-0.3c0.2-0.9,0.4-1.8,0.5-2.7c0-0.1-0.1-0.3-0.1-0.4
			c-1.2-0.5-2.4-0.8-3.7-0.7c-1.1,0.1-1.9,0.7-2.3,1.6C35.7,28.5,35.8,29.8,36.3,31z"/>
		<path class="st3" d="M51.1,32.3c-0.1,0-0.3,0-0.5,0c0,0.2,0,0.3,0.1,0.5c0.2,0.4,0.3,0.7,0.5,1.1c-0.1,0-0.2,0.1-0.5,0.3
			c-0.1-0.4-0.2-0.8-0.4-1.2c-0.1-0.2-0.2-0.3-0.3-0.5c-0.1,0.1-0.2,0.3-0.3,0.4c-0.1,0.1-0.2,0.2-0.3,0.4c-0.1,0.2-0.3,0.4-0.4,0.7
			C49,34.4,49,34.8,49,35.1c0,0.1,0.1,0.3,0.2,0.3c0.1,0,0.3,0,0.4-0.1c0.3-0.2,0.6-0.4,1-0.6c0.1,0,0.2,0,0.3,0.1c0,0,0,0.2,0,0.3
			c-0.4,0.5-1.2,0.7-1.9,0.5c-0.8-0.2-1.3-0.8-1.4-1.5c0.7-0.4,0.9-0.9,0.5-1.4c-0.3-0.4-0.8-0.5-1.2-0.2c-0.5,0.4-0.4,0.9,0.1,1.4
			c-0.3,0.7-0.9,1-1.7,1c-0.8,0-1.3-0.4-1.6-1.2c0.2-0.1,0.4-0.3,0.6-0.5c0.2,0.4,0.4,0.7,0.6,1.1c0.1,0.1,0.2,0.2,0.4,0.3
			c0.1-0.1,0.2-0.2,0.3-0.4c0.1-0.3,0.3-0.5,0.3-0.8c0.1-0.3,0.1-0.6,0-0.9c0-0.3-0.1-0.6-0.2-0.8c0-0.1-0.1-0.3-0.2-0.4
			c-0.1,0.1-0.3,0.1-0.4,0.2c-0.3,0.3-0.6,0.6-0.8,0.9c-0.1-0.2-0.3-0.4-0.4-0.5c0.3-0.2,0.7-0.5,1.1-0.8c0.1-0.1,0.1-0.3,0-0.4
			c-0.1-0.1-0.3-0.1-0.3-0.2c-0.3-0.4-0.5-0.7-0.8-1.1c0.6-0.7,0.6-1.1-0.1-1.6c0.1-0.3,0.4-0.5,0.4-0.8c0-0.2-0.2-0.5-0.4-0.7
			c0.1-0.1,0.2-0.4,0.3-0.5c0.3-0.1,0.5-0.2,0.9-0.3c0.2,0.1,0.5,0,0.7-0.4c0.6,0.3,0.8,0.3,1.2-0.3c0.5,0.5,0.7,0.5,1.2,0
			c0.5,0.7,0.7,0.7,1.4,0.3c0.3,0.7,0.5,0.8,1.1,0.7c0.1,0.3,0.1,0.7,0.3,1c0.2,0.2,0.6,0.3,0.9,0.5c-0.2,0.8-0.1,1.1,0.7,1.5
			c-0.8,0.7-0.9,1.1-0.5,1.9c-0.3,0.2-0.6,0.4-0.8,0.7C51.1,31.6,51.1,32,51.1,32.3z M50.6,31.1c0.5-1.4,0.6-2.7,0-4
			c-0.4-0.8-1-1.3-1.8-1.5c-1.5-0.4-2.8,0-4.2,0.6c-0.1,0-0.2,0.2-0.2,0.3c0.2,1,0.4,2,0.7,3C46.9,29.7,48.8,30,50.6,31.1z"/>
		<path class="st3" d="M52.1,34.6c-0.1-0.2-0.2-0.4-0.2-0.5c0.6-0.2,1.1-0.4,1.6-0.5c0-0.1,0-0.1,0-0.2c-0.2-0.1-0.4-0.1-0.6-0.2
			c-0.1-0.1-0.3-0.1-0.3-0.2c0,0,0.1-0.2,0.2-0.3c0.1-0.1,0.2-0.3,0.4-0.4c1.5,0.7,2.6,1.7,3.4,3.2c0.5-0.6,0.6-1.3,0.6-2.1
			c0-1.4-0.5-2.7-1.5-3.7c-0.5-0.5-1-0.7-1.7-0.7c-0.3,0-0.5-0.2-0.8-0.3c0.2-0.2,0.3-0.3,0.5-0.5c0.3,0.3,0.6,0.5,1,0.1
			c0.3,0.6,0.5,0.7,1.1,0.4c0.2,0.7,0.3,0.8,1.1,0.8c-0.1,0.8,0,1,0.8,1.2c-0.4,0.7-0.3,1.2,0.5,1.5c-0.7,0.6-0.7,1-0.2,1.7
			c-0.9,0.4-1.1,0.9-0.6,1.9c-0.6,0.1-0.9,0.4-0.9,1c0,0.1,0,0.2-0.1,0.2c-0.5,0.1-0.5,0.6-0.7,1c0,0.1,0,0.2-0.1,0.3
			c0.1,0,0.2,0,0.3,0c0.1,0,0.2,0,0.3,0c-0.2,0.3-0.4,0.4-0.7,0.3c-0.5-0.2-0.8-0.8-0.7-1.5c0.6-0.2,0.8-0.4,0.7-0.9
			c-0.1-0.4-0.4-0.5-0.7-0.4c-0.4,0.1-0.5,0.4-0.4,1c-1.2,0.7-2.6,0.2-2.9-1c-0.1-0.3-0.1-0.6,0.4-0.6c0.1,0.4,0.1,0.7,0.2,1.1
			c0.1,0.2,0.2,0.3,0.3,0.5c0.1-0.2,0.2-0.3,0.3-0.5c0,0,0-0.1,0-0.1c0.6-0.5,0.6-1.2,0.8-1.8c0-0.1,0.1-0.3,0.1-0.3
			c-0.1-0.1-0.2-0.2-0.3-0.1c-0.2,0-0.3,0.1-0.5,0.2C52.5,34.3,52.3,34.4,52.1,34.6z"/>
		<path class="st3" d="M35.1,35.1c0.5,0,0.6,0.2,0.5,0.5c-0.2,1-1.2,1.6-2.3,1.4c-0.2-0.1-0.4-0.1-0.6-0.2c0-0.7-0.1-1-0.5-1
			c-0.3,0-0.6,0.2-0.6,0.5c-0.1,0.4,0.2,0.6,0.7,0.7c0.1,0.7-0.1,1.2-0.6,1.5c-0.4,0.2-0.5,0.1-0.9-0.2c0.2,0,0.5,0,0.8,0
			c-0.3-0.5-0.2-1.1-0.8-1.3c0,0-0.1-0.1-0.1-0.2c0-0.6-0.4-0.9-1-1c0.5-0.9,0.3-1.3-0.6-1.8c0.5-0.7,0.5-1.1-0.1-1.7
			c0.7-0.5,0.8-0.8,0.5-1.6c0.7-0.2,0.8-0.4,0.7-1.2c0.6,0,1-0.2,1-0.7c0.3,0,0.5,0.1,0.7,0c0.2-0.1,0.3-0.3,0.4-0.5
			c0.3,0.3,0.7,0.3,1-0.1c0.2,0.2,0.3,0.3,0.5,0.6c-0.4,0.1-0.7,0.1-1,0.3c-0.5,0.2-1.1,0.4-1.4,0.7c-1.3,1.3-1.8,2.9-1.4,4.7
			c0.1,0.4,0.3,0.7,0.5,1.2c0.8-1.6,2-2.7,3.4-3.4c0.1,0.1,0.1,0.1,0.1,0.1c0.2,0.2,0.3,0.4,0.5,0.6c-0.2,0.1-0.5,0.2-0.7,0.3
			c-0.1,0-0.2,0.1-0.2,0.2c0,0.1,0.1,0.2,0.2,0.2c0.4,0.1,0.9,0.2,1.4,0.4c-0.1,0.2-0.2,0.3-0.3,0.5c-0.3-0.2-0.5-0.5-0.8-0.6
			c-0.2-0.1-0.4,0-0.6,0c0.1,0.2,0.1,0.3,0.2,0.5c0,0.1,0.1,0.2,0.1,0.3c-0.1,0.5,0.1,0.9,0.4,1.2c0.1,0.1,0.1,0.3,0.2,0.4
			c0.1,0.2,0.2,0.3,0.3,0.5c0.1-0.2,0.2-0.3,0.3-0.5C35,35.9,35,35.5,35.1,35.1z"/>
		<path class="st3" d="M44.1,21.7c0,0.3-0.1,0.6-0.1,0.9c0.3,0,0.5-0.1,0.8-0.1c0,0.5,0,1,0,1.5c-0.3-0.1-0.5-0.1-0.8-0.2
			c0.1,0.5,0.1,1,0.2,1.4c-0.4,0-0.8,0-1.1-0.1c-0.6-0.3,0-0.8-0.2-1.3c-0.2,0.1-0.5,0.1-0.7,0.2c0-0.5,0-1,0-1.5
			c0.3,0.1,0.5,0.1,0.8,0.2c-0.1-0.4-0.1-0.7-0.2-1C43.1,21.7,43.6,21.7,44.1,21.7z"/>
	</g>
</g>
</svg>
