<?xml version="1.0" encoding="utf-8"?>
<!-- Generator: Adobe Illustrator 24.0.1, SVG Export Plug-In . SVG Version: 6.00 Build 0)  -->
<svg version="1.1" id="Layer_1" xmlns="http://www.w3.org/2000/svg" xmlns:xlink="http://www.w3.org/1999/xlink" x="0px" y="0px"
	 viewBox="0 0 120.1 187.1" style="enable-background:new 0 0 120.1 187.1;" xml:space="preserve">
<style type="text/css">
	.st0{fill-rule:evenodd;clip-rule:evenodd;fill:#FFFFFF;}
	.st1{fill:#1E2652;}
	.st2{fill-rule:evenodd;clip-rule:evenodd;fill:#005EAA;}
	.st3{fill-rule:evenodd;clip-rule:evenodd;fill:#1E2652;}
	.st4{fill-rule:evenodd;clip-rule:evenodd;fill:#AC7559;}
	.st5{fill-rule:evenodd;clip-rule:evenodd;fill:#E42313;}
</style>
<g>
	<path class="st0" d="M60.1,183.7l58.3-116.2l-17.6-21.6C88.9,57.7,60.1,57.7,60.1,57.7s-28.9,0-40.7-11.8L1.8,67.5L60.1,183.7
		L60.1,183.7z"/>
	<path class="st1" d="M60.1,180.3l56.5-112.6l-15.9-19.6C87.7,59.2,60.2,59.2,60.1,59.2h0c-0.1,0-27.6,0-40.5-11.1L3.6,67.7
		L60.1,180.3L60.1,180.3z M61.4,184.4l-1.4,2.7l-1.4-2.7L0.4,68.1L0,67.3l0.6-0.8l17.6-21.6l1.1-1.3l1.2,1.2
		c11.3,11.3,39.1,11.4,39.6,11.4c0,0,0,0,0,0h0c0,0,0,0,0,0c0.5,0,28.3-0.1,39.6-11.4l1.2-1.2l1.1,1.3l17.6,21.6l0.6,0.8l-0.4,0.9
		L61.4,184.4L61.4,184.4z"/>
	<polygon class="st2" points="99.7,51.9 48.8,150.9 60,172.5 112.9,68.5 99.7,51.9 	"/>
	<path class="st0" d="M60.8,142.5L58,148l1.8,0.9l2.7-5.2c0.4-0.8,0.8-1.3,1.3-1.4c0.4-0.1,1,0,1.8,0.4l1.1,0.6
		c0.8,0.4,1.2,0.8,1.3,1.2c0.1,0.4,0,1.1-0.4,1.9l-2.6,5.2c-0.4,0.8-0.8,1.3-1.3,1.5c-0.4,0.1-1,0-1.8-0.4l-0.2-0.1l0.5-1.9l1,0.5
		l3-5.9l-1.9-1l-2.7,5.2c-0.4,0.8-0.8,1.3-1.3,1.4c-0.4,0.1-1,0-1.8-0.4l-0.9-0.5c-0.8-0.4-1.2-0.8-1.3-1.2c-0.1-0.4,0-1,0.4-1.9
		l2.4-4.7c0.4-0.8,0.8-1.3,1.2-1.4c0.4-0.2,1-0.1,1.7,0.3l0.2,0.1l-0.5,1.9L60.8,142.5L60.8,142.5z"/>
	<path class="st0" d="M68,139.3l0.1-0.3c0.1-0.1,0.2-0.2,0.3-0.2c0.1,0,0.3,0,0.5,0.2l1.3,0.7c0.3,0.1,0.4,0.2,0.4,0.3
		c0,0.1,0,0.3-0.2,0.6l-0.7,1.4c-0.1,0.1-0.2,0.2-0.3,0.2c-0.1,0-0.3,0-0.5-0.2l-1.3-0.7c-0.2-0.1-0.4-0.2-0.4-0.3
		c0-0.1,0-0.3,0.2-0.6L68,139.3L68,139.3z"/>
	<path class="st0" d="M65.9,132.5l1.8-3.5c0.5-0.9,1-1.5,1.7-1.7c0.7-0.2,1.4-0.1,2.3,0.3c1,0.5,1.5,1.1,1.6,1.9
		c0.1,0.8-0.1,1.8-0.8,3.2l-1.3,2.5L65.9,132.5L65.9,132.5z M74.3,133.1c0.4-0.8,0.7-1.6,0.9-2.2c0.2-0.6,0.2-1.1,0.2-1.6
		c-0.1-0.8-0.3-1.5-0.8-2.1c-0.5-0.6-1.1-1.2-1.9-1.6c-1.3-0.7-2.6-0.8-3.7-0.3c-1.1,0.5-2.1,1.5-2.9,3l-2.8,5.4l8.4,4.3L74.3,133.1
		L74.3,133.1z"/>
	<path class="st0" d="M76.1,123.4l0.1-0.3c0.1-0.1,0.2-0.2,0.3-0.2c0.1,0,0.3,0,0.5,0.2l1.3,0.7c0.3,0.1,0.4,0.2,0.4,0.3
		c0,0.1,0,0.3-0.2,0.6l-0.7,1.4c-0.1,0.1-0.2,0.2-0.3,0.2c-0.1,0-0.3,0-0.5-0.2l-1.3-0.7c-0.2-0.1-0.4-0.2-0.4-0.3
		c0-0.1,0-0.3,0.2-0.6L76.1,123.4L76.1,123.4z"/>
	<polygon class="st0" points="82.3,117.4 73.9,113.1 78.3,104.5 79.7,105.3 76.4,111.9 78.2,112.9 80.2,109 81.6,109.7 79.7,113.6 
		81.7,114.6 85.1,107.9 86.7,108.7 82.3,117.4 	"/>
	<polygon class="st0" points="87.7,106.8 79.4,102.5 80.3,100.5 88.7,104.8 87.7,106.8 	"/>
	<path class="st0" d="M86.8,91.5c0.2-0.1,0.3-0.1,0.6,0l0.8,0.4c0.2,0.1,0.3,0.3,0.4,0.4c0,0.2-0.1,0.4-0.2,0.8L86,97.7l-2-1
		l2.3-4.5C86.5,91.8,86.7,91.6,86.8,91.5L86.8,91.5z M90.3,93.2c0.2-0.1,0.4,0,0.7,0.1l0.6,0.3c0.3,0.1,0.4,0.3,0.5,0.5
		c0,0.2,0,0.5-0.2,0.8l-2.3,4.5l-2.1-1.1l2.3-4.5C89.9,93.5,90.1,93.3,90.3,93.2L90.3,93.2z M93.5,95.5c0.4-0.8,0.6-1.5,0.5-2.1
		c-0.1-0.5-0.4-1-0.9-1.2L92,91.6c-0.5-0.2-0.9-0.3-1.3-0.2c-0.4,0.1-0.8,0.4-1.1,0.8c0.2-0.5,0.2-0.9,0.1-1.3
		c-0.1-0.4-0.4-0.7-0.8-0.9l-1-0.5c-0.6-0.3-1-0.3-1.5-0.2c-0.4,0.2-0.8,0.6-1.1,1.2l-3.7,7.2l8.4,4.3L93.5,95.5L93.5,95.5z"/>
	<path class="st0" d="M91.1,83.4l4.3-0.1L93.6,87L91.1,83.4L91.1,83.4z M96,90.5l-1.3-1.9l2.7-5.3l2.3-0.1l1.1-2.2L90,81.6l-1,1.9
		l6,9L96,90.5L96,90.5z"/>
	<path class="st0" d="M98.2,69.5c0.2-0.1,0.4,0,0.6,0.1l1,0.5c0.2,0.1,0.4,0.3,0.4,0.5c0,0.2,0,0.4-0.2,0.8l-2.2,4.4l-2.3-1.2
		l2.2-4.4C97.8,69.8,98,69.6,98.2,69.5L98.2,69.5z M102.4,78l-3.2-1.6l0.9-1.8l4.9-1.8l1.4-2.8l-5.1,2.3l0.6-1.1
		c0.3-0.7,0.5-1.2,0.4-1.7c-0.1-0.4-0.4-0.8-1-1.1l-2-1c-0.6-0.3-1.1-0.3-1.5-0.2c-0.4,0.2-0.8,0.6-1.1,1.3L93,75.7l8.4,4.3
		L102.4,78L102.4,78z"/>
	<path class="st3" d="M86,26c0,14.3-11.6,26-26,26c-14.3,0-26-11.6-26-26c0-14.3,11.6-26,26-26C74.4,0,86,11.6,86,26L86,26z"/>
	<path class="st4" d="M81.9,26c0,12-9.8,21.8-21.8,21.8C48,47.8,38.2,38,38.2,26c0-12,9.8-21.8,21.8-21.8
		C72.1,4.2,81.9,13.9,81.9,26L81.9,26z"/>
	<path class="st1" d="M81.8,15.5c0,0-2.8,7.2-9.9,8.1c-0.8,0.1-1.4,0.5-1.9,1.2c-0.9,1.2-1.5,3.1-1.8,5.4c-0.3,2.3-0.3,4.8,0,7.2
		c0.5,3.6,1.5,6.8,3,7.9l-0.9,1.2c-1.8-1.4-3-5-3.5-9c-0.3-2.5-0.3-5.2,0-7.6c0.3-2.5,1-4.7,2.1-6.1c0.8-1,1.7-1.7,2.9-1.8
		c6.3-0.8,8.7-7.1,8.7-7.1L81.8,15.5L81.8,15.5z"/>
	<path class="st1" d="M83.2,29.1c0,0-2.2,6-15.7,6.1l0-1.5c12.5-0.1,14.3-5.1,14.3-5.1L83.2,29.1L83.2,29.1z"/>
	<path class="st1" d="M39.9,15c0,0,2,5.7,7.8,7.1c1.9,0.5,3.3,1.6,4.4,3.1c1.3,1.9,1.9,4.5,2,7.2c0.1,2.6-0.2,5.4-0.8,7.8
		c-0.7,3-1.9,5.5-3.2,6.3l-0.8-1.3c0.9-0.6,1.9-2.7,2.6-5.4c0.6-2.2,0.9-4.9,0.8-7.4c-0.1-2.5-0.6-4.8-1.7-6.5
		c-0.8-1.2-1.9-2.1-3.4-2.5c-6.6-1.6-8.8-8.1-8.8-8.1L39.9,15L39.9,15z"/>
	<path class="st1" d="M38.6,28.3c0,0,1.6,5.4,14.4,5.4v1.5c-14,0-15.9-6.4-15.9-6.4L38.6,28.3L38.6,28.3z"/>
	<path class="st1" d="M45.8,21.4c2.9,1.8,7.2-0.2,7.3-0.2l0,0c2.9-1.2,7.1-1.2,7.1-1.2v1.5c0,0-3.9,0-6.5,1.1l0,0
		c0,0-5.1,2.4-8.7,0.1L45.8,21.4L45.8,21.4z"/>
	<polygon class="st1" points="60.2,21.4 60.2,21.4 60.2,19.9 60.2,19.9 60.2,21.4 	"/>
	<path class="st1" d="M60.2,19.9c0,0,4.2,0,7.1,1.2l0,0c0,0,4.3,1.8,7.3,0l0.8,1.3c-3.6,2.3-8.6,0.2-8.6,0.1l0,0
		c-2.6-1.1-6.5-1.1-6.5-1.1V19.9L60.2,19.9z"/>
	<path class="st1" d="M61,20.6c0,0,1,8.7-0.1,27.2l-1.5-0.1c1.2-18.4,0.2-26.9,0.2-26.9L61,20.6L61,20.6z"/>
	<polygon class="st5" points="63.3,79 54.5,70.2 45.6,79.1 36.6,70.2 27.9,79 36.8,87.9 27.9,96.8 36.6,105.6 45.6,96.7 54.5,105.6 
		63.3,96.8 54.4,87.9 63.3,79 	"/>
</g>
</svg>
