<?xml version="1.0" encoding="utf-8"?>
<!-- Generator: Adobe Illustrator 24.0.1, SVG Export Plug-In . SVG Version: 6.00 Build 0)  -->
<svg version="1.1" id="Layer_1" xmlns="http://www.w3.org/2000/svg" xmlns:xlink="http://www.w3.org/1999/xlink" x="0px" y="0px"
	 viewBox="0 0 292.9 360" style="enable-background:new 0 0 292.9 360;" xml:space="preserve">
<style type="text/css">
	.st0{fill:#E6C777;}
	.st1{fill:#866B10;}
	.st2{fill:#C5112E;}
	.st3{fill:#FFFFFF;}
	.st4{fill:#1B458F;}
	.st5{fill:#05642C;}
	.st6{fill:#C4014B;}
</style>
<g id="XMLID_1_">
	<path id="path3" class="st0" d="M195.1,0.7c19.9,38.5,55.8,64.4,97.1,73.5v71c-21.5,19.4-38.8,51.4-52,95.9
		c-16.7,51.3-39.2,79.6-93.9,118c-42.5-25.1-77.5-56.5-93.5-113.4c-12-46.3-28.2-78.5-52.1-101.5V74.2C49.8,59.3,82.1,35,97.6,1.2
		L195.1,0.7L195.1,0.7z"/>
	<path id="path5" class="st1" d="M195.1,0.7L194.5,1c20,38.7,56,64.8,97.6,73.9l0.2-0.7h-0.7v71h0.7l-0.5-0.5
		c-21.6,19.5-39,51.6-52.2,96.2l0.7,0.2l-0.7-0.2c-8.3,25.6-18.1,45.4-32.6,63.6c-14.5,18.2-33.7,34.9-61.1,54l0.4,0.6l0.4-0.6
		c-42.4-25.1-77.2-56.3-93.2-112.9l-0.7,0.2l0.7-0.2C41.4,199.3,25.2,167,1.2,143.8l-0.5,0.5h0.7V74.2H0.7l0.2,0.7
		C50.1,60,82.6,35.5,98.2,1.5l-0.6-0.3l0,0.7l97.5-0.5L195.1,0.7L194.5,1L195.1,0.7l0-0.7l-98,0.5l-0.2,0.4
		C81.6,34.5,49.5,58.7,0.5,73.5L0,73.7v70.9l0.2,0.2C24,167.7,40.1,199.7,52.1,246l0,0v0c16,57,51.3,88.6,93.8,113.8l0.4,0.2
		l0.4-0.3c27.4-19.2,46.7-35.9,61.4-54.3s24.5-38.4,32.8-64l0,0l0,0c13.2-44.4,30.5-76.3,51.8-95.6l0.2-0.2V73.7l-0.5-0.1
		c-41.2-9.1-76.9-34.9-96.6-73.2L195.5,0l-0.4,0L195.1,0.7L195.1,0.7z"/>
	<path id="path7" class="st2" d="M59.2,220.4c-8.1-27-21.4-54.6-33.8-68.1l243.5,0c-15.8,19-26.8,43.9-34.5,68.1H59.2L59.2,220.4z"
		/>
	<path id="path9" class="st2" d="M59.2,220.4l0.7-0.2c-8.2-27.1-21.4-54.7-33.9-68.4l-0.5,0.5v0.7l243.5,0v-0.7l-0.5-0.4
		c-15.9,19.1-26.9,44-34.6,68.4l0.7,0.2v-0.7H59.2V220.4l0.7-0.2L59.2,220.4v0.7H235l0.2-0.5c7.7-24.2,18.7-49,34.4-67.9l0.9-1.1
		l-246.6,0l1.1,1.2c12.3,13.4,25.5,40.9,33.6,67.9l0.1,0.5h0.5L59.2,220.4L59.2,220.4z"/>
	<path id="path11" class="st3" d="M15.7,137.6c0.1,0.1-0.2-55.3-0.2-55.3c13.1-2.8,25.7-7.8,37.6-14.7v70H15.7z"/>
	<path id="path13" class="st3" d="M237.6,67.3c12.4,7.6,25.8,13.1,40.3,16.5l-0.1,53.9h-40.3V67.3z"/>
	<path id="path15" class="st3" d="M62.7,61.5c15.9-11,31.7-25,41.9-45.4h83c10.5,17.7,25.6,33.8,40.3,44.7v76.9H62.7V61.5z"/>
	<path id="path17" class="st4" d="M89.2,291.5c-19.6-23-25.9-59.7-25.9-59.7h167.2c-1.9,5.6-6.4,30.5-28.7,59.7H89.2L89.2,291.5z"/>
	<path id="path19" class="st4" d="M146,342.6c-15.5-8.5-33-22.5-43-33.6h83.6C176.8,319.1,160.9,332.8,146,342.6z"/>
	<path id="path21" class="st5" d="M91.1,294.8h108.4l-9.5,10.5h-89.6C96.8,301.7,93.9,298.4,91.1,294.8z"/>
	<rect id="rect23" x="92.3" y="256.6" class="st0" width="3.7" height="15.8"/>
	<rect id="rect25" x="204.9" y="236.6" class="st0" width="3.7" height="15.8"/>
	<path id="path27" class="st0" d="M196.9,256.3l-6.3,15.8h3.7l1.3-3.5h6.3l1.3,3.5h3.8l-6.3-15.8H196.9L196.9,256.3z M196.5,265.9
		l2.2-5.8h0l2.1,5.8H196.5z"/>
	<path id="path29" class="st0" d="M91.7,241.9h3.6c-0.1-0.9-0.4-1.7-0.8-2.4c-0.4-0.7-1-1.3-1.6-1.8c-0.6-0.5-1.4-0.9-2.2-1.1
		c-0.8-0.3-1.7-0.4-2.6-0.4c-1.3,0-2.4,0.2-3.5,0.6c-1,0.4-1.9,1-2.6,1.8c-0.7,0.8-1.2,1.6-1.6,2.6c-0.4,1-0.6,2.1-0.6,3.3
		c0,1.1,0.2,2.2,0.6,3.2c0.4,1,0.9,1.8,1.6,2.6c0.7,0.7,1.6,1.3,2.6,1.7c1,0.4,2.2,0.6,3.5,0.6c1,0,2-0.1,2.8-0.4
		c0.9-0.3,1.6-0.7,2.3-1.3c0.6-0.6,1.2-1.2,1.6-2c0.4-0.8,0.6-1.7,0.7-2.7h-3.6c-0.1,1.1-0.5,1.9-1.2,2.6c-0.6,0.6-1.5,1-2.6,1
		c-0.8,0-1.5-0.2-2.1-0.4c-0.6-0.3-1-0.7-1.4-1.2c-0.4-0.5-0.6-1.1-0.8-1.7c-0.2-0.6-0.2-1.3-0.2-1.9c0-0.7,0.1-1.4,0.2-2
		c0.2-0.6,0.4-1.2,0.8-1.7c0.4-0.5,0.8-0.9,1.4-1.2c0.6-0.3,1.3-0.5,2.1-0.5c0.5,0,0.9,0.1,1.3,0.2c0.4,0.1,0.8,0.3,1.1,0.6
		c0.3,0.3,0.6,0.5,0.8,0.9C91.5,241.1,91.7,241.5,91.7,241.9L91.7,241.9z"/>
	<path id="path31" class="st0" d="M41.5,100.9H48c-0.2-2.3-0.7-4.3-1.5-6.1c-0.8-1.8-1.8-3.3-3-4.4c-1.2-1.2-2.5-2.1-4-2.8
		c-1.5-0.6-3.1-0.9-4.8-0.9c-2.3,0-4.5,0.5-6.3,1.6c-1.9,1.1-3.4,2.5-4.7,4.4c-1.3,1.9-2.3,4.1-3,6.6c-0.7,2.5-1,5.2-1,8.2
		c0,2.9,0.3,5.6,1,8.1c0.7,2.5,1.7,4.6,3,6.5c1.3,1.8,2.9,3.3,4.7,4.4c1.9,1,4,1.5,6.3,1.5c1.9,0,3.6-0.4,5.2-1.1
		c1.6-0.7,2.9-1.8,4.1-3.2c1.2-1.4,2.1-3.1,2.8-5.1c0.7-2,1.2-4.2,1.3-6.7h-6.5c-0.3,2.7-1,4.8-2.1,6.4c-1.1,1.6-2.7,2.4-4.8,2.4
		c-1.5,0-2.8-0.4-3.9-1.1c-1.1-0.8-1.9-1.8-2.6-3c-0.7-1.3-1.1-2.7-1.5-4.2c-0.3-1.6-0.4-3.2-0.4-4.9c0-1.7,0.1-3.4,0.4-5
		c0.3-1.6,0.8-3.1,1.5-4.3c0.7-1.3,1.5-2.3,2.6-3c1.1-0.8,2.3-1.2,3.9-1.2c0.8,0,1.6,0.2,2.4,0.6c0.8,0.3,1.5,0.8,2.1,1.4
		c0.6,0.6,1.1,1.4,1.5,2.2C41.1,99,41.4,99.9,41.5,100.9z"/>
	<path id="path33" class="st1" d="M41.5,100.9v0.7h7.3l-0.1-0.8c-0.2-2.4-0.7-4.5-1.5-6.3c-0.8-1.8-1.8-3.4-3.1-4.6l-0.5,0.5
		l0.5-0.5c-1.2-1.3-2.7-2.3-4.3-2.9c-1.6-0.7-3.3-1-5-1c-2.5,0-4.7,0.6-6.7,1.7c-2,1.1-3.6,2.7-4.9,4.6c-1.3,2-2.4,4.2-3.1,6.9
		c-0.7,2.6-1.1,5.4-1.1,8.4c0,2.9,0.4,5.7,1.1,8.3c0.7,2.5,1.7,4.8,3.1,6.7c1.3,1.9,3,3.5,4.9,4.6l0,0l0,0c2,1.1,4.2,1.6,6.7,1.6
		c2,0,3.8-0.4,5.5-1.2c1.7-0.8,3.1-1.9,4.4-3.4c1.2-1.5,2.2-3.3,3-5.3c0.7-2.1,1.2-4.4,1.4-6.9l0.1-0.7h-7.9l-0.1,0.6
		c-0.2,2.6-0.9,4.6-2,6.1l0,0v0c-1,1.5-2.4,2.1-4.2,2.1c-1.4,0-2.5-0.3-3.5-1l-0.4,0.6l0.4-0.6c-1-0.7-1.7-1.6-2.4-2.8
		c-0.6-1.2-1.1-2.5-1.4-4l-0.7,0.1l0.7-0.1c-0.3-1.5-0.4-3.1-0.4-4.7c0-1.7,0.1-3.3,0.4-4.9l-0.7-0.1l0.7,0.1
		c0.3-1.6,0.8-2.9,1.4-4.1l0,0l0,0c0.6-1.2,1.4-2.1,2.4-2.8l0,0l0,0c0.9-0.7,2.1-1,3.4-1c0.7,0,1.4,0.2,2,0.5l0,0l0,0
		c0.7,0.3,1.3,0.7,1.8,1.3c0.5,0.6,1,1.2,1.4,2l0,0c0.4,0.7,0.6,1.6,0.7,2.5l0.1,0.6h0.6L41.5,100.9l0.7-0.1
		c-0.1-1.1-0.4-2.1-0.8-2.9l-0.6,0.3l0.6-0.3c-0.4-0.9-1-1.7-1.6-2.4c-0.7-0.7-1.4-1.2-2.3-1.6l-0.3,0.6l0.3-0.6
		c-0.8-0.4-1.7-0.6-2.7-0.6c-1.6,0-3.1,0.4-4.3,1.3l0.4,0.6l-0.4-0.6c-1.2,0.8-2.1,1.9-2.8,3.3l0,0l0,0c-0.7,1.3-1.2,2.8-1.5,4.5
		l0,0l0,0c-0.3,1.7-0.4,3.4-0.4,5.2c0,1.7,0.1,3.4,0.4,5l0,0l0,0c0.3,1.6,0.8,3.1,1.5,4.4c0.7,1.3,1.6,2.4,2.8,3.3l0,0l0,0
		c1.2,0.8,2.6,1.2,4.3,1.2c2.2,0,4.1-0.9,5.4-2.7l-0.6-0.4l0.6,0.4c1.3-1.8,2-4,2.3-6.8l-0.7-0.1v0.7h6.5v-0.7l-0.7,0
		c-0.2,2.4-0.6,4.6-1.3,6.5c-0.7,1.9-1.6,3.6-2.7,4.9c-1.1,1.3-2.4,2.3-3.9,3c-1.5,0.7-3.1,1-4.9,1c-2.2,0-4.2-0.5-6-1.5l-0.3,0.6
		l0.3-0.6c-1.8-1-3.3-2.4-4.5-4.2c-1.2-1.8-2.2-3.9-2.9-6.3c-0.7-2.4-1-5.1-1-7.9c0-2.9,0.3-5.6,1-8c0.7-2.5,1.6-4.6,2.9-6.4
		c1.2-1.8,2.7-3.2,4.5-4.2c1.8-1,3.8-1.5,6-1.5c1.6,0,3.1,0.3,4.5,0.9c1.4,0.6,2.7,1.5,3.8,2.6l0,0l0,0c1.1,1.1,2.1,2.5,2.8,4.2
		c0.7,1.7,1.2,3.6,1.4,5.9l0.7-0.1v-0.7h-6.5L41.5,100.9l0.7-0.1L41.5,100.9L41.5,100.9z"/>
	<polygon id="polygon35" class="st0" points="253.1,97 268.8,97 268.8,89.3 246,89.3 246,131.1 253.1,131.1 253.1,113.8 
		266.7,113.8 266.7,106.6 253.1,106.6 	"/>
	<polygon id="polygon37" class="st1" points="246,89.3 245.3,89.3 245.3,131.8 253.8,131.8 253.8,114.5 267.4,114.5 267.4,105.9 
		253.8,105.9 253.8,97.7 269.5,97.7 269.5,88.6 245.3,88.6 245.3,89.3 246,89.3 246,89.9 268.1,89.9 268.1,96.3 252.4,96.3 
		252.4,107.3 266,107.3 266,113.1 252.4,113.1 252.4,130.4 246.7,130.4 246.7,89.3 246,89.3 246,89.9 	"/>
	<path id="path39" class="st1" d="M82.4,133.1v-26.3h-3.2V94.8l11,0.9l-0.3-8l13-10.5l-0.4-3.4l9.4-6.3l2.3-1.5l-8.3-2.3l2-0.7
		l-9.4-1.5l1.9-1.2l-5.9-1.2l3.1-1.2l-6.7-1.7l1.7-2.4l-6.2-0.8l2.1-1.5l-4.3-1.9c6.9-2,13.6-2,19.9,0.2l18,10.9l10.7-6.9l-2.6-1.1
		l-2.5-8.6l2.1-15.1l-0.1-1.8c1.7-1.7,3.8-3,6.6-4c1.5-0.5,6.3-1.1,7.4-0.9c2.1,0.4,9.9,3.8,9.9,3.8l0.3,1.7l2.3,2.5l4.5,16.2
		l-0.7,4l-4.2,3.2l8.1,3.6l4,0.6l2.8,0.8l1.3,2.5l19.7,12.4l1,4.2l1.7,0.1l4.6,4.6l0.2,5.2l0.7,1.5l6.3,4.1l1.2,0.8l7-0.4v11.5h-3.6
		v28.2v4.6H82.5L82.4,133.1L82.4,133.1z"/>
	<polygon id="polygon41" class="st0" points="80.3,96 80.3,105.6 147.9,107 213,104 213.3,104 213.3,94.6 151.8,101.2 147.6,104 
		143.3,101.5 	"/>
	<polygon id="polygon43" class="st0" points="209.7,136.9 83.6,136.9 83.6,105.8 83.6,106.8 147.8,107.9 209.7,105.2 	"/>
	<path id="path45" class="st0" d="M91.9,95.9l26.9,2.3c0,0-0.1-1.9,1.6-2.8c1.7-0.9,3.7-2.8,3.7-2.8l-0.2-4.6l-3.9-7.1
		c0,0,4.7,4.3,5,4.6c0.3,0.3,0.5,6.2,0.5,6.2s4,1.4,4.2,1.9c0.3,0.5,5.9-0.2,5.9-0.2l2.7-0.9c0,0-3.8-2.2-6.1-4.5
		c-2.3-2.3-3.1-4.4-4.5-6.2c-1.4-1.7-4-4.5-4-4.5l-1.5-3.4l-9.6-4.2l-8.2,4.8l0.2,3.5L91.9,88.1L91.9,95.9z"/>
	<path id="path47" class="st1" d="M105.1,92.8c0,0,6.8-5,8.6-4.8c0.5,0,1.4,0.1,2.4,0.1l1,1c-2.1,0.5-4.4,1-5.1,1.2
		C110.3,90.6,105.1,92.8,105.1,92.8z"/>
	<path id="path49" class="st0" d="M115.5,66.4l6.6,4.1l-1.1,0.1l3.2,2.3l-1.3-0.1l4.4,5l4.3,6.6l3.6,4.5l4.7,3.8l4.1,5.8l1,1.5
		c0,0-3.6-6.8-4.3-8.4c-0.7-1.5-5.2-9.9-6.7-12.9c-1.5-3-7.2-10.7-7.2-10.7l-5.4-7l-8.4-5l-8.6-5.3c-4.2-2-13.7-2.2-16.8-0.8
		l3.1,1.7L88,52.8l6,0.5l-2.1,2.6l8.1,1.9l-3.5,1.3l6.2,0.8l-2.3,1.3l9.8,1.4l-1.9,1.1l7.4,1.7L115.5,66.4z"/>
	<path id="path51" class="st0" d="M124.6,98.7l3-4.1c0,0,1.7,0.3,4.4,0.2c2.7-0.1,4.6-0.5,4.6-0.5l2-0.3l5,5.6l-2.3,0.5l-1.9-0.5
		L128.3,99L124.6,98.7z"/>
	<path id="path53" class="st0" d="M123.9,61.7l12,16.9l9.9,22l1.3,1.5l2.8-2.2l3.7-11.1l0.7-1.9l-0.3,3.9l4.8-2.6l4.8-7l-2.3,6.1
		l4.6-0.5l-10.9,4.7l-2,3.9c0,0,7.4-3.3,9-3.5c0.2,0,10,3.6,11.9,5.4c1,0.9,30.7-3.1,30.7-3.1l-8.2-6c0,0-2.7-2.9-7.5-2.9
		c-4.8,0-8.4,4-8.3,4l-6-1.5l5.2-0.7l7.8-3.1l9.2-1.6l-3.5-3.8l-10.7-0.3L176,84l4.2-7l9.4-3.6l-17.9-10.8l-6.3,3.2l1.3-4.3l4.2-0.6
		l-1.7-1.7l-3.9-0.8l-2.9,0.9v-1.8l-3.8-1.7l-4.3-1.4l0.8,3.2l-1.7,9.7c0,0-6.8,12.8-6.8,12.7c-0.1,0.1,0.1,4.8,0.3,4.8
		c0.2,0.1-3.8-8-3.8-8l-10.2-15.1l1.7,0.8l0.1-8l0.1-1.5l-1.6,1.8l-5.3,4.2L123.9,61.7L123.9,61.7z"/>
	<polygon id="polygon55" class="st1" points="130.2,62.8 133.5,72.3 130.2,68.3 129.3,64.6 127.5,62.3 126.3,61.3 131,58.3 
		133,56.5 	"/>
	<polygon id="polygon57" class="st1" points="153.3,78 160.3,63.1 151.6,77.4 150.3,84.5 147.2,93 141,82 138,78 143.9,89.7 
		145.3,94 147,97.1 152.3,84.7 	"/>
	<polygon id="polygon59" class="st1" points="160.8,73.1 157.1,81.1 158.9,71.6 164.5,66.4 	"/>
	<path id="path61" class="st1" d="M169.3,76.3c0.4-0.5,7.6-5.6,7.6-5.6l3.1,0.1l1.7,1L169.3,76.3z"/>
	<path id="path63" class="st0" d="M152.1,99.5c0,0,3.8-3.6,7.8-5.2c0,0,3.4,0.8,5.6,1.9c2.3,1.1,3.4,2.2,3.4,2.2L152.1,99.5z"/>
	<path id="path65" class="st1" d="M106.2,77.9c1.7,0,11.1,2.2,11.1,2.2s-11-5.4-11-5.6C106.3,74.5,106,77.9,106.2,77.9z"/>
	<polygon id="polygon67" class="st1" points="156.7,64.7 152.9,72.5 155.8,63.1 161.7,59.3 	"/>
	<polygon id="polygon69" class="st1" points="138,89.2 124.5,70 118.3,65.4 119.9,65.2 118.4,63.4 111.4,61.5 115.4,61.7 
		112.6,60.1 106.5,59.1 109.3,58.4 103,54.9 98,54.2 100.1,53.4 98.9,52.7 119.5,62.5 125.6,69.6 133.4,82 	"/>
	<path id="path71" class="st0" d="M152.6,44.5c-1.7,6.8-6.3,6.8-6.3,6.8l3.9,0.3l0.5,13.7l-4.7,9.6L135.8,62l2.9-11.1
		c0,0-3-4-3.8-9.9c-0.9-6.8,1.6-10.5,1.6-10.5l7.5,0.6l-4.2,1c0,0,2.9,0.5,6.8,0.5c0.3,0,5.9-1.6,5.9-1.6S154.3,38,152.6,44.5z"/>
	<path id="path73" class="st0" d="M130.7,28.1c0.9-2,3.3-3.5,7.2-4.6c1-0.3,5.1-0.7,7.1-0.1c3.1,0.8,5.5,1.7,7,2.8
		c-4,1.4-9.1,2.2-13.7,2.3l2.9-1.7l-7.5,2.6l-2.3,3.5L130.7,28.1z"/>
	<polygon id="polygon75" class="st0" points="133.1,48.6 134.3,50.6 130.4,49.1 128.5,43.4 131,36.7 131.6,37.8 131.3,42.6 
		130.3,42.4 	"/>
	<polygon id="polygon77" class="st0" points="157.1,41.3 156.7,38.2 155,47.1 157.4,44.4 157.3,49 159,46.1 157.8,40.2 	"/>
	<path id="path79" class="st1" d="M140.5,45.7c0,0,1.7-0.5,3-0.7c1.3-0.2,4,0.7,4,0.7C146.4,47.5,142.3,47.8,140.5,45.7z"/>
	<polygon id="polygon81" class="st1" points="142.2,42.8 142.2,42.2 143,42.5 143.5,43.1 	"/>
	<path id="path83" class="st1" d="M151.9,35.7l-1.7,0.6c-0.1,0-0.3,0.1-0.4,0.1l0.8,0.1c-0.6,0.5-1.8,1-2.9,1.1l-1.3-0.8l0.3-0.1
		l0,0l-0.8-0.1l0.5-0.9l3.6-0.4L151.9,35.7z"/>
	<path id="path85" class="st1" d="M142.5,36.7l0.1,1.8l-1.2-1.5l-0.8,0.7c0,0-1.8,0.2-2.9,0c-0.7-0.1-0.7-0.7-0.7-1l-0.8-0.2
		l1.6-0.1c-0.5-0.2-2.1-0.6-2.1-0.6l2-0.5l4.4,0.4L142.5,36.7L142.5,36.7z"/>
	<polygon id="polygon87" class="st1" points="101.6,82.3 104.8,80.3 111.8,80.2 119.4,86.6 	"/>
	<polygon id="polygon89" class="st1" points="82,99.1 82,98.2 142.6,102.5 143.4,103.4 	"/>
	<polygon id="polygon91" class="st1" points="144,104.2 144.9,105.1 81.9,101.9 81.9,101.1 	"/>
	<polygon id="polygon93" class="st1" points="145.3,105.7 146.2,106.6 82.1,104.5 81.9,103.4 	"/>
	<polygon id="polygon95" class="st1" points="152.6,103.2 153.2,102.3 211.8,96.8 211.5,97.9 	"/>
	<polygon id="polygon97" class="st1" points="151.7,104.5 152.3,103.6 212,99.6 211.9,100.6 	"/>
	<polygon id="polygon99" class="st1" points="150.6,106.2 151.2,105.2 212,101.9 211.8,103 	"/>
	<polygon id="polygon101" class="st5" points="104,128.4 93.5,128.4 93.5,123.9 102.9,123.9 102.9,120.8 93.5,120.8 93.5,116.8 
		103.8,116.8 103.8,113.5 89.2,113.5 89.2,131.7 104,131.7 	"/>
	<polygon id="polygon103" class="st5" points="127.3,128.4 117.8,128.4 117.8,113.5 113.5,113.5 113.5,131.7 127.3,131.7 	"/>
	<path id="path105" class="st5" d="M149.3,119.6h4.2c-0.1-1.1-0.4-2-0.9-2.8c-0.5-0.8-1.1-1.5-1.9-2.1c-0.7-0.6-1.6-1-2.6-1.3
		c-0.9-0.3-2-0.4-3-0.4c-1.5,0-2.8,0.2-4,0.7c-1.2,0.5-2.2,1.2-3,2.1c-0.8,0.9-1.4,1.9-1.9,3.1c-0.4,1.2-0.7,2.4-0.7,3.8
		c0,1.3,0.2,2.6,0.7,3.7c0.4,1.1,1.1,2.1,1.9,3c0.8,0.9,1.8,1.5,3,2c1.2,0.5,2.5,0.7,4,0.7c1.2,0,2.3-0.2,3.3-0.5
		c1-0.3,1.9-0.8,2.6-1.5c0.7-0.6,1.3-1.4,1.8-2.4c0.5-0.9,0.7-2,0.9-3.1h-4.2c-0.2,1.2-0.6,2.2-1.4,3c-0.7,0.8-1.7,1.1-3.1,1.1
		c-1,0-1.8-0.2-2.5-0.5c-0.7-0.4-1.2-0.8-1.6-1.4c-0.4-0.6-0.7-1.2-0.9-1.9c-0.2-0.7-0.3-1.5-0.3-2.3c0-0.8,0.1-1.6,0.3-2.3
		c0.2-0.8,0.5-1.4,0.9-2c0.4-0.6,1-1.1,1.6-1.4c0.7-0.4,1.5-0.5,2.5-0.5c0.5,0,1,0.1,1.5,0.3c0.5,0.2,0.9,0.4,1.3,0.7
		c0.4,0.3,0.7,0.6,1,1C149.1,118.7,149.3,119.1,149.3,119.6z"/>
	<polygon id="polygon107" class="st5" points="167.5,123.9 175.4,123.9 175.4,131.7 179.7,131.7 179.7,113.5 175.4,113.5 
		175.4,120.5 167.5,120.5 167.5,113.5 163.2,113.5 163.2,131.7 167.5,131.7 	"/>
	<polygon id="polygon109" class="st5" points="204.9,128.4 194.4,128.4 194.4,123.9 203.8,123.9 203.8,120.8 194.4,120.8 
		194.4,116.8 204.7,116.8 204.7,113.5 190.1,113.5 190.1,131.7 204.9,131.7 	"/>
	<path id="path111" class="st0" d="M130.7,161.2v-5.8h4.7v2.3h2.2v-2.3h4.7v2.3h2.2v-2.3h4.7v2.3h2.2v-2.3h4.7v2.3h2.2v-2.3h4.7v5.8
		h-2.9v6.3h5.6v4.6h4.4v-4.6h9.5v8.7h-65v-8.7h9.5v4.6h4.5v-4.6h6v-6.3H130.7z M125.5,176.4l43.3-0.1c2.1,15.1,11.2,23.7,27.4,26.9
		v13.9H97.5v-13.5C115.8,198.6,125.1,189.6,125.5,176.4z M157.5,201.1c0,0-0.6-6.9-9.3-6.9c-8.7,0-9.5,7.7-9.5,7.7l0,10.1h18.7
		L157.5,201.1z"/>
	<polygon id="polygon113" class="st1" points="160.7,168.4 160.7,160.4 133.5,160.4 133.5,161.2 134.3,161.2 134.3,162 159.1,162 
		159.1,166.8 155.3,166.8 155.3,171.3 152.5,171.3 152.5,166.8 141.4,166.8 141.4,171.3 138.6,171.3 138.6,166.8 135.1,166.8 
		135.1,161.2 134.3,161.2 134.3,162 134.3,161.2 133.5,161.2 133.5,168.4 137.1,168.4 137.1,172.9 143,172.9 143,168.4 150.9,168.4 
		150.9,172.9 156.9,172.9 156.9,168.4 	"/>
	<polygon id="polygon115" class="st1" points="130.7,161.2 131.5,161.2 131.5,156.2 134.6,156.2 134.6,157.7 134.6,158.4 
		138.3,158.4 138.3,156.2 141.5,156.2 141.5,157.7 141.5,158.4 145.2,158.4 145.2,156.2 148.4,156.2 148.4,157.7 148.4,158.4 
		152.1,158.4 152.1,156.2 155.2,156.2 155.2,157.7 155.2,158.4 158.9,158.4 158.9,156.2 162.1,156.2 162.1,160.4 130.7,160.4 
		130.7,161.2 131.5,161.2 130.7,161.2 130.7,162 163.6,162 163.6,154.6 157.4,154.6 157.4,156.9 156.8,156.9 156.8,155.4 
		156.8,154.6 150.5,154.6 150.5,156.9 149.9,156.9 149.9,155.4 149.9,154.6 143.7,154.6 143.7,156.9 143.1,156.9 143.1,155.4 
		143.1,154.6 136.8,154.6 136.8,156.9 136.1,156.9 136.1,155.4 136.1,154.6 129.9,154.6 129.9,162 130.7,162 	"/>
	<path id="path117" class="st6" d="M156.7,211.6v-0.4h-17.5V202h-0.4l0.4,0.1c0.3-2.3,1.5-4.1,3.1-5.2c1.6-1.2,3.6-1.8,5.7-1.8
		c2,0,4.1,0.6,5.6,1.8c1.6,1.2,2.7,2.9,2.9,5.2l0.4,0l-0.4,0l-0.1,9.6L156.7,211.6v-0.4V211.6l0.4,0l0.1-9.6l0,0
		c-0.3-2.6-1.5-4.5-3.2-5.8c-1.7-1.3-3.9-1.9-6.1-1.9c-2.2,0-4.4,0.6-6.1,1.9c-1.8,1.3-3,3.2-3.4,5.8l0,0v10h18.7l0-0.4L156.7,211.6
		L156.7,211.6z"/>
	<polygon id="polygon119" class="st1" points="123.1,172.9 129.1,172.9 129.1,168.3 137.1,168.3 137.1,172.9 143,172.9 143,168.3 
		150.9,168.3 150.9,172.9 156.9,172.9 156.9,168.3 164.8,168.3 164.8,172.9 170.7,172.9 170.7,168.3 178.6,168.3 178.6,175.4 
		114.4,175.4 114.4,176.2 115.2,176.2 114.4,176.2 114.4,177 180.2,177 180.2,166.8 169.1,166.8 169.1,171.3 166.3,171.3 
		166.3,166.8 155.3,166.8 155.3,171.3 152.5,171.3 152.5,166.8 141.4,166.8 141.4,171.3 138.6,171.3 138.6,166.8 127.5,166.8 
		127.5,171.3 124.7,171.3 124.7,166.8 113.6,166.8 113.6,177 114.4,177 114.4,176.2 115.2,176.2 115.2,168.3 123.1,168.3 	"/>
	<path id="path121" class="st1" d="M169.6,205.2h17.6v-3.9l-1.1-0.4h-16.5V205.2z M188.8,205.2h6.6v-1.4c-2.4-0.5-4.6-1.1-6.6-1.8
		V205.2z M195.4,206.8h-16.8v4.5h16.8V206.8z M179,199.2h3.8c-1.4-0.8-2.6-1.6-3.8-2.5V199.2z M171.8,193.2h3.4
		c-1.2-1.3-2.2-2.8-3.1-4.3h-0.3V193.2z M159.1,194.8l-0.3,0L159.1,194.8z M157.2,193.2h12.9v-4.3h-16.2l3.7,1.5l-1.3,1.8
		L157.2,193.2L157.2,193.2z M150,188.9h-1.5v1l1.2,0L150,188.9z M147,189.9v-1H145l0.4,1L147,189.9z M141.8,188.9h-16.4v4.3h12.9
		l0.7-0.7l-1.3-1.4L141.8,188.9z M136.9,194.8H136l0,1h-1.6l0-0.3v-0.7h-17c-1.4,1.2-2.9,2.3-4.6,3.3v1.1H133l1.4-3.7l0,0.3h1.6v-1
		l0.7,0.2L136.9,194.8z M135,200.9h-11.7v4.3h9v-1.3h2.7L135,200.9L135,200.9z M132.3,206.8h-16.1v4.5H135l0-1.8l-2.7,0V206.8z
		 M136.3,211.3h1.5v-1.7l-1.5,0V211.3L136.3,211.3z M139.1,211.3h17.5v-9.2c0-1-1-7.1-8.9-7.1c-7.9,0-8.6,7.2-8.6,7.2L139.1,211.3
		L139.1,211.3z M157.9,211.3h1.5v-2h-1.5V211.3z M160.7,211.3H177v-4.5h-13.6v2.4h-2.7V211.3z M168,200.9l-7.3,0V200l2.2-0.7l14.5,0
		v-3.8l-0.6-0.6l-15.8,0l1.9,4.4l-2.2,0.8v0.9v2.8h2.7v1.5h4.6L168,200.9L168,200.9z M189,212.9v3.3h6.4v-3.3H189z M187.5,216.2
		v-3.3h-23.4v3.3H187.5z M119.3,216.2h12.6v1.5h7.2v-1.5h17.5v-3.3h-17.5v3.3v1.5h-7.2v-1.5v-3.3h-12.6V216.2L119.3,216.2z
		 M133.3,216.2h4.5v-3.1h-4.5L133.3,216.2z M157.8,216.2h4.9v-3l-4.9,0V216.2z M98.3,211.3h16.4v-4.5H98.3V211.3z M117.8,212.9H98.3
		v3.3h19.5V212.9z M98.3,205.2h0.3V204l-0.3,0.1V205.2z M100.2,205.2h21.6v-4.3h-14.3c-2.2,1-4.6,1.9-7.3,2.7L100.2,205.2
		L100.2,205.2z M110.8,199.2h0.4V199L110.8,199.2z M119.1,193.2h4.7v-4.3h-1.3C121.6,190.4,120.5,191.8,119.1,193.2z M123.5,187.2
		h12.9v-4.3h-11.2C124.8,184.4,124.3,185.9,123.5,187.2z M138.1,187.2h21.5v-4.3h-21.5V187.2L138.1,187.2z M161.2,187.2h10
		c-0.7-1.4-1.3-2.8-1.7-4.3h-8.3V187.2z M125.7,181.3h21.1V177h-20.5C126.2,178.5,126,179.9,125.7,181.3z M148.4,181.3H169
		c-0.4-1.4-0.7-2.8-0.9-4.3h-19.7L148.4,181.3L148.4,181.3z M123.5,175.4h46l0.1,0.7c1,7.4,3.8,13.2,8.2,17.5
		c2.4,2.3,5.2,4.2,8.6,5.7c3,1.3,6.3,2.3,10.1,3.1l0.6,0.1v15.4H96.7v-14.9l0.6-0.2c9.1-2.4,15.9-5.9,20.4-10.3
		c4.4-4.3,6.8-9.5,7-15.8L123.5,175.4L123.5,175.4z M162.1,207.9V205H158l-0.1,2.9H162.1z M159.4,203.6l0.1-3.1l-1.6,0.5
		c0,0,0.2,0.7,0.1,1l0,1.6L159.4,203.6L159.4,203.6z M160,195.9l-2.2,1l-1.4,0.7c0.5,0.7,0.8,1.3,1.1,2.1l3.6-1.2L160,195.9
		L160,195.9z M155.5,193.3l-1.5,2c0.6,0.4,0.9,0.7,1.4,1.2l2.1-1L155.5,193.3z M152.8,194.5l1.6-2l1.1-1.6l-4.2-1.7l-0.1,0.6l-0.9,4
		C151.2,194,151.9,194.2,152.8,194.5L152.8,194.5z M148.7,193.6l0.7-2.4l-3.4,0l0.8,2.5C147.6,193.6,148,193.6,148.7,193.6z
		 M145.4,193.9l-1.6-4.5l-3.9,2l3.1,3.3C144,194.3,144.2,194.2,145.4,193.9z M139.8,193.4l-1.8,2.2l2.5,0.9c0.4-0.4,0.8-0.7,1.3-1
		L139.8,193.4L139.8,193.4z M135.6,196.1l-1,2.6l3.7,1.2c0.3-0.8,0.6-1.5,1.1-2.2l-2.6-1.1L135.6,196.1L135.6,196.1z M137.9,201.3
		l-1.6-0.5l0.1,3.1h1.4V202L137.9,201.3z M137.8,205.2h-4.1l0,2.9h4.1V205.2z"/>
	<path id="path123" class="st0" d="M145.2,235.8l47.1,17.9l0.7,1h-11.2v15h5.7v9.6h-6l-0.1,3.9h6v4.5H103v-4.2h5.5v-4.4h-5.2v-9.6
		h5.7v-14.7H95.7v-0.6L145.2,235.8z M125,279.1v4.2h40.7v-4.2H125z"/>
	<path id="path125" class="st1" d="M114.4,270.2v7.8h3.4v-7.8H114.4z M112.8,278.1v-7.8h-3.4v7.8H112.8z M119.4,270.2v7.8h3.4v-7.8
		H119.4z M124.3,270.2v7.8h3.4v-7.8H124.3z M129.3,270.2v7.8h3.4v-7.8H129.3z M134.2,270.2v7.8h3.4v-7.8H134.2z M139.2,270.2v7.8
		h3.4v-7.8H139.2z M144.2,270.2v7.8h3.4v-7.8H144.2z M149.1,270.2v7.8h3.4v-7.8H149.1z M154.1,270.2v7.8h3.4v-7.8H154.1z
		 M159.1,270.2v7.8h3.4v-7.8H159.1z M164,270.2v7.8h3.4v-7.8H164z M169,270.2v7.8h3.4v-7.8H169z M174,270.2v7.8h3.4v-7.8H174z
		 M178.9,270.2v7.8h3.4v-7.8H178.9z M183.9,270.2v7.8h2.8v-7.8H183.9z M187.7,252.7v0.7h1.9L187.7,252.7z M186.1,253.4v-1.4
		l-3.4-1.3v2.7H186.1z M182.7,249l11.4,4.4l-0.3,1.5h-10.9v13.7h5.2v10.8h-5.9v2.8h6v5.7h-85.8v-5.7h5.4l0-2.8h-5.3v-10.8h4.9V255
		H94.9l-0.3-1.5l50.6-19L182.7,249L182.7,249z M181.1,253.4v-3.3l-3.4-1.3v4.6L181.1,253.4z M176.2,253.4v-5.2l-3.4-1.3v6.5H176.2
		L176.2,253.4z M171.2,253.4v-7.2l-3.4-1.3v8.5L171.2,253.4L171.2,253.4z M166.2,253.4v-9.1l-3.4-1.3v10.4H166.2z M161.3,253.4v-11
		l-3.4-1.3v12.3L161.3,253.4z M156.3,253.4v-12.9l-3.4-1.3v14.3H156.3z M151.4,253.4v-14.9l-3.4-1.3v16.2L151.4,253.4z M146.4,253.4
		v-16.8l-1.1-0.4L143,237v16.4L146.4,253.4L146.4,253.4z M141.4,253.4v-15.8l-3.4,1.3v14.5L141.4,253.4L141.4,253.4z M136.5,253.4
		v-13.9l-3.4,1.3v12.7H136.5z M131.5,253.4v-12.1l-3.4,1.3v10.8H131.5z M126.5,253.4v-10.2l-3.4,1.3v8.9H126.5z M121.6,253.4v-8.4
		l-3.4,1.3v7.1L121.6,253.4z M116.6,253.4v-6.5l-3.4,1.3v5.2L116.6,253.4L116.6,253.4z M111.7,253.4v-4.6l-3.4,1.3v3.4H111.7z
		 M106.7,253.4v-2.8l-3.4,1.3v1.5H106.7L106.7,253.4z M101.7,253.4v-0.9l-2.4,0.9H101.7z M104,284v2.6h82.7V284L104,284z
		 M164.9,279.6h-39v2.8h39V279.6L164.9,279.6z M166.4,279.6v2.8h14.3v-2.8H166.4z M109.4,279.6v2.8h14.9v-2.8H109.4z M104.5,270.2
		l0,7.8h3.4v-7.8H104.5z M110.3,255.6v12.5h69.9v-12.5L110.3,255.6z"/>
</g>
</svg>
