<?xml version="1.0" encoding="utf-8"?>
<!-- Generator: Adobe Illustrator 24.0.1, SVG Export Plug-In . SVG Version: 6.00 Build 0)  -->
<svg version="1.1" id="Ñëîé_1" xmlns="http://www.w3.org/2000/svg" xmlns:xlink="http://www.w3.org/1999/xlink" x="0px" y="0px"
	 viewBox="0 0 534.4 558.4" style="enable-background:new 0 0 534.4 558.4;" xml:space="preserve">
<style type="text/css">
	.st0{fill:#E7E7EA;}
	.st1{fill:url(#SVGID_1_);}
	.st2{fill:url(#SVGID_2_);}
	.st3{fill:#72B029;}
	.st4{fill:#CE3437;}
	.st5{fill:#FFFFFF;}
	.st6{fill:url(#SVGID_3_);}
	.st7{fill:#FFE800;}
	.st8{fill:#55635F;}
	.st9{fill:#8B9195;}
	.st10{fill:#485450;}
	.st11{fill:#2D3736;}
	.st12{fill:#5B6365;}
	.st13{fill:#55635E;}
	.st14{fill:#E4E3E2;}
	.st15{fill:#DDE2E2;}
	.st16{fill:#D2D6DB;}
	.st17{fill:#E8EAE9;}
	.st18{fill:#ECEEEC;}
	.st19{fill:#DFE4E6;}
	.st20{fill:#EEEFEC;}
	.st21{fill:#E6E6E6;}
	.st22{fill:#B7BDC5;}
	.st23{fill:#AFB8C1;}
	.st24{fill:#D4D8DA;}
	.st25{fill:#D3D4D2;}
	.st26{fill:#E1E3E5;}
	.st27{fill:#E1E5E8;}
	.st28{fill:#D9DBDA;}
	.st29{fill:#9EA7A5;}
	.st30{fill:#D0D5DA;}
	.st31{fill:#97A09D;}
	.st32{fill:#A3A7A8;}
	.st33{fill:#95A29F;}
	.st34{fill:#A3A5A7;}
</style>
<g>
	<path class="st0" d="M206.9,30.9C220.4,12.2,242.4,0,267.2,0c24.7,0,46.6,12.1,60.1,30.7l0.1,0.2C446,58.2,534.4,164.4,534.4,291.2
		c0,147.6-119.6,267.2-267.2,267.2S0,438.8,0,291.2C0,164.5,88.2,58.4,206.6,30.9L206.9,30.9z M395.8,183v148.9
		c0,50.7-28.1,94.7-69.2,116.7l1.6-0.5c62.7-24.4,107.3-85.5,107.3-156.8c0-41.1-14.8-78.9-39.5-108.1L395.8,183z M138.6,182.9
		C113.9,212.2,99,250,99,291.2c0,72,45.5,133.6,109.3,157.5l-1.4-0.8c-40.6-22.1-68.3-65.9-68.3-116.2V183.2L138.6,182.9z
		 M177.2,149.2h180l-0.2-0.1c-12.7-8-26.5-14.4-41.1-18.9l-0.1,0.1c-13,11.3-30,18.1-48.6,18.1c-18.6,0-35.6-6.9-48.7-18.2l-0.1,0
		c-14.6,4.4-28.4,10.8-41,18.8L177.2,149.2z"/>
	<linearGradient id="SVGID_1_" gradientUnits="userSpaceOnUse" x1="112.5032" y1="81.8832" x2="387.2517" y2="356.6317">
		<stop  offset="0" style="stop-color:#005AA5"/>
		<stop  offset="0.3925" style="stop-color:#0059A3"/>
		<stop  offset="0.5758" style="stop-color:#00549D"/>
		<stop  offset="0.7156" style="stop-color:#004C93"/>
		<stop  offset="0.8326" style="stop-color:#094285"/>
		<stop  offset="0.9045" style="stop-color:#0F397A"/>
	</linearGradient>
	<path class="st1" d="M437.7,252.6c-6.8-30.2-21.5-57.5-41.8-79.5l-0.2-0.1v-23.7h-26.7l-0.1-0.1c-14.4-10.4-30.5-18.6-47.7-24.2
		l0.1-0.1c12.4-13.3,20-31.1,20-50.7c0-11.2-2.5-21.9-7-31.4l0-0.2c89.1,24.1,159.3,95,182.3,184.6l-0.1,0
		c-12.6,2.7-42.8,10-78.7,25.3L437.7,252.6z M9.9,288.5c27.4,6.3,67.3,14.9,83,18.2l0.2,0c-0.5-5.1-0.7-10.3-0.7-15.5
		c0-45.6,17.5-87.1,46.2-118.3l0.1-0.1v-23.6h26.7l0.1-0.1c14.4-10.4,30.5-18.6,47.7-24.2l-0.1-0.1c-12.4-13.3-20-31.1-20-50.7
		c0-11.3,2.5-21.9,7-31.5l0.1-0.1C91.4,72,10.9,170.9,9.7,288.4L9.9,288.5z"/>
	<linearGradient id="SVGID_2_" gradientUnits="userSpaceOnUse" x1="9.6602" y1="387.9858" x2="524.7056" y2="387.9858">
		<stop  offset="0" style="stop-color:#007ABD"/>
		<stop  offset="0.3839" style="stop-color:#0078BC"/>
		<stop  offset="0.5631" style="stop-color:#0074B9"/>
		<stop  offset="0.6999" style="stop-color:#006BB3"/>
		<stop  offset="0.8143" style="stop-color:#0060AB"/>
		<stop  offset="0.9045" style="stop-color:#0054A1"/>
	</linearGradient>
	<path class="st2" d="M437.7,252.6c2.8,12.4,4.3,25.3,4.3,38.6c0,96.4-78.4,174.8-174.8,174.8c-91.2,0-166.3-70.2-174.1-159.3
		l-0.2,0c-15.7-3.4-55.6-11.9-83-18.2l-0.2-0.1c0,0.9,0,1.9,0,2.8c0,142,115.5,257.5,257.5,257.5s257.5-115.5,257.5-257.5
		c0-22.1-2.8-43.5-8-64l-0.1,0c-12.6,2.7-42.8,10-78.7,25.3L437.7,252.6z"/>
	<path class="st3" d="M271.4,155.9v300.8l0.1,0c65.3-2.3,117.6-57.3,117.6-124.9V155.9H271.6L271.4,155.9z"/>
	<path class="st4" d="M263,155.9v300.8l-0.1,0c-65.3-2.3-117.6-57.3-117.6-124.9V155.9h117.5L263,155.9z"/>
	<path class="st5" d="M359.4,362.4c3.5,0,7,0,6.9-1.5c-0.2-1.9-4.8-2.3-4.8-2.3s0.5-3.1,1-10c0,0,1.5,0,8.5-0.3
		c8.8-0.4,10.8-2.3,10.9-3.9c0.1-1.3-4.5-1.1-8.1-1.1c-1.3,0-3.1,0-4.9,0c0,0-0.2-6-1.9-6c-1.7,0-1.7,6-1.7,6c-1.6,0-2.8,0-2.8,0
		c0.1-2.6,0.1-5.4,0.1-8.4c0-3.5-2.1-6.1-3.2-6l0,0c-1.1-0.1-3.2,2.6-3.2,6c0,3,0.1,5.8,0.1,8.4c0,0-1.2,0-2.8,0c0,0,0-6-1.7-6
		c-1.7,0-1.9,6-1.9,6c-1.8,0-3.6,0-4.9,0c-3.6,0-8.1-0.1-8.1,1.1c0.1,1.7,2,3.5,10.9,3.9c6.9,0.3,8.5,0.3,8.5,0.3c0.5,6.9,1,10,1,10
		s-4.5,0.4-4.8,2.3C352.3,362.4,355.8,362.4,359.4,362.4L359.4,362.4z"/>
	<path class="st5" d="M359.4,291.6c3.5,0,7,0,6.9-1.5c-0.2-1.9-4.8-2.3-4.8-2.3s0.5-3.1,1-10c0,0,1.5,0,8.5-0.3
		c8.8-0.4,10.8-2.3,10.9-3.9c0.1-1.3-4.5-1.1-8.1-1.1c-1.3,0-3.1,0-4.9,0c0,0-0.2-6-1.9-6c-1.7,0-1.7,6-1.7,6c-1.6,0-2.8,0-2.8,0
		c0.1-2.6,0.1-5.4,0.1-8.4c0-3.5-2.1-6.1-3.2-6l0,0c-1.1-0.1-3.2,2.6-3.2,6c0,3,0.1,5.8,0.1,8.4c0,0-1.2,0-2.8,0c0,0,0-6-1.7-6
		c-1.7,0-1.9,6-1.9,6c-1.8,0-3.6,0-4.9,0c-3.6,0-8.1-0.2-8.1,1.1c0.1,1.7,2,3.5,10.9,3.9c6.9,0.3,8.5,0.3,8.5,0.3c0.5,6.9,1,10,1,10
		s-4.5,0.4-4.8,2.3C352.3,291.5,355.8,291.6,359.4,291.6L359.4,291.6z"/>
	<path class="st5" d="M359.4,220.7c3.5,0,7,0,6.9-1.5c-0.2-1.9-4.8-2.3-4.8-2.3s0.5-3.1,1-10c0,0,1.5,0,8.5-0.3
		c8.8-0.4,10.8-2.3,10.9-3.9c0.1-1.3-4.5-1.1-8.1-1.1c-1.3,0-3.1,0-4.9,0c0,0-0.2-6-1.9-6c-1.7,0-1.7,6-1.7,6c-1.6,0-2.8,0-2.8,0
		c0.1-2.6,0.1-5.4,0.1-8.4c0-3.5-2.1-6.1-3.2-6l0,0c-1.1-0.1-3.2,2.6-3.2,6c0,3,0.1,5.8,0.1,8.4c0,0-1.2,0-2.8,0c0,0,0-6-1.7-6
		c-1.7,0-1.9,6-1.9,6c-1.8,0-3.6,0-4.9,0c-3.6,0-8.1-0.1-8.1,1.1c0.1,1.7,2,3.5,10.9,3.9c6.9,0.3,8.5,0.3,8.5,0.3c0.5,6.9,1,10,1,10
		s-4.5,0.4-4.8,2.3C352.3,220.7,355.8,220.7,359.4,220.7L359.4,220.7z"/>
	
		<ellipse transform="matrix(0.1639 -0.9865 0.9865 0.1639 150.1769 325.623)" class="st5" cx="267.2" cy="74.2" rx="65.6" ry="65.6"/>
	<polygon class="st5" points="312.6,522.6 302.8,524.3 304.8,535.7 315.6,533.8 313.6,522.4 	"/>
	<polygon class="st5" points="377.9,499.4 369,503.9 374.3,514.2 384,509.2 378.8,498.9 	"/>
	<polygon class="st5" points="466.8,416.5 461.4,424.8 471.1,431.1 477.1,422 467.4,415.6 	"/>
	<polygon class="st5" points="497.8,340.3 495.6,350 506.8,352.6 509.3,341.9 498,339.3 	"/>
	<polygon class="st5" points="513.1,273.7 502.6,274.1 502.9,285 514.5,284.6 514.1,273.7 	"/>
	<path class="st5" d="M330.3,256.1c3.5,0,7,0,6.9-1.5c-0.2-1.9-4.8-2.3-4.8-2.3s0.5-3.1,1-10c0,0,1.5,0,8.5-0.3
		c8.8-0.4,10.8-2.3,10.9-3.9c0.1-1.3-4.5-1.1-8.1-1.1c-1.3,0-3.1,0-4.9,0c0,0-0.1-6-1.9-6c-1.7,0-1.7,6-1.7,6c-1.6,0-2.8,0-2.8,0
		c0.1-2.6,0.1-5.4,0.1-8.4c0-3.5-2.1-6.1-3.2-6l0,0c-1.1-0.1-3.2,2.6-3.2,6c0,3,0.1,5.8,0.1,8.4c0,0-1.2,0-2.8,0c0,0,0-6-1.7-6
		c-1.7,0-1.9,6-1.9,6c-1.8,0-3.6,0-4.9,0c-3.6,0-8.1-0.1-8.1,1.1c0.1,1.7,2,3.5,10.9,3.9c6.9,0.3,8.5,0.3,8.5,0.3c0.5,6.9,1,10,1,10
		s-4.5,0.4-4.8,2.3C323.2,256.1,326.7,256.1,330.3,256.1L330.3,256.1z"/>
	<path class="st5" d="M330.3,327c3.5,0,7,0,6.9-1.5c-0.2-1.9-4.8-2.3-4.8-2.3s0.5-3.1,1-10c0,0,1.5,0,8.5-0.3
		c8.8-0.4,10.8-2.3,10.9-3.9c0.1-1.3-4.5-1.1-8.1-1.1c-1.3,0-3.1,0-4.9,0c0,0-0.1-6-1.9-6c-1.7,0-1.7,6-1.7,6c-1.6,0-2.8,0-2.8,0
		c0.1-2.6,0.1-5.4,0.1-8.4c0-3.5-2.1-6.1-3.2-6l0,0c-1.1-0.1-3.2,2.6-3.2,6c0,3,0.1,5.8,0.1,8.4c0,0-1.2,0-2.8,0c0,0,0-6-1.7-6
		c-1.7,0-1.9,6-1.9,6c-1.8,0-3.6,0-4.9,0c-3.6,0-8.1-0.1-8.1,1.1c0.1,1.7,2,3.5,10.9,3.9c6.9,0.3,8.5,0.3,8.5,0.3c0.5,6.9,1,10,1,10
		s-4.5,0.4-4.8,2.3C323.2,327,326.7,327,330.3,327L330.3,327z"/>
	<path class="st5" d="M330.3,397.8c3.5,0,7,0,6.9-1.5c-0.2-1.9-4.8-2.3-4.8-2.3s0.5-3.1,1-10c0,0,1.5,0,8.5-0.3
		c8.8-0.4,10.8-2.3,10.9-3.9c0.1-1.3-4.5-1.1-8.1-1.1c-1.3,0-3.1,0-4.9,0c0,0-0.1-6-1.9-6c-1.7,0-1.7,6-1.7,6c-1.6,0-2.8,0-2.8,0
		c0.1-2.6,0.1-5.4,0.1-8.4c0-3.5-2.1-6.1-3.2-6l0,0c-1.1-0.1-3.2,2.6-3.2,6c0,3,0.1,5.8,0.1,8.4c0,0-1.2,0-2.8,0c0,0,0-6-1.7-6
		c-1.7,0-1.9,6-1.9,6c-1.8,0-3.6,0-4.9,0c-3.6,0-8.1-0.1-8.1,1.1c0.1,1.7,2,3.5,10.9,3.9c6.9,0.3,8.5,0.3,8.5,0.3c0.5,6.9,1,10,1,10
		s-4.5,0.4-4.8,2.3C323.2,397.8,326.7,397.8,330.3,397.8L330.3,397.8z"/>
	<path class="st5" d="M301.2,362.4c3.5,0,7,0,6.9-1.5c-0.2-1.9-4.8-2.3-4.8-2.3s0.5-3.1,1-10c0,0,1.5,0,8.5-0.3
		c8.8-0.4,10.8-2.3,10.9-3.9c0.1-1.3-4.5-1.1-8.1-1.1c-1.3,0-3.1,0-4.9,0c0,0-0.1-6-1.9-6c-1.7,0-1.7,6-1.7,6c-1.6,0-2.8,0-2.8,0
		c0.1-2.6,0.1-5.4,0.1-8.4c0-3.5-2.1-6.1-3.2-6l0,0c-1.1-0.1-3.2,2.6-3.2,6c0,3,0.1,5.8,0.1,8.4c0,0-1.2,0-2.8,0c0,0,0-6-1.7-6
		c-1.7,0-1.9,6-1.9,6c-1.8,0-3.6,0-4.9,0c-3.6,0-8.1-0.1-8.1,1.1c0.1,1.7,2,3.5,10.9,3.9c6.9,0.3,8.5,0.3,8.5,0.3c0.5,6.9,1,10,1,10
		s-4.5,0.4-4.8,2.3C294.1,362.4,297.6,362.4,301.2,362.4L301.2,362.4z"/>
	<path class="st5" d="M301.2,291.6c3.5,0,7,0,6.9-1.5c-0.2-1.9-4.8-2.3-4.8-2.3s0.5-3.1,1-10c0,0,1.5,0,8.5-0.3
		c8.8-0.4,10.8-2.3,10.9-3.9c0.1-1.3-4.5-1.1-8.1-1.1c-1.3,0-3.1,0-4.9,0c0,0-0.1-6-1.9-6c-1.7,0-1.7,6-1.7,6c-1.6,0-2.8,0-2.8,0
		c0.1-2.6,0.1-5.4,0.1-8.4c0-3.5-2.1-6.1-3.2-6l0,0c-1.1-0.1-3.2,2.6-3.2,6c0,3,0.1,5.8,0.1,8.4c0,0-1.2,0-2.8,0c0,0,0-6-1.7-6
		c-1.7,0-1.9,6-1.9,6c-1.8,0-3.6,0-4.9,0c-3.6,0-8.1-0.2-8.1,1.1c0.1,1.7,2,3.5,10.9,3.9c6.9,0.3,8.5,0.3,8.5,0.3c0.5,6.9,1,10,1,10
		s-4.5,0.4-4.8,2.3C294.1,291.5,297.6,291.6,301.2,291.6L301.2,291.6z"/>
	<path class="st5" d="M301.2,433.3c3.5,0,7,0,6.9-1.5c-0.2-1.9-4.8-2.3-4.8-2.3s0.5-3.1,1-10c0,0,1.5,0,8.5-0.3
		c8.8-0.4,10.8-2.3,10.9-3.9c0.1-1.3-4.5-1.1-8.1-1.1c-1.3,0-3.1,0-4.9,0c0,0-0.1-6-1.9-6c-1.7,0-1.7,6-1.7,6c-1.6,0-2.8,0-2.8,0
		c0.1-2.6,0.1-5.4,0.1-8.4c0-3.5-2.1-6.1-3.2-6l0,0c-1.1-0.1-3.2,2.6-3.2,6c0,3,0.1,5.8,0.1,8.4c0,0-1.2,0-2.8,0c0,0,0-6-1.7-6
		c-1.7,0-1.9,6-1.9,6c-1.8,0-3.6,0-4.9,0c-3.6,0-8.1-0.1-8.1,1.1c0.1,1.7,2,3.5,10.9,3.9c6.9,0.3,8.5,0.3,8.5,0.3c0.5,6.9,1,10,1,10
		s-4.5,0.4-4.8,2.3C294.1,433.3,297.6,433.3,301.2,433.3L301.2,433.3z"/>
	<path class="st5" d="M301.2,220.7c3.5,0,7,0,6.9-1.5c-0.2-1.9-4.8-2.3-4.8-2.3s0.5-3.1,1-10c0,0,1.5,0,8.5-0.3
		c8.8-0.4,10.8-2.3,10.9-3.9c0.1-1.3-4.5-1.1-8.1-1.1c-1.3,0-3.1,0-4.9,0c0,0-0.1-6-1.9-6c-1.7,0-1.7,6-1.7,6c-1.6,0-2.8,0-2.8,0
		c0.1-2.6,0.1-5.4,0.1-8.4c0-3.5-2.1-6.1-3.2-6l0,0c-1.1-0.1-3.2,2.6-3.2,6c0,3,0.1,5.8,0.1,8.4c0,0-1.2,0-2.8,0c0,0,0-6-1.7-6
		c-1.7,0-1.9,6-1.9,6c-1.8,0-3.6,0-4.9,0c-3.6,0-8.1-0.1-8.1,1.1c0.1,1.7,2,3.5,10.9,3.9c6.9,0.3,8.5,0.3,8.5,0.3c0.5,6.9,1,10,1,10
		s-4.5,0.4-4.8,2.3C294.1,220.7,297.6,220.7,301.2,220.7L301.2,220.7z"/>
	<path class="st0" d="M204.1,298.1c18.9-13.1,29.4-33.4,29.4-46.7c0-13.3-7-19.5-7-19.5c3.6-8.5,1.8-19.7,1.8-19.7
		c-4,6.4-7.6,8-7.6,8c-1.4-10.3-6.4-17.5-6.4-17.5s-1.2,6-3.8,10.3c-3,4.8-6.3,6.6-6.3,6.6l0,0c0,0-3.2-1.8-6.3-6.6
		c-2.6-4.2-3.8-10.3-3.8-10.3s-5,7.2-6.4,17.5c0,0-3.6-1.6-7.6-8c0,0-1.8,11.3,1.8,19.7c0,0-7,6.2-7,19.5
		C174.7,264.7,185.2,285,204.1,298.1L204.1,298.1z"/>
	<linearGradient id="SVGID_3_" gradientUnits="userSpaceOnUse" x1="178.7847" y1="220.7544" x2="229.411" y2="271.3807">
		<stop  offset="0" style="stop-color:#C30C21"/>
		<stop  offset="0.4765" style="stop-color:#A71014"/>
		<stop  offset="1" style="stop-color:#851104"/>
	</linearGradient>
	<path class="st6" d="M227.2,267.6c-4.4,9.6-12.2,19.9-23.1,27.8c-7-5.1-12.8-11.2-17.1-17.4l0-0.1l40.3-10.4L227.2,267.6z
		 M228.7,238.7c-1.7-3.4-3.5-5.1-3.6-5.3l-1.1-1l0.6-1.4c1.7-3.9,2.1-8.5,2.1-12.2c0-0.3,0-0.6,0-0.9c-2.7,3-4.8,4.1-5.1,4.2
		l-2.6,1.1l-0.4-2.8c-0.7-5-2.3-9.3-3.7-12.3c-0.7,1.9-1.5,4-2.7,5.8c-3.3,5.2-6.9,7.3-7,7.4l-1,0.6l-1-0.6c-0.2-0.1-3.7-2.1-7-7.4
		c-1.1-1.8-2-3.9-2.7-5.8c-1.4,3-3,7.2-3.7,12.3l-0.4,2.8l-2.6-1.1c-0.3-0.1-2.4-1.2-5.1-4.2c0,0.3,0,0.6,0,0.9
		c0,3.7,0.4,8.3,2.1,12.2l0.6,1.4l-1.1,1c-0.3,0.2-6.3,5.9-6.3,17.9c0,0.2,0,0.5,0,0.7l0,0.1L228.7,238.7L228.7,238.7z M181.7,269.1
		c0.3,0.7,0.7,1.4,1.1,2.1l0,0.1l47.6-12.3l0-0.1c0.2-0.9,0.4-1.7,0.5-2.5l0-0.1L181.7,269.1L181.7,269.1z M178.7,262l52.5-13.5
		l0-0.1c-0.1-0.8-0.2-1.6-0.3-2.3l0-0.1L178,259.7l0,0C178.2,260.4,178.5,261.1,178.7,262L178.7,262z"/>
	<path class="st7" d="M225.8,156.1v59.3l0,0.1c-2.9,3.6-5.2,4.6-5.2,4.6c-1.4-10.3-6.4-17.5-6.4-17.5s-1.2,6-3.8,10.3
		c-3,4.8-6.3,6.6-6.3,6.6l0,0c0,0-3.2-1.8-6.3-6.6c-2.6-4.2-3.8-10.3-3.8-10.3s-5,7.2-6.4,17.5c0,0-2.3-1-5.2-4.6l0-0.2V156l0-0.1
		h43.5V156.1z"/>
	<path class="st7" d="M262.8,275.5H226h-0.2v173.7v0.1c-16.4-6.1-31.2-15.6-43.5-27.8l0-0.2V275.5h-0.1h-36.8h-0.1v-43.5h0.1h36
		l0.2,0c-1.2,1.2-6.8,7.4-6.8,19.3c0,13.3,10.5,33.6,29.4,46.7l0,0c18.9-13.1,29.4-33.4,29.4-46.7c0-11.9-5.6-18.1-6.8-19.3l0.2,0
		h36h0v43.5L262.8,275.5z"/>
	<path class="st5" d="M176.8,252.2l51.9-13.4l0,0.1c0.9,1.9,1.7,4.2,2.2,7.1l0,0.1L178,259.7v0c-0.7-2.6-1.1-5.1-1.2-7.3
		L176.8,252.2z"/>
	<path class="st5" d="M178.7,262l52.5-13.5l0,0.1c0.1,0.9,0.1,1.9,0.1,2.9c0,1.5-0.2,3.1-0.5,4.8l0,0.1L181.6,269l0-0.1
		C180.4,266.6,179.5,264.3,178.7,262L178.7,262z"/>
	<path d="M307.5,85.6c0.5,4.7,1.4,15.5,0.7,27.8l0,0.1c1.3,0.1,6.2,0.3,11.4-0.2l0.1,0c-9,12-22,20.9-37,24.6l0-0.1
		c0.3-3.2,0.2-6.3,0.2-7.4l0-0.1c-15.4-2.3-24.8-6.7-28.2-8.6l-0.1,0c-1.8,0.4-10.7,2.4-24.6,1.5l-0.1,0c-0.3,1.1-0.7,2.7-1,4.2
		l0,0.1c-0.2-0.1-0.4-0.3-0.6-0.4l0-0.1c0.3-1.6,0.7-3.2,1-4.3l-0.1-0.1c-1.9-2.1-9.7-10.9-14.9-19.2c-0.6-1-1.5-2.7-1.8-3.5
		l-0.1-0.1c-1.5-0.8-4.3-2.6-7.8-5.5l-0.1-0.1c-0.1-0.4-0.2-0.7-0.3-1.1l0.1,0.1c3.6,3.2,6.5,5,8.2,6l0.1,0
		c0.6-1.9,2.8-7.5,11.3-18.3l0-0.1C220.5,66,221.8,54,223,48l0-0.1c-1.4-1-6.5-4.5-11.6-7.9l-0.1,0c5.4-8.8,12.9-16.3,21.8-21.7
		l0.2-0.1c3.7-1.5,9.3-3.3,16.1-4.1l0.1,0c1.5-1,4.8-2.9,10.2-4.9l0.1,0c0.9-0.1,1.8-0.2,2.6-0.2l-0.3,0.1c-6.4,2-10.2,4.2-12,5.4
		l0,0.1c-0.2,1.7-0.7,7.9-0.6,14.6l0.1,0c6.4,2.1,18,6.2,27.8,11.8l0,0c2.1-0.5,13.9-3.5,25.3-5.5l0-0.1c-0.2-5.6-0.9-11.1-1.3-13.8
		l0-0.1c-1.2-1.2-7.3-6.6-19.1-10.8l-0.7-0.3c8.8,2,16.9,5.7,24,10.8l-0.1,0c-0.7,0.1-1.9,0.3-3.4,0.4l0,0.1
		c0.4,2.9,1.1,8.3,1.3,13.8l0,0.1c1.8,2,10.9,12.8,17.2,24.5l0,0.1c2.3,0.6,6.3,1.8,11.2,3.7l0.1,0c0,0.2,0.1,0.5,0.1,0.7l-0.1,0
		c-4.7-1.9-8.6-3.1-11-3.7l0,0.1c-0.6,1.6-5.4,15-13.4,24.6L307.5,85.6z M278.8,73.2c0.5-13.4-1.2-28.4-1.6-31.6l0-0.1
		c-9.9-5.6-21.5-9.7-27.9-11.8l-0.1,0c-2.1,0.8-12.1,4.9-25.5,18.4l0,0.1c-1.2,5.9-2.5,17.8,1.1,32.7l0.1,0.1
		c2.2,1.2,14.9,7.9,26.3,12.5l0.1,0C266.4,84.2,276,75.8,278.8,73.2L278.8,73.2z M306.9,85.6c-1.6-0.5-7.5-2.3-15.1-5.5
		c-8-3.5-12.2-5.8-13-6.2l-0.1,0.1c-3.2,2.9-12.5,11-27.1,19.5l-0.1,0c0.1,1.6,1.1,15,3.3,27.5l0.1,0c3.4,1.9,12.9,6.4,28.6,8.6
		l0.1,0c12.3-5.3,22-14.1,23.9-15.9l0-0.1c0.7-12.3-0.2-23.2-0.7-28L306.9,85.6z"/>
	<path class="st5" d="M182.8,271.2l47.6-12.3l0,0.1c-0.7,2.7-1.7,5.5-3,8.4l0,0.1l-40.3,10.4l0-0.1
		C185.4,275.7,184,273.5,182.8,271.2L182.8,271.2z"/>
	<path class="st5" d="M354.1,419.5c3-3.1,5.8-6.4,8.5-9.8l0-0.1c0-1.2,0-2.5,0-3.8c0-3.5-2.1-6.1-3.2-6l0,0c-1.1-0.1-3.2,2.6-3.2,6
		c0,3,0.1,5.8,0.1,8.4c0,0-1.2,0-2.8,0c0,0,0-6-1.7-6c-1.7,0-1.9,6-1.9,6c-1.8,0-3.6,0-4.9,0c-3.6,0-8.1-0.1-8.1,1.1
		c0.1,1.7,2,3.5,10.9,3.9c2.9,0.1,4.9,0.2,6.1,0.2H354.1z"/>
	<path class="st5" d="M271.4,327v-33.4l0,0c0.2-0.1,0.4-0.2,0.6-0.2l0,0c1.1-0.1,3.2,2.6,3.2,6c0,3-0.1,5.8-0.1,8.4c0,0,1.2,0,2.8,0
		c0,0,0-6,1.7-6c1.7,0,1.9,6,1.9,6c1.8,0,3.6,0,4.9,0c3.6,0,8.1-0.1,8.1,1.1c-0.1,1.7-2,3.5-10.9,3.9c-6.9,0.3-8.5,0.3-8.5,0.3
		c-0.5,6.9-1,10-1,10s4.5,0.4,4.8,2.3c0.2,1.5-3.3,1.5-6.9,1.5l0,0c-0.2,0-0.4,0-0.5,0L271.4,327z"/>
	<path class="st5" d="M327,440.7c1.9-1.1,3.7-2.2,5.6-3.4l0,0c-0.7-1.3-1.7-2.2-2.3-2.1l0,0c-1.1-0.1-3,2.3-3.2,5.5L327,440.7z"/>
	<path class="st5" d="M327.2,156c-0.1,0.6-0.2,1.2-0.2,1.8c0,3,0.1,5.8,0.1,8.4c0,0-1.2,0-2.8,0c0,0,0-6-1.7-6c-1.7,0-1.9,6-1.9,6
		c-1.8,0-3.6,0-4.9,0c-3.6,0-8.1-0.1-8.1,1.1c0.1,1.7,2,3.5,10.9,3.9c6.9,0.3,8.5,0.3,8.5,0.3c0.5,6.9,1,10,1,10s-4.5,0.4-4.8,2.3
		c-0.2,1.5,3.3,1.5,6.9,1.5l0,0c3.5,0,7,0,6.9-1.5c-0.2-1.9-4.8-2.3-4.8-2.3s0.5-3.1,1-10c0,0,1.5,0,8.5-0.3
		c8.8-0.4,10.8-2.3,10.9-3.9c0.1-1.3-4.5-1.1-8.1-1.1c-1.3,0-3.1,0-4.9,0c0,0-0.1-6-1.9-6c-1.7,0-1.7,6-1.7,6c-1.6,0-2.8,0-2.8,0
		c0.1-2.6,0.1-5.4,0.1-8.4c0-0.6-0.1-1.2-0.2-1.8l0-0.1L327.2,156L327.2,156z"/>
	<path class="st5" d="M388.9,256.1c-0.2,0-0.3,0-0.5,0l0,0c-3.5,0-7,0-6.9-1.5c0.2-1.9,4.8-2.3,4.8-2.3s-0.5-3.1-1-10
		c0,0-1.5,0-8.5-0.3c-8.8-0.4-10.8-2.3-10.9-3.9c-0.1-1.3,4.5-1.1,8.1-1.1c1.3,0,3.1,0,4.9,0c0,0,0.2-6,1.9-6c1.7,0,1.7,6,1.7,6
		c1.6,0,2.8,0,2.8,0c-0.1-2.6-0.1-5.4-0.1-8.4c0-3.5,2.1-6.1,3.2-6l0,0c0.2,0,0.4,0,0.6,0.1l0.1,0v33.4H388.9z"/>
	<path class="st5" d="M389.1,327v-33.4l-0.1,0c-0.2-0.1-0.4-0.2-0.6-0.2l0,0c-1.1-0.1-3.2,2.6-3.2,6c0,3,0.1,5.8,0.1,8.4
		c0,0-1.2,0-2.8,0c0,0,0-6-1.7-6c-1.7,0-1.9,6-1.9,6c-1.8,0-3.6,0-4.9,0c-3.6,0-8.1-0.1-8.1,1.1c0.1,1.7,2,3.5,10.9,3.9
		c6.9,0.3,8.5,0.3,8.5,0.3c0.5,6.9,1,10,1,10s-4.5,0.4-4.8,2.3c-0.2,1.5,3.3,1.5,6.9,1.5l0,0c0.2,0,0.3,0,0.5,0L389.1,327z"/>
	<path class="st5" d="M378.1,383.8c1.4-3.2,2.7-6.5,3.9-9.9l0-0.1c-0.2-0.7-0.6-1.2-1.1-1.2c-1.7,0-1.9,6-1.9,6c-1.8,0-3.6,0-4.9,0
		c-3.6,0-8.1-0.1-8.1,1.1c0.1,1.7,2,3.5,10.9,3.9c0.4,0,0.7,0,1,0L378.1,383.8z"/>
	<path class="st5" d="M389,185.3c-0.2,0-0.4,0-0.5,0l0,0c-3.5,0-7,0-6.9-1.5c0.2-1.9,4.8-2.3,4.8-2.3s-0.5-3.1-1-10
		c0,0-1.5,0-8.5-0.3c-8.8-0.4-10.8-2.3-10.9-3.9c-0.1-1.3,4.5-1.1,8.1-1.1c1.3,0,3.1,0,4.9,0c0,0,0.2-6,1.9-6c1.7,0,1.7,6,1.7,6
		c1.6,0,2.8,0,2.8,0c-0.1-2.6-0.1-5.4-0.1-8.4c0-0.7,0.1-1.3,0.2-1.9l0,0h3.7v29.4L389,185.3z"/>
	<path class="st5" d="M271.4,256.2v-33.4l0,0c0.2-0.1,0.4-0.2,0.6-0.2l0,0c1.1-0.1,3.2,2.6,3.2,6c0,3-0.1,5.8-0.1,8.4
		c0,0,1.2,0,2.8,0c0,0,0-6,1.7-6c1.7,0,1.9,6,1.9,6c1.8,0,3.6,0,4.9,0c3.6,0,8.1-0.1,8.1,1.1c-0.1,1.7-2,3.5-10.9,3.9
		c-6.9,0.3-8.5,0.3-8.5,0.3c-0.5,6.9-1,10-1,10s4.5,0.4,4.8,2.3c0.2,1.5-3.3,1.5-6.9,1.5l0,0c-0.2,0-0.4,0-0.5,0L271.4,256.2z"/>
	<path class="st5" d="M271.4,397.8v-33.4l0,0c0.2-0.1,0.4-0.2,0.6-0.2l0,0c1.1-0.1,3.2,2.6,3.2,6c0,3-0.1,5.8-0.1,8.4
		c0,0,1.2,0,2.8,0c0,0,0-6,1.7-6c1.7,0,1.9,6,1.9,6c1.8,0,3.6,0,4.9,0c3.6,0,8.1-0.1,8.1,1.1c-0.1,1.7-2,3.5-10.9,3.9
		c-6.9,0.3-8.5,0.3-8.5,0.3c-0.5,6.9-1,10-1,10s4.5,0.4,4.8,2.3c0.2,1.5-3.3,1.5-6.9,1.5l0,0c-0.2,0-0.4,0-0.5,0L271.4,397.8z"/>
	<path class="st5" d="M275,456.5c-1.2,0.1-2.3,0.1-3.5,0.2l-0.1,0v-21.4l0.1,0c0.2-0.1,0.4-0.2,0.6-0.2l0,0c1.1-0.1,3.2,2.6,3.2,6
		c0,3-0.1,5.8-0.1,8.4c0,0,1.2,0,2.8,0c0,0,0-6,1.7-6c1.7,0,1.9,6,1.9,6c1.8,0,3.6,0,4.9,0c3.6,0,8.1-0.2,8.1,1.1
		c-0.1,1.7-2,3.5-10.9,3.9c-6.9,0.3-8.5,0.3-8.5,0.3C275.1,455.5,275.1,455.9,275,456.5L275,456.5z"/>
	<path class="st5" d="M271.4,185.3v-29.4l0.2,0h3.5l0,0.1c0.1,0.6,0.2,1.2,0.2,1.8c0,3-0.1,5.8-0.1,8.4c0,0,1.2,0,2.8,0
		c0,0,0-6,1.7-6c1.7,0,1.9,6,1.9,6c1.8,0,3.6,0,4.9,0c3.6,0,8.1-0.1,8.1,1.1c-0.1,1.7-2,3.5-10.9,3.9c-6.9,0.3-8.5,0.3-8.5,0.3
		c-0.5,6.9-1,10-1,10s4.5,0.4,4.8,2.3c0.2,1.5-3.3,1.5-6.9,1.5l0,0C271.9,185.3,271.7,185.3,271.4,185.3L271.4,185.3z"/>
	<path class="st5" d="M96.3,364.9l-8.6,4.6c0,0,3.8,7.1,4.6,8.5c-1.7,0.9-45.9,24.6-45.9,24.6l5.4,10.1c0,0,44.2-23.7,45.9-24.6
		c0.8,1.4,4.6,8.6,4.6,8.6l9.5-5.1l-14.6-27.2L96.3,364.9z"/>
	<path class="st5" d="M120.3,404.1l-54.1,31.9l7.2,8.6c0,0,10.1-6.1,11.4-6.9c0.8,1,4.1,4.9,4.9,5.9c-1,1.2-8.9,9.9-8.9,9.9l7.5,9
		l41.7-48.2l-9-10.7L120.3,404.1z M109.7,422.1c-4.4,4.7-11.7,12.6-12.8,13.8c-0.8-1-2.2-2.7-3.1-3.7
		C95.2,431.3,104.3,425.5,109.7,422.1z"/>
	<path class="st5" d="M254.7,478.7c-2.8,2.9-4.3,6.9-4.3,11.9c0,0-0.3,31.4-0.3,31.5c0,5.6,1.3,10,3.8,13c2.6,3.1,6.5,4.7,11.5,4.7
		c4.9,0,8.8-1.5,11.5-4.6c2.7-3,4.1-7.4,4.1-12.9l0.1-7.4l-11.7-0.1l-0.1,9.3c0,1.9-0.4,3.2-1,4.1c-0.6,0.8-1.5,1.2-2.8,1.2
		c-1.3,0-2.2-0.4-2.8-1.2c-0.7-0.9-1-2.3-1-4.1l0.3-34c0-1.9,0.4-3.2,1-4.1c0.6-0.8,1.5-1.2,2.8-1.2c1.3,0,2.2,0.4,2.8,1.2
		c0.7,0.9,1,2.3,1,4.1l-0.1,7.7l11.7,0.1l0.1-6.9c0-5.1-1.3-9.1-4-12.1c-2.7-3-6.4-4.6-11-4.6C261.4,474.4,257.5,475.8,254.7,478.7z
		"/>
	<path class="st5" d="M401.9,415.7L401.9,415.7c-3,3.2-4.3,7-4.1,11.3c0.2,4.3,2.1,8.1,5.4,11.2c2.3,2.1,5,3.6,8,4.5
		c3,0.8,7.9,1.1,15,0.9c0,0,1.3-0.1,1.3-0.1c6.8-0.3,11.4,0.5,13.5,2.4c1.1,1,1.7,2.1,1.7,3.4c0.1,1.2-0.4,2.3-1.4,3.4
		c-1.1,1.2-2.3,1.6-3.7,1.4c-1.6-0.2-3.5-1.3-5.7-3.1l-0.9-0.7l-6.3,9.2l0.7,0.6c4.2,3.6,8.4,5.4,12.7,5.4c4.3,0,8.2-1.8,11.5-5.4
		c3-3.3,4.5-7.1,4.3-11.3c-0.2-4.2-2.1-7.9-5.5-11.1c-2.5-2.3-5.3-4-8.3-4.8c-3-0.9-7.5-1.1-13.7-0.8c0,0-0.7,0-0.7,0
		c-7.8,0.4-12.9-0.6-15.3-2.8c-1.1-1-1.6-2-1.8-3.1c-0.1-1.1,0.2-2,1.1-2.9c0.9-1,1.8-1.3,2.9-1.1c1.2,0.2,2.8,1.1,4.8,2.7l0.9,0.7
		l6.5-9.3l-0.8-0.6c-3.8-3-7.7-4.5-11.6-4.5C408.2,411,404.7,412.6,401.9,415.7z"/>
	<path class="st5" d="M439,358.4l-5.2,12l53.7,34.4l4.5-10.3c0,0-10-6.2-11.3-7c0.5-1.2,2.5-5.9,3-7.1c1.5,0.4,12.8,3.5,12.8,3.5
		l4.6-10.8l-61.8-15.4L439,358.4z M455.3,372.2c6.2,1.8,16.5,4.8,18.1,5.2c-0.5,1.2-1.4,3.2-1.9,4.4
		C470.1,381,460.9,375.5,455.3,372.2z"/>
	<path class="st5" d="M456.1,292.2c-3.1,2.5-4.8,6.5-5.1,11.9l-0.9,14.4l62.8,3.7l0.9-14.8c0.3-5.4-0.9-9.5-3.7-12.2
		c-2.7-2.7-7.2-4.2-13.3-4.6l-27.2-1.6C463.6,288.6,459.1,289.7,456.1,292.2z M461.8,306.6c0.1-2.3,0.7-3.9,1.8-4.9
		c1-0.9,2.6-1.3,4.8-1.2l29.3,1.7c1.9,0.1,3.3,0.5,4.2,1.2c0.7,0.6,1,1.4,1,2.6c0,0.1,0,0.3,0,0.4c0,0-0.1,2.5-0.2,3.7
		c-1.9-0.1-39-2.3-40.9-2.4C461.7,307.2,461.8,306.6,461.8,306.6z"/>
	<path class="st5" d="M83.8,324.3L24.2,341l8.4,29.8l10.7-3c0,0-4.8-17-5.3-18.8c1.7-0.5,14-3.9,15.6-4.4c0.5,1.7,4.1,14.8,4.1,14.8
		l10.4-2.9c0,0-3.7-13-4.1-14.8c1.6-0.5,11.8-3.3,13.4-3.8c0.5,1.8,5.3,18.8,5.3,18.8l10.4-2.9l-8.4-29.8L83.8,324.3z"/>
	<path class="st5" d="M143.2,429.7l-37.5,49.2l9.1,6.9c0,0,15.4-20.2,16.6-21.7c1.4,1.1,12.2,9.3,12.2,9.3l6.6-8.6
		c0,0-10.8-8.2-12.2-9.3c1-1.3,7.4-9.8,8.5-11.1c1.5,1.1,15.5,11.9,15.5,11.9l6.6-8.6l-24.6-18.8L143.2,429.7z"/>
	<path class="st5" d="M67.2,281.5L36,282.4c-5.7,0.2-10.1,1.5-13.1,3.9c-3.1,2.5-4.6,6.1-4.4,10.5l0,0.6c0.1,3.9,0.3,8,4.4,11.7
		c2.7,2.4,6.7,3.5,13,3.5l17.1-0.5l-0.5-16.8l-9.7,0.3c0,0,0.1,4.3,0.2,5.7c-1.6,0-8.6,0.3-8.6,0.3c-1.9,0.1-3.3-0.2-4.2-0.9
		c-0.8-0.6-1.2-1.5-1.3-2.8c0-1.3,0.3-2.2,1.1-2.8c0.9-0.7,2.3-1.1,4.1-1.1l33.9-1c1.8-0.1,3.2,0.2,4.1,0.9c0.8,0.6,1.2,1.5,1.3,2.8
		c0,1.3-0.3,2.2-1.1,2.8c-0.8,0.7-2.2,1.1-4,1.1l-7.4,0.2l0.3,11.1l6.6-0.2c5.3-0.2,9.4-1.5,12.2-4.1c2.8-2.6,4.1-6.3,4-11
		c-0.1-4.9-1.7-8.7-4.7-11.4C76.3,282.6,72.2,281.3,67.2,281.5z"/>
	<path class="st5" d="M178.7,454.6l-25.9,56.2l28.1,13l4.6-10.1c0,0-16.1-7.4-17.7-8.2c0.7-1.6,6.1-13.2,6.8-14.7
		c1.6,0.8,13.9,6.4,13.9,6.4l4.5-9.8c0,0-12.3-5.7-13.9-6.4c0.7-1.5,5.1-11.1,5.8-12.7c1.7,0.8,17.7,8.2,17.7,8.2l4.5-9.8l-28.1-13
		L178.7,454.6z"/>
	<path class="st5" d="M345,459.1l-28.1,10.3l21.7,59l10.7-3.9c0,0-8.8-23.9-9.4-25.6c1.7-0.6,14.4-5.3,14.4-5.3l-3.7-10.1
		c0,0-12.7,4.7-14.4,5.3c-0.6-1.6-4.2-11.5-4.8-13.1c1.7-0.6,18.3-6.8,18.3-6.8l-3.7-10.1L345,459.1z"/>
	<path class="st8" d="M315.9,64.7c-2.3,2.4-7.8,8.5-10.1,10.9c-2.3,2.4-9.5,5.1-13.5,3.5c-6.9-2.9-10.9-5.1-12.3-5.8
		c0.1-1.6,0.1-3.2,0.1-4.8c0-11.5-1.2-23.1-1.6-26.6c3.2-0.8,13.9-3.4,24.2-5.2c1.6,1.8,7.1,8.4,12.3,16.5
		C318.1,57.8,318.2,62.3,315.9,64.7z"/>
	<path class="st9" d="M299.9,46.1c0.2,6.3-2.7,9.8-5.4,12.4c-2.7,2.6-6.6,5.6-10.1,8.8c-3.5,3.2-4.1,0.9-3.8-3.6
		c-0.2-9.4-1.1-18.1-1.5-21.4c2.8-0.7,9.6-2.3,17.1-3.9C298.9,37.9,299.8,39.8,299.9,46.1z"/>
	<path class="st10" d="M247.3,16.8c0,0-0.1,5.9,0.2,11.5c0,0-12.4,5.5-24,17.7c0,0-5.2-3.6-8.4-5.8
		C215.1,40.2,228.2,21.4,247.3,16.8z"/>
	<path class="st11" d="M249.9,94.3c0,0,0,6.4,0.9,14.9c0,0-9.2-2.9-13.7-6.7c-4.5-3.8-10.1-6.8-12.8-9.2c-2.7-2.3-3.3-4-1.9-6.5
		c1.4-2.5,2.7-4.2,2.7-4.2S234.3,88,249.9,94.3z"/>
	<path class="st12" d="M249.3,94.7c0,0,0,2.4,0,5.9c0,0-3.1-2.7-5.3-4.4c-2.2-1.7-5.5-4.2-7.4-5.1c-1.9-0.9-5.2-3.4-6.1-4.2
		c-0.9-0.8-2.8-2.2-2.8-2.2S237.9,90.4,249.3,94.7z"/>
	<path class="st13" d="M246.7,27.8c0,0-13.3,5.4-22.9,16.8c0,0-2.7-1.4-0.6-3.3c2.1-2,11.2-10.6,16.6-13.4
		C245.2,25,246.7,27.8,246.7,27.8z"/>
	<path class="st14" d="M260.7,9c-10,1-19.2,4.2-27.4,9.1l-0.2,0.1l0.2-0.1c3.7-1.5,9.3-3.3,16.1-4.1l0.1,0c1.5-1,4.8-2.9,10.2-4.9
		l0.1,0"/>
	<path class="st15" d="M262.4,8.8l-0.3,0.1c-6.4,2-10.2,4.2-12,5.4l0,0.1c-0.2,1.7-0.7,7.9-0.6,14.6l0.1,0c6.4,2.1,18,6.2,27.8,11.8
		l0,0c2.1-0.5,13.9-3.5,25.3-5.5l0-0.1c-0.2-5.6-0.9-11.1-1.3-13.8l0-0.1c-1.2-1.2-7.3-6.6-19.1-10.8l-0.7-0.3l-0.3-0.1
		c-4.5-1-9.3-1.5-14.1-1.5c-1.5,0-3,0.1-4.5,0.2L262.4,8.8z"/>
	<path class="st16" d="M278.8,73.2c0.5-13.4-1.2-28.4-1.6-31.6l0-0.1c-9.9-5.6-21.5-9.7-27.9-11.8l-0.1,0
		c-2.1,0.8-12.1,4.9-25.5,18.4l0,0.1c-1.2,5.9-2.5,17.8,1.1,32.7l0.1,0.1c2.2,1.2,14.9,7.9,26.3,12.5l0.1,0
		C266.4,84.2,276,75.8,278.8,73.2L278.8,73.2z"/>
	<path class="st17" d="M249.4,31.2c0,0-8.8,4.5-15.2,10s-8.2,10-7.8,13.3c0.3,3.3,6.3,13.3,11.3,16.2c5,2.9,11,9.1,14.8,9.4
		c3.8,0.3,10.3,0,15.1-2c4.8-2,10-5.3,10-5.3s0-9.2-0.6-17.8c-0.6-8.6-1.2-12.7-1.2-12.7S260.1,34.3,249.4,31.2z"/>
	<path class="st5" d="M249.5,31.8c0,0-11,6.2-14.9,10c-3.9,3.8-5.6,8.5-4.2,10c1.4,1.5,4.4,6.2,4.8,9.7c0.5,3.5,7.8,5.3,10.4,8.5
		c2.6,3.2,5.7,4.5,10.7,3.3c5-1.2,10.1,1.4,11.5-1.7c1.4-3,5.9-3.3,7.2-2c1.4,1.4,2.3-2.9,1.7-10.6c-0.6-7.7-1.7-16.3-1.7-16.3
		S260.2,35.1,249.5,31.8z"/>
	<path class="st18" d="M258.6,30.3c0,0,12.2,5.1,19,9.2c0,0,17.2-4.5,23.5-5.3c0,0-1.4-3.3-3.3-4.5c-2-1.2-0.8-5.1-4.1-6.5
		c-3.3-1.4-8.8,0.5-11.3-1.4c-2.6-1.8-11.5-4.1-14.5-2.1C264.9,21.7,250.9,27.1,258.6,30.3z"/>
	<path class="st5" d="M277.7,38.9c0,0-8.6-4.7-12.7-6.8c-4.1-2.1-4.2-4.8-0.9-5.3c3.3-0.5,8.9-2,10.7-2.6c1.8-0.6,4.5,3.8,9.7,2.4
		c5.1-1.4,7.2-0.6,9.1,2c1.8,2.6,5,5.1-0.6,6.5C287.4,36.4,277.7,38.9,277.7,38.9z"/>
	<path class="st19" d="M319.8,113.3c8.1-10.9,12.9-24.4,12.9-39.1c0-3.2-0.2-6.4-0.7-9.5l0-0.1l-0.1,0c-4.7-1.9-8.6-3.1-11-3.7
		l0,0.1c-0.6,1.6-5.4,15-13.4,24.6l0,0.1c0.5,4.7,1.4,15.5,0.7,27.8l0,0.1c1.3,0.1,6.2,0.3,11.4-0.2L319.8,113.3L319.8,113.3z"/>
	<path class="st20" d="M331.9,63.8c-2.8-17.5-12.5-32.7-26.2-42.7l-0.1-0.1l-0.1,0c-0.7,0.1-1.9,0.3-3.4,0.4l0,0.1
		c0.4,2.9,1.1,8.3,1.3,13.8l0,0.1c1.8,2,10.9,12.8,17.2,24.5l0,0.1C323,60.8,327,61.9,331.9,63.8L331.9,63.8L331.9,63.8z"/>
	<path class="st21" d="M306.9,85.6c-1.6-0.5-7.5-2.3-15.1-5.5c-8-3.5-12.2-5.8-13-6.2l-0.1,0.1c-3.2,2.9-12.5,11-27.1,19.5l-0.1,0
		c0.1,1.6,1.1,15,3.3,27.5l0.1,0c3.4,1.9,12.9,6.4,28.6,8.6l0.1,0c12.3-5.3,22-14.1,23.9-15.9l0-0.1c0.7-12.3-0.2-23.2-0.7-28
		L306.9,85.6z"/>
	<path class="st22" d="M279.8,80c-3.2,0.4-9.2,5.6-15.6,10.3c-6.4,4.6-9.1,5.2-9.1,5.2s0.4,9.9,1.4,16.8c1,6.9,1.2,9.8,1.2,9.8
		s13.9,6,23.5,6.4c0,0,15.7-6.1,25.1-16c0,0,0.9-15.4-0.2-23.1c0,0-5.9-2.4-14.3-5.8C283.6,80.1,281.7,79.8,279.8,80z"/>
	<path class="st16" d="M280.7,80.3c-1.6,0.2-6.8,3.5-12.3,7.4c-5.4,3.9-9.7,7.4-11,7.9c-1.3,0.5-1.3,1.9-1.1,4.4
		c0.2,2.5,0.2,6.7,4.7,5.9c4.5-0.8,10.5,0.2,13.6-1.4c3.1-1.6,4.4,2.1,10.1-0.3c5.6-2.4,12.3,3,16.7,0.7c4.4-2.3,4.8-3.1,4.7-8.5
		c-0.1-5.3-0.2-6.8-0.2-6.8s-4.7-2.1-13.2-5.4C284.3,81,281.6,80.2,280.7,80.3z"/>
	<path class="st23" d="M331.5,65.2c0,0-4.6-1.7-6.4-2.5c-1.8-0.8-3,4-5.2,9.2C317.6,77,314.4,82,312,85c-2.3,3-2.9,6.2-3,14.6
		c-0.1,8.4-0.2,11.1-0.2,11.1s6.7,0.5,9.1,0.3c2.3-0.2,6.4-4.2,9.4-11.2C330.2,92.9,334.4,78.2,331.5,65.2z"/>
	<path class="st24" d="M326.1,64.2c-1.5-0.8-2.1-0.3-5.4,7.5c-3.3,7.8-5.4,10.7-7.7,13.6c-2.3,2.9-3.1,4.4-3.4,9.5
		c-0.3,5,0.8,7.5,2.3,5.8c1.5-1.7,3.6,1,5-3.7c0.5-1.6,2.9-2.3,3.3-5.7c0.4-3.4,3.5-3.8,3.6-7.1c0.2-5.3,3.1-5.5,2.8-9.4
		c-0.3-3.8,1.6-5,1.2-7.4C327.4,64.8,327.4,64.9,326.1,64.2z"/>
	<path class="st25" d="M307.2,33.2c-1.3-2.6-2-8.2-3-9.6c-1-1.4-1.5-1.7-1.5-1.7s2.3-0.2,2.8-0.3c0.5-0.1,6.2,3.8,12.7,11.9
		c6.4,8,12.3,20.3,13.4,30c0,0-3.4-1.8-4.4-2.3c-1-0.5-3.6-5-4.7-6.9c-1.1-1.9-3.1-3.6-3.4-5.7c-0.3-2.1-1.7-1.4-2.8-4
		c-1.1-2.6-4.4-3-4.8-5.3C310.9,36.8,308.5,35.8,307.2,33.2z"/>
	<path class="st26" d="M307.5,26c-1.6-0.9-1.7,0.7-0.9,3.9c0.8,3.2,1.5,4.3,3,5.7c1.5,1.4,2.1,2.4,2.3,3.2c0.2,0.8,1.6,2.4,2.6,2.8
		c1,0.4,1,1.3,1.7,2.2c0.7,0.9,0.7,1.8,2.3,2.6c1.6,0.8,0.9,3,1.4,3.6c0.5,0.6,2,1.8,3.3,4.3c1.3,2.5,2.1,4.6,3.3,5.1
		c1.2,0.5,0.9,0,0.5-3.3c-0.4-3.3-0.9-5.2-2.9-6.7c-2-1.5-0.5-3.9-3.1-6.7c-2.6-2.8-2.7-3.8-5.8-7.2C312.1,32.1,311.1,28,307.5,26z"
		/>
	<path class="st27" d="M204.4,93.2L204.4,93.2c3.6,3.2,6.6,5.1,8.2,6l0.1,0c0.6-1.9,2.8-7.5,11.3-18.3l0-0.1
		C220.5,66,221.8,54,223,48l0-0.1c-1.4-1-6.5-4.5-11.6-7.9l-0.1,0l-0.1,0.1c-6.1,10-9.6,21.7-9.6,34.2c0,6.6,1,12.9,2.8,18.9
		L204.4,93.2z"/>
	<path class="st28" d="M228.5,127.1L228.5,127.1c0.3-1.7,0.7-3.2,1-4.4l-0.1-0.1c-1.9-2.1-9.7-10.9-14.9-19.2
		c-0.6-1-1.5-2.7-1.8-3.5l-0.1-0.1c-1.5-0.8-4.3-2.6-7.8-5.5l-0.1-0.1l0.1,0.2c4.3,13.1,12.6,24.5,23.5,32.5L228.5,127.1z"/>
	<path class="st28" d="M282.8,137.9l0-0.1c0.3-3.2,0.2-6.3,0.2-7.4l0-0.1c-15.4-2.3-24.8-6.7-28.2-8.6l-0.1,0
		c-1.8,0.4-10.7,2.4-24.6,1.5l-0.1,0c-0.3,1.1-0.7,2.7-1,4.2l0,0.1l0.1,0.1c10.7,7.7,23.9,12.2,38.1,12.2c5.3,0,10.5-0.6,15.4-1.8
		L282.8,137.9z"/>
	<path class="st29" d="M202.7,64.1c1.6-13.1,8.6-23.5,8.6-23.5s1.2,2.2,2.4,4.1c1.2,1.9,7.4,5.1,7.4,5.1s-0.8,4.1-0.5,14.1
		c0.3,10,0.7,15.5,0.7,15.5s-8.4,12.4-9.8,17.1c0,0-3.9-1.6-7-4.8C204.5,91.7,200.4,83.4,202.7,64.1z"/>
	<path class="st30" d="M212.5,44c0,0,1.9,3.2,7.7,6.3c0,0-0.6,17.6,0.5,28.5c0,0-4.7,6.6-6.1,9.7c-1.4,3-3.7-4.9-3.5-8.9
		c0.2-3.9-2.7-7.6-2.2-10.8c0.5-3.1-1-6.3-0.2-9.9c0.8-3.5-0.9-4.5,0.8-7.6C211.2,48.2,212.5,44,212.5,44z"/>
	<path class="st31" d="M282.7,133.6c0,1.9-0.3,3.9-0.3,3.9s-13.5,4.3-30.6,0.1c-15.2-3.8-22.3-10.3-22.3-10.3s0.4-2.2,0.9-3.5
		c0,0,16.3,1.2,22.4,1c6.1-0.2,9.8,3.4,13,4c3.2,0.6,4.5,2.2,8.9,2.2C278.9,131.1,282.7,131.8,282.7,133.6z"/>
	<path class="st32" d="M230.6,124.8c0,0-1.5,1.3,0.2,2c1.7,0.7,8.3,2.5,11.4,4.2c3.1,1.7,6.8,3,11.9,3.1c5,0.1,12.8,0.7,16.1,0.9
		c3.3,0.2-0.5-2,3.8-2c4.3,0,6-0.2,1.7-0.7c-4.3-0.5-8.8-1.7-12.1-3.3c-3.3-1.6-6.5-2.7-10.5-2.8c-3.9-0.1-7.1-0.5-12.4-0.7
		C235.6,125.3,231.3,124.7,230.6,124.8z"/>
	<path class="st33" d="M228.8,123c0,0-4.8-4.2-10.1-11.3c-5.3-7.2-7.5-11.7-7.5-11.7s-3-1.5-5.9-4.5c0,0,2.9,9.2,9.1,17.3
		c6.2,8.1,13.7,13.9,13.7,13.9S228.2,125.9,228.8,123z"/>
	<path class="st34" d="M210.8,100.4c0,0-1.7-0.9-2.5-1.4c-0.8-0.5,1.4,3.5,4.2,8c2.9,4.5,9.8,13.1,12.6,15.3c2.8,2.3,3,1.3,1.3-0.5
		c-1.7-1.8-5.6-6.5-9.4-11.4C213.3,105.4,210.8,100.4,210.8,100.4z"/>
</g>
</svg>
