<?xml version="1.0" encoding="utf-8"?>
<!-- Generator: Adobe Illustrator 24.0.1, SVG Export Plug-In . SVG Version: 6.00 Build 0)  -->
<svg version="1.1" id="Capa_1" xmlns="http://www.w3.org/2000/svg" xmlns:xlink="http://www.w3.org/1999/xlink" x="0px" y="0px"
	 viewBox="0 0 201.4 474" style="enable-background:new 0 0 201.4 474;" xml:space="preserve">
<style type="text/css">
	.st0{fill:#E30613;}
	.st1{fill:#FFFFFF;}
</style>
<path class="st0" d="M201.4,45.5h-52.8c-0.4-9.3-3.2-17.7-8.4-25c-1.6-2.3-3.5-4.3-5.5-6.4C125.5,4.7,114.2,0,101.1,0
	C87.9,0,76.7,4.7,67.3,14.1c-2.1,2.1-4,4.4-5.5,6.7c-5.1,7.2-7.9,15.4-8.3,24.4H-0.7l1.1,322.6h0.1c11.1,53,44.3,88.4,99.9,106.2
	l0.3,0.1l0.4-0.1c54.6-15.3,88-50.5,100.1-105.7c0-0.3,0-0.5,0.1-0.6l0.1-0.2V45.5L201.4,45.5z M146.2,46.8L146.2,46.8v1.3l52.7-0.1
	v319.2c-0.1,0.2-0.2,0.4-0.2,0.6c-11.8,54-44.5,88.6-97.9,103.7c-54.3-17.5-86.9-52.2-97.9-104L1.8,47.7h54.1v-1.2
	c0.3-9,2.9-17.1,7.9-24.2v-0.1c1.5-2.2,3.3-4.3,5.3-6.4C78,7,88.6,2.5,101.1,2.5c12.4,0,23,4.5,31.8,13.3h0.1c1.9,2,3.6,4,5.1,6.2
	C143.3,29.2,146,37.5,146.2,46.8z"/>
<path class="st1" d="M146.2,48.1v-1.3c-0.2-9.3-2.9-17.6-8.1-24.8c-1.5-2.2-3.2-4.2-5.1-6.2h-0.1C124.1,7,113.5,2.5,101.1,2.5
	C88.6,2.5,78,7,69.1,15.8c-2,2.1-3.8,4.2-5.3,6.4v0.1c-5,7.1-7.6,15.2-7.9,24.2v1.2H1.8l1.1,319.8c11,51.8,43.6,86.5,97.9,104
	c53.4-15.1,86.1-49.7,97.9-103.7c0-0.2,0.1-0.4,0.2-0.6V48L146.2,48.1L146.2,48.1z M135.3,23.1L135.3,23.1v0.1
	c5.1,7,7.6,15.1,7.6,24.3c0,0.1,0,0.2,0,0.2v0.1c0,1-0.1,2-0.2,3.1h54l-1,317.4c-10.1,49.8-41.5,83-94.1,99.7l-0.3,0.1l-0.4-0.1
	c-50.2-14.3-82-47.6-95.6-99.9V368V50.8h53c0-1,0-2,0-3v-0.1c0,0,0-0.1,0-0.2c0-9,2.4-17,7.3-24.1c0-0.1,0.1-0.1,0.2-0.2
	c1.3-2,3-4,4.8-5.8c8.3-8.4,18.3-12.5,30-12.5c11.7,0,21.6,4.1,29.9,12.5C132.2,19.2,133.9,21.1,135.3,23.1z"/>
<path class="st0" d="M135.3,23.2v-0.1c-1.4-2-3.1-3.9-4.8-5.7C122.2,9,112.3,4.9,100.6,4.9c-11.7,0-21.7,4.1-30,12.5
	c-1.8,1.8-3.5,3.8-4.8,5.8c-0.1,0.1-0.2,0.1-0.2,0.2c-4.9,7.1-7.3,15.1-7.3,24.1c0,0.1,0,0.2,0,0.2v0.1c0,1,0,2,0,3h-53V368v0.1
	c13.6,52.3,45.4,85.6,95.6,99.9l0.4,0.1l0.3-0.1c52.6-16.7,84-49.9,94.1-99.7l1-317.4h-54c0.1-1.1,0.2-2.1,0.2-3.1v-0.1
	c0,0,0-0.1,0-0.2C142.9,38.3,140.4,30.2,135.3,23.2L135.3,23.2z M128.7,19.2L128.7,19.2c1.2,1.1,2.3,2.4,3.4,3.8
	c-2.1,0.3-4.1,0.6-6.1,0.8h-0.1c-8,1.2-16,1.7-24.1,1.9v-9.2v-9C112.3,7.7,121.3,11.6,128.7,19.2L128.7,19.2z M127.6,26.2
	L127.6,26.2c2-0.4,4-0.7,6.1-1c4.3,6.3,6.5,13.3,6.7,21.3h-12.7C129.5,40,129.5,33.2,127.6,26.2L127.6,26.2z M68.8,23.2L68.8,23.2
	c1.1-1.4,2.3-2.7,3.6-4C80,11.5,89.1,7.5,99.9,7.4v18.3c-7.7,0-15.3-0.5-23-1.4C74.2,24,71.5,23.7,68.8,23.2L68.8,23.2z M67.3,25.5
	L67.3,25.5c2.5,0.4,5.2,0.8,7.8,1.2c-2.1,6.5-2.1,13.1,0,19.8H60.8C60.9,38.7,63.1,31.7,67.3,25.5L67.3,25.5z M100.5,28.2
	L100.5,28.2h0.1c8.2,0,16.4-0.7,24.5-1.7c1.9,7,1.9,13.6,0,20H77.6c-2.1-6.5-2.1-13,0-19.5C85.3,27.8,92.8,28.2,100.5,28.2
	L100.5,28.2z M75,68.5L75,68.5c-2.7,0.2-5.2,0.5-7.9,0.8c-3.5-5.2-5.5-11-6.1-17.3v-0.1C60.9,51,60.8,50,60.8,49H75
	C72.7,55.5,72.8,62,75,68.5L75,68.5z M68.8,71.7L68.8,71.7c2.7-0.4,5.3-0.7,8-1h0.1c7.4-0.7,14.9-1,22.4-1v17.8
	c-10.5-0.3-19.5-4.2-26.9-11.7C71.1,74.5,69.8,73.2,68.8,71.7L68.8,71.7z M100.6,67.2L100.6,67.2c-7.7,0-15.3,0.3-23,1
	c-2.5-6.5-2.5-12.9,0-19.2h47.6c2.4,6.7,2.4,13.3,0.1,19.7C117,67.7,108.8,67.2,100.6,67.2L100.6,67.2z M140.4,49L140.4,49
	c-0.1,1-0.2,2-0.3,3c-0.6,6.5-2.7,12.5-6.4,17.7c-2-0.2-4-0.5-5.9-0.7c2.3-6.5,2.3-13.2,0.1-20H140.4L140.4,49z M128.7,75.8
	L128.7,75.8L128.7,75.8c-7.4,7.5-16.4,11.4-26.9,11.7V69.7c8.1,0.1,16.1,0.6,24.1,1.5h0.1c2,0.3,4,0.5,6.1,0.8
	c-1.1,1.3-2.2,2.6-3.5,3.8H128.7L128.7,75.8z M137.5,103.5L137.5,103.5v7.5H33v137.5l67.6-96H65.8v-7.7h49.6L25.2,274.1V103.5H137.5
	L137.5,103.5z M7.7,367.7L7.7,367.7V325L194.2,56.2l-1,311.7c-10,48.7-40.6,81.2-91.9,97.6C52.2,451.3,21.1,418.7,7.7,367.7z"/>
<path class="st1" d="M132.1,23c-1.1-1.4-2.2-2.7-3.4-3.8c-7.4-7.6-16.4-11.5-26.9-11.7v9v9.2c8.1-0.2,16.1-0.7,24.1-1.9h0.1
	C128,23.6,130,23.3,132.1,23z"/>
<path class="st1" d="M133.7,25.2c-2.1,0.3-4.1,0.6-6.1,1c1.9,7,1.9,13.8,0.1,20.3h12.7C140.2,38.5,138,31.5,133.7,25.2z"/>
<path class="st1" d="M72.4,19.2c-1.3,1.3-2.5,2.6-3.6,4c2.7,0.5,5.4,0.8,8.1,1.1c7.7,0.9,15.3,1.4,23,1.4V7.4
	C89.1,7.5,80,11.5,72.4,19.2z"/>
<path class="st1" d="M75.1,26.7c-2.6-0.4-5.3-0.8-7.8-1.2c-4.2,6.2-6.4,13.2-6.5,21h14.3C73,39.8,73,33.2,75.1,26.7z"/>
<path class="st1" d="M100.6,28.2h-0.1c-7.7,0-15.2-0.4-22.9-1.2c-2.1,6.5-2.1,13,0,19.5h47.5c1.9-6.4,1.9-13,0-20
	C117,27.5,108.8,28.2,100.6,28.2z"/>
<path class="st1" d="M67.1,69.3c2.7-0.3,5.2-0.6,7.9-0.8c-2.2-6.5-2.3-13,0-19.5H60.8c0,1,0.1,2,0.2,2.9V52
	C61.6,58.3,63.6,64.1,67.1,69.3z"/>
<path class="st1" d="M76.8,70.7c-2.7,0.3-5.3,0.6-8,1c1,1.5,2.3,2.8,3.6,4.1c7.4,7.5,16.4,11.4,26.9,11.7V69.7c-7.5,0-15,0.3-22.4,1
	H76.8z"/>
<path class="st1" d="M100.6,67.2c8.2,0,16.4,0.5,24.7,1.5c2.3-6.4,2.3-13-0.1-19.7H77.6c-2.5,6.3-2.5,12.7,0,19.2
	C85.3,67.5,92.9,67.2,100.6,67.2z"/>
<path class="st1" d="M140.1,52c0.1-1,0.2-2,0.3-3h-12.5c2.2,6.8,2.2,13.5-0.1,20c1.9,0.2,3.9,0.5,5.9,0.7
	C137.4,64.5,139.5,58.5,140.1,52z"/>
<path class="st1" d="M128.7,75.9l-0.1-0.1c1.3-1.2,2.4-2.5,3.5-3.8c-2.1-0.3-4.1-0.5-6.1-0.8h-0.1c-8-0.9-16-1.4-24.1-1.5v17.8
	C112.3,87.2,121.3,83.3,128.7,75.9z"/>
<polygon class="st1" points="137.5,111 137.5,103.5 25.2,103.5 25.2,274.1 115.4,144.8 65.8,144.8 65.8,152.5 100.6,152.5 33,248.5 
	33,111 "/>
<path class="st1" d="M7.7,325v42.7c13.4,51,44.5,83.6,93.6,97.8c51.3-16.4,81.9-48.9,91.9-97.6l1-311.7L7.7,325L7.7,325z M74.5,268
	L74.5,268l-9.6-6.7l111.6-158.2V192H165v-52.9l-59.5,84.7v34.8c2.3-0.3,4.6-0.4,6.9-0.4c10.6,0,19.8,2.8,28,8.6l-6.7,9.7
	c-6-4.1-12.9-6.1-20.7-6.1c-2.6,0-5.1,0.3-7.5,0.7v25.7h52V309h-52v32.3c2.4,0.5,4.9,0.7,7.5,0.7c7.3,0,13.8-1.7,19.6-5.3l7.8,9.1
	c-8.1,5.8-17.4,8.7-28,8.7c-2.3,0-4.6-0.1-6.9-0.4v10.4H94.3v-13.2c-6-2.4-11.4-6-16.3-10.9c-9.5-9.5-14.2-20.8-14.2-34.1
	c0-13.3,4.7-24.6,14.2-34c4.9-4.9,10.3-8.5,16.3-10.8v-21.7L74.5,268L74.5,268z M88.7,378.8L88.7,378.8c3.8,2.3,7.5,2.3,11.3,0
	l0.6-0.5l0.8,0.5c3.4,2.5,7.2,2.5,11.2,0l3.1-1.9l0.2,0.2l-4.8,10c2.7,1.2,5.1,2.7,7.3,4.8c4.9,4.6,7.4,10.2,7.4,16.7
	c0,6.5-2.5,12-7.4,16.6v-0.1c-4.6,4.4-10.1,6.7-16.6,7v8.2c8-5.5,15.4-5,22.3,1.6l1.2,1.1l-1.3,0.8c-7.4,5.4-14.8,5.9-22.2,1.4v9.1
	h-2.5v-9.8c-2.8,2.3-5.7,3.5-8.8,3.5c-3.8,0-7.7-1.8-11.9-5.5l-1.1-1l1.3-0.9c6.8-5.2,13.7-5.6,20.5-1.4v-7.1
	c-6.3-0.4-11.7-2.7-16.2-7v0.1c-4.9-4.6-7.3-10.1-7.3-16.6c0-6.5,2.4-12.1,7.3-16.7c2.5-2.3,5.4-4.1,8.5-5.3l-6.8-8.9l0.8-0.8
	L88.7,378.8z"/>
<path class="st0" d="M64.9,261.3l9.6,6.7l19.8-28.2v21.7c-6,2.3-11.4,5.9-16.3,10.8c-9.5,9.4-14.2,20.7-14.2,34
	c0,13.3,4.7,24.6,14.2,34.1c4.9,4.9,10.3,8.5,16.3,10.9v13.2h11.2v-10.4c2.3,0.3,4.6,0.4,6.9,0.4c10.6,0,19.9-2.9,28-8.7l-7.8-9.1
	c-5.8,3.6-12.3,5.3-19.6,5.3c-2.6,0-5.1-0.2-7.5-0.7V309h52v-12.2h-52v-25.7c2.4-0.4,4.9-0.7,7.5-0.7c7.8,0,14.7,2,20.7,6.1l6.7-9.7
	c-8.2-5.8-17.4-8.6-28-8.6c-2.3,0-4.6,0.1-6.9,0.4v-34.8l59.5-84.7V192h11.5v-88.9L64.9,261.3L64.9,261.3z M86.6,280.9L86.6,280.9
	c2.4-2.3,5-4.2,7.7-5.7v62.1c-2.7-1.5-5.3-3.5-7.7-5.8c-7.3-7-10.9-15.4-10.9-25.2C75.7,296.3,79.3,287.9,86.6,280.9z"/>
<path class="st1" d="M94.3,275.2c-2.7,1.5-5.3,3.4-7.7,5.7c-7.3,7-10.9,15.4-10.9,25.4c0,9.8,3.6,18.2,10.9,25.2
	c2.4,2.3,5,4.3,7.7,5.8V275.2z"/>
<path class="st0" d="M100,378.8c-3.8,2.3-7.5,2.3-11.3,0l-3.1-1.9l-0.8,0.8l6.8,8.9c-3.1,1.2-6,3-8.5,5.3
	c-4.9,4.6-7.3,10.2-7.3,16.7c0,6.5,2.4,12,7.3,16.6v-0.1c4.5,4.3,9.9,6.6,16.2,7v7.1c-6.8-4.2-13.7-3.8-20.5,1.4l-1.3,0.9l1.1,1
	c4.2,3.7,8.1,5.5,11.9,5.5c3.1,0,6-1.2,8.8-3.5v9.8h2.5v-9.1c7.4,4.5,14.8,4,22.2-1.4l1.3-0.8l-1.2-1.1c-6.9-6.6-14.3-7.1-22.3-1.6
	v-8.2c6.5-0.3,12-2.6,16.6-7v0.1c4.9-4.6,7.4-10.1,7.4-16.6c0-6.5-2.5-12.1-7.4-16.7c-2.2-2.1-4.6-3.6-7.3-4.8l4.8-10l-0.2-0.2
	l-3.1,1.9c-4,2.5-7.8,2.5-11.2,0l-0.8-0.5L100,378.8L100,378.8z M91.8,382.8L91.8,382.8c3,0.6,5.8,0.1,8.8-1.5c3.2,2,6.5,2.5,10,1.2
	l-2.8,5.9l1.3,0.5c2.8,1.1,5.3,2.7,7.6,4.9v-0.1c4.4,4.1,6.6,9.1,6.6,14.9c0,5.7-2.2,10.6-6.6,14.7c-4.4,4.2-9.7,6.3-15.9,6.3
	c-0.1,0-0.2,0-0.2,0c-6.2-0.1-11.5-2.1-15.8-6.3c-4.3-4.1-6.5-9-6.5-14.7c0-5.8,2.2-10.8,6.5-14.9c2.7-2.6,5.7-4.3,9.2-5.2l1.7-0.5
	L91.8,382.8L91.8,382.8z M98.6,441.7L98.6,441.7c-2.6,2.5-5.3,3.8-8.1,3.8c-2.9,0-5.9-1.3-8.9-3.9C87.2,438,92.9,438,98.6,441.7
	L98.6,441.7z M121.3,442.7L121.3,442.7c-6.2,4-12.4,4-18.6,0C109.3,438,115.5,438,121.3,442.7z"/>
<path class="st1" d="M100.6,381.3c-3,1.6-5.8,2.1-8.8,1.5l3.9,5.2l-1.7,0.5c-3.5,0.9-6.5,2.6-9.2,5.2c-4.3,4.1-6.5,9.1-6.5,14.9
	c0,5.7,2.2,10.6,6.5,14.7c4.3,4.2,9.6,6.2,15.8,6.3c0,0,0.1,0,0.2,0c6.2,0,11.5-2.1,15.9-6.3c4.4-4.1,6.6-9,6.6-14.7
	c0-5.8-2.2-10.8-6.6-14.9v0.1c-2.3-2.2-4.8-3.8-7.6-4.9l-1.3-0.5l2.8-5.9C107.1,383.8,103.8,383.3,100.6,381.3L100.6,381.3z
	 M96.9,407.6L96.9,407.6c-2.3-3.6-1.3-8.5,3.1-14.8c0.5,3,2.1,7.4,4.9,13.3c2.7,6,1.7,11.5-3.4,16.7
	C100.8,416.3,99.3,411.2,96.9,407.6z"/>
<path class="st0" d="M100,392.8c-4.4,6.3-5.4,11.2-3.1,14.8c2.4,3.6,3.9,8.7,4.6,15.2c5.1-5.2,6.1-10.7,3.4-16.7
	C102.1,400.2,100.5,395.8,100,392.8z"/>
<path class="st1" d="M90.5,445.5c2.8,0,5.5-1.3,8.1-3.8c-5.7-3.7-11.4-3.7-17-0.1C84.6,444.2,87.6,445.5,90.5,445.5z"/>
<path class="st1" d="M102.7,442.7c6.2,4,12.4,4,18.6,0C115.5,438,109.3,438,102.7,442.7z"/>
</svg>
