<?xml version="1.0" encoding="utf-8"?>
<!-- Generator: Adobe Illustrator 24.0.1, SVG Export Plug-In . SVG Version: 6.00 Build 0)  -->
<svg version="1.1" id="Layer_1" xmlns="http://www.w3.org/2000/svg" xmlns:xlink="http://www.w3.org/1999/xlink" x="0px" y="0px"
	 viewBox="0 0 286 330.7" style="enable-background:new 0 0 286 330.7;" xml:space="preserve">
<style type="text/css">
	.st0{fill:#17073B;}
	.st1{fill:#FFFFFF;}
	.st2{fill:#980014;}
	.st3{fill:#CCD136;}
	.st4{fill:#24692D;}
	.st5{fill:#2E4D85;}
	.st6{fill:#B3AFAA;}
	.st7{fill:#6D6567;}
	.st8{fill:#666910;}
	.st9{fill:#2B2529;}
	.st10{fill:#8C7024;}
	.st11{fill:#FED89B;}
	.st12{fill:#251905;}
	.st13{fill:#664608;}
	.st14{fill:#F0F966;}
	.st15{fill:#D9EE38;}
	.st16{fill:#2D8352;}
</style>
<g>
	<path class="st0" d="M143,0C143,0,35.5,42.9,0,42.9C0,202,85.2,293.2,143,330.7C200.9,293.2,286,202,286,42.9
		C250.5,42.9,143,0,143,0z"/>
	<path class="st1" d="M278.6,79.3l-224.4,149c-7.1-12-13.5-24.5-19.1-37.4l221-146.8c9.1,2.2,17.3,3.7,24,4.4
		C280,58.9,279.5,69.2,278.6,79.3z"/>
	<path d="M72.6,190.4c-1.4,0-2.9,0.2-4.3,0.4c-1.3,0.2-2.6,0.4-3.8,0.4c-1.6,0-2.9-0.4-3.9-1.8c-0.5-0.7-0.7-1.5-0.7-2.2
		c0-1.5,0.9-2.8,2.1-3.6c0.9-0.6,1.8-0.8,2.7-0.8c2.5,0,4.8,1.9,5.6,2.7l0.2,0.1l0.2-0.1l0.9-0.6l-4.3-6.1l-0.7,0.4l0.1,1.7
		c-0.2,0-0.4,0-0.5,0c-2.7,0-4.3,0.9-5.2,1.5c-2.5,1.7-3.6,4-3.6,6.3c0,1.4,0.4,2.7,1.2,3.9c1.7,2.6,4.1,3.4,6.5,3.4
		c1.3,0,2.6-0.2,3.9-0.4c1.1-0.2,2.4-0.4,3.6-0.4c1.8,0,3.4,0.5,4.6,2.3c0.6,0.9,0.8,1.7,0.8,2.5c0,1.8-1.2,3.4-2.7,4.4
		c-1,0.7-2.1,1-3.2,1c-2.2,0-4.5-1.2-6.4-3.3l-0.2-0.2l-1.1,0.7l4.6,6.9l0.7-0.4l-0.1-1.7c0.2,0,0.4,0,0.7,0c3,0,4.9-1,5.8-1.6
		c2.6-1.7,4.8-4.6,4.8-7.8c0-1.3-0.4-2.7-1.3-4.1C77.8,191.1,75.3,190.4,72.6,190.4z"/>
	<path d="M88.4,190.8c-0.5,0-1,0.1-1.4,0.4c-0.7,0.5-1.2,1.3-1.2,2.3c0,0.5,0.2,1.1,0.5,1.6c0.6,0.9,1.5,1.3,2.4,1.3
		c0.5,0,1-0.2,1.5-0.5c0.8-0.6,1.2-1.4,1.2-2.3c0-0.6-0.2-1.2-0.5-1.7C90.3,191.3,89.4,190.8,88.4,190.8z"/>
	<path d="M109.5,167.8c-1.5-2.3-3.6-4.2-6-5.4c-1.9-0.9-3.6-1.3-5.2-1.3c-5.2,0-9.3,3.7-13.3,6.3l-4.3,2.7l0.8,1.2l1-0.6
		c0.4-0.2,0.9-0.4,1.4-0.4c0.3,0,0.5,0,0.7,0.1c0.6,0.2,1.3,1.1,2.3,2.5l8.3,12.5c1,1.4,1.5,2.4,1.5,3.1c0,0,0,0,0,0c0,0,0,0,0,0
		c0,0.9-0.6,1.5-1.1,1.8l-0.9,0.7l0.8,1.2l0.2-0.2c1.2-0.9,3-2.2,4.5-3.1c5.4-3.5,11.8-6.5,11.9-13.8c0-0.2,0-0.4,0-0.6
		C111.9,172.2,110.9,169.8,109.5,167.8z M108.3,178.4c0,2.1-0.9,4.1-3.5,5.8c-1.1,0.7-2,1-2.7,1c-1.4,0-2.5-1.1-3.7-3l-9.6-14.5
		c-0.1-0.2-0.2-0.4-0.2-0.5c0-0.3,0.2-0.6,1-1.1l0.9-0.6c1.9-1.2,3.6-1.7,5.2-1.7c4.8,0,8.3,4.7,9.8,7
		C106.9,173.3,108.3,175.9,108.3,178.4z"/>
	<path d="M158.6,148.5c-0.4,0.2-0.9,0.5-1.4,0.4c-0.2,0-0.5,0-0.7-0.1c-0.6-0.2-1.3-1.1-2.3-2.5l-8.3-12.5c-1-1.4-1.5-2.4-1.5-3
		c0,0,0,0,0,0l0,0l0,0h0c0-0.9,0.6-1.5,1.1-1.8l0.9-0.7l-0.8-1.2l-0.2,0.2c-2.3,1.7-3.1,2.2-4.5,3.1c-1.4,0.9-2.2,1.5-4.6,2.9
		l-0.2,0.1l0.8,1.2l1-0.6c0.4-0.2,0.9-0.5,1.4-0.5c0.2,0,0.5,0,0.7,0.2c0.6,0.2,1.3,1.1,2.3,2.5l3.4,5.2l-10.8,7.2l-3.4-5.2
		c-1-1.4-1.5-2.4-1.5-3l0,0l0,0c0-0.9,0.6-1.5,1.1-1.8l0.9-0.7l-0.8-1.2l-0.2,0.2c-2.3,1.7-3.1,2.2-4.5,3.1
		c-1.4,0.9-2.2,1.5-4.6,2.9l-0.2,0.1l0.2,0.2l0.6,1l1-0.6c0.4-0.2,0.9-0.5,1.4-0.4c0.2,0,0.5,0,0.7,0.2c0.6,0.2,1.3,1.1,2.3,2.5
		l8.3,12.5c1,1.4,1.5,2.4,1.5,3l0,0c0,0,0,0,0,0c0,0.9-0.6,1.5-1.1,1.8l-0.9,0.7l0.8,1.2l0.2-0.2c2.3-1.7,3.1-2.2,4.5-3.1
		c1.4-0.9,2.2-1.5,4.6-2.9l0.2-0.1l-0.8-1.2l-1,0.6c-0.4,0.2-0.9,0.5-1.4,0.4c-0.2,0-0.5,0-0.7-0.1c-0.6-0.2-1.3-1.1-2.3-2.5
		l-3.9-5.8l10.8-7.2l3.9,5.8c1,1.4,1.5,2.4,1.5,3.1v0c0,0,0,0,0,0c0,0.9-0.6,1.5-1.1,1.8l-0.9,0.7l0.8,1.2l0.2-0.2
		c2.3-1.7,3.1-2.2,4.5-3.1c1.4-0.9,2.2-1.5,4.6-2.9l0.2-0.1l-0.8-1.2L158.6,148.5z"/>
	<path d="M173.1,119.9c-0.3-0.4-2.7-4-3.1-5.4c-0.1-0.3-0.1-0.5-0.1-0.7c0-0.9,0.6-1.4,1.2-1.9l0.6-0.5l-0.8-1.2l-3.7,2.6l-3.9,2.4
		l0.8,1.2l1.1-0.7c0.4-0.2,0.8-0.3,1.1-0.3c1.7,0,3.4,2.4,4.9,4.8l4,6.1c0.8,1.2,2.4,3.7,2.4,6.3c0,1.9-0.8,3.8-3.4,5.6
		c-1.6,1.1-3,1.5-4.2,1.5c-2.8,0-4.7-2.4-5.9-4.2l-6.4-9.6c-1-1.4-1.5-2.4-1.5-3l0,0l0,0v0c0-0.9,0.6-1.5,1.1-1.8l0.9-0.7l-0.1-0.2
		l-0.7-1l-0.2,0.2c-2.3,1.7-3.1,2.2-4.5,3.1c-1.4,0.9-2.2,1.5-4.6,2.9l-0.2,0.1l0.8,1.2l1-0.6c0.6-0.3,1-0.5,1.4-0.5
		c0.7,0,1.5,0.6,3,2.7l6.6,10c1.3,2,3.6,4.6,7.2,4.6c1.8,0,3.9-0.6,6.4-2.3c3.8-2.5,5-5.4,5-7.9c0-3.1-1.7-5.7-2.6-7L173.1,119.9z"
		/>
	<path d="M201.7,113.8l-0.1-0.2l-1.2,0.8l0.1,0.2c0.6,1,0.9,1.9,0.9,2.7c0,0.7-0.2,1.3-0.5,1.9c-0.7,1.6-2.1,2.5-3.7,3.6
		c-0.9,0.6-2,1.2-3.2,1.2c-0.1,0-0.2,0-0.4,0c-1.3-0.2-2.1-1.2-2.9-2.5l-3.7-5.6l0.4-0.3c0.9-0.6,2.1-1.2,3.3-1.2
		c1,0,2.1,0.4,3.2,1.9l0.2,0.2l1.2-0.8l-0.2-0.2c-1.9-2.6-3.8-5.5-5.7-8.6l-0.1-0.2l-0.2,0.2l-1,0.7l0.2,0.2
		c0.6,0.8,0.9,1.7,0.9,2.6c0,1.5-0.9,3-2.6,4.1l-0.4,0.3l-5.3-8c-0.2-0.3-0.3-0.5-0.3-0.5c0-0.1,0.1-0.3,0.7-0.6l2.8-1.9
		c1.7-1.1,2.9-1.7,3.9-1.7c1,0,2,0.5,3.2,1.8l0.5,0.5l1.1-0.7l-3.5-5.3l-10.8,7.3c-1.1,0.8-3.1,2-5.3,3.4l-0.2,0.1l0.8,1.2l1-0.6
		c0.4-0.2,0.9-0.5,1.4-0.5c0.2,0,0.5,0,0.7,0.2c0.6,0.2,1.3,1.1,2.3,2.5l8.3,12.5c1,1.4,1.5,2.4,1.5,3.1l0,0c0,0,0,0,0,0
		c0,0.9-0.6,1.5-1.1,1.8l-0.9,0.7l0.8,1.2l0.2-0.2c2.2-1.6,3.3-2.4,4.5-3.1l12.8-8.4l-0.1-0.2C203.5,116.7,202.8,115.7,201.7,113.8z
		"/>
	<path d="M211,98.5c-1.4,0-2.9,0.2-4.3,0.4c-1.3,0.2-2.6,0.4-3.8,0.4c-1.6,0-2.9-0.4-3.9-1.8c-0.5-0.7-0.7-1.5-0.7-2.2
		c0-1.5,0.9-2.8,2.1-3.6c0.9-0.6,1.8-0.8,2.7-0.8c2.5,0,4.8,1.9,5.6,2.7l0.2,0.1l0.2-0.1l0.9-0.6l-4.3-6.1l-0.7,0.4l0.1,1.7
		c-0.2,0-0.4,0-0.5,0c-2.7,0-4.3,0.9-5.2,1.5c-2.5,1.7-3.6,4-3.6,6.3c0,1.4,0.4,2.7,1.2,3.9c1.7,2.6,4.1,3.4,6.5,3.4
		c1.3,0,2.6-0.2,3.9-0.4c1.1-0.2,2.4-0.4,3.6-0.4c1.8,0,3.4,0.5,4.6,2.3c0.6,0.9,0.8,1.7,0.8,2.5c0,1.8-1.2,3.4-2.7,4.4
		c-1,0.7-2.1,1-3.2,1c-2.2,0-4.5-1.2-6.4-3.3l-0.2-0.2l-1.1,0.7l4.6,6.9l0.7-0.4l-0.1-1.7c0.2,0,0.4,0,0.7,0c3,0,4.9-1,5.8-1.6
		c2.6-1.7,4.8-4.6,4.8-7.8c0-1.3-0.4-2.7-1.3-4.1C216.1,99.3,213.6,98.5,211,98.5z"/>
	<path d="M238.7,85.6l0.4,1.1c0.6,1.6,1,3.1,1,4.5c0,0.9-0.2,1.8-0.5,2.8c-0.6,1.4-1.6,2.6-2.7,3.3c-1.4,1-3,1.3-4.4,1.3
		c-0.5,0-0.9,0-1.4-0.1c-2.9-0.5-5.4-2.4-8.2-6.6c-2.3-3.4-3.1-6.2-3.1-8.5c0-3.4,1.8-5.5,3.5-6.7c1.1-0.7,2.5-1.2,3.9-1.2
		c2.1,0,4.3,0.9,6.2,3l0.2,0.2l0.2-0.1l0.9-0.6l-4.9-6.8l-0.9,0.6l0.5,1.7c0,0,0,0,0,0c-3.5,0-5.9,1.1-7.5,2.2c-3.9,2.6-6,6.7-6,11
		c0,2.7,0.8,5.5,2.5,8c2.9,4.3,7,6.7,11.3,6.7c2.4,0,4.8-0.7,7.1-2.2c3.4-2.3,4.8-5.1,5.5-7l1.7,1.1l0.8-0.5l-5.1-7.7L238.7,85.6z"
		/>
	<path d="M266.4,77l-0.2,0.2c-0.6,0.4-1.2,0.6-1.9,0.6c-1.4,0-3-1-5.1-2.5L242,62.2l-1.4,0.9l4.5,19.2c0.6,2.6,1,4.6,1,6
		c0,1.6-0.4,2.5-1.4,3.3l-0.2,0.2l0.8,1.2l0.2-0.2c1.2-0.9,1.9-1.4,2.5-1.8l0.8-0.5c0.7-0.4,1.6-1,3.4-2.1l0.2-0.1l-0.8-1.2
		l-0.9,0.5c-0.4,0.3-0.9,0.5-1.4,0.5c-0.5,0-0.9-0.2-1.3-0.8c-0.4-0.6-0.7-1.9-1.4-5.1l7.5-5.2l1.6,1.2c1.9,1.3,2.5,1.9,2.7,2.3
		c0.1,0.2,0.3,0.5,0.2,0.8c0,0.5-0.2,1-0.9,1.5l-0.9,0.7l0.8,1.2l0.2-0.2c2-1.4,2.9-2,3.8-2.6l1.7-1.1c0.8-0.6,1.7-1,3.6-2.2
		l0.2-0.1L266.4,77z M252.6,75.8l-6.4,4.4l-2.5-11L252.6,75.8z"/>
	<path d="M123.3,170.8L123.3,170.8l0.3-0.2c-0.6-0.8-1.5-1.3-2.5-1.3c-0.5,0-1,0.1-1.4,0.4c-0.7,0.5-1.2,1.3-1.2,2.3
		c0,0.5,0.2,1.1,0.5,1.6c0.6,0.9,1.5,1.3,2.4,1.3c0.5,0,1-0.2,1.5-0.5c0.8-0.6,1.2-1.4,1.2-2.3c0-0.6-0.2-1.2-0.5-1.7L123.3,170.8z"
		/>
	<path class="st1" d="M5.9,48.5c0.4,31,4.2,60.9,11.2,89.1h93.5L143,116V6.3C128,12.3,43.6,45,5.9,48.5z"/>
	<path class="st2" d="M186.5,287.3c14.4-14.6,29.5-33.1,43.5-55.8V114.8l-43.5,28.8V287.3z"/>
	<path class="st2" d="M186.5,87.2l43.5-28.9V37c-14.7-4.4-29.9-9.6-43.5-14.4V87.2z"/>
	<polygon class="st2" points="106.5,140.3 99.6,140.3 99.6,144.9 	"/>
	<path class="st2" d="M99.6,201.4v85.9c16.7,17,32.3,28.9,43.5,36.4V172.5L99.6,201.4z"/>
	<path class="st2" d="M17.7,140.3c0.7,2.6,1.4,5.3,2.1,7.9c3.9,13.8,8.6,27.2,14.1,40.3l22.1-14.7v-33.5H17.7z"/>
	<path class="st2" d="M55.6,230.6c0.2,0.3,0.4,0.6,0.6,0.9v-1.3L55.6,230.6z"/>
	<path class="st0" d="M143,214.8c-21.2,0-38.4,17.2-38.4,38.4c0,21.2,17.2,38.4,38.4,38.4c21.2,0,38.4-17.2,38.4-38.4
		C181.4,232,164.2,214.8,143,214.8z"/>
	<path class="st3" d="M174.6,234.3c-20.9,0.7-31,15.8-32.6,18.5c-0.2,0-0.5,0-0.7,0c-4.7,0-10.4-1.4-16.4-4.8
		c3.9-11.2,17.3-26.7,34-28c3.8,1.8,7.2,4.2,10.1,7.2C171.2,229.3,173.1,231.7,174.6,234.3z"/>
	<path class="st3" d="M157.2,240.8c2.1,2.1,10.8,12,10.8,29.9c0,3.2-0.3,6.7-0.9,10.4c-5.5,4.8-12.5,7.9-20.1,8.7
		c2.5-6.7,3.3-12.9,3.3-18.3c0-11.2-3.7-18.9-4.8-20.8C147.7,247.9,151.5,243.9,157.2,240.8C157.1,240.7,157.2,240.7,157.2,240.8z"
		/>
	<path class="st3" d="M117,227.2c6.7-6.7,15.9-10.8,26-10.8c4.6,0,9,0.8,13,2.4c-16.2,2.8-28.4,17.4-32.5,28.4
		c-4.3-2.7-8.7-6.5-12.8-11.6C112.4,232.5,114.5,229.7,117,227.2z"/>
	<path class="st3" d="M109.9,237.1c10.6,12.7,22.6,17.3,31.4,17.3c1.4,0,2.8-0.1,4-0.4c1.3,3,2.9,8.2,3.3,14.9
		c-4.7,1.9-9.2,2.7-13.4,2.7c-8.3,0-15.4-3-20.5-6c-2.5-1.5-4.6-3-5.9-4.1c-0.7-0.6-1.2-1-1.6-1.3c-0.1-0.1-0.3-0.2-0.3-0.3
		c-0.4-2.2-0.6-4.5-0.6-6.8C106.2,247.4,107.5,242,109.9,237.1z"/>
	<path class="st3" d="M117,279.2c-4.5-4.5-7.9-10.2-9.6-16.6c4.1,3.4,14.4,10.7,27.8,10.7c0,0,0,0,0,0c4.2,0,8.7-0.7,13.4-2.6
		c0,0.3,0,0.5,0,0.8c0,5.4-0.9,11.6-3.5,18.4c-0.7,0-1.4,0.1-2.1,0.1C132.8,290,123.7,285.9,117,279.2z"/>
	<path class="st3" d="M169,279.2c0,0-0.1,0.1-0.1,0.1c0.4-3.1,0.6-6,0.6-8.7c0-17.8-8.3-27.9-11-30.7c4.5-2.3,10.2-3.9,16.9-4
		c2.7,5.2,4.3,11,4.3,17.3C179.8,263.4,175.7,272.6,169,279.2z"/>
	<path d="M119.9,76.3l0-0.2l-0.2,0.1c-2.4,0.8-4.2,2-5.6,3.7c0,0,0,0,0,0c0-1.5-0.4-2.8-1.2-4.4c1.8-1.6,2.9-3.3,2.9-5.8
		c0-1.1-0.2-2.4-0.6-3.8l-0.1-0.2l-0.1,0.1c-0.6,0.8-1,1.6-1.4,2.5c-0.3-0.8-0.8-1.6-1.5-2.5l-0.1-0.2l-0.1,0.2
		c-0.4,1.3-0.5,2.6-0.5,3.9c0,1.3,0.2,2.6,0.4,3.7c0-0.1-0.1-0.2-0.1-0.3l-0.1-0.2l-0.1,0.2c0,0,0,0,0,0.1c0,0,0,0,0,0
		c0-1.9-0.8-3.8-2-5.3c1.3-2.1,1.9-3.8,1.9-5.7c0-1.8-0.5-3.8-1.1-6.3l-0.1-0.3l-0.1,0.2c-0.6,1.1-1.1,2.2-1.5,3.2
		c-0.6-1.2-1.5-2.3-3.1-3.5l-0.1-0.1l0,0.2c-0.2,1.2-0.3,2.4-0.3,3.6c0,0.1,0,0.2,0,0.3c-0.7-0.6-1.4-1.3-2.2-2l-0.2-0.2l0,0.3
		c0.5,4.5,1.6,7.6,4,9.8c0,0.1,0,0.2,0,0.4c0,0.3,0,0.5,0.1,0.7c-0.8-0.5-1.7-1-2.4-1.3l-0.1-0.1l0,0.1c-0.1,0.3-0.1,0.6-0.1,0.9
		c0,3.7,4,6.1,6.3,7.6c-0.4,1.4-0.6,2.7-0.6,3.9c-0.9-0.9-2.2-1.7-3.9-2.7l-0.2-0.1l0,0.2c0.2,4.8,1.2,7,4.4,8.8c-1.8,2.2-3,4.5-3,7
		c0,1.6,0.5,3.2,1.6,5c-0.1,0.6-0.3,1.1-0.5,1.5l-0.1,0.1c-0.6,1-1.1,2-1.5,3.1c-0.3-2-1.1-3.8-2.7-6.3l-0.1-0.2l-0.1,0.2
		c-0.5,2.1-0.9,4.2-0.9,6.2c0,2.4,0.6,4.7,2.3,6.6c-0.1,0.7-0.1,1.4-0.1,2c0,0.3,0,0.7,0,1c-0.8,1.2-1.4,1.8-2,2.2
		c0-0.3,0.1-0.6,0.1-1l0-0.2l-0.2,0.1c-1.5,0.6-2.8,1.3-4,2.1c0-0.2,0-0.5,0-0.8c0-0.7,0-1.5-0.1-2.5l0-0.2l-0.2,0.2
		c-3.1,3.4-3.7,4.6-4.6,9.4c-1.8,0.7-6.9,1.7-12.4,3.1c-1.6,0.3-3.8,0.9-6.2,1.5c-2-0.3-3.9-0.6-5.2-0.9c-5-1-9.7-2.2-11.3-3.4l0,0
		l0,0c-1.5-0.8-3.9-3.4-6.6-6.6l-0.2,0.1c2.4,4.7,4.4,6.4,6.4,8c0,0-0.1,0-0.2,0c-0.5,0-1.1-0.1-1.7-0.2c-2.3-2.7-6-4.3-6-12.4
		l-0.2,0c-0.3,1.4-0.4,2.5-0.4,3.5c0,0.9,0.1,1.7,0.3,2.3c-0.4-0.9-0.9-2.2-1.6-4.9c-0.5-1.8-0.8-4.2-0.8-6.6c0-1.4,0.1-2.7,0.3-3.9
		l-0.2-0.1c-1,1.6-1.4,3.7-1.4,6.1c0,1.1,0.1,2.4,0.2,3.6c-0.8-1.4-1.4-4.3-1.4-7.6c0-2.5,0.3-5.3,1.1-7.8L46.6,95
		c-1.5,2.1-2.5,5.6-2.5,9.7c0,1,0.1,2.1,0.2,3.2c-0.8-1.4-1.2-3.5-1.2-6.1c0-3.7,0.9-8.2,3-12.3l-0.1-0.1c-2.7,2.8-3.8,8.4-4.2,13
		c-0.1-1-0.2-2.1-0.2-3.5c0-3.1,0.7-7.1,3.8-11.2l-0.1-0.2c-1.7,1.2-3,3.2-4.3,5.1c0.9-3.9,2.8-8.3,5.3-11.7L46,80.8
		c-1.5,1.4-3.4,3.1-4.9,5.2c0.5-3.8,2.5-7,4-9.8L44.9,76c-1.4,1.8-2.8,2.8-4.2,5.3c0.4-3.1,1.7-7.2,3.7-10.5l-0.1-0.1
		c-1.4,1.3-2.5,2.8-3.5,5c0.8-3.6,2.7-7,6.7-11.1l-0.1-0.2c-1.5,0.7-3.9,2.9-7.4,8c1.7-4.5,4.1-10.1,8.6-15l-0.1-0.2
		c-2.2,1.7-5.4,4.1-8.2,10.2c0.1-1.2,0.2-2.2,0.2-3c0-2.3-0.4-3.4-0.7-4.2l-0.2,0c0.2,1.2,0.2,2.1,0.2,3c0,2.3-0.4,3.8-0.8,5.6
		c-0.5-2.1-1.1-4-1.9-5.4l-0.2,0.1c1,4.2,0.7,7.1,0.8,10.4c-1.2-2.5-2.4-4.8-3.8-6l-0.1,0.1c1.5,3.9,3.2,7.6,3.1,10.8
		c0,0.1,0,0.2,0,0.3c-1-1.7-2.2-3.3-3.4-4.9l-0.2,0.1c2.7,5.5,3.8,11.1,4.1,16.6c-1.2-2.1-3.5-5.4-5.8-6.8l-0.1,0.2
		c3.1,3.9,5.7,8.8,7,13.5c-1.4-1.6-3-3-5-4.3c0,0,0,0-0.1,0c-0.1,0-0.1,0.1-0.1,0.1c0,0,0,0.1,0,0.2c0,0.9,0.8,4.5,2.7,7.1l0.2-0.1
		c-0.6-2-1-3.5-1.1-4.4c3,1.6,5.6,6.6,6.6,9.6c-1.4-1.5-3.2-2.9-6-3.9l-0.1,0.2c4.3,3.6,6.1,6.1,7.6,8.7c-0.8-0.6-1.5-1.2-2.3-1.8
		l0,0l0,0c-0.1,0-0.1-0.1-0.2-0.1c-0.1,0-0.2,0.1-0.3,0.2c0,0.1-0.1,0.3-0.1,0.5c0,1,0.4,2.8,0.8,4.5c-0.5-0.1-1-0.1-1.5-0.1
		c-0.3,0-0.5,0-0.8,0l0,0.2c0.6,0.1,1.5,0.3,2.4,0.7c0.2,0.9,0.5,1.7,0.6,2.2l0.2,0c0-0.6-0.1-1.3-0.1-1.9c2.7,1.2,6,3.2,7.8,5.4
		c-2.1-0.6-4.1-1.1-5.8-1.1c-0.2,0-0.4,0-0.6,0l0,0.2c1.4,0.3,4.3,0.1,9,2.9l0-0.1l0,0.1c5.3,2.7,7.9,2.4,15.8,3.3
		c1.6,0.2,3.1,0.4,4.5,0.6c-3.8,0.9-7.7,1.7-10.3,1.9l0,0l0,0c-1.1,0.3-3.8,1.8-4.4,2.9l-0.1,0.2h5.8l0,0c1.8-2.2,5.7-2.8,12.4-4.5
		c5.3,0.8,8.1,1.7,9.6,3.6l0,0h5.6l-0.1-0.2c-0.5-1.1-3.1-2.5-4.2-2.8c-0.6-0.3-3.7-0.7-7.1-1.3c-0.3,0-0.6-0.1-0.9-0.1
		c1.1-0.3,2.2-0.6,3.3-0.9c5.6-1.4,8.4-2.2,11.5-3l0,0.1l0.1,0v0l0,0l0.1,0c0.2,0,0.4-0.1,0.7-0.1l0,0c0.3-0.1,0.5-0.1,0.7-0.1
		c1.7,0,2.7,1.3,4.7,1.3c1.2,0,2.7-0.4,4.9-1.8l0.2-0.1l-0.2-0.1c-2.1-0.7-3.5-1.2-4.8-1.3c1.4-1.1,2.2-2.6,2.8-4.7c0,0,0,0,0,0
		c0.7-0.5,1.9-1.6,2.6-2.6c2.8-3.1,4-5.7,4-8.4c0-1-0.1-1.9-0.4-3c1.2,1.2,2.3,1.7,3.4,1.7c0,0,0,0,0,0c0.9,0,1.9-0.3,3.1-0.7
		l0.2-0.1l-0.2-0.1c-1.2-0.7-2-1.5-3-2c0.5-0.2,0.9-0.5,1.3-0.8c1-0.9,1.4-2.2,2.1-3.8l0.1-0.2l-0.2,0.1c-3,1-5.1,1.4-6.6,3.3
		c0.1-0.4,0.2-0.8,0.3-1.2c4.7-1.6,6.8-4.8,7.8-10.2l0-0.2l-0.2,0.1c-2.3,0.7-4.2,1.9-5.5,3.5c0-0.4,0.1-0.8,0.1-1.2
		c0-0.2,0-0.5,0-0.7c0.2-0.8,0.4-1.8,0.4-2.7C116.9,84.8,118.9,81.7,119.9,76.3z M41.8,114.5c-0.1-0.6-0.1-1.2-0.1-1.6
		c0-0.2,0-0.4,0-0.4c0,0,0-0.1,0-0.1c0.9,0.7,2.7,2.3,4.2,3.7C44.7,115.3,43.3,114.7,41.8,114.5z"/>
	<path class="st3" d="M39.9,63.2c0-0.6,0-1.3-0.1-2c0.2,0.7,0.4,1.7,0.4,3.2c0,1-0.1,2.2-0.3,3.7l0.2,0.1c2.4-5.6,5.3-8.2,7.4-10
		c-4,4.7-6.2,9.9-7.8,14.2c-0.2-1.1-0.4-2.1-0.7-3.1C39.3,67.3,39.9,65.7,39.9,63.2z"/>
	<path class="st3" d="M37.2,64c1.1,2.3,1.7,5.4,2.4,8.8l0,0.2l0.1-0.2c3.2-4.7,5.5-7,7-7.9c-4,4.2-5.8,7.8-6.4,11.7
		c-0.2,0.6-0.4,1.2-0.6,1.8c-0.6-1.4-1.3-2.8-1.9-4.2C37.7,70.9,38,68,37.2,64z"/>
	<path class="st3" d="M34,68.3c2.1,2.1,3.8,6.6,5.7,10.5l0.1,0.2l0.1-0.2c1.1-3.7,2.3-5.8,4-7.4c-1.9,3.4-3.2,7.4-3.4,10.5
		c-0.5,0.9-0.9,1.9-1.4,3.2c-0.4-2.1-1.1-3.9-2-5.6c0-0.2,0-0.4,0-0.7C37,75.5,35.5,72,34,68.3z"/>
	<path class="st3" d="M33.9,75.1c2.3,2.9,4.4,6,5,10.3l0.1,0.4l0.1-0.4c1.8-5.2,3.6-6.5,5.4-8.6c-1.4,2.7-3.2,5.7-3.6,9.4
		c-1.2,1.8-2.3,3.8-2.7,6c-0.1-0.2-0.3-0.6-0.5-1C37.3,85.9,36.4,80.5,33.9,75.1z"/>
	<path class="st3" d="M32,84.7c3,2,5.8,7.2,6.1,8l0.1,0.3l0.1-0.3c0.9-4.8,4.3-8.5,7.2-11.1c-2.4,3.5-4.1,7.8-4.9,11.5l0.2,0.1
		c1.2-1.8,2.4-3.9,4-5.1c-2.8,4-3.4,7.8-3.4,10.8c0,1.3,0.1,2.4,0.2,3.4c-0.8-1.5-1.7-2.8-2.7-4.1C37.5,93.6,35,88.6,32,84.7z"/>
	<path class="st3" d="M34.9,96.1L34.8,96l0,0.2c0.1,0.9,0.4,2.1,1,4c-1.6-2.5-2.3-5.7-2.3-6.5c0,0,0,0,0,0c3.8,2.5,6.2,5.4,8.2,9.3
		l0.2,0.3l0-0.3c0.4-4.4,1.4-9.9,3.8-12.9c-1.8,3.9-2.7,8.2-2.7,11.7c0,2.8,0.5,5.2,1.5,6.6c0,0.2,0.1,0.5,0.1,0.7
		c-0.9-0.9-1.7-1.9-2.6-2.8C41,103.2,38.2,97.8,34.9,96.1z"/>
	<path class="st3" d="M39.8,114.4c0.5,0,0.9,0.1,1.4,0.1c0,0.1,0.1,0.2,0.1,0.4C40.7,114.7,40.2,114.6,39.8,114.4z"/>
	<path class="st3" d="M41.9,115.2c0-0.2,0-0.3,0-0.5c1.7,0.3,3.3,1,4.8,1.9c0,0,0,0,0,0l4.7,3.4l1.8,1.5l0.1-0.1l-1.9-3.1
		c-0.6-1.1-1.1-2.3-1.1-4.2c0-0.8,0.1-1.6,0.3-2.6c0.3,7.2,3.7,9,5.9,11.5c-1.9-0.4-4.2-1.2-6.5-1.9
		C48.3,118.6,44.7,116.4,41.9,115.2z"/>
	<path class="st3" d="M85.8,130.7h5.2c-0.6-1-3-2.3-4-2.6l0,0l0,0c-0.6-0.3-3.6-0.7-7.1-1.3c-0.5-0.1-0.9-0.1-1.4-0.2
		c-0.7,0.2-1.3,0.3-1.9,0.5C81.5,128,84.2,128.9,85.8,130.7z"/>
	<path class="st3" d="M70.3,125.3c-5-1-9.6-2.2-11.4-3.5c-1.5-0.8-3.6-3-6-5.9c2.3,4.2,4.2,5.7,6.1,7.2l0.2,0.2l-0.3,0
		c-0.1,0-0.3,0-0.4,0c-3.4,0-9-2.7-13.3-3.3c1.6,0.2,3.9,0.8,7,2.7c5.2,2.7,7.8,2.4,15.8,3.3c1.9,0.2,3.5,0.5,5,0.7
		c0.7-0.2,1.3-0.3,2-0.5C73.2,125.8,71.5,125.5,70.3,125.3z"/>
	<path class="st3" d="M36.1,102.5c4.5,1.8,6.1,4.6,8.5,6.9l0.2,0.2l0-0.3c-0.3-1.6-0.4-3.1-0.4-4.6c0-3.8,0.8-7,2.1-9.1
		c-0.6,2.4-0.9,5-0.9,7.3c0,3.6,0.6,6.7,1.6,8c0.2,1.4,0.4,2.8,0.7,4.2c-1.6-1.6-2.9-2.8-4.2-3.9C42,108.7,40.4,106.1,36.1,102.5z"
		/>
	<path class="st3" d="M41.9,112.1c1.1,0.8,3.3,2.9,5,4.4l0,0l4.7,3.4l1.4,1.1l-2-3.4c-0.6-1.2-1.1-2.1-2.2-6.2l0,0
		c-0.5-1.8-0.8-4.3-0.8-6.6l0,0c0-1.2,0.1-2.3,0.2-3.4l0,0c-0.8,1.5-1.1,3.4-1.1,5.5l0,0c0,2.7,0.5,5.7,1,8.4l0,0l0.1,0.3l-0.2-0.2
		c-2.8-2.8-4.9-4.5-7.2-6.2l0,0c0,0-0.1,0-0.1,0l0,0c0,0-0.1,0-0.1,0.1l0,0c0,0.1-0.1,0.2-0.1,0.4l0,0c0,1.4,0.9,4.7,1.4,6.5l0,0
		c-0.1-1.4-0.2-2.8-0.2-3.6l0,0c0-0.2,0-0.4,0-0.5l0,0C41.6,112.2,41.7,112.1,41.9,112.1L41.9,112.1L41.9,112.1L41.9,112.1
		L41.9,112.1z"/>
	<path class="st4" d="M108.9,98.1c-0.1,0.6-0.3,1.1-0.5,1.5c0.1,0.2,0.1,0.4,0.2,0.6c0.1-0.2,0.2-0.4,0.3-0.6c0-0.1,0.1-0.2,0.1-0.2
		c0.1-0.5,0.3-1,0.4-1.5c-0.1,0-0.2,0.1-0.4,0.1L108.9,98.1L108.9,98.1L108.9,98.1z"/>
	<path class="st4" d="M108.7,100.5C108.7,100.5,108.7,100.6,108.7,100.5c0.6-0.1,1.2-0.3,1.6-0.3c0.7-0.7,1.2-1.1,1.8-1.4
		c0.7-0.4,1.4-0.8,2.4-1.9l0.2,0.2c-1,1.2-1.7,1.6-2.5,2c-0.5,0.3-1,0.6-1.5,1.1c0.1,0,0.2,0,0.3,0c0.5,0,1,0.1,1.4,0.3
		c0.6-0.2,1-0.5,1.4-0.8c0.9-0.8,1.3-2,1.9-3.5C112.2,97.2,110.2,97.5,108.7,100.5z"/>
	<path class="st4" d="M104.2,99.1l0.2,0c0.1,2.1,0.7,5.1,1.1,7.4c0.2-1.2,0.6-2.3,1-3.5c-0.2-2.1-1-3.9-2.6-6.4
		c-0.4,2-0.8,4-0.8,5.9c0,2.3,0.5,4.5,2.1,6.3c0.1-0.5,0.1-1.1,0.2-1.6C105,104.7,104.3,101.4,104.2,99.1z"/>
	<path class="st4" d="M108.8,100.8c0.1,0.2,0.1,0.4,0.2,0.6c1.3,1.3,2.3,1.9,3.5,1.9c0.8,0,1.7-0.2,2.8-0.6
		c-1.8-1.1-2.6-2.3-4.3-2.3C110.4,100.3,109.7,100.5,108.8,100.8z M113.8,102.3c-2.7-0.2-1.5-0.2-4.7-1.2l0.1-0.2
		c3.2,1,1.9,1,4.6,1.2L113.8,102.3z"/>
	<path class="st4" d="M105.3,111.1c0,0.6,0,1.3,0.1,1.9c2.8-3.1,4-5.6,4-8.2c0-1.5-0.4-3.1-1.1-4.9
		C106.2,103.3,105.3,107.3,105.3,111.1z M106,111.2l-0.2-0.1c1.2-2.7,1.7-4.9,2.1-8.5l0.2,0C107.7,106.2,107.2,108.5,106,111.2z"/>
	<path class="st4" d="M111,85.2c-2.2,2.5-3.6,4.9-3.6,7.6c0,1.5,0.5,3.2,1.6,4.9c1.8-2.7,2.8-5,2.8-7.9
		C111.7,88.5,111.5,86.9,111,85.2z M109.1,96.7l-0.2,0c0-0.1,0-0.2,0-0.3c0-3.9,0.6-5.9,1.7-8.7l0.2,0.1c-1,2.8-1.7,4.7-1.7,8.6
		C109.1,96.5,109.1,96.6,109.1,96.7z"/>
	<path class="st4" d="M103,113.5c-1.5,0.6-2.8,1.3-3.9,2.1c-0.1,1.8-0.7,2.9-2,4.2c2-1.7,3.1-2.7,4.5-4.5l0.2,0.2
		c-1.8,2.3-3.1,3.4-6.6,6.3l0,0c-0.3,0.2-0.5,0.5-0.8,0.7C100.3,121.3,102.2,119.2,103,113.5z"/>
	<path class="st4" d="M98.9,114.5c0-0.6,0-1.4-0.1-2.2c-3.1,3.4-3.5,4.5-4.5,9.8C97.8,118.9,98.9,118.1,98.9,114.5z M94.8,121.3
		l-0.2-0.1c1.9-2.9,1.9-3.3,3-6.1l0.2,0.1C96.8,117.9,96.7,118.4,94.8,121.3L94.8,121.3z"/>
	<path class="st4" d="M99.7,120.6c-0.6,0.4-1.3,0.8-2,1.1c1.4,0.2,1.9,0.3,2.5,0.3c0.5,0,1-0.1,2.2-0.2l0,0.2
		c-1.2,0.1-1.7,0.2-2.2,0.2c-0.6,0-1.2-0.1-2.9-0.4c-0.5,0.2-0.9,0.3-1.5,0.4c1.5,0.2,2.5,1.3,4.2,1.3c1.1,0,2.5-0.4,4.6-1.7
		C102.5,121.1,101.1,120.6,99.7,120.6C99.7,120.6,99.7,120.6,99.7,120.6z"/>
	<path class="st4" d="M103,114.6c0,0.3-0.1,0.6-0.2,0.8c0.2-0.2,0.5-0.4,0.8-0.7c0.5-0.5,1.1-1,1.5-1.6c0-0.3,0-0.5,0-0.8
		C104.3,113.6,103.6,114.1,103,114.6z"/>
	<path class="st4" d="M111.8,91.4c-0.3,2.2-1.2,4.2-2.6,6.4c4.9-1.6,7-4.5,8.1-10C114.9,88.5,113.1,89.7,111.8,91.4z M115.5,90
		c-1.7,3.2-3.2,4.5-5.3,7v0l-0.2-0.2c2.1-2.5,3.6-3.9,5.3-7L115.5,90z"/>
	<path class="st4" d="M62.2,128.9c-1,0.3-3.5,1.7-4.1,2.6h5.4c2.4-2.9,8.2-3.1,18.8-6.1c5.6-1.4,8.4-2.2,11.6-3.1
		c0-0.1,0.1-0.2,0.1-0.3c0-0.1,0.1-0.3,0.1-0.4c-2,0.7-6.9,1.7-12.3,3.1C77.1,125.7,67.3,128.5,62.2,128.9z"/>
	<path class="st4" d="M110.3,85.6c0.2-0.2,0.3-0.4,0.5-0.6c-1.2-2.5-2.4-3.9-4-6L107,79c1.5,2.1,2.7,3.5,4,5.9l0.1-0.1l0,0.2
		c0.1,0.2,0.1,0.4,0.1,0.5c0,0,0,0.1,0,0.1l0,0c0.1,0.2,0.1,0.4,0.1,0.6c0.1,0.1,0.3,0.1,0.4,0.2c-0.3-5.6-1.4-6.7-5.8-9.2
		C106.3,81.8,107.2,83.9,110.3,85.6z"/>
	<path class="st4" d="M114,80.1c0-0.1,0-0.2,0-0.3c0-2-0.8-3.8-2.4-6.4c-1,2.2-1.5,4.4-1.5,6.2c0,0.1,0,0.1,0,0.2
		c0.9,1,1.5,2.2,1.7,4c0.1-1.4,0.2-2.8,0.2-4.1c0-1.2,0-2.4-0.1-3.8l0.2,0c0.1,1.4,0.1,2.6,0.1,3.8c0,1.3-0.1,2.7-0.2,4.1
		C112.5,82.4,113.1,81.2,114,80.1z"/>
	<path class="st4" d="M112.1,86.5C112.1,86.5,112,86.5,112.1,86.5l0,0.2l-0.1-0.1c0,0,0,0-0.1,0c-0.1,0-0.2,0.1-0.2,0.1
		c0,0.1,0,0.1,0,0.2c0.1,0.5,0.2,1,0.2,1.6C111.9,87.8,112,87.1,112.1,86.5z"/>
	<path class="st4" d="M119.7,76.4c-4.2,1.4-6.7,4.2-7.8,8.4c0,0.5,0.1,0.9,0.1,1.5C116.6,84.7,118.7,81.8,119.7,76.4z M112.5,85.7
		L112.5,85.7l-0.2-0.2c2.4-2.4,4-4.5,6.1-7.8l0.2,0.1C116.5,81.2,114.9,83.3,112.5,85.7L112.5,85.7z"/>
	<path class="st4" d="M107,65.8c-0.7-2.2-1.1-3-2.8-5.5l0.2-0.1c1.6,2.4,2.1,3.2,2.7,5.3l0-0.1l0.1,0.1c0.5,0.4,0.9,0.8,1.4,1.3
		c-0.3-4.2-2.1-6-5.7-9.1c0.5,4.3,1.6,7.2,3.8,9.3C106.8,66.7,106.9,66.2,107,65.8z"/>
	<path class="st4" d="M107.3,65.7c-0.2,0.7-0.4,1.3-0.4,1.9c0,2.8,2.2,5.3,3.9,7c0.1-0.3,0.2-0.7,0.4-1c0-0.2,0-0.4,0-0.6
		C111.2,70.3,109.3,67.5,107.3,65.7z M110.6,73.4c-1.1-1.3-1.4-1.6-3.1-6.4l0.2-0.1c1.7,4.8,2,5,3.1,6.4L110.6,73.4z"/>
	<path class="st4" d="M107.7,62.5c-0.3-1.5-0.7-2.3-1.5-4.6l0.2-0.1c0.7,2,1.1,2.9,1.4,4.1c0.1-0.9,0.4-1.8,0.7-2.7
		c-0.5-1.2-1.4-2.3-2.9-3.5c-0.1,1.1-0.2,2.2-0.2,3.3c0,0.2,0,0.3,0,0.5C106.3,60.5,107.1,61.5,107.7,62.5z"/>
	<path class="st4" d="M108.8,65.9c0.7-2.7,0.7-3.6,1-6.8l0.2,0c-0.3,3.4-0.3,4.3-1.1,7.4c0,0.2,0,0.3,0,0.5c0.2,0.2,0.3,0.4,0.5,0.6
		c1.3-2,1.8-3.7,1.8-5.5c0-1.7-0.4-3.6-1-6c-1.3,2.5-2.1,4.7-2.2,6.8C108.3,63.7,108.6,64.7,108.8,65.9z"/>
	<path class="st4" d="M114.1,71.8c0.3-1.1,0.3-2.3,0.5-4.3l0.2,0c-0.2,2.6-0.1,3.9-1,5.4c-0.2,0.7-0.5,1.4-0.8,2.1
		c1.6-1.5,2.5-3.1,2.5-5.4c0-1-0.2-2.2-0.6-3.6c-0.5,0.7-1,1.6-1.3,2.5c0.3,0.9,0.5,1.7,0.5,2.5C114.2,71.2,114.2,71.5,114.1,71.8z"
		/>
	<path class="st4" d="M108.1,71.8c-0.6-0.9-1.1-2-1.3-3.1c-0.8-0.5-1.6-1-2.4-1.3c0,0.2-0.1,0.5-0.1,0.7c0,3.5,3.9,5.9,6.2,7.4
		c0.1-0.2,0.1-0.4,0.2-0.6c-0.7-0.7-1.5-1.6-2.2-2.6c-0.8-0.6-1.8-1.4-2.9-3l0.2-0.1C106.6,70.5,107.4,71.2,108.1,71.8z"/>
	<path class="st4" d="M112.3,74.3c0.2-0.9,0.3-1.5,0.3-2.2c0-1.2-0.3-2.3-0.4-4.1l0.2,0c0.1,1.8,0.4,2.9,0.4,4.1
		c0,0.7-0.1,1.5-0.3,2.5l0,0c0.1,0.2,0.2,0.4,0.3,0.5c0.7-1.5,1.2-2.8,1.2-4.2c0-1.5-0.5-3.1-2-5c-0.3,1.2-0.5,2.4-0.5,3.6
		c0,1.6,0.2,3.1,0.6,4.4C112.2,74.1,112.3,74.2,112.3,74.3z"/>
	<path d="M100.6,43.2c-1.4,0.8-0.8,0.5-1,1c-0.2-0.8-2.7-2-3.9,0c-0.9,1.4,0.7,3.4-0.4,5c2.2,0.1,1.6-2.6,2.9-1.5
		c1.3,1.2-2,4-5.2,2.2c-3.2-1.8-3-3.5-3-4.3c0.5,0.8,1.6,0.8,2-0.5c0.4-1.3,0.5-2.4-0.8-2.3c0.4-0.8,0.2-1.7-1-2
		c-1.3-0.3-2,0.2-1.9,1.2c-0.7-0.5-1.5-0.1-1.7,1c-0.2,1.1-0.3,2.5,1.6,2.1c-0.8,1.4-1.9,2.8-6.2,2.5c-4.2-0.3-4-3.6-2.9-3.4
		c1.1,0.1,0.4,1.5,2.1,1.9c-0.7-3.1,1.4-4.9-0.1-6.1c-1.2-1-1.8-0.7-2.4-0.5c0.8-3.4-2.9-3-2.9-3.9c0,0.8-3.7,0.5-2.9,3.9
		c-0.7-0.3-1.2-0.6-2.4,0.5c-1.5,1.2,0.5,3-0.1,6.1c1.7-0.4,1-1.7,2.1-1.9c1.1-0.1,1.4,3.2-2.9,3.4c-4.2,0.3-5.3-1.1-6.2-2.5
		c1.9,0.5,1.9-1,1.6-2.1c-0.2-1.1-1-1.5-1.7-1c0.2-1-0.6-1.5-1.9-1.2c-1.3,0.3-1.4,1.2-1,2c-1.3-0.1-1.3,1-0.8,2.3
		c0.4,1.3,1.6,1.3,2,0.5c-0.1,0.8,0.2,2.5-3,4.3c-3.2,1.8-6.5-1-5.2-2.2c1.3-1.2,0.7,1.6,2.9,1.5c-1.1-1.6,0.5-3.6-0.4-5
		c-1.3-2-3.7-0.8-3.9,0c-0.2-0.5,0.4-0.1-1-1c-1.4-0.8-2.6,0.5-3.9,0c0.5,2.1,1.8,0.4,3,4.2c-0.3,0.5,0.3,2.2,1.1,2.1
		c0.7,1.6,3.3,3,3.3,3c-0.4,0.3-0.1,0.9,0.6,0.9c0.1,0.2,0.1,0.3,0.2,0.6c-0.7,0.5-0.1,1.8,0.6,1.8c0.1,0.3,0.3,0.4,0.3,0.6
		c-0.3,0.2-0.2,1,0.5,1.5h-5.1v0.3v44.6c0,7.2,6.7,11.1,10,11.1c3.2,0,4.8,0,7.7,0c1.4,0,3,0.6,4.2,1.5c1.2,0.9,2.1,2.1,2.1,3.2h0.5
		c0-1.1,0.8-2.3,2.1-3.2c1.2-0.9,2.8-1.5,4.2-1.5c2.9,0,4.5,0,7.7,0c3.3,0,10-3.9,10-11.1V58h-5.1c0.7-0.5,0.8-1.3,0.5-1.5
		c0-0.2,0.2-0.3,0.3-0.6c0.7,0,1.3-1.3,0.6-1.8c0.1-0.3,0.1-0.4,0.2-0.6c0.7,0,1-0.6,0.6-0.9c0,0,2.6-1.5,3.3-3
		c0.8,0.1,1.4-1.6,1.1-2.1c1.2-3.8,2.4-2.1,3-4.2C103.2,43.6,102,42.3,100.6,43.2z"/>
	<path class="st2" d="M69.3,113.4c2.6,0,5.7,1.9,6.5,4l0,0c0.9-2.2,4-4,6.6-4l0,0c2.9,0,4.5,0,7.7,0l0,0c1.5,0,3.9-0.9,5.9-2.7l0,0
		c2-1.8,3.6-4.5,3.6-7.9l0,0V58.5H52.1v44.3c0,3.4,1.6,6.1,3.6,7.9l0,0c2,1.8,4.4,2.7,5.9,2.7l0,0C64.8,113.4,66.4,113.4,69.3,113.4
		L69.3,113.4z"/>
	<path d="M69.4,62.9c0,0.3,0,0.5,0.3,0.5c1.2,0,1.1-0.6,1.3-0.6c0,0,0.1,0,0.1,0.1c0,0.4-0.3,0.8-0.7,0.8c-0.7,0-1,0-1.3,0
		c-0.2,0-0.4,0-0.6,0c-0.1,0-0.1,0-0.1-0.1c0-0.2,0.4,0,0.4-0.6v-2.3c0-0.4-0.5-0.3-0.5-0.5c0,0,0.1-0.1,0.2-0.1c0.2,0,0.5,0,0.7,0
		c0.4,0,0.5,0,0.5,0c0.1,0,0.1,0,0.1,0.1c0,0.2-0.3,0-0.3,0.4V62.9L69.4,62.9z"/>
	<path d="M73.2,61.4c0,0.2,0,0.2,0.2,0.2h0.3c0.4,0,0.4-0.4,0.5-0.4c0,0,0.1,0,0.1,0.1l0,0.9c0,0.1,0,0.2-0.1,0.2
		c-0.2,0,0-0.5-0.5-0.5h-0.4c-0.2,0-0.2,0.1-0.2,0.3v0.6c0,0.3,0,0.5,0.3,0.5c1.2,0,1.1-0.6,1.3-0.6c0,0,0.1,0,0.1,0.1
		c0,0.4-0.3,0.8-0.7,0.8c-0.7,0-1,0-1.3,0c-0.1,0-0.4,0-0.6,0c-0.1,0-0.1,0-0.1-0.1c0-0.2,0.4,0,0.4-0.6v-2.3c0-0.4-0.5-0.3-0.5-0.5
		c0,0,0-0.1,0.1-0.1c0.2,0,0.5,0,1.3,0c0.3,0,0.7,0,1.1,0c0.1,0,0.1,0,0.1,0.1l0,0.5c0,0.1,0,0.2-0.1,0.2c-0.2,0,0.1-0.6-0.8-0.6
		c-0.6,0-0.6,0-0.6,0.3V61.4L73.2,61.4z"/>
	<path d="M77.1,62.4c-0.1,0-0.2,0-0.3,0.3c0,0.1-0.1,0.3-0.1,0.4c0,0.3,0.5,0.3,0.5,0.4c0,0.1-0.2,0.1-0.3,0.1c-0.2,0-0.3,0-0.5,0
		c-0.1,0-0.3,0-0.4,0c-0.1,0-0.1,0-0.1-0.1c0-0.1,0.2-0.1,0.4-0.4l1.3-2.9c0-0.1,0.1-0.2,0.1-0.2c0,0,0.1,0,0.1,0.2l1.3,3
		c0.2,0.3,0.4,0.2,0.4,0.3c0,0.1,0,0.1-0.2,0.1c-0.2,0-0.3,0-0.6,0c-0.2,0-0.4,0-0.5,0c-0.1,0-0.1,0-0.1-0.1c0-0.1,0.3-0.1,0.3-0.4
		c0-0.1,0-0.2-0.1-0.3c-0.2-0.4-0.2-0.4-0.3-0.4H77.1L77.1,62.4z M77.9,62.2c0.1,0,0.2,0,0.2,0c0-0.1,0-0.1-0.1-0.2l-0.4-0.9
		c0,0,0,0,0,0c0,0,0,0-0.1,0.1l-0.4,0.9c0,0.1-0.1,0.1-0.1,0.2c0,0,0.1,0,0.2,0H77.9L77.9,62.2z"/>
	<path d="M81.7,62.9c0,0.3,0,0.5,0.3,0.5c1.2,0,1.1-0.6,1.3-0.6c0,0,0.1,0,0.1,0.1c0,0.4-0.3,0.8-0.7,0.8c-0.7,0-1,0-1.3,0
		c-0.1,0-0.4,0-0.6,0c-0.1,0-0.1,0-0.1-0.1c0-0.2,0.4,0,0.4-0.6v-2.3c0-0.4-0.5-0.3-0.5-0.5c0,0,0.1-0.1,0.2-0.1c0.2,0,0.5,0,0.7,0
		c0.4,0,0.5,0,0.5,0c0.1,0,0.1,0,0.1,0.1c0,0.2-0.3,0-0.3,0.4V62.9L81.7,62.9z"/>
	<path d="M95.1,72.7c-0.6,0-0.4,0.5-0.5,0.5c-0.1,0-0.1,0-0.1-0.2c0-0.2,0-0.4,0-0.7c0-0.2,0-0.4,0-0.5c0,0,0-0.1,0.1-0.1
		c0.2,0,0,0.3,0.5,0.3h2.3c0.4,0,0.3-0.5,0.5-0.5c0.1,0,0.1,0.1,0.1,0.2c0,0.2,0,0.4,0,0.5c0,0.2,0,0.3,0,0.6c0,0.1,0,0.2-0.1,0.2
		c-0.2,0,0-0.4-0.4-0.4H95.1L95.1,72.7z"/>
	<path d="M97,74.9c0.9,0,0.6-0.5,0.8-0.5c0,0,0.1,0,0.1,0.1c0,0.1,0,0.2,0,0.3c0,0.1,0,0.3,0,0.5c0,0.2,0,0.1-0.1,0.2l-2.1,1.9
		c-0.1,0.1-0.1,0.1-0.1,0.2c0,0,0.1,0,0.2,0h1.6c0.4,0,0.4-0.6,0.5-0.6c0,0,0.1,0,0.1,0.1c0,0.1,0,0.2,0,0.6c0,0.3,0,0.5,0,0.5
		c0,0.1-0.1,0.1-0.1,0.1c-0.1,0,0-0.4-0.5-0.4h-2.7c-0.1,0-0.1,0-0.1-0.1c0-0.1,0-0.1,0.1-0.1l2.5-2.3c0,0,0.1-0.1,0.1-0.1
		c0,0,0,0-0.1,0h-1.6c-0.9,0-0.6,0.6-0.8,0.6c-0.1,0-0.1-0.1-0.1-0.2c0-0.2,0-0.4,0-0.6c0-0.2,0-0.3,0-0.4c0-0.1,0-0.2,0.1-0.2
		c0.2,0,0.1,0.5,0.6,0.5H97L97,74.9z"/>
	<path d="M94.5,81.3c-0.1-0.1-0.2-0.1-0.2-0.1c0,0,0-0.1,0.2-0.2l2.8-1.2c0.2-0.1,0.2-0.1,0.3-0.3c0,0,0-0.1,0.1-0.1
		c0.1,0,0.1,0.1,0.1,0.2c0,0.2,0,0.3,0,0.5c0,0.3,0,0.5,0,0.5c0,0.2,0,0.2-0.1,0.2c-0.1,0-0.1-0.3-0.3-0.3c-0.1,0-0.4,0.1-0.7,0.2
		l-1.6,0.6c0,0-0.1,0-0.1,0.1c0,0,0.1,0,0.1,0.1l1.5,0.7c0.3,0.1,0.5,0.2,0.6,0.2c0.5,0,0.3-0.5,0.4-0.5c0.1,0,0.1,0.1,0.1,0.2
		c0,0.1,0,0.3,0,0.4c0,0.1,0,0.3,0,0.4c0,0.1,0,0.2-0.1,0.2c-0.1,0-0.1-0.2-0.4-0.3L94.5,81.3L94.5,81.3z"/>
	<path d="M95.1,85.1c-0.6,0-0.4,0.5-0.5,0.5c-0.1,0-0.1,0-0.1-0.2c0-0.2,0-0.4,0-0.7c0-0.2,0-0.4,0-0.5c0,0,0-0.1,0.1-0.1
		c0.2,0,0,0.4,0.5,0.4h2.3c0.4,0,0.3-0.5,0.5-0.5c0.1,0,0.1,0.1,0.1,0.2c0,0.2,0,0.4,0,0.5c0,0.2,0,0.3,0,0.6c0,0.1,0,0.2-0.1,0.2
		c-0.2,0,0-0.4-0.4-0.4H95.1L95.1,85.1z"/>
	<path d="M96.8,90c0,0-0.2,0-0.2-0.1c0-0.1,0.1-0.1,0.2-0.1c0.5-0.2,0.9-0.7,0.9-1.2c0-0.7-0.7-1.1-1.3-1.1c-0.7,0-1.6,0.4-1.6,1.3
		c0,0.7,0.6,1.1,0.6,1.2c0,0,0,0.1-0.1,0.1c-0.2,0-0.9-0.5-0.9-1.5c0-1.4,1.2-1.6,1.6-1.6c0.8,0,1.9,0.5,1.9,1.7
		c0,0.6-0.3,1-0.3,1.1c0,0.1,0.2,0.1,0.2,0.2c0,0,0,0.1,0,0.1L96.8,90L96.8,90z"/>
	<path d="M97.3,92.6c0.2,0,0.3,0,0.3-0.2V92c0-0.5-0.6-0.4-0.6-0.6c0-0.1,0.1-0.1,0.2-0.1l0.6,0.1c0,0,0.1,0,0.1,0.1
		c0,0.4,0,0.8,0,1.5c0,0.7,0,1,0,1.5c0,0.1-0.1,0.1-0.1,0.1l-0.4,0.1c-0.1,0-0.2,0.1-0.2-0.1c0-0.2,0.5,0,0.5-0.6v-0.4
		c0-0.2,0-0.2-0.3-0.2h-2.2c-0.6,0-0.5,0.6-0.6,0.6c-0.1,0-0.1-0.1-0.1-0.2c0-0.2,0-0.4,0-0.7c0-0.3,0-0.5,0-0.7
		c0-0.1,0-0.2,0.1-0.2c0.2,0,0,0.5,0.5,0.5H97.3L97.3,92.6z"/>
	<path d="M95.7,96.8c0-0.1,0-0.2-0.3-0.3c-0.1,0-0.3-0.1-0.4-0.1c-0.3,0-0.3,0.5-0.4,0.5c-0.1,0-0.1-0.1-0.1-0.3c0-0.2,0-0.3,0-0.5
		c0-0.1,0-0.3,0-0.4c0-0.1,0-0.1,0.1-0.1c0.1,0,0.1,0.2,0.4,0.4l2.9,1.3c0.1,0,0.2,0.1,0.2,0.1c0,0,0,0.1-0.2,0.1l-3,1.3
		c-0.3,0.2-0.2,0.4-0.3,0.4c-0.1,0-0.1,0-0.1-0.2c0-0.2,0-0.3,0-0.6c0-0.2,0-0.4,0-0.5c0-0.1,0-0.1,0.1-0.1c0.1,0,0.1,0.3,0.4,0.3
		c0.1,0,0.2,0,0.3-0.1c0.4-0.2,0.4-0.2,0.4-0.3V96.8L95.7,96.8z M95.9,97.6c0,0.1,0,0.2,0,0.2c0.1,0,0.1,0,0.2-0.1l0.9-0.4
		c0,0,0,0,0,0c0,0,0,0-0.1-0.1l-0.9-0.4c-0.1,0-0.1,0-0.2,0c0,0,0,0.1,0,0.2V97.6L95.9,97.6z"/>
	<path d="M56.5,95.8c0.6,0,0.4-0.5,0.6-0.5c0.1,0,0.1,0,0.1,0.1c0,0.2,0,0.4,0,0.6c0,0.2,0,0.4,0,0.6c0,0.1,0,0.1-0.1,0.1
		c-0.2,0,0-0.4-0.5-0.4h-0.9c-0.2,0-0.3,0-0.3,0.2v1.3c0,0.2,0,0.2,0.3,0.2h0.8c0.6,0,0.4-0.6,0.6-0.6c0,0,0.1,0,0.1,0.1
		c0,0.2,0,0.4,0,0.7c0,0.2,0,0.4,0,0.6c0,0.1,0,0.1-0.1,0.1c-0.2,0,0-0.4-0.6-0.4h-2.2c-0.5,0-0.3,0.5-0.5,0.5
		c-0.1,0-0.1-0.1-0.1-0.2c0-0.1,0-0.3,0-0.5c0-0.3,0-0.5,0-0.6c0-0.1,0-0.1,0.1-0.1c0.1,0,0,0.4,0.4,0.4h0.8c0.1,0,0.2,0,0.2-0.1
		v-1.4c0-0.1-0.1-0.2-0.2-0.2h-0.7c-0.5,0-0.4,0.5-0.5,0.5c-0.1,0-0.1,0-0.1-0.1c0-0.2,0-0.3,0-0.6c0-0.2,0-0.4,0-0.6
		c0-0.1,0-0.1,0.1-0.1c0.2,0,0,0.3,0.4,0.3H56.5L56.5,95.8z"/>
	<path d="M55,93.2c0.2,0,0.2,0,0.2-0.2v-0.3c0-0.4-0.4-0.4-0.4-0.5c0,0,0-0.1,0.1-0.1l0.9,0c0.1,0,0.2,0,0.2,0.1
		c0,0.2-0.5,0-0.5,0.5V93c0,0.2,0.1,0.2,0.3,0.2h0.6c0.3,0,0.5,0,0.5-0.3c0-1.2-0.6-1.1-0.6-1.3c0,0,0-0.1,0.1-0.1
		c0.4,0,0.8,0.3,0.8,0.7c0,0.7,0,1,0,1.3c0,0.1,0,0.4,0,0.6c0,0.1,0,0.1-0.1,0.1c-0.2,0,0-0.4-0.5-0.4h-2.3c-0.4,0-0.3,0.5-0.5,0.5
		c0,0-0.1,0-0.1-0.1c0-0.2,0-0.5,0-1.3c0-0.3,0-0.7,0-1.1c0-0.1,0-0.1,0.1-0.1l0.5,0c0.1,0,0.2,0,0.2,0.1c0,0.2-0.6-0.1-0.6,0.8
		c0,0.6,0,0.6,0.3,0.6H55L55,93.2z"/>
	<path d="M54.4,90c-0.5,0-0.4,0.5-0.5,0.5c0,0-0.1,0-0.1-0.1c0-0.2,0-0.3,0-0.6c0-0.3,0-0.7,0-1c0-1.1,0.7-1.2,0.9-1.2
		c0.3,0,0.5,0.1,0.6,0.3c0.1,0.1,0.2,0.3,0.2,0.3c0,0,0.7-0.4,1.3-0.8c0.1,0,0.1-0.1,0.1-0.2c0,0,0-0.1,0-0.1c0,0,0-0.1,0.1-0.1
		c0.2,0,0.3,0.3,0.3,0.5c0,0.4-0.3,0.5-0.6,0.7l-0.8,0.4c-0.2,0.1-0.3,0.2-0.3,0.4c0,0.3,0,0.2,0.2,0.2h0.8c0.5,0,0.3-0.5,0.5-0.5
		c0,0,0.1,0,0.1,0.1c0,0.1,0,0.2,0,0.4c0,0.3,0,0.5,0,0.7c0,0.1,0,0.2-0.1,0.2c-0.2,0,0-0.4-0.6-0.4H54.4L54.4,90z M55.3,89.4
		c0.1,0,0.1-0.2,0.1-0.3c0-0.7-0.3-0.8-0.6-0.8c-0.5,0-0.8,0.3-0.8,0.8c0,0.2,0,0.3,0.3,0.3H55.3L55.3,89.4z"/>
	<path d="M53.7,84.1c0-0.9,0.6-1.7,1.6-1.7c0.7,0,1.9,0.3,1.9,1.8c0,1-0.7,1.6-1.6,1.6C54.5,85.9,53.8,85.2,53.7,84.1L53.7,84.1z
		 M57,84.1c0-0.8-0.7-1.1-1.5-1.1c-1.1,0-1.6,0.6-1.6,1.2c0,0.8,0.7,1.1,1.4,1.1C56,85.3,57,85,57,84.1L57,84.1z"/>
	<path d="M56.6,80.1c0.6,0,0.4-0.5,0.5-0.5c0.1,0,0.1,0,0.1,0.2c0,0.2,0,0.4,0,0.7c0,0.2,0,0.4,0,0.5c0,0,0,0.1-0.1,0.1
		c-0.2,0,0-0.3-0.5-0.3h-2.3c-0.4,0-0.3,0.5-0.5,0.5c-0.1,0-0.1-0.1-0.1-0.2c0-0.2,0-0.4,0-0.5c0-0.2,0-0.3,0-0.6
		c0-0.1,0-0.2,0.1-0.2c0.2,0,0,0.4,0.4,0.4H56.6L56.6,80.1z"/>
	<path d="M54.8,75.3c0,0,0.2,0,0.2,0.1c0,0.1-0.1,0.1-0.2,0.1c-0.5,0.2-0.9,0.7-0.9,1.2c0,0.7,0.7,1.1,1.3,1.1
		c0.7,0,1.6-0.4,1.6-1.3c0-0.7-0.6-1.1-0.6-1.2c0,0,0-0.1,0.1-0.1c0.2,0,0.9,0.5,0.9,1.5c0,1.4-1.2,1.6-1.6,1.6
		c-0.8,0-1.9-0.5-1.9-1.7c0-0.6,0.3-1,0.3-1.1c0-0.1-0.2-0.1-0.2-0.2c0,0,0-0.1,0-0.1L54.8,75.3L54.8,75.3z"/>
	<path d="M56,72.9c0,0.1,0,0.2,0.3,0.3c0.1,0,0.3,0.1,0.4,0.1c0.3,0,0.3-0.5,0.4-0.5c0.1,0,0.1,0.1,0.1,0.3c0,0.2,0,0.3,0,0.5
		c0,0.1,0,0.3,0,0.4c0,0.1,0,0.1-0.1,0.1c-0.1,0-0.1-0.2-0.4-0.4l-2.9-1.3c-0.1,0-0.2-0.1-0.2-0.1c0,0,0-0.1,0.2-0.1l3-1.3
		c0.3-0.2,0.2-0.4,0.3-0.4c0.1,0,0.1,0,0.1,0.2c0,0.2,0,0.3,0,0.6c0,0.2,0,0.4,0,0.5c0,0.1,0,0.1-0.1,0.1c-0.1,0-0.1-0.3-0.4-0.3
		c-0.1,0-0.2,0-0.3,0.1C56.1,71.8,56,71.9,56,72V72.9L56,72.9z M55.8,72.1c0-0.1,0-0.2,0-0.2c-0.1,0-0.1,0-0.2,0.1l-0.9,0.4
		c0,0,0,0,0,0c0,0,0,0,0.1,0.1l0.9,0.4c0.1,0,0.1,0.1,0.2,0.1c0,0,0-0.1,0-0.2V72.1L55.8,72.1z"/>
	<path d="M58.8,65.2v0.3v37.4c0,1.2,0.6,2.2,1.2,2.9c0.7,0.7,1.4,1,1.8,1h7.4c2.1,0,4.4,0.6,6.4,1.7l0.1,0.1l0.1-0.1
		c2-1.1,4.3-1.7,6.4-1.7h7.4c0.4,0,1.1-0.4,1.8-1c0.7-0.7,1.3-1.6,1.3-2.9V65.2H58.8z"/>
	<path class="st5" d="M92.3,65.7v30.1c-0.3-0.1-0.6-0.1-1-0.1c-0.3,0-0.5,0-0.8,0.1c-1.2,0.3-2.1,0.5-3.1,0.5
		c-0.6,0-1.2-0.1-1.8-0.3c-1.9-0.6-5.7-0.6-6.8-1.2c-0.6-0.3-1.5-0.4-2.6-0.4c-1.3,0-2.8,0.1-3.6,0.1c-0.7,0-2.6,0.1-4.4,0.3
		c-0.2-0.2-0.3-0.5,0.2-1.2c0.3-0.4,0.7-0.8,1.1-1.2c0.7-0.8,1.4-1.5,1.4-1.9c0-0.4,0.1-0.8,0.2-1l0.1-0.1c0.2,0,0.6,0.1,1.2,0.2
		c0.3,0,0.9,0,1.4,0c0.1,0,0.1,0,0.1,0l0,0c0.5,0,0.9-0.1,1.1-0.1c-0.1,0.3-0.2,0.8-0.2,1.1c0,0.3,0.3,0.3,0.6,0.4
		c0.2,0.1,0.4,0.1,0.5,0.2c0.3,0.3,0.8,0.3,1.3,0.2c0.1,0,0.1,0,0.2,0c0.2,0,0.3-0.1,0.3-0.2c0-0.3-0.1-0.6-0.5-0.8
		c-0.3-0.1-0.6-0.5-0.7-0.6l0.1-0.4c0.3-0.1,1.1-0.3,1.1-0.3l0.3-0.1c0.2,0,0.4-0.1,0.4-0.1c0.4,0,0.6-0.2,0.6-0.3l1.2-0.5
		c0,0,0.7-0.3,1.2-0.1c0.6,0.2,1.8-0.1,2.2-0.3c0.5-0.2,2.2-0.4,2.6,0c0.5,0.7,1,1.9,0.9,2.1c0,0,0,0,0,0c-0.2,0.3-0.3,1.2-0.3,1.3
		l-0.5,0.8l-0.1,0.1l0,0.1c0.1,0.2,0.4,0.8,0.4,1.1c0,0.2,0.2,0.4,0.4,0.4c0.2,0,0.5-0.1,0.6-0.4c0.1-0.2,0.2-0.5,0.3-0.9
		c0.1-0.5,0.3-1.3,0.5-1.5c0.3-0.3,0.1-0.8-0.1-1.4c0-0.1-0.1-0.2-0.1-0.3c-0.1-0.3-0.2-0.9-0.3-1.4c0.1,0.2,0.3,0.4,0.4,0.5
		c0.3,0.3,0.6,1.1,0.6,1.3c0,0.2-0.2,1-0.3,1.3l0,0.1l0,0.1l0.8,1.2l0.1,0.2l0.1-0.2c0,0,0.4-0.5,0.5-0.9c0-0.1,0.1-0.2,0.2-0.3
		c0.2-0.4,0.7-1.1,0.2-1.9C89.9,88,89,86,88.9,85.6c-0.1-0.5-1-1.1-2-1.1c-0.6,0-1.2-0.2-1.5-0.5c-0.1-0.1-0.1-0.2-0.1-0.3
		c0-0.3,0-0.6-0.1-0.8c2.2,0.9,4,1.6,4.3,1.7c0.5,0.2,0.9,0,1-0.2c0.1-0.2-0.1-0.6-0.7-0.9c-0.4-0.2-2.5-1-5-2l0.1-0.1
		c0,0-0.4-0.6-0.3-1.1c0.1-0.2,0.1-0.4,0.2-0.5l2,0.3c0.4,0.3,0.5,1,1.5,0.8c0.3-0.1,0.7-0.5,0.9-0.9c0.1-0.3,0.1-0.6,0-0.8
		c-0.2-0.5-0.3-1.5-0.4-1.7c0.1-0.1,0.3-0.7,0.1-1.2c-0.1-0.3-0.3-0.7-0.5-1.1l0.7,0.5l0.2-0.2c0,0-0.6-1.1-0.6-1.5
		c-0.1-0.4-0.7-0.6-0.9-0.7l0.2-1l0-0.2l-0.2,0.1c0,0-0.9,0.3-1.3,0.6c-0.2,0.2-0.5,0.4-0.9,0.4c-0.2,0-0.4,0.1-0.6,0.2
		c-0.1,0-0.1,0-0.2,0.1l0,0c0,0,0,0-0.1,0.1c-0.1,0-0.3,0.1-0.4,0.1c-0.5,0.1-1.2,0.3-1.6,0.6c-0.1,0-1.5,0.4-2.5,1.1
		c-0.9,0.7-1.4,2-1.6,2.4l-0.4-0.1L76.4,77c0-0.4-0.1-1.7-0.4-2.2c-0.2-0.4-0.6-0.8-0.8-1.1c0.1,0,0.3,0,0.4-0.1
		c0.1-0.1,0.2-0.2,0.2-0.3c0-0.2,0.1-0.3,0.1-0.3l0.2,0.1v-0.2v-1l0.3-0.2l0,0l0-0.1l0.2-1.3l0-0.2l-0.2,0l-0.8,0.1
		c0-0.1-0.1-0.2-0.2-0.4c-0.1-0.1-0.3-0.2-0.5-0.2c-0.1,0-0.3,0-0.5,0c-0.1-0.2-0.6-1.1-1.6-1.1c-0.3,0-0.5,0-0.8,0
		c-0.7,0-1.2-0.1-1.3,0.5c0,0.2-0.3,0.4-0.5,0.7c-0.4,0.3-0.8,0.6-0.5,1.1c0.1,0.2,0.1,0.5,0.1,0.7c0,0.2,0,0.4,0.1,0.5
		c0.1,0.1,0.2,0.1,0.4,0.1c0.5,0,0.7-0.3,0.9-0.5c0.2-0.2,0.3-0.3,0.4-0.3c0.4,0,0.6-0.4,0.8-0.7c0.2-0.2,0.3-0.5,0.5-0.5
		c0.1,0,0.2,0,0.2,0c-0.1,0.1-0.2,0.3-0.2,0.5c-0.1,0.7-0.2,1.6-0.4,1.8c-0.2,0.2-0.6,0.3-0.7,0.4c-0.1,0-0.8,0-1.2,0.5
		c-0.3,0.3-0.4,0.6-0.3,1.1c0,0.4,0,0.6,0,0.7c0,0,0,0,0,0l-0.5,0.6c-0.8-0.3-5.5-2.5-6-2.7c-0.4-0.1-0.6,0-0.6,0.1
		c-0.1,0.2,0,0.5,0.3,0.7c0.5,0.4,5.1,2.4,5.8,2.7c-0.3,0.5-0.6,1.2-0.4,1.6c0.1,0.3,0.4,0.4,0.9,0.4c0.6,0,1,0,1.4,0
		c0.8,0,1,0,1,0.1c0.2,0.3,0.1,1.7-0.1,2.1c-0.1,0.3-0.2,0.8-0.3,1.1c-0.2-0.2-0.5-0.5-0.8-0.6c-0.1,0-0.3,0-0.4,0.1
		c-0.4,0.3-0.2,1-0.1,1.3c-0.8,0-3.5,0.1-4.5,0.7c-0.9,0.6-1.5,1.7-1.7,2c-0.5,0-3.4,0.1-3.6,2.5c-0.2,3.1,0.2,4.3,0.4,4.6
		c0.3,0.5,0.3,0.7,0.3,0.7l0.3,0.1l0.2-0.4c0.1,0.5,0.2,1.2,0.4,1.7c0.1,0.4,0.4,0.8,0.6,1.2c-1,0.2-2.7,0.3-3.7,0.4V65.7H92.3z"/>
	<path class="st5" d="M64.3,94.7c0-0.1,0-0.2-0.1-0.3c0,0,0,0,0.1,0c0.1,0.1,0.2,0.1,0.3,0c0.1,0,0.2-0.1,0.3-0.2
		c0.2-0.4,0.1-1.4-0.2-1.8c-0.3-0.5-0.6-2.1-0.7-3l0-0.4c-0.1-0.7-0.2-2,0-2.2c0,0,0,0,0,0h0.7c0.1,0.3,0.2,1.1,0.5,1.6l0.3,0.7
		c-0.2,0.2-0.3,0.6,0,0.9c0.2,0.2,0.5,0.2,0.7,0.2c0.2,0.8,0.4,1.9,0.3,2.1c-0.1,0.3-0.8,1.4-1.3,2.1l0,0.1l0,0.1
		c0,0,0.2,0.4,0.5,0.8c-0.5,0.1-1,0.1-1.4,0.2C64.3,95.2,64.3,95,64.3,94.7z"/>
	<path class="st4" d="M63.6,96.4l0.1,0.2l0.1-0.2c0,0,0.1-0.2,0.2-0.4c0.4-0.1,1.1-0.2,2-0.3c0,0,0.1,0.1,0.1,0.1
		c0.4,0.4,0.8,1,0.8,1l0.1,0.1l0.1,0c0.1,0,0.4-0.1,0.5,0c0,0,0,0,0,0.1c0,0.4,0.3,1.1,0.4,1.2l0,0.1l0.1,0l1.2,0.1l0.1,0l0-0.1
		l0.1-0.4c0.4,0.2,1,0.4,1.1,0.6c0.2,0.3,0.5,0.6,0.5,0.6l0,0l0.1,0l1.6-0.1l0.2,0l-0.1-0.2c0,0-0.3-1-0.9-1.3
		c-0.8-0.4-2.7-1.5-3.3-1.9c1.8-0.2,3.4-0.3,4-0.3c0.8,0,2.3-0.1,3.6-0.1c1,0,1.9,0.1,2.3,0.3c1.3,0.6,5.1,0.6,6.9,1.2
		c0.7,0.2,1.3,0.3,1.9,0.3c0,0,0,0,0,0c1.1,0,2.1-0.3,3.2-0.5c0.2-0.1,0.5-0.1,0.7-0.1c0.3,0,0.7,0.1,1,0.1v2.5c0,0,0,0-0.1,0
		c-0.6,0-1.3-0.1-1.9-0.2c-0.2-0.1-0.4-0.1-0.6-0.1c-1.5,0-3.2,1.1-5.1,1.1c-2.2,0-7,0-8,0c-0.8,0-4.3,0.4-7,0.4
		c-1,0-1.9-0.1-2.4-0.2c-0.9-0.3-2.6-0.3-4.3-0.3c-1.3,0-2.6,0-3.5,0.1v-2.9c1.1-0.1,3-0.2,4-0.5C63.5,96.3,63.6,96.4,63.6,96.4z"/>
	<path class="st6" d="M92.3,102.8c0,1.1-0.5,1.9-1.1,2.5c-0.6,0.6-1.3,0.9-1.4,0.9h-7.4c-2.2,0-4.5,0.6-6.6,1.7
		c-2.1-1.1-4.4-1.7-6.6-1.7h-7.4c-0.2,0-0.9-0.3-1.4-0.9c-0.6-0.6-1.1-1.4-1.1-2.5v-2.7c0.8,0,2.2-0.1,3.5-0.1
		c1.7,0,3.4,0.1,4.2,0.3c0.6,0.2,1.5,0.2,2.5,0.2c2.7,0,6.3-0.4,7-0.4c1,0,5.8,0,8,0c2,0,3.8-1.1,5.1-1.1c0.2,0,0.3,0,0.5,0.1
		c0.7,0.2,1.5,0.3,2.1,0.3c0,0,0.1,0,0.1,0V102.8z"/>
	<path class="st6" d="M89,79.3c-0.1-0.2-0.2-0.5-0.2-0.7c0,0.3-0.2,0.4-0.3,0.3c-0.3-0.1-0.3-0.8-0.4-1.3c-0.1-0.4,0-1.1-0.6-1.4
		c-0.6-0.3,0-0.8,0.3-0.8c0,0,0,0,0.4,0.1c0.2,0,0.3,0.1,0.3,0.1c-0.1-0.1-0.1-0.3-0.2-0.4h-0.6v-0.1c-0.1,0.1-0.3,0.2-0.6,0.3
		c-0.1,0-0.2,0.1-0.2,0.1c-0.2,0.1-0.5,0.2-0.8,0.4c0,0,0,0.1,0,0.1c0,0.2-0.1,0.3-0.2,0.4c-0.1,0.1-0.1,0.1-0.2,0.1
		c0,0.2,0.2,0.7,0.4,1c0.3,0.4,0.4,0.8,0.5,1.1l0.1,0l0.5,1.2c0.5,0.4,1,0.7,1.2,0.7c0.2,0,0.5-0.3,0.7-0.6
		C88.8,80.1,88.9,79.2,89,79.3L89,79.3z"/>
	<path class="st1" d="M87.6,75.5c-0.3,0-0.9,0.5-0.3,0.8c0.6,0.3,0.5,1,0.6,1.4c0.1,0.4,0.1,1.2,0.4,1.3c0.2,0,0.3-0.1,0.3-0.3
		c0-0.2-0.1-0.5-0.1-0.7c0,0,0-0.1,0-0.1c-0.3-0.9-0.8-1.4-0.4-1.7c0.2-0.1,0.2-0.2,0.2-0.3c0,0,0-0.1,0-0.1
		c-0.1-0.1-0.2-0.1-0.3-0.1C87.6,75.5,87.6,75.5,87.6,75.5L87.6,75.5z"/>
	<path class="st6" d="M88.2,76.1c-0.4,0.3,0.1,0.8,0.4,1.7c0-0.1-0.2-1-0.2-1.2c0-0.3,0.1-0.4,0.2-0.4c0,0,0,0,0,0
		c-0.1-0.1-0.1-0.3-0.2-0.4C88.4,75.9,88.4,76,88.2,76.1L88.2,76.1z"/>
	<path class="st6" d="M88.6,77.8L88.6,77.8c0,0.1,0,0.1,0,0.2C88.6,77.9,88.6,77.8,88.6,77.8L88.6,77.8z"/>
	<path class="st6" d="M84.9,74.2c-0.4,0.2-0.7-0.1-0.7-0.1s-0.6,0.3-1.1,0.6c-0.1,0.1-0.3,0.2-0.5,0.4c0.1,0,0.1,0.1,0.3,0.1
		c0.1,0.1,0.2,0.2,0.2,0.3c0-0.4,0.3-0.7,0.3-0.7l0.4-0.4L83.7,75c0,0.1,0,0.3,0.1,0.5c0-0.3,0.1-0.7,0.2-1c0-0.1,0-0.1,0.1-0.2
		c0,0.1,0.1,0.1,0.2,0.2c0,0.2,0.2,0.5,0.3,0.6c0,0,0.1,0,0.2-0.1c0.3-0.3,0.6-0.6,0.8-0.8l0.2-0.7C85.5,73.8,85.1,74.1,84.9,74.2
		L84.9,74.2z"/>
	<path class="st1" d="M84.2,74.1c0,0,0.3,0.3,0.7,0.1c0.3-0.1,0.6-0.4,0.8-0.6l0.1-0.3c0,0-0.1,0-0.1,0c-0.2,0.1-0.4,0.1-0.6,0.2
		c-0.1,0-0.7,0.2-0.7,0.2c-0.7,0.1-1.4,0.5-1.7,0.6c0,0,0,0,0,0c-0.4,0.2-1,0.3-1.2,0.5c-0.3,0.2-0.6,0.3-0.9,0.6
		c-0.8,0.6-1.3,1.7-1.5,2.2c0.2,0,0.4-0.1,0.6-0.2c0.4-0.2,1.1-0.5,1.3-1c0.2-0.5,0.7-1.3,0.8-0.8c0.1,0.3,0.6-0.1,1-0.4
		c0,0,0,0,0,0c0,0,0,0,0,0c0.2-0.1,0.3-0.3,0.5-0.4C83.6,74.4,84.2,74.1,84.2,74.1L84.2,74.1z"/>
	<path class="st6" d="M81.6,75.6c-0.1-0.4-0.6,0.4-0.8,0.8c-0.2,0.5-0.8,0.8-1.3,1c-0.2,0.1-0.4,0.1-0.6,0.2c0,0,0,0,0,0.1l1,0.2
		c0,0,0,0,0,0c0.1,0,0.8,0.2,1,0.2c0.1-0.1,0.2-0.2,0.3-0.2c0.1,0,0.2,0,0.2,0.2c0,0.1,0.1,0.1,0.1,0.1c0,0,0.1-0.1,0-0.3
		c-0.2-0.6,0.2-1.3,0.2-1.4l0.1-0.3l0.1,0.3l0.1,0.2l0.2-0.9l0.1-0.3l0.2,0.3l0.1,0.2c0-0.2-0.1-0.5-0.1-0.7c0,0,0-0.1,0-0.2
		C82.2,75.5,81.8,75.9,81.6,75.6L81.6,75.6z"/>
	<path class="st7" d="M89.5,89.6c0.1-0.4-0.1-1.2-0.6-1.5c-0.3-0.2-0.5-0.3-0.7-0.4c0.1,0.2,0.3,0.4,0.4,0.5
		c0.4,0.3,0.7,1.2,0.7,1.5c0,0,0,0.1,0,0.2C89.4,89.8,89.4,89.7,89.5,89.6L89.5,89.6z"/>
	<path class="st7" d="M87.9,91c-0.3,0.2-0.3,0.7-0.3,1.2c0.2-0.8,0.3-1.3,0.5-1.5c0,0,0,0,0,0C88.1,90.9,88,91,87.9,91L87.9,91z"/>
	<path class="st7" d="M84.2,87.2c-0.7,0.1-2.7-0.1-3.2-0.1c-0.4,0-1.1,0.3-2.2,0.7l0.1,0.5c0.3-0.1,1.1-0.4,1.1-0.4
		c0,0,0.8-0.3,1.4-0.1c0.5,0.2,1.5-0.1,2-0.3c0.4-0.2,2.4-0.5,2.9,0.1c0,0,0.3,0.5,0.6,1c-0.2-0.6-0.5-1.2-0.6-1.4
		C86,86.9,84.9,87.1,84.2,87.2L84.2,87.2z"/>
	<path class="st6" d="M76.8,88.3c0.2,0,0.3,0,0.5-0.1l-0.2-0.6C77,87.8,76.9,88.1,76.8,88.3L76.8,88.3z"/>
	<path class="st6" d="M75.8,86.3c-0.1,0-0.3,0.1-0.6,0.1c-0.6,0.1-3.1,0.8-3.2,0.8l-0.2,0.1v-0.2c0,0,0-0.2,0-0.4
		c-0.3,0.1-1.3,0.3-2.6,1c-1.2,0.7-2.3,1.6-2.7,2c0.1,0.2,0.2,0.4,0.2,0.5c0,0.2,0.1,0.7,0.2,1.1c0.2,0.6,0.4,1.2,0.4,1.5
		c-0.1,0.5-0.5,0.9-0.8,1.2c-0.1,0.1-0.2,0.2-0.3,0.3c-0.1,0.2,0,0.6,0.3,0.8c0.2,0.1,0.6,0.3,0.9,0.6c0.4,0.2,0.8,0.4,1,0.6
		c0.4,0.3,1.7,1.3,1.7,1.3l0,0c0.3,0.1,0.7,0.3,0.8,0.5c0.1,0.2,0.3,0.4,0.4,0.5l0.9-0.1c-0.1-0.3-0.2-0.6-0.6-0.7
		c-0.3-0.2-0.5-0.5-0.6-0.7c-1-0.6-2.6-1.4-2.7-1.7c0-0.1-0.1-0.1-0.1-0.2c-1-0.6-0.7-1.1-0.3-1.6c0.2-0.2,0.6-0.4,1-0.6
		c0.2-0.2,0.4-0.4,0.6-0.6c0.6-0.7,1.3-1.4,1.3-1.7c0-0.6,0.2-1.2,0.3-1.3v-1.1l0.2,0c0-0.2,0-0.4-0.1-0.5c-0.1-0.3,1,0.1,1.3,0.3
		c0.2,0.1,1.6,0.3,3,0.4c0,0,0,0,0-0.1C75.4,87.8,75.6,86.8,75.8,86.3L75.8,86.3z"/>
	<path class="st7" d="M71,87.7c0,0.1,0.1,0.3,0.1,0.5l0.1,0c0,0.3,0.2,0.7,0.3,0.7c0.1,0,0.2-0.1,0.3-0.2c0.1-0.2,0.3-0.4,0.6-0.4
		c0.1,0,0.2,0,0.3,0.1c0.1,0.1,0.1,0.3,0,0.4c0,0.2,0,0.2,0,0.2l1,0.2c0.6,0,1.1-0.1,1.3-0.1c0.1-0.1,0.2-0.5,0.2-0.8
		c-1.4-0.1-2.8-0.3-3-0.4C72,87.8,70.9,87.4,71,87.7L71,87.7z"/>
	<path class="st7" d="M67.8,93.6c-0.4,0.5-0.7,1,0.3,1.6c-0.3-0.4-0.5-0.7,0.2-1.5c0.1-0.2,0.3-0.4,0.5-0.6
		C68.4,93.2,68,93.4,67.8,93.6L67.8,93.6z"/>
	<path class="st7" d="M71.6,97.8c0.4,0.2,0.5,0.5,0.6,0.7l0.4,0c-0.1-0.3-0.3-0.8-0.7-1c0,0-0.4-0.2-0.9-0.5
		C71.1,97.4,71.2,97.7,71.6,97.8L71.6,97.8z"/>
	<path class="st7" d="M76.6,89.1c0.2-0.1,0.6-0.2,0.9-0.2l-0.2-0.6c-0.1,0-0.3,0-0.5,0.1C76.8,88.6,76.7,88.9,76.6,89.1L76.6,89.1z"
		/>
	<path class="st6" d="M79.6,81.8c0,0.5-0.4,0.8-0.6,0.9c0-0.2-0.1-0.4-0.3-0.6c-0.2-0.3-0.3-1-0.3-1.3v-0.1c0,0,0,0,0,0l0-0.3
		c0.3,0.1,0.6,0.2,1,0.4C79.5,80.9,79.6,81.3,79.6,81.8L79.6,81.8z"/>
	<path class="st5" d="M78.2,78.4L78,78.8c-0.8-0.3-1.4-0.6-1.7-0.7c0-0.1,0.1-0.2,0.1-0.3C76.8,78,77.5,78.2,78.2,78.4L78.2,78.4z"
		/>
	<path class="st6" d="M79.5,79.4l0.7-0.4c0,0,0.3,0,0.4,0l-0.1,0.8C80.1,79.7,79.8,79.5,79.5,79.4L79.5,79.4z"/>
	<path class="st6" d="M79.2,79.3c-0.3-0.1-0.6-0.3-0.9-0.4l0.2-0.4c0.5,0.1,0.9,0.3,1.2,0.3c0,0,0.1,0,0.2,0L79.2,79.3L79.2,79.3z"
		/>
	<path class="st6" d="M85.8,74.3l0.1-0.4c0.1,0,0.4-0.1,0.6-0.1c0.1,0,0.2,0,0.3-0.1l0,0c0.2,0,0.6-0.1,0.7,0.1l-0.1,0
		c0.1,0.4,0.2,1,0.2,1.1c-0.1,0.1-0.3,0.2-0.5,0.3c-0.1,0-0.2,0.1-0.3,0.1c-0.2,0.1-0.5,0.2-0.8,0.4c0,0,0,0,0-0.1
		c-0.1-0.1-0.2-0.1-0.3-0.1c0-0.1,0-0.3,0-0.3l0.2-0.7C85.8,74.4,85.8,74.4,85.8,74.3L85.8,74.3L85.8,74.3z"/>
	<path class="st6" d="M88,74.8c0,0,0,0.1,0.1,0.2h-0.3c0-0.1,0-0.3,0-0.5C87.8,74.7,87.9,74.8,88,74.8L88,74.8z"/>
	<path class="st7" d="M87.5,73.4L87.5,73.4c-0.1,0.1-0.1,0-0.2,0c0.1-0.1,0.2-0.1,0.2-0.2L87.5,73.4L87.5,73.4z"/>
	<path class="st6" d="M85.3,75.8c0,0.2,0,0.4,0,0.6c0,0-0.1,0-0.1-0.1c-0.1-0.1-0.1-0.1-0.1-0.2C85.1,76,85.1,75.9,85.3,75.8
		C85.2,75.8,85.2,75.8,85.3,75.8L85.3,75.8z"/>
	<path class="st6" d="M85.6,76.3c0-0.1,0-0.1,0-0.2c0,0,0.1,0,0.2-0.1C85.7,76.2,85.7,76.3,85.6,76.3L85.6,76.3z"/>
	<path class="st6" d="M85.6,75.8C85.6,75.8,85.6,75.8,85.6,75.8C85.6,75.8,85.6,75.8,85.6,75.8C85.6,75.8,85.6,75.8,85.6,75.8
		L85.6,75.8z"/>
	<path class="st7" d="M88.7,77c0-0.2-0.1-0.4-0.1-0.4c0-0.1,0-0.1,0-0.1c0,0,0,0,0,0C88.8,76.6,88.8,76.8,88.7,77L88.7,77z"/>
	<path class="st1" d="M88.4,74.1c0.1,0.2,0.3,0.7,0.4,1l-0.6-0.5c-0.1-0.1-0.4-0.6-0.5-0.9c0-0.1-0.1-0.2-0.1-0.2l0,0
		C87.9,73.7,88.4,73.9,88.4,74.1L88.4,74.1z"/>
	<path class="st1" d="M86.7,73c0.2-0.2,0.7-0.4,1-0.5l0,0.2l0,0c-0.2,0.2-0.4,0.4-0.5,0.5c0,0,0,0-0.1,0c-0.1,0.1-0.3,0.2-0.5,0.2
		c-0.1,0-0.4,0-0.5,0.1l0.1-0.3C86.3,73.2,86.5,73.1,86.7,73L86.7,73z"/>
	<path class="st8" d="M78.1,77.8L78.1,77.8l2.1,0.4c0.2,0,3.3,0.8,4.2,0.8h1.9l0.1,0.8l-1.6-0.3l-0.2,0v0c-0.9-0.1-3.8-0.7-4.8-0.9
		c-0.8-0.2-2.8-0.8-3.3-1c0-0.1,0-0.2,0-0.3L78.1,77.8L78.1,77.8L78.1,77.8z"/>
	<path class="st8" d="M70.7,85.8c-0.5,0.2-2,0.8-3.3,1.7c-1.1,0.7-1.6,1.4-1.7,1.6c0,0,0,0,0,0l-0.1,0.1c0,0-0.3,0.4-0.1,0.6
		c0.2,0.2,0.4,0.1,0.5,0.1c0.1-0.1,1.4-1.4,3-2.3c1.4-0.8,2.4-1,2.7-1c0-0.3,0-0.7,0-1C71.5,85.5,71.1,85.6,70.7,85.8L70.7,85.8z"/>
	<path class="st9" d="M72.4,89.3c-0.5-0.1-1-0.1-1.2-0.2V89c0.1,0.1,0.2,0.2,0.3,0.2c0.2,0,0.4-0.2,0.5-0.3c0.1-0.1,0.2-0.3,0.4-0.3
		c0,0,0.1,0,0.1,0c0,0,0,0.1,0,0.2c0,0.2-0.1,0.5,0.2,0.6c0,0,0,0,0.1,0C72.7,89.4,72.5,89.4,72.4,89.3L72.4,89.3z"/>
	<polygon class="st6" points="69.6,77.2 69.6,77.2 69.6,77.2 	"/>
	<path d="M88.2,79.6c-0.1,0.4,0.2,0.5,0.2,0.4c0,0,0.3-0.1,0.3-0.5l-0.2-0.1C88.5,79.4,88.3,79.5,88.2,79.6L88.2,79.6z"/>
	<path d="M86.6,76.7c0,0.2,0.2,0.2,0.3,0.2c0.1,0,0.2,0,0.2-0.1c0-0.1,0-0.2,0-0.2c0.1,0,0.3-0.3,0.3-0.3c-0.2,0-0.6,0-0.8,0.2
		C86.7,76.6,86.6,76.6,86.6,76.7L86.6,76.7z"/>
	<polygon class="st6" points="84.9,81.4 84.9,81.4 84.9,81.4 	"/>
	<path d="M86.7,85.7c-0.2-0.1-0.5-0.1-0.8-0.1l0,0c-0.2,0-0.5,0-0.9,0l0,0c-1,0-1.7-0.5-1.7-0.5l0,0l0,0c0,0,0.7,0.5,1.7,0.5l0,0
		c0.4,0,0.7,0,0.9,0l0,0C86.2,85.5,86.5,85.5,86.7,85.7L86.7,85.7c0.4,0.2,0.6,0.4,0.6,0.4l0,0l0,0l0,0l0,0
		C87.2,86.1,87.1,85.9,86.7,85.7L86.7,85.7z"/>
	<path class="st1" d="M89.6,83.8c-0.7-0.3-11.9-4.8-13.5-5.4l0.2,0.4l13.4,5.5l0.5,0.1C90.2,84.2,90.1,84,89.6,83.8L89.6,83.8z"/>
	<path class="st7" d="M76.3,78.7l-0.2-0.4c-0.1,0-0.2-0.1-0.2-0.1c-0.1,0.2-0.4,0.4-0.8,0.4c-0.5-0.1-0.4-0.8-0.3-1.2
		c-0.1,0.1-0.2,0.2-0.3,0.2c-0.3,0.8-0.2,1.4,0.1,1.6c0.5,0.2,0.7-0.2,1.1-0.3l0.1,0c0,0,13.2,5.3,13.7,5.5c0.4,0.1,0.6,0,0.7-0.1
		l-0.5-0.1L76.3,78.7L76.3,78.7z"/>
	<path class="st6" d="M75.2,78.6c0.4,0,0.7-0.2,0.8-0.4h0l0.1-0.1c0.1-0.1,0.2-0.5,0.2-0.8c0-0.1-0.1-0.2-0.3-0.2
		c-0.4-0.2-0.8,0.1-1.1,0.3C74.8,77.8,74.7,78.6,75.2,78.6L75.2,78.6z"/>
	<path class="st7" d="M76,78.3c0.1-0.1,0.1-0.1,0.1-0.1L76,78.3L76,78.3L76,78.3z"/>
	<path class="st7" d="M76.1,78.4L76,78.1c0,0,0,0.1-0.1,0.1C76,78.3,76,78.3,76.1,78.4L76.1,78.4z"/>
	<path class="st6" d="M64,73.4c-0.1,0-0.2,0-0.3,0c0.1,0.1,0.2,0.3,0.4,0.4c0.5,0.2,4.4,2,5.6,2.6c0.1-0.1,0.1-0.2,0.2-0.3
		C69.1,75.6,64.5,73.5,64,73.4L64,73.4z"/>
	<path class="st7" d="M63.8,73.3C63.7,73.3,63.7,73.4,63.8,73.3c-0.1,0,0,0.2,0.2,0.4c0.4,0.3,4.2,2,5.7,2.7c0,0,0-0.1,0.1-0.1
		c-1.2-0.6-5.1-2.3-5.6-2.6C64,73.6,63.8,73.5,63.8,73.3L63.8,73.3z"/>
	<path class="st6" d="M75.8,74.9c-0.1-0.2-0.3-0.4-0.4-0.6l0,0.1c0,0-0.4,0.2-0.6,0.6c0,0.1-0.1,0.2-0.2,0.2c-0.3,0.1-0.7-0.1-1-0.2
		c0,0,0,0,0,0c0,0.2-0.4,0.5-0.7,0.7c0.1,0,0.2,0.1,0.2,0.3c0.1,0.5-0.1,1-0.1,1c0.2,0,0.4,0,0.5-0.1c0.2-0.1,0.5-0.2,0.7,0.1
		l0.2,0.2c0.3-0.2,0.9-0.7,1.5-0.5c0,0,0.1,0,0.1,0.1C76.1,76.4,76,75.3,75.8,74.9L75.8,74.9z"/>
	<path class="st6" d="M71.6,75.3c-0.6-0.1-0.9,0.3-0.9,0.3c-0.2,0.2-0.4,0.5-0.4,0.5c-0.1,0.2-0.3,0.4-0.5,0.8
		c0.3-0.1,0.6-0.2,1-0.1c0.1,0,0.2,0,0.3,0.1c0.3-0.1,0.6-0.2,0.7-0.3c0.2-0.2,0.4-0.5,0.5-0.6C72.1,75.6,71.8,75.3,71.6,75.3
		L71.6,75.3z"/>
	<path class="st7" d="M71,76.7c0.1,0,0.2,0.1,0.2,0.1c0.3-0.1,0.9-0.2,1-0.5c0.1-0.1,0.1-0.2,0.1-0.3c0-0.1-0.1-0.1-0.1-0.1
		s0-0.1-0.1-0.2c-0.1,0.1-0.3,0.4-0.5,0.6C71.6,76.6,71.3,76.7,71,76.7L71,76.7z"/>
	<path class="st6" d="M74.1,77.3c-0.1-0.1-0.2-0.1-0.4-0.1c-0.2,0-0.3,0.1-0.6,0.1c0,0-0.1,0.4,0.1,0.8c0.2,0.2,0.7,0.2,1,0.2
		c0-0.2,0.1-0.5,0.2-0.7L74.1,77.3L74.1,77.3z"/>
	<path class="st7" d="M73.1,78.1c-0.2-0.3-0.1-0.8-0.1-0.8L72.6,78c0,0-1.7,0-2.5,0c-0.5,0-0.6-0.5-0.5-0.8l0,0h0
		c-0.1,0.3-0.2,0.7-0.1,0.9c0.1,0.2,0.3,0.3,0.6,0.3c0.6,0,1,0,1.4,0c0.6,0,1,0,1.2,0.1c0.1-0.1,0.2-0.2,0.3-0.2
		c0.1,0,0.3,0,0.4,0.2c0.2,0.2,0.6,0.1,0.8,0c0,0,0-0.1,0-0.1C73.9,78.3,73.3,78.3,73.1,78.1L73.1,78.1z"/>
	<path class="st6" d="M70.1,78c0.8,0,2.5,0,2.5,0l0.5-0.7h-1.6c0,0-0.1,0-0.1,0l0-0.1c0,0-0.2-0.2-0.7-0.3c-0.5-0.1-1.1,0.2-1.1,0.3
		C69.5,77.5,69.6,78,70.1,78L70.1,78z"/>
	<path class="st6" d="M71.7,75c0.4,0.1,0.7,0.5,0.8,0.7c0.4-0.3,0.8-0.5,0.8-0.6c0-0.1-0.3-0.4-0.7-0.6l0.1-0.2l0.8,0.5
		c0.3,0.2,0.7,0.4,0.9,0.3c0,0,0.1,0,0.1-0.1c0.2-0.4,0.5-0.6,0.7-0.7c-0.2-0.2-0.4-0.4-0.4-0.5c-0.2,0-1.1-0.2-1.1-0.2
		c-0.5-0.1-0.7-0.4-0.9-0.6c-0.3,0.2-0.6,0.3-0.7,0.3l0,0h0c0,0-0.6,0-1,0.4c-0.2,0.2-0.3,0.5-0.3,0.9c0,0.3,0,0.5,0,0.6
		C71.1,75,71.4,74.9,71.7,75L71.7,75z M72.4,73.3c0,0,0.5,0,0.6,0.3c0.1,0.3-0.3,0.6-1,1c-0.7,0.4-1,0-1-0.5
		C71.1,73.6,71.9,73.3,72.4,73.3L72.4,73.3z"/>
	<path class="st1" d="M72.1,74.6c0.7-0.4,1.1-0.7,1-1c-0.1-0.3-0.6-0.3-0.6-0.3c-0.6,0-1.3,0.3-1.3,0.8C71.1,74.6,71.4,75,72.1,74.6
		L72.1,74.6z"/>
	<path class="st7" d="M73.7,73.2l0.9,0.1c-0.1-0.2-0.2-0.6-0.2-0.9c-0.3-0.2-0.6-0.4-0.8-0.6c-0.1-0.2-0.2-0.5-0.2-0.8
		c-0.1,0.8-0.2,1.5-0.4,1.7C73.1,72.8,73.4,73.1,73.7,73.2L73.7,73.2z"/>
	<path class="st6" d="M71.7,84.8c-0.1-0.6-0.6-1.5-0.8-1.8c-0.5,0-3.5,0.1-4.4,0.6c-0.6,0.4-1.1,1-1.3,1.5c0,0.2,0,0.4,0,0.5
		c0,0.3,0.2,1.6,0.4,2c0,0.1,0.2,0.4,0.4,0.8c0.3-0.3,0.7-0.8,1.4-1.2c1.3-0.9,2.7-1.5,3.3-1.7c0.5-0.2,1-0.3,1.2-0.4
		C71.7,85,71.7,84.9,71.7,84.8L71.7,84.8z M68.7,85.3c-0.7,0.2-1.8,0.3-2.5,0.1c-0.7-0.1-0.4-1.1,0.4-1.6c0.7-0.5,1.8-0.4,2.4-0.4
		c0,0,0.3,0.6,0.7,1.1C70.1,85,69.4,85.1,68.7,85.3L68.7,85.3z"/>
	<path class="st1" d="M69,83.4c-0.6,0.1-1.7-0.1-2.4,0.4c-0.7,0.5-1.1,1.5-0.4,1.6c0.7,0.1,1.8,0.1,2.5-0.1c0.7-0.2,1.4-0.4,1-0.8
		C69.3,84,69,83.4,69,83.4L69,83.4z"/>
	<path class="st7" d="M65.1,85.7c0-0.1,0-0.3,0-0.5c-0.2,0.3-0.3,0.5-0.3,0.5l0,0.1l-0.1,0c0,0-0.5,0-1,0.1c0.2,0.1,0.4,0.2,0.3,0.3
		c-0.1,0.3-0.8,0.3-0.7,1.7c0.1,1.4,0.3,3.6,0.6,4.2c0.7,1.1,0.5,1.8,0.4,2c0.1,0.1,0.1,0.2,0.2,0.1c0,0,0.1-0.1,0.1-0.1
		c0.1-0.3,0.1-1.2-0.2-1.6c-0.3-0.6-0.7-2.2-0.8-3.1l0-0.4c-0.1-1.2-0.2-2.1,0.1-2.4c0.1-0.1,0.1-0.1,0.2-0.1h0.8h0.1l0,0.1
		c0,0,0.2,1.1,0.5,1.6l0.3,0.5c0.1-0.1,0.1-0.2,0.3-0.3c-0.2-0.3-0.3-0.6-0.4-0.8C65.3,87.3,65.1,86,65.1,85.7L65.1,85.7z"/>
	<path class="st6" d="M63.9,92.1c-0.4-0.6-0.5-2.8-0.6-4.2c-0.1-1.4,0.6-1.4,0.7-1.7c0.1-0.1-0.1-0.2-0.3-0.3
		c-1,0.1-2.3,0.6-2.4,2.2c-0.2,2.4,0.1,3.6,0.2,4.1c0.1,0,0.2,0,0.3-0.2c0.2-0.5,0.1-2.2,0.1-2.2l0.2,1.3v1.2l0.2-0.4l0.1,0.5
		c0,0,0.2,1.3,0.5,2.1c0.1,0.2,0.2,0.5,0.3,0.7c0.3-0.1,0.5-0.4,0.5-0.9c0.1-0.6-0.4-2.3-0.4-2.3l0.5,1.3l0.2,0
		c0.1,0.3,0.2,0.6,0.3,0.8C64.4,93.8,64.6,93.2,63.9,92.1L63.9,92.1z"/>
	<path class="st7" d="M63.6,94.3c-0.1,0.5-0.2,0.8-0.5,0.9c0.2,0.3,0.4,0.7,0.5,0.8c0.2-0.3,0.4-0.9,0.3-1.3
		c-0.1-0.6-0.3-1.4-0.3-1.4l0.1,0l-0.5-1.3C63.3,92.1,63.7,93.8,63.6,94.3L63.6,94.3z"/>
	<path class="st7" d="M61.9,89.8c0,0,0.1,1.7-0.1,2.2c-0.1,0.2-0.2,0.2-0.3,0.2c0,0.1,0.1,0.2,0.1,0.3c0.1,0.2,0.1,0.3,0.2,0.4
		l0.2-0.5l0-0.1v-1.2L61.9,89.8L61.9,89.8z"/>
	<path class="st7" d="M66.5,89.7c-0.1,0.1-0.2,0.1-0.2,0.2c0,0.1,0,0.2,0.1,0.3c0,0,0.3,0.5,0.5,1.2c-0.1-0.5-0.2-0.9-0.2-1.1
		C66.6,90.2,66.6,90,66.5,89.7L66.5,89.7z"/>
	<path class="st6" d="M90.3,89.3c-0.3-0.5-0.7-1.3-1-2c-0.3-0.4-0.7-1-1-1.2c-0.5-0.2-1-0.8-1.3-1.1c-0.3-0.3-1.3-0.2-1.8-0.4
		c-0.4-0.2-1.1-0.1-1.8,0.1c-0.3,0.1-0.6,0.1-0.8,0c-0.4,0.3-1.1,0.5-1.7,0.2c-0.7-0.4-1.3-1.6-0.9-2.1c0.4-0.6,0.8-0.6,1.3-0.4
		c0,0,0.9,1,1.6,0.8c0.2,0,0.3,0,0.3,0.1c0.1-0.1,0.2-0.2,0.2-0.4c0-0.1,0-0.3,0-0.5c-1.3-0.5-2.7-1.1-3.9-1.6
		c0.1,0.2,0.1,0.6,0.1,1c0,0.7-0.7,1.1-0.9,1.2l-0.4,0.8c0.2,0.3,0.3,0.7,0.3,1.1c0,0.3-0.3,0.6-0.5,1l0.5,2
		c1.1-0.4,1.8-0.7,2.2-0.7c0.5,0,2.5,0.2,3.2,0.1c0.7-0.1,1.8-0.4,2.1,0.1c0.2,0.2,0.4,0.9,0.6,1.4c0.3,0.5,0.5,1.1,0.4,1.4
		C87.1,90.3,87,91,87,91.4l0,0l0,0l-0.5,0.8c0.1,0.2,0.4,0.8,0.4,1.1c0,0.1,0.1,0.2,0.1,0.2c0.1,0,0.3,0,0.3-0.2
		c0.1-0.2,0.1-0.5,0.2-0.9c0-0.1,0-0.1,0-0.2c-0.1-0.5-0.1-1,0.3-1.2c0.1-0.1,0.2-0.2,0.3-0.3c0.2-0.2,0-0.6-0.1-1.1
		c0-0.1-0.1-0.2-0.1-0.3c-0.2-0.7-0.4-2-0.4-2.1c0,0,0.1-1.2-0.9-1.3c-0.4,0-1,0-1.6,0c-0.3,0-0.5,0-0.7,0c-0.7,0-1.3-0.9-1.3-0.9
		l0.2-0.2c0,0,0.5,0.8,1.1,0.8c0.2,0,0.5,0,0.7,0c0.6,0,1.2,0,1.6,0c1.2,0.1,1.1,1.5,1.1,1.5c0,0,0.1,0.2,0.3,0.5
		c0.2,0.1,0.5,0.2,0.7,0.4c0.5,0.4,0.7,1.1,0.6,1.5c0,0.1-0.1,0.2-0.2,0.3C89.2,90.2,89,90.8,89,91l0.6,1c0.1-0.2,0.3-0.4,0.3-0.6
		c0-0.1,0.1-0.2,0.2-0.4C90.4,90.5,90.7,90,90.3,89.3L90.3,89.3z"/>
	<path class="st1" d="M88.6,85.7c-0.1-0.4-0.8-0.9-1.7-0.9c-0.7,0-1.4-0.2-1.7-0.5c-0.1-0.1-0.2-0.3-0.2-0.5c0-0.4-0.1-0.7-0.1-0.7
		v-0.2c-0.4-0.2-0.8-0.3-1.2-0.5c0,0.2,0,0.3,0,0.5c0,0.2-0.1,0.3-0.2,0.4c0-0.1-0.1-0.2-0.3-0.1c-0.7,0.1-1.6-0.8-1.6-0.8
		c-0.6-0.2-1-0.1-1.3,0.4c-0.4,0.6,0.2,1.8,0.9,2.1c0.5,0.3,1.2,0.1,1.7-0.2c0.2,0.1,0.5,0.1,0.8,0c0.6-0.2,1.3-0.3,1.8-0.1
		c0.4,0.2,1.5,0.1,1.8,0.4c0.3,0.3,0.8,0.8,1.3,1.1c0.4,0.2,0.7,0.8,1,1.2C88.9,86.6,88.7,85.9,88.6,85.7L88.6,85.7z"/>
	<path class="st1" d="M84.3,80.6c-0.1,0.1-0.2,0.2-0.2,0.3C84.1,81,84,81.1,84,81.2c0.2,0.1,0.4,0.2,0.6,0.3
		C84.5,81.3,84.3,81,84.3,80.6L84.3,80.6z"/>
	<path class="st6" d="M84.3,80.6c0-0.1,0-0.3,0-0.4c0.1-0.3,0.1-0.4,0.2-0.5c-0.7-0.1-2.4-0.4-3.6-0.7l-0.2,0.8
		c1,0.4,2.2,0.9,3.2,1.3c0-0.1,0.1-0.2,0.1-0.3C84.2,80.8,84.2,80.7,84.3,80.6L84.3,80.6z"/>
	<path class="st10" d="M75.5,71.6c-0.2,0.1-0.6,0.2-0.7,0.5c-0.1,0.2,0,0.6,0.1,0.9c0-0.1,0.1-0.3,0.1-0.3c0-0.2,0.1-0.5,0.3-0.7
		c0.1-0.1,0.4,0,0.6,0.1v-0.1L75.5,71.6L75.5,71.6z"/>
	<path class="st11" d="M75.2,72c-0.2,0.2-0.3,0.5-0.3,0.7c0,0.1,0,0.2-0.1,0.3c0,0.1,0.1,0.3,0.1,0.4c0.1,0,0.4,0,0.5,0
		c0.1,0,0.1-0.1,0.1-0.1c0.1-0.3,0.1-0.4,0.3-0.5c0,0,0,0,0,0v-0.7C75.6,72,75.3,71.9,75.2,72L75.2,72z"/>
	<path class="st6" d="M75.5,70.3C75.5,70.3,75.5,70.3,75.5,70.3c-0.2,0-0.4,0-0.6,0c-0.2,0-0.3-0.2-0.3-0.3c-0.4,0.1-0.9,0.3-1,0.8
		c0,0,0,0.1,0,0.1c0,0.3,0.1,0.6,0.2,0.8c0.1,0.2,0.5,0.5,0.8,0.6c0-0.2,0-0.3,0.1-0.4c0.2-0.3,0.6-0.5,0.8-0.6L75.5,70.3L75.5,70.3
		z"/>
	<path class="st1" d="M74.8,70.3c0.2,0,0.5,0,0.6,0c0-0.1,0-0.4-0.4-0.4c-0.1,0-0.3,0-0.6,0.1C74.5,70.1,74.6,70.3,74.8,70.3
		L74.8,70.3z"/>
	<polygon class="st6" points="76,71.7 76.2,71.5 76.3,70.6 75.7,70.7 75.6,71.4 76,71.7 	"/>
	<polygon class="st1" points="76.4,70.4 75.7,70.5 75.7,70.7 76.3,70.6 76.4,70.4 	"/>
	<path class="st3" d="M73,68.9c-0.3,0-0.6,0-0.8,0c-0.7-0.1-1,0-1,0.3c0,0.3-0.3,0.6-0.6,0.8c-0.2,0.2-0.3,0.3-0.4,0.4
		c0,0.2,0,0.6,0.4,0.4c0.5-0.2,0.8-0.8,0.8-0.5c0,0.3-0.2,0.7,0.1,0.5c0.3-0.1,0.3-0.8,0.9-0.9c0.6-0.1,0.3-0.6,0.9-0.5
		c0.4,0.1,0.5,0.3,0.6,0.4c0.1-0.1,0.3-0.1,0.5-0.2C74.2,69.5,73.8,68.9,73,68.9L73,68.9z"/>
	<path class="st8" d="M73.2,69.5c-0.5-0.2-0.3,0.4-0.9,0.5c-0.6,0.1-0.6,0.8-0.9,0.9c-0.3,0.1-0.1-0.2-0.1-0.5
		c0-0.3-0.4,0.3-0.8,0.5c-0.4,0.2-0.4-0.2-0.4-0.4c-0.1,0.1-0.1,0.2,0,0.3c0.2,0.3,0.2,0.6,0.2,0.9c0,0.2,0,0.3,0,0.3
		c0,0,0.1,0.1,0.2,0.1c0.3,0,0.5-0.2,0.7-0.4c0.2-0.2,0.3-0.4,0.7-0.4c0.2,0,0.4-0.3,0.6-0.5c0.2-0.3,0.4-0.6,0.7-0.6
		c0.3,0,0.5,0,0.5,0c0.1-0.1,0.2-0.1,0.2-0.1C73.8,69.8,73.6,69.6,73.2,69.5L73.2,69.5z"/>
	<path class="st6" d="M77.9,83.4c-0.1-0.1-0.2-0.2-0.2-0.3c-0.2-0.4-0.9-1-1-1.2c-0.1,0-0.4-0.1-1-0.1c-0.4,0-0.6,0.4-0.8,0.7
		c0.3,0.5,0.7,1.1,1,1.3c0.5,0.3,1.6,0.8,1.6,0.8s-0.4,0-0.6,0.2c0.2,0.1,0.5,0.1,0.6,0.2c0.3,0.1,0.5,0.4,0.6,0.5
		c0.2-0.3,0.3-0.5,0.4-0.7C78.6,84.4,78.2,83.9,77.9,83.4L77.9,83.4z M78.1,84c-0.1,0.2-1-0.5-1.4-0.9c-0.5-0.4-0.4-0.8,0-0.8
		c0,0,0.4,0.1,0.6,0.5C77.6,83,78.2,83.7,78.1,84L78.1,84z"/>
	<path class="st1" d="M76.7,82.2c-0.4,0-0.5,0.4,0,0.8c0.5,0.4,1.3,1.1,1.4,0.9c0.1-0.2-0.5-1-0.8-1.3C77,82.4,76.7,82.2,76.7,82.2
		L76.7,82.2z"/>
	<path class="st7" d="M76,83.8c-0.3-0.2-0.7-0.8-1-1.3c-0.1,0.1-0.1,0.2-0.1,0.3c0.1,0.2,0.5,0.9,0.9,1.2c0.4,0.3,0.7,0.6,0.8,0.7
		c0.1,0,0.2,0,0.4,0.1c0.3-0.1,0.6-0.2,0.6-0.2S76.5,84.1,76,83.8L76,83.8z"/>
	<path class="st6" d="M75.8,81.6c0.5,0,0.8,0,0.9,0.1l0.1-0.4c-0.3-0.2-0.6-0.4-0.8-0.6c-0.3-0.2-0.6-0.7-0.8-1.2
		c-0.2,0.1-0.4,0.1-0.7,0c-0.1-0.1-0.2-0.2-0.3-0.3c-0.1,0.1-0.3,0.3-0.5,0.4c-0.2,0.2-0.2,1.1-0.2,1.7l0.1,0c0,0.3-0.1,1.3,0.2,1.6
		c0,0,0.1,0.1,0.1,0.1c0.4,0,0.6-0.1,0.6-0.1c0-0.1,0.1-0.3,0.2-0.5c-0.1-0.1-0.1-0.1,0,0C75,81.9,75.3,81.6,75.8,81.6L75.8,81.6z"
		/>
	<path class="st6" d="M73.3,80.5c-0.2-0.1-0.5,0.2-0.6,0.4c0,0,0,0.1,0,0.1c-0.1,0.4-0.3,1.1-0.3,1.3c0.3,0.3,0.7,0.5,0.9,0.4
		c0,0,0,0,0.1-0.1c0.1-0.6,0.2-1.4,0.2-1.4l0.1,0C73.5,80.9,73.4,80.5,73.3,80.5L73.3,80.5z"/>
	<path class="st7" d="M76.1,86.1L76.1,86.1L76.1,86.1c-0.1,0.4-0.5,1.7-0.5,2.1c0,0.5-0.2,1-0.3,1.1c0,0.1-0.1,0.4-0.2,0.6
		c0.2-0.1,0.5-0.2,0.5-0.4c0.1-0.3,0.1-1.1,0.1-2.1c0-1.1,0.7-2,0.8-2.4c0,0,0,0,0,0c0,0-0.1,0-0.1,0C76.5,85.2,76.2,85.7,76.1,86.1
		L76.1,86.1z"/>
	<path class="st6" d="M75.9,87.4c0,1.1,0,1.8-0.1,2.1c-0.1,0.2-0.3,0.3-0.5,0.4c-0.1,0.2-0.1,0.5-0.1,0.6c0,0,0.2,0.1,0.3,0.1
		c0.1,0,0.2,0,0.2,0c0.2,0.1,0.5,0.4,1.2,0.4c0.2,0,0.4,0,0.5,0c0,0,0,0,0,0c0-0.1-0.1-0.2-0.2-0.3c0,0,0,0,0,0.1
		c0,0.1-0.5,0-0.9-0.1c-0.4-0.2,0.3-0.2,0.2-0.3c0,0,0,0,0,0c0,0,0,0,0,0c0,0,0.1,0,0.1,0c-0.2-0.2-0.4-0.4-0.4-0.5l0,0l0-0.1
		l0.1-0.6l0-0.1h0c0.1-0.3,0.3-1.4,0.7-2c0.2-0.3,0.5-0.7,0.8-1.1c0.1-0.1,0.2-0.2,0.3-0.3l0,0c0,0-0.2-0.3-0.5-0.5
		c-0.2-0.1-0.6-0.2-0.8-0.2c0,0,0,0,0,0C76.6,85.4,75.9,86.4,75.9,87.4L75.9,87.4z"/>
	<path class="st6" d="M76.5,90.3C76.5,90.3,76.5,90.3,76.5,90.3C76.5,90.3,76.5,90.3,76.5,90.3L76.5,90.3z"/>
	<path class="st6" d="M76.3,90.6c0.4,0.2,0.8,0.3,0.9,0.1c0,0,0,0,0-0.1c0,0-0.1-0.1-0.2-0.1c-0.2-0.1-0.3-0.2-0.4-0.3
		c0,0-0.1,0-0.1,0C76.7,90.4,75.9,90.5,76.3,90.6L76.3,90.6z"/>
	<path class="st9" d="M75.6,90.7c-0.1,0-0.1,0-0.2,0c0,0,0,0,0.1,0c0.2,0.1,0.5,0.1,0.6,0.3c0.2,0.2,0.8,0.2,1.1,0.2
		c0.1,0,0.1,0,0.2,0c0,0,0,0,0,0c0,0,0,0,0-0.1c-0.1,0-0.3,0-0.5,0C76.2,91.1,75.9,90.8,75.6,90.7L75.6,90.7z"/>
	<path class="st12" d="M77.6,88.2l0.2,0.6c0.2-0.1,0.4-0.1,0.5-0.1c0.2,0,0.3-0.1,0.4-0.2l-0.2-0.6L77.6,88.2L77.6,88.2z"/>
	<path class="st13" d="M78.1,86.1c0,0.1-0.1,0.1-0.1,0.2c-0.3,0.3-0.5,0.7-0.7,1l0.3,0.9l1-0.3L78.1,86.1L78.1,86.1z"/>
	<path class="st13" d="M75.5,85.1c-0.1-0.3-0.8-0.9-1-1.3c-0.2-0.4-0.9-0.3-1.5-0.5c-0.4-0.1-0.6-0.4-0.8-0.6c0,0.1-0.2-0.2-0.2-0.2
		c-0.2-0.3-0.5-0.7-0.8-0.8c0,0,0.2,0.2,0.4,0.4c0.1,0.3,0.8,1.6,0.8,1.6s-0.7-0.7-1-1.1c-0.4-0.4-0.4-0.8-0.1-1c-0.1,0-0.1,0-0.2,0
		c-0.3,0.2-0.1,0.9,0,1.1c0.1,0.1,0.8,1.2,0.9,1.9c0.1,0.6,0.1,1.7,0.1,2.2c0.6-0.2,2.5-0.7,3-0.8c0.3,0,0.5-0.1,0.6-0.1l0.1-0.2
		C75.8,85.8,75.6,85.4,75.5,85.1L75.5,85.1z"/>
	<path class="st14" d="M71.3,82.7c0.4,0.4,1,1.1,1,1.1s-0.6-1.4-0.8-1.6c-0.1-0.3-0.4-0.4-0.4-0.4C70.9,81.9,70.9,82.3,71.3,82.7
		L71.3,82.7z"/>
	<path class="st6" d="M86.2,78.7c-0.1-0.2-0.2-0.6-0.4-0.9c-0.3-0.4-0.4-1-0.5-1.2c-0.1,0-0.3-0.1-0.4-0.2c-0.1-0.1-0.2-0.3-0.2-0.4
		c0-0.3,0.2-0.5,0.5-0.6c0-0.2,0-0.3,0-0.4l0.1-0.2c-0.1,0.1-0.3,0.3-0.5,0.4c-0.2,0.2-0.3,0.1-0.4,0.1c-0.1,0-0.2-0.2-0.3-0.3
		c-0.1,0.5-0.1,0.9-0.1,1l0,0.5l-0.2-0.4c0-0.1-0.2-0.4-0.3-0.7c0,0.1-0.1,0.2-0.1,0.3c0,0.2-0.1,0.2-0.1,0.3c0,0-0.1,0-0.3-0.2
		c0,0.4,0.1,0.8,0.1,0.8l-0.3,0.1l-0.3-0.4l-0.2,1l-0.1,0.4L82,77.2l-0.1-0.3c-0.1,0.2-0.2,0.6-0.1,0.9c0.1,0.3,0,0.4,0,0.5
		c1,0.2,2.1,0.5,2.6,0.5c0,0-0.1-0.9,0-1.2c0.1-0.4,0.7-0.7,0.7-0.7l0,0.6l0.1,0c0,0.2,0,0.7,0.2,0.8c0.4,0.2,0.5,0.4,0.5,0.4l0,0
		H86.2L86.2,78.7z"/>
	<path class="st7" d="M84.3,77.5c-0.1,0.4,0,1.2,0,1.2h1.2c-0.1-0.1-0.2-0.1-0.3-0.2c-0.5-0.2-0.4-1-0.4-1.1l0.1,0l0-0.6
		C85,76.9,84.4,77.2,84.3,77.5L84.3,77.5z"/>
	<path d="M62,106.5C62,106.5,61.9,106.5,62,106.5l-0.4,0C61.9,106.5,62,106.5,62,106.5L62,106.5z"/>
	<path d="M64.3,105.1c-0.1,0.1-0.1,0.2-0.1,0.2c0,0-0.1-0.1-0.2-0.3l-1.2-2.8c-0.1-0.2-0.1-0.2-0.3-0.3c0,0-0.1,0-0.1-0.1
		c0-0.1,0.2-0.1,0.2-0.1c0.2,0,0.3,0,0.5,0c0.3,0,0.4,0,0.5,0c0.2,0,0.2,0,0.2,0.1c0,0.1-0.3,0.1-0.3,0.3c0,0.1,0.1,0.4,0.2,0.7
		l0.6,1.6c0,0,0,0.1,0.1,0.1c0,0,0-0.1,0.1-0.1l0.7-1.5c0.1-0.3,0.2-0.5,0.2-0.6c0-0.5-0.5-0.3-0.5-0.4c0-0.1,0.1-0.1,0.2-0.1
		c0.1,0,0.3,0,0.4,0c0.1,0,0.3,0,0.4,0c0.1,0,0.2,0,0.2,0.1c0,0.1-0.2,0.1-0.3,0.4L64.3,105.1L64.3,105.1z"/>
	<path d="M67.1,104.7c0,0.1-0.3,0.4-0.4,0.4s-0.4-0.3-0.4-0.4c0-0.1,0.3-0.4,0.4-0.4S67.1,104.6,67.1,104.7L67.1,104.7z"/>
	<path d="M69.9,105.1c-0.1,0.1-0.1,0.2-0.1,0.2c0,0-0.1-0.1-0.2-0.3l-1.2-2.8c-0.1-0.2-0.1-0.2-0.3-0.3c0,0-0.1,0-0.1-0.1
		c0-0.1,0.1-0.1,0.2-0.1c0.2,0,0.3,0,0.5,0c0.3,0,0.4,0,0.5,0c0.2,0,0.2,0,0.2,0.1c0,0.1-0.3,0.1-0.3,0.3c0,0.1,0.1,0.4,0.2,0.7
		l0.6,1.6c0,0,0,0.1,0.1,0.1c0,0,0-0.1,0.1-0.1l0.7-1.5c0.1-0.3,0.2-0.5,0.2-0.6c0-0.5-0.5-0.3-0.5-0.4c0-0.1,0.1-0.1,0.2-0.1
		c0.1,0,0.3,0,0.4,0c0.1,0,0.3,0,0.4,0c0.1,0,0.2,0,0.2,0.1c0,0.1-0.2,0.1-0.3,0.4L69.9,105.1L69.9,105.1z"/>
	<path d="M72.8,104.7c0,0.1-0.3,0.4-0.4,0.4c-0.1,0-0.4-0.3-0.4-0.4c0-0.1,0.3-0.4,0.4-0.4C72.4,104.3,72.8,104.6,72.8,104.7
		L72.8,104.7z"/>
	<path d="M76.2,101.7c0.9,0,1.7,0.6,1.7,1.6c0,0.7-0.3,1.9-1.8,1.9c-1,0-1.6-0.6-1.6-1.6C74.4,102.5,75,101.7,76.2,101.7L76.2,101.7
		z M76.1,105c0.8,0,1.1-0.7,1.1-1.5c0-1.1-0.6-1.6-1.2-1.6c-0.8,0-1.1,0.7-1.1,1.4C75,104,75.3,105,76.1,105L76.1,105z"/>
	<path d="M79,104.2c0-0.1-0.1-0.2,0.1-0.2c0.1,0,0.1,0,0.1,0.1c0.2,0.5,0.5,0.9,1,0.9c0.4,0,0.7-0.2,0.7-0.6c0-0.4-0.3-0.5-1.1-0.8
		c-0.4-0.2-0.7-0.4-0.7-0.9c0-0.6,0.4-1,1-1c0.4,0,0.6,0.2,0.7,0.2c0.1,0,0.2-0.1,0.2-0.1c0.1,0,0.1,0.1,0.1,0.2l0.1,0.6
		c0,0.1,0,0.2-0.1,0.2c-0.1,0-0.2-0.9-1-0.9c-0.3,0-0.5,0.2-0.5,0.5c0,0.3,0.3,0.4,0.9,0.7c0.5,0.2,0.8,0.4,0.8,1
		c0,0.6-0.4,1.1-1.1,1.1c-0.3,0-0.5-0.1-0.8-0.2c-0.1,0-0.1-0.1-0.1-0.2L79,104.2L79,104.2z"/>
	<path d="M85.4,102.8c0,0,0,0.2-0.1,0.2c-0.1,0-0.1-0.1-0.1-0.2c-0.2-0.5-0.7-0.9-1.2-0.9c-0.7,0-1.1,0.7-1.1,1.3
		c0,0.7,0.4,1.6,1.3,1.6c0.7,0,1.1-0.6,1.2-0.6c0,0,0.1,0,0.1,0.1c0,0.2-0.5,0.9-1.5,0.9c-1.4,0-1.6-1.2-1.6-1.6
		c0-0.8,0.5-1.9,1.7-1.9c0.6,0,1,0.3,1.1,0.3c0.1,0,0.1-0.2,0.2-0.2c0,0,0.1,0,0.1,0L85.4,102.8L85.4,102.8z"/>
	<path d="M87.6,104c-0.1,0-0.2,0-0.3,0.3c0,0.1-0.1,0.3-0.1,0.4c0,0.3,0.5,0.3,0.5,0.4c0,0.1-0.1,0.1-0.3,0.1c-0.2,0-0.3,0-0.5,0
		c-0.1,0-0.3,0-0.4,0c-0.1,0-0.1,0-0.1-0.1c0-0.1,0.2-0.1,0.4-0.4l1.3-2.9c0-0.1,0.1-0.2,0.1-0.2c0,0,0.1,0,0.1,0.2l1.3,3
		c0.2,0.3,0.4,0.2,0.4,0.3c0,0.1,0,0.1-0.2,0.1c-0.2,0-0.3,0-0.6,0c-0.2,0-0.4,0-0.5,0c-0.1,0-0.2,0-0.2-0.1c0-0.1,0.3-0.1,0.3-0.4
		c0-0.1,0-0.2-0.1-0.3c-0.2-0.4-0.2-0.4-0.3-0.4H87.6L87.6,104z M88.4,103.7c0.1,0,0.2,0,0.2,0c0-0.1,0-0.1-0.1-0.2l-0.4-0.9
		c0,0,0,0,0,0c0,0,0,0-0.1,0.1l-0.4,0.9c0,0.1-0.1,0.1-0.1,0.2c0,0,0.1,0,0.2,0H88.4L88.4,103.7z"/>
	<path class="st15" d="M100.9,43.4c-1.9,0.6-0.5,2.4-1.1,2.5c-0.6,0.1,0.1-2.7-2.3-2.4c-2.4,0.3-1.8,2-1.6,3c0.2,1,0.2,1.8-0.1,2.2
		c1.2-0.1,0.5-1.6,1.7-1.7c1.2-0.1,1.9,1.2,0.8,2.5c-1.1,1.2-3.8,1.9-6,0.4c-2.2-1.5-2.9-3.3-2.6-4.6c-0.5,0.1-0.7,0-1.2-0.3
		c-0.7,2.2-3.3,3.1-5.9,3c-2.6-0.2-4.3-1.1-4.4-2.2c-0.2-1.1,0.4-2.3,1.2-2.1c0.8,0.2,0.8,1.5,1.6,1.7c-0.3-0.9-0.1-1.9,0.2-3.2
		c0.3-1.3,0-2.6-1.4-2.6c-1.6-0.1-2,1.4-2.2,1.2c-0.3-0.4,1.6-1.6,0.6-3.2c-0.8-1.4-2.4-0.9-2.4-1.7c0,0.7-1.7,0.3-2.4,1.7
		c-0.9,1.7,0.9,2.8,0.6,3.2c-0.2,0.2-0.6-1.2-2.2-1.2c-1.4,0.1-1.7,1.3-1.4,2.6c0.3,1.3,0.5,2.2,0.2,3.2c0.8-0.2,0.8-1.6,1.6-1.7
		c0.8-0.2,1.4,1,1.2,2.1c-0.2,1.1-1.8,2.1-4.4,2.2c-2.6,0.2-5.2-0.7-5.9-3c-0.4,0.3-0.7,0.4-1.2,0.3c0.3,1.4-0.4,3.1-2.6,4.6
		c-2.2,1.5-4.9,0.9-6-0.4c-1.1-1.2-0.3-2.6,0.8-2.5c1.2,0.1,0.5,1.6,1.7,1.7c-0.3-0.4-0.3-1.2-0.1-2.2c0.2-1,0.8-2.7-1.6-3
		c-2.4-0.3-1.7,2.5-2.3,2.4c-0.6-0.1,0.8-1.9-1.1-2.5c-1.6-0.5-2.2,0.5-3.1,0.3c0.5,0.7,0.9,0.6,1.2,0.7c0.3,0.2,1,1.2,1.3,2.2
		c0.6-0.4,1.3-0.2,2,0.2c0.2-0.2,0.6-1.1,0.8-1c0.2,0.1-0.3,0.7-0.6,1.4c0.2,0.6,0.4,1.5-0.3,2.7c0.3,0.7,1.9,1.8,2.7,2.2
		c7.9-2.8,14.5-4.2,21.1-4.2c6.6,0,13.2,1.4,21.1,4.2c0.8-0.4,2.4-1.4,2.7-2.2c-0.7-1.2-0.5-2.2-0.3-2.7c-0.3-0.6-0.8-1.3-0.6-1.4
		c0.2-0.1,0.6,0.8,0.8,1c0.7-0.4,1.3-0.6,2-0.2c0.2-1,0.9-2.1,1.3-2.2c0.3-0.2,0.8-0.1,1.2-0.7C103.1,43.9,102.5,42.9,100.9,43.4z"
		/>
	<path d="M86.3,48.4c1.1,0.1,2.7,0.5,3.8,0.8c-0.8-1.1-1-1.5-1.2-2.8C88,47.5,87.8,47.8,86.3,48.4L86.3,48.4z"/>
	<path class="st1" d="M87.1,48.3c0.7,0.1,1.7,0.3,2.4,0.5c-0.5-0.7-0.6-1-0.8-1.8C88.2,47.7,88,47.9,87.1,48.3L87.1,48.3z"/>
	<path class="st15" d="M90.5,43c0.1,0.1,0.1,0.2,0.1,0.3c0,0,0,0,0,0c0,0,0,0.1,0,0.1c0.2,0.7-0.2,1.3-0.7,1.6
		c0.6,1.2,1.5,0.5,1.8-0.3C92.1,43.9,92.1,42.5,90.5,43z"/>
	<path class="st15" d="M90.5,43c1-0.7,0.5-1.7-0.3-2c-0.8-0.3-2-0.2-1.5,1.5c0.2-0.1,0.4-0.2,0.7-0.2C89.8,42.3,90.2,42.6,90.5,43z"
		/>
	<path class="st15" d="M88,43.5c0-0.3,0.2-0.6,0.4-0.8c0.1-0.1,0.1-0.1,0.2-0.2c-0.6-1.1-1.5-0.5-1.7,0.3c-0.3,0.8-0.3,2.2,1.3,1.7
		c-0.1-0.2-0.2-0.5-0.2-0.8C87.9,43.7,88,43.6,88,43.5z"/>
	<path class="st15" d="M89.3,42.6c-0.6,0-1,0.5-1,1.1c0,0.6,0.5,1.1,1,1.1c0.6,0,1-0.5,1-1.1C90.3,43.1,89.9,42.6,89.3,42.6z
		 M89.3,44.6c-0.4,0-0.8-0.4-0.8-0.8c0-0.5,0.3-0.8,0.8-0.8c0.4,0,0.8,0.4,0.8,0.8C90.1,44.3,89.7,44.6,89.3,44.6z"/>
	<path class="st16" d="M88.6,43.8c0-0.4,0.3-0.7,0.7-0.7c0.4,0,0.7,0.3,0.7,0.7c0,0.4-0.3,0.7-0.7,0.7
		C88.9,44.5,88.6,44.2,88.6,43.8L88.6,43.8z"/>
	<path class="st16" d="M101.2,48.5c0.2-0.6,0.1-1.1-0.2-1.2c-0.3-0.1-0.7,0.2-0.9,0.8c-0.2,0.6-0.1,1.1,0.2,1.2
		C100.6,49.4,101,49,101.2,48.5L101.2,48.5z"/>
	<path class="st15" d="M99.9,49.7c-0.3-0.3-0.6-1.5-0.3-2.2c0.4-0.8,1.1-0.9,1.8-0.5l0,0c0,0,0.1,0.3-0.2,0.3
		c-0.5-0.3-1,0.1-1.3,0.7c-0.2,0.5-0.2,1.3,0.2,1.5C100.1,49.3,100.1,49.7,99.9,49.7L99.9,49.7z"/>
	<path d="M79.8,40.4c0,0.1,0.3,0.1,0.5,0.3c0.2,0.2,0.1,0.5,0.2,0.5c0.1,0,0.1-0.4-0.1-0.6C80.3,40.3,79.8,40.2,79.8,40.4L79.8,40.4
		z"/>
	<path d="M98.4,44.5c0.1-0.2-0.8-0.6-1.2,0c-0.4,0.6-0.4,1.1-0.3,1.1c0.1,0,0.1-0.4,0.4-1C97.6,44.1,98.3,44.7,98.4,44.5L98.4,44.5z
		"/>
	<path class="st15" d="M95.1,56.2c0,0,0,0,0.1-0.3c-0.4-0.6-1.2-1.5-1.4-1.8c0.5,0,1.7-0.3,2.2-0.5c0-0.1,0.1-0.2,0.1-0.2
		c-0.1-0.1-0.2-0.1-0.7-0.3l-2.8,0.6l1.5,2.1C94.6,56,94.7,56.1,95.1,56.2z"/>
	<path class="st2" d="M95.8,54.1c-0.4,0-0.8,0.2-1.4,0.3c0.1,0.3,0.6,0.7,0.9,1c0.5,0.2,0.8,0,1-0.4C96.4,54.7,96.3,54.3,95.8,54.1z
		"/>
	<path class="st15" d="M87.8,53.7c2.3-0.5,2.4-1,0.8-2.5c-0.6-0.2-1.3-0.3-2-0.4c-2.3,0.7-2.4,1.3-0.6,2.6
		C86.6,53.5,87.2,53.7,87.8,53.7z M85.4,51.9c0.1-0.5,1.3-0.7,2-0.6c0.7,0.2,1.6,0.8,1.5,1.3c-0.1,0.5-1.2,0.7-2,0.6
		C86.2,53,85.3,52.4,85.4,51.9z"/>
	<path class="st15" d="M91.5,53.5c0,0.3,0.2,0.5,0.5,0.5c0.3,0,0.5-0.2,0.5-0.5c0-0.3-0.2-0.5-0.5-0.5C91.7,53,91.5,53.2,91.5,53.5z
		"/>
	<path class="st15" d="M92.6,54.1c-0.1,0.2-0.3,0.3-0.6,0.3c-0.4,0-0.8-0.4-0.8-0.8c0-0.5,0.3-0.8,0.8-0.8c0.4,0,0.8,0.3,0.8,0.7
		L95,53c-0.6-0.2-4-1.3-6-1.7c1.5,1.1,1.3,2.2-0.8,2.5c1.8,0.5,4.4,1.3,5.5,1.8L92.6,54.1z"/>
	<path class="st16" d="M88.4,52.5c0.1-0.4-0.5-0.9-1.1-1c-0.5-0.1-1.5,0-1.6,0.4c-0.1,0.4,0.7,0.9,1.2,1
		C87.5,53.1,88.3,52.9,88.4,52.5z"/>
	<path d="M65.4,48.4c-1.1,0.1-2.7,0.5-3.8,0.8c0.8-1.1,1-1.5,1.2-2.8C63.7,47.5,63.9,47.8,65.4,48.4L65.4,48.4z"/>
	<path class="st1" d="M64.6,48.3c-0.7,0.1-1.7,0.3-2.4,0.5c0.5-0.7,0.6-1,0.8-1.8C63.5,47.7,63.6,47.9,64.6,48.3L64.6,48.3z"/>
	<path class="st15" d="M61.2,43c-0.1,0.1-0.1,0.2-0.1,0.3c0,0,0,0,0,0c0,0,0,0.1,0,0.1c-0.2,0.7,0.2,1.3,0.7,1.6
		c-0.6,1.2-1.5,0.5-1.8-0.3C59.5,43.9,59.6,42.5,61.2,43z"/>
	<path class="st15" d="M61.2,43c-1-0.7-0.5-1.7,0.3-2c0.8-0.3,2-0.2,1.5,1.5c-0.2-0.1-0.4-0.2-0.7-0.2C61.9,42.3,61.4,42.6,61.2,43z
		"/>
	<path class="st15" d="M63.7,43.5c0-0.3-0.2-0.6-0.4-0.8c-0.1-0.1-0.1-0.1-0.2-0.2c0.6-1.1,1.5-0.5,1.7,0.3c0.3,0.8,0.3,2.2-1.3,1.7
		c0.1-0.2,0.2-0.5,0.2-0.8C63.7,43.7,63.7,43.6,63.7,43.5z"/>
	<path class="st15" d="M62.3,42.6c0.6,0,1,0.5,1,1.1c0,0.6-0.5,1.1-1,1.1c-0.6,0-1-0.5-1-1.1C61.3,43.1,61.8,42.6,62.3,42.6z
		 M62.4,44.6c0.4,0,0.8-0.4,0.8-0.8c0-0.5-0.3-0.8-0.8-0.8s-0.8,0.4-0.8,0.8C61.6,44.3,61.9,44.6,62.4,44.6z"/>
	<path class="st16" d="M63,43.8c0-0.4-0.3-0.7-0.7-0.7c-0.4,0-0.7,0.3-0.7,0.7c0,0.4,0.3,0.7,0.7,0.7C62.7,44.5,63,44.2,63,43.8
		L63,43.8z"/>
	<path class="st16" d="M50.5,48.5c-0.2-0.6-0.1-1.1,0.2-1.2c0.3-0.1,0.7,0.2,0.9,0.8c0.2,0.6,0.1,1.1-0.2,1.2
		C51.1,49.4,50.7,49,50.5,48.5L50.5,48.5z"/>
	<path class="st15" d="M51.8,49.7c0.3-0.3,0.6-1.5,0.3-2.2c-0.4-0.8-1.1-0.9-1.8-0.5l0,0c0,0-0.2,0.3,0.2,0.3c0.5-0.3,1,0.1,1.3,0.7
		c0.2,0.5,0.2,1.3-0.2,1.5C51.6,49.3,51.5,49.7,51.8,49.7L51.8,49.7z"/>
	<path d="M71.8,40.4c0,0.1-0.3,0.1-0.5,0.3c-0.2,0.2-0.1,0.5-0.2,0.5c-0.2,0-0.1-0.4,0.1-0.6C71.4,40.3,71.9,40.2,71.8,40.4
		L71.8,40.4z"/>
	<path d="M53.3,44.5c-0.1-0.2,0.8-0.6,1.2,0c0.4,0.6,0.4,1.1,0.3,1.1c-0.1,0-0.1-0.4-0.4-1C54,44.1,53.4,44.7,53.3,44.5L53.3,44.5z"
		/>
	<path class="st15" d="M56.5,56.2c0,0,0,0-0.1-0.3c0.4-0.6,1.2-1.5,1.4-1.8c-0.5,0-1.7-0.3-2.2-0.5c0-0.1-0.1-0.2-0.1-0.2
		c0.1-0.1,0.2-0.1,0.7-0.3l2.8,0.6l-1.5,2.1C57.1,56,56.9,56.1,56.5,56.2z"/>
	<path class="st2" d="M55.9,54.1c0.4,0,0.8,0.2,1.4,0.3c-0.1,0.3-0.6,0.7-0.9,1c-0.5,0.2-0.8,0-1-0.4C55.2,54.7,55.3,54.3,55.9,54.1
		z"/>
	<path class="st15" d="M63.9,53.7c-2.3-0.5-2.4-1-0.8-2.5c0.6-0.2,1.3-0.3,2-0.4c2.3,0.7,2.4,1.3,0.6,2.6
		C65,53.5,64.4,53.7,63.9,53.7z M66.3,51.9c-0.1-0.5-1.3-0.7-2-0.6c-0.7,0.2-1.6,0.8-1.5,1.3c0.1,0.5,1.2,0.7,2,0.6
		C65.5,53,66.4,52.4,66.3,51.9z"/>
	<path class="st15" d="M71.1,51.8c-0.3,0-0.5-0.2-0.5-0.5c0-0.3,0.2-0.5,0.5-0.5c0.3,0,0.5,0.2,0.5,0.5
		C71.6,51.6,71.4,51.8,71.1,51.8z"/>
	<path class="st15" d="M96.7,52.4c-4-1.3-11.7-4-20.9-4S59,51.2,55,52.4c-0.5,0.2-0.5,1,0.7,0.6c6.7-2.3,14-3.7,20.2-3.7
		c6.2,0,13.5,1.4,20.2,3.7C97.1,53.4,97.2,52.6,96.7,52.4z"/>
	<path class="st15" d="M95,56.5c-4.2-1.9-8.8-3.5-19.1-3.5s-14.9,1.6-19.1,3.5c-0.5,0.2-0.4,1,0.7,0.6c6.6-2.8,12.3-3.2,18.5-3.2
		c6.2,0,11.9,0.4,18.5,3.2C95.4,57.6,95.5,56.8,95,56.5z"/>
	<path class="st15" d="M75.8,49.7l-1.5,0l-2.4,1.5l2.5,1.4h1.4h1.4l2.5-1.4l-2.4-1.5L75.8,49.7z M75.8,52.6l-2.5-1.5l2.5-1.5
		l2.5,1.5L75.8,52.6z"/>
	<path class="st15" d="M80.5,51.8c0.3,0,0.5-0.2,0.5-0.5c0-0.3-0.2-0.5-0.5-0.5c-0.3,0-0.5,0.2-0.5,0.5C80,51.6,80.3,51.8,80.5,51.8
		z"/>
	<path class="st15" d="M86,50.7c-2.7-0.6-4.4-0.8-8.2-1l2.1,1.2c0.1-0.3,0.3-0.5,0.7-0.5c0.4,0,0.8,0.4,0.8,0.8
		c0,0.5-0.3,0.8-0.8,0.8c-0.3,0-0.6-0.2-0.7-0.5l-2.2,1.1c1.3,0,5.6,0.3,7.8,0.6C83.6,52.1,83.7,51.3,86,50.7z"/>
	<path class="st15" d="M66.2,53.3c2.2-0.4,6.5-0.6,7.8-0.6l-2.2-1.1c-0.1,0.3-0.4,0.5-0.7,0.5c-0.4,0-0.8-0.4-0.8-0.8
		c0-0.4,0.3-0.8,0.8-0.8c0.3,0,0.5,0.2,0.7,0.5l2.1-1.2c-3.8,0.3-5.5,0.4-8.2,1C68,51.3,68.1,52.1,66.2,53.3z"/>
	<polygon class="st2" points="75.8,50.1 73.8,51.2 75.8,52.3 75.8,52.3 75.8,52.3 77.8,51.2 75.8,50.1 75.8,50.1 	"/>
	<path class="st15" d="M60.2,53.5c0,0.3-0.2,0.5-0.5,0.5c-0.3,0-0.5-0.2-0.5-0.5c0-0.3,0.2-0.5,0.5-0.5C59.9,53,60.2,53.2,60.2,53.5
		z"/>
	<path class="st15" d="M59.1,54.1c0.1,0.2,0.3,0.3,0.6,0.3c0.4,0,0.8-0.4,0.8-0.8c0-0.5-0.3-0.8-0.8-0.8c-0.4,0-0.8,0.3-0.8,0.7
		L56.7,53c0.6-0.2,4-1.3,6-1.7c-1.5,1.1-1.3,2.2,0.8,2.5c-1.8,0.5-4.4,1.3-5.5,1.8L59.1,54.1z"/>
	<path class="st16" d="M63.2,52.5c-0.1-0.4,0.5-0.9,1.1-1c0.5-0.1,1.5,0,1.6,0.4c0.1,0.4-0.7,0.9-1.2,1
		C64.1,53.1,63.3,52.9,63.2,52.5z"/>
	<path d="M79.3,41.8c-0.3-0.2-0.8-0.2-1.8,0.4c0-1.2-0.7-1.9-1.6-1.9c0,0,0-1.5,0-1.7c0-0.1,0-0.1-0.1-0.2v2.2c0,0,0,0,0,0
		c0.7,0,1.3,0.8,1.3,1.8c0,1-0.6,1.8-1.3,1.8c0,0,0,0,0,0v0.3c0,0,0,0,0,0c0.9,0,1.6-0.8,1.6-1.9c0.9-0.6,1.5-0.6,1.7-0.5
		C79.4,42.1,79.6,41.9,79.3,41.8z"/>
	<path class="st15" d="M77.2,42.4c0-1-0.6-1.8-1.3-1.8c0,0,0,0,0,0V41c0.6,0,1.1,0.6,1.1,1.4c0,0.8-0.5,1.4-1.1,1.4v0.4c0,0,0,0,0,0
		C76.5,44.1,77.2,43.4,77.2,42.4z"/>
	<path d="M76.9,42.4c0-0.8-0.5-1.4-1.1-1.4v0.1c0.5,0,1,0.6,1,1.3c0,0.7-0.4,1.3-1,1.3v0.2C76.4,43.8,76.9,43.1,76.9,42.4z"/>
	<path class="st16" d="M76.8,42.4c0-0.7-0.4-1.3-1-1.3v2.5C76.4,43.6,76.8,43,76.8,42.4z"/>
	<path d="M75.7,38.6c0,0.2,0,1.7,0,1.7c-0.9,0-1.6,0.8-1.6,1.9c-1.1-0.7-1.6-0.6-1.8-0.4c-0.3,0.2,0,0.4,0.2,0.3
		c0.2-0.1,0.8-0.1,1.7,0.5c0,1.1,0.7,1.9,1.6,1.9c0,0,0,0,0,0v-0.3l0,0c-0.7,0-1.3-0.8-1.3-1.8c0-1,0.6-1.8,1.3-1.8l0,0v-2.2
		C75.8,38.4,75.7,38.5,75.7,38.6z"/>
	<path class="st15" d="M74.5,42.4c0,1,0.6,1.8,1.3,1.8l0,0v-0.4c-0.6,0-1.1-0.6-1.1-1.4c0-0.8,0.5-1.4,1.1-1.4v-0.4l0,0
		C75.1,40.6,74.5,41.3,74.5,42.4z"/>
	<path d="M74.7,42.4c0,0.8,0.5,1.4,1.1,1.4v-0.2c-0.5,0-1-0.6-1-1.3c0-0.7,0.4-1.3,1-1.3V41C75.2,41,74.7,41.6,74.7,42.4z"/>
	<path class="st16" d="M74.9,42.4c0,0.7,0.4,1.3,1,1.3v-2.5C75.3,41.1,74.9,41.7,74.9,42.4z"/>
</g>
</svg>
