<?xml version="1.0" encoding="utf-8"?>
<!-- Generator: Adobe Illustrator 24.0.1, SVG Export Plug-In . SVG Version: 6.00 Build 0)  -->
<svg version="1.1" id="Layer_1" xmlns="http://www.w3.org/2000/svg" xmlns:xlink="http://www.w3.org/1999/xlink" x="0px" y="0px"
	 viewBox="0 0 343.9 176" style="enable-background:new 0 0 343.9 176;" xml:space="preserve">
<style type="text/css">
	.st0{fill:#FFFFFF;}
</style>
<path class="st0" d="M140.3,2.1c4.8-1.5,9.8-2.4,14.8-2.1c4.3,22.9,8.5,45.8,12.8,68.7c0.4,1.6,0.7,4.2-1.7,4.2
	c-21.1,3.9-40.5,16.4-52.4,34.3c-1.5,2.1-2.5,4.6-4.5,6.4c-2.5-0.5-4.5-2.1-6.6-3.3c-16.6-9.7-33.2-19.3-49.8-29
	c-2.5-1.5-5.2-2.7-7.4-4.6c0-1.1,0.3-2.1,0.9-3C66.7,38.8,101.2,12.4,140.3,2.1z"/>
<path class="st0" d="M172.2,18.4c44.6-7.3,91.9,6.6,125.8,36.4c1.1,0.8,1.3,2.4,0.1,3.3c-14.9,17.3-29.9,34.5-44.8,51.8
	c-1.1,1.5-3.2,3.2-4.7,1.1c-14.4-12.5-33.3-19.7-52.4-19.7c-5-0.2-10,0.9-15.1,0.9c-3.6-23.4-6.9-46.8-10.4-70.2
	C170.3,20.7,170.3,18.4,172.2,18.4L172.2,18.4z"/>
<path class="st0" d="M84.4,114.7c-10,18.6-12.2,41.2-5.9,61.4H1.8c-5-32.8,0.8-67.3,16.4-96.6c0.4-0.9,1.1-1.7,1.9-2.2
	c1.4-0.2,2.5,0.9,3.8,1.4c19.8,10.8,39.8,21.3,59.6,32.1C85.4,111.3,85.4,113.3,84.4,114.7z"/>
<path class="st0" d="M343.9,176h-76.1c-1.2-4.9-2.9-9.7-5-14.3c-4.5-10.3-11.7-19.1-19.7-27c1.3-1.6,2.7-3.3,4.1-4.8
	c15.3-16,30.4-32.1,45.7-48.1c1.1-1.2,2.6-0.6,3.5,0.5C322.6,106.7,339.5,140.6,343.9,176z"/>
<path class="st0" d="M226.3,176h-117c0.1-4.5,0.6-9,1.7-13.4c5.2-21.7,23.8-39.3,45.8-43.3c11.9-2.2,24.5-0.8,35.4,4.3
	c14.3,6.5,25.7,19,30.8,33.9C225.1,163.5,226.2,169.8,226.3,176z"/>
<path class="st0" d="M223,157.6c-5.1-14.8-16.5-27.4-30.8-33.9c-11-5.1-23.6-6.5-35.4-4.3c-21.9,4-40.6,21.6-45.8,43.3
	c-1.1,4.4-1.7,8.8-1.7,13.4h117C226.2,169.8,225.1,163.5,223,157.6z"/>
</svg>
