<?xml version="1.0" encoding="utf-8"?>
<!-- Generator: Adobe Illustrator 24.0.1, SVG Export Plug-In . SVG Version: 6.00 Build 0)  -->
<svg version="1.1" id="Capa_1" xmlns="http://www.w3.org/2000/svg" xmlns:xlink="http://www.w3.org/1999/xlink" x="0px" y="0px"
	 viewBox="0 0 562.2 683.4" style="enable-background:new 0 0 562.2 683.4;" xml:space="preserve">
<style type="text/css">
	.st0{fill:#FFFFFF;}
	.st1{fill:#B4053F;}
	.st2{fill-rule:evenodd;clip-rule:evenodd;fill:#DCA43E;}
	.st3{fill:#005CA5;}
	.st4{fill:#B2B2B2;}
	.st5{fill:#FAC400;}
</style>
<g>
	<path d="M460.8,340.5v-9.2l9.2-1.8v9.2L460.8,340.5z M112.1,409.8v-56l9.6-1.9v47.6l15.1-3v8.4L112.1,409.8z M142.8,403.7v-56
		l25.7-5.1v8.4l-16.1,3.2v14.4l12.4-2.5v8.4l-12.4,2.5v16.4l17.2-3.4v8.4L142.8,403.7z M196.8,337l9.5-1.9l-11.7,58.3l-9.6,1.9
		l-11.7-53.7l9.5-1.9l7,37.5L196.8,337z M220.3,367.5l7.8-1.5l-3.8-23.3L220.3,367.5z M217.2,388.9l-9.3,1.9l10.3-58l11.9-2.4
		l10.3,53.9l-9.3,1.9l-1.7-12.1l-10.5,2.1L217.2,388.9z M246.1,383.2v-56l8.9-1.8l11.7,29.7l0.2-32.1l8.7-1.7v56l-8.4,1.7
		l-12.3-32.5l-0.2,35L246.1,383.2z M290.5,326.7l-9.3,1.9v-8.4l28.2-5.6v8.4l-9.3,1.9v47.6l-9.6,1.9V326.7z M315,369.5v-56l25.7-5.1
		v8.4l-16.1,3.2v14.4l12.4-2.5v8.4l-12.4,2.5v16.4l17.2-3.4v8.4L315,369.5z M366.7,303.2l9.6-1.9v42.3c0,4.1,1.7,5.8,5.1,5.1
		c3.4-0.7,5.1-3.1,5.1-7.1v-42.3l9.6-1.9v41.9c0,4.9-1.3,8.8-4,11.9c-2.6,3-6.2,5-10.8,5.9c-4.6,0.9-8.2,0.4-10.9-1.6
		c-2.6-2-3.9-5.5-3.9-10.3V303.2z M404.8,351.6v-9.2l9.2-1.8v9.2L404.8,351.6z M432.3,338.2l3.3-0.7c2.6-0.5,4.4-1.4,5.4-2.8
		c1-1.3,1.6-3.5,1.6-6.4v-24.5c0-2.9-0.5-4.9-1.6-5.8c-1-0.9-2.8-1.2-5.4-0.6l-3.3,0.7V338.2z M422.7,292.1l14.3-2.8
		c5-1,8.8-0.4,11.3,1.9c2.6,2.2,3.9,6.2,3.9,12v22.2c0,5.8-1.3,10.3-3.9,13.6c-2.5,3.2-6.3,5.4-11.3,6.4l-14.3,2.8V292.1z"/>
	<path d="M219,31c0-31,0.1-31,31-31c11.5,0,21.6,6.3,26.9,15.7h8.3C290.6,6.3,300.7,0,312.2,0c30.9,0,31,0,31,31
		c0,16.2-12.5,29.6-28.4,30.9c-1.8,4.9-2.8,10.3-2.8,15.8c0,25.7,20.8,46.4,46.4,46.4c25.7,0,46.4-20.8,46.4-46.4
		c0-17.5-9.7-32.7-24-40.6l10.8-22c161.3,44.9,227.5,215.5,112.7,423.3c5.9,7.8,9.4,17.5,9.4,28c0,25.7-20.8,46.4-46.4,46.4
		c-3.5,0-6.8-0.4-10.1-1.1c-33.6,46-76,93.1-127.8,140.7c-45.2,41.5-51.9,41.4-96.9,0.1c-51.9-47.6-94.3-94.8-127.9-140.8
		c-3.2,0.7-6.6,1.1-10,1.1c-25.7,0-46.4-20.8-46.4-46.4c0-10.5,3.5-20.2,9.4-28C-57.1,230.4,9.1,59.8,170.4,15l10.8,22
		c-14.3,7.9-24,23.2-24,40.7c0,25.7,20.8,46.4,46.4,46.4c25.7,0,46.4-20.8,46.4-46.4c0-5.6-1-10.9-2.8-15.8
		C231.5,60.5,219,47.2,219,31z M297.5,553.5c7.3-2.3,13.5-5.6,18.2-8.9C310.3,548.6,304.1,551.6,297.5,553.5z M315.7,544.7
		c1.7-1.2,3.3-2.6,4.9-4C319.3,541.9,317.6,543.3,315.7,544.7z"/>
	<path class="st0" d="M460.8,340.5l9.2-1.8v-9.2l-9.2,1.8V340.5z M112.1,409.8l24.7-4.9v-8.4l-15.1,3v-47.6l-9.6,1.9V409.8z
		 M142.8,403.7l26.8-5.3V390l-17.2,3.4V377l12.4-2.5v-8.4l-12.4,2.5v-14.4l16.1-3.2v-8.4l-25.7,5.1V403.7z M196.8,337l-7.1,40.3
		l-7-37.5l-9.5,1.9l11.7,53.7l9.6-1.9l11.7-58.3L196.8,337z M217.2,388.9l1.7-12.7l10.5-2.1l1.7,12.1l9.3-1.9l-10.3-53.9l-11.9,2.4
		l-10.3,58L217.2,388.9z M246.1,383.2l8.7-1.7l0.2-35l12.3,32.5l8.4-1.7v-56l-8.7,1.7l-0.2,32.1L255,325.4l-8.9,1.8V383.2z
		 M290.5,326.7v47.6l9.6-1.9v-47.6l9.3-1.9v-8.4l-28.2,5.6v8.4L290.5,326.7z M315,369.5l26.8-5.3v-8.4l-17.2,3.4v-16.4l12.4-2.5
		v-8.4l-12.4,2.5v-14.4l16.1-3.2v-8.4l-25.7,5.1V369.5z M366.7,303.2v41.9c0,4.9,1.3,8.3,3.9,10.3c2.6,2,6.3,2.6,10.9,1.6
		c4.6-0.9,8.2-2.9,10.8-5.9c2.6-3.1,4-7,4-11.9v-41.9l-9.6,1.9v42.3c0,4.1-1.7,6.5-5.1,7.1c-3.4,0.7-5.1-1-5.1-5.1v-42.3
		L366.7,303.2z M404.8,351.6l9.2-1.8v-9.2l-9.2,1.8V351.6z M422.7,292.1v56l14.3-2.8c5-1,8.8-3.1,11.3-6.4c2.6-3.3,3.9-7.8,3.9-13.6
		v-22.2c0-5.8-1.3-9.8-3.9-12c-2.5-2.2-6.3-2.9-11.3-1.9L422.7,292.1z M499.8,269c2,22.6,0.5,47.2-5.1,73.4L95.2,421.8
		c-11.1-23.3-19.3-45.9-24.8-67.5L499.8,269z M220.3,367.5l4-24.8l3.8,23.3L220.3,367.5z M432.3,338.2v-40.2l3.3-0.7
		c2.6-0.5,4.4-0.3,5.4,0.6c1,0.9,1.6,2.9,1.6,5.8v24.5c0,2.9-0.5,5.1-1.6,6.4c-1,1.3-2.8,2.3-5.4,2.8L432.3,338.2z"/>
	<path class="st1" d="M417.5,504.2c-23.3,32-51.9,64.9-86.5,98.3v-63c9.7-11.4,15.6-26.2,15.6-42.4c0-16.2-5.9-31-15.6-42.4v-72.9
		l86.5-17.2V504.2z M331,216.6c3.8,1.3,7.9,2,12.2,2c4.1,0,8-0.8,11.9-1.8c4.8,11.2,14.8,19.6,27,22.2l35.4,7v32.4L331,295.7V216.6z
		 M231.2,602.4C196.7,569,168,536,144.7,504v-85.2l86.5-17.2v53.2c-9.6,11.4-15.5,26.2-15.5,42.3c0,16.1,5.8,30.9,15.5,42.3V602.4z
		 M144.7,246.4c20.4-4.1,35.5-7.3,35.5-7.3c12.1-2.6,22.2-11.1,27-22.2c3.9,1,7.8,1.8,11.9,1.8c4.2,0,8.3-0.7,12.1-2v98.9
		l-86.5,17.2V246.4z"/>
	<path class="st2" d="M333.7,523.5c-0.6-10.4-11-17-24.4-13.3c-0.1-12-13.7-18.3-27.4-15.5c-12-13.4-7.9-29.9,14.4-26.4
		c13,2,32.6,11.9,43.5,32.1C339.4,508.7,337.2,516.5,333.7,523.5z M232.2,529.6c9.2,4.5,19.9-1.3,23.4-14.5c10.5,6,22.7-2.7,27.2-16
		c17.6-3.7,29.8,8.1,15.6,25.7c-8.2,10.2-26.4,22.1-49.2,21.7C242.5,542,236.7,536.3,232.2,529.6z M247,449.2
		c-8.8,19-7.3,38.8-2.7,50.7c2.1,5.4,4.6,9.3,7.3,12.1c-3.4,17.8-20.6,20.9-27.3,0.1c-1.3-4.8-1.9-9.8-1.9-15
		C222.4,477.4,232.1,459.9,247,449.2z M277.8,438.4c-8.8,5.6-9.4,18,0.5,27.8c-10.4,6.1-9,21,0.3,31.5c-5.6,17.1-21.9,21.8-30.1,0.7
		c-4.7-12.2-6-34.1,6-53.7C261.6,441.1,269.4,438.9,277.8,438.4z M339.7,491.7c-12-17.2-30.1-25.8-42.7-27.8
		c-5.7-0.9-10.4-0.7-14.2,0.3c-14.1-12.1-7.5-29.2,15.3-23.3c6.9,1.8,18.3,7.7,27.6,17.8C333.5,467.8,338.6,479.2,339.7,491.7z
		 M315.7,544.7c1.9-1.4,3.6-2.7,4.9-4C319,542.1,317.4,543.4,315.7,544.7z M297.5,553.5c-5.2,1.5-10.7,2.3-16.4,2.3
		c-8.7,0-16.9-1.9-24.3-5.2c20.7-2,37-13.1,45-23c3.6-4.5,5.8-8.7,6.8-12.5c17.6-6.2,29.1,8.1,12.6,24.9l-0.7,0.7
		c-1.3,1.3-3,2.6-4.9,4C310.3,548.6,304.1,551.6,297.5,553.5z M297.5,553.5c6.6-1.9,12.7-4.9,18.2-8.9
		C311.1,547.9,304.8,551.3,297.5,553.5z"/>
	<path class="st3" d="M237.9,448v-47.7l86.5-17.2v64.7c-11.5-10.1-26.6-16.2-43.2-16.2C264.6,431.6,249.4,437.8,237.9,448z
		 M138,494.6c-15.9-22.7-29.1-45-39.8-66.6l39.8-7.9V494.6z M324.4,608.9c-3.9,3.7-7.9,7.4-12,11.2c-3.2,3-25.4,25.6-30.7,25.7
		c-5.7,0.2-28.5-22.7-31.7-25.7c-4.1-3.8-8.1-7.5-12.1-11.3v-62.6c11.5,10.2,26.7,16.4,43.3,16.4c16.5,0,31.6-6.1,43.2-16.2V608.9z
		 M493.1,349.5c-10.6,44.6-32.8,93.7-68.9,145.3V363.2L493.1,349.5z M68.9,347.9c-8.3-35.9-9.1-68.9-3.7-98
		c5.2-27.6,19.4-41.1,29.6-41.1c4.9,0,8.9,4,8.9,8.9c0,4.8-3.9,8.8-9.1,8.8l-6.8,0l0.3,29c0,0.1,9.8,0,20.2-2
		c10.2-1.9,20.3-3.9,29.7-5.7v86.4L68.9,347.9z M424.2,247.5l29.8,5.9c7.5,1.5,14.3,2.1,20.2,2l0.3-29l-6.8,0c-5.2,0-9.1-4-9.1-8.8
		c0-4.9,4-8.9,8.8-8.9c10.2,0,24.5,13.5,29.6,41.1c0.8,4.1,1.4,8.2,1.9,12.5l-74.8,14.9V247.5z M237.9,213.7c3.5-2,6.6-4.5,9.2-7.5
		c9.2,7.7,21.1,12.3,34.1,12.3c13,0,24.9-4.6,34.1-12.3c2.6,2.9,5.7,5.4,9.1,7.4V297l-86.5,17.2V213.7z"/>
	<path class="st4" d="M410.1,40c86.8,33.6,139.5,111.4,133.5,216.2c-1.3-72.9-34.9-130.3-90.2-163.9l-3.9-2.3
		c-7.2,35.7-36.6,63.4-74.4,63.4c-22.4,0-42-9.3-55.3-24c10.7,7.9,23.9,12.6,38.3,12.6c35.5,0,64.3-28.8,64.3-64.3
		C422.3,63.6,417.8,50.5,410.1,40z M151.7,40c-7.7,10.6-12.2,23.6-12.2,37.7c0,35.5,28.8,64.3,64.3,64.3c14.3,0,27.6-4.7,38.3-12.6
		c-13.3,14.7-32.9,24-55.3,24c-37.9,0-67.2-27.7-74.4-63.4l-3.9,2.3c-55.3,33.7-88.9,91-90.2,163.9C12.2,151.4,64.8,73.6,151.7,40z"
		/>
	<path class="st5" d="M281.2,211.8c-14,0-26.5-6.1-35-15.8c-5.3,9.5-15.5,15.9-27.1,15.9c-2.6,0-5.2-0.3-7.7-1c0.7-2.9,1-6,1-9.1
		c0-2.5-0.2-4.9-0.7-7.3c2.2,1.2,4.7,1.9,7.4,1.9c8.6,0,15.5-6.9,15.5-15.5l0-10.5h16c2.5,14.6,15.2,25.8,30.6,25.8
		c15.3,0,28.1-11.1,30.6-25.8h16l0,10.5c0,8.6,6.9,15.5,15.5,15.5c2.6,0,5.1-0.7,7.3-1.8c-0.4,2.3-0.6,4.8-0.6,7.2
		c0,3.1,0.4,6.2,1,9.1c-2.4,0.6-5,0.9-7.6,0.9c-11.7,0-21.8-6.4-27.1-15.9C307.6,205.7,295.1,211.8,281.2,211.8z M110.4,217.5
		c0-8.6-7-15.5-15.5-15.5c-15.5,0-30.9,18.5-36.2,46.6c-18.3,97.6,31.5,234,186.8,376.4c40.8,37.5,32.5,35.8,71.5,0
		C472.2,482.6,522,346.2,503.7,248.6c-5.3-28.1-20.7-46.6-36.2-46.6c-8.6,0-15.5,7-15.5,15.5c0,8.6,7,15.5,15.8,15.5l-0.2,15.6
		c-17.2,0-31.1-13.9-31.1-31.1c0-17.2,13.9-31.1,31.2-31.1c30.9,0.1,44.4,31.3,49.8,62.1c18.2,103.7-36.3,244-191.5,386.3
		c-47.9,43.9-41.7,43.9-89.6,0C81.2,492.5,26.7,352.2,44.9,248.6c5.4-30.8,18.8-62,49.8-62.1c17.3,0,31.2,13.9,31.2,31.1
		c0,17.2-13.9,31.1-31.1,31.1l-0.2-15.6C103.4,233.1,110.4,226.1,110.4,217.5z M168.9,170.9c1-0.2,2.1-0.3,3.2-0.3
		c17.3,0,31.4,14,31.4,31.4c0,15-10.6,27.6-24.7,30.6l-1.1,0.2l-52.2,10.4c5.8-6.9,9.2-15.8,9.2-25.6c0-15.5-8.8-28.9-21.7-35.6
		L168.9,170.9z M393.4,170.9l55.9,11.1c-12.9,6.6-21.7,20.1-21.7,35.6c0,9.7,3.5,18.6,9.2,25.6l-52.2-10.4l-1.1-0.2
		c-14.1-3.1-24.7-15.6-24.7-30.6c0-17.3,14-31.4,31.4-31.4C391.3,170.5,392.4,170.6,393.4,170.9z"/>
</g>
</svg>
