<?xml version="1.0" encoding="utf-8"?>
<!-- Generator: Adobe Illustrator 24.0.1, SVG Export Plug-In . SVG Version: 6.00 Build 0)  -->
<svg version="1.1" id="Layer_1" xmlns="http://www.w3.org/2000/svg" xmlns:xlink="http://www.w3.org/1999/xlink" x="0px" y="0px"
	 viewBox="0 0 446.9 554" style="enable-background:new 0 0 446.9 554;" xml:space="preserve">
<style type="text/css">
	.st0{fill:#FFFFFF;}
	.st1{fill:#00913E;}
	.st2{fill:#E30613;}
	.st3{fill:#C8CACC;}
	.st4{fill:#DB0812;}
</style>
<polygon class="st0" points="206.9,78.5 76,336.4 1.1,360.6 1.1,381.7 170.8,433.5 286.9,438.8 445.9,381.7 446.9,366 429.1,366 
	413.5,337.5 354,163.6 217.9,72 "/>
<polygon class="st0" points="413.5,337.5 423.1,340.6 437.1,353.3 438.9,368.2 421.8,369.9 412.2,343 "/>
<path class="st1" d="M304.1,366.2l125-0.2c-3.5-10.4-8-20.4-15.6-28.5c1.7-13,1.4-25.5-0.6-38.4c-1.8-11.3-5-22-7.8-33
	c-0.3-7.4-1.2-14.9-2.8-22.1l-3.3-31.2c-2.3-21.5-18.9-23.5-37.3-20.6c-27.7,4.5-55.5,8.3-83.4,11.7c-27.5,3.3-55.4,6.3-83.8,9.1
	c-3.8,0.3-8.3,1.2-11.4,3.5c-3.5,2.5-5.2,6.3-7,10L127,328c3.3,1.4,7.1,2.4,10.7,3c2.9-44.8,40.2-80.4,85.8-80.4
	c47.3,0,85.9,38.5,85.9,85.8C309.4,347,307.3,356.3,304.1,366.2z"/>
<path class="st2" d="M434.8,366h12.1c-0.5-16.8-8-23.5-23.8-25.4C428.4,348.2,431.9,357.1,434.8,366z"/>
<path d="M223.5,417c44.3,0,80.5-36.2,80.5-80.6c0-44.4-36.2-80.4-80.5-80.4c-44.3,0-80.5,36.1-80.5,80.4
	C143,380.8,179.2,417,223.5,417z"/>
<path d="M304.4,485.6c-2.4,12.2-8.9,19.5-17.9,23.8c-8.7,4.2-19.5,5.3-30.7,5.3c-1.6,7.8-4.1,15.2-7.8,21.8
	c-4,7.1-10.4,13.9-18.2,16.7c-7.6,2.7-15,0.9-21.2-4c-7.1-5.8-12-14.5-14.8-26.1c-0.6-2.7-1.2-5.5-1.6-8.4
	c-11.4,0.1-22.4-1-31.2-5.1c-9.2-4.2-16-11.7-18.4-24c-10.3-0.2-18.9-2.7-25.8-7.6l0,0c-6.9-4.8-12.2-11.8-16.2-21.2h-2.2
	c-10.9,0-19.7-1.9-26.9-6.6c-6.8-4.5-12-11.4-15.6-21.5c-8-1.3-16.2-4-23.7-8.1c-8.5-4.6-16.1-10.8-21.4-18.2
	c-4.5-6.5-7.3-13.3-9.7-20.7h149.5c15.2,24.4,42.3,40.7,72.9,40.7c30.7,0,57.7-16.3,72.9-40.7h149.5c-2.5,7.4-5.2,14.3-9.8,20.7
	c-5.3,7.4-12.9,13.6-21.3,18.2c-7.5,4-15.7,6.8-23.7,8.1c-3.6,10.1-8.7,17-15.6,21.5c-7.1,4.7-16,6.6-26.9,6.6h-2.2
	c-4,9.4-9.3,16.5-16.3,21.2C323.2,483,314.7,485.4,304.4,485.6z"/>
<path class="st3" d="M256.8,509.4c10.2-0.1,19.9-1.2,27.4-4.8c7.2-3.5,12.5-9.3,14.7-18.9h-29.1c-3.9,0-3.9-5.4,0-5.4h29.5
	c9.7,0,19.4-0.7,27.9-6.6c5.5-3.9,9.9-9.4,13.4-16.8h-52.8c-3.9,0-3.9-5.5,0-5.5h54.1c2.3,0,4.6,0,6.9,0c9.9,0,17.7-1.7,23.9-5.7
	c5.3-3.5,9.4-8.8,12.5-16.4h-79.7c-3.8,0-3.8-5.4,0-5.4h80.6c9.1-0.7,18.1-3.6,26.1-7.9c7.8-4.2,14.7-9.9,19.5-16.6
	c2.7-3.7,4.8-7.8,6.6-12.1H299.4c-13.1,19.5-33.6,33.8-57.3,38.7c7.9,12.4,12.3,26.6,14.3,41.1C258.3,481,258.9,495.4,256.8,509.4z"
	/>
<path class="st3" d="M147.8,480.2h29.4c3.9,0,3.9,5.4,0,5.4h-29.1c2.2,9.9,7.7,15.7,15.1,19.2c7.8,3.6,17.8,4.6,28.3,4.6
	c-0.9-8.5-0.9-17.9-0.1-28.2c0.4-3.9,5.8-3.5,5.5,0.4c-1.4,18.1-1.6,43.6,10.4,58.8c29.3-32,19.3-77.5,3.1-113.5
	c-26.1-3.8-48.7-18.6-62.8-39.7H8.7c1.7,4.2,3.8,8.4,6.6,12.1c4.8,6.8,11.7,12.4,19.5,16.6c8,4.3,17.1,7.2,26.1,7.9h80.6
	c3.8,0,3.8,5.4,0,5.4H61.9c3.1,7.6,7.3,13,12.5,16.4c6.2,4,14,5.7,23.9,5.7c2.3,0,4.6,0,6.9,0h54.1c3.9,0,3.9,5.5,0,5.5h-52.8
	c3.5,7.4,7.8,13,13.4,16.8l0,0C128.3,479.5,138,480.2,147.8,480.2z"/>
<path class="st3" d="M225,427.8c17.7,37.5,23.2,88.2-7.1,120.6c3.5,1.2,6.8,1,10-0.1c6.7-2.4,12-8.3,15.4-14.3
	c10.8-19.2,10.7-45,7.7-66.2c-2-14.5-6.5-28.7-14.8-40.8C232.6,427.5,228.8,427.8,225,427.8z"/>
<path class="st0" d="M223.5,261.4c7.8,0,15.4,1.2,22.6,3.5c-5,12.4-17.2,21.2-31.3,21.2c-1.4,0-2.8-0.1-4.2-0.3l-0.6,6.3
	c10.7,1.2,19.7,7.8,24.4,17l8.3-2.2c-0.7-2.7-1.2-5.7-1.2-8.7c0-12.1,6.4-22.7,16.1-28.7c20.7,10.5,35.8,30.5,39.9,54
	c-5.9,5.3-13.7,8.4-22.2,8.4c-0.6,0-1.1,0-1.7-0.1l-1.1,8.3c10.2,3.5,18.2,11.6,21.5,21.8c-7,19.2-21.6,34.8-40.1,43.1
	c-9.1-2.2-16.7-8.1-21.2-16l-9.9,3c0.1,1.1,0.1,2.2,0.1,3.2c0,5.8-1.6,11.3-4.3,16c-22.8-1.5-42.8-13.2-55.6-30.5
	c5.3-10.2,16-17.1,28.2-17.1c1.4,0,2.9,0.1,4.2,0.3l1.9-10.7c-9.1-2.8-16.4-9.6-19.9-18.3l-7.8,2.9c0.6,2.4,0.9,5,0.9,7.6
	c0,10.6-5.4,20-13.5,25.7c-5.5-10.4-8.6-22.2-8.6-34.8c0-6.8,0.9-13.5,2.7-19.9c7.4,3.1,13.4,8.9,16.7,16.3l8-3
	c-0.5-2.1-0.7-4.3-0.7-6.6c0-16.6,13-30.3,29.4-31.3l0.7-7.2c-7.7-2.3-14.3-7.2-18.6-13.7C197.6,265,210.2,261.4,223.5,261.4
	L223.5,261.4z M154.2,307.7c15.6-1.3,28-14.5,28-30.5c0-1-0.1-2.1-0.2-3.2C169.6,282.2,159.9,293.9,154.2,307.7L154.2,307.7z
	 M236.4,314.2c0.9,2.9,1.4,6,1.4,9.1c0,17.3-14.1,31.3-31.3,31.3c-1.2,0-2.5-0.1-3.7-0.2l-2,10.7c10.2,3.2,18.1,11.4,21,21.7
	l8.6-2.6c-1.4-3.7-2.2-7.7-2.2-12c0-18.6,15.2-33.7,33.8-33.7c1.8,0,3.6,0.1,5.3,0.4l1-7.7c-10.7-2.3-19.4-9.6-23.8-19.2
	L236.4,314.2z"/>
<path class="st0" d="M313.7,236.4c-38.4,0.1-73.6,9.6-111,5.3c14.5-1.9,123.5-15.7,129.6-15.7c0.6,3.2,0.6,5.2,0.1,6.5
	C330.8,236.2,318,236.4,313.7,236.4z"/>
<path class="st0" d="M380.3,229.7c7.7,0,14-5.3,14-11.7c0-6.5-6.3-11.7-14-11.7c-7.7,0-14,5.3-14,11.7
	C366.3,224.4,372.6,229.7,380.3,229.7z"/>
<path class="st0" d="M370,247v-5.9c7.8-1.6,21.4-3,28.9,0l0.7,5.8L370,247z"/>
<polygon class="st0" points="357.5,242.5 364,241.6 364.1,247.1 358.1,247.4 "/>
<path class="st0" d="M404.2,277.2c-2.2,6.6-10.3,14.6-15,20.7c1-1.7-18.1-18.4-19.3-19.3c4.5-2.5,16.9,7.1,20.3,7.4
	C394.3,283.3,396.5,278.4,404.2,277.2z"/>
<path class="st0" d="M375.2,323c4.3,0,7.8-3.9,7.8-8.7c0-4.8-3.5-8.7-7.8-8.7c-4.3,0-7.8,3.9-7.8,8.7
	C367.4,319.1,370.9,323,375.2,323z"/>
<path class="st0" d="M405.2,319.3c3.5,0,6.2-3.5,6.2-7.8c0-4.3-2.7-7.8-6.2-7.8c-3.5,0-6.3,3.5-6.3,7.8
	C399,315.9,401.8,319.3,405.2,319.3z"/>
<path class="st4" d="M362,186.7L297.3,0c-16.8,5.5-36.5,7.7-58.1,7.8c-22,0-46-2.2-71-5.5L154.9,20c1.9,1,3.9,2,5.8,2.9
	c8.1,4,15.3,7.6,19.1,13.3c6,9.2,1.6,21.8-2.7,30.8L64.5,303.6c-7.8,16.3-14.5,25.4-33.3,27c-8.8,0.7-20.8,0.2-25.8,9.1
	C1.2,347.1-0.1,357.6,0,366l148.7,0.2c-3.5-8.9-5.5-18.6-5.7-28.7c-5.5-0.6-13.8-2.4-19.1-4.9c-10.7-4.8-13.2-12-7.8-23l101.8-205.8
	l38.9,97.2c6.9-0.8,13.9-1.7,20.8-2.5C305.9,195,333.9,190.9,362,186.7z"/>
<path class="st0" d="M441.8,372"/>
</svg>
