<?xml version="1.0" encoding="utf-8"?>
<!-- Generator: Adobe Illustrator 24.0.1, SVG Export Plug-In . SVG Version: 6.00 Build 0)  -->
<svg version="1.1" id="Layer_1" xmlns="http://www.w3.org/2000/svg" xmlns:xlink="http://www.w3.org/1999/xlink" x="0px" y="0px"
	 viewBox="0 0 448.5 600" style="enable-background:new 0 0 448.5 600;" xml:space="preserve">
<style type="text/css">
	.st0{fill:#9F8400;}
	.st1{fill:#22366C;}
	.st2{fill:#C30001;}
	.st3{fill:#FFFFFF;}
</style>
<g>
	<path id="path3" class="st0" d="M328.3,181.8c-0.6-0.1-1.2-0.2-1.8-0.3c-0.8-10.1-9.2-18.1-19.6-18.1c-8,0-14.9,4.8-17.9,11.7
		c-16.2-2.4-31.5-4.2-45.9-5c-2.4-8.1-9.9-14-18.8-14c-8.9,0-16.4,5.9-18.8,14c-14.5,0.8-29.8,2.6-45.9,5c-3.1-6.9-9.9-11.7-18-11.7
		c-10.3,0-18.8,8-19.6,18.1c-0.6,0.1-1.2,0.2-1.8,0.3C72.6,194,28.7,206.6,0,214.6C20.7,392.6,141.1,531,224.2,600
		c83.1-69,203.5-207.4,224.2-385.4C419.8,206.6,375.9,194,328.3,181.8z"/>
	<path id="path5" class="st1" d="M423.5,220.4c-27.3-7.7-61.3-17.2-97.9-26.5c-0.7-0.1-1.4-0.3-2.1-0.4c-2.4,3.8-6.1,6.7-10.4,8.2
		v51.1c7.8,2.6,13.5,10,13.5,18.6c0,8.7-5.6,16.1-13.5,18.6v14c0,16.5-2.4,31.9-6.4,45.9c3.5,3.6,5.7,8.4,5.7,13.8
		c0,10.7-8.6,19.4-19.3,19.6c-14.4,26.9-34,46.5-49.8,57.5c0.4,1.5,0.6,3.1,0.6,4.8c0,10.8-8.8,19.6-19.6,19.6v118.4
		c52-44.9,184.8-176,210.6-360.3C429.2,222,423.5,220.4,423.5,220.4z"/>
	<path id="path7" class="st2" d="M204.6,445.8c0-1.7,0.2-3.2,0.6-4.8c-15.8-11.1-35.4-30.6-49.8-57.5c-10.7-0.2-19.3-8.9-19.3-19.6
		c0-5.4,2.2-10.3,5.7-13.8c-4-14-6.4-29.4-6.4-45.9v-14c-7.8-2.6-13.5-10-13.5-18.6c0-8.7,5.6-16.1,13.5-18.6v-51.1
		c-4.3-1.4-8-4.4-10.4-8.2c-0.7,0.1-1.4,0.3-2.1,0.4c-36.5,9.3-70.5,18.9-97.9,26.5c0,0-5.6,1.6-11.3,3.2
		c25.8,184.3,158.5,315.3,210.6,360.3V465.4C213.4,465.4,204.6,456.6,204.6,445.8z"/>
	<path id="path9" class="st3" d="M147.7,201.7v51.1c7.8,2.6,13.5,10,13.5,18.6c0,8.7-5.6,16-13.5,18.6v14c0,14.3,2,27.8,5.5,40.3
		c0.8-0.1,1.7-0.2,2.5-0.2c10.8,0,19.6,8.8,19.6,19.7c0,6.4-3.1,12.1-7.9,15.7c13,23.5,30.1,41.1,44.3,51.1
		c3.4-2.8,7.7-4.5,12.5-4.5c4.7,0,9.1,1.7,12.5,4.5c14.2-10,31.3-27.6,44.3-51.1c-4.8-3.6-7.9-9.3-7.9-15.7
		c0-10.8,8.8-19.7,19.6-19.7c0.9,0,1.7,0.1,2.5,0.2c3.4-12.5,5.5-26,5.5-40.3v-14c-7.8-2.6-13.5-10-13.5-18.6
		c0-8.7,5.7-16.1,13.5-18.6v-51.1c-6.5-2.1-11.4-7.6-13-14.3c-15.3-2.3-30.5-4.2-45.1-5c-2.7,7.6-10,13-18.5,13
		c-8.5,0-15.7-5.4-18.5-13c-14.5,0.8-29.7,2.7-45.1,5C159.2,194.1,154.2,199.5,147.7,201.7L147.7,201.7z"/>
	<path id="path11" class="st0" d="M180.8,308c-2.8,0.1-4.8,1.8-5.4,3.2l-3.8,10.9c0,0-2.1,8.5,6.5,10.5c0,0,1.5-4.9,2.9-9
		c0,0,0.6-3.9,3.9-3.9l8.6,0.1c0,0,2,0.3,2.6-1.1l0-11C196.2,307.7,184,308,180.8,308z"/>
	<path id="path13" class="st0" d="M273.4,269.1c-4.3-4.3-9.5-8.9-16.3-8.8c-5.4,0.1-7.8,2.2-9.3,5.1c-1.4,2.7-2.2,6.8,2.4,11.4
		c4,4,10.8,7.3,10.8,13.2c0,4-3,3.8-3,3.8l-31.3-0.7l4.6,8.9l-13.1,0.2l-0.2,13.5l-11-8.2l-9.2,10.2l-1.9,22c0,0,0.1,1.6-2.4,1.6h-5
		c0,0-2.6,3.5-2.6,7.9l15.9-0.2c0,0,0.7-0.4,2.8-4.4c2.9-5.3,10.7-19,10.7-19s-0.1-6.2,0-6.5c0,0,2.3,1.7,2.7,1.8v3
		c0,0,11.3-7.6,21.8-3.8c0,0,14.3,3.9,16.7,13.9l1.2,7c0,0-6.2-0.5-7.3,1.9c0,0-1.6,3.5-1.6,6c0,0,13.8,0,17.2,0l3.5-7.9l-3.1-17.8
		c0,0-9.9-9.3-9.5-18.7c0,0,10.4-0.9,10.4-12.7s-10.3-16.8-13.6-19.2c-2.5-2.5-2.4-4.9-0.7-6.5c2.5-2.5,7.3,0,7.3,1.4
		c0,0,0.7,5.6,7.7,9.6l1.6-1.9c0,0,1.2,2.1,7.1,2.1C277,277.5,277.7,273.4,273.4,269.1L273.4,269.1z"/>
	<path id="path15" class="st0" d="M229.9,321.6l2.1,6.6c0,5.7-3.8,12.9-3.8,12.9h-7.9c0,0-3.4,2.4-3.4,7.9h16.3l11.1-12.3
		c0,0,2.4-2,2.7-3.8c0.5-2.6,1.4-6.4,1.4-6.4C238.7,320.1,229.9,321.6,229.9,321.6z"/>
	<path id="path17" class="st0" d="M231,292.2l-5.3-7.9v-9.9c0-3.8-1.6-5-1.6-5s-8-8.5-9.6-10.3c-1.5-1.6-3.9-1.4-4.2-1.4
		c0-0.1,0.1-0.4,0.1-1.6c0-2-1.8-1.6-1.8-1.6s-8.3,0.2-8.3-0.8c0,0-0.4-3-3.2-1.6c-2.9,1.4-10.5,10.9-14.1,14.6
		c-3.6,3.8-2,4.9-2,4.9l2.9,4.8l4.6-3.5c0,0,1.8-1.3,3.9,0.6l-7,5.5c0.9,1.8,2.2,1.6,2.2,1.6h6.1l2.2,4.7h4.5v-8.3h2.5v-8.3h1.4
		v10.2H202v8.3h-6.1l-11,10.3l7.9-0.2l-4,9l8.9,0.3l-0.1,9.4l9.5-10.6l9.4,7v-12.1l12.2,0l-4.9-8.1L231,292.2z"/>
	<path id="path19" class="st3" d="M193.3,262.9c-1,0.3-1.7,0.9-1.8,1c-0.8,0.8,0.9,2.1,1.9,2.1c1.1,0,1.9-0.9,1.9-2.1
		C195.2,262.7,195.4,262.3,193.3,262.9z"/>
	<polygon id="polygon21" class="st2" points="203.9,239.9 202.5,238.7 201.1,239.9 202.5,241.2 	"/>
	<path id="circle23" class="st0" d="M211.3,239.6c0.6,0,1,0.5,1,1c0,0.6-0.5,1-1,1c-0.6,0-1-0.5-1-1
		C210.2,240.1,210.7,239.6,211.3,239.6z"/>
	<path id="circle25" class="st0" d="M193.8,239.6c0.6,0,1,0.5,1,1c0,0.6-0.5,1-1,1c-0.6,0-1-0.5-1-1
		C192.8,240.1,193.2,239.6,193.8,239.6z"/>
	<polygon id="polygon27" class="st2" points="218.8,243.8 219.5,241.4 219.8,242.7 	"/>
	<polygon id="polygon29" class="st2" points="186.3,243.8 185.5,241.4 185.2,242.7 	"/>
	<path id="path31" class="st0" d="M202.5,241.5c-2.5,0.1-11,0.4-16.3,2.6l-0.1,0l0,0.1c0.4,1.9,0.4,1.9,0.5,1.9l0,0l0,0
		c6.1-2.3,14.2-2.6,15.8-2.7c1.6,0,9.7,0.4,15.8,2.7l0,0l0,0c0,0,0.1,0,0.5-1.9l0-0.1l-0.1,0C213.5,242,205,241.6,202.5,241.5z"/>
	<path id="path33" class="st0" d="M220,239.1c-5.7-2.3-15.3-2.7-17.4-2.7c-2.1,0-11.8,0.4-17.4,2.7c-0.1,0-0.1,0,0.4,1.9l0,0.1
		l0.1,0c5.9-2.3,14.4-2.7,17-2.7h0c2.5,0,11,0.4,17,2.7l0.1,0l0-0.1C220,239.2,220,239.2,220,239.1z"/>
	<path id="path35" class="st0" d="M221.8,231.8c-0.4-0.6-1-0.9-1.8-0.9c-1.2,0-2.1,0.9-2.1,2.1c0,0.7,0.3,1.3,0.8,1.6
		c0,0,0.6,0.4,0.7,0.6c0.2,0.4,0,0.6-0.4,0.7c-0.4,0.1-3.9-1.1-5.7-1.3c-0.4,0-0.4-0.7,0.5-0.5c0.9,0.2,1.7-0.4,1.9-1.2
		c0.2-0.9-0.4-1.7-1.2-1.9c0.1-0.1,0.2-0.3,0.2-0.5c0.2-0.9-0.4-1.8-1.3-2c-0.9-0.2-1.8,0.4-2,1.3c0,0.2,0,0.3,0,0.5
		c-0.9-0.2-1.7,0.4-1.9,1.2c-0.2,0.9,0.4,1.6,1.2,1.9c0.7,0.2,0.4,0.7,0,0.7c-0.3,0-4.9-0.4-6.2-0.5c-0.7-0.1-1-1.3,0.3-1.3
		c1.3,0,2.4-1.1,2.4-2.4c0-1.3-1.1-2.4-2.4-2.4c0.1-0.2,0.2-0.5,0.2-0.7c0-1.4-1.1-2.5-2.5-2.5c-1.4,0-2.5,1.1-2.5,2.5
		c0,0.3,0.1,0.5,0.2,0.7c-1.3,0-2.4,1.1-2.4,2.4c0,1.3,1.1,2.4,2.4,2.4c1.3,0,1,1.2,0.3,1.3c-1.3,0-5.9,0.4-6.2,0.5
		c-0.4,0-0.7-0.5,0-0.7c0.9-0.3,1.4-1,1.2-1.9c-0.2-0.9-1-1.4-1.9-1.2c0-0.2,0-0.3,0-0.5c-0.2-0.9-1.1-1.5-2-1.3
		c-0.9,0.2-1.5,1.1-1.3,2c0,0.2,0.1,0.3,0.2,0.5c-0.9,0.2-1.4,1-1.2,1.9c0.2,0.9,1,1.4,1.9,1.2c0.9-0.2,0.9,0.5,0.5,0.5
		c-1.8,0.2-5.3,1.4-5.7,1.3c-0.4-0.1-0.5-0.3-0.4-0.7c0.1-0.2,0.7-0.6,0.7-0.6c0.5-0.4,0.8-1,0.8-1.6c0-1.2-0.9-2.1-2.1-2.1
		c-0.7,0-1.4,0.4-1.8,0.9c-0.9-3.7-4.8-1.8-4.8-1.8l2,3.2c0.4-0.3,1.1-0.3,1.5,0.2c0.5,0.5,0.5,1.3,0,1.7c-0.1,0.1-0.2,0.1-0.3,0.2
		l1.7,2.7c0,0,0.5,1.3,2.6,0.5c5.3-2,14.2-2.4,16.5-2.4c2.4,0,11.2,0.3,16.5,2.4c2.1,0.8,2.6-0.5,2.6-0.5l1.7-2.7
		c-0.1-0.1-0.2-0.1-0.3-0.2c-0.5-0.5-0.5-1.3,0-1.7c0.4-0.4,1.1-0.5,1.5-0.2l2-3.2C226.5,230,222.7,228.1,221.8,231.8L221.8,231.8z
		 M192.3,232.7c-0.6,0-1-0.5-1-1c0-0.6,0.5-1,1-1c0.6,0,1,0.5,1,1C193.4,232.2,192.9,232.7,192.3,232.7z M202.5,231
		c-0.8,0-1.4-0.6-1.4-1.4c0-0.8,0.6-1.4,1.4-1.4c0.8,0,1.4,0.6,1.4,1.4C203.9,230.4,203.3,231,202.5,231z M211.7,231.7
		c0-0.6,0.5-1,1-1c0.6,0,1,0.5,1,1c0,0.6-0.5,1-1,1C212.2,232.7,211.7,232.2,211.7,231.7z"/>
	<polygon id="polygon37" class="st2" points="233.6,105.3 224.2,96.9 214.9,105.3 224.2,113.8 	"/>
	
		<ellipse id="circle39" transform="matrix(0.1608 -0.987 0.987 0.1608 129.0395 371.9225)" class="st0" cx="283.2" cy="110.1" rx="6.9" ry="6.9">
	</ellipse>
	<path id="circle41" class="st0" d="M165.3,103.1c3.8,0,6.9,3.1,6.9,6.9s-3.1,6.9-6.9,6.9c-3.8,0-6.9-3.1-6.9-6.9
		S161.4,103.1,165.3,103.1z"/>
	<polygon id="polygon43" class="st2" points="339,115.2 333.7,131.3 340.9,124.3 	"/>
	<polygon id="polygon45" class="st2" points="114.8,131.3 109.5,115.2 107.6,124.3 	"/>
	<path id="path47" class="st0" d="M224.3,116c-16.7,0.4-73.9,2.9-109.7,17.4l-0.5,0.2l0.1,0.5c2.9,12.8,3,12.8,3.3,13l0.2,0.1
		l0.3-0.1c41-15.7,95.7-17.8,106.3-18.1c10.6,0.3,65.2,2.4,106.2,18.1l0.3,0.1l0.3-0.1c0.4-0.2,0.4-0.2,3.3-13l0.1-0.5l-0.5-0.2
		C298.1,119,240.9,116.5,224.3,116z"/>
	<path id="path49" class="st0" d="M341.9,99.8c-38.2-15.4-103.5-18.2-117.6-18.1c-14.1-0.1-79.4,2.7-117.6,18.1
		c-0.6,0.3-0.6,0.3,2.4,12.7l0.2,0.7l0.7-0.3c40.1-15.3,97.4-18.3,114.4-18.2h0c16.9-0.1,74.3,2.9,114.4,18.2l0.7,0.3l0.2-0.7
		C342.4,100,342.4,100,341.9,99.8z"/>
	<path id="path51" class="st0" d="M354.1,50.3c-2.6-3.8-7-6.3-11.9-6.3c-7.8,0-14.1,6.3-14.1,14.1c0,4.6,2.2,8.5,5.7,11.1
		c0,0,4,2.5,4.8,4.1c1.2,2.5,0.1,4.2-2.4,4.6c-2.5,0.4-26.4-7.7-38.6-9c-2.8-0.3-2.5-4.9,3.3-3.7c5.8,1.2,11.6-2.5,12.8-8.3
		c1.2-5.8-2.5-11.6-8.3-12.8c0.5-1,1.2-2,1.4-3.1c1.3-6.3-2.7-12.4-8.9-13.8c-6.3-1.3-12.4,2.7-13.8,8.9c-0.2,1.1-0.3,2.2-0.2,3.3
		c-5.8-1.2-11.4,2.6-12.6,8.4c-1.2,5.8,2.6,11.1,8.3,12.8c4.9,1.5,3,5.1,0.3,4.9c-2-0.1-33.2-2.8-42-3c-4.6-0.4-6.6-8.7,2.2-8.7
		c8.8,0,16-7.2,16-16c0-8.8-7.1-16-16-16c0.5-1.5,1.1-3.2,1.1-4.9c0-9.4-7.7-17.1-17.1-17.1c-9.4,0-17.1,7.7-17.1,17.1
		c0,1.7,0.7,3.4,1.1,4.9c-8.8,0-16,7.2-16,16c0,8.8,7.1,16,16,16c8.8,0,6.9,8.3,2.2,8.7c-8.8,0.3-40,2.9-42,3
		c-2.7,0.2-4.6-3.4,0.3-4.9c5.7-1.7,9.6-7,8.3-12.8c-1.2-5.9-6.7-9.6-12.6-8.4c0.1-1.1,0-2.2-0.2-3.3c-1.3-6.3-7.5-10.3-13.8-8.9
		c-6.3,1.3-10.3,7.5-8.9,13.8c0.2,1.1,0.9,2.1,1.4,3.1c-5.8,1.2-9.6,7-8.3,12.8c1.2,5.9,7,9.6,12.8,8.3c5.8-1.2,6.1,3.4,3.3,3.7
		c-12.1,1.3-36,9.4-38.6,9c-2.5-0.4-3.6-2.1-2.4-4.6c0.8-1.7,4.8-4.1,4.8-4.1c3.4-2.6,5.7-6.5,5.7-11.1c0-7.8-6.3-14.1-14.1-14.1
		c-4.9,0-9.3,2.5-11.9,6.3C88,25.2,62.3,38,62.3,38l13.2,21.4c3-2.1,7.6-1.8,10.5,1c3.2,3.2,3.2,8.5,0,11.7c-0.5,0.5-1.1,1-1.8,1.3
		l11.2,18.1c0,0,3.2,8.5,17.5,3.1c36-13.7,95.4-16.2,111.4-16c15.9-0.1,75.3,2.3,111.4,16c14.2,5.4,17.5-3.1,17.5-3.1l11.2-18.1
		c-0.6-0.4-1.2-0.8-1.8-1.3c-3.2-3.2-3.2-8.5,0-11.7c2.8-2.8,7.5-3.2,10.5-1L386.2,38C386.2,38,360.5,25.2,354.1,50.3z M155.4,56.6
		c-3.9,0-7-3.1-7-7s3.1-7,7-7c3.9,0,7,3.1,7,7S159.3,56.6,155.4,56.6z M224.2,45.1c-5.2,0-9.4-4.2-9.4-9.4c0-5.2,4.2-9.4,9.4-9.4
		c5.2,0,9.4,4.2,9.4,9.4C233.6,40.9,229.4,45.1,224.2,45.1z M286.1,49.6c0-3.9,3.1-7,7-7c3.9,0,7,3.1,7,7s-3.1,7-7,7
		C289.2,56.6,286.1,53.5,286.1,49.6z"/>
	<path id="path53" class="st0" d="M57.9,272c0-11.4,9.2-20.6,20.6-20.6l14.6,0v-8.4l-14.6,0c-16,0-29,13-29,29s13,29.1,29,29.1h14.9
		l0-8.4h-15C67,292.6,57.9,283.4,57.9,272z"/>
	<path id="path55" class="st0" d="M376,240.1c-10.2,0-21.6,9.1-22.6,24.3l-0.1,34.9l7.8-0.1v-12.2l29.4,0.1v11.9h8.2v-34.4
		C397.8,249.4,386.8,240.1,376,240.1z M390.4,278.9h-29.3l0-14.4c0-11.3,8-16.1,14.7-15.9c8.3,0.2,14.6,7,14.6,15.8V278.9z"/>
	<path id="path57" class="st0" d="M224.2,489.5c-16,0-29,13-29,29c0,16,13,29.1,29,29.1c16,0,29-13,29-29.1
		C253.3,502.5,240.3,489.5,224.2,489.5L224.2,489.5z M224.2,539.2c-11.4,0-20.6-9.2-20.6-20.6c0-11.4,9.2-20.6,20.6-20.6
		c11.4,0,20.6,9.2,20.6,20.6C244.9,529.9,235.6,539.2,224.2,539.2z"/>
	<path id="circle59" class="st3" d="M224.2,434.6c6.2,0,11.2,5,11.2,11.2c0,6.2-5,11.2-11.2,11.2c-6.2,0-11.2-5-11.2-11.2
		C213,439.6,218,434.6,224.2,434.6z"/>
	<path id="circle61" class="st3" d="M306.9,260.1c6.2,0,11.2,5,11.2,11.2c0,6.2-5,11.2-11.2,11.2c-6.2,0-11.2-5-11.2-11.2
		C295.7,265.2,300.7,260.1,306.9,260.1z"/>
	<path id="circle63" class="st3" d="M141.5,260.1c6.2,0,11.2,5,11.2,11.2c0,6.2-5,11.2-11.2,11.2c-6.2,0-11.2-5-11.2-11.2
		C130.3,265.2,135.3,260.1,141.5,260.1z"/>
	<path id="circle65" class="st3" d="M155.7,352.6c6.2,0,11.2,5,11.2,11.2c0,6.2-5,11.2-11.2,11.2c-6.2,0-11.2-5-11.2-11.2
		C144.5,357.6,149.5,352.6,155.7,352.6z"/>
	<path id="circle67" class="st3" d="M306.9,171.8c6.2,0,11.2,5,11.2,11.2c0,6.2-5,11.2-11.2,11.2c-6.2,0-11.2-5-11.2-11.2
		C295.7,176.8,300.7,171.8,306.9,171.8z"/>
	<path id="circle69" class="st3" d="M141.5,171.8c6.2,0,11.2,5,11.2,11.2c0,6.2-5,11.2-11.2,11.2c-6.2,0-11.2-5-11.2-11.2
		C130.3,176.8,135.3,171.8,141.5,171.8z"/>
	<path id="circle71" class="st3" d="M224.2,164.5c6.2,0,11.2,5,11.2,11.2c0,6.2-5,11.2-11.2,11.2c-6.2,0-11.2-5-11.2-11.2
		C213,169.5,218,164.5,224.2,164.5z"/>
	<path id="circle73" class="st3" d="M292.8,352.6c6.2,0,11.2,5,11.2,11.2c0,6.2-5,11.2-11.2,11.2c-6.2,0-11.2-5-11.2-11.2
		C281.5,357.6,286.6,352.6,292.8,352.6z"/>
</g>
</svg>
