<?xml version="1.0" encoding="utf-8"?>
<!-- Generator: Adobe Illustrator 24.0.1, SVG Export Plug-In . SVG Version: 6.00 Build 0)  -->
<svg version="1.1" id="Layer_1" xmlns="http://www.w3.org/2000/svg" xmlns:xlink="http://www.w3.org/1999/xlink" x="0px" y="0px"
	 viewBox="0 0 367.6 512" style="enable-background:new 0 0 367.6 512;" xml:space="preserve">
<style type="text/css">
	.st0{fill:#FFFFFF;}
	.st1{fill:#EE334E;}
	.st2{fill:#FEBE10;}
	.st3{fill:#00539F;}
</style>
<path id="XMLID_427_" class="st0" d="M159.1,135.5c-2.1,0-3.9-1.7-3.9-3.9c0-2.1,1.7-3.9,3.9-3.9c2.1,0,3.9,1.7,3.9,3.9
	S161.2,135.5,159.1,135.5 M111.3,148.5c-2.1,0-3.9-1.7-3.9-3.9c0-2.1,1.7-3.9,3.9-3.9c2.1,0,3.9,1.7,3.9,3.9
	C115.1,146.7,113.4,148.5,111.3,148.5 M208.7,135.5c-2.1,0-3.9-1.7-3.9-3.9c0-2.1,1.7-3.9,3.9-3.9c2.1,0,3.9,1.7,3.9,3.9
	S210.8,135.5,208.7,135.5 M297.8,115.2c3.4,1.9,4.6,6.1,2.7,9.4c-1.8,3.4-6.1,4.6-9.4,2.7c-3.4-1.8-4.6-6.1-2.7-9.4
	C290.2,114.6,294.4,113.4,297.8,115.2 M171.6,33.4c-2.1,0-3.9-1.7-3.9-3.9s1.8-3.9,3.9-3.9c2.1,0,3.9,1.7,3.9,3.9
	S173.8,33.4,171.6,33.4 M183.9,45.4c-2.1,0-3.9-1.7-3.9-3.9c0-2.1,1.7-3.9,3.9-3.9c2.1,0,3.9,1.7,3.9,3.9S186,45.4,183.9,45.4
	 M183.9,59.5c-2.1,0-3.9-1.7-3.9-3.9c0-2.1,1.7-3.9,3.9-3.9c2.1,0,3.9,1.7,3.9,3.9C187.8,57.7,186,59.5,183.9,59.5 M183.9,73.5
	c-2.1,0-3.9-1.7-3.9-3.9c0-2.1,1.7-3.8,3.9-3.8c2.1,0,3.9,1.7,3.9,3.8C187.8,71.7,186,73.5,183.9,73.5 M159,35.6
	c-2.1,0-3.9-1.7-3.9-3.9c0-2.1,1.7-3.9,3.9-3.9c2.1,0,3.9,1.7,3.9,3.9C162.9,33.9,161.2,35.6,159,35.6 M146.7,40.2
	c-2.1,0-3.9-1.8-3.9-3.9c0-2.1,1.7-3.9,3.9-3.9c2.1,0,3.9,1.7,3.9,3.9C150.6,38.4,148.8,40.2,146.7,40.2 M134.9,48.1
	c-2.1,0-3.9-1.7-3.9-3.9c0-2.1,1.7-3.9,3.9-3.9c2.1,0,3.8,1.7,3.8,3.9C138.7,46.3,137,48.1,134.9,48.1 M125.8,58.5
	c-2.1,0-3.9-1.7-3.9-3.8s1.7-3.9,3.9-3.9c2.1,0,3.9,1.7,3.9,3.9C129.6,56.8,127.9,58.5,125.8,58.5 M113.4,57.5
	c-2.1,0-3.9-1.7-3.9-3.9c0-2.1,1.7-3.9,3.9-3.9c2.1,0,3.9,1.7,3.9,3.9S115.5,57.5,113.4,57.5 M101.3,62.2c-2.1,0-3.9-1.7-3.9-3.9
	c0-2.1,1.7-3.9,3.9-3.9c2.1,0,3.9,1.7,3.9,3.9C105.1,60.5,103.4,62.2,101.3,62.2 M90,70.4c-2.1,0-3.9-1.7-3.9-3.9
	c0-2.1,1.7-3.9,3.9-3.9c2.1,0,3.9,1.8,3.9,3.9C93.9,68.7,92.1,70.4,90,70.4 M80.8,81.2c-2.2,0-3.9-1.7-3.9-3.9
	c0-2.1,1.7-3.9,3.9-3.9c2.1,0,3.8,1.7,3.8,3.9C84.7,79.5,83,81.2,80.8,81.2 M75.1,93.3c-2.1,0-3.9-1.7-3.9-3.9
	c0-2.1,1.7-3.9,3.9-3.9c2.1,0,3.9,1.7,3.9,3.9C78.9,91.6,77.2,93.3,75.1,93.3 M71.9,107.2c-2.2,0-3.9-1.7-3.9-3.9
	c0-2.1,1.7-3.9,3.9-3.9c2.1,0,3.8,1.7,3.8,3.9C75.7,105.4,74,107.2,71.9,107.2 M119.7,70.7c-2.1,0-3.9-1.7-3.9-3.9
	c0-2.1,1.7-3.8,3.9-3.8c2.1,0,3.9,1.7,3.9,3.8C123.6,69,121.8,70.7,119.7,70.7 M116.5,84.5c-2.1,0-3.9-1.7-3.9-3.9
	c0-2.1,1.7-3.9,3.9-3.9c2.1,0,3.9,1.7,3.9,3.9C120.4,82.8,118.6,84.5,116.5,84.5 M183.9,96.6c-3.8,0-7-3.1-7-6.9s3.1-6.9,7-6.9
	c3.8,0,6.9,3.1,6.9,6.9S187.7,96.6,183.9,96.6 M126.3,103.9c-3.7,1-7.5-1.3-8.5-5c-0.9-3.7,1.3-7.5,5-8.5s7.5,1.3,8.5,5
	C132.2,99.1,130,102.9,126.3,103.9 M76.7,127.4c-3.4,1.9-7.6,0.6-9.4-2.7c-1.9-3.4-0.6-7.6,2.7-9.4c3.4-1.9,7.6-0.6,9.4,2.7
	C81.3,121.3,80.1,125.6,76.7,127.4 M196.2,25.7c2.1,0,3.9,1.7,3.9,3.9c0,2.1-1.7,3.9-3.9,3.9c-2.1,0-3.9-1.7-3.9-3.9
	S194,25.7,196.2,25.7 M208.8,27.9c2.1,0,3.9,1.7,3.9,3.9c0,2.1-1.7,3.9-3.9,3.9c-2.1,0-3.9-1.7-3.9-3.9S206.6,27.9,208.8,27.9
	 M221.1,32.4c2.1,0,3.9,1.7,3.9,3.9c0,2.1-1.7,3.9-3.9,3.9c-2.1,0-3.9-1.8-3.9-3.9S219,32.4,221.1,32.4 M233,40.3
	c2.1,0,3.9,1.7,3.9,3.9c0,2.1-1.7,3.9-3.9,3.9c-2.1,0-3.9-1.7-3.9-3.9C229.1,42.1,230.8,40.3,233,40.3 M242,50.8
	c2.1,0,3.9,1.7,3.9,3.9c0,2.1-1.7,3.8-3.9,3.8c-2.1,0-3.9-1.7-3.9-3.8C238.1,52.5,239.9,50.8,242,50.8 M254.4,49.7
	c2.1,0,3.9,1.7,3.9,3.9c0,2.1-1.7,3.9-3.9,3.9c-2.1,0-3.9-1.7-3.9-3.9C250.5,51.5,252.2,49.7,254.4,49.7 M266.5,54.5
	c2.1,0,3.9,1.7,3.9,3.9c0,2.1-1.7,3.9-3.9,3.9c-2.1,0-3.9-1.7-3.9-3.9C262.6,56.2,264.4,54.5,266.5,54.5 M277.8,62.7
	c2.1,0,3.9,1.8,3.9,3.9s-1.8,3.9-3.9,3.9c-2.1,0-3.9-1.7-3.9-3.9C273.9,64.4,275.7,62.7,277.8,62.7 M287,73.5c2.1,0,3.9,1.7,3.9,3.9
	c0,2.1-1.7,3.9-3.9,3.9c-2.1,0-3.9-1.7-3.9-3.9C283.1,75.2,284.8,73.5,287,73.5 M292.7,85.6c2.1,0,3.9,1.7,3.9,3.9
	c0,2.1-1.7,3.9-3.9,3.9c-2.1,0-3.9-1.7-3.9-3.9C288.9,87.3,290.6,85.6,292.7,85.6 M295.9,99.4c2.1,0,3.9,1.7,3.9,3.9
	c0,2.1-1.7,3.9-3.9,3.9c-2.1,0-3.9-1.7-3.9-3.9C292.1,101.1,293.8,99.4,295.9,99.4 M248.1,63c2.1,0,3.9,1.7,3.9,3.8
	c0,2.2-1.7,3.9-3.9,3.9c-2.1,0-3.9-1.7-3.9-3.9C244.2,64.7,245.9,63,248.1,63 M251.3,76.8c2.1,0,3.9,1.7,3.9,3.9
	c0,2.1-1.7,3.9-3.9,3.9c-2.1,0-3.9-1.7-3.9-3.9S249.2,76.8,251.3,76.8 M245,90.4c3.7,1,5.9,4.7,5,8.5c-0.9,3.7-4.7,6-8.4,5
	c-3.7-1-6-4.7-5-8.4C237.5,91.7,241.3,89.5,245,90.4 M28.2,328.1c0-85.9,70.1-155.7,155.7-155.7s155.7,69.9,155.7,155.7
	c0,85.6-70.1,155.7-155.7,155.7C98.2,483.8,28.2,413.8,28.2,328.1 M256.5,148.5c-2.1,0-3.9-1.7-3.9-3.9c0-2.1,1.7-3.9,3.9-3.9
	c2.1,0,3.9,1.7,3.9,3.9C260.4,146.7,258.7,148.5,256.5,148.5"/>
<path id="XMLID_418_" class="st1" d="M254.6,88.6c2.6-1.1,4.6-3.4,5.1-6.3c4.1,0.9,8.8,2.1,12.7,3.6c3.6,1.4,6.4,3.3,8.5,5.1
	c2.1,5.3,3.3,11.5,3.9,19c-2.6,1.1-4.1,3.7-5.1,6.3c-1.5,4-1.5,8.1,2.7,11.1c-4,0.2-7.5-3.1-7.3-7.3c0.8-1,1.4-2.1,1.8-3.4
	c1.2-4.7-1.6-9.4-6.3-10.6c-4.7-1.2-9.4,1.6-10.6,6.2c-0.1,0.5-0.2,1-0.2,1.5c-3.9,4.8-11.9,2.3-12.2-4c7.3,1.4,10.4-2.2,11.6-7.2
	c1.1-4.1,0.7-8.3-4.1-10.8C255.2,90.8,255,89.6,254.6,88.6 M242.6,118.9c-3.1-0.9-6.2-1.7-9.3-2.4c2.5-1.1,4.7-2.9,6.3-5.1
	C239.9,114.1,241,116.7,242.6,118.9 M263.8,122c0.8,0.5,1.6,0.9,2.5,1.1l0.5,0.1c0.4,1.7,1.1,3.4,2,4.9c-3.2-1.4-6.6-2.7-9.9-3.9
	C260.7,123.7,262.3,123,263.8,122 M183.9,104.4c1,2.6,2.7,4.9,4.8,6.6c-1.6,0-3.2-0.1-4.8-0.1c-1.6,0-3.3,0-4.9,0.1
	C181.2,109.2,182.9,107,183.9,104.4 M98.9,128.1c0.9-1.5,1.6-3.2,2-4.9l0.5-0.1c0.9-0.2,1.8-0.6,2.5-1.1c1.5,1,3.1,1.7,4.8,2.2
	C105.5,125.4,102.2,126.7,98.9,128.1 M134.5,116.5c-3.1,0.7-6.2,1.5-9.3,2.4c1.6-2.1,2.7-4.7,3-7.5
	C129.8,113.7,132,115.4,134.5,116.5 M155.1,107.7c0.6,0,1.2-0.1,1.8-0.2c1.3,1.8,3.1,3.4,5.1,4.5c-3.6,0.4-7.1,0.8-10.7,1.3
	C153,111.7,154.3,109.8,155.1,107.7 M212.6,107.7c1,2.3,2.3,4.1,3.8,5.6c-3.5-0.5-7.1-1-10.6-1.3c2-1.1,3.7-2.7,5.1-4.5
	C211.4,107.6,212,107.7,212.6,107.7"/>
<path id="XMLID_411_" class="st1" d="M264.7,147.1l5.2-1.9l0.2,0.9l1,4.2l-4.1,2.3l-0.9,0.5l-0.4-1.6L264.7,147.1z M103.1,147.1
	l-1.1,4.3l-0.4,1.6l-0.9-0.5l-4.1-2.3l1.1-4.1l0.2-0.9l1.4,0.5L103.1,147.1z M196.3,130.4l-12.4,4.6l-12.4-4.6l12.4-4.6L196.3,130.4
	z M95.3,86c3.8-1.5,8.5-2.7,12.7-3.7c0.6,2.9,2.5,5.2,5.1,6.3c-0.4,1-0.6,2.2-0.5,3.5c-4.7,2.5-5.2,6.7-4.1,10.8
	c1.3,4.9,4.3,8.6,11.6,7.2c-0.3,6.3-8.3,8.8-12.2,4c0-0.5-0.1-1-0.2-1.6c-1.2-4.6-5.9-7.4-10.6-6.2c-4.7,1.2-7.5,5.9-6.3,10.6
	c0.3,1.3,0.9,2.4,1.7,3.4c0.1,2.6-1.1,5.1-3.6,6.4c-1.2,0.7-2.5,0.9-3.7,0.8c4.3-3,4.3-7.1,2.8-11.1c-1-2.6-2.5-5.2-5.1-6.3
	c0.6-7.5,1.8-13.7,3.9-19C88.9,89.3,91.7,87.4,95.3,86 M190.4,64.5c14.1-2.1,32.1-0.7,46,7c1.3,3.7,2.2,7.6,2.7,11.6
	c-1.5,0.8-2.8,2-3.8,3.9c-5.4-0.1-7.7,3.3-8.8,7.5c-1.3,4.9-0.4,9.6,6.7,11.9c-1.5,2.5-4.6,3.8-7.5,3c-3-0.8-5-3.4-5.1-6.3
	c0.7-1.2,1-2.6,1-4.1c0-4.8-3.9-8.7-8.7-8.7c-4.8,0-8.7,3.9-8.7,8.7c0,0.8,0.1,1.5,0.3,2.2c-0.9,2.7-3.5,4.7-6.5,4.7
	c-3.1,0-5.7-2-6.5-4.8c7.4-0.4,9.5-4.7,9.5-9.8c0-4.3-1.4-8.2-6.7-9.4c-0.8-3.5-2.8-5.4-5.4-6.3c1.7-1.4,2.8-3.5,2.8-6
	c0-1.5-0.4-2.9-1.2-4.1L190.4,64.5L190.4,64.5z M131.4,71.5c13.8-7.7,31.9-9,46-7v1c-0.7,1.2-1.2,2.6-1.2,4.1c0,2.4,1.1,4.5,2.8,6
	c-2.6,0.9-4.6,2.8-5.4,6.3c-5.2,1.3-6.7,5.2-6.7,9.4c0,5.1,2.1,9.4,9.5,9.8c-0.9,2.8-3.5,4.8-6.6,4.8c-3,0-5.6-2-6.5-4.7
	c0.2-0.7,0.3-1.5,0.3-2.2c0-4.8-3.9-8.7-8.7-8.7s-8.7,3.9-8.7,8.7c0,1.5,0.4,2.9,1.1,4.1c-0.2,2.9-2.2,5.5-5.1,6.3
	c-3,0.8-6-0.5-7.6-3c7.1-2.3,8-6.9,6.7-11.9c-1-4.2-3.4-7.6-8.8-7.5c-1-1.9-2.3-3.2-3.8-3.9C129.2,79.1,130.1,75.1,131.4,71.5"/>
<path id="XMLID_353_" class="st2" d="M221.8,235.5l34.3-35.3c44.3,25.4,74.1,72.9,74.1,127.3c0,35.5-12.6,67.9-33.7,93.3l-16-16
	c18-21.9,29.7-43.8,29.7-78.6c0-37.3-19.5-78.9-50.6-100.5l-20.5,21c10.5,7.9,18.9,15.9,25.9,27l-15.7,13.6
	c-6.2-10.9-14.2-18.6-24.6-25.6l-40.9,43.2l-42.4-43.8c-22,15.4-34.9,37.3-35.5,64.6c-0.7,36.2,22.7,61.5,55.7,72.5v-72.9h50.2v15
	H181v19.5h30.4v17.1H181v24.6c22.5,1.1,46.5-11.9,61.1-28.1l15,15.2c-19.2,22.3-47,33.6-76.1,33.8v22.4h-19.5V420
	c-44.4-11-76.5-50-75.9-96.4c0.4-31.9,17.3-58,42-76.6l-20.8-21.6C74.5,251.8,57.2,284,55.7,325.9c-1.1,37.1,18,66.8,30.1,79.3
	l-14,14.2c-21.7-25.3-34.4-56.5-34.4-92.1c0-54,29.8-101.6,73.7-127l34.7,36.2c12.3-4.7,25.1-7.3,38.2-7.3
	c13.1,0.2,24.5,2.6,36.7,7.2L221.8,235.5z M160.5,252.2l23.3,23.8l21.8-23.1c-7.7-2-14.9-3.5-22.9-3.8
	C175.2,248.8,167.7,250.6,160.5,252.2 M362.5,328.1c0,98.2-80.1,178.5-178.6,178.5c-98.4,0-178.6-80.3-178.6-178.5
	c0-98.4,80.1-178.7,178.6-178.7C282.3,149.4,362.5,229.7,362.5,328.1 M22.8,328.1c0,88.6,72.5,161,161.1,161s161-72.4,161-161
	c0-88.8-72.4-161-161-161S22.8,239.3,22.8,328.1 M199.4,130.4l-15.5-5.8l-15.6,5.8l15.6,5.8L199.4,130.4z M231.6,141.6l14.8-1.5
	l-12.2-8.5l-14.8,1.6L231.6,141.6z M208.7,136.6c2.8,0,5-2.2,5-5c0-2.7-2.2-5-5-5c-2.7,0-5,2.2-5,5
	C203.7,134.4,206,136.6,208.7,136.6 M111.3,149.6c2.7,0,5-2.2,5-5c0-2.7-2.2-5-5-5s-5,2.2-5,5C106.3,147.3,108.5,149.6,111.3,149.6
	 M159.1,136.6c2.8,0,5-2.2,5-5c0-2.7-2.2-5-5-5c-2.7,0-5,2.2-5,5C154.1,134.4,156.4,136.6,159.1,136.6 M256.5,149.6c2.7,0,5-2.2,5-5
	c0-2.7-2.2-5-5-5c-2.8,0-5,2.2-5,5C251.5,147.3,253.8,149.6,256.5,149.6 M136.2,141.6l12.2-8.5l-14.8-1.6l-12.2,8.5L136.2,141.6z
	 M104.5,146.5l-5.7-2.1l-0.4-0.9c-0.5,0.2-0.8,0.3-1.2,0.3c-1.5,0.1-1.4-1.6-0.7-2c26.6-12.5,56.1-19.5,87.4-19.5s60.9,7,87.4,19.5
	c0.8,0.4,0.9,2.1-0.7,2c-0.3,0-0.7-0.1-1.2-0.3l-0.4,0.9l-5.7,2.1l1.7,6.6l-0.5,1.1c3,1.4,0.9,3.5-0.3,3
	c-24.4-11.5-51.5-17.9-80.3-17.9s-55.9,6.3-80.3,17.9c-0.6,0.3-1.4,0-1.7-0.7c-0.4-0.8,0-1.3,0.5-1.7c0.3-0.2,0.6-0.4,0.9-0.5
	l-0.5-1.1L104.5,146.5z M272.7,139.4c-27-12.7-57-19.8-88.8-19.8c-31.7,0-61.7,7.1-88.6,19.8c-1.8,0.8-3.8,0-4.6-1.8
	s0.1-3.2,0.8-4.8c-5.5,1.7-9.6,1.7-14.3-2c-8.9,6-19.1-6.3-12.4-11.9c-3.1-4.1-3.2-8.5,1.4-11.4c-0.8-1.4-1.3-2.5-1.3-4.2
	c0-4.6,3.4-6.4,7.3-7.2c-2.3-1.8-4.1-3.4-4.1-6.6c0-4.7,3.7-6.7,7.7-7.1c-1.1-1.7-2-2.9-2-5c0-3.9,3.1-7,7-7c1.2,0,2.4,0.4,3.5,0.7
	c-0.7-1.6-1.4-2.7-1.4-4.5c0-3.9,3.1-7,7-7c1.9,0,3,0.7,4.6,1.5c-0.1-0.8-0.3-1.8-0.3-2.7c0-3.9,3.1-7,7-7c2.1,0,3.4,0.8,5,2
	c0.8-3.7,2.8-6.7,7.1-6.7c3.1,0,4.9,1.7,6.5,4.1c1.7-1.9,3.2-3.1,5.9-3.1c1.1,0,2.1,0.3,3.1,0.5c-0.5-1.4-1.1-2.5-1.1-4
	c0-3.9,3.1-7,7-7c2.2,0,3.5,0.9,5.3,2c-0.2-0.9-0.4-2-0.4-2.9c0-3.9,3.1-7,7-7c2.2,0,3.5,0.9,5.2,2.2c0.8-3.7,2.8-6.7,7.1-6.7
	c2.6,0,4.1,1.2,5.8,2.9c1.4-2.9,3.3-5.1,6.8-5.1c1,0,1.8,0.2,2.8,0.6c2.2-2.5,4.1-3.6,7.1-4.3v-7.4h-5.9V7h5.9V1.6h4.7V7h5.9v4.3
	h-5.9v7.4c3,0.8,4.9,1.9,7.1,4.3c0.9-0.3,1.8-0.6,2.8-0.6c3.6,0,5.5,2.2,6.8,5.1c1.7-1.7,3.2-2.9,5.8-2.9c4.3,0,6.3,3.1,7.1,6.7
	c1.7-1.2,2.9-2.2,5.2-2.2c3.9,0,7,3.1,7,7c0,0.9-0.2,2-0.4,2.9c1.8-1.1,3-2,5.2-2c3.9,0,7,3.1,7,7c0,1.5-0.5,2.6-1.1,4
	c1-0.2,2.1-0.5,3.1-0.5c2.7,0,4.2,1.2,5.9,3.1c1.6-2.4,3.3-4.1,6.5-4.1c4.3,0,6.3,3,7.1,6.7c1.7-1.1,2.9-2,5-2c3.9,0,7,3.1,7,7
	c0,0.9-0.2,1.8-0.3,2.7c1.6-0.8,2.7-1.5,4.6-1.5c3.9,0,7,3.1,7,7c0,1.8-0.6,3-1.4,4.5c1.1-0.3,2.3-0.7,3.5-0.7c3.9,0,7,3.1,7,7
	c0,2.1-0.8,3.3-1.9,5c4,0.4,7.7,2.4,7.7,7.1c0,3.2-1.8,4.8-4.1,6.6c3.8,0.8,7.3,2.6,7.3,7.2c0,1.7-0.5,2.8-1.4,4.2
	c4.6,2.9,4.6,7.3,1.4,11.5c4,3.4,2,8.6-1.5,11.3c-3.5,2.7-7,3.2-10.9,0.6c-4.8,3.7-8.9,3.7-14.4,2l0.8,1.7
	C278.5,137.4,275.7,140.6,272.7,139.4 M86.5,117c2.3,6.1-0.4,8.4-5.5,11c3.1,1.1,5.7,1.9,8.9,0.2c3.2-1.8,4.7-5.1,4.3-8.6
	c-0.8-0.9-1.4-1.9-1.7-3.1c-1-3.8,1.3-7.6,5.1-8.6s7.6,1.3,8.6,5.1c0.1,0.6,0.2,1.1,0.2,1.7c5.3,7.1,16.3,3.3,15.4-6.6
	c-6.1,1.5-9.9,0.9-11.6-5.5c-1.2-4.5-0.2-7.3,4.2-9.4c-0.2-2.5,0-3.4,1.1-5.5c-3.4-1-6-3.1-6-7c0-4.7,3.5-6.4,7.3-7.2
	c-2.3-1.8-4.1-3.3-4.1-6.6c0-0.3,0-0.5-1.6-1.1c-21.9,10.9-28,21.7-29.9,45.6C84.2,112.2,85.5,114.2,86.5,117 M177.9,41.6
	c0-0.5,0.1-1.1,0.1-1.5c-28.1-2.1-48.3,17.1-51,44.1c2.5,1,3.4,2.1,4.6,4.6c4.9-0.3,7.1,1.7,8.2,6.2c1.6,6.4-1.4,8.8-7.5,10.4
	c1.8,4.2,5.5,6.9,10.3,5.7c3.9-1,6.3-4.4,6.4-8.3c-0.7-1.2-1.1-2.4-1.1-3.7c0-3.9,3.1-7,7-7s7.1,3.1,7.1,7c0,0.8-0.1,1.5-0.4,2.3
	c1.1,3.7,4.3,6.3,8.2,6.3c5,0,7.8-3.6,8.5-8.1c-6.2,0-9.8-1.6-9.8-8.2c0-4.7,1.7-7.1,6.4-8.1c1.1-5.8,4-6.2,8.9-7
	c4.8,0.8,7.8,1.2,8.9,7c4.8,0.9,6.4,3.4,6.4,8.1c0,6.6-3.6,8.2-9.8,8.2c0.7,4.5,3.6,8.1,8.6,8.1c4,0,7.1-2.6,8.2-6.3
	c-0.2-0.7-0.4-1.5-0.4-2.2c0-3.9,3.2-7,7-7c3.9,0,7,3.1,7,7c0,1.4-0.4,2.5-1,3.7c0.1,3.9,2.5,7.3,6.4,8.3c4.8,1.2,8.5-1.6,10.3-5.7
	c-6-1.6-9.1-4-7.5-10.4c1.2-4.5,3.4-6.5,8.2-6.2c1.1-2.5,2.1-3.6,4.6-4.6C238.1,57.1,217.9,38,189.8,40c0.1,0.5,0.2,1,0.2,1.5
	c0,1.4-0.4,2.5-1.2,3.6V52c0.8,1.1,1.2,2.2,1.2,3.6c0,1.4-0.4,2.5-1.2,3.6l0.1,7c0.7,1,1.1,2.1,1.1,3.4c0,4-3,5.3-6,6.6
	c-3-1.3-6-2.5-6-6.6c0-1.4,0.4-2.5,1.2-3.6v-6.8c-0.8-1.1-1.2-2.2-1.2-3.6c0-1.4,0.4-2.5,1.2-3.6v-6.8
	C178.3,44.1,177.9,42.9,177.9,41.6 M277.9,128.1c3.2,1.7,5.7,1,8.8-0.2c-5.2-2.6-7.8-4.9-5.5-11c1.1-2.8,2.4-4.8,5.3-5.7
	c-1.9-23.7-8.5-35-30-45.8l-1.6,0.4c0,0.3,0,0.6,0,0.8c0,3.3-1.8,4.8-4.1,6.6c3.8,0.8,7.3,2.6,7.3,7.2c0,3.9-2.6,6-6,7
	c1.1,2.1,1.3,3.1,1.1,5.5c4.4,2.1,5.4,4.9,4.2,9.4c-1.6,6.4-5.5,7-11.6,5.5c-0.9,9.9,10,13.7,15.4,6.6c0-0.6,0.1-1.1,0.2-1.7
	c1-3.8,4.8-6,8.6-5.1c3.8,1,6,4.8,5.1,8.6c-0.3,1.2-0.9,2.2-1.7,3.1C273.2,123.1,274.8,126.4,277.9,128.1 M171.6,33.4
	c2.1,0,3.9-1.7,3.9-3.9s-1.7-3.9-3.9-3.9c-2.1,0-3.9,1.7-3.9,3.9C167.8,31.7,169.5,33.4,171.6,33.4 M183.9,45.4
	c2.1,0,3.9-1.7,3.9-3.9c0-2.1-1.7-3.9-3.9-3.9c-2.1,0-3.9,1.7-3.9,3.9C180,43.7,181.8,45.4,183.9,45.4 M183.9,59.4
	c2.1,0,3.9-1.7,3.9-3.9c0-2.1-1.7-3.9-3.9-3.9c-2.1,0-3.9,1.7-3.9,3.9C180,57.7,181.8,59.4,183.9,59.4 M183.9,73.5
	c2.1,0,3.9-1.7,3.9-3.9c0-2.1-1.7-3.8-3.9-3.8c-2.1,0-3.9,1.7-3.9,3.8C180,71.7,181.8,73.5,183.9,73.5 M159,35.6
	c2.1,0,3.9-1.7,3.9-3.9c0-2.1-1.7-3.9-3.9-3.9c-2.1,0-3.9,1.7-3.9,3.9C155.1,33.9,156.9,35.6,159,35.6 M146.7,40.2
	c2.1,0,3.9-1.8,3.9-3.9c0-2.1-1.7-3.9-3.9-3.9c-2.1,0-3.9,1.7-3.9,3.9C142.8,38.4,144.6,40.2,146.7,40.2 M134.9,48.1
	c2.1,0,3.8-1.7,3.8-3.9c0-2.1-1.7-3.9-3.8-3.9S131,42,131,44.2C131,46.3,132.7,48.1,134.9,48.1 M125.8,58.5c2.2,0,3.9-1.7,3.9-3.8
	s-1.7-3.9-3.9-3.9c-2.1,0-3.9,1.7-3.9,3.9C121.9,56.8,123.6,58.5,125.8,58.5 M113.4,57.5c2.1,0,3.9-1.7,3.9-3.9
	c0-2.1-1.7-3.9-3.9-3.9c-2.1,0-3.9,1.7-3.9,3.9C109.5,55.8,111.3,57.5,113.4,57.5 M101.3,62.2c2.1,0,3.9-1.7,3.9-3.9
	c0-2.1-1.7-3.9-3.9-3.9c-2.1,0-3.9,1.7-3.9,3.9S99.1,62.2,101.3,62.2 M90,70.4c2.1,0,3.9-1.7,3.9-3.9c0-2.1-1.7-3.9-3.9-3.9
	c-2.1,0-3.9,1.8-3.9,3.9C86.1,68.7,87.9,70.4,90,70.4 M80.8,81.2c2.1,0,3.8-1.7,3.8-3.9c0-2.1-1.7-3.9-3.8-3.9
	c-2.2,0-3.9,1.7-3.9,3.9C77,79.5,78.7,81.2,80.8,81.2 M75.1,93.3c2.1,0,3.9-1.7,3.9-3.9c0-2.1-1.7-3.9-3.9-3.9
	c-2.1,0-3.9,1.7-3.9,3.9C71.2,91.6,72.9,93.3,75.1,93.3 M71.9,107.1c2.1,0,3.8-1.7,3.8-3.9c0-2.1-1.7-3.9-3.8-3.9
	c-2.2,0-3.9,1.7-3.9,3.9C68,105.4,69.7,107.1,71.9,107.1 M119.7,70.7c2.1,0,3.9-1.7,3.9-3.9c0-2.1-1.7-3.8-3.9-3.8
	c-2.1,0-3.9,1.7-3.9,3.8C115.8,69,117.6,70.7,119.7,70.7 M116.5,84.5c2.1,0,3.9-1.7,3.9-3.9c0-2.1-1.7-3.9-3.9-3.9
	c-2.1,0-3.9,1.7-3.9,3.9S114.4,84.5,116.5,84.5 M183.9,96.6c3.8,0,6.9-3.1,6.9-6.9s-3.1-6.9-6.9-6.9c-3.8,0-6.9,3.1-6.9,6.9
	C177,93.5,180.1,96.6,183.9,96.6 M126.3,103.9c3.7-1,6-4.7,5-8.4c-1-3.7-4.7-6-8.5-5c-3.7,1-5.9,4.7-5,8.5
	C118.8,102.6,122.6,104.8,126.3,103.9 M76.7,127.4c3.4-1.9,4.6-6.1,2.7-9.4c-1.9-3.4-6.1-4.6-9.4-2.7c-3.4,1.9-4.6,6.1-2.7,9.4
	C69.1,128,73.3,129.3,76.7,127.4 M196.2,25.7c-2.1,0-3.9,1.7-3.9,3.9c0,2.1,1.7,3.9,3.9,3.9c2.1,0,3.9-1.7,3.9-3.9
	C200,27.4,198.3,25.7,196.2,25.7 M208.8,27.9c-2.1,0-3.9,1.7-3.9,3.9c0,2.1,1.7,3.9,3.9,3.9c2.1,0,3.9-1.7,3.9-3.9
	C212.6,29.6,210.9,27.9,208.8,27.9 M221.1,32.4c-2.1,0-3.9,1.7-3.9,3.9c0,2.1,1.7,3.9,3.9,3.9c2.1,0,3.9-1.8,3.9-3.9
	C225,34.2,223.2,32.4,221.1,32.4 M232.9,40.3c-2.1,0-3.9,1.7-3.9,3.9c0,2.1,1.7,3.9,3.9,3.9c2.1,0,3.9-1.7,3.9-3.9
	C236.8,42.1,235.1,40.3,232.9,40.3 M242,50.8c-2.1,0-3.9,1.7-3.9,3.9c0,2.1,1.7,3.8,3.9,3.8c2.1,0,3.9-1.7,3.9-3.8
	C245.9,52.5,244.1,50.8,242,50.8 M254.4,49.8c-2.1,0-3.9,1.7-3.9,3.9c0,2.1,1.7,3.9,3.9,3.9c2.1,0,3.9-1.7,3.9-3.9
	C258.2,51.5,256.5,49.8,254.4,49.8 M266.5,54.5c-2.1,0-3.9,1.7-3.9,3.9c0,2.1,1.7,3.9,3.9,3.9c2.1,0,3.9-1.7,3.9-3.9
	S268.6,54.5,266.5,54.5 M277.8,62.7c-2.1,0-3.9,1.8-3.9,3.9s1.7,3.9,3.9,3.9c2.1,0,3.9-1.7,3.9-3.9
	C281.7,64.4,279.9,62.7,277.8,62.7 M287,73.5c-2.1,0-3.9,1.7-3.9,3.9c0,2.1,1.7,3.9,3.9,3.9c2.1,0,3.9-1.7,3.9-3.9
	C290.8,75.2,289.1,73.5,287,73.5 M292.7,85.6c-2.1,0-3.9,1.7-3.9,3.9c0,2.1,1.7,3.9,3.9,3.9c2.1,0,3.9-1.7,3.9-3.9
	C296.6,87.3,294.9,85.6,292.7,85.6 M295.9,99.4c-2.1,0-3.9,1.7-3.9,3.9c0,2.1,1.7,3.9,3.9,3.9c2.1,0,3.9-1.7,3.9-3.9
	S298.1,99.4,295.9,99.4 M248.1,63c-2.1,0-3.9,1.7-3.9,3.8c0,2.2,1.7,3.9,3.9,3.9c2.1,0,3.9-1.7,3.9-3.9
	C251.9,64.7,250.2,63,248.1,63 M251.3,76.8c-2.1,0-3.9,1.7-3.9,3.9c0,2.1,1.7,3.9,3.9,3.9c2.1,0,3.9-1.7,3.9-3.9
	S253.4,76.8,251.3,76.8 M245,90.4c-3.7-1-7.5,1.3-8.5,5s1.3,7.5,5,8.4c3.7,1,7.5-1.3,8.4-5C250.9,95.2,248.7,91.4,245,90.4
	 M297.8,115.2c-3.4-1.8-7.6-0.6-9.4,2.7c-1.8,3.4-0.6,7.6,2.7,9.4c3.4,1.9,7.6,0.6,9.5-2.7C302.4,121.3,301.2,117.1,297.8,115.2
	 M212.6,107.7c-0.6,0-1.2-0.1-1.7-0.2c-1.3,1.8-3.1,3.4-5.1,4.5c3.6,0.4,7.1,0.8,10.6,1.3c-1.5-1.5-2.8-3.3-3.6-5.2L212.6,107.7z
	 M155.1,107.7c-0.8,2.1-2.1,4-3.8,5.6c3.5-0.5,7.1-1,10.7-1.3c-2-1.1-3.7-2.7-5.1-4.5C156.3,107.6,155.7,107.7,155.1,107.7
	 M134.5,116.5c-2.5-1.1-4.7-2.9-6.3-5.1c-0.3,2.7-1.4,5.3-3,7.5C128.3,118,131.4,117.2,134.5,116.5 M98.9,128.1
	c3.3-1.4,6.6-2.7,9.9-3.9c-1.7-0.5-3.4-1.2-4.8-2.2c-0.8,0.5-1.6,0.9-2.5,1.1l-0.5,0.1C100.5,124.9,99.9,126.6,98.9,128.1
	 M183.9,104.4c-1,2.6-2.7,4.9-4.9,6.6c1.6,0,3.3-0.1,4.9-0.1c1.6,0,3.2,0,4.8,0.1C186.6,109.2,184.9,107,183.9,104.4 M263.8,122
	c-1.5,1-3.1,1.7-4.8,2.2c3.3,1.2,6.6,2.5,9.9,3.9c-0.9-1.5-1.6-3.2-2-4.9l-0.5-0.1C265.4,122.9,264.6,122.5,263.8,122 M242.6,118.9
	c-1.6-2.1-2.7-4.7-3-7.5c-1.6,2.3-3.8,4-6.3,5.1C236.4,117.2,239.5,118,242.6,118.9"/>
<path id="XMLID_232_" class="st3" d="M199.4,130.4l-15.5,5.8l-15.6-5.8l15.6-5.8L199.4,130.4z M196.3,130.4l-12.4-4.6l-12.4,4.6
	l12.4,4.6L196.3,130.4z M136.2,141.6l-14.8-1.5l12.2-8.5l14.8,1.6L136.2,141.6z M256.5,149.6c-2.8,0-5-2.2-5-5c0-2.7,2.2-5,5-5
	c2.7,0,5,2.2,5,5C261.5,147.3,259.3,149.6,256.5,149.6 M256.5,148.5c2.1,0,3.9-1.7,3.9-3.9c0-2.1-1.7-3.9-3.9-3.9
	c-2.1,0-3.9,1.7-3.9,3.9C252.7,146.7,254.4,148.5,256.5,148.5 M159.1,136.6c-2.7,0-5-2.2-5-5c0-2.7,2.2-5,5-5s5,2.2,5,5
	C164.1,134.4,161.9,136.6,159.1,136.6 M159.1,135.5c2.1,0,3.9-1.7,3.9-3.9c0-2.1-1.7-3.9-3.9-3.9c-2.1,0-3.9,1.7-3.9,3.9
	C155.2,133.8,157,135.5,159.1,135.5 M111.3,149.6c-2.8,0-5-2.2-5-5c0-2.7,2.2-5,5-5c2.7,0,5,2.2,5,5
	C116.2,147.3,114,149.6,111.3,149.6 M111.3,148.5c2.1,0,3.9-1.7,3.9-3.9c0-2.1-1.7-3.9-3.9-3.9c-2.1,0-3.9,1.7-3.9,3.9
	C107.4,146.7,109.1,148.5,111.3,148.5 M208.7,135.5c2.1,0,3.9-1.7,3.9-3.9c0-2.1-1.7-3.9-3.9-3.9c-2.1,0-3.9,1.7-3.9,3.9
	S206.6,135.5,208.7,135.5 M208.7,136.6c-2.7,0-5-2.2-5-5c0-2.7,2.2-5,5-5s5,2.2,5,5C213.7,134.4,211.5,136.6,208.7,136.6
	 M231.6,141.6l-12.2-8.5l14.8-1.6l12.2,8.5L231.6,141.6z M256.7,67.1c-0.1,2.1-0.9,4.1-2.2,5.5c3.2,1.3,5.4,4.4,5.4,8v0.6
	c4.3,1,8.9,2.1,12.9,3.7c2.9,1.1,5.2,2.5,7.2,4C275.9,80.1,268.8,73.6,256.7,67.1 M259.8,82.4c-0.6,2.8-2.5,5.2-5.1,6.3
	c0.4,1,0.5,2.2,0.5,3.5c4.8,2.5,5.2,6.7,4.1,10.8c-1.3,4.9-4.3,8.6-11.6,7.2c0.3,6.3,8.3,8.8,12.2,4c0.1-0.5,0.1-1,0.2-1.5
	c1.2-4.6,5.9-7.5,10.6-6.2c4.7,1.2,7.5,5.9,6.3,10.6c-0.3,1.3-0.9,2.4-1.8,3.4c-0.2,4.2,3.2,7.5,7.3,7.3c-4.3-3-4.3-7.1-2.7-11.1
	c1-2.5,2.5-5.2,5.1-6.3c-0.6-7.5-1.8-13.7-3.9-19c-2.1-1.8-4.9-3.7-8.5-5.1C268.6,84.5,263.9,83.3,259.8,82.4 M277.9,128.1
	c-3.2-1.8-4.7-5.1-4.4-8.6c0.8-0.9,1.4-1.9,1.7-3.1c1-3.8-1.3-7.6-5.1-8.6s-7.6,1.3-8.6,5.1c-0.1,0.6-0.2,1.1-0.2,1.7
	c-5.3,7.1-16.2,3.3-15.4-6.6c6.1,1.5,9.9,0.9,11.6-5.5c1.2-4.5,0.2-7.3-4.2-9.4c0.2-2.5,0-3.4-1.1-5.5c3.4-1,6-3.1,6-7
	c0-4.7-3.5-6.4-7.3-7.2c2.3-1.8,4.1-3.3,4.1-6.6c0-0.3,0-0.5,0-0.8l1.6-0.5c21.5,10.7,28.1,22.1,30,45.8c-3,0.9-4.3,2.9-5.3,5.7
	c-2.3,6.1,0.4,8.4,5.5,11C283.7,129.1,281.1,129.9,277.9,128.1 M111.1,67.3C99,73.6,91.9,80.1,87.8,89c2.2-1.6,4.5-3,7.1-4
	c3.9-1.5,8.7-2.8,13-3.7v-0.6c0-3.7,2.2-6.8,5.4-8C112,71.2,111.2,69.4,111.1,67.3 M86.9,91.1c-2.1,5.3-3.3,11.5-3.9,19
	c2.6,1.1,4.1,3.7,5.1,6.3c1.5,4,1.5,8.1-2.8,11.1c1.3,0.1,2.6-0.2,3.7-0.8c2.4-1.3,3.7-3.9,3.6-6.4c-0.8-1-1.4-2.1-1.7-3.4
	c-1.2-4.7,1.6-9.4,6.3-10.6c4.6-1.2,9.4,1.6,10.6,6.2c0.1,0.5,0.2,1,0.2,1.6c3.9,4.9,11.9,2.3,12.2-4c-7.3,1.5-10.4-2.2-11.6-7.2
	c-1.1-4.1-0.6-8.3,4.1-10.8c0-1.3,0.2-2.5,0.5-3.5c-2.6-1.1-4.6-3.4-5.2-6.3c-4.2,0.9-8.9,2.2-12.7,3.7
	C91.7,87.4,88.9,89.3,86.9,91.1 M86.5,117c-1.1-2.8-2.4-4.8-5.3-5.7c1.9-23.9,8-34.8,29.6-45.7c1.9,0.7,1.9,1,1.9,1.2
	c0,3.3,1.8,4.8,4.1,6.6c-3.8,0.8-7.3,2.6-7.3,7.2c0,3.9,2.6,6,6,7c-1.1,2.1-1.3,3.1-1.1,5.5c-4.4,2.1-5.4,4.9-4.2,9.4
	c1.6,6.4,5.5,7,11.6,5.5c0.9,9.9-10,13.7-15.4,6.6c0-0.6-0.1-1.1-0.2-1.7c-1-3.8-4.8-6-8.6-5.1c-3.8,1-6,4.8-5.1,8.6
	c0.3,1.2,0.9,2.2,1.7,3.1c0.3,3.5-1.2,6.8-4.3,8.6c-3.2,1.7-5.7,1-8.9-0.2C86.2,125.4,88.9,123.1,86.5,117 M298.3,114.3
	c3.9,2.2,5.3,7.1,3.2,11c-2.2,3.9-7,5.3-11,3.2c-3.9-2.1-5.3-7-3.2-10.9C289.5,113.5,294.4,112.1,298.3,114.3 M297.8,115.2
	c-3.4-1.9-7.6-0.6-9.4,2.7c-1.8,3.4-0.6,7.6,2.7,9.4c3.4,1.9,7.6,0.6,9.4-2.7C302.4,121.3,301.2,117.1,297.8,115.2 M171.6,34.5
	c-2.8,0-5-2.2-5-5s2.2-5,5-5c2.7,0,5,2.2,5,5S174.4,34.5,171.6,34.5 M171.6,33.4c2.1,0,3.9-1.7,3.9-3.9s-1.7-3.9-3.9-3.9
	c-2.1,0-3.9,1.7-3.9,3.9C167.8,31.7,169.5,33.4,171.6,33.4 M183.9,46.5c-2.8,0-5-2.2-5-5c0-2.7,2.2-5,5-5c2.7,0,5,2.2,5,5
	S186.6,46.5,183.9,46.5 M183.9,45.4c2.1,0,3.9-1.7,3.9-3.9c0-2.1-1.7-3.9-3.9-3.9c-2.1,0-3.9,1.7-3.9,3.9
	C180,43.7,181.8,45.4,183.9,45.4 M183.9,60.6c-2.8,0-5-2.2-5-5c0-2.7,2.2-5,5-5c2.7,0,5,2.2,5,5C188.9,58.3,186.6,60.6,183.9,60.6
	 M183.9,59.4c2.1,0,3.9-1.7,3.9-3.9c0-2.1-1.7-3.9-3.9-3.9c-2.1,0-3.9,1.7-3.9,3.9C180,57.7,181.8,59.4,183.9,59.4 M183.9,74.6
	c-2.8,0-5-2.3-5-5s2.2-5,5-5c2.7,0,5,2.2,5,5C188.9,72.3,186.6,74.6,183.9,74.6 M183.9,73.5c2.1,0,3.9-1.7,3.9-3.9
	c0-2.1-1.7-3.8-3.9-3.8c-2.1,0-3.9,1.7-3.9,3.8C180,71.7,181.8,73.5,183.9,73.5 M159,36.7c-2.8,0-5-2.2-5-5s2.2-5,5-5
	c2.7,0,5,2.2,5,5S161.8,36.7,159,36.7 M159,35.6c2.1,0,3.9-1.7,3.9-3.9c0-2.1-1.7-3.9-3.9-3.9c-2.1,0-3.9,1.7-3.9,3.9
	C155.1,33.9,156.9,35.6,159,35.6 M146.7,41.3c-2.7,0-5-2.2-5-5s2.2-5,5-5c2.7,0,5,2.2,5,5S149.4,41.3,146.7,41.3 M146.7,40.2
	c2.1,0,3.9-1.8,3.9-3.9c0-2.1-1.7-3.9-3.9-3.9c-2.1,0-3.9,1.7-3.9,3.9C142.8,38.4,144.6,40.2,146.7,40.2 M134.9,49.2
	c-2.7,0-5-2.2-5-5s2.3-5,5-5s5,2.2,5,5C139.8,47,137.6,49.2,134.9,49.2 M134.9,48.1c2.1,0,3.8-1.7,3.8-3.9c0-2.1-1.7-3.9-3.8-3.9
	S131,42,131,44.2C131,46.3,132.7,48.1,134.9,48.1 M125.8,59.6c-2.8,0-5-2.2-5-5c0-2.7,2.2-5,5-5c2.7,0,5,2.2,5,5
	C130.8,57.4,128.5,59.6,125.8,59.6 M125.8,58.5c2.2,0,3.9-1.7,3.9-3.8s-1.7-3.9-3.9-3.9c-2.1,0-3.9,1.7-3.9,3.9
	C121.9,56.8,123.6,58.5,125.8,58.5 M113.4,58.6c-2.8,0-5-2.2-5-5c0-2.7,2.2-5,5-5s5,2.2,5,5C118.4,56.4,116.2,58.6,113.4,58.6
	 M113.4,57.5c2.1,0,3.9-1.7,3.9-3.9c0-2.1-1.7-3.9-3.9-3.9c-2.1,0-3.9,1.7-3.9,3.9C109.5,55.8,111.3,57.5,113.4,57.5 M101.3,63.3
	c-2.7,0-5-2.2-5-5s2.2-5,5-5c2.7,0,5,2.2,5,5C106.2,61.1,104,63.3,101.3,63.3 M101.3,62.2c2.1,0,3.9-1.7,3.9-3.9
	c0-2.1-1.7-3.9-3.9-3.9c-2.1,0-3.9,1.7-3.9,3.9S99.1,62.2,101.3,62.2 M90,71.5c-2.7,0-5-2.2-5-5c0-2.7,2.2-5,5-5c2.7,0,5,2.2,5,5
	C95,69.3,92.7,71.5,90,71.5 M90,70.4c2.1,0,3.9-1.7,3.9-3.9c0-2.1-1.7-3.9-3.9-3.9c-2.1,0-3.9,1.8-3.9,3.9
	C86.1,68.7,87.9,70.4,90,70.4 M80.8,82.3c-2.8,0-5-2.2-5-5c0-2.7,2.2-5,5-5c2.7,0,4.9,2.3,4.9,5C85.8,80.1,83.6,82.3,80.8,82.3
	 M80.8,81.2c2.1,0,3.8-1.7,3.8-3.9c0-2.1-1.7-3.9-3.8-3.9c-2.2,0-3.9,1.7-3.9,3.9C77,79.5,78.7,81.2,80.8,81.2 M75.1,94.4
	c-2.7,0-5-2.2-5-5c0-2.7,2.2-5,5-5c2.7,0,5,2.2,5,5C80,92.2,77.8,94.4,75.1,94.4 M75.1,93.3c2.1,0,3.9-1.7,3.9-3.9
	c0-2.1-1.7-3.9-3.9-3.9c-2.1,0-3.9,1.7-3.9,3.9C71.2,91.6,72.9,93.3,75.1,93.3 M71.9,108.2c-2.8,0-5-2.2-5-5s2.2-5,5-5
	c2.7,0,4.9,2.2,4.9,5S74.6,108.2,71.9,108.2 M71.9,107.1c2.1,0,3.8-1.7,3.8-3.9c0-2.1-1.7-3.9-3.8-3.9c-2.2,0-3.9,1.7-3.9,3.9
	C68,105.4,69.7,107.1,71.9,107.1 M119.7,71.8c-2.7,0-5-2.2-5-5c0-2.8,2.2-5,5-5c2.7,0,5,2.2,5,5C124.7,69.6,122.5,71.8,119.7,71.8
	 M119.7,70.7c2.1,0,3.9-1.7,3.9-3.9c0-2.1-1.7-3.8-3.9-3.8c-2.1,0-3.9,1.7-3.9,3.8C115.8,69,117.6,70.7,119.7,70.7 M116.5,85.6
	c-2.7,0-5-2.2-5-5s2.2-5,5-5c2.7,0,5,2.2,5,5S119.2,85.6,116.5,85.6 M116.5,84.5c2.1,0,3.9-1.7,3.9-3.9c0-2.1-1.7-3.9-3.9-3.9
	c-2.1,0-3.9,1.7-3.9,3.9S114.4,84.5,116.5,84.5 M183.9,97.7c-4.4,0-8.1-3.6-8.1-8.1c0-4.4,3.6-8.1,8.1-8.1c4.4,0,8,3.6,8,8.1
	C192,94.1,188.3,97.7,183.9,97.7 M183.9,96.6c3.8,0,6.9-3.1,6.9-6.9s-3.1-6.9-6.9-6.9c-3.8,0-7,3.1-7,6.9
	C177,93.5,180.1,96.6,183.9,96.6 M126.6,105c-4.3,1.1-8.7-1.5-9.8-5.8s1.5-8.7,5.8-9.8c4.3-1.1,8.7,1.5,9.8,5.8
	C133.5,99.5,130.9,103.9,126.6,105 M126.3,103.9c3.7-1,6-4.7,5-8.4c-1-3.7-4.7-6-8.5-5c-3.7,1-5.9,4.7-5,8.5
	C118.8,102.6,122.6,104.8,126.3,103.9 M77.2,128.4c-3.9,2.1-8.8,0.7-10.9-3.2c-2.2-3.9-0.8-8.8,3.1-11c3.9-2.1,8.8-0.7,11,3.2
	C82.6,121.3,81.1,126.2,77.2,128.4 M76.7,127.4c3.4-1.8,4.6-6.1,2.7-9.4c-1.9-3.4-6.1-4.6-9.4-2.7c-3.4,1.8-4.6,6.1-2.7,9.4
	C69.1,128,73.3,129.3,76.7,127.4 M196.2,24.6c2.8,0,5,2.2,5,5c0,2.7-2.2,5-5,5c-2.7,0-5-2.2-5-5S193.4,24.6,196.2,24.6 M196.2,25.7
	c-2.1,0-3.9,1.7-3.9,3.9c0,2.1,1.7,3.9,3.9,3.9c2.1,0,3.9-1.7,3.9-3.9C200,27.4,198.3,25.7,196.2,25.7 M208.8,26.8c2.7,0,5,2.2,5,5
	c0,2.7-2.2,5-5,5s-5-2.2-5-5S206,26.8,208.8,26.8 M208.8,27.9c-2.1,0-3.9,1.7-3.9,3.9c0,2.1,1.7,3.9,3.9,3.9c2.1,0,3.9-1.7,3.9-3.9
	C212.6,29.6,210.9,27.9,208.8,27.9 M221.1,31.3c2.7,0,5,2.2,5,5c0,2.7-2.2,5-5,5s-5-2.2-5-5S218.3,31.3,221.1,31.3 M221.1,32.5
	c-2.1,0-3.9,1.7-3.9,3.9c0,2.1,1.7,3.9,3.9,3.9c2.1,0,3.9-1.8,3.9-3.9C225,34.2,223.2,32.5,221.1,32.5 M233,39.2c2.7,0,5,2.2,5,5
	c0,2.7-2.2,5-5,5s-5-2.2-5-5C228,41.5,230.2,39.2,233,39.2 M233,40.3c-2.1,0-3.9,1.7-3.9,3.9c0,2.1,1.7,3.9,3.9,3.9
	c2.1,0,3.9-1.7,3.9-3.9C236.8,42.1,235.1,40.3,233,40.3 M242,49.7c2.7,0,5,2.2,5,5c0,2.7-2.2,5-5,5c-2.7,0-5-2.2-5-5
	S239.3,49.7,242,49.7 M242,50.8c-2.1,0-3.9,1.7-3.9,3.9c0,2.1,1.7,3.8,3.9,3.8c2.1,0,3.9-1.7,3.9-3.8
	C245.9,52.5,244.1,50.8,242,50.8 M254.4,48.6c2.7,0,5,2.2,5,5s-2.2,5-5,5c-2.7,0-5-2.2-5-5C249.4,50.9,251.6,48.6,254.4,48.6
	 M254.4,49.8c-2.1,0-3.9,1.7-3.9,3.9c0,2.1,1.7,3.9,3.9,3.9c2.1,0,3.9-1.7,3.9-3.9C258.2,51.5,256.5,49.8,254.4,49.8 M266.5,53.4
	c2.8,0,5,2.2,5,5c0,2.7-2.2,5-5,5c-2.7,0-5-2.2-5-5C261.5,55.6,263.8,53.4,266.5,53.4 M266.5,54.5c-2.1,0-3.9,1.7-3.9,3.9
	c0,2.1,1.7,3.9,3.9,3.9c2.1,0,3.9-1.7,3.9-3.9S268.6,54.5,266.5,54.5 M277.8,61.6c2.7,0,5,2.2,5,5c0,2.8-2.2,5-5,5s-5-2.2-5-5
	C272.8,63.8,275,61.6,277.8,61.6 M277.8,62.7c-2.1,0-3.9,1.8-3.9,3.9s1.7,3.9,3.9,3.9c2.1,0,3.9-1.7,3.9-3.9
	C281.7,64.4,279.9,62.7,277.8,62.7 M287,72.3c2.7,0,5,2.3,5,5s-2.2,5-5,5s-5-2.2-5-5C282,74.6,284.2,72.3,287,72.3 M287,73.5
	c-2.1,0-3.9,1.7-3.9,3.9c0,2.1,1.7,3.9,3.9,3.9c2.1,0,3.9-1.7,3.9-3.9C290.8,75.2,289.1,73.5,287,73.5 M292.7,84.5c2.8,0,5,2.2,5,5
	s-2.2,5-5,5c-2.7,0-5-2.2-5-5C287.8,86.7,290,84.5,292.7,84.5 M292.7,85.6c-2.1,0-3.9,1.7-3.9,3.9c0,2.1,1.7,3.9,3.9,3.9
	c2.1,0,3.9-1.7,3.9-3.9C296.6,87.3,294.9,85.6,292.7,85.6 M295.9,98.3c2.7,0,5,2.2,5,5c0,2.7-2.2,5-5,5s-5-2.2-5-5
	C291,100.5,293.2,98.3,295.9,98.3 M295.9,99.4c-2.1,0-3.9,1.7-3.9,3.9c0,2.1,1.7,3.9,3.9,3.9c2.1,0,3.9-1.7,3.9-3.9
	S298.1,99.4,295.9,99.4 M248.1,61.8c2.7,0,5,2.2,5,5c0,2.8-2.2,5-5,5c-2.7,0-5-2.2-5-5C243.1,64.1,245.3,61.8,248.1,61.8 M248.1,63
	c-2.1,0-3.9,1.7-3.9,3.8c0,2.2,1.7,3.9,3.9,3.9c2.1,0,3.9-1.7,3.9-3.9C251.9,64.7,250.2,63,248.1,63 M251.3,75.7c2.7,0,5,2.2,5,5
	c0,2.7-2.2,5-5,5s-5-2.2-5-5C246.3,77.9,248.5,75.7,251.3,75.7 M251.3,76.8c-2.1,0-3.9,1.7-3.9,3.9c0,2.1,1.7,3.9,3.9,3.9
	c2.1,0,3.9-1.7,3.9-3.9S253.4,76.8,251.3,76.8 M245.3,89.4c4.3,1.1,6.9,5.5,5.8,9.8s-5.5,6.9-9.8,5.8s-6.9-5.5-5.8-9.8
	C236.5,90.8,240.9,88.2,245.3,89.4 M245,90.4c-3.7-1-7.5,1.3-8.5,5s1.3,7.5,5,8.4c3.7,1,7.5-1.3,8.4-5
	C250.9,95.2,248.7,91.4,245,90.4 M242.6,118.9c-1.6-2.1-2.7-4.7-3-7.5c-1.6,2.3-3.8,4-6.3,5.1C236.4,117.2,239.5,118,242.6,118.9
	 M245.8,119.9l-0.8,1.4c-4.9-1.5-10-2.8-15.1-3.9v-1.6c4.2-0.9,7.9-3.8,9.6-7.9l1.6,0.4C240.7,112.8,242.5,117.1,245.8,119.9
	 M212.6,107.7c-0.6,0-1.2-0.1-1.7-0.2c-1.4,1.8-3.1,3.4-5.1,4.5c3.6,0.4,7.1,0.8,10.6,1.3c-1.5-1.5-2.8-3.3-3.6-5.2L212.6,107.7z
	 M202.5,113.3l-0.2-1.6c3.4-1.1,5.9-3.2,7.9-6.1c0.9,0.3,1.7,0.5,2.6,0.5l1-0.1c1.2,3.4,3,6,6.1,7.9l-0.6,1.5
	C213.8,114.5,208.2,113.8,202.5,113.3 M155.1,107.7c-0.8,2.1-2.1,4-3.8,5.6c3.5-0.5,7.1-1,10.7-1.3c-2-1.1-3.7-2.7-5.1-4.5
	C156.3,107.6,155.7,107.7,155.1,107.7 M148.5,115.4l-0.6-1.5c3-1.9,4.9-4.5,6.1-7.9l1,0.1c0.9,0,1.7-0.2,2.6-0.5c2,3,4.5,5,7.9,6.1
	l-0.2,1.6C159.6,113.8,154,114.5,148.5,115.4 M134.5,116.5c-2.5-1.1-4.7-2.9-6.3-5.1c-0.3,2.7-1.4,5.3-3,7.5
	C128.3,118,131.4,117.2,134.5,116.5 M137.8,115.8v1.6c-5.1,1.1-10.1,2.4-15.1,3.9l-0.8-1.4c3.3-2.8,5.1-7.1,4.6-11.6l1.6-0.4
	C129.9,112,133.5,115,137.8,115.8 M98.9,128.1c3.3-1.4,6.6-2.7,9.9-3.9c-1.7-0.5-3.4-1.2-4.8-2.2c-0.8,0.5-1.6,0.9-2.5,1.1l-0.5,0.1
	C100.5,124.9,99.9,126.6,98.9,128.1 M96.7,130.9l-0.9-1.3c2.1-2.3,3.2-4.8,3.8-7.8c2-0.3,2.7-0.5,4.5-1.8c2.5,1.8,5,2.9,8.1,3.1
	l0.2,1.6C107,126.5,101.8,128.6,96.7,130.9 M183.9,104.4c-1,2.6-2.7,4.9-4.9,6.6c1.6,0,3.3-0.1,4.9-0.1c1.6,0,3.2,0,4.9,0.1
	C186.6,109.2,184.9,107,183.9,104.4 M183.1,100.9h1.6c0.6,4.5,3.5,8.2,7.5,10.1l-0.4,1.6c-2.6-0.1-5.2-0.2-7.9-0.2
	c-2.6,0-5.3,0.1-7.9,0.2l-0.4-1.6C179.6,109.2,182.4,105.4,183.1,100.9 M263.8,122c-1.5,1-3.1,1.7-4.8,2.2c3.3,1.2,6.7,2.5,9.9,3.9
	c-0.9-1.5-1.6-3.2-2-4.9l-0.5-0.1C265.4,122.9,264.6,122.5,263.8,122 M263.3,120.3l0.5-0.4c1,0.7,1.7,1.2,2.9,1.5
	c0.5,0.1,1,0.2,1.5,0.3c0.6,3.1,1.7,5.5,3.8,7.8l-0.9,1.3c-5.1-2.3-10.3-4.3-15.7-6.2l0.2-1.6C258.5,122.9,261.1,121.9,263.3,120.3
	 M176.2,41.6c-21.4-1.2-37.4,11.1-44.2,28.3c13.4-7,30.7-8.7,45.4-6.5v-3.6c-0.7-1.2-1.2-2.6-1.2-4.1s0.4-2.9,1.2-4.1v-5.8
	C176.7,44.5,176.2,43.1,176.2,41.6 M131.4,71.5c-1.3,3.7-2.2,7.6-2.7,11.6c1.5,0.7,2.8,2,3.8,3.9c5.4-0.1,7.7,3.3,8.8,7.5
	c1.3,4.9,0.4,9.6-6.7,11.9c1.5,2.5,4.6,3.8,7.6,3s5-3.4,5.1-6.3c-0.7-1.2-1.1-2.6-1.1-4.1c0-4.8,3.9-8.7,8.7-8.7s8.7,3.9,8.7,8.7
	c0,0.8-0.1,1.5-0.3,2.2c0.9,2.7,3.5,4.7,6.5,4.7c3.1,0,5.7-2,6.6-4.8c-7.4-0.4-9.5-4.7-9.5-9.8c0-4.3,1.4-8.2,6.7-9.4
	c0.8-3.5,2.8-5.4,5.4-6.3c-1.7-1.4-2.8-3.5-2.8-6c0-1.5,0.4-2.9,1.2-4.1v-1C163.4,62.4,145.3,63.8,131.4,71.5 M177.9,41.6
	c0,1.4,0.4,2.5,1.2,3.6V52c-0.8,1.1-1.2,2.2-1.2,3.6c0,1.4,0.4,2.5,1.2,3.6V66c-0.8,1.1-1.2,2.2-1.2,3.6c0,4,3,5.3,6,6.6
	c3-1.3,6-2.5,6-6.6c0-1.3-0.4-2.4-1.1-3.4l-0.1-7c0.8-1.1,1.2-2.2,1.2-3.6c0-1.4-0.4-2.5-1.2-3.6v-6.8c0.8-1.1,1.2-2.2,1.2-3.6
	c0-0.5-0.1-1-0.2-1.5c28.2-2.1,48.3,17.1,51.1,44.1c-2.5,1-3.4,2.1-4.6,4.6c-4.8-0.3-7.1,1.7-8.2,6.2c-1.6,6.4,1.4,8.8,7.5,10.4
	c-1.8,4.2-5.5,6.9-10.3,5.7c-3.9-1-6.3-4.4-6.4-8.3c0.7-1.2,1-2.4,1-3.7c0-3.9-3.1-7-7-7s-7,3.2-7,7c0,0.8,0.1,1.5,0.4,2.2
	c-1.1,3.7-4.2,6.3-8.2,6.3c-5,0-7.8-3.6-8.6-8.1c6.3,0,9.8-1.7,9.8-8.2c0-4.7-1.7-7.1-6.4-8.1c-1.1-5.8-4-6.2-8.9-7
	c-4.9,0.8-7.8,1.2-8.9,7c-4.8,0.9-6.4,3.4-6.4,8.1c0,6.6,3.6,8.2,9.8,8.2c-0.7,4.5-3.6,8.1-8.5,8.1c-4,0-7.1-2.6-8.2-6.3
	c0.2-0.8,0.4-1.5,0.4-2.3c0-3.9-3.1-7-7-7s-7,3.2-7,7c0,1.4,0.4,2.6,1.1,3.7c-0.1,3.9-2.5,7.3-6.4,8.3c-4.8,1.2-8.5-1.6-10.3-5.7
	c6.1-1.6,9.1-4,7.5-10.4c-1.2-4.5-3.4-6.5-8.2-6.2c-1.1-2.5-2.1-3.6-4.6-4.6c2.8-27,22.9-46.2,51-44.1C178,40.5,177.9,41,177.9,41.6
	 M190.4,65.5c0.8,1.2,1.2,2.6,1.2,4.1c0,2.4-1.1,4.5-2.8,6c2.6,0.9,4.6,2.8,5.4,6.3c5.2,1.3,6.7,5.2,6.7,9.4c0,5.1-2.1,9.4-9.5,9.8
	c0.9,2.8,3.5,4.8,6.5,4.8s5.6-2,6.5-4.7c-0.2-0.7-0.3-1.5-0.3-2.2c0-4.8,3.9-8.7,8.7-8.7c4.8,0,8.7,3.9,8.7,8.7c0,1.5-0.4,2.9-1,4.1
	c0.1,2.9,2.2,5.5,5.1,6.3c3,0.8,6-0.5,7.6-3c-7.1-2.3-8-6.9-6.7-11.9c1.1-4.2,3.4-7.6,8.8-7.5c1-1.9,2.3-3.2,3.8-3.9
	c-0.5-4-1.4-7.9-2.7-11.6c-13.8-7.7-31.9-9-46-7L190.4,65.5L190.4,65.5z M235.8,69.9C229,52.7,213,40.4,191.6,41.6
	c0,1.5-0.4,2.9-1.2,4.1v5.8c0.8,1.2,1.2,2.6,1.2,4.1s-0.4,2.9-1.2,4.1v3.7C205.1,61.3,222.3,62.8,235.8,69.9 M104.5,146.5l-1.7,6.6
	l0.5,1.1c-0.3,0.1-0.7,0.3-0.9,0.5c-0.5,0.4-0.8,0.9-0.5,1.7c0.4,0.8,1.1,1,1.7,0.7c24.4-11.5,51.5-17.9,80.3-17.9
	s55.9,6.3,80.3,17.9c1.2,0.6,3.3-1.5,0.3-3l0.6-1.1l-1.7-6.6l5.7-2.1l0.4-0.9c0.4,0.2,0.9,0.3,1.2,0.3c1.5,0.1,1.4-1.6,0.7-2
	c-26.6-12.5-56.1-19.5-87.4-19.5s-60.9,7-87.4,19.5c-0.8,0.3-0.8,2.1,0.7,2c0.3,0,0.7-0.1,1.2-0.3l0.4,0.9L104.5,146.5z
	 M100.8,153.9l-5.3-3l1.3-5.4c-2-0.2-3-2.7-2.1-4.2c-2.2,0.4-4.5-0.8-5.5-3c-0.5-1-0.6-2-0.4-3c-4.1,0.8-8.3-0.1-11.7-2.5
	c-9.4,5.7-20.6-7.9-14.5-14.2c-2.7-4.1-2-9.1,1.5-11.7c-0.5-1.1-0.8-2.4-0.8-3.7c0-3.6,2.2-6.8,5.4-8c-1.4-1.5-2.2-3.6-2.2-5.8
	c0-4.1,2.8-7.5,6.6-8.4c-0.5-1.1-0.8-2.4-0.8-3.7c0-4.8,3.9-8.6,8.7-8.6h0.8c-0.2-0.7-0.3-1.4-0.3-2.2c0-4.8,3.9-8.7,8.7-8.7
	c0.9,0,1.8,0.2,2.6,0.4c0-4.8,3.9-8.6,8.6-8.6c1.5,0,2.8,0.4,4,1c1.2-3.4,4.4-5.7,8.2-5.7c2.7,0,5.1,1.2,6.7,3.1
	c1.5-1.3,3.5-2.1,5.7-2.1h0.6c-0.1-0.6-0.2-1.2-0.2-1.8c0-4.8,3.9-8.7,8.7-8.7c1.1,0,2.2,0.2,3.2,0.6c0.1-4.7,3.9-8.5,8.7-8.5
	c1.5,0,3,0.4,4.2,1.1c1.2-3.3,4.4-5.6,8.1-5.6c2,0,3.8,0.7,5.3,1.8c1.5-2.4,4.2-4,7.3-4c0.8,0,1.5,0.1,2.3,0.3
	c1.4-1.5,3.1-2.7,5.1-3.4l0.9-0.3V13h-5.9V5.3h5.9V0h8v5.3h5.9V13h-5.9v4.5l0.9,0.3c1.9,0.7,3.7,1.9,5.1,3.4
	c0.7-0.2,1.5-0.3,2.3-0.3c3.1,0,5.8,1.6,7.3,4c1.5-1.1,3.3-1.8,5.3-1.8c3.7,0,6.9,2.3,8.1,5.6c1.3-0.7,2.7-1.1,4.2-1.1
	c4.7,0,8.6,3.8,8.7,8.5c1-0.4,2.1-0.6,3.2-0.6c4.8,0,8.7,3.9,8.7,8.7c0,0.6-0.1,1.2-0.2,1.8h0.6c2.2,0,4.2,0.8,5.7,2.1
	c1.6-1.9,4-3.1,6.7-3.1c3.8,0,6.9,2.4,8.2,5.7c1.2-0.6,2.5-1,4-1c4.8,0,8.6,3.8,8.7,8.6c0.8-0.3,1.7-0.4,2.6-0.4
	c4.8,0,8.7,3.9,8.7,8.7c0,0.8-0.1,1.5-0.3,2.2h0.8c4.8,0,8.6,3.9,8.6,8.6c0,1.3-0.3,2.6-0.8,3.7c3.8,0.9,6.6,4.3,6.6,8.4
	c0,2.2-0.8,4.2-2.2,5.8c3.2,1.3,5.4,4.4,5.4,8c0,1.3-0.3,2.5-0.8,3.7c3.5,2.7,4.2,7.7,1.5,11.7c3.9,4,0.5,10.3-2.7,12.8
	c-3.2,2.4-7.5,3.9-11.8,1.4c-3.3,2.4-7.6,3.3-11.7,2.5c0.5,3.5-2.5,6.5-5.9,6c1,1.6,0,4-2.1,4.2l1.3,5.4l-5.4,3
	c0.7,0.9,0.9,2.1,0.4,3.2c-0.7,1.4-2.3,2.3-3.9,1.6c-24.2-11.4-51.1-17.7-79.6-17.7s-55.4,6.3-79.6,17.7c-1.6,0.8-3.3-0.1-3.9-1.6
	C99.9,156,100.1,154.8,100.8,153.9 M103.1,147.1l-3.7-1.4l-1.4-0.5l-0.2,0.9l-1.1,4.1l4.1,2.3l0.9,0.5l0.4-1.6L103.1,147.1z
	 M272.7,139.4c3.1,1.1,5.8-2.1,4.5-4.9l-0.8-1.7c5.5,1.7,9.6,1.7,14.4-2c3.8,2.6,7.4,2.1,10.9-0.6c3.4-2.7,5.5-7.9,1.5-11.3
	c3.1-4.1,3.2-8.5-1.4-11.5c0.8-1.4,1.4-2.5,1.4-4.2c0-4.6-3.5-6.4-7.3-7.2c2.3-1.8,4.1-3.4,4.1-6.6c0-4.7-3.7-6.7-7.7-7.1
	c1.1-1.7,1.9-2.9,1.9-5c0-3.9-3.1-7-7-7c-1.2,0-2.4,0.4-3.5,0.7c0.7-1.5,1.4-2.7,1.4-4.5c0-3.9-3.1-7-7-7c-1.9,0-3,0.7-4.6,1.5
	c0.1-0.8,0.3-1.8,0.3-2.7c0-3.9-3.1-7-7-7c-2.1,0-3.4,0.8-5,2c-0.8-3.7-2.8-6.7-7.1-6.7c-3.1,0-4.9,1.7-6.5,4.1
	c-1.7-1.9-3.2-3.1-5.9-3.1c-1.1,0-2.1,0.3-3.1,0.5c0.6-1.4,1.1-2.5,1.1-4c0-3.9-3.1-7-7-7c-2.2,0-3.5,0.9-5.3,2
	c0.2-0.9,0.4-2,0.4-2.9c0-3.9-3.1-7-7-7c-2.2,0-3.5,0.9-5.2,2.2c-0.8-3.7-2.9-6.7-7.1-6.7c-2.6,0-4.1,1.2-5.8,2.9
	c-1.4-2.9-3.3-5.1-6.8-5.1c-1,0-1.9,0.2-2.8,0.6c-2.2-2.5-4.1-3.6-7.1-4.3v-7.4h5.9V7h-5.9V1.6h-4.7V7H176v4.3h5.9v7.4
	c-3,0.8-5,1.9-7.1,4.3c-1-0.3-1.8-0.6-2.8-0.6c-3.6,0-5.5,2.2-6.8,5.1c-1.7-1.7-3.2-2.9-5.8-2.9c-4.3,0-6.3,3.1-7.1,6.7
	c-1.7-1.3-3-2.2-5.2-2.2c-3.9,0-7,3.1-7,7c0,0.9,0.3,2.1,0.4,2.9c-1.8-1.1-3.1-2-5.3-2c-3.9,0-7,3.1-7,7c0,1.5,0.5,2.6,1.1,4
	c-1-0.2-2.1-0.5-3.1-0.5c-2.7,0-4.2,1.2-5.9,3.1c-1.6-2.4-3.3-4.1-6.5-4.1c-4.3,0-6.3,3-7.1,6.7c-1.7-1.1-2.9-2-5-2
	c-3.9,0-7,3.1-7,7c0,0.8,0.2,1.8,0.3,2.7c-1.6-0.8-2.8-1.5-4.6-1.5c-3.9,0-7,3.1-7,7c0,1.8,0.6,2.9,1.4,4.5
	c-1.2-0.3-2.3-0.7-3.5-0.7c-3.9,0-7,3.1-7,7c0,2.1,0.8,3.3,1.9,5c-4,0.4-7.7,2.4-7.7,7.1c0,3.2,1.8,4.8,4.1,6.6
	c-3.8,0.8-7.3,2.6-7.3,7.2c0,1.7,0.5,2.8,1.3,4.2c-4.6,2.9-4.6,7.4-1.4,11.4c-6.7,5.6,3.5,17.9,12.4,11.9c4.8,3.7,8.8,3.7,14.3,2
	c-0.8,1.6-1.7,3-0.8,4.8s2.9,2.6,4.6,1.8c26.9-12.7,56.9-19.8,88.6-19.8C215.6,119.6,245.7,126.8,272.7,139.4 M264.7,147.1l1.1,4.3
	l0.4,1.6l0.9-0.5l4.1-2.3l-1-4.2l-0.2-0.9L264.7,147.1z M171,255.4l12.6,12.9l11.7-12.4c-4.2-0.8-8.5-1.2-13-1.4
	C179.6,254.4,175.4,254.7,171,255.4 M160.5,252.2c7.2-1.6,14.7-3.4,22.2-3.1c8,0.3,15.3,1.7,22.9,3.8L183.7,276L160.5,252.2z
	 M221.8,235.5l-1.2,1.2c-12.2-4.7-23.6-7-36.7-7.2c-13.2,0-26,2.5-38.2,7.3L111,200.6c-43.9,25.4-73.7,73-73.7,127
	c0,35.7,12.7,66.8,34.4,92.1l14-14.2c-12.1-12.6-31.2-42.3-30.1-79.3c1.5-41.9,18.8-74.1,51.1-100.5l20.8,21.6
	c-24.7,18.6-41.6,44.7-42,76.6c-0.6,46.4,31.5,85.4,75.9,96.4v24.8h19.5v-22.4c29.1-0.2,56.9-11.5,76.1-33.8l-15-15.2
	c-14.6,16.2-38.6,29.2-61.1,28.1v-24.6h30.4v-17.1h-30.4v-19.5h30.8v-15h-50.2v72.9c-32.9-11-56.4-36.3-55.7-72.5
	c0.6-27.3,13.5-49.2,35.5-64.6l42.4,43.8l40.9-43.2c10.3,7,18.3,14.7,24.6,25.6l15.7-13.6c-7.1-11.2-15.4-19.1-25.9-27l20.5-21
	c31.1,21.6,50.6,63.2,50.6,100.5c0,34.9-11.7,56.7-29.7,78.6l16,16c21.1-25.4,33.7-57.8,33.7-93.3c0-54.4-29.8-102-74.1-127.3
	L221.8,235.5z M156.1,375.8l-45-45.9c1.1,25.7,16.7,49.9,45,60.8V375.8z M313.1,406.4c-15.7,26.6-39.6,47.7-68,60.3L231,452.3
	l-26.3-26.9c-6,1.3-12.2,2.1-18.5,2.3v22.5h-30.1v-26c-45.2-12.3-76.5-54.6-75.9-100.6c0.1-7.7,1.1-15.2,3-22.3l-14.9-15.1
	c-4.5,12.5-6.9,25.8-7.4,40c-0.9,28.5,11.6,59.4,32.3,79l-21.7,22.2c-25.5-28.7-39.6-61-39.6-99.9c0-56.7,31.1-106.3,80-133.6
	l35.1,36.6c11.6-4.2,24.8-6.3,36.9-6.3c13,0.2,24.9,2.5,35.5,6.4l35.7-37c49.3,27.4,80.4,76.9,80.4,134
	C335.4,356.6,327.7,382.9,313.1,406.4 M202.7,292.5l87.1,89.9c9.9-16.3,14.9-33.1,14.9-56.2c0-40.4-22.7-77.2-44.7-93.5l-13.1,13.5
	c10.5,8.3,18,17.3,24.8,28.7l-24.2,20.9c-5.8-11.3-11.8-19.5-22.2-27.1L202.7,292.5z M22.8,328.1c0-88.8,72.5-161,161.1-161
	s161,72.3,161,161c0,88.6-72.4,161-161,161C95.3,489.2,22.8,416.7,22.8,328.1 M28.2,328.1c0,85.6,70.1,155.7,155.7,155.7
	s155.7-70.1,155.7-155.7c0-85.9-70.1-155.7-155.7-155.7C98.2,172.4,28.2,242.3,28.2,328.1 M362.5,328.1
	c0-98.4-80.1-178.7-178.6-178.7c-98.4,0-178.6,80.3-178.6,178.7c0,98.2,80.1,178.5,178.6,178.5C282.3,506.7,362.5,426.3,362.5,328.1
	 M367.8,328.1c0,101.2-82.5,183.9-183.9,183.9S0,429.3,0,328.1C0,226.7,82.5,144,183.9,144S367.8,226.8,367.8,328.1"/>
</svg>
