<?xml version="1.0" encoding="utf-8"?>
<!-- Generator: Adobe Illustrator 24.0.1, SVG Export Plug-In . SVG Version: 6.00 Build 0)  -->
<svg version="1.1" id="Layer_1" xmlns="http://www.w3.org/2000/svg" xmlns:xlink="http://www.w3.org/1999/xlink" x="0px" y="0px"
	 viewBox="0 0 521.5 600" style="enable-background:new 0 0 521.5 600;" xml:space="preserve">
<style type="text/css">
	.st0{fill:#080A8C;}
	.st1{fill:#F0D133;}
	.st2{fill:#FFFFFF;}
	.st3{fill:#EE070C;}
	.st4{fill:#E69C0E;}
</style>
<g>
	<path id="path5" d="M245.6,15.4h11.6V0h10.5v15.4h11.6v10.5h-11.6v7.6c3.7,1.3,6.8,4,8.7,7.4c2.2-1.9,5.2-3.1,8.3-3.1
		c7.1,0,12.9,5.8,12.9,12.9c0,0.3,0,0.6,0,0.9c2-1.2,4.3-2,6.8-2c4.1,0,7.7,1.9,10.1,4.9c0.9-6.2,6.3-11,12.7-11
		c7.1,0,12.9,5.8,12.9,12.9c0,1.5-0.3,2.9-0.7,4.3c2.3-2.5,5.7-4.1,9.5-4.1c6.8,0,12.3,5.2,12.8,11.9c1-0.3,2.1-0.4,3.2-0.4
		c7.1,0,12.9,5.8,12.9,12.9c0,1.3-0.2,2.6-0.6,3.8c5.3,1.6,9.1,6.5,9.1,12.3c0,2-0.5,3.9-1.3,5.7c3.3,2.3,5.5,6.2,5.5,10.6
		c0,3-1,5.7-2.7,7.9c2.6,2.4,4.3,5.8,4.3,9.6c0,5-2.8,9.3-7,11.4c0.6,1.5,0.8,3.3,0.5,5.4c-0.6,4-3.1,7.6-8.1,8.8
		c-5.5,1.3-11.3,2.1-17,2c0.6,7.6-5.2,15.9-12.8,16.1l6.9,11.8l-12.1,2.7c4.1,3.4,4.9,10.1,3.1,14.9c-0.9,2.4-2.4,4.3-4.3,6
		c52.9,28.2,88.8,83.9,88.8,148c0,10.5-1,20.7-2.8,30.6c1.2,0.8,2.4,1.5,3.6,2.3c13.7,9,26,19.9,37,32.1v0
		c4.4,4.9,8.9,9.8,13.7,14.9c4.6,5,9.4,9.8,14.2,14.7c8.4,8.4,16.9,16.7,25.7,24.6c-28.4,7.4-53.2,19.6-77.3,34.1l65.4,66.4
		l-24.4,16l-65.7-66.7c-4.4,2.9-8.8,5.9-13.3,8.9c-16,10.9-32.1,21.8-49.2,31.7c-27.4,15.8-54.2,26.7-79.3,30.9
		c-22,3.7-44.4,2.5-64.8-7.1c-19.1-20.7-38.5-40.3-62.8-55c-19.5-3.7-36.4-23.5-45.9-39.3l-0.1-0.2c-3.2-6.4-7.5-13.1-12.9-19.9
		c-12.6-16.1-27.7-30.9-45-42.1c-11.2-7.2-17.1-12.8-21.6-25.6c-3.3-9.3-7.6-18.3-11-27.6c-2.5-6.8-4.7-13.5-6.2-19.4
		c-5.2-19.7-2.8-39.7,1.3-59.4c1.7-7.8,3.3-15.8,4.2-24.4c0.9-8.9,0.3-17.9-2.4-26.5c-14-45.3-2.8-96.8,8.3-142.3
		c-16.6,3.2-25-18.3-13.8-30.3l8.6-9.2c15.8-16.9,39.2,2.7,27.8,20.4l122.5,131.5c6.2-4.5,12.8-8.6,19.6-12.3
		c-1.9-1.6-3.4-3.6-4.3-6c-1.8-4.9-1-11.5,3.1-14.9l-12.1-2.7l6.9-11.8c-7.6-0.2-13.4-8.4-12.8-16.1c-5.7,0.1-11.4-0.7-17-2
		c-5-1.2-7.5-4.8-8.1-8.8c-0.3-2.1-0.1-3.9,0.5-5.4c-4.1-2.1-7-6.5-7-11.4c0-3.8,1.6-7.2,4.3-9.6c-1.7-2.2-2.7-4.9-2.7-7.9
		c0-4.4,2.2-8.2,5.5-10.6c-0.8-1.7-1.3-3.6-1.3-5.7c0-5.8,3.8-10.7,9.1-12.3c-0.4-1.2-0.6-2.5-0.6-3.8c0-7.1,5.8-12.9,12.9-12.9
		c1.1,0,2.2,0.1,3.2,0.4c0.5-6.6,6.1-11.9,12.8-11.9c3.7,0,7.1,1.6,9.5,4.1c-0.5-1.3-0.7-2.8-0.7-4.3c0-7.1,5.8-12.9,12.9-12.9
		c6.5,0,11.8,4.8,12.7,11c2.4-3,6-4.9,10.1-4.9c2.5,0,4.9,0.7,6.8,2c0-0.3,0-0.6,0-0.9c0-7.1,5.8-12.9,12.9-12.9
		c3.2,0,6.1,1.2,8.3,3.1c1.9-3.4,5-6.1,8.7-7.4v-7.6h-11.6L245.6,15.4L245.6,15.4z M116.4,275.1c7.2-12.7,15.9-24.3,26-34.6
		L24.8,114.3c5.9,22.9,14.1,44,25.4,65.5C68.1,214.1,91.4,245.6,116.4,275.1z"/>
	<path id="path7" class="st0" d="M60,407.1c-20-22.6-14.4-58.9-9.7-88.4c0.7-4.3,1.3-8.6,1.9-12.6l0,0c1.1-13.3,1.3-27.4,0-41.1
		c-1.1-12.1-3.3-24-6.9-34.8l0-0.1c-1-7.1-1.4-14.6-1.3-22.2c0.1-8.3,0.8-16.7,1.9-24.4l0.1-0.8l-0.3-0.6
		c-9.5-18.1-19.4-38.1-24.6-58c-9,40.5-17.6,85.5-5.6,126.1c2.9,9.2,3.6,18.9,2.6,28.5c-0.9,8.8-2.6,16.9-4.3,24.9
		c-3.1,14.8-5.3,27.4-3.2,40.1c2.9,17.5,14.1,33.3,26.7,45.4C44.3,396.1,51.9,402.1,60,407.1L60,407.1z"/>
	<path id="path9" class="st1" d="M343,173.3c-0.1,0-0.2-0.1-0.3-0.1c-12.2-5.5-25.1-9.7-38.5-12.5c-27.1-5.6-56.5-5.6-83.6,0
		c-13.4,2.8-26.3,6.9-38.5,12.5c-0.1,0-0.2,0.1-0.3,0.1l12.8,1.6l1,0.1l-0.6,0.8l-8.8,10.9c11.6-5.2,23.7-9.2,36.3-11.9
		c26.2-5.7,53.7-5.7,80,0c12.4,2.7,24.6,6.7,36.3,11.9l-8.8-10.9l-0.6-0.8l1-0.1L343,173.3z"/>
	<path id="path11" class="st2" d="M89.3,420c-4-6.6-7.2-14.1-9.8-21.7c-2.8-8.1-5-16.5-6.7-24.5l0,0c-3.8-16.6-2.4-33.4-0.9-50.3
		c0.9-10,1.7-20.1,1.5-30.2c-0.4-4.3-1-8.6-1.6-13c-2.3-18.1-4.7-36.8,0.1-54c-9.2-13.7-17.7-27.8-25.4-42.3c-1,7.4-1.7,16.3-1.8,24
		c-0.1,7.5,0.3,15,1.3,22c3.6,10.9,5.8,22.8,6.9,34.9c1.2,13.8,1.1,28,0,41.3l0,0c-0.5,4-1.2,8.2-1.9,12.6
		c-4.7,30.2-10.6,67.6,11.5,89.8c6.8,4,13.9,7.2,21.2,9.7C85.6,418.9,87.5,419.5,89.3,420z"/>
	<path id="path13" class="st0" d="M108.1,423.4c-8.6-20.2-13.4-42.4-13.4-65.7c0-27.7,6.7-53.9,18.6-76.9
		c-14.5-17.1-28.2-35-40.8-53.7c-4.5,16.9-2.2,35.3,0.1,53.1c0.6,4.4,1.1,8.8,1.6,13v0c0.2,10.2-0.6,20.3-1.5,30.3
		c-1.4,16.8-2.9,33.5,0.9,50v0c1.7,7.9,3.9,16.2,6.7,24.4c2.7,7.9,6,15.5,10.2,22.3C96.2,421.8,102,422.9,108.1,423.4z"/>
	<path id="path15" class="st0" d="M236.3,569.7c-1.6,7.3-4,14.6-7,21.8c14.7,4.1,30.8,4.4,47.8,1.5c24.4-4.1,50.7-14.8,77.6-30.3
		c17-9.8,33-20.7,48.9-31.5C437.1,508.5,470,486,511,474.4c-4.7-4.4-9.3-9-13.8-13.6C444.7,461.9,403.2,491,362,520
		c-4.2,3-8.4,5.9-12.7,8.9l0,0c-17.3,10.4-35,20.6-53.7,28.2C277,564.7,257.4,569.7,236.3,569.7z"/>
	<path id="path17" class="st2" d="M238.9,545.2c0,7.9-0.8,15.8-2.5,23.7c20.9-0.1,40.4-5,58.9-12.5c18.6-7.6,36.3-17.8,53.6-28.2
		c4.2-2.9,8.4-5.9,12.6-8.8c41.1-28.9,82.5-58,134.8-59.3c-1.4-1.4-2.8-2.9-4.2-4.3c-4.5-4.5-8.9-9.1-13.2-13.6
		c-14.9,1.1-28.6,4.4-41.8,9.2c-13.4,4.9-26.3,11.2-39.1,18.2c-25,15.8-50.4,31.7-76.9,45.2C295,528,267.8,539,238.9,545.2z"/>
	<path id="path19" class="st0" d="M232.4,509.2c3.6,9.7,5.7,19.7,6.4,29.8c0.1,1.8,0.2,3.6,0.2,5.3c28.7-6.2,55.9-17.1,82-30.4
		c26.4-13.5,51.8-29.3,76.8-45.2l0,0c12.8-7,25.7-13.4,39.2-18.2c13.1-4.7,26.7-8,41.4-9.2l-0.4-0.4c-4.5-4.8-9.1-9.8-13.7-14.9l0,0
		c-2.3-2.6-4.7-5.1-7.2-7.5c-57.9,2.1-106.5,31.8-153.8,60.7l-1.1,0.7l0,0l-0.9,0.5C279,491.8,256.9,503.2,232.4,509.2z"/>
	<path id="path21" class="st2" d="M224.1,491.8c3.2,5.4,5.8,11,8,16.6c24.5-6,46.6-17.3,68.9-28.8l0.9-0.4l1.1-0.6
		c47.2-28.8,95.6-58.5,153.4-60.8c-4.4-4.4-9-8.5-13.8-12.4c-15.2-2.6-30.4-2.1-45,0.5c-16.9,3.1-33,9.1-47.4,16.6l0,0
		c-18.4,8.2-35.6,19.6-52.9,30.9C273.9,468.7,250.6,484.2,224.1,491.8z"/>
	<path id="path23" class="st0" d="M196.9,460.3c9.4,7.4,17.8,16.5,24.8,27.5c0.7,1.1,1.4,2.2,2.1,3.4c26.4-7.6,49.8-23,73.1-38.5
		c17.3-11.4,34.5-22.8,52.9-31l0,0c14.5-7.5,30.7-13.5,47.6-16.6c14.2-2.6,29-3.2,43.8-0.8c-4.2-3.4-8.5-6.5-13.1-9.5
		c-3.8-2.5-7.6-4.8-11.4-7c-4.1-2.4-8.1-4.8-11.9-7.4c-2.2-1.4-4.3-2.9-6.3-4.4c-57.7-5.3-103.4,25.3-147.8,55
		c-6.2,4.1-12.3,8.2-18.4,12.2l0,0C220.9,449.6,209.3,456,196.9,460.3L196.9,460.3z"/>
	<path id="path25" class="st2" d="M175.5,447.2c1.6,0.7,3.2,1.5,4.8,2.3c5.5,2.9,10.8,6.3,15.9,10.2c12.5-4.3,24.2-10.7,35.8-17.1
		c6.1-4,12.2-8.1,18.4-12.2c44.2-29.6,89.6-60,147-55.2c-3.1-2.2-6-4.5-9-6.9c-2.8-2.3-5.6-4.7-8.5-7.2c-12.2-0.3-24.8,0.6-37.2,2.4
		c-13.5,2-26.7,5.2-38.7,9.1l0,0c-22.6,5.9-42.2,19.6-61.7,33.4c-10.6,7.5-21.3,14.9-32.4,21.2l0,0
		C198.7,434.5,186.5,439.8,175.5,447.2L175.5,447.2z"/>
	<path id="path27" class="st0" d="M33.7,392.8c-7.3-7-13.8-15-18.9-23.6c1.1,3.4,2.3,6.9,3.6,10.5c3.4,9.3,7.7,18.3,11,27.6
		c4.2,11.7,9.3,16.4,19.6,23c9.2,5.9,17.3,12.7,25.2,20.2c8-4,16.2-7,24.5-9.3c8.5-2.3,17.1-3.7,25.7-4c17.3-0.6,34.5,2.6,50.1,9.6
		c11.1-7.6,23.5-12.9,34.7-20.3l0,0c11.1-6.2,21.7-13.7,32.3-21.1c19.6-13.8,39.2-27.5,62-33.5l0,0c12-4,25.3-7.1,38.9-9.2
		c12.1-1.8,24.4-2.7,36.4-2.5c-2.2-2-4.4-4-6.7-6.1c-3.9-3.7-7.6-7.4-11.2-11.4c-3.4-3.7-6.6-7.5-9.7-11.4
		c-25.7-0.3-50.8,6.6-73.8,17.8c-18.3,8.9-35.4,20.1-51.3,32.8c-16.8,13.5-32.5,25.6-52.5,34.3c-11.8,5.1-24.3,9-37.6,11.1
		c-19.2,3.1-37.2,1.4-54-4.2C64,417.3,47.6,407,33.7,392.8z"/>
	<path id="path29" class="st2" d="M216.1,586.8c2.7,1.3,5.5,2.4,8.3,3.3c7.2-16.7,10.4-33.9,9.3-50.7c-1.1-16.8-6.4-33.4-16.3-48.9
		c-10.4-16.4-24.1-28.5-39.5-36.5c-16.4-8.5-34.7-12.4-53.3-11.8c-8.1,0.3-16.3,1.6-24.5,3.9c-7.5,2.1-14.8,4.7-22,8.2
		c6.6,6.5,12.2,13,17.1,19.3c5.5,7,9.9,13.9,13.3,20.6c9.1,14.3,25.1,32.9,43.4,36.9C176.7,545.8,197.2,565.6,216.1,586.8z"/>
	<polygon id="polygon31" class="st1" points="497.8,576 486.4,583.5 426.2,522.3 437.5,514.7 	"/>
	<path id="path33" class="st1" d="M31.3,90.7l126.5,135.9c-3.4,2.7-6.8,5.6-10,8.6l-125.9-135c-3.7,2.5-8.2,3-11.6-0.5l0,0
		c-4.4-4.4-3.9-10.7,0.4-15.3l8.6-9.2c4.3-4.6,10.8-5.8,15.2-1.4l0,0c4.4,4.4,2.9,10.4-1.3,15L31.3,90.7z"/>
	<path id="path35" class="st1" d="M333.6,205.8c2.1-1.1,4.1-2.6,4.9-4.7c0.6-1.7,0.8-5.7-1.2-6.7c-11.7-5.4-23.9-9.4-36.5-12.2
		c-25.2-5.5-51.5-5.5-76.7,0c-12.7,2.8-24.9,6.9-36.5,12.2c-2,0.9-1.8,5-1.2,6.7c0.8,2.1,2.8,3.6,4.9,4.7
		c21.6-10.1,45.7-15.8,71.2-15.8C287.9,189.9,312,195.6,333.6,205.8z"/>
	<path id="path37" d="M237.1,163.2c1.1,2,0.1,4.2-1.6,5.5c-1.1,0.8-2.4,1.2-3.7,1.5l-16.2,3.6c-1.7,0.4-3.4,0.5-5.1-0.3
		c-2.8-1.3-3.4-4.2-1.5-6.5c1.2-1.4,2.8-2,4.5-2.4l16.4-3.6C232.4,160.5,235.7,160.7,237.1,163.2z"/>
	<path id="path39" class="st3" d="M229.9,161.6l-16.3,3.6c-1.6,0.3-3.1,0.9-4.2,2.2c-1.7,2-1.2,4.6,1.3,5.7c1.5,0.7,3.2,0.6,4.8,0.3
		l16.2-3.6c1.2-0.2,2.4-0.6,3.4-1.4c1.5-1.1,2.6-3,1.6-4.9C235.4,161.1,232.2,161.1,229.9,161.6z"/>
	<path id="path41" class="st0" d="M147.3,451.7c0.1-0.1,0.3-0.3,0.4-0.4c3.6,3.5,7.3,7,11.1,10.5c3.8,3.6,7.7,7.3,11.7,11.1
		c-0.2,0.2-0.4,0.5-0.6,0.7c-6.2-5.3-11.8-9-16.3-11c-4.4-1.9-7.7-2.3-9.3-0.7c-2.4,2.4,0.4,8.2,5.2,13c1.6,1.6,3,2.8,4.5,3.9
		c2,1.3,4.1,2.3,6.5,3.1c1.9,0.7,5.1,1.2,9.9,2c3.4,0.5,6.6,1.3,9.5,2.1c2.9,0.9,5.4,2,7.7,3.2c4.5,2.7,9.6,6.5,15.1,11.7
		c6.9,6.6,12.8,14,16.7,20.8c4,7,5.8,13.4,4.2,17.3c-1,2.6-2.7,3.8-7.6,3.6c-1.4,0.2-2.1,0.6-2.3,1.1c-0.5,1.1,0.7,4.3,4.3,9.2
		c-0.2,0.4-0.3,0.8-0.5,1.2c-6.1-6.4-12.1-12.6-18-18.7c-5.7-5.9-11.2-11.7-16.7-17.3c0.2-0.3,0.4-0.7,0.6-1
		c9.7,8.8,18,14.5,24.1,17.4c6.1,2.9,10,2.8,11.2-0.1c1.8-4.2-3.6-13.3-10.3-19.8c-4.3-4.2-8.2-6.6-12.5-8.3c-2.4-1-5.1-1.4-9-1.9
		c-5.5-0.8-9.8-1.7-13.5-3.1c-3.7-1.4-7-3.2-10.5-5.6c-3.2-2.3-7-5.5-10.4-9c-5.8-6-10.1-12.2-12.3-17.4c-2.1-5-2.4-9.1-0.1-11.2
		c0.8-0.7,1.8-1.1,3.1-1.2c2.1-0.2,6.8,1,7.4,0.4C151.4,456.8,151.1,456,147.3,451.7L147.3,451.7z"/>
	<path id="path43" class="st1" d="M262.4,55.9c4.1,0,7.5-3.4,7.5-7.5c0-4.1-3.4-7.5-7.5-7.5c-4.1,0-7.5,3.4-7.5,7.5
		C254.9,52.5,258.3,55.9,262.4,55.9z"/>
	<path id="path45" class="st3" d="M157.3,136.2c1.3-0.8,2.7-1.2,4.2-1.2c1.9,0,3.8,0.6,5.4,2c0.3,0.3,0.6,0.5,0.7,0.8
		c0.1,0.1,0.2,0.2,0.3,0.4c0.3,0.4,0.6,0.8,0.8,1.2c3.2-0.5,6.3-1.5,9.1-3c2.9-1.6,5.6-3.6,8-6.1c-1.7-1.4-3-3.3-3.6-5.6
		c-0.6-2.4-0.4-4.9,0.5-7c0.9-2.1,2.4-3.9,4.4-5.1c0.2-2.8,1.3-5.1,3-6.8c1.4-1.4,3.2-2.4,5-2.9c0.1,0,0.2,0,0.3-0.1
		c-1.1-1.8-1.8-3.9-1.8-6.1c0-5,3.2-9.3,7.7-10.9c-1-1.8-1.5-3.9-1.5-6.1c0-5.7,3.7-10.5,8.9-12.2c-0.5-1-0.8-2.2-1-3.3
		c-2.4,3-6,4.9-10.1,4.9c-3.7,0-7.1-1.6-9.5-4.1c0.5,1.3,0.7,2.8,0.7,4.3c0,7.1-5.8,12.9-12.9,12.9c-1.1,0-2.2-0.1-3.2-0.4
		c-0.4,5.3-4.1,9.8-9,11.3c0.4,1.2,0.6,2.5,0.6,3.8c0,4.4-2.2,8.2-5.5,10.5c0.8,1.7,1.3,3.6,1.3,5.7c0,3.8-1.6,7.2-4.3,9.6
		c1.7,2.2,2.7,4.9,2.7,7.9C158.6,132.5,158.1,134.5,157.3,136.2L157.3,136.2z"/>
	<path id="path47" class="st3" d="M247.4,104.7c-3.2-1.8-5.4-5.2-5.4-9.1c0-4.2,2.5-7.9,6.1-9.5c-3.6-1.6-6.1-5.3-6.1-9.5
		c0-5.6,4.5-10.2,10.1-10.4c0.2-1.6,0.8-3.1,1.6-4.4c-1.3-0.9-2.5-1.9-3.5-3.1c-2.4,3-6,4.9-10.1,4.9c-2.5,0-4.9-0.7-6.8-2
		c0,0.3,0,0.6,0,0.9c0,5.7-3.7,10.5-8.9,12.2c0.7,1.6,1.1,3.4,1.1,5.2c0,6.1-4.2,11.1-9.8,12.5c0.6,1.4,0.9,2.9,0.9,4.4
		c0,5-3.2,9.3-7.6,10.8c1.5,0.3,3,1,4.2,2c1.8,1.4,3.3,3.4,3.9,5.8c0.7,2.6,0.4,5.3-0.7,7.5c6.2,2.4,13,3.3,19.5,2.5
		c4.8-0.6,9.4-2.2,13.5-4.9c-2.7-2-4.5-5.2-4.5-8.8C244.8,109,245.8,106.6,247.4,104.7z"/>
	<path id="path49" class="st3" d="M272.8,66.1c5.6,0.2,10.1,4.8,10.1,10.4c0,4.2-2.5,7.9-6.1,9.5c3.6,1.6,6.1,5.3,6.1,9.5
		c0,3.9-2.2,7.4-5.4,9.1c1.6,1.9,2.6,4.3,2.6,7c0,3.6-1.8,6.9-4.5,8.8c4.1,2.7,8.7,4.3,13.5,4.9c6.5,0.8,13.2-0.1,19.4-2.5
		c-1.1-2.3-1.4-4.9-0.8-7.5c0.6-2.4,2-4.4,3.9-5.8c1.2-1,2.7-1.6,4.2-2c-4.5-1.6-7.6-5.8-7.6-10.8c0-1.6,0.3-3.1,0.9-4.4
		c-5.6-1.4-9.8-6.5-9.8-12.5c0-1.9,0.4-3.6,1.1-5.2c-5.1-1.7-8.9-6.5-8.9-12.2c0-0.3,0-0.6,0-0.9c-2,1.2-4.3,2-6.8,2
		c-4.1,0-7.7-1.9-10.1-4.9c-1,1.2-2.2,2.2-3.5,3.1C272,63,272.6,64.5,272.8,66.1L272.8,66.1z"/>
	<path id="path51" class="st3" d="M367.6,136.2c-1.3-0.8-2.7-1.2-4.2-1.2c-1.9,0-3.8,0.6-5.3,2c-0.3,0.3-0.6,0.5-0.7,0.8
		c-0.1,0.1-0.2,0.2-0.3,0.4c-0.3,0.4-0.6,0.8-0.8,1.2c-3.3-0.5-6.3-1.5-9.1-3c-3-1.6-5.6-3.6-8-6.1c1.7-1.4,3-3.3,3.6-5.6
		c0.6-2.4,0.4-4.9-0.5-7c-0.9-2.1-2.4-3.9-4.4-5.1c-0.2-2.8-1.3-5.1-3-6.8c-1.4-1.4-3.2-2.4-5-2.9c-0.1,0-0.2,0-0.3-0.1
		c1.1-1.8,1.8-3.9,1.8-6.1c0-5-3.2-9.3-7.7-10.9c1-1.8,1.5-3.9,1.5-6.1c0-5.7-3.7-10.5-8.9-12.2c0.5-1,0.8-2.2,1-3.3
		c2.4,3,6,4.9,10.1,4.9c3.7,0,7.1-1.6,9.5-4.1c-0.5,1.3-0.7,2.8-0.7,4.3c0,7.1,5.8,12.9,12.9,12.9c1.1,0,2.2-0.1,3.2-0.4
		c0.4,5.3,4.1,9.8,9,11.3c-0.4,1.2-0.6,2.5-0.6,3.8c0,4.4,2.2,8.2,5.5,10.5c-0.8,1.7-1.3,3.6-1.3,5.7c0,3.8,1.6,7.2,4.3,9.6
		c-1.7,2.2-2.7,4.9-2.7,7.9C366.2,132.5,366.7,134.5,367.6,136.2L367.6,136.2z"/>
	<path id="path53" class="st1" d="M262.4,71c1.9,0,3.5-1.6,3.5-3.5c0-1.9-1.6-3.5-3.5-3.5c-1.9,0-3.5,1.6-3.5,3.5
		C258.9,69.4,260.5,71,262.4,71z"/>
	<path id="path55" class="st1" d="M262.4,87.4c1.9,0,3.5-1.6,3.5-3.5c0-1.9-1.6-3.5-3.5-3.5c-1.9,0-3.5,1.6-3.5,3.5
		C258.9,85.8,260.5,87.4,262.4,87.4z"/>
	<path id="path57" class="st1" d="M252.4,90.6c2.7,0,4.9,2.2,4.9,4.9c0,0.1,0,0.1,0,0.2c-2,1.1-3.6,2.7-4.6,4.7c-0.1,0-0.2,0-0.3,0
		c-2.7,0-4.9-2.2-4.9-4.9C247.5,92.8,249.7,90.6,252.4,90.6z"/>
	<path id="path59" class="st1" d="M252.4,71.6c0.2,0,0.3,0,0.5,0c0.7,1.6,1.8,2.9,3.1,4c-1.8,1.4-3.2,3.5-3.7,5.8
		c-2.6-0.1-4.8-2.2-4.8-4.9C247.5,73.8,249.7,71.6,252.4,71.6z"/>
	<path id="path61" class="st1" d="M240.2,58.1c4.1,0,7.5-3.4,7.5-7.5c0-4.1-3.4-7.5-7.5-7.5c-4.1,0-7.5,3.4-7.5,7.5
		C232.7,54.7,236,58.1,240.2,58.1z"/>
	<path id="path63" class="st1" d="M145.8,137.9c4.1,0,7.5-3.4,7.5-7.5c0-4.1-3.4-7.5-7.5-7.5c-4.1,0-7.5,3.4-7.5,7.5
		C138.3,134.6,141.6,137.9,145.8,137.9z"/>
	<path id="path65" class="st1" d="M147.3,120.4c4.1,0,7.5-3.4,7.5-7.5c0-4.1-3.4-7.5-7.5-7.5c-4.1,0-7.5,3.4-7.5,7.5
		C139.8,117.1,143.2,120.4,147.3,120.4z"/>
	<path id="path67" class="st1" d="M151.5,104.2c4.1,0,7.5-3.4,7.5-7.5c0-4.1-3.4-7.5-7.5-7.5c-4.1,0-7.5,3.4-7.5,7.5
		C144,100.9,147.4,104.2,151.5,104.2z"/>
	<path id="path69" class="st1" d="M160,88.2c4.1,0,7.5-3.4,7.5-7.5s-3.4-7.5-7.5-7.5c-4.1,0-7.5,3.4-7.5,7.5S155.9,88.2,160,88.2z"
		/>
	<path id="path71" class="st1" d="M176.1,76.7c4.1,0,7.5-3.4,7.5-7.5c0-4.1-3.4-7.5-7.5-7.5c-4.1,0-7.5,3.4-7.5,7.5
		C168.6,73.4,172,76.7,176.1,76.7z"/>
	<path id="path73" class="st1" d="M197.7,63.7c4.1,0,7.5-3.4,7.5-7.5c0-4.1-3.4-7.5-7.5-7.5c-4.1,0-7.5,3.4-7.5,7.5
		C190.2,60.4,193.6,63.7,197.7,63.7z"/>
	<path id="path75" class="st1" d="M220.5,69.9c4.1,0,7.5-3.4,7.5-7.5c0-4.1-3.4-7.5-7.5-7.5c-4.1,0-7.5,3.4-7.5,7.5
		C213,66.5,216.4,69.9,220.5,69.9z"/>
	<path id="path77" class="st1" d="M212.7,87.3c4.1,0,7.5-3.4,7.5-7.5c0-4.1-3.4-7.5-7.5-7.5c-4.1,0-7.5,3.4-7.5,7.5
		C205.3,84,208.6,87.3,212.7,87.3z"/>
	<path id="path79" class="st1" d="M205.2,102.9c3.4,0,6.1-2.7,6.1-6.1c0-3.4-2.7-6.1-6.1-6.1c-3.4,0-6.1,2.7-6.1,6.1
		C199,100.2,201.8,102.9,205.2,102.9z"/>
	<path id="path81" class="st1" d="M379.1,137.9c4.1,0,7.5-3.4,7.5-7.5c0-4.1-3.4-7.5-7.5-7.5c-4.1,0-7.5,3.4-7.5,7.5
		C371.6,134.6,375,137.9,379.1,137.9z"/>
	<path id="path83" class="st1" d="M377.5,120.4c4.1,0,7.5-3.4,7.5-7.5c0-4.1-3.4-7.5-7.5-7.5c-4.1,0-7.5,3.4-7.5,7.5
		C370.1,117.1,373.4,120.4,377.5,120.4z"/>
	<path id="path85" class="st1" d="M373.3,104.2c4.1,0,7.5-3.4,7.5-7.5c0-4.1-3.4-7.5-7.5-7.5c-4.1,0-7.5,3.4-7.5,7.5
		C365.9,100.9,369.2,104.2,373.3,104.2z"/>
	<path id="path87" class="st1" d="M364.8,88.2c4.1,0,7.5-3.4,7.5-7.5s-3.4-7.5-7.5-7.5c-4.1,0-7.5,3.4-7.5,7.5
		S360.7,88.2,364.8,88.2z"/>
	<path id="path89" class="st1" d="M348.8,76.7c4.1,0,7.5-3.4,7.5-7.5c0-4.1-3.4-7.5-7.5-7.5c-4.1,0-7.5,3.4-7.5,7.5
		C341.3,73.4,344.6,76.7,348.8,76.7z"/>
	<path id="path91" class="st1" d="M327.2,63.7c4.1,0,7.5-3.4,7.5-7.5c0-4.1-3.4-7.5-7.5-7.5c-4.1,0-7.5,3.4-7.5,7.5
		C319.7,60.4,323,63.7,327.2,63.7z"/>
	<path id="path93" class="st1" d="M284.7,58.1c4.1,0,7.5-3.4,7.5-7.5c0-4.1-3.4-7.5-7.5-7.5c-4.1,0-7.5,3.4-7.5,7.5
		C277.2,54.7,280.6,58.1,284.7,58.1z"/>
	<path id="path95" class="st1" d="M304.4,69.9c4.1,0,7.5-3.4,7.5-7.5c0-4.1-3.4-7.5-7.5-7.5c-4.1,0-7.5,3.4-7.5,7.5
		C296.9,66.5,300.2,69.9,304.4,69.9z"/>
	<path id="path97" class="st1" d="M312.1,87.3c4.1,0,7.5-3.4,7.5-7.5c0-4.1-3.4-7.5-7.5-7.5c-4.1,0-7.5,3.4-7.5,7.5
		C304.6,84,308,87.3,312.1,87.3z"/>
	<path id="path99" class="st1" d="M319.7,102.9c3.4,0,6.1-2.7,6.1-6.1c0-3.4-2.7-6.1-6.1-6.1c-3.4,0-6.1,2.7-6.1,6.1
		C313.6,100.2,316.3,102.9,319.7,102.9z"/>
	<path id="path101" class="st1" d="M272.4,90.6c-2.7,0-4.9,2.2-4.9,4.9c0,0.1,0,0.1,0,0.2c2,1.1,3.6,2.7,4.6,4.7c0.1,0,0.2,0,0.3,0
		c2.7,0,4.9-2.2,4.9-4.9C277.3,92.8,275.1,90.6,272.4,90.6z"/>
	<path id="path103" class="st1" d="M272.4,71.6c-0.2,0-0.3,0-0.5,0c-0.7,1.6-1.8,2.9-3.1,4c1.8,1.4,3.2,3.5,3.7,5.8
		c2.6-0.1,4.7-2.2,4.7-4.9C277.3,73.8,275.1,71.6,272.4,71.6z"/>
	<path id="path105" class="st1" d="M217.1,141.2c-14.2,2.9-27.9,7.3-41,13c-7.6,3.3-3.1,14.7,2.9,12c12.7-5.7,26.1-10.1,40-13
		c28.2-5.8,58.6-5.8,86.7,0c13.9,2.9,27.4,7.2,40,13c5.9,2.7,10.5-8.7,2.9-12c-13-5.7-26.8-10-41-13
		C278.2,135.2,246.6,135.2,217.1,141.2z"/>
	<polygon id="polygon107" points="276.3,163.5 262.4,169.1 248.5,163.5 262.4,158 	"/>
	<polygon id="polygon109" class="st0" points="262.4,158.5 249.9,163.5 262.4,168.5 274.9,163.5 	"/>
	<path id="path111" d="M287.7,163.2c-1.1,2-0.1,4.2,1.6,5.5c1.1,0.8,2.4,1.2,3.7,1.5l16.2,3.6c1.7,0.4,3.4,0.5,5.1-0.3
		c2.8-1.3,3.4-4.2,1.4-6.5c-1.2-1.4-2.8-2-4.5-2.4l-16.4-3.6C292.5,160.5,289.1,160.7,287.7,163.2z"/>
	<path id="path113" class="st3" d="M294.9,161.6l16.3,3.6c1.6,0.3,3.1,0.9,4.2,2.2c1.7,2,1.2,4.6-1.3,5.7c-1.5,0.7-3.2,0.6-4.8,0.3
		l-16.2-3.6c-1.2-0.2-2.4-0.6-3.4-1.4c-1.5-1.1-2.6-3-1.6-4.9C289.4,161.1,292.6,161.1,294.9,161.6z"/>
	<path id="path115" class="st0" d="M181.7,547.6c-3.4-3.2-7-6.5-10.7-9.9c-3.8-3.5-7.8-7.2-11.8-11c0.4-0.1,0.8-0.2,1.1-0.3
		c8,6.7,14.2,11.2,19,13.9c4.7,2.7,8.1,3.8,10.5,3.5c4.8-0.5,1.7-5.9-3.1-10.7c-2.9-3-5.8-5.3-8.8-6.9c-2-1.1-5.3-2.6-9.1-3.9
		c-2.2-0.8-4.5-1.7-6.7-2.5c-3.2-1.3-6.2-2.5-8.9-3.8c-2.7-1.3-5.2-2.7-7.7-4.3c-4.5-2.8-9.7-6.9-15.3-12.2
		c-6.4-6-12.8-12.9-17.1-19.2c-4.7-6.7-7.1-12.8-4.8-15.9c1.2-1.6,4-2,6.6-2.1c2.6-0.1,5,0.3,5.2,0.1c0.9-1-1-3.5-4.4-7.8
		c0.4-0.6,0.8-1.1,1.2-1.7c6.4,6.8,12.6,13.3,18.4,19.5c5.6,5.9,11,11.6,16.1,17c-0.5,0.3-0.9,0.6-1.4,0.9
		c-7.7-6.9-15.8-13.1-22.4-17.1c-6.7-4.1-11.8-5.7-13.5-3.7c-2.3,2.7,2.8,10.4,10.2,17.6c4.6,4.4,8.2,7.3,10.9,8.7
		c2.7,1.4,7.6,3.4,14.1,5.8c2.8,1,5.7,2,8.6,3.1c3.5,1.1,7.2,2.8,10.6,5c6.8,4,12.8,9,18.6,15.1c5,5.3,8.9,10.9,10.2,15.1
		c1.2,3.9,0,6.6-4.7,7c-2,0.1-4.8-0.4-8.1-1.4c-0.5-0.1-0.9-0.3-1.4-0.4c-0.7-0.2-1.4-0.4-1.6-0.4c-1,0.1-0.2,1.1,1.5,2.9
		C182.5,547.6,182.1,547.6,181.7,547.6z"/>
	<path id="path117" class="st4" d="M207.9,389.7c5-3.8,10-7.7,15.1-11.8c16.2-12.9,33.6-24.3,52.3-33.4c1.1-0.5,2.2-1,3.3-1.6
		c-19.7-18.7-38.6-40.1-48.1-65.8c-2.7-7.4-4-13.7-3-21c-17.3,3-40.6,8.7-56.1,20.5c-17.4,13.3-17.2,32.9-9.9,52.7
		C170.8,354.7,188.5,372.4,207.9,389.7z"/>
	<path id="path119" class="st4" d="M106,323.4c-2.4,11-3.7,22.5-3.7,34.2c0,23.6,5.1,46,14.2,66.1c6.1,0,12.4-0.4,18.7-1.5
		c12.9-2.1,24.9-5.8,36.4-10.8c11.1-4.8,20.7-10.7,30-17.3c-19.5-17.6-35.7-34.9-46-60.7c-5.7-14.3-8.7-29.6-4.5-42.3
		C133.6,299,119,309.8,106,323.4L106,323.4z"/>
	<path id="path121" class="st4" d="M269.7,197.7c-2.4-0.1-4.8-0.2-7.3-0.2c-71.5,0-132,46.9-152.6,111.5
		c14.1-12.8,30.3-23.2,48.5-29.7c16.7-19.7,46.3-27,70.9-31.1c1.8-5.5,5.1-12.2,9.4-18.2c5.4-7.6,11.3-14.7,18-21.3
		C260.6,204.9,265,201.2,269.7,197.7z"/>
	<path id="path123" class="st4" d="M342.5,219c-6.3-3.6-12.8-6.9-19.6-9.6c-9.9,3.7-18.5,9.2-26.2,15.9
		c-7.1,6.1-13.5,13.2-19.5,20.7c10.6,6.6,20.9,13.8,31,21.3l5.3-7.5c-3.8-3.4-7.4-6-11.2-8.4c-1.7-1.4-2.2-4.4-0.9-6.1
		c1.4-1.7,4.4-2.1,6.1-0.8c3.4,3.8,7,6.3,10.7,8.7l7.1-9.9c-2.6-2.2-5.4-4-8.3-5.7c-1.7-1.2-2.1-3.5-0.9-5.1
		c1.2-1.7,3.5-2.1,5.1-0.9c2.5,2.4,5.1,4.4,8,6.2l5.5-7.8c-1.6-1.3-3.2-2.4-5-3c-1.7-1.1-2.1-3.4-1-5.1c1.1-1.7,3.4-2.1,5.1-1
		c1.4,1.6,3,2.8,4.6,3.9L342.5,219z"/>
	<path id="path125" class="st4" d="M367.2,236.6c-5.7-4.9-11.8-9.5-18.2-13.6l-4.7,6.5c1.6,1.5,3.4,2.8,5.3,4
		c1.5,1.4,1.5,3.7,0.1,5.2c-1.4,1.5-3.7,1.5-5.2,0.1c-1.1-1.6-2.4-3-3.9-4.2l-5.5,7.7c2.2,1.9,4.4,3.8,6.9,5.4
		c1.5,1.3,1.7,3.7,0.3,5.2c-1.3,1.5-3.7,1.7-5.2,0.3c-1.9-2.3-3.9-4.1-5.9-5.5l-7.3,10.2c3.3,3.1,6.8,5.8,10.6,8.6
		c1.6,1.5,1.7,5,0.2,6.6c-1.4,1.6-4.5,1.2-6.2-0.2c-2.9-3.3-5.9-6-9.3-8.5l-5.3,7.5c9.2,7.1,18.2,14.6,27.2,22.3
		c6.7-7.4,12.4-14.9,16.7-23.5C362.8,261.1,365.9,250.2,367.2,236.6L367.2,236.6z"/>
	<path id="path127" class="st4" d="M393.6,265.9c-5.8-8.2-12.3-15.9-19.5-22.9c-1.7,12.1-4.8,22.1-9.3,31.1
		c-5.8,11.7-14,21.3-22.9,30.6c-12-10.4-24.1-20.6-36.7-30.1c-12.6-9.6-25.7-18.3-39.2-26.6c7.9-10.1,16-20,25.8-28.4
		c6.3-5.4,13.2-10.2,20.8-13.9c-9.9-3.3-20.1-5.6-30.7-6.9c-7.5,4.6-14.1,9.8-20,15.5c-6.4,6.2-12,13-17.1,20.2
		c-5.3,7.5-8.4,14.3-9.4,20.8c-1,6.4-0.2,12.6,2.3,19.3c9.4,25.5,28.9,46.7,48.5,65.1c19.8-8.2,40.8-13,62.4-13.3
		c8.9-7.5,17.3-16,24.9-25.8C381,290.6,387.9,279.2,393.6,265.9z"/>
	<path id="path129" class="st4" d="M422.5,357.7c0-30.9-8.8-59.8-24-84.3c-5.6,12.1-12,22.5-19.1,31.7c-7.1,9.2-14.9,17.2-23,24.4
		c17.5,21.7,39.1,39.7,63,54l1,0.6C421.8,375.5,422.5,366.6,422.5,357.7z"/>
	<path id="path131" class="st0" d="M340.9,188.5l-10.6-13.1l16.2-2l7.3,12.2L340.9,188.5L340.9,188.5z M184,188.5l10.6-13.1l-16.2-2
		l-7.3,12.2L184,188.5z"/>
	<path id="path133" class="st1" d="M256.3,103.4c-0.5,1.9-0.9,1.9-2.7,2.4c-2.7,0.7-4.7,3.2-4.7,6.1c0,4.4,5.8,7.6,9.8,6.4
		c-12.6,13.9-34.3,14.4-50.2,5.9c3.2-1,5.1-4.3,4.3-7.6c-0.7-2.8-3.3-4.7-6.1-4.7c-1.9,0-2.3,0.1-3.2-1.6
		c-3.1-5.6-11.8-3.3-11.8,3.1c0,1.9-0.4,2.1-2,3c-2.5,1.4-3.8,4.3-3,7.1c0.8,3.1,3.7,5,6.8,4.7c-1,1.5-2.1,2.8-3.2,4.1
		c-5.6,7-13.1,11.5-22.2,11.7c-4.6,0.5-1.9-1.1-3.8-3.4c-1.2-1.5-3.8-1.3-5,0.1c-2.3,2.4-4.1,3-8.2,2c-4-1-5.5,5.2-1.5,6.2
		c16.8,4.1,34.2,2.4,45.5-12.2c2.5-2.7,4.7-5.9,6.5-9.4c18,11.2,44.9,11.8,61.2-3.6l0,0c16.3,15.4,43.2,14.7,61.2,3.6
		c1.8,3.5,4,6.6,6.5,9.4c11.3,14.7,28.7,16.3,45.5,12.2c4-1,2.5-7.1-1.5-6.2c-4.1,1-6,0.5-8.2-2c-1.2-1.3-3.8-1.5-5-0.1
		c-1.9,2.4,0.7,3.9-3.8,3.4c-9.1-0.2-16.6-4.7-22.2-11.7c-1.1-1.3-2.2-2.6-3.2-4.1c3,0.3,6-1.6,6.8-4.7c0.7-2.8-0.6-5.7-3-7.1
		c-1.7-0.9-2-1.1-2-3c0-6.4-8.7-8.7-11.8-3.1c-0.9,1.7-1.3,1.6-3.2,1.6c-2.8,0-5.4,1.9-6.1,4.7c-0.9,3.3,1,6.7,4.3,7.6
		c-15.9,8.4-37.6,8-50.2-5.9c4,1.3,9.8-2,9.8-6.4c0-2.9-2-5.4-4.7-6.1c-1.8-0.5-2.2-0.5-2.7-2.4C266.9,97.3,257.9,97.3,256.3,103.4z
		"/>
	<path id="path135" d="M262.2,114.3c1.9,0,3.4-1.5,3.4-3.4c0-1.9-1.5-3.4-3.4-3.4c-1.9,0-3.4,1.5-3.4,3.4
		C258.9,112.8,260.4,114.3,262.2,114.3z"/>
	<path id="circle137" d="M199.4,115.7c1.9,0,3.4,1.5,3.4,3.4c0,1.9-1.5,3.4-3.4,3.4c-1.9,0-3.4-1.5-3.4-3.4
		C196,117.2,197.5,115.7,199.4,115.7z"/>
	<path id="circle139" d="M325.5,115.7c1.9,0,3.4,1.5,3.4,3.4c0,1.9-1.5,3.4-3.4,3.4c-1.9,0-3.4-1.5-3.4-3.4
		C322.1,117.2,323.6,115.7,325.5,115.7z"/>
</g>
</svg>
