<?xml version="1.0" encoding="utf-8"?>
<!-- Generator: Adobe Illustrator 24.0.1, SVG Export Plug-In . SVG Version: 6.00 Build 0)  -->
<svg version="1.1" id="Layer_1" xmlns="http://www.w3.org/2000/svg" xmlns:xlink="http://www.w3.org/1999/xlink" x="0px" y="0px"
	 viewBox="0 0 1878.3 2279.4" style="enable-background:new 0 0 1878.3 2279.4;" xml:space="preserve">
<style type="text/css">
	.st0{fill-rule:evenodd;clip-rule:evenodd;fill:#E09337;}
	.st1{fill-rule:evenodd;clip-rule:evenodd;fill:#FFFFFF;}
	.st2{fill-rule:evenodd;clip-rule:evenodd;}
	.st3{fill-rule:evenodd;clip-rule:evenodd;fill:#CD3529;}
	.st4{fill-rule:evenodd;clip-rule:evenodd;fill:#CA2A2F;}
	.st5{fill-rule:evenodd;clip-rule:evenodd;fill:#936B3B;}
</style>
<g>
	<path class="st0" d="M1389.9,121.7c-111-3.4-222.8-27-334.7-69.8c-38.8-15.1-77-31.9-114.3-50.4V0c-0.6,0-1.1,0.2-1.5,0.6
		c-0.5-0.3-1-0.5-1.5-0.6v1.5c-40.3,19.7-80.2,37.2-120.5,52.3C706,95.9,595.1,118.6,484.7,121.7C321.2,126,159.2,86.7,0,0v360.2
		c26.4,630.4,197.6,1116,484.7,1486.1c97.7,126.3,209,239.1,332.6,339.7c39.1,31.8,79.3,62.2,120.5,91.3v2.2c0.5-0.4,1-0.7,1.5-0.9
		c0.5,0.4,1,0.7,1.5,0.9v-2.2c38.9-27.9,77-56.7,114.3-86.7c124.2-100.5,236.4-213.3,334.7-339.7
		c288.9-370.7,461.6-857.5,488.4-1490.7V0.9V0C1717.6,87.3,1554.7,126.6,1389.9,121.7z"/>
	<path class="st1" d="M61.8,381.8c144.2-67.9,284.9-102.4,422.9-101.4c113.1,0.9,224.1,25.2,332.6,74.1
		c30.4,13.5,60.5,29.2,90.4,46.4v272.6c-32.3,3.4-62.7,13.2-90.4,27.7c-65.5,35-112.5,96.9-128.8,169.4H121.1
		C88.5,711.5,69.2,547.7,61.8,381.8L61.8,381.8z"/>
	<path class="st2" d="M935,716.2h4.3c41.6,0.8,82,14.2,115.9,38.4c52.9,37.8,87.6,99.6,87.6,169.7c0,69.8-34.7,131.9-87.6,169.7
		c-33.9,24.1-74.3,37.5-115.9,38.4H935c-42.1,0.1-83.2-12.8-117.7-36.9c-54.4-37.5-90.4-100.2-90.4-171.2s36-134,90.4-171.5
		C851.9,728.9,893,716.1,935,716.2z"/>
	<path class="st1" d="M1756.9,870.5h-575.7c-15.7-72.2-62.7-133.4-126-167.8c-27.1-14.9-56.9-24.6-87.6-28.6V403.9
		c27.7-19.7,57-37,87.6-51.9c95.6-47,209.6-75,334.7-75.6c131.9-0.6,276,29.5,422.6,100.8C1804.9,543.1,1789.5,711.5,1756.9,870.5z"
		/>
	<path class="st3" d="M1818.4,332.6c-145.4-69.8-289.5-100.5-428.5-98.7c-116.2,1.5-228.4,26.1-334.7,69.5
		c-39.6,16.3-78.1,35.3-115.9,56.5c-0.6,0.2-1.1,0.5-1.5,0.9v1.2h-0.3c-39.6-21.8-79.6-40.9-120.2-56.9
		c-109.1-43.3-220.7-65.5-332.6-66.1c-142-0.6-284.6,33.5-424.5,103.9c-3.1-81.5-3.4-163.1-0.9-244.7l1.8,0.9
		c141.4,59,282.8,86.7,423.5,84.2c111.3-2.2,222.2-23.1,332.6-62.7c41.6-14.7,82.3-31.7,122-51c37.7,18.3,76.4,34.6,115.9,48.9
		c108.8,39,221.6,61.5,334.7,64.8c144.8,4.6,290.5-22.4,428.8-85.1C1820.8,176.7,1820.8,254.8,1818.4,332.6L1818.4,332.6z"/>
	<path class="st1" d="M285.6,929.5H134c36.1,158.7,86,312.4,151.5,458.7V929.5z M572.9,929.5H429.4v727.2c0,0,0.4,5,55.3,83
		c28,39.6,57.4,78.2,88.2,115.7L572.9,929.5L572.9,929.5L572.9,929.5z M864.3,1165.9c-16.3-4.8-32-11.2-47-19.1
		c-41.9-22.1-76.7-55.5-100.5-96.4v962.2c32.4,31.9,66,62.7,100.5,92.3c15.4,13.1,31.1,26,47,38.8V1165.9z M1155.4,1046.3
		c0-0.1,0.1-0.1,0.1-0.2c-23.4,42-58.1,76.4-100.3,99.5c-15.1,8.2-30.9,14.8-47.3,19.7v983.2c51.3-40.9,100.5-84.3,147.6-130.1
		L1155.4,1046.3L1155.4,1046.3z M1744.3,929.5h-158v472.4C1581.3,1413,1694.1,1176.7,1744.3,929.5L1744.3,929.5z M1442.8,929.5
		h-143.8v933.5c-16.6,20,47.4-57,91-118.3c18.2-25.8,35.8-52,52.8-78.6L1442.8,929.5L1442.8,929.5z"/>
	<path class="st4" d="M429.4,929.5v727.2c-54.3-85.9-102.4-175.6-143.8-268.3V929.5H429.4z M716.8,1050v962.7
		c-50.7-49.7-98.8-102.1-143.8-157.1V929.5h110C683.9,971.8,695.5,1013.3,716.8,1050L716.8,1050z M1007.9,1165.2v983.3
		c-22.5,18-45.4,35.7-68.5,52.9c-25.4-18.6-50.4-37.8-75-57.5v-978c22.4,6.8,46.4,10.2,70.7,10.2
		C959.7,1176,984.2,1172.4,1007.9,1165.2L1007.9,1165.2z M1298.9,929.5v933.5c-45,54.4-92.9,106.3-143.5,155.5v-972.2
		c19.9-35.8,30.8-75.9,31.6-116.8L1298.9,929.5L1298.9,929.5L1298.9,929.5z M1586.3,929.5v472.4c-41.5,91.4-89.4,179.8-143.5,264.3
		V929.5H1586.3z"/>
	<path class="st2" d="M1601.2,670.6c0,1,0,2.1,0,3.1c-1.2,102.2-55.7,162-157.5,172.9h-28c-33.6-1.2-103.6-10.5-113.4-26.6
		c-1.3-2-1.5-4.6-0.4-6.7c6.4-9.6,35.2-0.3,56.3,6.5l5.1,1.6c14.9,4.8,37.8,3.4,53,2.5l0.8,0v-95l-20.5-0.9l-20-4.6
		c-88.2-24.8-119.4-81.5-119.4-127.5c0-1.1,0-2.2,0.1-3.3c1.9-56.9,48.3-104.8,115.7-119.4l-6.2-5.4c-11.1-9.7-21.6-18.8-27.7-33.2
		c-6.2-14.3-9.4-28-9.4-40.7c0-12.9,3.2-24.8,9.7-35.2c14.2-22.9,43-37.2,79.1-39.1h0.1l25.3,3.7c14.1,2.1,67.7,30.7,70.8,52.2
		c0.8,6-2.5,10.8-9.8,14.1l-0.3,0.1l-0.2-0.3c-16.7-19.4-53.8-43.2-80.2-46.3l-14.8,0.9c-17.4,0.8-34.3,13.6-42,31.7
		c-3.9,8.9-5.7,17-5.7,24.4c0,29.5,27.4,49,54.6,65.3v-55l126.9,0.2l1.1,1.5c2,2.8,3.3,4.6,3.3,7.5c0,2.2-0.7,5.1-2.5,9.5l-0.1,0.3
		h-89.6v38.7c25.5,0,52.5,2.5,80.7,7.5l5.3,4.8l1.9,5.8c-5.5,14.6-25.9,9.2-42.4,4.8l-12.4-3l-17.3-0.6l-11-1.6l3.9,3.2
		C1548.6,531.7,1601.2,577.1,1601.2,670.6L1601.2,670.6z M1417.1,706.1V498.3c-33.7-8.2-66.9,2.2-91.2,28.7
		c-18.8,20.8-29.4,47.7-29.6,75.8c0,10.6,1.6,21.1,5,30.9c12.6,36.5,47.1,61.3,97.2,69.8C1398.6,703.4,1416.1,706,1417.1,706.1
		L1417.1,706.1z M1454.3,610.1c17.7,5.6,23.5,5.2,42.2,0.8c10.8-2.6,14.8,0.5,16.2,2.7c2,3,1.4,7.2-1.6,11.4
		c-6.9,9.7-24.3,16.7-47.6,10.5l-10.2-2.6v76.1l16-0.4c24.7-1,61.9-2.5,68.2,3.8l1,2.3c-0.1,3.4-1.7,6.6-4.2,8.8
		c-12.5,11.5-50.3,10-70.5,9.2l-9.5-0.3v91.4c94.2-20.2,117.5-84.5,117.5-143.1c0-8.5-0.5-16.9-1.3-25
		c-6.7-61.9-49-112.8-116.2-139.8L1454.3,610.1L1454.3,610.1z"/>
	<path class="st5" d="M1042.7,857.4c-0.3-0.1-0.5-0.2-0.4-0.1c-9.1-6.1-17.6-8.2-25.3-6.1c-9.8,2.7-18.7,12.2-26.6,28.2
		c19.5,28.9,29.4,58.3,29.4,87.8c0,13.6-2.1,27.2-6.2,40.7c-11.8,39.3-40.9,79.5-86.3,119.5l7.8,0.2c26.5,0,52-5,75.8-14.9
		c43.9-57.3,65.8-110.4,65.8-158.7C1076.7,919.3,1065.3,887,1042.7,857.4L1042.7,857.4z"/>
	<path class="st5" d="M1136.4,934.1c0-13-1.5-25.9-4.8-38.5c-5.7-22.2-16.6-42.6-31.9-59.7c-10.7-8.1-20.1-11.1-28.2-8.9
		c-9,2.5-16.6,11.7-22.8,27.3c23,30.6,34.5,63.8,34.5,99.4c0,47.1-20.2,98.5-60.4,153.6C1091.7,1074.2,1136.4,1003.5,1136.4,934.1
		L1136.4,934.1z"/>
	<path class="st5" d="M943.7,902c9.9-19.9,23.7-28.6,41.2-25.9c8.6-17.7,18.7-28.4,30-31.6c8.8-2.5,18.4-0.4,28.5,5.8
		c7.1-17.1,16-27.4,26.6-30.2c9.9-2.7,21.3,1,33.9,10.8l0.4,0.4c12.1,13.4,21.7,28.8,28.3,45.6c-1.9-8.4-4.4-16.7-7.4-24.8
		c-0.8-0.1-1.6-0.4-2.3-1.8c-12.4-23.1-30.7-40.6-53-50.6c-16-7.4-33.5-10.7-52.1-9.7c-18,0.9-35.5,5.9-51.2,14.6
		c-24.3,13.1-43.4,33.9-55.1,59.8c-0.6,4.2-0.9,8-0.9,11.5c0,8,1.5,13.8,4.6,17.5C920.2,899.2,929.2,901.9,943.7,902L943.7,902z"/>
	<path class="st5" d="M1072.5,793.9c13.7,6.1,26.3,15.4,37.2,27c-13.1-21.9-30.1-41.5-50.2-57.2c-38.1-23.9-73.8-30.2-106-18.6
		c-30.9,10.9-60.1,38-86.7,80.5c-1.5,3.7-2.4,7.6-2.5,11.6c0,3.6,0.8,6.8,2.5,9.6c5,8.4,17.9,13.9,38.2,16.5l0.2-0.8l-0.3,0.8
		l0.1-1.1c12-26.8,32.5-49,58.2-63.2c16.7-9.2,35.2-14.5,54.2-15.5C1037,782.7,1056,786.2,1072.5,793.9z"/>
	<path class="st5" d="M822.7,799.7c3.9,12.5,17,20.1,38.7,22.6c27-43.6,57.2-71.7,89.8-83.5c19.7-6.8,39.9-7.3,61.2-2.3
		c-24.9-10.3-50.8-15.9-77.4-15.9c-18.1,0-36.7,2.6-55,7.6l0.5-0.3c0,0-1.7,0.9-1.2,0.8C850.4,742.9,831.9,766.1,822.7,799.7
		L822.7,799.7z"/>
	<path class="st5" d="M781.3,836.4c0,13.9,2.5,27.1,7.5,39.5c12,29.4,37.5,53.4,75.7,71.3c11.3,5,20.9,8.9,30.6,11.3
		c9.1,2.2,18.5,3,27.8,2.4c0,0,3.7-1.1,3.5-1c10-9,14.6-15.4,16.3-22.9c0.8-3,1.2-6.1,1.2-9.5c0-5.7-1-12.1-2.6-19.3
		c-15.3-0.4-25.2-3.7-31-10.5c-4.3-5.3-6.3-12.5-6.3-22.4c0-1.7,0.1-3.5,0.2-5.4c-21.9-2.9-36.3-9.2-42.6-18.8
		c-2.6-4-3.9-8.7-3.9-13.4c0-2.9,0.6-6,1.4-9.2c-24-3-38.5-12.4-42.9-28.2l0-1.5c6.7-25.7,19.4-45.9,37.1-60.8
		c-22.1,9.9-42,23-58.9,39.3C785.7,798.1,781.3,817.9,781.3,836.4L781.3,836.4z"/>
	<path class="st5" d="M931.2,1006.9c1-3,1.6-6.2,1.6-9.8c0-3.6-0.5-7.6-1.6-12c-1.5-6.2-3.8-12.1-7-17.6c-10.8,0.8-20.9,0-30.6-2.5
		c-11.3-2.7-22-7.2-31.9-11.8c-39.2-18.3-66.5-44.2-78.9-74.9c-5.4-13.3-8.1-27.6-8-42c0-14.8,2.8-30.3,8.1-46.5
		c-20.3,23.2-35.4,50.3-43.5,79.1c0.1,0.6,0.3,1.4,0.3,1.3c7.1,53.8,25.9,93.9,55.9,119.2c27.8,23.6,66.8,35.2,115.6,34.5
		c3-0.6,5.9-1.7,8.6-3.3C925.1,1017.4,929.2,1012.6,931.2,1006.9L931.2,1006.9z"/>
	<path class="st5" d="M791.1,994.2c-28.3-24-46.9-60.7-55.5-108.7c-2.5,13.2-3.9,26.2-3.9,38.7c0,18.9,2.8,38.1,8.3,57.1
		c14.9,38.4,33.9,67.1,56.5,85.6c24.3,19.3,53.1,27,85.6,22.8c5.6-0.6,11.1-2.1,16.2-4.5c5.9-3.1,10.2-7.3,12.8-12.4
		c2.2-4.3,3.3-9.3,3.3-14.7c0-1.7-0.1-3.3-0.3-5c-0.9-7.1-3.4-14.8-7.3-22.8C857.6,1030.3,819.8,1018.5,791.1,994.2L791.1,994.2z"/>
	<path class="st5" d="M882.9,1096.2c-28.3,3.7-53.9-1.3-76.3-14.7c31.7,25.9,70.7,41.9,111.4,45.4c47.2-40.8,77.2-81.5,89.1-120.9
		c4-13.1,6.1-26.2,6.1-39.2c0-28.3-9.5-56.5-28.4-84.2c-15.6-2.5-27.6,5.6-36.4,24.2l-0.6,1c1.5,7.4,2.6,13.9,2.6,20
		c0,3.9-0.4,7.6-1.5,11.2c-2.1,8.7-7.5,16.3-18.5,26.1c3.2,6.4,5.6,12.7,7.1,18.5c1.1,4.5,1.7,8.8,1.7,12.9c0,4.5-0.7,8.7-2.1,12.7
		c-2.5,7.3-7.3,13.1-14.4,17.2c-2.9,1.4-6.1,2.5-9.5,3.4c3.7,8.2,6.1,15.9,7,22.8c0.3,2,0.4,4.1,0.4,6.1c0,6-1.3,11.8-3.9,17.3
		c-3.5,6.4-8.9,11.6-15.5,14.9C895.7,1093.9,889.4,1095.7,882.9,1096.2L882.9,1096.2z"/>
	<path class="st2" d="M795.8,651c-5.2-18.1-14.1-35.7-26.4-53.5c1.2-5.8,0.9-11.1,0.6-16.9c0-2.5-0.3-4.9-0.3-7.7v-4.6
		c0.3-4.9,0.3-9.5-0.9-13.8c15.1-25.8,19.4-48.9,15.7-79.9c-4.6,2.8-8.9,5.5-12.3,9.8c-0.9-4.9-1.5-9.8-2.5-15.1
		c-0.3-1.8-2.8-2.5-4-0.9c-4,4.9-8,9.5-12.3,14.4c-12.3,14.1-23.7,28.9-22.7,49.5v3.7l-1.2,1.8c-12,15.4-17.2,32.3-22.7,49.5
		c-1.8,6.1-3.7,12.3-5.8,18.4V477.9l-0.6-0.6c-3.1-2.8-5.5-4.9-7.7-7.1c-6.8-5.8-12.3-8.6-12.6-23.4c-0.3-6.8,4.3-11.1,7.1-12.9
		c2.2-1.8,5.2-1.5,9.8,1.2c0.6,2.5,1.2,4.3,0.9,5.8c-0.6,7.7-8,9.5,4.3,18.4c3.7,2.5,8,2.2,12.9-4.6c2.3-3.1,3.6-6.7,4-10.5
		c0.6-5.8-0.4-11.6-2.8-16.9c-2.4-5.5-6.1-10.3-10.8-14.1c-3.1-2.2-6.8-4-10.8-4.3h-0.6c-11.1,1.2-18.4,4.6-23.4,9.8
		c-5.2,5.2-7.7,12.3-9.5,21.2c-1.5,9.2,0.3,17.8,4.6,26.1c3.7,7.7,9.5,15.1,16,21.2v201.3c-0.3,0.3-0.9,0.3-1.2,0.6
		c-6.5,4.3-6.8,17.8-11.1,25.2c-5.2,8.3-16.6,9.8-23.4,16.3c-9.6,8.8-22,27.9-21.8,27.4V293.5c-8.7-1.6-17.4-3-26.1-4.3v9.2h-19.4
		c-3.4-16.6-29.8-15.7-33.2-4h-12.9c-8.3-18.4-30.1-14.1-36.3,0h-16.6c-8-16-28.9-14.8-36.6,0h-13.8c-0.6-10.5-13.2-11.7-22.1-8
		c-6.1,2.8-10.5,7.4-9.2,12.9h-17.8v-12.9c-8.9,0.9-17.8,2.2-26.7,3.4v138.9c-12.9-33.5-23-67.9-31.7-102.7
		c-0.3-2.5-4.6-1.2-4.3,0.9l36,165.4v330.7h255.7c0.1-1.4,0,3.1,0,6.8c0,5.8,19.1,4.9,21.5,4.6c1.8-0.2,3.6-0.4,5.2-0.5l-0.6,36.5
		h53.2c1.1-4,1.9-7.8,2.9-11.8l-0.2,0.4c0.1-0.5,0.3-0.9,0.4-1.3l-0.2,0.9c0.2-0.4,0.3-0.9,0.4-1.4c11.5-40.8,32.8-77.9,61.5-107.6
		c14.6-15.2,31-28.5,48.9-39.6C803.2,688.2,801.3,669.1,795.8,651L795.8,651z M600.9,650.7c-3.7-4.6-47.9-58.1-66.1-80.5
		c22.7-14.4,41.8-31,54.7-54.4c1.8-3.4,3.7-7.1,5.2-11.1c2.5-0.6,4.3-1.5,6.1-3.1L600.9,650.7L600.9,650.7z M600.9,471.2
		c-3.3-2.5-7.3-3.8-11.4-3.7c-7.1,0-13.2,3.7-16.6,9.2l-16.3,7.7c-1.9-6.8-5.2-13.5-9.5-20.6c-4.7-7-10.3-13.4-16.6-19.1
		c6.5-10.8,7.1-21.5,4-32.9c-3.4-11.1-10.8-22.7-20-35.4c1.5-2.5,2.8-4.9,3.7-7.7c0.9-3.1,1.2-6.8,0.3-11.7
		c-0.6-4.3-4.3-9.2-8.6-14.7c-6.1-8-13.8-17.8-16-29.8c-0.3-2.2-3.7-2.2-4.3-0.3c-0.5,3.2-1.5,6.3-3.1,9.2c-3.4,6.8-8,12-12.3,16.9
		c-5.8,6.5-10.5,12-11.1,18.4c-0.3,3.4,0.3,7.1,1.5,10.8c0.9,3.1,2.2,5.8,3.7,8.9c-1.2,1.6-2.4,3.2-3.4,4.9
		c-12.9,18.7-26.4,38.7-13.8,63.3c-5.5,4.9-10.8,10.8-15.7,17.2c-5.2,6.7-9.9,13.8-14.1,21.2l-12.6-6.8c-0.6-0.9-0.9-1.5-1.5-2.5
		c-3.9-4.4-9.5-6.8-15.4-6.5c-6.5,0.3-13.2,3.7-16.3,10.5V311.1c5.5,4,11.4,6.5,16.3,5.8c2.8-0.3,5.5-1.6,7.4-3.7
		c2.5,3.1,4.9,5.8,8,8.6c4.6,4.6,9.8,8.6,15.4,12.9c4-17.8,5.8-27.1,15.4-28.6c9.8-1.5,19.7,13.5,25.5,24.6
		c5.8-14.1,12.3-24.6,19.7-31h11.7c9.2,7.7,14.8,18.8,17.2,31.7c8.3-14.4,15.1-28.3,26.4-27.1c11.1,1.2,14.1,16.3,15.4,30.4
		c6.8-8.6,14.1-16.6,22.1-23.7c5.2,4,9.2,5.8,13.5,5.8c3.7,0,7.1-1.8,11.4-4.9L600.9,471.2L600.9,471.2L600.9,471.2z"/>
	<path class="st5" d="M529.9,571.1c19.7,24.3,39.6,48.5,59.6,72.5c3.1,3.7,6.1,7.4,9.2,11.4v38.1l-9.2-6.5l-97.7-65.5
		c-0.8-0.3-1.7-0.3-2.5,0l-115,79.9V588.9l14.4,67.3c0.3,1.2,1.8,1.8,3.1,1.5c0.3,0,0.9-0.3,0.9-0.9c4.6-6.8,9.2-13.5,14.4-20.3
		c12.6-17.5,27.7-34.7,44.6-51.9v-0.3c0.3,0,0.3-0.3,0.3-0.3c0.3-0.9,0.2-1.9-0.3-2.8c-13.8-11.4-26.1-24.6-37.2-38.7h148.8
		c-9.5,9.5-20.6,17.8-32.9,25.5C529.3,568.6,529.3,570.2,529.9,571.1L529.9,571.1z"/>
	<path class="st1" d="M336.9,394.7c9.8,31,21.8,61.5,36.6,90.7v0.3c-0.3,6.5,3.4,14.1,9.5,17.5c3.1,4.9,5.8,9.8,8.9,14.4
		c4.9,7.7,9.8,15.1,15.4,22.4c11.7,15.7,24.6,30.4,40,43c-0.6,0.3-32.4,34.6-55,67l-0.3-0.9L336.9,394.7L336.9,394.7z"/>
	<path class="st5" d="M600.9,729.7H372.2v-22.1c1.2-0.3,117.4-81.5,118.3-82.1c8.6,5.2,109.7,73.5,110.3,73.8L600.9,729.7
		L600.9,729.7L600.9,729.7z"/>
	<path class="st2" d="M589.5,501.3c-7.1-0.3-13.8-4.6-14.8-12.6v-0.3v-0.3v-0.6c-0.9-10.1,7.1-15.4,14.8-15.4
		c7.4,0,14.4,4.6,14.4,14.4C604,496.7,596.6,501.3,589.5,501.3z"/>
	<path class="st5" d="M589.5,505.6c-10.5,0.1-19.1-8.4-19.2-19c0-1.4,0.1-2.7,0.4-4.1l-14.8,6.8c-0.4,0.2-0.8,0.2-1.2,0.2v18.9
		c0,0.9-1.2,2.2-2.2,2.2H525c-0.9,0-2.2-1.2-2.2-2.2v-13.2H458v13.2c0,0.9-1.2,2.2-2.2,2.2h-27.7c-0.9,0-2.2-1.2-2.2-2.2V484
		c-0.6,1.1-1.2,2.1-1.8,3.2c-0.6,0.9-2.2,1.5-3.1,0.9l-9.8-5.2c1.2,5.8-0.3,11.7-4,16c-3.9,4.4-9.5,6.9-15.4,6.8h-1.5v-0.3h-0.9
		c0.9,1.2,1.5,2.8,2.5,4c4.9,8,9.8,15.7,15.4,23.4c1.2,1.8,2.5,3.7,4,5.5h156.5c8.8-9.6,16.1-20.3,21.8-32c0-0.3,0-0.3,0.3-0.6
		L589.5,505.6L589.5,505.6z M468.4,383.9c-11.8,17.8-24.7,36.6-12.9,59.1l0.2-0.1c0.9,0,2.2,0.9,2.2,2.2V470h65.8v-24.9
		c0-1.3,1.4-2.2,2.8-2.3c5.8-9.5,6.6-19.3,3.6-29.6c-3.1-11.1-10.4-22.4-20-35c-0.6-0.6-0.6-1.9-0.3-2.5c1.9-3.1,3.4-5.2,4-8
		c0.9-2.5,0.9-5.5,0.3-9.8c-0.3-3.1-3.7-7.7-8-12.9c-4.9-6.5-11.1-14.4-14.4-24c-1.5,3.2-3.2,6.3-5.2,9.2c-2.8,4.3-6.1,7.7-9.2,11.4
		c-4.9,5.5-9.2,10.5-9.8,15.7c-0.3,3.1,0.3,5.8,1.2,8.9c1.2,3.1,2.5,6.5,4,9.8c0.3,0.3,0.3,1.5,0,2.2
		C471.2,379.9,470,381.8,468.4,383.9L468.4,383.9z"/>
	<path class="st2" d="M506.8,386.1c-4-6.5-9.8-10.1-16.3-10.1c-6.4,0-12.3,3.7-16.3,10.1c-4,5.8-6.5,14.1-6.5,23.1
		c0,8.9,2.5,17.2,6.5,23.4c4,6.1,9.8,10.1,16.3,10.1c6.5,0,12.3-4,16.3-10.1c4-6.1,6.5-14.4,6.5-23.4
		C513.3,400.2,510.9,391.9,506.8,386.1z"/>
	<path class="st1" d="M503.2,430c-3.4,4.9-7.7,8-12.6,8c-4.9,0-9.2-3.1-12.6-8c-3.7-5.2-5.8-12.6-5.8-20.9c0-8,2.2-15.4,5.8-20.6
		c3.4-5.2,7.7-8.3,12.6-8.3c4.9,0,9.2,3.1,12.6,8.3c3.4,5.2,5.5,12.6,5.5,20.6C508.7,417.4,506.5,424.8,503.2,430z M392.5,471.8
		c-8,0-14.4,6.5-14.4,14.7c0,8,6.5,14.8,14.4,14.8c8.3,0,14.8-6.8,14.8-14.8C407.3,478.3,400.8,471.8,392.5,471.8z M589.5,471.8
		c-8.3,0-14.8,6.5-14.8,14.7c0,8,6.5,14.8,14.8,14.8c8,0,14.4-6.8,14.4-14.8C604,478.3,597.5,471.8,589.5,471.8z"/>
	<path class="st5" d="M753.4,536.7c-5.7-2.8-12.1-4.1-18.4-3.7v-0.6c-0.6-17.2,8-30.4,18.4-42.7c4.3-5.2,8.6-9.8,12.6-14.7
		c2.8,19.7,11.1,55,0.6,74.7C763.4,544.2,758.8,539.7,753.4,536.7z M613.5,828.7l4.3,1.5c2.8,1.2,7.7,0.6,12.6,0
		c5.5-0.6,11.1-1.5,14.8,0.3c4.9,2.8,8.3,5.2,10.8,7.4c5.2,4,8.3,6.1,20.9,4c0.6,0,1.5,0.3,2.2,0.9c2.8,4,4.3,6.1,5.8,7.4
		c1.2,1.2,3.1,2.2,5.8,3.7c8.3-29.5,22.1-56.6,40-80.8c18.5-24.8,41.3-46,67.3-62.7c0.9-21.5-0.9-40.3-6.1-58.1
		c-4.9-16.6-12.6-32-23.4-48.3c-3.1,19.4-7.4,35-16.6,47.3c-9.8,13.5-25.2,23.4-50.1,30.1c-0.3,0-0.6,0-0.9,0.3v45.2
		c-0.1,0.6-0.3,1.1-0.6,1.5c-2.5,2.8-4.6,6.1-7.1,10.5c-2.5,4.6-4.9,9.8-7.4,16.3c-0.6,1.8-4,1.2-4-0.9V694h-0.3
		c-0.6,2.2-1.2,4-1.8,6.1c-1.5,5.8-3.4,11.4-6.5,16.6c-3.7,5.8-9.2,8.6-14.8,11.7c-3.4,1.9-6.8,3.4-9.5,5.8
		c-13,11.6-22.6,26.5-28,43C615.7,793,613.5,810.2,613.5,828.7L613.5,828.7z"/>
	<path class="st1" d="M732.8,560c-1.5-0.3-2.8,0.3-4,1.5c-1.5,1.2-2.5,3.4-2.8,5.5c-0.3,2.5,0,4.6,0.9,6.1s2.2,2.8,3.4,2.8
		c1.5,0.3,2.8-0.3,4-1.5c1.5-1.2,2.5-3.4,2.8-5.5c0.3-2.5,0-4.6-0.9-6.1C735.6,561.3,734.3,560.3,732.8,560z M696.2,479.8
		c-2.5-2.5-4.6-4.3-6.5-6.1c-7.7-6.8-11.4-10.1-14.4-26.4l0.3-0.9c2.5-7.7,4.9-13.2,8.6-16c8.9-6.8,18.7,1.2,17.8,11.1
		c0,2.2-0.9,4-2.2,6.8c1.2,3.1,2.8,6.1,4.9,7.7c1.5,1.2,3.7,0.6,6.8-3.4c1.5-2.5,2.8-5.2,3.1-8.3c0.5-5.1-0.3-10.3-2.5-15.1
		c-2.2-4.6-5.2-9.2-9.2-12c-2.8-1.8-5.5-3.4-8.6-3.7c-9.8,1.2-16.3,4-20.6,8.6c-4.3,4.3-6.8,10.8-8.3,19.1c-1.5,8,0.3,16,4,23.4
		c4.2,7.6,9.6,14.6,16,20.6l0.6,0.9v257.6c0.9-2.5,2.2-4.6,3.1-6.4c2.5-4.3,4.9-8,7.1-10.8L696.2,479.8L696.2,479.8z"/>
	<path class="st2" d="M350.4,817.3c-1.8-11.4-4-22.7-5.5-34.4c-1.5-15.4-2.2-31-2.8-46.7c-0.6-12-0.9-24-2.2-36
		c-0.1-0.6-0.3-1.1-0.6-1.5c-4-4-7.7-8-11.7-12.3c-9.5-10.8-19.4-21.5-31.3-28.3V487.5c6.1-6.1,12-13.5,16-21.2
		c4-8.3,6.1-16.9,4.3-26.1c-1.5-8.9-4.3-16-9.2-21.2c-4.6-4.6-10.8-7.7-19.4-9.2c-1.4-0.4-2.9-0.6-4.3-0.6h-0.9
		c-3.8,0.6-7.3,2.1-10.4,4.3c-0.6,0.6-1.5,1.2-2.2,2.2c-3.7,3.1-6.5,7.4-8.6,12c-2.2,5.5-3.4,11.4-2.8,16.9c0.6,4,1.8,7.4,4,10.5
		c2.8,3.7,5.2,5.2,7.4,5.8c2.2,0.3,4,0,5.5-1.2c3.1-2.5,5.2-6.8,6.8-10.8v-1.9c-1.5-2.8-2.2-4.3-2.5-5.8c0-1.5,0.3-3.4,1.2-5.8
		c0.6-0.3,0.9-0.6,1.5-0.9c0,0,0.3,0,0.3-0.3h0.3c1.4-0.8,3-1.2,4.6-1.2c1.2,0,2.2,0.3,3.1,1.2c2.8,1.9,4.9,6.5,7.1,12.9
		c-2.5,12.3-5.2,16.3-10.1,20.9c-0.9,0.9-1.8,1.8-2.8,2.5c-0.6,0.6-1.2,1.2-1.9,1.5c0,0.3-0.3,0.3-0.3,0.6c0,0-0.3,0-0.3,0.3
		c-1.7,1.4-3.4,3-4.9,4.6c-0.3,0.5-0.5,1-0.6,1.5v117.4h-7.1v-1.2c-1.2-8.9-3.7-17.6-7.4-25.8c-5.3-11.9-12.5-22.8-21.5-32.3
		l-1.2-4.6c0-3.4,0-6.5-0.3-9.8c-0.3-6.8-0.3-13.2-0.9-19.7c-1.2-10.5-3.1-20.6-8-30.7l-5-10.4c-0.6-1.5-3.1-1.5-3.7,0l-1.8,2.8
		c-1.2,2.2-2.5,4.3-4,6.4l-2.8,4.6c-0.6-1.6-1.3-3.1-2.2-4.6c-1.2-2.8-2.5-5.5-4-8.3c-0.6-1.2-2.2-1.5-3.1-0.9
		c-12.6,8.9-18.4,24.3-20,41.2c-2.2,21.5,2.5,45.8,8.9,61.2c-0.6,6.8-3.7,9.2-7.4,12.3c-2.8,2.2-5.8,4.6-8.6,8.9
		c-3.1,4.9-4.3,10.8-5.2,16.3l-0.9,3.7v0.6c0.6,5.5,2.5,9.8,5.2,13.8c2.5,3.1,5.2,5.8,8.6,8.3l-4.9,11.1c-2.5,7.6-5.1,15.2-8,22.7
		c-6.4,18.4-12.9,36.6-16.3,56.2c-6.1,36-8.3,72.5-9.2,109.1c0,0,0.3,1.2,0.6,1.2l3.4,4.3l0.3,0.3c6.1,4.6,8.6,4.6,5.5,3.4l-4,34.1
		h185.6c0-0.3,0-0.6-0.3-0.6l-8.3-20.3l24,2.2c1.2,0,2.5-1.2,2.2-2.5C354.3,838.5,352.6,827.9,350.4,817.3L350.4,817.3z"/>
	<path class="st1" d="M281.6,598.4V479.8c0.3-0.3,0.6-0.6,1.2-0.9v-0.3l0.3-0.3l0.3-0.3c1.9-1.5,3.4-3.1,4.6-4c0-0.3,0-0.3,0.3-0.3
		c7.7-6.8,11.4-10.1,14.1-26.4v-0.9c-2.5-7.7-5.2-13.2-8.6-16c-1.7-1.2-3.8-1.8-5.8-1.8c-1.5,0-2.8,0-4.6,0.6l-0.3,0.3h-0.3
		c-1.6,0.7-3.1,1.5-4.6,2.5c-0.3,0.3-0.9,0.9-0.9,1.2c-1.2,3.7-1.9,5.8-1.5,8.3c0.3,2.2,0.9,4,2.5,6.8c-1.5,3.1-3.1,6.1-4.9,7.7
		c-0.9,0.6-1.8,0.6-3.1,0c-1.2-0.3-2.5-1.5-3.7-3.4c-1.8-2.4-2.8-5.3-3.1-8.3c-0.6-4.9,0.3-10.1,2.2-15.1c1.2-2.5,2.8-4.9,4.6-7.4
		c1.5-1.8,3.1-3.4,4.9-4.6c2.2-1.8,4.9-3.1,7.7-3.4v-0.3h0.9c1.5,0.3,2.8,0.3,4.3,0.6c7.4,1.5,12.6,4.3,16.3,8
		c4.3,4.3,6.5,10.8,8,19.1c1.5,8-0.3,16-4,23.4s-9.5,14.4-15.7,20.6c-0.4,0.5-0.6,1.2-0.6,1.8v168.7c-1.5-0.6-2.8-0.9-4-1.5h-0.3
		v-0.3h-0.9v-0.3h-0.6c-0.3-0.3-0.9-0.3-1.5-0.6c-0.3,0-0.6-0.3-0.9-0.3h-1.5v0.3h-0.6L281.6,598.4L281.6,598.4L281.6,598.4z
		 M238.8,561.3c0.9,0.3,1.7,0.7,2.5,1.2c1.5,0.9,2.8,2.8,3.4,4.9s0.3,4.3-0.3,6.1c-0.9,1.5-2.2,2.8-3.7,3.1
		c-0.6,0.3-1.2,0.3-1.9,0.3c-0.9-0.3-1.8-0.6-2.8-1.2c-1.7-1.2-2.8-3.1-3.1-5.2c-0.6-2.2-0.6-4.3,0.3-5.8c0.6-1.5,1.8-2.8,3.4-3.4
		L238.8,561.3L238.8,561.3z"/>
	<path class="st5" d="M220.1,473.3c0.3-0.3,0.3-0.3,0.3-0.6c1.2-1.9,2.2-3.4,3.4-5.2l3.1,6.5c7.4,15.7,8,32,8.6,48.9l0.6,10.8
		c-6.1-2.5-11.4-0.6-15.7,2.8c-3.7,3.1-7.1,7.4-9.5,11.1c-0.3,0.3-0.3,0.3-0.3,0.6c-0.3,0-0.3,0.3-0.3,0.3l-0.3,0.3l-0.6,0.6
		C199.8,514.2,206.3,496.4,220.1,473.3L220.1,473.3z M238.8,839.7c-6.1-0.6-80.2-6.8-85.1-10.1l-2.5-3.4
		c0.9-35.7,3.1-71.9,8.9-107.3c3.4-19.4,9.8-37.5,16.3-55.6c2.5-7.4,5.2-14.7,7.7-22.7l4.6-10.5h0.6c0,0,0.3,0,0.3-0.3h0.3
		c6.1-3.7,8.9-6.1,10.8-7.7c1.2-0.9,1.9-1.5,2.8-1.9c3.4-0.9,10.8,0.3,16.9,1.5c3.1,0.6,5.5,1.2,7.4,1.5c3.7,1.2,7.4,2.2,11.1,2.8
		c9.2,1.9,18.8,0.9,26.1-6.1c2.8-2.5,4.3-5.5,5.2-8.6c0.9-3.4,0.9-7.1,0.6-10.8h6.5v53.8c-2.5,1.2-4.9,2.2-7.1,3.4
		c-11.5,5.9-22.1,13.6-31.3,22.7c-6.9,6.3-13,13.3-18.4,20.9c-20.3,27.4-34.1,61.5-44.9,96.2c0,0.6,0,0.9-0.3,1.5
		c0,0.3-0.3,0.9-0.3,1.2v0.3c-0.3,0.3-0.3,0.9-0.3,1.2c-0.3,0.6-0.3,0.9-0.3,1.5c-0.3,0.9,0.6,2.5,1.5,2.5c2.2,0.3,4.3,0.6,6.8,0.9
		c12.3,1.8,23.7,3.7,36.6,4.3c0.5-0.1,0.9-0.3,1.2-0.6c0.3,0,0.6-0.3,0.6-0.3c6.5-8.6,12.3-17.8,17.8-27.3v13.2
		c0.3,14.8,0.9,29.2,1.5,43.6L238.8,839.7L238.8,839.7z"/>
	<path class="st5" d="M326.4,844.6c-1.5,0-2.8,1.5-2.2,3.1l8.3,20.6H319l8.3-81.2c0-0.9,0.3-2.2-1.8-2.2c-2.2-0.3-2.5,0.6-2.5,1.8
		l-8.3,81.1v0.3h-11.4l8.3-65.8c0-0.9,0.3-2.2-1.9-2.2c-2.2-0.3-2.5,0.6-2.5,1.8l-8.3,66.1h-53.5c0-8.6-0.3-17.2-0.6-25.8v-0.3
		c-0.6-15.4-1.5-30.4-1.9-45.8v-12l7.4-21.5c0.3-0.3,0.3-0.6,0.6-0.9v-0.3v-0.3h0.3V761v-0.3h0.3v-0.6h0.3v-0.3v-0.3v-0.3h0.3
		l17.8-28.3l4.3-7.1c0.3-0.3,0.3-0.6,0.3-0.9c0.9-5.5-1.5-4-4.6-0.9c-3.1,3.5-6,7.2-8.6,11.1c0,0,0,0.3-0.3,0.3c0,0.3,0,0.3-0.3,0.6
		c0,0,0,0.3-0.3,0.3c0,0.3,0,0.3-0.3,0.6c0,0,0,0.3-0.3,0.3c0,0.3,0,0.6-0.3,0.6c0,0.3,0,0.3-0.3,0.6l-0.3,0.3
		c0,0.3-0.3,0.6-0.3,0.6c0,0.3-0.3,0.3-0.3,0.6c0,0-0.3,0.3-0.3,0.6c-0.3,0-0.3,0.3-0.3,0.3c-0.3,0.3-0.3,0.6-0.3,0.6
		c-0.3,0.3-0.3,0.3-0.3,0.6l-0.6,0.6c0,0.3,0,0.3-0.3,0.6c-3.1,5.5-5.5,12-8.9,17.5l-0.3,0.3c-0.6,1.9-1.5,3.1-2.5,4.9v0.3h-0.3
		c-1.8,3.4-3.7,6.5-5.5,9.5c-5.8,10.1-11.7,20.3-18.4,29.8c-0.6,1-1.3,1.9-2.2,2.8c-12.8-0.7-25.5-2.1-38.1-4.3h-0.9v-0.3h-0.3
		c9.8-32.9,22.1-63.3,41.5-92.2c0.3-0.3,0.6-0.9,0.9-1.2c5.2-7.7,11.1-15.1,17.5-21.5c9.5-10.1,20-18.8,31.3-24.6
		c3.1-1.5,6.5-3.1,9.8-4.3l2.5-0.9h1.5c1.5,0.6,2.8,1.2,4,1.5c14.4,6.1,25.5,18.4,36.6,30.7c3.7,4,7.4,8,11.1,11.7
		c0.9,12,1.5,23.7,1.8,35.3c0.6,15.4,1.2,31,3.1,47c1.5,11.7,3.7,23,5.5,34.7c1.9,9.5,3.7,19.1,4.9,28.9L326.4,844.6L326.4,844.6z"
		/>
	<path class="st2" d="M257.9,833c0.6-1.5,0.9-3.1,1.5-4.6c1.3-2.8,2.1-5.8,2.5-8.9c0.3-3.1,0-5.5-0.3-8c-0.3-4-0.9-7.7,0.9-13.8
		l0.3-0.6l26.7-31.7c0.6-1.5-0.6-4.3-1.8-7.1c-1.2-2.8-2.2-5.5-2.2-8.3c-0.3-4.3,1.2-10.1,2.5-14.4c0.6-2.1,1.2-4,1.2-4.9
		c0.3-0.9,0.3-2.2,2.5-1.8c2.2,0.3,2.2,1.2,1.9,2.5c0,1.2-0.6,3.4-1.2,5.5c-1.2,4-2.5,9.2-2.5,13.2c0,1.9,0.9,4,1.8,6.5
		c1.9,4,3.7,8,1.5,11.4v0.3l-26.7,31.3c-1.2,4.9-0.9,8-0.6,11.4c0.3,2.8,0.6,5.5,0.3,8.9c-0.3,3.5-1.2,6.9-2.5,10.1
		c-0.6,1.5-1.2,3.1-1.5,4.3c-0.3,1.2-0.6,2.2-2.8,1.5C257.3,835.1,257.6,834.2,257.9,833L257.9,833z"/>
</g>
</svg>
