<?xml version="1.0" encoding="utf-8"?>
<!-- Generator: Adobe Illustrator 24.0.1, SVG Export Plug-In . SVG Version: 6.00 Build 0)  -->
<svg version="1.1" id="Capa_1" xmlns="http://www.w3.org/2000/svg" xmlns:xlink="http://www.w3.org/1999/xlink" x="0px" y="0px"
	 viewBox="0 0 448.9 595.5" style="enable-background:new 0 0 448.9 595.5;" xml:space="preserve">
<style type="text/css">
	.st0{fill:#0094D3;}
	.st1{fill:#FBDE13;}
	.st2{fill:#E1221C;}
	.st3{fill:#A43316;}
	.st4{fill:#D48E0A;}
	.st5{fill:#F4F2F2;}
</style>
<path class="st0" d="M13.5,240.8h421.9c-2.4-15.5-8.4-31.6-16.4-46.7H29.8C21.9,209.2,15.9,225.3,13.5,240.8z"/>
<path class="st1" d="M435.4,240.8H391v174.9c26.9-51.3,45.6-107.9,45.6-160.3c0-12.1-2.7-25.1-7.3-38h0
	C432.1,225.3,434.2,233.1,435.4,240.8z"/>
<path class="st2" d="M344,489.7c16.9-22.3,33.1-47.4,47-74V240.8h-47V489.7z"/>
<path class="st1" d="M297,542.8c15.6-14.8,31.6-32.8,47-53.1V240.8h-47V542.8z"/>
<path class="st1" d="M106.8,492.1c15.8,20.6,32.2,38.8,48.1,53.4V240.8h-48.1V492.1z"/>
<path class="st2" d="M59.8,419.3c14,26.2,30.2,50.9,47,72.9V240.8h-47V419.3z"/>
<path class="st1" d="M12.8,270.4c3.2,49.3,21.6,101.4,47,148.8V240.8H13.5c1.2-7.7,3.3-15.5,6.1-23.4h0c-3.4,9.7-5.8,19.4-6.8,28.8
	V270.4z"/>
<g>
	<path class="st1" d="M224.4,282.3c9,0,17.7,1.8,25.6,5v-46.5h-47v44.9C209.7,283.5,216.9,282.3,224.4,282.3z"/>
	<path class="st1" d="M224.4,419.2c-7.5,0-14.7-1.2-21.4-3.4v163.7c7.8,3.4,15.1,5.2,21.4,5.2c7.5,0,16.1-2.5,25.6-7.2V414.2
		C242.1,417.4,233.5,419.2,224.4,419.2z"/>
</g>
<path class="st2" d="M250,240.8v46.5c25.1,10.1,42.9,34.7,42.9,63.5s-17.7,53.3-42.9,63.5v163.3c14.3-7,30.4-19,47-34.8v-302H250z"
	/>
<path class="st2" d="M156,350.8c0-30.3,19.7-56,47-65v-44.9h-48.1v304.8c17.2,15.8,33.7,27.6,48.1,33.9V415.7
	C175.7,406.7,156,381.1,156,350.8z"/>
<circle class="st3" cx="224.4" cy="350.8" r="68.4"/>
<circle class="st4" cx="224.4" cy="350.8" r="63.9"/>
<path class="st3" d="M272.3,356.2l0-1.3c0-26.5-8.9-42.8-19.4-48c0.2-0.4,0.7-1.1,1.8-2c2.4-2,6.4-3.7,10.1-3.6
	c-1.2-0.9-2.3-1.8-3.6-2.7c-3.4,0.7-6.4,2.4-8.4,4c-1,0.8-2.2,1.9-2.7,3.2c-1.6-0.5-3.3-0.8-4.9-0.8c-8.5,0-13.5,8.7-15.9,12.9
	c-0.4,0.7-0.7,1.2-0.9,1.5c-1.5,2.1-5.8,3.2-12.6,3.2c-7.4,0-9.9-1.5-9.9-6c0-7.5,10.1-24.4,24.2-29.4c-1.9-0.2-3.8-0.3-5.7-0.3
	c-0.2,0-0.5,0-0.7,0c-12.5,7.3-20.7,22.3-20.7,29.7c0,0.7,0.1,1.3,0.2,1.9c-2.4,1.3-7.5,3.9-11.5,3.9c-9.2,0-16.4-7.1-18.5-9.8
	c-0.6,0.8-1.2,1.7-1.8,2.6c3.4,4.1,11.1,10.2,20.3,10.2c4.4,0,9.6-2.4,12.5-4c2.5,4.2,8.4,4.2,11.7,4.2c7,0,11.5-1.1,14-3.3
	c3,2.3,10.8,9.5,10.8,21.2c0,7.2-0.2,12.4-2.1,13.6c-2.2,1.3-17.9,3.3-28,3.3c-27.1,0-47.6-10-49.9-11.6c0,0.7-0.1,1.3-0.1,2
	c0,0.5,0,0.9,0,1.4c6.6,3.5,26.1,11.2,49.9,11.2c9.1,0,25-1.8,29-3.5c1.2,2.5,3.2,9,3.2,14.2c0,7.5-2.9,17.3-16.6,21.6l-0.1,0
	c-3.3-1.9-11.5-5.3-17.6-5.3c-4.3,0-9.2,1.8-11.9,3.9c-3-2.5-11.7-9.4-18-9.4c-2.5,0-5.6,0.7-7.3,1.2c0.6,0.9,1.2,1.8,1.8,2.6
	c1.6-0.4,3.8-0.8,5.5-0.8c5.1,0,13,6.1,16.1,8.7c-0.1,0.3-0.2,0.5-0.2,0.8c0,2.3,2.5,8.1,6,12.6c1.8,0.7,3.6,1.4,5.4,1.9l0.3-0.3
	c-4.6-3.6-8.5-11.7-8.7-14c0.7-1.2,5.7-4.1,11-4.1c5.3,0,13,3.1,16,4.8c0.2,3.6,6.5,10.9,13.2,15c1.5-0.3,2.9-0.7,4.3-1.1
	c-0.1,0-0.2-0.1-0.3-0.1C272.6,396.8,272.4,367.4,272.3,356.2z M238.4,410.2c-5.7-3.8-10.4-9.8-11-11.8c15.1-5,18.3-16,18.3-24.4
	c0-5.4-2.1-13.1-3.9-16.3c1.7-2.7,1.8-7.5,1.8-14.4c0-13-8.6-21-12-23.6c0.1-0.2,0.2-0.3,0.3-0.5c2.1-3.7,6.6-11.4,13.3-11.4
	c11.7,0,24.1,16.4,24.1,46.9l0,1.3C269.4,367.2,269.6,396.1,238.4,410.2z"/>
<path d="M296.9,13.7c-7,0-14.6,19.8-34,19.8c-11.2,0-17.7-8.3-18.4-9c0-3.8,5.3-11.8,5.3-19.3c0-1.9-0.8-5.2-6.9-5.2
	s-9.6,5-10.2,5.8c-0.5,0.8-2.8-1-8.3-1c-5.4,0-7.7,1.9-8.3,1C215.6,5,212.2,0,206,0s-6.9,3.3-6.9,5.2c0,7.4,5.3,15.4,5.3,19.3
	c-0.7,0.8-7.1,9-18.4,9c-19.4,0-27-19.8-34-19.8c-21.5,0-152,90-152,232.3c0,172.5,160.7,349.5,224.4,349.5
	c63.8,0,224.4-177,224.4-349.5C448.9,103.7,318.4,13.7,296.9,13.7z M302,23.9c3.9,0,48.1,49.6,45.1,89.1
	c-5.7-50.6-45.9-86-45.9-88.3C301.2,24.1,301.7,23.9,302,23.9z M148.8,23.9c0.3,0,0.8,0.2,0.8,0.8c0,2.3-40.2,37.7-45.9,88.3
	C100.7,73.6,144.9,23.9,148.8,23.9z M224.4,584.7c-63.8,0-212.2-181.7-212.2-329.3c0-55,55.5-127.1,86.8-127.1
	c2.9,0,6.8,0.9,6.8,0.9s12.5-10.4,30-10.4c32.9,0,50.1,31.5,50.1,43c0,5.9-2.1,4.8-2.1,8.1c0,1.9,2.6,4.5,4.4,4.5
	c2.4,0,10.1-7.5,11.8-10.9c11,0,21.3,12.2,24.3,21.8c3.1-9.5,13.3-21.8,24.3-21.8c1.6,3.4,9.3,10.9,11.7,10.9c1.8,0,4.4-2.7,4.4-4.5
	c0-3.4-2.1-2.3-2.1-8.1c0-11.5,17.3-43,50.1-43c17.5,0,30,10.4,30,10.4s3.9-0.9,6.8-0.9c31.3,0,86.8,72.1,86.8,127.1
	C436.6,403,288.2,584.7,224.4,584.7z"/>
<path class="st5" d="M37.1,201.9l12.4,33.5h7.9l12.4-33.5h-8.4c0,0-7.4,24.3-7.8,24.3s-7.5-24.3-7.5-24.3H37.1z"/>
<path class="st5" d="M93.8,235.4h8.6l-13.3-33.5h-8.2l-13.3,33.5h8.3l2.8-7.4h12.5L93.8,235.4z M80.9,222.1l4.2-11.2l4,11.2H80.9z"
	/>
<path class="st5" d="M293.3,235.4h8.6l-13.3-33.5h-8.2l-13.3,33.5h8.3l2.8-7.4h12.5L293.3,235.4z M280.4,222.1l4.2-11.2l4,11.2
	H280.4z"/>
<polygon class="st5" points="106.8,201.9 106.8,235.4 133.1,235.4 133.1,228.3 114.9,228.3 114.9,201.9 "/>
<polygon class="st5" points="140,201.9 140,235.4 166.3,235.4 166.3,228.4 147.7,228.4 147.7,220.8 163.8,220.8 163.8,215 
	147.7,215 147.7,208.6 166.3,208.6 166.3,201.9 "/>
<polygon class="st5" points="377.9,201.9 377.9,235.4 385.6,235.4 385.5,220.8 401.6,220.8 401.6,215 385.5,215 385.5,208.6 
	404.1,208.6 404.1,201.9 "/>
<polygon class="st5" points="175.4,201.9 175.4,235.4 182.5,235.4 182.5,213.5 196.8,235.4 205.1,235.4 205.1,201.9 197.3,201.9 
	197.3,224.6 183.5,201.9 "/>
<path class="st5" d="M236.7,213.9h8.8c0-7.1-8.1-12-15.9-12c-11,0-16.7,9.8-16.7,17.7c0,9.6,6.2,15.8,16.1,15.8
	c11.8,0,16.5-6.5,16.5-12.2h-8.9c0,1.9-1,6.8-6.8,6.8s-9-5-9-10.5c0-5.5,3.1-11.5,9.2-11.5C234.9,208,236.7,210.7,236.7,213.9z"/>
<path class="st5" d="M344.3,213.9h8.8c0-7.1-8.1-12-15.9-12c-11,0-16.7,9.8-16.7,17.7c0,9.6,6.2,15.8,16.1,15.8
	c11.8,0,16.5-6.5,16.5-12.2h-8.9c0,1.9-1,6.8-6.8,6.8c-5.9,0-9-5-9-10.5c0-5.5,3.1-11.5,9.2-11.5C342.5,208,344.3,210.7,344.3,213.9
	z"/>
<rect x="253.6" y="201.9" class="st5" width="8.1" height="33.5"/>
<rect x="360.8" y="227.4" class="st5" width="8.6" height="7.9"/>
<rect x="403.7" y="227.4" class="st5" width="8.6" height="7.9"/>
</svg>
