<?xml version="1.0" encoding="utf-8"?>
<!-- Generator: Adobe Illustrator 24.0.1, SVG Export Plug-In . SVG Version: 6.00 Build 0)  -->
<svg version="1.1" id="Layer_1" xmlns="http://www.w3.org/2000/svg" xmlns:xlink="http://www.w3.org/1999/xlink" x="0px" y="0px"
	 viewBox="0 0 398.2 500" style="enable-background:new 0 0 398.2 500;" xml:space="preserve">
<style type="text/css">
	.st0{fill:#FFE667;}
	.st1{fill:#005187;}
	.st2{fill:#FFFFFF;}
	.st3{clip-path:url(#XMLID_48_);}
	.st4{clip-path:url(#XMLID_49_);}
	.st5{clip-path:url(#XMLID_50_);fill:#FFE667;}
	.st6{clip-path:url(#XMLID_51_);}
	.st7{clip-path:url(#XMLID_52_);fill:#E70005;}
	.st8{clip-path:url(#XMLID_53_);fill:#E70005;}
	.st9{clip-path:url(#XMLID_54_);fill:#E70005;}
	.st10{clip-path:url(#XMLID_55_);fill:#E70005;}
	.st11{clip-path:url(#XMLID_56_);fill:#E70005;}
	.st12{clip-path:url(#XMLID_57_);fill:#E70005;}
	.st13{clip-path:url(#XMLID_58_);fill:#E70005;}
	.st14{clip-path:url(#XMLID_59_);fill:#E70005;}
	.st15{fill:#E70005;}
</style>
<g id="XMLID_34_">
	<path id="path3" class="st0" d="M198.8,0.6c6.7,0,12.3,5.6,12.3,12.5c0,2-0.5,4-1.4,5.7l0.8,0c6.9,0,12.5,5.6,12.5,12.5
		c0,6.9-5.6,12.5-12.5,12.5c-2.6,0-4.8-0.8-6.9-2.1c0.1,14.2,11.4,25.7,25.6,25.7c12,0,22.1-8.3,24.8-19.6c-1.9,0.6-4.5,0.8-6.7,0.3
		c-6.7-1.6-10.9-8.2-9.3-15c1.5-6.7,8.2-10.9,15-9.4l0.4,0.1c-0.5-1.8-0.5-3.8,0-5.8c1.6-6.7,8.2-10.9,15-9.3
		c6.7,1.5,10.9,8.2,9.3,15c-0.5,2-1.4,3.7-2.6,5.2l0.7,0.1c6.7,1.6,10.9,8.2,9.4,15c-1.5,6.7-8.2,10.9-15,9.4
		c-2.2-0.5-4-1.5-5.6-2.9l-0.1,0.4c-3.2,13.7,5.4,27.6,19.1,30.6c12,2.6,19.6-0.8,23.6-4.8c-2-0.4-4.1-1.2-5.9-2.7
		c-5.3-4.4-6-12.3-1.5-17.6c4.4-5.3,12.3-6,17.6-1.5l3.2,3c4.4-7.7,5-8.9,7.2-12.3c3.8-5.8,9.6-4.1,15.7-0.2l9.6,6.6l-18,18.7
		c0.5,1.2,0.6,2.4,0.6,3.7c0,6.1-4.9,11-11,11c-1.8,0-3.4-0.1-4.9-0.8c-10.4,8.7-24.7,12.6-39,9.3c-11.9-2.7-21.6-9.9-27.7-19.4
		l0.4-0.5c-9.6,5.5-21.2,7.6-32.8,4.9c-8.8-2-16.4-6.5-22.1-12.6c-5.7,6-13.3,10.5-22.1,12.6c-11.6,2.7-23.1,1.2-32.6-4.3l-0.2,0.3
		c-6.1,9.5-15.4,16.3-27.3,19c-14.3,3.3-28.7-0.6-39-9.3c-1.5,0.7-3.1,0.8-4.9,0.8c-6.1,0-11-4.9-11-11c0-1.3,0.1-2.5,0.6-3.7
		l-18-18.7l9.6-6.6c6.1-3.9,11.9-5.5,15.7,0.2c2.2,3.4,2.9,4.7,7.2,12.3l3.2-3c5.3-4.4,13.1-3.7,17.6,1.5c4.4,5.3,3.7,13.1-1.5,17.6
		c-1.8,1.5-3.9,2.4-5.9,2.7c4,4,11.7,7.4,23.7,4.8c13.8-3,22.3-16.9,19.1-30.6l-0.1-0.4c-1.5,1.4-3.4,2.4-5.6,2.9
		c-6.7,1.6-13.4-2.6-15-9.4c-1.5-6.7,2.6-13.4,9.4-15l0.7-0.1c-1.2-1.5-2.1-3.2-2.6-5.2c-1.6-6.7,2.6-13.4,9.4-15
		c6.7-1.6,13.4,2.6,15,9.3c0.5,2,0.4,4,0,5.8l0.4-0.1c6.7-1.6,13.4,2.6,15,9.4c1.6,6.7-2.6,13.4-9.4,15c-2.2,0.5-4.8,0.3-6.7-0.3
		c2.7,11.2,12.8,19.6,24.8,19.6c14.1,0,25.5-11.4,25.5-25.7c-2.1,1.3-4.3,2.1-6.9,2.1c-6.9,0-12.5-5.6-12.5-12.5
		c0-6.9,5.6-12.5,12.5-12.5l0.8,0c-0.9-1.7-1.4-3.6-1.4-5.7C186.5,6.2,192.1,0.6,198.8,0.6z"/>
	<path id="XMLID_31_" class="st1" d="M106.5,95.3c-10.5,0-20.9-3.6-29-10.3c-1.5,0.7-3.2,0.7-4.8,0.7c-6.4,0-11.6-5.2-11.6-11.6
		c0-1.1,0.1-2.3,0.5-3.6L43.5,51.6l10.1-7c4.9-3.2,12-6.5,16.5,0.4c1.7,2.6,2.5,4,4.7,8l2.1,3.7l2.7-2.5c2.7-2.3,6.1-3.3,9.6-3
		c3.5,0.3,6.6,1.9,8.9,4.6c2.2,2.7,3.3,6.1,3,9.5c-0.3,3.5-1.9,6.6-4.6,8.9c-1.4,1.2-3.2,2.1-5,2.6c3.3,2.9,10.2,6.6,22.3,3.9
		c6.4-1.4,11.9-5.3,15.4-10.9c3.5-5.6,4.7-12.1,3.4-18.6c-1.5,1.2-3.2,2-5.1,2.4c-3.4,0.8-6.9,0.2-9.9-1.7c-3-1.8-5-4.7-5.8-8.1
		c-1.6-7,2.7-13.9,9.6-15.6c-1-1.4-1.7-3-2.1-4.7c-0.8-3.4-0.2-6.9,1.6-9.9c1.8-3,4.7-5,8.1-5.8c3.4-0.8,6.9-0.2,9.9,1.6
		c3,1.8,5,4.7,5.8,8.1c0.4,1.7,0.4,3.4,0.1,5.2c3.2-0.6,6.6,0,9.4,1.7c3,1.8,5,4.7,5.8,8.1c1.6,7-2.8,14-9.8,15.7
		c-2,0.5-4.3,0.3-6-0.1c3,10.7,12.8,18.1,24,18.1c13.3,0,24.3-10.7,24.9-24c-2,1.1-4.1,1.7-6.2,1.7c-7.2,0-13.1-5.9-13.1-13.1
		c0-7.1,5.8-13,12.9-13.1c-0.7-1.6-1-3.3-1-5c0-7.2,5.8-13.1,12.9-13.1c7.1,0,12.9,5.9,12.9,13.1c0,1.7-0.4,3.5-1,5
		c7.1,0.1,12.9,5.9,12.9,13.1c0,7.2-5.9,13.1-13.1,13.1c-2.2,0-4.2-0.5-6.3-1.7c0.6,13.3,11.6,24,24.9,24c11.3,0,21-7.4,24-18.1
		c-1.7,0.4-3.9,0.5-6,0.1c-7-1.6-11.4-8.7-9.8-15.7c0.8-3.4,2.8-6.3,5.8-8.1c2.8-1.8,6.1-2.4,9.4-1.7c-0.3-1.7-0.3-3.4,0.1-5.2
		c1.6-7,8.7-11.4,15.7-9.8c3.4,0.8,6.3,2.8,8.1,5.8c1.8,3,2.4,6.5,1.6,9.9c-0.4,1.7-1.1,3.3-2.1,4.7c3.3,0.8,6.2,2.9,8,5.8
		c1.8,3,2.4,6.5,1.6,9.9c-0.8,3.4-2.8,6.3-5.8,8.1c-3,1.9-6.4,2.4-9.9,1.7c-1.9-0.4-3.6-1.3-5.1-2.4c-1.4,6.4-0.2,13,3.4,18.6
		c3.5,5.6,9,9.5,15.5,10.9c12.1,2.6,19-1,22.3-3.9c-1.9-0.5-3.6-1.4-5-2.6c-5.5-4.6-6.2-12.9-1.6-18.4c2.2-2.7,5.4-4.3,8.9-4.6
		c3.5-0.3,6.9,0.8,9.5,3l2.7,2.5l2-3.5c2.3-4.1,3.1-5.5,4.9-8.2c4.5-6.9,11.6-3.5,16.5-0.4l10.1,7l-18.2,18.9
		c0.5,1.2,0.5,2.5,0.5,3.6c0,6.4-5.2,11.6-11.6,11.6c-1.6,0-3.3-0.1-4.8-0.7c-10.8,8.9-25.5,12.4-39.3,9.2
		c-11.5-2.7-21.4-9.5-27.9-19.4c-9.8,5.4-21.2,6.9-32.2,4.4c-8.5-2-16.1-6.2-22-12.3c-5.9,6.1-13.5,10.3-22,12.3
		c-11.6,2.7-23.1,1.2-32.6-4.1c-6.5,9.8-16,16.4-27.5,19.1C113.4,94.9,109.9,95.3,106.5,95.3z M77.7,83.6l0.3,0.2
		c10.6,8.9,25,12.3,38.5,9.2c11.4-2.6,20.7-9.1,26.9-18.7l0.4-0.8l0.5,0.3c9.3,5.4,20.7,6.9,32.2,4.2c8.5-2,16-6.2,21.8-12.4
		l0.4-0.5l0.4,0.5C205,71.8,212.6,76.1,221,78c11.1,2.6,22.6,0.8,32.4-4.9l0.7,0.9l-0.1,0.2c6.3,9.5,15.9,16.2,27.1,18.8
		c13.5,3.1,28-0.3,38.5-9.2l0.3-0.2l0.3,0.2c1.4,0.7,3,0.8,4.6,0.8c5.7,0,10.4-4.7,10.4-10.4c0-1.1-0.1-2.3-0.6-3.5l-0.2-0.4
		l17.8-18.5l-9-6.2c-7.2-4.6-11.8-4.6-14.9,0.1c-1.7,2.6-2.5,4-4.8,8.1l-2.7,4.8l-3.7-3.5c-2.4-2-5.5-3-8.7-2.7
		c-3.2,0.3-6,1.8-8.1,4.2c-2,2.4-3,5.5-2.7,8.7c0.3,3.2,1.8,6,4.2,8.1c1.6,1.3,3.5,2.2,5.6,2.6l1.1,0.2l-0.8,0.8
		c-3.1,3.1-10.4,8-24.2,5c-6.7-1.5-12.5-5.5-16.2-11.4c-3.8-6-5-13.1-3.4-20l0.4-1.3l0.7,0.6c1.5,1.4,3.3,2.3,5.3,2.8
		c3.1,0.7,6.3,0.2,9-1.5c2.7-1.7,4.6-4.3,5.3-7.4c0.7-3.1,0.2-6.3-1.5-9c-1.7-2.7-4.3-4.6-7.4-5.3l-1.7-0.3l0.6-0.8
		c1.2-1.4,2-3.1,2.5-5c0.7-3.1,0.2-6.3-1.5-9s-4.3-4.6-7.4-5.3c-6.4-1.5-12.8,2.5-14.3,8.9c-0.4,1.8-0.4,3.7,0,5.5l0.2,0.9l-1.4-0.3
		c-3.1-0.7-6.3-0.2-9,1.5c-2.7,1.7-4.6,4.3-5.3,7.4c-1.5,6.4,2.5,12.8,8.9,14.3c1.8,0.4,4.3,0.3,6.3-0.3l1-0.3l-0.2,1
		c-2.8,11.8-13.3,20-25.4,20c-14.3,0-26.1-11.8-26.1-26.2l0-1.1L204,41c2.2,1.4,4.3,2,6.6,2c6.6,0,11.9-5.3,11.9-11.9
		c0-6.6-5.3-11.9-11.9-11.9l-1.7,0l0.4-0.9c0.8-1.7,1.3-3.5,1.3-5.4c0-6.6-5.3-11.9-11.7-11.9c-6.5,0-11.8,5.3-11.8,11.9
		c0,1.9,0.4,3.7,1.3,5.4l0.4,0.9l-1.7,0c-6.5,0-11.9,5.3-11.9,11.9c0,6.6,5.3,11.9,11.9,11.9c2.2,0,4.4-0.7,6.5-2l0.9-0.6l0,1.1
		c-0.1,14.5-11.8,26.2-26.1,26.2c-12.1,0-22.6-8.2-25.4-20l-0.2-1l1,0.3c2,0.6,4.5,0.7,6.3,0.3c6.4-1.5,10.4-7.9,8.9-14.3
		c-0.7-3.1-2.6-5.7-5.3-7.4c-2.7-1.7-5.9-2.2-9-1.5l-1.3,0.3l0.2-0.9c0.4-1.8,0.5-3.7,0-5.5c-0.7-3.1-2.6-5.7-5.3-7.4
		c-2.7-1.7-5.9-2.2-9-1.5c-3.1,0.7-5.7,2.6-7.4,5.3c-1.7,2.7-2.2,5.9-1.5,9c0.4,1.9,1.3,3.5,2.5,5l0.6,0.8l-1.7,0.3
		c-6.4,1.5-10.4,7.9-8.9,14.3c0.7,3.1,2.6,5.7,5.3,7.4c2.7,1.7,5.9,2.2,9,1.5c2-0.5,3.8-1.4,5.3-2.8l0.7-0.6l0.4,1.3
		c1.6,6.9,0.4,14-3.4,20c-3.7,5.9-9.5,9.9-16.2,11.4c-13.7,3-21-1.8-24.2-5L89,76.2l1.1-0.2c2.1-0.4,4.1-1.3,5.6-2.6
		c2.4-2,3.9-4.9,4.2-8.1c0.3-3.2-0.7-6.2-2.7-8.7c-4.2-5-11.7-5.7-16.8-1.5l-3.7,3.4l-2.9-5c-2.3-4-3-5.3-4.7-7.9
		c-3.1-4.6-7.6-4.7-14.9,0l-9,6.2L63,70.3l-0.2,0.4c-0.5,1.1-0.6,2.4-0.6,3.5c0,5.7,4.7,10.4,10.4,10.4c1.6,0,3.2-0.1,4.6-0.8
		L77.7,83.6z"/>
	<circle id="circle7" class="st2" cx="199.1" cy="282.2" r="199.7">
	</circle>
	<path id="XMLID_28_" class="st1" d="M199.1,482.5C88.7,482.5-1.2,392.6-1.2,282.2S88.7,81.9,199.1,81.9
		c110.4,0,200.3,89.8,200.3,200.3S309.5,482.5,199.1,482.5z M199.1,83.1C89.3,83.1,0,172.4,0,282.2C0,392,89.3,481.3,199.1,481.3
		c109.8,0,199.1-89.3,199.1-199.1C398.2,172.4,308.9,83.1,199.1,83.1z"/>
	<path id="path11" class="st1" d="M6.8,283.2c0-105.9,85.9-191.8,191.8-191.8s191.8,85.9,191.8,191.8
		c0,105.9-85.9,191.8-191.8,191.8S6.8,389.1,6.8,283.2"/>
	<path id="path13" class="st2" d="M229.8,104.6l42.8,56l45.9,0.2v32.4h-20.9l66.7,89.2l-144,195l-42.9,0.1L33.2,282l67.8-89.2H77.8
		v-32.5l47.4-0.1l42.4-55.8c0,0,16.6-2.2,30.6-2.2C209.9,102.2,229.8,104.6,229.8,104.6"/>
	<path id="path15" class="st0" d="M141.6,143.6c-19.4-0.3-36.4-11-45.3-26.7c-0.8-1.4-1.1-3.2-1.1-5c0-3.9,2.2-7.3,5.6-9
		c29.8-13.6,62.8-21.2,97.7-21.2c34.2,0,66.5,7.3,95.9,20.4l-0.2,0c3.3,1.6,5.8,5.1,5.8,9.1c0,1.9-0.8,4.2-1.7,5.7
		c-9.3,15.9-26.6,26.6-46.3,26.6c-2.4,0-6.6,0.1-6.6,0.1L141.6,143.6"/>
	<g id="g17" transform="translate(-40.256163,-154.35391)">
		<g>
			<defs>
				<path id="XMLID_46_" d="M181.9,297.9c-19.4-0.3-36.4-11-45.3-26.7c-0.8-1.4-1.1-3.2-1.1-5c0-3.9,2.2-7.3,5.6-9
					c29.8-13.6,62.8-21.2,97.7-21.2c34.2,0,66.5,7.3,95.9,20.4l-0.2,0c3.3,1.6,5.8,5.1,5.8,9.1c0,1.9-0.8,4.2-1.7,5.7
					c-9.3,15.9-26.6,26.6-46.3,26.6c-2.4,0-6.6,0.1-6.6,0.1L181.9,297.9"/>
			</defs>
			<clipPath id="XMLID_48_">
				<use xlink:href="#XMLID_46_"  style="overflow:visible;"/>
			</clipPath>
			
				<ellipse id="circle25" transform="matrix(0.7071 -0.7071 0.7071 0.7071 -253.3593 301.8241)" class="st3" cx="237.7" cy="456.7" rx="196.2" ry="196.2">
			</ellipse>
		</g>
		<g>
			<defs>
				<path id="XMLID_45_" d="M181.9,297.9c-19.4-0.3-36.4-11-45.3-26.7c-0.8-1.4-1.1-3.2-1.1-5c0-3.9,2.2-7.3,5.6-9
					c29.8-13.6,62.8-21.2,97.7-21.2c34.2,0,66.5,7.3,95.9,20.4l-0.2,0c3.3,1.6,5.8,5.1,5.8,9.1c0,1.9-0.8,4.2-1.7,5.7
					c-9.3,15.9-26.6,26.6-46.3,26.6c-2.4,0-6.6,0.1-6.6,0.1L181.9,297.9"/>
			</defs>
			<clipPath id="XMLID_49_">
				<use xlink:href="#XMLID_45_"  style="overflow:visible;"/>
			</clipPath>
			<path id="XMLID_25_" class="st4" d="M237.7,654c-108.8,0-197.3-88.5-197.3-197.3c0-108.8,88.5-197.3,197.3-197.3
				C346.4,259.4,435,348,435,456.7C435,565.5,346.4,654,237.7,654z M237.7,261.7c-107.5,0-195,87.5-195,195
				c0,107.5,87.5,195,195,195c107.5,0,195-87.5,195-195C432.7,349.2,345.2,261.7,237.7,261.7z"/>
		</g>
		<g>
			<defs>
				<path id="XMLID_44_" d="M181.9,297.9c-19.4-0.3-36.4-11-45.3-26.7c-0.8-1.4-1.1-3.2-1.1-5c0-3.9,2.2-7.3,5.6-9
					c29.8-13.6,62.8-21.2,97.7-21.2c34.2,0,66.5,7.3,95.9,20.4l-0.2,0c3.3,1.6,5.8,5.1,5.8,9.1c0,1.9-0.8,4.2-1.7,5.7
					c-9.3,15.9-26.6,26.6-46.3,26.6c-2.4,0-6.6,0.1-6.6,0.1L181.9,297.9"/>
			</defs>
			<clipPath id="XMLID_50_">
				<use xlink:href="#XMLID_44_"  style="overflow:visible;"/>
			</clipPath>
			<path id="path29" class="st5" d="M132.5,258.6c1.5,1.3-9,12.5,2.3,21.2c16.5,12.8,16.7-18.5,105-18.5c60.5,0,84.3,20,84.3,20
				l-10.1,2.6l-9.1,0.7l2.2-6.6l-2.9-4l-4,4.8l-2.6,0.4l-2.2-6.8l-2.9,6.1l-7,3.3l10.9,15.3c21.9-1.2,46.8-21.6,46.8-31.2
				c0-16.7-55.3-31.9-104.6-31.9C192,233.9,131.1,257.2,132.5,258.6L132.5,258.6z"/>
		</g>
		<g>
			<defs>
				<path id="XMLID_43_" d="M181.9,297.9c-19.4-0.3-36.4-11-45.3-26.7c-0.8-1.4-1.1-3.2-1.1-5c0-3.9,2.2-7.3,5.6-9
					c29.8-13.6,62.8-21.2,97.7-21.2c34.2,0,66.5,7.3,95.9,20.4l-0.2,0c3.3,1.6,5.8,5.1,5.8,9.1c0,1.9-0.8,4.2-1.7,5.7
					c-9.3,15.9-26.6,26.6-46.3,26.6c-2.4,0-6.6,0.1-6.6,0.1L181.9,297.9"/>
			</defs>
			<clipPath id="XMLID_51_">
				<use xlink:href="#XMLID_43_"  style="overflow:visible;"/>
			</clipPath>
			<path id="XMLID_22_" class="st6" d="M296.3,297.4l-0.1-0.1L285,281.6l7.2-3.4l3.2-6.7l0.2,0.8l2.1,6.6l2.2-0.3l4.2-5l3.3,4.5
				l-2.1,6.3l8.7-0.7l9.4-2.4c-3.8-2.8-28.6-19.6-83.6-19.6c-52.4,0-73.3,10.8-85.8,17.3c-8.3,4.3-12.5,6.5-19.3,1.2
				c-8.5-6.6-5-14.4-3.2-18.7c0.5-1.1,1.1-2.4,0.8-2.6l0,0c-0.1-0.1-0.2-0.3-0.1-0.4c1-2.7,61.8-24.8,106.5-24.8
				c23.7,0,50.2,3.6,70.8,9.7c21.6,6.4,34,14.6,34,22.5c0,9.8-25.4,30.3-47.1,31.5L296.3,297.4z M286,281.9l10.6,14.9
				c21.4-1.3,46.4-21.3,46.4-30.9c0-15.7-52.6-31.6-104.2-31.6c-45.2,0-103,21.8-105.8,24.3c0.3,0.6-0.1,1.6-0.8,3.1
				c-1.8,4.1-5.1,11.6,3,17.9c6.5,5.1,10.3,3.1,18.7-1.2c12.6-6.5,33.6-17.3,86.1-17.3c59.9,0,84.3,19.9,84.5,20.1l0.5,0.4l-0.6,0.1
				l-10.1,2.6l-9.7,0.8l0.2-0.5l2.1-6.4l-2.6-3.6l-3.8,4.5l-0.1,0l-2.8,0.4l-0.1-0.3l-2-6.1l-2.6,5.5l-0.1,0L286,281.9z"/>
		</g>
	</g>
	<path id="XMLID_19_" d="M245.5,144.3l-103.9-0.1c-19-0.3-36.5-10.7-45.8-27c-0.8-1.4-1.2-3.2-1.2-5.2c0-4.1,2.3-7.7,5.9-9.5
		c30.8-14.1,63.8-21.3,98-21.3c33.3,0,65.7,6.9,96.2,20.5l0,0.1c3.7,1.8,6,5.6,6,9.6c0,2.1-0.9,4.5-1.8,6
		c-9.7,16.6-27.7,26.9-46.8,26.9C249.7,144.2,245.5,144.3,245.5,144.3z M141.6,143l103.9,0.1c0,0,4.2-0.1,6.6-0.1
		c18.7,0,36.2-10.1,45.8-26.3c0.8-1.3,1.6-3.6,1.6-5.4c0-3.6-2.2-7-5.5-8.6l-2-0.9l0,0c-29.7-12.9-61.2-19.4-93.6-19.4
		c-34,0-66.8,7.1-97.5,21.2c-3.2,1.6-5.3,4.8-5.3,8.4c0,1.9,0.3,3.5,1,4.7C105.9,132.5,123.1,142.7,141.6,143z"/>
	<path id="path35" class="st0" d="M229,110.3l130.1,172L199,499L38.9,281.9l130-171.8c0,0,16-2.1,29.6-2.1
		C209.9,108,229,110.3,229,110.3"/>
	<g id="g37" transform="translate(-40.256163,-154.35391)">
		<g>
			<defs>
				<path id="XMLID_42_" d="M269.3,264.6l130.1,172L239.3,653.4L79.2,436.2l130-171.8c0,0,16-2.1,29.6-2.1
					C250.1,262.3,269.3,264.6,269.3,264.6"/>
			</defs>
			<clipPath id="XMLID_52_">
				<use xlink:href="#XMLID_42_"  style="overflow:visible;"/>
			</clipPath>
			<polygon id="polygon45" class="st7" points="148.7,359 148.7,514.9 112.7,470 112.7,404.7 			"/>
		</g>
		<g>
			<defs>
				<path id="XMLID_41_" d="M269.3,264.6l130.1,172L239.3,653.4L79.2,436.2l130-171.8c0,0,16-2.1,29.6-2.1
					C250.1,262.3,269.3,264.6,269.3,264.6"/>
			</defs>
			<clipPath id="XMLID_53_">
				<use xlink:href="#XMLID_41_"  style="overflow:visible;"/>
			</clipPath>
			<path id="XMLID_16_" class="st8" d="M149.9,518.1l-38.3-47.7v-66.1l0.2-0.3l38-48.3V518.1z M113.9,469.6l33.7,42.1V362.3
				l-33.7,42.9V469.6z"/>
		</g>
		<g>
			<defs>
				<path id="XMLID_40_" d="M269.3,264.6l130.1,172L239.3,653.4L79.2,436.2l130-171.8c0,0,16-2.1,29.6-2.1
					C250.1,262.3,269.3,264.6,269.3,264.6"/>
			</defs>
			<clipPath id="XMLID_54_">
				<use xlink:href="#XMLID_40_"  style="overflow:visible;"/>
			</clipPath>
			<polygon id="polygon49" class="st9" points="183.4,313.7 183.4,567.1 219.4,613.1 219.4,266 			"/>
		</g>
		<g>
			<defs>
				<path id="XMLID_39_" d="M269.3,264.6l130.1,172L239.3,653.4L79.2,436.2l130-171.8c0,0,16-2.1,29.6-2.1
					C250.1,262.3,269.3,264.6,269.3,264.6"/>
			</defs>
			<clipPath id="XMLID_55_">
				<use xlink:href="#XMLID_39_"  style="overflow:visible;"/>
			</clipPath>
			<path id="XMLID_13_" class="st10" d="M220.6,616.4l-38.3-49V313.3l38.3-50.7L220.6,616.4z M184.5,566.7l33.8,43.2l0-340.5
				l-33.8,44.7V566.7z"/>
		</g>
		<g>
			<defs>
				<path id="XMLID_38_" d="M269.3,264.6l130.1,172L239.3,653.4L79.2,436.2l130-171.8c0,0,16-2.1,29.6-2.1
					C250.1,262.3,269.3,264.6,269.3,264.6"/>
			</defs>
			<clipPath id="XMLID_56_">
				<use xlink:href="#XMLID_38_"  style="overflow:visible;"/>
			</clipPath>
			<polygon id="polygon53" class="st11" points="329.6,359.5 329.6,513.7 365,469.6 365,405 			"/>
		</g>
		<g>
			<defs>
				<path id="XMLID_37_" d="M269.3,264.6l130.1,172L239.3,653.4L79.2,436.2l130-171.8c0,0,16-2.1,29.6-2.1
					C250.1,262.3,269.3,264.6,269.3,264.6"/>
			</defs>
			<clipPath id="XMLID_57_">
				<use xlink:href="#XMLID_37_"  style="overflow:visible;"/>
			</clipPath>
			<path id="XMLID_10_" class="st12" d="M328.5,516.9V356.2l37.7,48.4V470l-0.3,0.3L328.5,516.9z M330.8,362.8v147.7l33.1-41.3
				v-63.8L330.8,362.8z"/>
		</g>
		<g>
			<defs>
				<path id="XMLID_36_" d="M269.3,264.6l130.1,172L239.3,653.4L79.2,436.2l130-171.8c0,0,16-2.1,29.6-2.1
					C250.1,262.3,269.3,264.6,269.3,264.6"/>
			</defs>
			<clipPath id="XMLID_58_">
				<use xlink:href="#XMLID_36_"  style="overflow:visible;"/>
			</clipPath>
			<polygon id="polygon57" class="st13" points="295.2,313.9 295.2,566.3 259.4,613.5 258.8,265 			"/>
		</g>
		<g>
			<defs>
				<path id="XMLID_35_" d="M269.3,264.6l130.1,172L239.3,653.4L79.2,436.2l130-171.8c0,0,16-2.1,29.6-2.1
					C250.1,262.3,269.3,264.6,269.3,264.6"/>
			</defs>
			<clipPath id="XMLID_59_">
				<use xlink:href="#XMLID_35_"  style="overflow:visible;"/>
			</clipPath>
			<path id="XMLID_7_" class="st14" d="M258.3,616.9l-0.7-355.3l38.7,52v253.1l-0.2,0.3L258.3,616.9z M259.9,268.4l0.6,341.8
				l33.5-44.3V314.3L259.9,268.4z"/>
		</g>
	</g>
	<path id="XMLID_4_" class="st1" d="M199,500l-0.5-0.6L38.2,281.9l0.3-0.3l130.2-172l0.2,0c0.2,0,16.2-2.1,29.7-2.1
		c11.2,0,30.4,2.3,30.6,2.3l0.2,0l0.1,0.2l130.4,172.3l-0.3,0.4L199,500z M39.6,281.9L199,498l159.4-215.8L228.7,110.8
		c-2.3-0.3-19.7-2.3-30.2-2.3c-12.5,0-27.3,1.8-29.3,2.1L39.6,281.9z"/>
	<path id="path63" class="st15" d="M191.3,29.1c0-4.3,3.5-7.7,7.7-7.7c4.3,0,7.7,3.5,7.7,7.7c0,4.3-3.5,7.7-7.7,7.7
		C194.8,36.8,191.3,33.4,191.3,29.1"/>
	<path id="path65" class="st15" d="M128.2,37.1c0-4.3,3.5-7.7,7.7-7.7c4.3,0,7.7,3.5,7.7,7.7c0,4.3-3.5,7.7-7.7,7.7
		C131.7,44.8,128.2,41.4,128.2,37.1"/>
	<path id="path67" class="st15" d="M255,37.1c0-4.3,3.5-7.7,7.7-7.7c4.3,0,7.7,3.5,7.7,7.7c0,4.3-3.5,7.7-7.7,7.7
		C258.5,44.8,255,41.4,255,37.1"/>
	<path id="path69" class="st15" d="M319.5,76.9c0-4.3,3.5-7.7,7.7-7.7c4.3,0,7.7,3.5,7.7,7.7c0,4.3-3.5,7.7-7.7,7.7
		C322.9,84.6,319.5,81.2,319.5,76.9"/>
	<path id="path71" class="st15" d="M62.5,76.9c0-4.3,3.5-7.7,7.7-7.7c4.3,0,7.7,3.5,7.7,7.7c0,4.3-3.5,7.7-7.7,7.7
		C65.9,84.6,62.5,81.2,62.5,76.9"/>
	<polyline id="polyline73" class="st15" points="198.5,86.4 180.3,93.4 198.5,101.8 216.9,93.6 198.5,86.4 	"/>
	<polyline id="polyline75" class="st1" points="117.2,102.1 102.6,115.3 122.7,116.5 136.9,102.3 117.2,102.1 	"/>
	<polyline id="polyline77" class="st1" points="279.5,102.1 294,115.3 273.9,116.5 259.7,102.3 279.5,102.1 	"/>
	<path id="path79" d="M139.9,237.6c-6.1-3.8-11.2-5.3-17.9-5.3c-24.9,0-43,21.7-43,51.4c0,28,18.5,50.2,41.8,50.2
		c6.9,0,12.2-1.5,19.1-5.3V300c-4.4,4.2-8.8,6.3-13.7,6.3c-11.3,0-19-9.5-19-23.4c0-13.1,8-22.8,18.6-22.8c4.9,0,8.8,1.7,14.1,6.1
		V237.6"/>
	<polyline id="polyline81" points="319.1,255 319.1,233.6 262,233.6 262,333.7 287.9,333.7 287.9,292.5 316.3,292.5 316.3,271.1 
		287.9,271.1 287.9,255 319.1,255 	"/>
	<polyline id="polyline83" points="80.6,163 80.6,190.2 134.4,190.1 198.2,411.3 259.8,190.1 315.6,190.1 315.6,163 239.7,163 
		198.8,312.3 157.7,163 80.6,163 	"/>
	<polygon id="polygon85" class="st0" points="130.6,121.6 136.1,130.2 135.7,137.6 141.6,137.3 157.6,113.8 	"/>
	<path id="XMLID_1_" d="M135.1,138.2l0.4-7.9l-5.8-9.1l29.2-8.3l-17.1,24.9L135.1,138.2z M131.4,121.9l5.2,8.1l0,0.2l-0.4,6.8l5-0.3
		l15.1-22L131.4,121.9z"/>
</g>
</svg>
